G04 #@! TF.GenerationSoftware,KiCad,Pcbnew,9.0.5*
G04 #@! TF.CreationDate,2025-10-13T16:35:57+02:00*
G04 #@! TF.ProjectId,rec_play_switch_mount,7265635f-706c-4617-995f-737769746368,rev?*
G04 #@! TF.SameCoordinates,Original*
G04 #@! TF.FileFunction,Legend,Bot*
G04 #@! TF.FilePolarity,Positive*
%FSLAX46Y46*%
G04 Gerber Fmt 4.6, Leading zero omitted, Abs format (unit mm)*
G04 Created by KiCad (PCBNEW 9.0.5) date 2025-10-13 16:35:57*
%MOMM*%
%LPD*%
G01*
G04 APERTURE LIST*
%ADD10C,0.150000*%
%ADD11R,1.000000X1.000000*%
%ADD12C,1.000000*%
%ADD13C,1.700000*%
%ADD14R,1.700000X1.700000*%
G04 APERTURE END LIST*
D10*
X193338220Y-83660931D02*
X193338220Y-84470454D01*
X193338220Y-84470454D02*
X193290601Y-84565692D01*
X193290601Y-84565692D02*
X193242982Y-84613312D01*
X193242982Y-84613312D02*
X193147744Y-84660931D01*
X193147744Y-84660931D02*
X192957268Y-84660931D01*
X192957268Y-84660931D02*
X192862030Y-84613312D01*
X192862030Y-84613312D02*
X192814411Y-84565692D01*
X192814411Y-84565692D02*
X192766792Y-84470454D01*
X192766792Y-84470454D02*
X192766792Y-83660931D01*
X192290601Y-84660931D02*
X192290601Y-83660931D01*
X192290601Y-83660931D02*
X191719173Y-84660931D01*
X191719173Y-84660931D02*
X191719173Y-83660931D01*
X191242982Y-84660931D02*
X191242982Y-83660931D01*
X190909649Y-83660931D02*
X190338221Y-83660931D01*
X190623935Y-84660931D02*
X190623935Y-83660931D01*
X189433459Y-84660931D02*
X189766792Y-84184740D01*
X190004887Y-84660931D02*
X190004887Y-83660931D01*
X190004887Y-83660931D02*
X189623935Y-83660931D01*
X189623935Y-83660931D02*
X189528697Y-83708550D01*
X189528697Y-83708550D02*
X189481078Y-83756169D01*
X189481078Y-83756169D02*
X189433459Y-83851407D01*
X189433459Y-83851407D02*
X189433459Y-83994264D01*
X189433459Y-83994264D02*
X189481078Y-84089502D01*
X189481078Y-84089502D02*
X189528697Y-84137121D01*
X189528697Y-84137121D02*
X189623935Y-84184740D01*
X189623935Y-84184740D02*
X190004887Y-84184740D01*
X189052506Y-84375216D02*
X188576316Y-84375216D01*
X189147744Y-84660931D02*
X188814411Y-83660931D01*
X188814411Y-83660931D02*
X188481078Y-84660931D01*
X186814411Y-84660931D02*
X187147744Y-84184740D01*
X187385839Y-84660931D02*
X187385839Y-83660931D01*
X187385839Y-83660931D02*
X187004887Y-83660931D01*
X187004887Y-83660931D02*
X186909649Y-83708550D01*
X186909649Y-83708550D02*
X186862030Y-83756169D01*
X186862030Y-83756169D02*
X186814411Y-83851407D01*
X186814411Y-83851407D02*
X186814411Y-83994264D01*
X186814411Y-83994264D02*
X186862030Y-84089502D01*
X186862030Y-84089502D02*
X186909649Y-84137121D01*
X186909649Y-84137121D02*
X187004887Y-84184740D01*
X187004887Y-84184740D02*
X187385839Y-84184740D01*
X186385839Y-84137121D02*
X186052506Y-84137121D01*
X185909649Y-84660931D02*
X186385839Y-84660931D01*
X186385839Y-84660931D02*
X186385839Y-83660931D01*
X186385839Y-83660931D02*
X185909649Y-83660931D01*
X184909649Y-84565692D02*
X184957268Y-84613312D01*
X184957268Y-84613312D02*
X185100125Y-84660931D01*
X185100125Y-84660931D02*
X185195363Y-84660931D01*
X185195363Y-84660931D02*
X185338220Y-84613312D01*
X185338220Y-84613312D02*
X185433458Y-84518073D01*
X185433458Y-84518073D02*
X185481077Y-84422835D01*
X185481077Y-84422835D02*
X185528696Y-84232359D01*
X185528696Y-84232359D02*
X185528696Y-84089502D01*
X185528696Y-84089502D02*
X185481077Y-83899026D01*
X185481077Y-83899026D02*
X185433458Y-83803788D01*
X185433458Y-83803788D02*
X185338220Y-83708550D01*
X185338220Y-83708550D02*
X185195363Y-83660931D01*
X185195363Y-83660931D02*
X185100125Y-83660931D01*
X185100125Y-83660931D02*
X184957268Y-83708550D01*
X184957268Y-83708550D02*
X184909649Y-83756169D01*
X183766792Y-83613312D02*
X184623934Y-84899026D01*
X183433458Y-84660931D02*
X183433458Y-83660931D01*
X183433458Y-83660931D02*
X183052506Y-83660931D01*
X183052506Y-83660931D02*
X182957268Y-83708550D01*
X182957268Y-83708550D02*
X182909649Y-83756169D01*
X182909649Y-83756169D02*
X182862030Y-83851407D01*
X182862030Y-83851407D02*
X182862030Y-83994264D01*
X182862030Y-83994264D02*
X182909649Y-84089502D01*
X182909649Y-84089502D02*
X182957268Y-84137121D01*
X182957268Y-84137121D02*
X183052506Y-84184740D01*
X183052506Y-84184740D02*
X183433458Y-84184740D01*
X181957268Y-84660931D02*
X182433458Y-84660931D01*
X182433458Y-84660931D02*
X182433458Y-83660931D01*
X181671553Y-84375216D02*
X181195363Y-84375216D01*
X181766791Y-84660931D02*
X181433458Y-83660931D01*
X181433458Y-83660931D02*
X181100125Y-84660931D01*
X180576315Y-84184740D02*
X180576315Y-84660931D01*
X180909648Y-83660931D02*
X180576315Y-84184740D01*
X180576315Y-84184740D02*
X180242982Y-83660931D01*
X179195362Y-84613312D02*
X179052505Y-84660931D01*
X179052505Y-84660931D02*
X178814410Y-84660931D01*
X178814410Y-84660931D02*
X178719172Y-84613312D01*
X178719172Y-84613312D02*
X178671553Y-84565692D01*
X178671553Y-84565692D02*
X178623934Y-84470454D01*
X178623934Y-84470454D02*
X178623934Y-84375216D01*
X178623934Y-84375216D02*
X178671553Y-84279978D01*
X178671553Y-84279978D02*
X178719172Y-84232359D01*
X178719172Y-84232359D02*
X178814410Y-84184740D01*
X178814410Y-84184740D02*
X179004886Y-84137121D01*
X179004886Y-84137121D02*
X179100124Y-84089502D01*
X179100124Y-84089502D02*
X179147743Y-84041883D01*
X179147743Y-84041883D02*
X179195362Y-83946645D01*
X179195362Y-83946645D02*
X179195362Y-83851407D01*
X179195362Y-83851407D02*
X179147743Y-83756169D01*
X179147743Y-83756169D02*
X179100124Y-83708550D01*
X179100124Y-83708550D02*
X179004886Y-83660931D01*
X179004886Y-83660931D02*
X178766791Y-83660931D01*
X178766791Y-83660931D02*
X178623934Y-83708550D01*
X178290600Y-83660931D02*
X178052505Y-84660931D01*
X178052505Y-84660931D02*
X177862029Y-83946645D01*
X177862029Y-83946645D02*
X177671553Y-84660931D01*
X177671553Y-84660931D02*
X177433458Y-83660931D01*
X177052505Y-84660931D02*
X177052505Y-83660931D01*
X176719172Y-83660931D02*
X176147744Y-83660931D01*
X176433458Y-84660931D02*
X176433458Y-83660931D01*
X175242982Y-84565692D02*
X175290601Y-84613312D01*
X175290601Y-84613312D02*
X175433458Y-84660931D01*
X175433458Y-84660931D02*
X175528696Y-84660931D01*
X175528696Y-84660931D02*
X175671553Y-84613312D01*
X175671553Y-84613312D02*
X175766791Y-84518073D01*
X175766791Y-84518073D02*
X175814410Y-84422835D01*
X175814410Y-84422835D02*
X175862029Y-84232359D01*
X175862029Y-84232359D02*
X175862029Y-84089502D01*
X175862029Y-84089502D02*
X175814410Y-83899026D01*
X175814410Y-83899026D02*
X175766791Y-83803788D01*
X175766791Y-83803788D02*
X175671553Y-83708550D01*
X175671553Y-83708550D02*
X175528696Y-83660931D01*
X175528696Y-83660931D02*
X175433458Y-83660931D01*
X175433458Y-83660931D02*
X175290601Y-83708550D01*
X175290601Y-83708550D02*
X175242982Y-83756169D01*
X174814410Y-84660931D02*
X174814410Y-83660931D01*
X174814410Y-84137121D02*
X174242982Y-84137121D01*
X174242982Y-84660931D02*
X174242982Y-83660931D01*
X173004886Y-84660931D02*
X173004886Y-83660931D01*
X173004886Y-83660931D02*
X172671553Y-84375216D01*
X172671553Y-84375216D02*
X172338220Y-83660931D01*
X172338220Y-83660931D02*
X172338220Y-84660931D01*
X171671553Y-83660931D02*
X171481077Y-83660931D01*
X171481077Y-83660931D02*
X171385839Y-83708550D01*
X171385839Y-83708550D02*
X171290601Y-83803788D01*
X171290601Y-83803788D02*
X171242982Y-83994264D01*
X171242982Y-83994264D02*
X171242982Y-84327597D01*
X171242982Y-84327597D02*
X171290601Y-84518073D01*
X171290601Y-84518073D02*
X171385839Y-84613312D01*
X171385839Y-84613312D02*
X171481077Y-84660931D01*
X171481077Y-84660931D02*
X171671553Y-84660931D01*
X171671553Y-84660931D02*
X171766791Y-84613312D01*
X171766791Y-84613312D02*
X171862029Y-84518073D01*
X171862029Y-84518073D02*
X171909648Y-84327597D01*
X171909648Y-84327597D02*
X171909648Y-83994264D01*
X171909648Y-83994264D02*
X171862029Y-83803788D01*
X171862029Y-83803788D02*
X171766791Y-83708550D01*
X171766791Y-83708550D02*
X171671553Y-83660931D01*
X170814410Y-83660931D02*
X170814410Y-84470454D01*
X170814410Y-84470454D02*
X170766791Y-84565692D01*
X170766791Y-84565692D02*
X170719172Y-84613312D01*
X170719172Y-84613312D02*
X170623934Y-84660931D01*
X170623934Y-84660931D02*
X170433458Y-84660931D01*
X170433458Y-84660931D02*
X170338220Y-84613312D01*
X170338220Y-84613312D02*
X170290601Y-84565692D01*
X170290601Y-84565692D02*
X170242982Y-84470454D01*
X170242982Y-84470454D02*
X170242982Y-83660931D01*
X169766791Y-84660931D02*
X169766791Y-83660931D01*
X169766791Y-83660931D02*
X169195363Y-84660931D01*
X169195363Y-84660931D02*
X169195363Y-83660931D01*
X168862029Y-83660931D02*
X168290601Y-83660931D01*
X168576315Y-84660931D02*
X168576315Y-83660931D01*
X192766792Y-86270875D02*
X193100125Y-85794684D01*
X193338220Y-86270875D02*
X193338220Y-85270875D01*
X193338220Y-85270875D02*
X192957268Y-85270875D01*
X192957268Y-85270875D02*
X192862030Y-85318494D01*
X192862030Y-85318494D02*
X192814411Y-85366113D01*
X192814411Y-85366113D02*
X192766792Y-85461351D01*
X192766792Y-85461351D02*
X192766792Y-85604208D01*
X192766792Y-85604208D02*
X192814411Y-85699446D01*
X192814411Y-85699446D02*
X192862030Y-85747065D01*
X192862030Y-85747065D02*
X192957268Y-85794684D01*
X192957268Y-85794684D02*
X193338220Y-85794684D01*
X192385839Y-85366113D02*
X192338220Y-85318494D01*
X192338220Y-85318494D02*
X192242982Y-85270875D01*
X192242982Y-85270875D02*
X192004887Y-85270875D01*
X192004887Y-85270875D02*
X191909649Y-85318494D01*
X191909649Y-85318494D02*
X191862030Y-85366113D01*
X191862030Y-85366113D02*
X191814411Y-85461351D01*
X191814411Y-85461351D02*
X191814411Y-85556589D01*
X191814411Y-85556589D02*
X191862030Y-85699446D01*
X191862030Y-85699446D02*
X192433458Y-86270875D01*
X192433458Y-86270875D02*
X191814411Y-86270875D01*
X193385839Y-86976057D02*
X193338220Y-86928438D01*
X193338220Y-86928438D02*
X193242982Y-86880819D01*
X193242982Y-86880819D02*
X193004887Y-86880819D01*
X193004887Y-86880819D02*
X192909649Y-86928438D01*
X192909649Y-86928438D02*
X192862030Y-86976057D01*
X192862030Y-86976057D02*
X192814411Y-87071295D01*
X192814411Y-87071295D02*
X192814411Y-87166533D01*
X192814411Y-87166533D02*
X192862030Y-87309390D01*
X192862030Y-87309390D02*
X193433458Y-87880819D01*
X193433458Y-87880819D02*
X192814411Y-87880819D01*
X192195363Y-86880819D02*
X192100125Y-86880819D01*
X192100125Y-86880819D02*
X192004887Y-86928438D01*
X192004887Y-86928438D02*
X191957268Y-86976057D01*
X191957268Y-86976057D02*
X191909649Y-87071295D01*
X191909649Y-87071295D02*
X191862030Y-87261771D01*
X191862030Y-87261771D02*
X191862030Y-87499866D01*
X191862030Y-87499866D02*
X191909649Y-87690342D01*
X191909649Y-87690342D02*
X191957268Y-87785580D01*
X191957268Y-87785580D02*
X192004887Y-87833200D01*
X192004887Y-87833200D02*
X192100125Y-87880819D01*
X192100125Y-87880819D02*
X192195363Y-87880819D01*
X192195363Y-87880819D02*
X192290601Y-87833200D01*
X192290601Y-87833200D02*
X192338220Y-87785580D01*
X192338220Y-87785580D02*
X192385839Y-87690342D01*
X192385839Y-87690342D02*
X192433458Y-87499866D01*
X192433458Y-87499866D02*
X192433458Y-87261771D01*
X192433458Y-87261771D02*
X192385839Y-87071295D01*
X192385839Y-87071295D02*
X192338220Y-86976057D01*
X192338220Y-86976057D02*
X192290601Y-86928438D01*
X192290601Y-86928438D02*
X192195363Y-86880819D01*
X191481077Y-86976057D02*
X191433458Y-86928438D01*
X191433458Y-86928438D02*
X191338220Y-86880819D01*
X191338220Y-86880819D02*
X191100125Y-86880819D01*
X191100125Y-86880819D02*
X191004887Y-86928438D01*
X191004887Y-86928438D02*
X190957268Y-86976057D01*
X190957268Y-86976057D02*
X190909649Y-87071295D01*
X190909649Y-87071295D02*
X190909649Y-87166533D01*
X190909649Y-87166533D02*
X190957268Y-87309390D01*
X190957268Y-87309390D02*
X191528696Y-87880819D01*
X191528696Y-87880819D02*
X190909649Y-87880819D01*
X190004887Y-86880819D02*
X190481077Y-86880819D01*
X190481077Y-86880819D02*
X190528696Y-87357009D01*
X190528696Y-87357009D02*
X190481077Y-87309390D01*
X190481077Y-87309390D02*
X190385839Y-87261771D01*
X190385839Y-87261771D02*
X190147744Y-87261771D01*
X190147744Y-87261771D02*
X190052506Y-87309390D01*
X190052506Y-87309390D02*
X190004887Y-87357009D01*
X190004887Y-87357009D02*
X189957268Y-87452247D01*
X189957268Y-87452247D02*
X189957268Y-87690342D01*
X189957268Y-87690342D02*
X190004887Y-87785580D01*
X190004887Y-87785580D02*
X190052506Y-87833200D01*
X190052506Y-87833200D02*
X190147744Y-87880819D01*
X190147744Y-87880819D02*
X190385839Y-87880819D01*
X190385839Y-87880819D02*
X190481077Y-87833200D01*
X190481077Y-87833200D02*
X190528696Y-87785580D01*
X189528696Y-87785580D02*
X189481077Y-87833200D01*
X189481077Y-87833200D02*
X189528696Y-87880819D01*
X189528696Y-87880819D02*
X189576315Y-87833200D01*
X189576315Y-87833200D02*
X189528696Y-87785580D01*
X189528696Y-87785580D02*
X189528696Y-87880819D01*
X188528697Y-87880819D02*
X189100125Y-87880819D01*
X188814411Y-87880819D02*
X188814411Y-86880819D01*
X188814411Y-86880819D02*
X188909649Y-87023676D01*
X188909649Y-87023676D02*
X189004887Y-87118914D01*
X189004887Y-87118914D02*
X189100125Y-87166533D01*
X187909649Y-86880819D02*
X187814411Y-86880819D01*
X187814411Y-86880819D02*
X187719173Y-86928438D01*
X187719173Y-86928438D02*
X187671554Y-86976057D01*
X187671554Y-86976057D02*
X187623935Y-87071295D01*
X187623935Y-87071295D02*
X187576316Y-87261771D01*
X187576316Y-87261771D02*
X187576316Y-87499866D01*
X187576316Y-87499866D02*
X187623935Y-87690342D01*
X187623935Y-87690342D02*
X187671554Y-87785580D01*
X187671554Y-87785580D02*
X187719173Y-87833200D01*
X187719173Y-87833200D02*
X187814411Y-87880819D01*
X187814411Y-87880819D02*
X187909649Y-87880819D01*
X187909649Y-87880819D02*
X188004887Y-87833200D01*
X188004887Y-87833200D02*
X188052506Y-87785580D01*
X188052506Y-87785580D02*
X188100125Y-87690342D01*
X188100125Y-87690342D02*
X188147744Y-87499866D01*
X188147744Y-87499866D02*
X188147744Y-87261771D01*
X188147744Y-87261771D02*
X188100125Y-87071295D01*
X188100125Y-87071295D02*
X188052506Y-86976057D01*
X188052506Y-86976057D02*
X188004887Y-86928438D01*
X188004887Y-86928438D02*
X187909649Y-86880819D01*
%LPC*%
D11*
X136255000Y-84900000D03*
D12*
X137525000Y-84900000D03*
X138795000Y-84900000D03*
X140065000Y-84900000D03*
X141335000Y-84900000D03*
X142605000Y-84900000D03*
X143875000Y-84900000D03*
X145145000Y-84900000D03*
X146415000Y-84900000D03*
X147685000Y-84900000D03*
X148955000Y-84900000D03*
X150225000Y-84900000D03*
X151495000Y-84900000D03*
X152765000Y-84900000D03*
X154035000Y-84900000D03*
X155305000Y-84900000D03*
X156575000Y-84900000D03*
X157845000Y-84900000D03*
X159115000Y-84900000D03*
X160385000Y-84900000D03*
X161655000Y-84900000D03*
X162925000Y-84900000D03*
X164195000Y-84900000D03*
X165465000Y-84900000D03*
D13*
X215800000Y-82400000D03*
X211800000Y-82400000D03*
X207800000Y-82400000D03*
X203800000Y-82400000D03*
X199800000Y-82400000D03*
X195800000Y-82400000D03*
X215800000Y-87415572D03*
X211800000Y-87400000D03*
X207800000Y-87400000D03*
X203800000Y-87400000D03*
X199800000Y-87400000D03*
D14*
X195800000Y-87400000D03*
D11*
X196469000Y-84900000D03*
D12*
X197739000Y-84900000D03*
X199009000Y-84900000D03*
X200279000Y-84900000D03*
X201549000Y-84900000D03*
X202819000Y-84900000D03*
X204089000Y-84900000D03*
X205359000Y-84900000D03*
X206629000Y-84900000D03*
X207899000Y-84900000D03*
X209169000Y-84900000D03*
X210439000Y-84900000D03*
D13*
X168600000Y-82400000D03*
X164600000Y-82400000D03*
X160600000Y-82400000D03*
X156600000Y-82400000D03*
X152600000Y-82400000D03*
X148600000Y-82400000D03*
X144600000Y-82400000D03*
X140600000Y-82400000D03*
X136600000Y-82400000D03*
X132600000Y-82400000D03*
X128600000Y-82400000D03*
X124600000Y-82400000D03*
X168600000Y-87427382D03*
X164600000Y-87427382D03*
X160600000Y-87427382D03*
X156600000Y-87427382D03*
X152600000Y-87427382D03*
X148600000Y-87427382D03*
X144600000Y-87427382D03*
X140600000Y-87427382D03*
X136600000Y-87400000D03*
X132600000Y-87400000D03*
X128600000Y-87400000D03*
D14*
X124600000Y-87400000D03*
%LPD*%
M02*
