M48
; DRILL file {KiCad 9.0.5} date 2025-10-13T16:35:59+0200
; FORMAT={-:-/ absolute / metric / decimal}
; #@! TF.CreationDate,2025-10-13T16:35:59+02:00
; #@! TF.GenerationSoftware,Kicad,Pcbnew,9.0.5
; #@! TF.FileFunction,Plated,1,4,PTH
FMAT,2
METRIC
; #@! TA.AperFunction,Plated,PTH,ComponentDrill
T1C0.650
; #@! TA.AperFunction,Plated,PTH,ComponentDrill
T2C1.200
%
G90
G05
T1
X136.255Y-84.9
X137.525Y-84.9
X138.795Y-84.9
X140.065Y-84.9
X141.335Y-84.9
X142.605Y-84.9
X143.875Y-84.9
X145.145Y-84.9
X146.415Y-84.9
X147.685Y-84.9
X148.955Y-84.9
X150.225Y-84.9
X151.495Y-84.9
X152.765Y-84.9
X154.035Y-84.9
X155.305Y-84.9
X156.575Y-84.9
X157.845Y-84.9
X159.115Y-84.9
X160.385Y-84.9
X161.655Y-84.9
X162.925Y-84.9
X164.195Y-84.9
X165.465Y-84.9
X196.469Y-84.9
X197.739Y-84.9
X199.009Y-84.9
X200.279Y-84.9
X201.549Y-84.9
X202.819Y-84.9
X204.089Y-84.9
X205.359Y-84.9
X206.629Y-84.9
X207.899Y-84.9
X209.169Y-84.9
X210.439Y-84.9
T2
X124.6Y-82.4
X124.6Y-87.4
X128.6Y-82.4
X128.6Y-87.4
X132.6Y-82.4
X132.6Y-87.4
X136.6Y-82.4
X136.6Y-87.4
X140.6Y-82.4
X140.6Y-87.427
X144.6Y-82.4
X144.6Y-87.427
X148.6Y-82.4
X148.6Y-87.427
X152.6Y-82.4
X152.6Y-87.427
X156.6Y-82.4
X156.6Y-87.427
X160.6Y-82.4
X160.6Y-87.427
X164.6Y-82.4
X164.6Y-87.427
X168.6Y-82.4
X168.6Y-87.427
X195.8Y-82.4
X195.8Y-87.4
X199.8Y-82.4
X199.8Y-87.4
X203.8Y-82.4
X203.8Y-87.4
X207.8Y-82.4
X207.8Y-87.4
X211.8Y-82.4
X211.8Y-87.4
X215.8Y-82.4
X215.8Y-87.416
M30
