G04 #@! TF.GenerationSoftware,KiCad,Pcbnew,9.0.5*
G04 #@! TF.CreationDate,2025-10-13T16:35:57+02:00*
G04 #@! TF.ProjectId,rec_play_switch_mount,7265635f-706c-4617-995f-737769746368,rev?*
G04 #@! TF.SameCoordinates,Original*
G04 #@! TF.FileFunction,Soldermask,Bot*
G04 #@! TF.FilePolarity,Negative*
%FSLAX46Y46*%
G04 Gerber Fmt 4.6, Leading zero omitted, Abs format (unit mm)*
G04 Created by KiCad (PCBNEW 9.0.5) date 2025-10-13 16:35:57*
%MOMM*%
%LPD*%
G01*
G04 APERTURE LIST*
%ADD10R,1.000000X1.000000*%
%ADD11C,1.000000*%
%ADD12C,1.700000*%
%ADD13R,1.700000X1.700000*%
G04 APERTURE END LIST*
D10*
X136255000Y-84900000D03*
D11*
X137525000Y-84900000D03*
X138795000Y-84900000D03*
X140065000Y-84900000D03*
X141335000Y-84900000D03*
X142605000Y-84900000D03*
X143875000Y-84900000D03*
X145145000Y-84900000D03*
X146415000Y-84900000D03*
X147685000Y-84900000D03*
X148955000Y-84900000D03*
X150225000Y-84900000D03*
X151495000Y-84900000D03*
X152765000Y-84900000D03*
X154035000Y-84900000D03*
X155305000Y-84900000D03*
X156575000Y-84900000D03*
X157845000Y-84900000D03*
X159115000Y-84900000D03*
X160385000Y-84900000D03*
X161655000Y-84900000D03*
X162925000Y-84900000D03*
X164195000Y-84900000D03*
X165465000Y-84900000D03*
D12*
X215800000Y-82400000D03*
X211800000Y-82400000D03*
X207800000Y-82400000D03*
X203800000Y-82400000D03*
X199800000Y-82400000D03*
X195800000Y-82400000D03*
X215800000Y-87415572D03*
X211800000Y-87400000D03*
X207800000Y-87400000D03*
X203800000Y-87400000D03*
X199800000Y-87400000D03*
D13*
X195800000Y-87400000D03*
D10*
X196469000Y-84900000D03*
D11*
X197739000Y-84900000D03*
X199009000Y-84900000D03*
X200279000Y-84900000D03*
X201549000Y-84900000D03*
X202819000Y-84900000D03*
X204089000Y-84900000D03*
X205359000Y-84900000D03*
X206629000Y-84900000D03*
X207899000Y-84900000D03*
X209169000Y-84900000D03*
X210439000Y-84900000D03*
D12*
X168600000Y-82400000D03*
X164600000Y-82400000D03*
X160600000Y-82400000D03*
X156600000Y-82400000D03*
X152600000Y-82400000D03*
X148600000Y-82400000D03*
X144600000Y-82400000D03*
X140600000Y-82400000D03*
X136600000Y-82400000D03*
X132600000Y-82400000D03*
X128600000Y-82400000D03*
X124600000Y-82400000D03*
X168600000Y-87427382D03*
X164600000Y-87427382D03*
X160600000Y-87427382D03*
X156600000Y-87427382D03*
X152600000Y-87427382D03*
X148600000Y-87427382D03*
X144600000Y-87427382D03*
X140600000Y-87427382D03*
X136600000Y-87400000D03*
X132600000Y-87400000D03*
X128600000Y-87400000D03*
D13*
X124600000Y-87400000D03*
M02*
