%TF.GenerationSoftware,KiCad,Pcbnew,9.0.5*%
%TF.CreationDate,2025-10-13T16:35:59+02:00*%
%TF.ProjectId,rec_play_switch_mount,7265635f-706c-4617-995f-737769746368,rev?*%
%TF.SameCoordinates,Original*%
%TF.FileFunction,Drillmap*%
%TF.FilePolarity,Positive*%
%FSLAX45Y45*%
G04 Gerber Fmt 4.5, Leading zero omitted, Abs format (unit mm)*
G04 Created by KiCad (PCBNEW 9.0.5) date 2025-10-13 16:35:59*
%MOMM*%
%LPD*%
G01*
G04 APERTURE LIST*
%ADD10C,0.100000*%
%ADD11C,0.200000*%
%ADD12C,0.120000*%
G04 APERTURE END LIST*
D10*
X12300000Y-8100000D02*
X21700000Y-8100000D01*
X21700000Y-8900000D01*
X12300000Y-8900000D01*
X12300000Y-8100000D01*
D11*
D10*
X13593000Y-8457500D02*
X13658000Y-8522500D01*
X13658000Y-8457500D02*
X13593000Y-8522500D01*
X13720000Y-8457500D02*
X13785000Y-8522500D01*
X13785000Y-8457500D02*
X13720000Y-8522500D01*
X13847000Y-8457500D02*
X13912000Y-8522500D01*
X13912000Y-8457500D02*
X13847000Y-8522500D01*
X13974000Y-8457500D02*
X14039000Y-8522500D01*
X14039000Y-8457500D02*
X13974000Y-8522500D01*
X14101000Y-8457500D02*
X14166000Y-8522500D01*
X14166000Y-8457500D02*
X14101000Y-8522500D01*
X14228000Y-8457500D02*
X14293000Y-8522500D01*
X14293000Y-8457500D02*
X14228000Y-8522500D01*
X14355000Y-8457500D02*
X14420000Y-8522500D01*
X14420000Y-8457500D02*
X14355000Y-8522500D01*
X14482000Y-8457500D02*
X14547000Y-8522500D01*
X14547000Y-8457500D02*
X14482000Y-8522500D01*
X14609000Y-8457500D02*
X14674000Y-8522500D01*
X14674000Y-8457500D02*
X14609000Y-8522500D01*
X14736000Y-8457500D02*
X14801000Y-8522500D01*
X14801000Y-8457500D02*
X14736000Y-8522500D01*
X14863000Y-8457500D02*
X14928000Y-8522500D01*
X14928000Y-8457500D02*
X14863000Y-8522500D01*
X14990000Y-8457500D02*
X15055000Y-8522500D01*
X15055000Y-8457500D02*
X14990000Y-8522500D01*
X15117000Y-8457500D02*
X15182000Y-8522500D01*
X15182000Y-8457500D02*
X15117000Y-8522500D01*
X15244000Y-8457500D02*
X15309000Y-8522500D01*
X15309000Y-8457500D02*
X15244000Y-8522500D01*
X15371000Y-8457500D02*
X15436000Y-8522500D01*
X15436000Y-8457500D02*
X15371000Y-8522500D01*
X15498000Y-8457500D02*
X15563000Y-8522500D01*
X15563000Y-8457500D02*
X15498000Y-8522500D01*
X15625000Y-8457500D02*
X15690000Y-8522500D01*
X15690000Y-8457500D02*
X15625000Y-8522500D01*
X15752000Y-8457500D02*
X15817000Y-8522500D01*
X15817000Y-8457500D02*
X15752000Y-8522500D01*
X15879000Y-8457500D02*
X15944000Y-8522500D01*
X15944000Y-8457500D02*
X15879000Y-8522500D01*
X16006000Y-8457500D02*
X16071000Y-8522500D01*
X16071000Y-8457500D02*
X16006000Y-8522500D01*
X16133000Y-8457500D02*
X16198000Y-8522500D01*
X16198000Y-8457500D02*
X16133000Y-8522500D01*
X16260000Y-8457500D02*
X16325000Y-8522500D01*
X16325000Y-8457500D02*
X16260000Y-8522500D01*
X16387000Y-8457500D02*
X16452000Y-8522500D01*
X16452000Y-8457500D02*
X16387000Y-8522500D01*
X16514000Y-8457500D02*
X16579000Y-8522500D01*
X16579000Y-8457500D02*
X16514000Y-8522500D01*
X19614400Y-8457500D02*
X19679400Y-8522500D01*
X19679400Y-8457500D02*
X19614400Y-8522500D01*
X19741400Y-8457500D02*
X19806400Y-8522500D01*
X19806400Y-8457500D02*
X19741400Y-8522500D01*
X19868400Y-8457500D02*
X19933400Y-8522500D01*
X19933400Y-8457500D02*
X19868400Y-8522500D01*
X19995400Y-8457500D02*
X20060400Y-8522500D01*
X20060400Y-8457500D02*
X19995400Y-8522500D01*
X20122400Y-8457500D02*
X20187400Y-8522500D01*
X20187400Y-8457500D02*
X20122400Y-8522500D01*
X20249400Y-8457500D02*
X20314400Y-8522500D01*
X20314400Y-8457500D02*
X20249400Y-8522500D01*
X20376400Y-8457500D02*
X20441400Y-8522500D01*
X20441400Y-8457500D02*
X20376400Y-8522500D01*
X20503400Y-8457500D02*
X20568400Y-8522500D01*
X20568400Y-8457500D02*
X20503400Y-8522500D01*
X20630400Y-8457500D02*
X20695400Y-8522500D01*
X20695400Y-8457500D02*
X20630400Y-8522500D01*
X20757400Y-8457500D02*
X20822400Y-8522500D01*
X20822400Y-8457500D02*
X20757400Y-8522500D01*
X20884400Y-8457500D02*
X20949400Y-8522500D01*
X20949400Y-8457500D02*
X20884400Y-8522500D01*
X21011400Y-8457500D02*
X21076400Y-8522500D01*
X21076400Y-8457500D02*
X21011400Y-8522500D01*
D12*
X12520000Y-8240000D02*
G75*
G02*
X12400000Y-8240000I-60000J0D01*
G01*
X12400000Y-8240000D02*
G75*
G02*
X12520000Y-8240000I60000J0D01*
G01*
X12520000Y-8740000D02*
G75*
G02*
X12400000Y-8740000I-60000J0D01*
G01*
X12400000Y-8740000D02*
G75*
G02*
X12520000Y-8740000I60000J0D01*
G01*
X12920000Y-8240000D02*
G75*
G02*
X12800000Y-8240000I-60000J0D01*
G01*
X12800000Y-8240000D02*
G75*
G02*
X12920000Y-8240000I60000J0D01*
G01*
X12920000Y-8740000D02*
G75*
G02*
X12800000Y-8740000I-60000J0D01*
G01*
X12800000Y-8740000D02*
G75*
G02*
X12920000Y-8740000I60000J0D01*
G01*
X13320000Y-8240000D02*
G75*
G02*
X13200000Y-8240000I-60000J0D01*
G01*
X13200000Y-8240000D02*
G75*
G02*
X13320000Y-8240000I60000J0D01*
G01*
X13320000Y-8740000D02*
G75*
G02*
X13200000Y-8740000I-60000J0D01*
G01*
X13200000Y-8740000D02*
G75*
G02*
X13320000Y-8740000I60000J0D01*
G01*
X13720000Y-8240000D02*
G75*
G02*
X13600000Y-8240000I-60000J0D01*
G01*
X13600000Y-8240000D02*
G75*
G02*
X13720000Y-8240000I60000J0D01*
G01*
X13720000Y-8740000D02*
G75*
G02*
X13600000Y-8740000I-60000J0D01*
G01*
X13600000Y-8740000D02*
G75*
G02*
X13720000Y-8740000I60000J0D01*
G01*
X14120000Y-8240000D02*
G75*
G02*
X14000000Y-8240000I-60000J0D01*
G01*
X14000000Y-8240000D02*
G75*
G02*
X14120000Y-8240000I60000J0D01*
G01*
X14120000Y-8742738D02*
G75*
G02*
X14000000Y-8742738I-60000J0D01*
G01*
X14000000Y-8742738D02*
G75*
G02*
X14120000Y-8742738I60000J0D01*
G01*
X14520000Y-8240000D02*
G75*
G02*
X14400000Y-8240000I-60000J0D01*
G01*
X14400000Y-8240000D02*
G75*
G02*
X14520000Y-8240000I60000J0D01*
G01*
X14520000Y-8742738D02*
G75*
G02*
X14400000Y-8742738I-60000J0D01*
G01*
X14400000Y-8742738D02*
G75*
G02*
X14520000Y-8742738I60000J0D01*
G01*
X14920000Y-8240000D02*
G75*
G02*
X14800000Y-8240000I-60000J0D01*
G01*
X14800000Y-8240000D02*
G75*
G02*
X14920000Y-8240000I60000J0D01*
G01*
X14920000Y-8742738D02*
G75*
G02*
X14800000Y-8742738I-60000J0D01*
G01*
X14800000Y-8742738D02*
G75*
G02*
X14920000Y-8742738I60000J0D01*
G01*
X15320000Y-8240000D02*
G75*
G02*
X15200000Y-8240000I-60000J0D01*
G01*
X15200000Y-8240000D02*
G75*
G02*
X15320000Y-8240000I60000J0D01*
G01*
X15320000Y-8742738D02*
G75*
G02*
X15200000Y-8742738I-60000J0D01*
G01*
X15200000Y-8742738D02*
G75*
G02*
X15320000Y-8742738I60000J0D01*
G01*
X15720000Y-8240000D02*
G75*
G02*
X15600000Y-8240000I-60000J0D01*
G01*
X15600000Y-8240000D02*
G75*
G02*
X15720000Y-8240000I60000J0D01*
G01*
X15720000Y-8742738D02*
G75*
G02*
X15600000Y-8742738I-60000J0D01*
G01*
X15600000Y-8742738D02*
G75*
G02*
X15720000Y-8742738I60000J0D01*
G01*
X16120000Y-8240000D02*
G75*
G02*
X16000000Y-8240000I-60000J0D01*
G01*
X16000000Y-8240000D02*
G75*
G02*
X16120000Y-8240000I60000J0D01*
G01*
X16120000Y-8742738D02*
G75*
G02*
X16000000Y-8742738I-60000J0D01*
G01*
X16000000Y-8742738D02*
G75*
G02*
X16120000Y-8742738I60000J0D01*
G01*
X16520000Y-8240000D02*
G75*
G02*
X16400000Y-8240000I-60000J0D01*
G01*
X16400000Y-8240000D02*
G75*
G02*
X16520000Y-8240000I60000J0D01*
G01*
X16520000Y-8742738D02*
G75*
G02*
X16400000Y-8742738I-60000J0D01*
G01*
X16400000Y-8742738D02*
G75*
G02*
X16520000Y-8742738I60000J0D01*
G01*
X16920000Y-8240000D02*
G75*
G02*
X16800000Y-8240000I-60000J0D01*
G01*
X16800000Y-8240000D02*
G75*
G02*
X16920000Y-8240000I60000J0D01*
G01*
X16920000Y-8742738D02*
G75*
G02*
X16800000Y-8742738I-60000J0D01*
G01*
X16800000Y-8742738D02*
G75*
G02*
X16920000Y-8742738I60000J0D01*
G01*
X19640000Y-8240000D02*
G75*
G02*
X19520000Y-8240000I-60000J0D01*
G01*
X19520000Y-8240000D02*
G75*
G02*
X19640000Y-8240000I60000J0D01*
G01*
X19640000Y-8740000D02*
G75*
G02*
X19520000Y-8740000I-60000J0D01*
G01*
X19520000Y-8740000D02*
G75*
G02*
X19640000Y-8740000I60000J0D01*
G01*
X20040000Y-8240000D02*
G75*
G02*
X19920000Y-8240000I-60000J0D01*
G01*
X19920000Y-8240000D02*
G75*
G02*
X20040000Y-8240000I60000J0D01*
G01*
X20040000Y-8740000D02*
G75*
G02*
X19920000Y-8740000I-60000J0D01*
G01*
X19920000Y-8740000D02*
G75*
G02*
X20040000Y-8740000I60000J0D01*
G01*
X20440000Y-8240000D02*
G75*
G02*
X20320000Y-8240000I-60000J0D01*
G01*
X20320000Y-8240000D02*
G75*
G02*
X20440000Y-8240000I60000J0D01*
G01*
X20440000Y-8740000D02*
G75*
G02*
X20320000Y-8740000I-60000J0D01*
G01*
X20320000Y-8740000D02*
G75*
G02*
X20440000Y-8740000I60000J0D01*
G01*
X20840000Y-8240000D02*
G75*
G02*
X20720000Y-8240000I-60000J0D01*
G01*
X20720000Y-8240000D02*
G75*
G02*
X20840000Y-8240000I60000J0D01*
G01*
X20840000Y-8740000D02*
G75*
G02*
X20720000Y-8740000I-60000J0D01*
G01*
X20720000Y-8740000D02*
G75*
G02*
X20840000Y-8740000I60000J0D01*
G01*
X21240000Y-8240000D02*
G75*
G02*
X21120000Y-8240000I-60000J0D01*
G01*
X21120000Y-8240000D02*
G75*
G02*
X21240000Y-8240000I60000J0D01*
G01*
X21240000Y-8740000D02*
G75*
G02*
X21120000Y-8740000I-60000J0D01*
G01*
X21120000Y-8740000D02*
G75*
G02*
X21240000Y-8740000I60000J0D01*
G01*
X21640000Y-8240000D02*
G75*
G02*
X21520000Y-8240000I-60000J0D01*
G01*
X21520000Y-8240000D02*
G75*
G02*
X21640000Y-8240000I60000J0D01*
G01*
X21640000Y-8741557D02*
G75*
G02*
X21520000Y-8741557I-60000J0D01*
G01*
X21520000Y-8741557D02*
G75*
G02*
X21640000Y-8741557I60000J0D01*
G01*
D11*
X12555777Y-9216484D02*
X12555777Y-9016484D01*
X12555777Y-9016484D02*
X12603396Y-9016484D01*
X12603396Y-9016484D02*
X12631967Y-9026008D01*
X12631967Y-9026008D02*
X12651015Y-9045055D01*
X12651015Y-9045055D02*
X12660539Y-9064103D01*
X12660539Y-9064103D02*
X12670062Y-9102198D01*
X12670062Y-9102198D02*
X12670062Y-9130770D01*
X12670062Y-9130770D02*
X12660539Y-9168865D01*
X12660539Y-9168865D02*
X12651015Y-9187912D01*
X12651015Y-9187912D02*
X12631967Y-9206960D01*
X12631967Y-9206960D02*
X12603396Y-9216484D01*
X12603396Y-9216484D02*
X12555777Y-9216484D01*
X12755777Y-9216484D02*
X12755777Y-9083150D01*
X12755777Y-9121246D02*
X12765301Y-9102198D01*
X12765301Y-9102198D02*
X12774824Y-9092674D01*
X12774824Y-9092674D02*
X12793872Y-9083150D01*
X12793872Y-9083150D02*
X12812920Y-9083150D01*
X12879586Y-9216484D02*
X12879586Y-9083150D01*
X12879586Y-9016484D02*
X12870062Y-9026008D01*
X12870062Y-9026008D02*
X12879586Y-9035531D01*
X12879586Y-9035531D02*
X12889110Y-9026008D01*
X12889110Y-9026008D02*
X12879586Y-9016484D01*
X12879586Y-9016484D02*
X12879586Y-9035531D01*
X13003396Y-9216484D02*
X12984348Y-9206960D01*
X12984348Y-9206960D02*
X12974824Y-9187912D01*
X12974824Y-9187912D02*
X12974824Y-9016484D01*
X13108158Y-9216484D02*
X13089110Y-9206960D01*
X13089110Y-9206960D02*
X13079586Y-9187912D01*
X13079586Y-9187912D02*
X13079586Y-9016484D01*
X13336729Y-9216484D02*
X13336729Y-9016484D01*
X13336729Y-9016484D02*
X13403396Y-9159341D01*
X13403396Y-9159341D02*
X13470062Y-9016484D01*
X13470062Y-9016484D02*
X13470062Y-9216484D01*
X13651015Y-9216484D02*
X13651015Y-9111722D01*
X13651015Y-9111722D02*
X13641491Y-9092674D01*
X13641491Y-9092674D02*
X13622443Y-9083150D01*
X13622443Y-9083150D02*
X13584348Y-9083150D01*
X13584348Y-9083150D02*
X13565301Y-9092674D01*
X13651015Y-9206960D02*
X13631967Y-9216484D01*
X13631967Y-9216484D02*
X13584348Y-9216484D01*
X13584348Y-9216484D02*
X13565301Y-9206960D01*
X13565301Y-9206960D02*
X13555777Y-9187912D01*
X13555777Y-9187912D02*
X13555777Y-9168865D01*
X13555777Y-9168865D02*
X13565301Y-9149817D01*
X13565301Y-9149817D02*
X13584348Y-9140293D01*
X13584348Y-9140293D02*
X13631967Y-9140293D01*
X13631967Y-9140293D02*
X13651015Y-9130770D01*
X13746253Y-9083150D02*
X13746253Y-9283150D01*
X13746253Y-9092674D02*
X13765301Y-9083150D01*
X13765301Y-9083150D02*
X13803396Y-9083150D01*
X13803396Y-9083150D02*
X13822443Y-9092674D01*
X13822443Y-9092674D02*
X13831967Y-9102198D01*
X13831967Y-9102198D02*
X13841491Y-9121246D01*
X13841491Y-9121246D02*
X13841491Y-9178389D01*
X13841491Y-9178389D02*
X13831967Y-9197436D01*
X13831967Y-9197436D02*
X13822443Y-9206960D01*
X13822443Y-9206960D02*
X13803396Y-9216484D01*
X13803396Y-9216484D02*
X13765301Y-9216484D01*
X13765301Y-9216484D02*
X13746253Y-9206960D01*
X13927205Y-9197436D02*
X13936729Y-9206960D01*
X13936729Y-9206960D02*
X13927205Y-9216484D01*
X13927205Y-9216484D02*
X13917682Y-9206960D01*
X13917682Y-9206960D02*
X13927205Y-9197436D01*
X13927205Y-9197436D02*
X13927205Y-9216484D01*
X13927205Y-9092674D02*
X13936729Y-9102198D01*
X13936729Y-9102198D02*
X13927205Y-9111722D01*
X13927205Y-9111722D02*
X13917682Y-9102198D01*
X13917682Y-9102198D02*
X13927205Y-9092674D01*
X13927205Y-9092674D02*
X13927205Y-9111722D01*
D10*
X12230000Y-9512500D02*
X12295000Y-9577500D01*
X12295000Y-9512500D02*
X12230000Y-9577500D01*
D11*
X12593872Y-9436484D02*
X12612920Y-9436484D01*
X12612920Y-9436484D02*
X12631967Y-9446008D01*
X12631967Y-9446008D02*
X12641491Y-9455531D01*
X12641491Y-9455531D02*
X12651015Y-9474579D01*
X12651015Y-9474579D02*
X12660539Y-9512674D01*
X12660539Y-9512674D02*
X12660539Y-9560293D01*
X12660539Y-9560293D02*
X12651015Y-9598389D01*
X12651015Y-9598389D02*
X12641491Y-9617436D01*
X12641491Y-9617436D02*
X12631967Y-9626960D01*
X12631967Y-9626960D02*
X12612920Y-9636484D01*
X12612920Y-9636484D02*
X12593872Y-9636484D01*
X12593872Y-9636484D02*
X12574824Y-9626960D01*
X12574824Y-9626960D02*
X12565301Y-9617436D01*
X12565301Y-9617436D02*
X12555777Y-9598389D01*
X12555777Y-9598389D02*
X12546253Y-9560293D01*
X12546253Y-9560293D02*
X12546253Y-9512674D01*
X12546253Y-9512674D02*
X12555777Y-9474579D01*
X12555777Y-9474579D02*
X12565301Y-9455531D01*
X12565301Y-9455531D02*
X12574824Y-9446008D01*
X12574824Y-9446008D02*
X12593872Y-9436484D01*
X12746253Y-9617436D02*
X12755777Y-9626960D01*
X12755777Y-9626960D02*
X12746253Y-9636484D01*
X12746253Y-9636484D02*
X12736729Y-9626960D01*
X12736729Y-9626960D02*
X12746253Y-9617436D01*
X12746253Y-9617436D02*
X12746253Y-9636484D01*
X12927205Y-9436484D02*
X12889110Y-9436484D01*
X12889110Y-9436484D02*
X12870062Y-9446008D01*
X12870062Y-9446008D02*
X12860539Y-9455531D01*
X12860539Y-9455531D02*
X12841491Y-9484103D01*
X12841491Y-9484103D02*
X12831967Y-9522198D01*
X12831967Y-9522198D02*
X12831967Y-9598389D01*
X12831967Y-9598389D02*
X12841491Y-9617436D01*
X12841491Y-9617436D02*
X12851015Y-9626960D01*
X12851015Y-9626960D02*
X12870062Y-9636484D01*
X12870062Y-9636484D02*
X12908158Y-9636484D01*
X12908158Y-9636484D02*
X12927205Y-9626960D01*
X12927205Y-9626960D02*
X12936729Y-9617436D01*
X12936729Y-9617436D02*
X12946253Y-9598389D01*
X12946253Y-9598389D02*
X12946253Y-9550770D01*
X12946253Y-9550770D02*
X12936729Y-9531722D01*
X12936729Y-9531722D02*
X12927205Y-9522198D01*
X12927205Y-9522198D02*
X12908158Y-9512674D01*
X12908158Y-9512674D02*
X12870062Y-9512674D01*
X12870062Y-9512674D02*
X12851015Y-9522198D01*
X12851015Y-9522198D02*
X12841491Y-9531722D01*
X12841491Y-9531722D02*
X12831967Y-9550770D01*
X13127205Y-9436484D02*
X13031967Y-9436484D01*
X13031967Y-9436484D02*
X13022443Y-9531722D01*
X13022443Y-9531722D02*
X13031967Y-9522198D01*
X13031967Y-9522198D02*
X13051015Y-9512674D01*
X13051015Y-9512674D02*
X13098634Y-9512674D01*
X13098634Y-9512674D02*
X13117682Y-9522198D01*
X13117682Y-9522198D02*
X13127205Y-9531722D01*
X13127205Y-9531722D02*
X13136729Y-9550770D01*
X13136729Y-9550770D02*
X13136729Y-9598389D01*
X13136729Y-9598389D02*
X13127205Y-9617436D01*
X13127205Y-9617436D02*
X13117682Y-9626960D01*
X13117682Y-9626960D02*
X13098634Y-9636484D01*
X13098634Y-9636484D02*
X13051015Y-9636484D01*
X13051015Y-9636484D02*
X13031967Y-9626960D01*
X13031967Y-9626960D02*
X13022443Y-9617436D01*
X13260539Y-9436484D02*
X13279586Y-9436484D01*
X13279586Y-9436484D02*
X13298634Y-9446008D01*
X13298634Y-9446008D02*
X13308158Y-9455531D01*
X13308158Y-9455531D02*
X13317682Y-9474579D01*
X13317682Y-9474579D02*
X13327205Y-9512674D01*
X13327205Y-9512674D02*
X13327205Y-9560293D01*
X13327205Y-9560293D02*
X13317682Y-9598389D01*
X13317682Y-9598389D02*
X13308158Y-9617436D01*
X13308158Y-9617436D02*
X13298634Y-9626960D01*
X13298634Y-9626960D02*
X13279586Y-9636484D01*
X13279586Y-9636484D02*
X13260539Y-9636484D01*
X13260539Y-9636484D02*
X13241491Y-9626960D01*
X13241491Y-9626960D02*
X13231967Y-9617436D01*
X13231967Y-9617436D02*
X13222443Y-9598389D01*
X13222443Y-9598389D02*
X13212920Y-9560293D01*
X13212920Y-9560293D02*
X13212920Y-9512674D01*
X13212920Y-9512674D02*
X13222443Y-9474579D01*
X13222443Y-9474579D02*
X13231967Y-9455531D01*
X13231967Y-9455531D02*
X13241491Y-9446008D01*
X13241491Y-9446008D02*
X13260539Y-9436484D01*
X13412920Y-9636484D02*
X13412920Y-9503150D01*
X13412920Y-9522198D02*
X13422443Y-9512674D01*
X13422443Y-9512674D02*
X13441491Y-9503150D01*
X13441491Y-9503150D02*
X13470063Y-9503150D01*
X13470063Y-9503150D02*
X13489110Y-9512674D01*
X13489110Y-9512674D02*
X13498634Y-9531722D01*
X13498634Y-9531722D02*
X13498634Y-9636484D01*
X13498634Y-9531722D02*
X13508158Y-9512674D01*
X13508158Y-9512674D02*
X13527205Y-9503150D01*
X13527205Y-9503150D02*
X13555777Y-9503150D01*
X13555777Y-9503150D02*
X13574824Y-9512674D01*
X13574824Y-9512674D02*
X13584348Y-9531722D01*
X13584348Y-9531722D02*
X13584348Y-9636484D01*
X13679586Y-9636484D02*
X13679586Y-9503150D01*
X13679586Y-9522198D02*
X13689110Y-9512674D01*
X13689110Y-9512674D02*
X13708158Y-9503150D01*
X13708158Y-9503150D02*
X13736729Y-9503150D01*
X13736729Y-9503150D02*
X13755777Y-9512674D01*
X13755777Y-9512674D02*
X13765301Y-9531722D01*
X13765301Y-9531722D02*
X13765301Y-9636484D01*
X13765301Y-9531722D02*
X13774824Y-9512674D01*
X13774824Y-9512674D02*
X13793872Y-9503150D01*
X13793872Y-9503150D02*
X13822443Y-9503150D01*
X13822443Y-9503150D02*
X13841491Y-9512674D01*
X13841491Y-9512674D02*
X13851015Y-9531722D01*
X13851015Y-9531722D02*
X13851015Y-9636484D01*
X14241491Y-9426960D02*
X14070063Y-9684103D01*
X14498634Y-9436484D02*
X14517682Y-9436484D01*
X14517682Y-9436484D02*
X14536729Y-9446008D01*
X14536729Y-9446008D02*
X14546253Y-9455531D01*
X14546253Y-9455531D02*
X14555777Y-9474579D01*
X14555777Y-9474579D02*
X14565301Y-9512674D01*
X14565301Y-9512674D02*
X14565301Y-9560293D01*
X14565301Y-9560293D02*
X14555777Y-9598389D01*
X14555777Y-9598389D02*
X14546253Y-9617436D01*
X14546253Y-9617436D02*
X14536729Y-9626960D01*
X14536729Y-9626960D02*
X14517682Y-9636484D01*
X14517682Y-9636484D02*
X14498634Y-9636484D01*
X14498634Y-9636484D02*
X14479586Y-9626960D01*
X14479586Y-9626960D02*
X14470063Y-9617436D01*
X14470063Y-9617436D02*
X14460539Y-9598389D01*
X14460539Y-9598389D02*
X14451015Y-9560293D01*
X14451015Y-9560293D02*
X14451015Y-9512674D01*
X14451015Y-9512674D02*
X14460539Y-9474579D01*
X14460539Y-9474579D02*
X14470063Y-9455531D01*
X14470063Y-9455531D02*
X14479586Y-9446008D01*
X14479586Y-9446008D02*
X14498634Y-9436484D01*
X14651015Y-9617436D02*
X14660539Y-9626960D01*
X14660539Y-9626960D02*
X14651015Y-9636484D01*
X14651015Y-9636484D02*
X14641491Y-9626960D01*
X14641491Y-9626960D02*
X14651015Y-9617436D01*
X14651015Y-9617436D02*
X14651015Y-9636484D01*
X14784348Y-9436484D02*
X14803396Y-9436484D01*
X14803396Y-9436484D02*
X14822444Y-9446008D01*
X14822444Y-9446008D02*
X14831967Y-9455531D01*
X14831967Y-9455531D02*
X14841491Y-9474579D01*
X14841491Y-9474579D02*
X14851015Y-9512674D01*
X14851015Y-9512674D02*
X14851015Y-9560293D01*
X14851015Y-9560293D02*
X14841491Y-9598389D01*
X14841491Y-9598389D02*
X14831967Y-9617436D01*
X14831967Y-9617436D02*
X14822444Y-9626960D01*
X14822444Y-9626960D02*
X14803396Y-9636484D01*
X14803396Y-9636484D02*
X14784348Y-9636484D01*
X14784348Y-9636484D02*
X14765301Y-9626960D01*
X14765301Y-9626960D02*
X14755777Y-9617436D01*
X14755777Y-9617436D02*
X14746253Y-9598389D01*
X14746253Y-9598389D02*
X14736729Y-9560293D01*
X14736729Y-9560293D02*
X14736729Y-9512674D01*
X14736729Y-9512674D02*
X14746253Y-9474579D01*
X14746253Y-9474579D02*
X14755777Y-9455531D01*
X14755777Y-9455531D02*
X14765301Y-9446008D01*
X14765301Y-9446008D02*
X14784348Y-9436484D01*
X14927206Y-9455531D02*
X14936729Y-9446008D01*
X14936729Y-9446008D02*
X14955777Y-9436484D01*
X14955777Y-9436484D02*
X15003396Y-9436484D01*
X15003396Y-9436484D02*
X15022444Y-9446008D01*
X15022444Y-9446008D02*
X15031967Y-9455531D01*
X15031967Y-9455531D02*
X15041491Y-9474579D01*
X15041491Y-9474579D02*
X15041491Y-9493627D01*
X15041491Y-9493627D02*
X15031967Y-9522198D01*
X15031967Y-9522198D02*
X14917682Y-9636484D01*
X14917682Y-9636484D02*
X15041491Y-9636484D01*
X15222444Y-9436484D02*
X15127206Y-9436484D01*
X15127206Y-9436484D02*
X15117682Y-9531722D01*
X15117682Y-9531722D02*
X15127206Y-9522198D01*
X15127206Y-9522198D02*
X15146253Y-9512674D01*
X15146253Y-9512674D02*
X15193872Y-9512674D01*
X15193872Y-9512674D02*
X15212920Y-9522198D01*
X15212920Y-9522198D02*
X15222444Y-9531722D01*
X15222444Y-9531722D02*
X15231967Y-9550770D01*
X15231967Y-9550770D02*
X15231967Y-9598389D01*
X15231967Y-9598389D02*
X15222444Y-9617436D01*
X15222444Y-9617436D02*
X15212920Y-9626960D01*
X15212920Y-9626960D02*
X15193872Y-9636484D01*
X15193872Y-9636484D02*
X15146253Y-9636484D01*
X15146253Y-9636484D02*
X15127206Y-9626960D01*
X15127206Y-9626960D02*
X15117682Y-9617436D01*
X15403396Y-9436484D02*
X15365301Y-9436484D01*
X15365301Y-9436484D02*
X15346253Y-9446008D01*
X15346253Y-9446008D02*
X15336729Y-9455531D01*
X15336729Y-9455531D02*
X15317682Y-9484103D01*
X15317682Y-9484103D02*
X15308158Y-9522198D01*
X15308158Y-9522198D02*
X15308158Y-9598389D01*
X15308158Y-9598389D02*
X15317682Y-9617436D01*
X15317682Y-9617436D02*
X15327206Y-9626960D01*
X15327206Y-9626960D02*
X15346253Y-9636484D01*
X15346253Y-9636484D02*
X15384348Y-9636484D01*
X15384348Y-9636484D02*
X15403396Y-9626960D01*
X15403396Y-9626960D02*
X15412920Y-9617436D01*
X15412920Y-9617436D02*
X15422444Y-9598389D01*
X15422444Y-9598389D02*
X15422444Y-9550770D01*
X15422444Y-9550770D02*
X15412920Y-9531722D01*
X15412920Y-9531722D02*
X15403396Y-9522198D01*
X15403396Y-9522198D02*
X15384348Y-9512674D01*
X15384348Y-9512674D02*
X15346253Y-9512674D01*
X15346253Y-9512674D02*
X15327206Y-9522198D01*
X15327206Y-9522198D02*
X15317682Y-9531722D01*
X15317682Y-9531722D02*
X15308158Y-9550770D01*
X15498634Y-9436484D02*
X15498634Y-9474579D01*
X15574825Y-9436484D02*
X15574825Y-9474579D01*
X15870063Y-9712674D02*
X15860539Y-9703150D01*
X15860539Y-9703150D02*
X15841491Y-9674579D01*
X15841491Y-9674579D02*
X15831968Y-9655531D01*
X15831968Y-9655531D02*
X15822444Y-9626960D01*
X15822444Y-9626960D02*
X15812920Y-9579341D01*
X15812920Y-9579341D02*
X15812920Y-9541246D01*
X15812920Y-9541246D02*
X15822444Y-9493627D01*
X15822444Y-9493627D02*
X15831968Y-9465055D01*
X15831968Y-9465055D02*
X15841491Y-9446008D01*
X15841491Y-9446008D02*
X15860539Y-9417436D01*
X15860539Y-9417436D02*
X15870063Y-9407912D01*
X15927206Y-9436484D02*
X16051015Y-9436484D01*
X16051015Y-9436484D02*
X15984348Y-9512674D01*
X15984348Y-9512674D02*
X16012920Y-9512674D01*
X16012920Y-9512674D02*
X16031968Y-9522198D01*
X16031968Y-9522198D02*
X16041491Y-9531722D01*
X16041491Y-9531722D02*
X16051015Y-9550770D01*
X16051015Y-9550770D02*
X16051015Y-9598389D01*
X16051015Y-9598389D02*
X16041491Y-9617436D01*
X16041491Y-9617436D02*
X16031968Y-9626960D01*
X16031968Y-9626960D02*
X16012920Y-9636484D01*
X16012920Y-9636484D02*
X15955777Y-9636484D01*
X15955777Y-9636484D02*
X15936729Y-9626960D01*
X15936729Y-9626960D02*
X15927206Y-9617436D01*
X16222444Y-9436484D02*
X16184348Y-9436484D01*
X16184348Y-9436484D02*
X16165301Y-9446008D01*
X16165301Y-9446008D02*
X16155777Y-9455531D01*
X16155777Y-9455531D02*
X16136729Y-9484103D01*
X16136729Y-9484103D02*
X16127206Y-9522198D01*
X16127206Y-9522198D02*
X16127206Y-9598389D01*
X16127206Y-9598389D02*
X16136729Y-9617436D01*
X16136729Y-9617436D02*
X16146253Y-9626960D01*
X16146253Y-9626960D02*
X16165301Y-9636484D01*
X16165301Y-9636484D02*
X16203396Y-9636484D01*
X16203396Y-9636484D02*
X16222444Y-9626960D01*
X16222444Y-9626960D02*
X16231968Y-9617436D01*
X16231968Y-9617436D02*
X16241491Y-9598389D01*
X16241491Y-9598389D02*
X16241491Y-9550770D01*
X16241491Y-9550770D02*
X16231968Y-9531722D01*
X16231968Y-9531722D02*
X16222444Y-9522198D01*
X16222444Y-9522198D02*
X16203396Y-9512674D01*
X16203396Y-9512674D02*
X16165301Y-9512674D01*
X16165301Y-9512674D02*
X16146253Y-9522198D01*
X16146253Y-9522198D02*
X16136729Y-9531722D01*
X16136729Y-9531722D02*
X16127206Y-9550770D01*
X16479587Y-9636484D02*
X16479587Y-9436484D01*
X16565301Y-9636484D02*
X16565301Y-9531722D01*
X16565301Y-9531722D02*
X16555777Y-9512674D01*
X16555777Y-9512674D02*
X16536730Y-9503150D01*
X16536730Y-9503150D02*
X16508158Y-9503150D01*
X16508158Y-9503150D02*
X16489110Y-9512674D01*
X16489110Y-9512674D02*
X16479587Y-9522198D01*
X16689110Y-9636484D02*
X16670063Y-9626960D01*
X16670063Y-9626960D02*
X16660539Y-9617436D01*
X16660539Y-9617436D02*
X16651015Y-9598389D01*
X16651015Y-9598389D02*
X16651015Y-9541246D01*
X16651015Y-9541246D02*
X16660539Y-9522198D01*
X16660539Y-9522198D02*
X16670063Y-9512674D01*
X16670063Y-9512674D02*
X16689110Y-9503150D01*
X16689110Y-9503150D02*
X16717682Y-9503150D01*
X16717682Y-9503150D02*
X16736730Y-9512674D01*
X16736730Y-9512674D02*
X16746253Y-9522198D01*
X16746253Y-9522198D02*
X16755777Y-9541246D01*
X16755777Y-9541246D02*
X16755777Y-9598389D01*
X16755777Y-9598389D02*
X16746253Y-9617436D01*
X16746253Y-9617436D02*
X16736730Y-9626960D01*
X16736730Y-9626960D02*
X16717682Y-9636484D01*
X16717682Y-9636484D02*
X16689110Y-9636484D01*
X16870063Y-9636484D02*
X16851015Y-9626960D01*
X16851015Y-9626960D02*
X16841492Y-9607912D01*
X16841492Y-9607912D02*
X16841492Y-9436484D01*
X17022444Y-9626960D02*
X17003396Y-9636484D01*
X17003396Y-9636484D02*
X16965301Y-9636484D01*
X16965301Y-9636484D02*
X16946253Y-9626960D01*
X16946253Y-9626960D02*
X16936730Y-9607912D01*
X16936730Y-9607912D02*
X16936730Y-9531722D01*
X16936730Y-9531722D02*
X16946253Y-9512674D01*
X16946253Y-9512674D02*
X16965301Y-9503150D01*
X16965301Y-9503150D02*
X17003396Y-9503150D01*
X17003396Y-9503150D02*
X17022444Y-9512674D01*
X17022444Y-9512674D02*
X17031968Y-9531722D01*
X17031968Y-9531722D02*
X17031968Y-9550770D01*
X17031968Y-9550770D02*
X16936730Y-9569817D01*
X17108158Y-9626960D02*
X17127206Y-9636484D01*
X17127206Y-9636484D02*
X17165301Y-9636484D01*
X17165301Y-9636484D02*
X17184349Y-9626960D01*
X17184349Y-9626960D02*
X17193873Y-9607912D01*
X17193873Y-9607912D02*
X17193873Y-9598389D01*
X17193873Y-9598389D02*
X17184349Y-9579341D01*
X17184349Y-9579341D02*
X17165301Y-9569817D01*
X17165301Y-9569817D02*
X17136730Y-9569817D01*
X17136730Y-9569817D02*
X17117682Y-9560293D01*
X17117682Y-9560293D02*
X17108158Y-9541246D01*
X17108158Y-9541246D02*
X17108158Y-9531722D01*
X17108158Y-9531722D02*
X17117682Y-9512674D01*
X17117682Y-9512674D02*
X17136730Y-9503150D01*
X17136730Y-9503150D02*
X17165301Y-9503150D01*
X17165301Y-9503150D02*
X17184349Y-9512674D01*
X17260539Y-9712674D02*
X17270063Y-9703150D01*
X17270063Y-9703150D02*
X17289111Y-9674579D01*
X17289111Y-9674579D02*
X17298634Y-9655531D01*
X17298634Y-9655531D02*
X17308158Y-9626960D01*
X17308158Y-9626960D02*
X17317682Y-9579341D01*
X17317682Y-9579341D02*
X17317682Y-9541246D01*
X17317682Y-9541246D02*
X17308158Y-9493627D01*
X17308158Y-9493627D02*
X17298634Y-9465055D01*
X17298634Y-9465055D02*
X17289111Y-9446008D01*
X17289111Y-9446008D02*
X17270063Y-9417436D01*
X17270063Y-9417436D02*
X17260539Y-9407912D01*
D12*
X12295000Y-9809000D02*
G75*
G02*
X12175000Y-9809000I-60000J0D01*
G01*
X12175000Y-9809000D02*
G75*
G02*
X12295000Y-9809000I60000J0D01*
G01*
D11*
X12660539Y-9900484D02*
X12546253Y-9900484D01*
X12603396Y-9900484D02*
X12603396Y-9700484D01*
X12603396Y-9700484D02*
X12584348Y-9729055D01*
X12584348Y-9729055D02*
X12565301Y-9748103D01*
X12565301Y-9748103D02*
X12546253Y-9757627D01*
X12746253Y-9881436D02*
X12755777Y-9890960D01*
X12755777Y-9890960D02*
X12746253Y-9900484D01*
X12746253Y-9900484D02*
X12736729Y-9890960D01*
X12736729Y-9890960D02*
X12746253Y-9881436D01*
X12746253Y-9881436D02*
X12746253Y-9900484D01*
X12831967Y-9719531D02*
X12841491Y-9710008D01*
X12841491Y-9710008D02*
X12860539Y-9700484D01*
X12860539Y-9700484D02*
X12908158Y-9700484D01*
X12908158Y-9700484D02*
X12927205Y-9710008D01*
X12927205Y-9710008D02*
X12936729Y-9719531D01*
X12936729Y-9719531D02*
X12946253Y-9738579D01*
X12946253Y-9738579D02*
X12946253Y-9757627D01*
X12946253Y-9757627D02*
X12936729Y-9786198D01*
X12936729Y-9786198D02*
X12822443Y-9900484D01*
X12822443Y-9900484D02*
X12946253Y-9900484D01*
X13070062Y-9700484D02*
X13089110Y-9700484D01*
X13089110Y-9700484D02*
X13108158Y-9710008D01*
X13108158Y-9710008D02*
X13117682Y-9719531D01*
X13117682Y-9719531D02*
X13127205Y-9738579D01*
X13127205Y-9738579D02*
X13136729Y-9776674D01*
X13136729Y-9776674D02*
X13136729Y-9824293D01*
X13136729Y-9824293D02*
X13127205Y-9862389D01*
X13127205Y-9862389D02*
X13117682Y-9881436D01*
X13117682Y-9881436D02*
X13108158Y-9890960D01*
X13108158Y-9890960D02*
X13089110Y-9900484D01*
X13089110Y-9900484D02*
X13070062Y-9900484D01*
X13070062Y-9900484D02*
X13051015Y-9890960D01*
X13051015Y-9890960D02*
X13041491Y-9881436D01*
X13041491Y-9881436D02*
X13031967Y-9862389D01*
X13031967Y-9862389D02*
X13022443Y-9824293D01*
X13022443Y-9824293D02*
X13022443Y-9776674D01*
X13022443Y-9776674D02*
X13031967Y-9738579D01*
X13031967Y-9738579D02*
X13041491Y-9719531D01*
X13041491Y-9719531D02*
X13051015Y-9710008D01*
X13051015Y-9710008D02*
X13070062Y-9700484D01*
X13260539Y-9700484D02*
X13279586Y-9700484D01*
X13279586Y-9700484D02*
X13298634Y-9710008D01*
X13298634Y-9710008D02*
X13308158Y-9719531D01*
X13308158Y-9719531D02*
X13317682Y-9738579D01*
X13317682Y-9738579D02*
X13327205Y-9776674D01*
X13327205Y-9776674D02*
X13327205Y-9824293D01*
X13327205Y-9824293D02*
X13317682Y-9862389D01*
X13317682Y-9862389D02*
X13308158Y-9881436D01*
X13308158Y-9881436D02*
X13298634Y-9890960D01*
X13298634Y-9890960D02*
X13279586Y-9900484D01*
X13279586Y-9900484D02*
X13260539Y-9900484D01*
X13260539Y-9900484D02*
X13241491Y-9890960D01*
X13241491Y-9890960D02*
X13231967Y-9881436D01*
X13231967Y-9881436D02*
X13222443Y-9862389D01*
X13222443Y-9862389D02*
X13212920Y-9824293D01*
X13212920Y-9824293D02*
X13212920Y-9776674D01*
X13212920Y-9776674D02*
X13222443Y-9738579D01*
X13222443Y-9738579D02*
X13231967Y-9719531D01*
X13231967Y-9719531D02*
X13241491Y-9710008D01*
X13241491Y-9710008D02*
X13260539Y-9700484D01*
X13412920Y-9900484D02*
X13412920Y-9767150D01*
X13412920Y-9786198D02*
X13422443Y-9776674D01*
X13422443Y-9776674D02*
X13441491Y-9767150D01*
X13441491Y-9767150D02*
X13470063Y-9767150D01*
X13470063Y-9767150D02*
X13489110Y-9776674D01*
X13489110Y-9776674D02*
X13498634Y-9795722D01*
X13498634Y-9795722D02*
X13498634Y-9900484D01*
X13498634Y-9795722D02*
X13508158Y-9776674D01*
X13508158Y-9776674D02*
X13527205Y-9767150D01*
X13527205Y-9767150D02*
X13555777Y-9767150D01*
X13555777Y-9767150D02*
X13574824Y-9776674D01*
X13574824Y-9776674D02*
X13584348Y-9795722D01*
X13584348Y-9795722D02*
X13584348Y-9900484D01*
X13679586Y-9900484D02*
X13679586Y-9767150D01*
X13679586Y-9786198D02*
X13689110Y-9776674D01*
X13689110Y-9776674D02*
X13708158Y-9767150D01*
X13708158Y-9767150D02*
X13736729Y-9767150D01*
X13736729Y-9767150D02*
X13755777Y-9776674D01*
X13755777Y-9776674D02*
X13765301Y-9795722D01*
X13765301Y-9795722D02*
X13765301Y-9900484D01*
X13765301Y-9795722D02*
X13774824Y-9776674D01*
X13774824Y-9776674D02*
X13793872Y-9767150D01*
X13793872Y-9767150D02*
X13822443Y-9767150D01*
X13822443Y-9767150D02*
X13841491Y-9776674D01*
X13841491Y-9776674D02*
X13851015Y-9795722D01*
X13851015Y-9795722D02*
X13851015Y-9900484D01*
X14241491Y-9690960D02*
X14070063Y-9948103D01*
X14498634Y-9700484D02*
X14517682Y-9700484D01*
X14517682Y-9700484D02*
X14536729Y-9710008D01*
X14536729Y-9710008D02*
X14546253Y-9719531D01*
X14546253Y-9719531D02*
X14555777Y-9738579D01*
X14555777Y-9738579D02*
X14565301Y-9776674D01*
X14565301Y-9776674D02*
X14565301Y-9824293D01*
X14565301Y-9824293D02*
X14555777Y-9862389D01*
X14555777Y-9862389D02*
X14546253Y-9881436D01*
X14546253Y-9881436D02*
X14536729Y-9890960D01*
X14536729Y-9890960D02*
X14517682Y-9900484D01*
X14517682Y-9900484D02*
X14498634Y-9900484D01*
X14498634Y-9900484D02*
X14479586Y-9890960D01*
X14479586Y-9890960D02*
X14470063Y-9881436D01*
X14470063Y-9881436D02*
X14460539Y-9862389D01*
X14460539Y-9862389D02*
X14451015Y-9824293D01*
X14451015Y-9824293D02*
X14451015Y-9776674D01*
X14451015Y-9776674D02*
X14460539Y-9738579D01*
X14460539Y-9738579D02*
X14470063Y-9719531D01*
X14470063Y-9719531D02*
X14479586Y-9710008D01*
X14479586Y-9710008D02*
X14498634Y-9700484D01*
X14651015Y-9881436D02*
X14660539Y-9890960D01*
X14660539Y-9890960D02*
X14651015Y-9900484D01*
X14651015Y-9900484D02*
X14641491Y-9890960D01*
X14641491Y-9890960D02*
X14651015Y-9881436D01*
X14651015Y-9881436D02*
X14651015Y-9900484D01*
X14784348Y-9700484D02*
X14803396Y-9700484D01*
X14803396Y-9700484D02*
X14822444Y-9710008D01*
X14822444Y-9710008D02*
X14831967Y-9719531D01*
X14831967Y-9719531D02*
X14841491Y-9738579D01*
X14841491Y-9738579D02*
X14851015Y-9776674D01*
X14851015Y-9776674D02*
X14851015Y-9824293D01*
X14851015Y-9824293D02*
X14841491Y-9862389D01*
X14841491Y-9862389D02*
X14831967Y-9881436D01*
X14831967Y-9881436D02*
X14822444Y-9890960D01*
X14822444Y-9890960D02*
X14803396Y-9900484D01*
X14803396Y-9900484D02*
X14784348Y-9900484D01*
X14784348Y-9900484D02*
X14765301Y-9890960D01*
X14765301Y-9890960D02*
X14755777Y-9881436D01*
X14755777Y-9881436D02*
X14746253Y-9862389D01*
X14746253Y-9862389D02*
X14736729Y-9824293D01*
X14736729Y-9824293D02*
X14736729Y-9776674D01*
X14736729Y-9776674D02*
X14746253Y-9738579D01*
X14746253Y-9738579D02*
X14755777Y-9719531D01*
X14755777Y-9719531D02*
X14765301Y-9710008D01*
X14765301Y-9710008D02*
X14784348Y-9700484D01*
X15022444Y-9767150D02*
X15022444Y-9900484D01*
X14974825Y-9690960D02*
X14927206Y-9833817D01*
X14927206Y-9833817D02*
X15051015Y-9833817D01*
X15108158Y-9700484D02*
X15241491Y-9700484D01*
X15241491Y-9700484D02*
X15155777Y-9900484D01*
X15308158Y-9719531D02*
X15317682Y-9710008D01*
X15317682Y-9710008D02*
X15336729Y-9700484D01*
X15336729Y-9700484D02*
X15384348Y-9700484D01*
X15384348Y-9700484D02*
X15403396Y-9710008D01*
X15403396Y-9710008D02*
X15412920Y-9719531D01*
X15412920Y-9719531D02*
X15422444Y-9738579D01*
X15422444Y-9738579D02*
X15422444Y-9757627D01*
X15422444Y-9757627D02*
X15412920Y-9786198D01*
X15412920Y-9786198D02*
X15298634Y-9900484D01*
X15298634Y-9900484D02*
X15422444Y-9900484D01*
X15498634Y-9700484D02*
X15498634Y-9738579D01*
X15574825Y-9700484D02*
X15574825Y-9738579D01*
X15870063Y-9976674D02*
X15860539Y-9967150D01*
X15860539Y-9967150D02*
X15841491Y-9938579D01*
X15841491Y-9938579D02*
X15831968Y-9919531D01*
X15831968Y-9919531D02*
X15822444Y-9890960D01*
X15822444Y-9890960D02*
X15812920Y-9843341D01*
X15812920Y-9843341D02*
X15812920Y-9805246D01*
X15812920Y-9805246D02*
X15822444Y-9757627D01*
X15822444Y-9757627D02*
X15831968Y-9729055D01*
X15831968Y-9729055D02*
X15841491Y-9710008D01*
X15841491Y-9710008D02*
X15860539Y-9681436D01*
X15860539Y-9681436D02*
X15870063Y-9671912D01*
X15927206Y-9700484D02*
X16051015Y-9700484D01*
X16051015Y-9700484D02*
X15984348Y-9776674D01*
X15984348Y-9776674D02*
X16012920Y-9776674D01*
X16012920Y-9776674D02*
X16031968Y-9786198D01*
X16031968Y-9786198D02*
X16041491Y-9795722D01*
X16041491Y-9795722D02*
X16051015Y-9814770D01*
X16051015Y-9814770D02*
X16051015Y-9862389D01*
X16051015Y-9862389D02*
X16041491Y-9881436D01*
X16041491Y-9881436D02*
X16031968Y-9890960D01*
X16031968Y-9890960D02*
X16012920Y-9900484D01*
X16012920Y-9900484D02*
X15955777Y-9900484D01*
X15955777Y-9900484D02*
X15936729Y-9890960D01*
X15936729Y-9890960D02*
X15927206Y-9881436D01*
X16222444Y-9700484D02*
X16184348Y-9700484D01*
X16184348Y-9700484D02*
X16165301Y-9710008D01*
X16165301Y-9710008D02*
X16155777Y-9719531D01*
X16155777Y-9719531D02*
X16136729Y-9748103D01*
X16136729Y-9748103D02*
X16127206Y-9786198D01*
X16127206Y-9786198D02*
X16127206Y-9862389D01*
X16127206Y-9862389D02*
X16136729Y-9881436D01*
X16136729Y-9881436D02*
X16146253Y-9890960D01*
X16146253Y-9890960D02*
X16165301Y-9900484D01*
X16165301Y-9900484D02*
X16203396Y-9900484D01*
X16203396Y-9900484D02*
X16222444Y-9890960D01*
X16222444Y-9890960D02*
X16231968Y-9881436D01*
X16231968Y-9881436D02*
X16241491Y-9862389D01*
X16241491Y-9862389D02*
X16241491Y-9814770D01*
X16241491Y-9814770D02*
X16231968Y-9795722D01*
X16231968Y-9795722D02*
X16222444Y-9786198D01*
X16222444Y-9786198D02*
X16203396Y-9776674D01*
X16203396Y-9776674D02*
X16165301Y-9776674D01*
X16165301Y-9776674D02*
X16146253Y-9786198D01*
X16146253Y-9786198D02*
X16136729Y-9795722D01*
X16136729Y-9795722D02*
X16127206Y-9814770D01*
X16479587Y-9900484D02*
X16479587Y-9700484D01*
X16565301Y-9900484D02*
X16565301Y-9795722D01*
X16565301Y-9795722D02*
X16555777Y-9776674D01*
X16555777Y-9776674D02*
X16536730Y-9767150D01*
X16536730Y-9767150D02*
X16508158Y-9767150D01*
X16508158Y-9767150D02*
X16489110Y-9776674D01*
X16489110Y-9776674D02*
X16479587Y-9786198D01*
X16689110Y-9900484D02*
X16670063Y-9890960D01*
X16670063Y-9890960D02*
X16660539Y-9881436D01*
X16660539Y-9881436D02*
X16651015Y-9862389D01*
X16651015Y-9862389D02*
X16651015Y-9805246D01*
X16651015Y-9805246D02*
X16660539Y-9786198D01*
X16660539Y-9786198D02*
X16670063Y-9776674D01*
X16670063Y-9776674D02*
X16689110Y-9767150D01*
X16689110Y-9767150D02*
X16717682Y-9767150D01*
X16717682Y-9767150D02*
X16736730Y-9776674D01*
X16736730Y-9776674D02*
X16746253Y-9786198D01*
X16746253Y-9786198D02*
X16755777Y-9805246D01*
X16755777Y-9805246D02*
X16755777Y-9862389D01*
X16755777Y-9862389D02*
X16746253Y-9881436D01*
X16746253Y-9881436D02*
X16736730Y-9890960D01*
X16736730Y-9890960D02*
X16717682Y-9900484D01*
X16717682Y-9900484D02*
X16689110Y-9900484D01*
X16870063Y-9900484D02*
X16851015Y-9890960D01*
X16851015Y-9890960D02*
X16841492Y-9871912D01*
X16841492Y-9871912D02*
X16841492Y-9700484D01*
X17022444Y-9890960D02*
X17003396Y-9900484D01*
X17003396Y-9900484D02*
X16965301Y-9900484D01*
X16965301Y-9900484D02*
X16946253Y-9890960D01*
X16946253Y-9890960D02*
X16936730Y-9871912D01*
X16936730Y-9871912D02*
X16936730Y-9795722D01*
X16936730Y-9795722D02*
X16946253Y-9776674D01*
X16946253Y-9776674D02*
X16965301Y-9767150D01*
X16965301Y-9767150D02*
X17003396Y-9767150D01*
X17003396Y-9767150D02*
X17022444Y-9776674D01*
X17022444Y-9776674D02*
X17031968Y-9795722D01*
X17031968Y-9795722D02*
X17031968Y-9814770D01*
X17031968Y-9814770D02*
X16936730Y-9833817D01*
X17108158Y-9890960D02*
X17127206Y-9900484D01*
X17127206Y-9900484D02*
X17165301Y-9900484D01*
X17165301Y-9900484D02*
X17184349Y-9890960D01*
X17184349Y-9890960D02*
X17193873Y-9871912D01*
X17193873Y-9871912D02*
X17193873Y-9862389D01*
X17193873Y-9862389D02*
X17184349Y-9843341D01*
X17184349Y-9843341D02*
X17165301Y-9833817D01*
X17165301Y-9833817D02*
X17136730Y-9833817D01*
X17136730Y-9833817D02*
X17117682Y-9824293D01*
X17117682Y-9824293D02*
X17108158Y-9805246D01*
X17108158Y-9805246D02*
X17108158Y-9795722D01*
X17108158Y-9795722D02*
X17117682Y-9776674D01*
X17117682Y-9776674D02*
X17136730Y-9767150D01*
X17136730Y-9767150D02*
X17165301Y-9767150D01*
X17165301Y-9767150D02*
X17184349Y-9776674D01*
X17260539Y-9976674D02*
X17270063Y-9967150D01*
X17270063Y-9967150D02*
X17289111Y-9938579D01*
X17289111Y-9938579D02*
X17298634Y-9919531D01*
X17298634Y-9919531D02*
X17308158Y-9890960D01*
X17308158Y-9890960D02*
X17317682Y-9843341D01*
X17317682Y-9843341D02*
X17317682Y-9805246D01*
X17317682Y-9805246D02*
X17308158Y-9757627D01*
X17308158Y-9757627D02*
X17298634Y-9729055D01*
X17298634Y-9729055D02*
X17289111Y-9710008D01*
X17289111Y-9710008D02*
X17270063Y-9681436D01*
X17270063Y-9681436D02*
X17260539Y-9671912D01*
M02*
