M48
; DRILL file {KiCad 9.0.2} date 2025-10-06T12:01:19+0200
; FORMAT={-:-/ absolute / metric / decimal}
; #@! TF.CreationDate,2025-10-06T12:01:19+02:00
; #@! TF.GenerationSoftware,Kicad,Pcbnew,9.0.2
; #@! TF.FileFunction,Plated,1,2,PTH
FMAT,2
METRIC
; #@! TA.AperFunction,Plated,PTH,ComponentDrill
T1C0.650
; #@! TA.AperFunction,Plated,PTH,ComponentDrill
T2C1.000
%
G90
G05
T1
X136.255Y-84.9
X137.525Y-84.9
X138.795Y-84.9
X140.065Y-84.9
X141.335Y-84.9
X142.605Y-84.9
X143.875Y-84.9
X145.145Y-84.9
X146.415Y-84.9
X147.685Y-84.9
X148.955Y-84.9
X150.225Y-84.9
X151.495Y-84.9
X152.765Y-84.9
X154.035Y-84.9
X155.305Y-84.9
X156.575Y-84.9
X157.845Y-84.9
X159.115Y-84.9
X160.385Y-84.9
X161.655Y-84.9
X162.925Y-84.9
X164.195Y-84.9
X165.465Y-84.9
X196.469Y-84.9
X197.739Y-84.9
X199.009Y-84.9
X200.279Y-84.9
X201.549Y-84.9
X202.819Y-84.9
X204.089Y-84.9
X205.359Y-84.9
X206.629Y-84.9
X207.899Y-84.9
X209.169Y-84.9
X210.439Y-84.9
T2
X133.26Y-82.4
X133.26Y-87.4
X136.46Y-82.4
X136.46Y-87.4
X139.66Y-82.4
X139.66Y-87.4
X142.86Y-82.4
X142.86Y-87.4
X146.06Y-82.4
X146.06Y-87.4
X149.26Y-82.4
X149.26Y-87.4
X152.46Y-82.4
X152.46Y-87.4
X155.66Y-82.4
X155.66Y-87.4
X158.86Y-82.4
X158.86Y-87.4
X162.06Y-82.4
X162.06Y-87.4
X165.26Y-82.4
X165.26Y-87.4
X168.46Y-82.4
X168.46Y-87.4
X195.395Y-82.4
X195.395Y-87.4
X198.595Y-82.4
X198.595Y-87.4
X201.795Y-82.4
X201.795Y-87.4
X204.995Y-82.4
X204.995Y-87.4
X208.195Y-82.4
X208.195Y-87.4
X211.395Y-82.4
X211.395Y-87.4
M30
