%TF.GenerationSoftware,KiCad,Pcbnew,9.0.5*%
%TF.CreationDate,2025-10-13T16:35:59+02:00*%
%TF.ProjectId,rec_play_switch_mount,7265635f-706c-4617-995f-737769746368,rev?*%
%TF.SameCoordinates,Original*%
%TF.FileFunction,Drillmap*%
%TF.FilePolarity,Positive*%
%FSLAX45Y45*%
G04 Gerber Fmt 4.5, Leading zero omitted, Abs format (unit mm)*
G04 Created by KiCad (PCBNEW 9.0.5) date 2025-10-13 16:35:59*
%MOMM*%
%LPD*%
G01*
G04 APERTURE LIST*
%ADD10C,0.100000*%
%ADD11C,0.200000*%
G04 APERTURE END LIST*
D10*
X12300000Y-8100000D02*
X21700000Y-8100000D01*
X21700000Y-8900000D01*
X12300000Y-8900000D01*
X12300000Y-8100000D01*
D11*
X12555777Y-9216484D02*
X12555777Y-9016484D01*
X12555777Y-9016484D02*
X12603396Y-9016484D01*
X12603396Y-9016484D02*
X12631967Y-9026008D01*
X12631967Y-9026008D02*
X12651015Y-9045055D01*
X12651015Y-9045055D02*
X12660539Y-9064103D01*
X12660539Y-9064103D02*
X12670062Y-9102198D01*
X12670062Y-9102198D02*
X12670062Y-9130770D01*
X12670062Y-9130770D02*
X12660539Y-9168865D01*
X12660539Y-9168865D02*
X12651015Y-9187912D01*
X12651015Y-9187912D02*
X12631967Y-9206960D01*
X12631967Y-9206960D02*
X12603396Y-9216484D01*
X12603396Y-9216484D02*
X12555777Y-9216484D01*
X12755777Y-9216484D02*
X12755777Y-9083150D01*
X12755777Y-9121246D02*
X12765301Y-9102198D01*
X12765301Y-9102198D02*
X12774824Y-9092674D01*
X12774824Y-9092674D02*
X12793872Y-9083150D01*
X12793872Y-9083150D02*
X12812920Y-9083150D01*
X12879586Y-9216484D02*
X12879586Y-9083150D01*
X12879586Y-9016484D02*
X12870062Y-9026008D01*
X12870062Y-9026008D02*
X12879586Y-9035531D01*
X12879586Y-9035531D02*
X12889110Y-9026008D01*
X12889110Y-9026008D02*
X12879586Y-9016484D01*
X12879586Y-9016484D02*
X12879586Y-9035531D01*
X13003396Y-9216484D02*
X12984348Y-9206960D01*
X12984348Y-9206960D02*
X12974824Y-9187912D01*
X12974824Y-9187912D02*
X12974824Y-9016484D01*
X13108158Y-9216484D02*
X13089110Y-9206960D01*
X13089110Y-9206960D02*
X13079586Y-9187912D01*
X13079586Y-9187912D02*
X13079586Y-9016484D01*
X13336729Y-9216484D02*
X13336729Y-9016484D01*
X13336729Y-9016484D02*
X13403396Y-9159341D01*
X13403396Y-9159341D02*
X13470062Y-9016484D01*
X13470062Y-9016484D02*
X13470062Y-9216484D01*
X13651015Y-9216484D02*
X13651015Y-9111722D01*
X13651015Y-9111722D02*
X13641491Y-9092674D01*
X13641491Y-9092674D02*
X13622443Y-9083150D01*
X13622443Y-9083150D02*
X13584348Y-9083150D01*
X13584348Y-9083150D02*
X13565301Y-9092674D01*
X13651015Y-9206960D02*
X13631967Y-9216484D01*
X13631967Y-9216484D02*
X13584348Y-9216484D01*
X13584348Y-9216484D02*
X13565301Y-9206960D01*
X13565301Y-9206960D02*
X13555777Y-9187912D01*
X13555777Y-9187912D02*
X13555777Y-9168865D01*
X13555777Y-9168865D02*
X13565301Y-9149817D01*
X13565301Y-9149817D02*
X13584348Y-9140293D01*
X13584348Y-9140293D02*
X13631967Y-9140293D01*
X13631967Y-9140293D02*
X13651015Y-9130770D01*
X13746253Y-9083150D02*
X13746253Y-9283150D01*
X13746253Y-9092674D02*
X13765301Y-9083150D01*
X13765301Y-9083150D02*
X13803396Y-9083150D01*
X13803396Y-9083150D02*
X13822443Y-9092674D01*
X13822443Y-9092674D02*
X13831967Y-9102198D01*
X13831967Y-9102198D02*
X13841491Y-9121246D01*
X13841491Y-9121246D02*
X13841491Y-9178389D01*
X13841491Y-9178389D02*
X13831967Y-9197436D01*
X13831967Y-9197436D02*
X13822443Y-9206960D01*
X13822443Y-9206960D02*
X13803396Y-9216484D01*
X13803396Y-9216484D02*
X13765301Y-9216484D01*
X13765301Y-9216484D02*
X13746253Y-9206960D01*
X13927205Y-9197436D02*
X13936729Y-9206960D01*
X13936729Y-9206960D02*
X13927205Y-9216484D01*
X13927205Y-9216484D02*
X13917682Y-9206960D01*
X13917682Y-9206960D02*
X13927205Y-9197436D01*
X13927205Y-9197436D02*
X13927205Y-9216484D01*
X13927205Y-9092674D02*
X13936729Y-9102198D01*
X13936729Y-9102198D02*
X13927205Y-9111722D01*
X13927205Y-9111722D02*
X13917682Y-9102198D01*
X13917682Y-9102198D02*
X13927205Y-9092674D01*
X13927205Y-9092674D02*
X13927205Y-9111722D01*
M02*
