%TF.GenerationSoftware,KiCad,Pcbnew,9.0.2*%
%TF.CreationDate,2025-10-05T13:18:15+02:00*%
%TF.ProjectId,rec_play_switch_mount,7265635f-706c-4617-995f-737769746368,rev?*%
%TF.SameCoordinates,Original*%
%TF.FileFunction,Drillmap*%
%TF.FilePolarity,Positive*%
%FSLAX45Y45*%
G04 Gerber Fmt 4.5, Leading zero omitted, Abs format (unit mm)*
G04 Created by KiCad (PCBNEW 9.0.2) date 2025-10-05 13:18:15*
%MOMM*%
%LPD*%
G01*
G04 APERTURE LIST*
%ADD10C,0.100000*%
%ADD11C,0.200000*%
G04 APERTURE END LIST*
D10*
X13200000Y-8100000D02*
X21300000Y-8100000D01*
X21300000Y-8900000D01*
X13200000Y-8900000D01*
X13200000Y-8100000D01*
D11*
D10*
X13593000Y-8457500D02*
X13658000Y-8522500D01*
X13658000Y-8457500D02*
X13593000Y-8522500D01*
X13720000Y-8457500D02*
X13785000Y-8522500D01*
X13785000Y-8457500D02*
X13720000Y-8522500D01*
X13847000Y-8457500D02*
X13912000Y-8522500D01*
X13912000Y-8457500D02*
X13847000Y-8522500D01*
X13974000Y-8457500D02*
X14039000Y-8522500D01*
X14039000Y-8457500D02*
X13974000Y-8522500D01*
X14101000Y-8457500D02*
X14166000Y-8522500D01*
X14166000Y-8457500D02*
X14101000Y-8522500D01*
X14228000Y-8457500D02*
X14293000Y-8522500D01*
X14293000Y-8457500D02*
X14228000Y-8522500D01*
X14355000Y-8457500D02*
X14420000Y-8522500D01*
X14420000Y-8457500D02*
X14355000Y-8522500D01*
X14482000Y-8457500D02*
X14547000Y-8522500D01*
X14547000Y-8457500D02*
X14482000Y-8522500D01*
X14609000Y-8457500D02*
X14674000Y-8522500D01*
X14674000Y-8457500D02*
X14609000Y-8522500D01*
X14736000Y-8457500D02*
X14801000Y-8522500D01*
X14801000Y-8457500D02*
X14736000Y-8522500D01*
X14863000Y-8457500D02*
X14928000Y-8522500D01*
X14928000Y-8457500D02*
X14863000Y-8522500D01*
X14990000Y-8457500D02*
X15055000Y-8522500D01*
X15055000Y-8457500D02*
X14990000Y-8522500D01*
X15117000Y-8457500D02*
X15182000Y-8522500D01*
X15182000Y-8457500D02*
X15117000Y-8522500D01*
X15244000Y-8457500D02*
X15309000Y-8522500D01*
X15309000Y-8457500D02*
X15244000Y-8522500D01*
X15371000Y-8457500D02*
X15436000Y-8522500D01*
X15436000Y-8457500D02*
X15371000Y-8522500D01*
X15498000Y-8457500D02*
X15563000Y-8522500D01*
X15563000Y-8457500D02*
X15498000Y-8522500D01*
X15625000Y-8457500D02*
X15690000Y-8522500D01*
X15690000Y-8457500D02*
X15625000Y-8522500D01*
X15752000Y-8457500D02*
X15817000Y-8522500D01*
X15817000Y-8457500D02*
X15752000Y-8522500D01*
X15879000Y-8457500D02*
X15944000Y-8522500D01*
X15944000Y-8457500D02*
X15879000Y-8522500D01*
X16006000Y-8457500D02*
X16071000Y-8522500D01*
X16071000Y-8457500D02*
X16006000Y-8522500D01*
X16133000Y-8457500D02*
X16198000Y-8522500D01*
X16198000Y-8457500D02*
X16133000Y-8522500D01*
X16260000Y-8457500D02*
X16325000Y-8522500D01*
X16325000Y-8457500D02*
X16260000Y-8522500D01*
X16387000Y-8457500D02*
X16452000Y-8522500D01*
X16452000Y-8457500D02*
X16387000Y-8522500D01*
X16514000Y-8457500D02*
X16579000Y-8522500D01*
X16579000Y-8457500D02*
X16514000Y-8522500D01*
X19614400Y-8457500D02*
X19679400Y-8522500D01*
X19679400Y-8457500D02*
X19614400Y-8522500D01*
X19741400Y-8457500D02*
X19806400Y-8522500D01*
X19806400Y-8457500D02*
X19741400Y-8522500D01*
X19868400Y-8457500D02*
X19933400Y-8522500D01*
X19933400Y-8457500D02*
X19868400Y-8522500D01*
X19995400Y-8457500D02*
X20060400Y-8522500D01*
X20060400Y-8457500D02*
X19995400Y-8522500D01*
X20122400Y-8457500D02*
X20187400Y-8522500D01*
X20187400Y-8457500D02*
X20122400Y-8522500D01*
X20249400Y-8457500D02*
X20314400Y-8522500D01*
X20314400Y-8457500D02*
X20249400Y-8522500D01*
X20376400Y-8457500D02*
X20441400Y-8522500D01*
X20441400Y-8457500D02*
X20376400Y-8522500D01*
X20503400Y-8457500D02*
X20568400Y-8522500D01*
X20568400Y-8457500D02*
X20503400Y-8522500D01*
X20630400Y-8457500D02*
X20695400Y-8522500D01*
X20695400Y-8457500D02*
X20630400Y-8522500D01*
X20757400Y-8457500D02*
X20822400Y-8522500D01*
X20822400Y-8457500D02*
X20757400Y-8522500D01*
X20884400Y-8457500D02*
X20949400Y-8522500D01*
X20949400Y-8457500D02*
X20884400Y-8522500D01*
X21011400Y-8457500D02*
X21076400Y-8522500D01*
X21076400Y-8457500D02*
X21011400Y-8522500D01*
X13376000Y-8240000D02*
G75*
G02*
X13276000Y-8240000I-50000J0D01*
G01*
X13276000Y-8240000D02*
G75*
G02*
X13376000Y-8240000I50000J0D01*
G01*
X13376000Y-8740000D02*
G75*
G02*
X13276000Y-8740000I-50000J0D01*
G01*
X13276000Y-8740000D02*
G75*
G02*
X13376000Y-8740000I50000J0D01*
G01*
X13696000Y-8240000D02*
G75*
G02*
X13596000Y-8240000I-50000J0D01*
G01*
X13596000Y-8240000D02*
G75*
G02*
X13696000Y-8240000I50000J0D01*
G01*
X13696000Y-8740000D02*
G75*
G02*
X13596000Y-8740000I-50000J0D01*
G01*
X13596000Y-8740000D02*
G75*
G02*
X13696000Y-8740000I50000J0D01*
G01*
X14016000Y-8240000D02*
G75*
G02*
X13916000Y-8240000I-50000J0D01*
G01*
X13916000Y-8240000D02*
G75*
G02*
X14016000Y-8240000I50000J0D01*
G01*
X14016000Y-8740000D02*
G75*
G02*
X13916000Y-8740000I-50000J0D01*
G01*
X13916000Y-8740000D02*
G75*
G02*
X14016000Y-8740000I50000J0D01*
G01*
X14336000Y-8240000D02*
G75*
G02*
X14236000Y-8240000I-50000J0D01*
G01*
X14236000Y-8240000D02*
G75*
G02*
X14336000Y-8240000I50000J0D01*
G01*
X14336000Y-8740000D02*
G75*
G02*
X14236000Y-8740000I-50000J0D01*
G01*
X14236000Y-8740000D02*
G75*
G02*
X14336000Y-8740000I50000J0D01*
G01*
X14656000Y-8240000D02*
G75*
G02*
X14556000Y-8240000I-50000J0D01*
G01*
X14556000Y-8240000D02*
G75*
G02*
X14656000Y-8240000I50000J0D01*
G01*
X14656000Y-8740000D02*
G75*
G02*
X14556000Y-8740000I-50000J0D01*
G01*
X14556000Y-8740000D02*
G75*
G02*
X14656000Y-8740000I50000J0D01*
G01*
X14976000Y-8240000D02*
G75*
G02*
X14876000Y-8240000I-50000J0D01*
G01*
X14876000Y-8240000D02*
G75*
G02*
X14976000Y-8240000I50000J0D01*
G01*
X14976000Y-8740000D02*
G75*
G02*
X14876000Y-8740000I-50000J0D01*
G01*
X14876000Y-8740000D02*
G75*
G02*
X14976000Y-8740000I50000J0D01*
G01*
X15296000Y-8240000D02*
G75*
G02*
X15196000Y-8240000I-50000J0D01*
G01*
X15196000Y-8240000D02*
G75*
G02*
X15296000Y-8240000I50000J0D01*
G01*
X15296000Y-8740000D02*
G75*
G02*
X15196000Y-8740000I-50000J0D01*
G01*
X15196000Y-8740000D02*
G75*
G02*
X15296000Y-8740000I50000J0D01*
G01*
X15616000Y-8240000D02*
G75*
G02*
X15516000Y-8240000I-50000J0D01*
G01*
X15516000Y-8240000D02*
G75*
G02*
X15616000Y-8240000I50000J0D01*
G01*
X15616000Y-8740000D02*
G75*
G02*
X15516000Y-8740000I-50000J0D01*
G01*
X15516000Y-8740000D02*
G75*
G02*
X15616000Y-8740000I50000J0D01*
G01*
X15936000Y-8240000D02*
G75*
G02*
X15836000Y-8240000I-50000J0D01*
G01*
X15836000Y-8240000D02*
G75*
G02*
X15936000Y-8240000I50000J0D01*
G01*
X15936000Y-8740000D02*
G75*
G02*
X15836000Y-8740000I-50000J0D01*
G01*
X15836000Y-8740000D02*
G75*
G02*
X15936000Y-8740000I50000J0D01*
G01*
X16256000Y-8240000D02*
G75*
G02*
X16156000Y-8240000I-50000J0D01*
G01*
X16156000Y-8240000D02*
G75*
G02*
X16256000Y-8240000I50000J0D01*
G01*
X16256000Y-8740000D02*
G75*
G02*
X16156000Y-8740000I-50000J0D01*
G01*
X16156000Y-8740000D02*
G75*
G02*
X16256000Y-8740000I50000J0D01*
G01*
X16576000Y-8240000D02*
G75*
G02*
X16476000Y-8240000I-50000J0D01*
G01*
X16476000Y-8240000D02*
G75*
G02*
X16576000Y-8240000I50000J0D01*
G01*
X16576000Y-8740000D02*
G75*
G02*
X16476000Y-8740000I-50000J0D01*
G01*
X16476000Y-8740000D02*
G75*
G02*
X16576000Y-8740000I50000J0D01*
G01*
X16896000Y-8240000D02*
G75*
G02*
X16796000Y-8240000I-50000J0D01*
G01*
X16796000Y-8240000D02*
G75*
G02*
X16896000Y-8240000I50000J0D01*
G01*
X16896000Y-8740000D02*
G75*
G02*
X16796000Y-8740000I-50000J0D01*
G01*
X16796000Y-8740000D02*
G75*
G02*
X16896000Y-8740000I50000J0D01*
G01*
X19589500Y-8240000D02*
G75*
G02*
X19489500Y-8240000I-50000J0D01*
G01*
X19489500Y-8240000D02*
G75*
G02*
X19589500Y-8240000I50000J0D01*
G01*
X19589500Y-8740000D02*
G75*
G02*
X19489500Y-8740000I-50000J0D01*
G01*
X19489500Y-8740000D02*
G75*
G02*
X19589500Y-8740000I50000J0D01*
G01*
X19909500Y-8240000D02*
G75*
G02*
X19809500Y-8240000I-50000J0D01*
G01*
X19809500Y-8240000D02*
G75*
G02*
X19909500Y-8240000I50000J0D01*
G01*
X19909500Y-8740000D02*
G75*
G02*
X19809500Y-8740000I-50000J0D01*
G01*
X19809500Y-8740000D02*
G75*
G02*
X19909500Y-8740000I50000J0D01*
G01*
X20229500Y-8240000D02*
G75*
G02*
X20129500Y-8240000I-50000J0D01*
G01*
X20129500Y-8240000D02*
G75*
G02*
X20229500Y-8240000I50000J0D01*
G01*
X20229500Y-8740000D02*
G75*
G02*
X20129500Y-8740000I-50000J0D01*
G01*
X20129500Y-8740000D02*
G75*
G02*
X20229500Y-8740000I50000J0D01*
G01*
X20549500Y-8240000D02*
G75*
G02*
X20449500Y-8240000I-50000J0D01*
G01*
X20449500Y-8240000D02*
G75*
G02*
X20549500Y-8240000I50000J0D01*
G01*
X20549500Y-8740000D02*
G75*
G02*
X20449500Y-8740000I-50000J0D01*
G01*
X20449500Y-8740000D02*
G75*
G02*
X20549500Y-8740000I50000J0D01*
G01*
X20869500Y-8240000D02*
G75*
G02*
X20769500Y-8240000I-50000J0D01*
G01*
X20769500Y-8240000D02*
G75*
G02*
X20869500Y-8240000I50000J0D01*
G01*
X20869500Y-8740000D02*
G75*
G02*
X20769500Y-8740000I-50000J0D01*
G01*
X20769500Y-8740000D02*
G75*
G02*
X20869500Y-8740000I50000J0D01*
G01*
X21189500Y-8240000D02*
G75*
G02*
X21089500Y-8240000I-50000J0D01*
G01*
X21089500Y-8240000D02*
G75*
G02*
X21189500Y-8240000I50000J0D01*
G01*
X21189500Y-8740000D02*
G75*
G02*
X21089500Y-8740000I-50000J0D01*
G01*
X21089500Y-8740000D02*
G75*
G02*
X21189500Y-8740000I50000J0D01*
G01*
D11*
X13455777Y-9216484D02*
X13455777Y-9016484D01*
X13455777Y-9016484D02*
X13503396Y-9016484D01*
X13503396Y-9016484D02*
X13531967Y-9026008D01*
X13531967Y-9026008D02*
X13551015Y-9045055D01*
X13551015Y-9045055D02*
X13560539Y-9064103D01*
X13560539Y-9064103D02*
X13570062Y-9102198D01*
X13570062Y-9102198D02*
X13570062Y-9130770D01*
X13570062Y-9130770D02*
X13560539Y-9168865D01*
X13560539Y-9168865D02*
X13551015Y-9187912D01*
X13551015Y-9187912D02*
X13531967Y-9206960D01*
X13531967Y-9206960D02*
X13503396Y-9216484D01*
X13503396Y-9216484D02*
X13455777Y-9216484D01*
X13655777Y-9216484D02*
X13655777Y-9083150D01*
X13655777Y-9121246D02*
X13665301Y-9102198D01*
X13665301Y-9102198D02*
X13674824Y-9092674D01*
X13674824Y-9092674D02*
X13693872Y-9083150D01*
X13693872Y-9083150D02*
X13712920Y-9083150D01*
X13779586Y-9216484D02*
X13779586Y-9083150D01*
X13779586Y-9016484D02*
X13770062Y-9026008D01*
X13770062Y-9026008D02*
X13779586Y-9035531D01*
X13779586Y-9035531D02*
X13789110Y-9026008D01*
X13789110Y-9026008D02*
X13779586Y-9016484D01*
X13779586Y-9016484D02*
X13779586Y-9035531D01*
X13903396Y-9216484D02*
X13884348Y-9206960D01*
X13884348Y-9206960D02*
X13874824Y-9187912D01*
X13874824Y-9187912D02*
X13874824Y-9016484D01*
X14008158Y-9216484D02*
X13989110Y-9206960D01*
X13989110Y-9206960D02*
X13979586Y-9187912D01*
X13979586Y-9187912D02*
X13979586Y-9016484D01*
X14236729Y-9216484D02*
X14236729Y-9016484D01*
X14236729Y-9016484D02*
X14303396Y-9159341D01*
X14303396Y-9159341D02*
X14370062Y-9016484D01*
X14370062Y-9016484D02*
X14370062Y-9216484D01*
X14551015Y-9216484D02*
X14551015Y-9111722D01*
X14551015Y-9111722D02*
X14541491Y-9092674D01*
X14541491Y-9092674D02*
X14522443Y-9083150D01*
X14522443Y-9083150D02*
X14484348Y-9083150D01*
X14484348Y-9083150D02*
X14465301Y-9092674D01*
X14551015Y-9206960D02*
X14531967Y-9216484D01*
X14531967Y-9216484D02*
X14484348Y-9216484D01*
X14484348Y-9216484D02*
X14465301Y-9206960D01*
X14465301Y-9206960D02*
X14455777Y-9187912D01*
X14455777Y-9187912D02*
X14455777Y-9168865D01*
X14455777Y-9168865D02*
X14465301Y-9149817D01*
X14465301Y-9149817D02*
X14484348Y-9140293D01*
X14484348Y-9140293D02*
X14531967Y-9140293D01*
X14531967Y-9140293D02*
X14551015Y-9130770D01*
X14646253Y-9083150D02*
X14646253Y-9283150D01*
X14646253Y-9092674D02*
X14665301Y-9083150D01*
X14665301Y-9083150D02*
X14703396Y-9083150D01*
X14703396Y-9083150D02*
X14722443Y-9092674D01*
X14722443Y-9092674D02*
X14731967Y-9102198D01*
X14731967Y-9102198D02*
X14741491Y-9121246D01*
X14741491Y-9121246D02*
X14741491Y-9178389D01*
X14741491Y-9178389D02*
X14731967Y-9197436D01*
X14731967Y-9197436D02*
X14722443Y-9206960D01*
X14722443Y-9206960D02*
X14703396Y-9216484D01*
X14703396Y-9216484D02*
X14665301Y-9216484D01*
X14665301Y-9216484D02*
X14646253Y-9206960D01*
X14827205Y-9197436D02*
X14836729Y-9206960D01*
X14836729Y-9206960D02*
X14827205Y-9216484D01*
X14827205Y-9216484D02*
X14817682Y-9206960D01*
X14817682Y-9206960D02*
X14827205Y-9197436D01*
X14827205Y-9197436D02*
X14827205Y-9216484D01*
X14827205Y-9092674D02*
X14836729Y-9102198D01*
X14836729Y-9102198D02*
X14827205Y-9111722D01*
X14827205Y-9111722D02*
X14817682Y-9102198D01*
X14817682Y-9102198D02*
X14827205Y-9092674D01*
X14827205Y-9092674D02*
X14827205Y-9111722D01*
D10*
X13130000Y-9512500D02*
X13195000Y-9577500D01*
X13195000Y-9512500D02*
X13130000Y-9577500D01*
D11*
X13493872Y-9436484D02*
X13512920Y-9436484D01*
X13512920Y-9436484D02*
X13531967Y-9446008D01*
X13531967Y-9446008D02*
X13541491Y-9455531D01*
X13541491Y-9455531D02*
X13551015Y-9474579D01*
X13551015Y-9474579D02*
X13560539Y-9512674D01*
X13560539Y-9512674D02*
X13560539Y-9560293D01*
X13560539Y-9560293D02*
X13551015Y-9598389D01*
X13551015Y-9598389D02*
X13541491Y-9617436D01*
X13541491Y-9617436D02*
X13531967Y-9626960D01*
X13531967Y-9626960D02*
X13512920Y-9636484D01*
X13512920Y-9636484D02*
X13493872Y-9636484D01*
X13493872Y-9636484D02*
X13474824Y-9626960D01*
X13474824Y-9626960D02*
X13465301Y-9617436D01*
X13465301Y-9617436D02*
X13455777Y-9598389D01*
X13455777Y-9598389D02*
X13446253Y-9560293D01*
X13446253Y-9560293D02*
X13446253Y-9512674D01*
X13446253Y-9512674D02*
X13455777Y-9474579D01*
X13455777Y-9474579D02*
X13465301Y-9455531D01*
X13465301Y-9455531D02*
X13474824Y-9446008D01*
X13474824Y-9446008D02*
X13493872Y-9436484D01*
X13646253Y-9617436D02*
X13655777Y-9626960D01*
X13655777Y-9626960D02*
X13646253Y-9636484D01*
X13646253Y-9636484D02*
X13636729Y-9626960D01*
X13636729Y-9626960D02*
X13646253Y-9617436D01*
X13646253Y-9617436D02*
X13646253Y-9636484D01*
X13827205Y-9436484D02*
X13789110Y-9436484D01*
X13789110Y-9436484D02*
X13770062Y-9446008D01*
X13770062Y-9446008D02*
X13760539Y-9455531D01*
X13760539Y-9455531D02*
X13741491Y-9484103D01*
X13741491Y-9484103D02*
X13731967Y-9522198D01*
X13731967Y-9522198D02*
X13731967Y-9598389D01*
X13731967Y-9598389D02*
X13741491Y-9617436D01*
X13741491Y-9617436D02*
X13751015Y-9626960D01*
X13751015Y-9626960D02*
X13770062Y-9636484D01*
X13770062Y-9636484D02*
X13808158Y-9636484D01*
X13808158Y-9636484D02*
X13827205Y-9626960D01*
X13827205Y-9626960D02*
X13836729Y-9617436D01*
X13836729Y-9617436D02*
X13846253Y-9598389D01*
X13846253Y-9598389D02*
X13846253Y-9550770D01*
X13846253Y-9550770D02*
X13836729Y-9531722D01*
X13836729Y-9531722D02*
X13827205Y-9522198D01*
X13827205Y-9522198D02*
X13808158Y-9512674D01*
X13808158Y-9512674D02*
X13770062Y-9512674D01*
X13770062Y-9512674D02*
X13751015Y-9522198D01*
X13751015Y-9522198D02*
X13741491Y-9531722D01*
X13741491Y-9531722D02*
X13731967Y-9550770D01*
X14027205Y-9436484D02*
X13931967Y-9436484D01*
X13931967Y-9436484D02*
X13922443Y-9531722D01*
X13922443Y-9531722D02*
X13931967Y-9522198D01*
X13931967Y-9522198D02*
X13951015Y-9512674D01*
X13951015Y-9512674D02*
X13998634Y-9512674D01*
X13998634Y-9512674D02*
X14017682Y-9522198D01*
X14017682Y-9522198D02*
X14027205Y-9531722D01*
X14027205Y-9531722D02*
X14036729Y-9550770D01*
X14036729Y-9550770D02*
X14036729Y-9598389D01*
X14036729Y-9598389D02*
X14027205Y-9617436D01*
X14027205Y-9617436D02*
X14017682Y-9626960D01*
X14017682Y-9626960D02*
X13998634Y-9636484D01*
X13998634Y-9636484D02*
X13951015Y-9636484D01*
X13951015Y-9636484D02*
X13931967Y-9626960D01*
X13931967Y-9626960D02*
X13922443Y-9617436D01*
X14160539Y-9436484D02*
X14179586Y-9436484D01*
X14179586Y-9436484D02*
X14198634Y-9446008D01*
X14198634Y-9446008D02*
X14208158Y-9455531D01*
X14208158Y-9455531D02*
X14217682Y-9474579D01*
X14217682Y-9474579D02*
X14227205Y-9512674D01*
X14227205Y-9512674D02*
X14227205Y-9560293D01*
X14227205Y-9560293D02*
X14217682Y-9598389D01*
X14217682Y-9598389D02*
X14208158Y-9617436D01*
X14208158Y-9617436D02*
X14198634Y-9626960D01*
X14198634Y-9626960D02*
X14179586Y-9636484D01*
X14179586Y-9636484D02*
X14160539Y-9636484D01*
X14160539Y-9636484D02*
X14141491Y-9626960D01*
X14141491Y-9626960D02*
X14131967Y-9617436D01*
X14131967Y-9617436D02*
X14122443Y-9598389D01*
X14122443Y-9598389D02*
X14112920Y-9560293D01*
X14112920Y-9560293D02*
X14112920Y-9512674D01*
X14112920Y-9512674D02*
X14122443Y-9474579D01*
X14122443Y-9474579D02*
X14131967Y-9455531D01*
X14131967Y-9455531D02*
X14141491Y-9446008D01*
X14141491Y-9446008D02*
X14160539Y-9436484D01*
X14312920Y-9636484D02*
X14312920Y-9503150D01*
X14312920Y-9522198D02*
X14322443Y-9512674D01*
X14322443Y-9512674D02*
X14341491Y-9503150D01*
X14341491Y-9503150D02*
X14370063Y-9503150D01*
X14370063Y-9503150D02*
X14389110Y-9512674D01*
X14389110Y-9512674D02*
X14398634Y-9531722D01*
X14398634Y-9531722D02*
X14398634Y-9636484D01*
X14398634Y-9531722D02*
X14408158Y-9512674D01*
X14408158Y-9512674D02*
X14427205Y-9503150D01*
X14427205Y-9503150D02*
X14455777Y-9503150D01*
X14455777Y-9503150D02*
X14474824Y-9512674D01*
X14474824Y-9512674D02*
X14484348Y-9531722D01*
X14484348Y-9531722D02*
X14484348Y-9636484D01*
X14579586Y-9636484D02*
X14579586Y-9503150D01*
X14579586Y-9522198D02*
X14589110Y-9512674D01*
X14589110Y-9512674D02*
X14608158Y-9503150D01*
X14608158Y-9503150D02*
X14636729Y-9503150D01*
X14636729Y-9503150D02*
X14655777Y-9512674D01*
X14655777Y-9512674D02*
X14665301Y-9531722D01*
X14665301Y-9531722D02*
X14665301Y-9636484D01*
X14665301Y-9531722D02*
X14674824Y-9512674D01*
X14674824Y-9512674D02*
X14693872Y-9503150D01*
X14693872Y-9503150D02*
X14722443Y-9503150D01*
X14722443Y-9503150D02*
X14741491Y-9512674D01*
X14741491Y-9512674D02*
X14751015Y-9531722D01*
X14751015Y-9531722D02*
X14751015Y-9636484D01*
X15141491Y-9426960D02*
X14970063Y-9684103D01*
X15398634Y-9436484D02*
X15417682Y-9436484D01*
X15417682Y-9436484D02*
X15436729Y-9446008D01*
X15436729Y-9446008D02*
X15446253Y-9455531D01*
X15446253Y-9455531D02*
X15455777Y-9474579D01*
X15455777Y-9474579D02*
X15465301Y-9512674D01*
X15465301Y-9512674D02*
X15465301Y-9560293D01*
X15465301Y-9560293D02*
X15455777Y-9598389D01*
X15455777Y-9598389D02*
X15446253Y-9617436D01*
X15446253Y-9617436D02*
X15436729Y-9626960D01*
X15436729Y-9626960D02*
X15417682Y-9636484D01*
X15417682Y-9636484D02*
X15398634Y-9636484D01*
X15398634Y-9636484D02*
X15379586Y-9626960D01*
X15379586Y-9626960D02*
X15370063Y-9617436D01*
X15370063Y-9617436D02*
X15360539Y-9598389D01*
X15360539Y-9598389D02*
X15351015Y-9560293D01*
X15351015Y-9560293D02*
X15351015Y-9512674D01*
X15351015Y-9512674D02*
X15360539Y-9474579D01*
X15360539Y-9474579D02*
X15370063Y-9455531D01*
X15370063Y-9455531D02*
X15379586Y-9446008D01*
X15379586Y-9446008D02*
X15398634Y-9436484D01*
X15551015Y-9617436D02*
X15560539Y-9626960D01*
X15560539Y-9626960D02*
X15551015Y-9636484D01*
X15551015Y-9636484D02*
X15541491Y-9626960D01*
X15541491Y-9626960D02*
X15551015Y-9617436D01*
X15551015Y-9617436D02*
X15551015Y-9636484D01*
X15684348Y-9436484D02*
X15703396Y-9436484D01*
X15703396Y-9436484D02*
X15722444Y-9446008D01*
X15722444Y-9446008D02*
X15731967Y-9455531D01*
X15731967Y-9455531D02*
X15741491Y-9474579D01*
X15741491Y-9474579D02*
X15751015Y-9512674D01*
X15751015Y-9512674D02*
X15751015Y-9560293D01*
X15751015Y-9560293D02*
X15741491Y-9598389D01*
X15741491Y-9598389D02*
X15731967Y-9617436D01*
X15731967Y-9617436D02*
X15722444Y-9626960D01*
X15722444Y-9626960D02*
X15703396Y-9636484D01*
X15703396Y-9636484D02*
X15684348Y-9636484D01*
X15684348Y-9636484D02*
X15665301Y-9626960D01*
X15665301Y-9626960D02*
X15655777Y-9617436D01*
X15655777Y-9617436D02*
X15646253Y-9598389D01*
X15646253Y-9598389D02*
X15636729Y-9560293D01*
X15636729Y-9560293D02*
X15636729Y-9512674D01*
X15636729Y-9512674D02*
X15646253Y-9474579D01*
X15646253Y-9474579D02*
X15655777Y-9455531D01*
X15655777Y-9455531D02*
X15665301Y-9446008D01*
X15665301Y-9446008D02*
X15684348Y-9436484D01*
X15827206Y-9455531D02*
X15836729Y-9446008D01*
X15836729Y-9446008D02*
X15855777Y-9436484D01*
X15855777Y-9436484D02*
X15903396Y-9436484D01*
X15903396Y-9436484D02*
X15922444Y-9446008D01*
X15922444Y-9446008D02*
X15931967Y-9455531D01*
X15931967Y-9455531D02*
X15941491Y-9474579D01*
X15941491Y-9474579D02*
X15941491Y-9493627D01*
X15941491Y-9493627D02*
X15931967Y-9522198D01*
X15931967Y-9522198D02*
X15817682Y-9636484D01*
X15817682Y-9636484D02*
X15941491Y-9636484D01*
X16122444Y-9436484D02*
X16027206Y-9436484D01*
X16027206Y-9436484D02*
X16017682Y-9531722D01*
X16017682Y-9531722D02*
X16027206Y-9522198D01*
X16027206Y-9522198D02*
X16046253Y-9512674D01*
X16046253Y-9512674D02*
X16093872Y-9512674D01*
X16093872Y-9512674D02*
X16112920Y-9522198D01*
X16112920Y-9522198D02*
X16122444Y-9531722D01*
X16122444Y-9531722D02*
X16131967Y-9550770D01*
X16131967Y-9550770D02*
X16131967Y-9598389D01*
X16131967Y-9598389D02*
X16122444Y-9617436D01*
X16122444Y-9617436D02*
X16112920Y-9626960D01*
X16112920Y-9626960D02*
X16093872Y-9636484D01*
X16093872Y-9636484D02*
X16046253Y-9636484D01*
X16046253Y-9636484D02*
X16027206Y-9626960D01*
X16027206Y-9626960D02*
X16017682Y-9617436D01*
X16303396Y-9436484D02*
X16265301Y-9436484D01*
X16265301Y-9436484D02*
X16246253Y-9446008D01*
X16246253Y-9446008D02*
X16236729Y-9455531D01*
X16236729Y-9455531D02*
X16217682Y-9484103D01*
X16217682Y-9484103D02*
X16208158Y-9522198D01*
X16208158Y-9522198D02*
X16208158Y-9598389D01*
X16208158Y-9598389D02*
X16217682Y-9617436D01*
X16217682Y-9617436D02*
X16227206Y-9626960D01*
X16227206Y-9626960D02*
X16246253Y-9636484D01*
X16246253Y-9636484D02*
X16284348Y-9636484D01*
X16284348Y-9636484D02*
X16303396Y-9626960D01*
X16303396Y-9626960D02*
X16312920Y-9617436D01*
X16312920Y-9617436D02*
X16322444Y-9598389D01*
X16322444Y-9598389D02*
X16322444Y-9550770D01*
X16322444Y-9550770D02*
X16312920Y-9531722D01*
X16312920Y-9531722D02*
X16303396Y-9522198D01*
X16303396Y-9522198D02*
X16284348Y-9512674D01*
X16284348Y-9512674D02*
X16246253Y-9512674D01*
X16246253Y-9512674D02*
X16227206Y-9522198D01*
X16227206Y-9522198D02*
X16217682Y-9531722D01*
X16217682Y-9531722D02*
X16208158Y-9550770D01*
X16398634Y-9436484D02*
X16398634Y-9474579D01*
X16474825Y-9436484D02*
X16474825Y-9474579D01*
X16770063Y-9712674D02*
X16760539Y-9703150D01*
X16760539Y-9703150D02*
X16741491Y-9674579D01*
X16741491Y-9674579D02*
X16731968Y-9655531D01*
X16731968Y-9655531D02*
X16722444Y-9626960D01*
X16722444Y-9626960D02*
X16712920Y-9579341D01*
X16712920Y-9579341D02*
X16712920Y-9541246D01*
X16712920Y-9541246D02*
X16722444Y-9493627D01*
X16722444Y-9493627D02*
X16731968Y-9465055D01*
X16731968Y-9465055D02*
X16741491Y-9446008D01*
X16741491Y-9446008D02*
X16760539Y-9417436D01*
X16760539Y-9417436D02*
X16770063Y-9407912D01*
X16827206Y-9436484D02*
X16951015Y-9436484D01*
X16951015Y-9436484D02*
X16884349Y-9512674D01*
X16884349Y-9512674D02*
X16912920Y-9512674D01*
X16912920Y-9512674D02*
X16931968Y-9522198D01*
X16931968Y-9522198D02*
X16941491Y-9531722D01*
X16941491Y-9531722D02*
X16951015Y-9550770D01*
X16951015Y-9550770D02*
X16951015Y-9598389D01*
X16951015Y-9598389D02*
X16941491Y-9617436D01*
X16941491Y-9617436D02*
X16931968Y-9626960D01*
X16931968Y-9626960D02*
X16912920Y-9636484D01*
X16912920Y-9636484D02*
X16855777Y-9636484D01*
X16855777Y-9636484D02*
X16836730Y-9626960D01*
X16836730Y-9626960D02*
X16827206Y-9617436D01*
X17122444Y-9436484D02*
X17084349Y-9436484D01*
X17084349Y-9436484D02*
X17065301Y-9446008D01*
X17065301Y-9446008D02*
X17055777Y-9455531D01*
X17055777Y-9455531D02*
X17036730Y-9484103D01*
X17036730Y-9484103D02*
X17027206Y-9522198D01*
X17027206Y-9522198D02*
X17027206Y-9598389D01*
X17027206Y-9598389D02*
X17036730Y-9617436D01*
X17036730Y-9617436D02*
X17046253Y-9626960D01*
X17046253Y-9626960D02*
X17065301Y-9636484D01*
X17065301Y-9636484D02*
X17103396Y-9636484D01*
X17103396Y-9636484D02*
X17122444Y-9626960D01*
X17122444Y-9626960D02*
X17131968Y-9617436D01*
X17131968Y-9617436D02*
X17141491Y-9598389D01*
X17141491Y-9598389D02*
X17141491Y-9550770D01*
X17141491Y-9550770D02*
X17131968Y-9531722D01*
X17131968Y-9531722D02*
X17122444Y-9522198D01*
X17122444Y-9522198D02*
X17103396Y-9512674D01*
X17103396Y-9512674D02*
X17065301Y-9512674D01*
X17065301Y-9512674D02*
X17046253Y-9522198D01*
X17046253Y-9522198D02*
X17036730Y-9531722D01*
X17036730Y-9531722D02*
X17027206Y-9550770D01*
X17379587Y-9636484D02*
X17379587Y-9436484D01*
X17465301Y-9636484D02*
X17465301Y-9531722D01*
X17465301Y-9531722D02*
X17455777Y-9512674D01*
X17455777Y-9512674D02*
X17436730Y-9503150D01*
X17436730Y-9503150D02*
X17408158Y-9503150D01*
X17408158Y-9503150D02*
X17389111Y-9512674D01*
X17389111Y-9512674D02*
X17379587Y-9522198D01*
X17589111Y-9636484D02*
X17570063Y-9626960D01*
X17570063Y-9626960D02*
X17560539Y-9617436D01*
X17560539Y-9617436D02*
X17551015Y-9598389D01*
X17551015Y-9598389D02*
X17551015Y-9541246D01*
X17551015Y-9541246D02*
X17560539Y-9522198D01*
X17560539Y-9522198D02*
X17570063Y-9512674D01*
X17570063Y-9512674D02*
X17589111Y-9503150D01*
X17589111Y-9503150D02*
X17617682Y-9503150D01*
X17617682Y-9503150D02*
X17636730Y-9512674D01*
X17636730Y-9512674D02*
X17646253Y-9522198D01*
X17646253Y-9522198D02*
X17655777Y-9541246D01*
X17655777Y-9541246D02*
X17655777Y-9598389D01*
X17655777Y-9598389D02*
X17646253Y-9617436D01*
X17646253Y-9617436D02*
X17636730Y-9626960D01*
X17636730Y-9626960D02*
X17617682Y-9636484D01*
X17617682Y-9636484D02*
X17589111Y-9636484D01*
X17770063Y-9636484D02*
X17751015Y-9626960D01*
X17751015Y-9626960D02*
X17741492Y-9607912D01*
X17741492Y-9607912D02*
X17741492Y-9436484D01*
X17922444Y-9626960D02*
X17903396Y-9636484D01*
X17903396Y-9636484D02*
X17865301Y-9636484D01*
X17865301Y-9636484D02*
X17846253Y-9626960D01*
X17846253Y-9626960D02*
X17836730Y-9607912D01*
X17836730Y-9607912D02*
X17836730Y-9531722D01*
X17836730Y-9531722D02*
X17846253Y-9512674D01*
X17846253Y-9512674D02*
X17865301Y-9503150D01*
X17865301Y-9503150D02*
X17903396Y-9503150D01*
X17903396Y-9503150D02*
X17922444Y-9512674D01*
X17922444Y-9512674D02*
X17931968Y-9531722D01*
X17931968Y-9531722D02*
X17931968Y-9550770D01*
X17931968Y-9550770D02*
X17836730Y-9569817D01*
X18008158Y-9626960D02*
X18027206Y-9636484D01*
X18027206Y-9636484D02*
X18065301Y-9636484D01*
X18065301Y-9636484D02*
X18084349Y-9626960D01*
X18084349Y-9626960D02*
X18093873Y-9607912D01*
X18093873Y-9607912D02*
X18093873Y-9598389D01*
X18093873Y-9598389D02*
X18084349Y-9579341D01*
X18084349Y-9579341D02*
X18065301Y-9569817D01*
X18065301Y-9569817D02*
X18036730Y-9569817D01*
X18036730Y-9569817D02*
X18017682Y-9560293D01*
X18017682Y-9560293D02*
X18008158Y-9541246D01*
X18008158Y-9541246D02*
X18008158Y-9531722D01*
X18008158Y-9531722D02*
X18017682Y-9512674D01*
X18017682Y-9512674D02*
X18036730Y-9503150D01*
X18036730Y-9503150D02*
X18065301Y-9503150D01*
X18065301Y-9503150D02*
X18084349Y-9512674D01*
X18160539Y-9712674D02*
X18170063Y-9703150D01*
X18170063Y-9703150D02*
X18189111Y-9674579D01*
X18189111Y-9674579D02*
X18198634Y-9655531D01*
X18198634Y-9655531D02*
X18208158Y-9626960D01*
X18208158Y-9626960D02*
X18217682Y-9579341D01*
X18217682Y-9579341D02*
X18217682Y-9541246D01*
X18217682Y-9541246D02*
X18208158Y-9493627D01*
X18208158Y-9493627D02*
X18198634Y-9465055D01*
X18198634Y-9465055D02*
X18189111Y-9446008D01*
X18189111Y-9446008D02*
X18170063Y-9417436D01*
X18170063Y-9417436D02*
X18160539Y-9407912D01*
D10*
X13195000Y-9809000D02*
G75*
G02*
X13095000Y-9809000I-50000J0D01*
G01*
X13095000Y-9809000D02*
G75*
G02*
X13195000Y-9809000I50000J0D01*
G01*
D11*
X13560539Y-9900484D02*
X13446253Y-9900484D01*
X13503396Y-9900484D02*
X13503396Y-9700484D01*
X13503396Y-9700484D02*
X13484348Y-9729055D01*
X13484348Y-9729055D02*
X13465301Y-9748103D01*
X13465301Y-9748103D02*
X13446253Y-9757627D01*
X13646253Y-9881436D02*
X13655777Y-9890960D01*
X13655777Y-9890960D02*
X13646253Y-9900484D01*
X13646253Y-9900484D02*
X13636729Y-9890960D01*
X13636729Y-9890960D02*
X13646253Y-9881436D01*
X13646253Y-9881436D02*
X13646253Y-9900484D01*
X13779586Y-9700484D02*
X13798634Y-9700484D01*
X13798634Y-9700484D02*
X13817682Y-9710008D01*
X13817682Y-9710008D02*
X13827205Y-9719531D01*
X13827205Y-9719531D02*
X13836729Y-9738579D01*
X13836729Y-9738579D02*
X13846253Y-9776674D01*
X13846253Y-9776674D02*
X13846253Y-9824293D01*
X13846253Y-9824293D02*
X13836729Y-9862389D01*
X13836729Y-9862389D02*
X13827205Y-9881436D01*
X13827205Y-9881436D02*
X13817682Y-9890960D01*
X13817682Y-9890960D02*
X13798634Y-9900484D01*
X13798634Y-9900484D02*
X13779586Y-9900484D01*
X13779586Y-9900484D02*
X13760539Y-9890960D01*
X13760539Y-9890960D02*
X13751015Y-9881436D01*
X13751015Y-9881436D02*
X13741491Y-9862389D01*
X13741491Y-9862389D02*
X13731967Y-9824293D01*
X13731967Y-9824293D02*
X13731967Y-9776674D01*
X13731967Y-9776674D02*
X13741491Y-9738579D01*
X13741491Y-9738579D02*
X13751015Y-9719531D01*
X13751015Y-9719531D02*
X13760539Y-9710008D01*
X13760539Y-9710008D02*
X13779586Y-9700484D01*
X13970062Y-9700484D02*
X13989110Y-9700484D01*
X13989110Y-9700484D02*
X14008158Y-9710008D01*
X14008158Y-9710008D02*
X14017682Y-9719531D01*
X14017682Y-9719531D02*
X14027205Y-9738579D01*
X14027205Y-9738579D02*
X14036729Y-9776674D01*
X14036729Y-9776674D02*
X14036729Y-9824293D01*
X14036729Y-9824293D02*
X14027205Y-9862389D01*
X14027205Y-9862389D02*
X14017682Y-9881436D01*
X14017682Y-9881436D02*
X14008158Y-9890960D01*
X14008158Y-9890960D02*
X13989110Y-9900484D01*
X13989110Y-9900484D02*
X13970062Y-9900484D01*
X13970062Y-9900484D02*
X13951015Y-9890960D01*
X13951015Y-9890960D02*
X13941491Y-9881436D01*
X13941491Y-9881436D02*
X13931967Y-9862389D01*
X13931967Y-9862389D02*
X13922443Y-9824293D01*
X13922443Y-9824293D02*
X13922443Y-9776674D01*
X13922443Y-9776674D02*
X13931967Y-9738579D01*
X13931967Y-9738579D02*
X13941491Y-9719531D01*
X13941491Y-9719531D02*
X13951015Y-9710008D01*
X13951015Y-9710008D02*
X13970062Y-9700484D01*
X14160539Y-9700484D02*
X14179586Y-9700484D01*
X14179586Y-9700484D02*
X14198634Y-9710008D01*
X14198634Y-9710008D02*
X14208158Y-9719531D01*
X14208158Y-9719531D02*
X14217682Y-9738579D01*
X14217682Y-9738579D02*
X14227205Y-9776674D01*
X14227205Y-9776674D02*
X14227205Y-9824293D01*
X14227205Y-9824293D02*
X14217682Y-9862389D01*
X14217682Y-9862389D02*
X14208158Y-9881436D01*
X14208158Y-9881436D02*
X14198634Y-9890960D01*
X14198634Y-9890960D02*
X14179586Y-9900484D01*
X14179586Y-9900484D02*
X14160539Y-9900484D01*
X14160539Y-9900484D02*
X14141491Y-9890960D01*
X14141491Y-9890960D02*
X14131967Y-9881436D01*
X14131967Y-9881436D02*
X14122443Y-9862389D01*
X14122443Y-9862389D02*
X14112920Y-9824293D01*
X14112920Y-9824293D02*
X14112920Y-9776674D01*
X14112920Y-9776674D02*
X14122443Y-9738579D01*
X14122443Y-9738579D02*
X14131967Y-9719531D01*
X14131967Y-9719531D02*
X14141491Y-9710008D01*
X14141491Y-9710008D02*
X14160539Y-9700484D01*
X14312920Y-9900484D02*
X14312920Y-9767150D01*
X14312920Y-9786198D02*
X14322443Y-9776674D01*
X14322443Y-9776674D02*
X14341491Y-9767150D01*
X14341491Y-9767150D02*
X14370063Y-9767150D01*
X14370063Y-9767150D02*
X14389110Y-9776674D01*
X14389110Y-9776674D02*
X14398634Y-9795722D01*
X14398634Y-9795722D02*
X14398634Y-9900484D01*
X14398634Y-9795722D02*
X14408158Y-9776674D01*
X14408158Y-9776674D02*
X14427205Y-9767150D01*
X14427205Y-9767150D02*
X14455777Y-9767150D01*
X14455777Y-9767150D02*
X14474824Y-9776674D01*
X14474824Y-9776674D02*
X14484348Y-9795722D01*
X14484348Y-9795722D02*
X14484348Y-9900484D01*
X14579586Y-9900484D02*
X14579586Y-9767150D01*
X14579586Y-9786198D02*
X14589110Y-9776674D01*
X14589110Y-9776674D02*
X14608158Y-9767150D01*
X14608158Y-9767150D02*
X14636729Y-9767150D01*
X14636729Y-9767150D02*
X14655777Y-9776674D01*
X14655777Y-9776674D02*
X14665301Y-9795722D01*
X14665301Y-9795722D02*
X14665301Y-9900484D01*
X14665301Y-9795722D02*
X14674824Y-9776674D01*
X14674824Y-9776674D02*
X14693872Y-9767150D01*
X14693872Y-9767150D02*
X14722443Y-9767150D01*
X14722443Y-9767150D02*
X14741491Y-9776674D01*
X14741491Y-9776674D02*
X14751015Y-9795722D01*
X14751015Y-9795722D02*
X14751015Y-9900484D01*
X15141491Y-9690960D02*
X14970063Y-9948103D01*
X15398634Y-9700484D02*
X15417682Y-9700484D01*
X15417682Y-9700484D02*
X15436729Y-9710008D01*
X15436729Y-9710008D02*
X15446253Y-9719531D01*
X15446253Y-9719531D02*
X15455777Y-9738579D01*
X15455777Y-9738579D02*
X15465301Y-9776674D01*
X15465301Y-9776674D02*
X15465301Y-9824293D01*
X15465301Y-9824293D02*
X15455777Y-9862389D01*
X15455777Y-9862389D02*
X15446253Y-9881436D01*
X15446253Y-9881436D02*
X15436729Y-9890960D01*
X15436729Y-9890960D02*
X15417682Y-9900484D01*
X15417682Y-9900484D02*
X15398634Y-9900484D01*
X15398634Y-9900484D02*
X15379586Y-9890960D01*
X15379586Y-9890960D02*
X15370063Y-9881436D01*
X15370063Y-9881436D02*
X15360539Y-9862389D01*
X15360539Y-9862389D02*
X15351015Y-9824293D01*
X15351015Y-9824293D02*
X15351015Y-9776674D01*
X15351015Y-9776674D02*
X15360539Y-9738579D01*
X15360539Y-9738579D02*
X15370063Y-9719531D01*
X15370063Y-9719531D02*
X15379586Y-9710008D01*
X15379586Y-9710008D02*
X15398634Y-9700484D01*
X15551015Y-9881436D02*
X15560539Y-9890960D01*
X15560539Y-9890960D02*
X15551015Y-9900484D01*
X15551015Y-9900484D02*
X15541491Y-9890960D01*
X15541491Y-9890960D02*
X15551015Y-9881436D01*
X15551015Y-9881436D02*
X15551015Y-9900484D01*
X15684348Y-9700484D02*
X15703396Y-9700484D01*
X15703396Y-9700484D02*
X15722444Y-9710008D01*
X15722444Y-9710008D02*
X15731967Y-9719531D01*
X15731967Y-9719531D02*
X15741491Y-9738579D01*
X15741491Y-9738579D02*
X15751015Y-9776674D01*
X15751015Y-9776674D02*
X15751015Y-9824293D01*
X15751015Y-9824293D02*
X15741491Y-9862389D01*
X15741491Y-9862389D02*
X15731967Y-9881436D01*
X15731967Y-9881436D02*
X15722444Y-9890960D01*
X15722444Y-9890960D02*
X15703396Y-9900484D01*
X15703396Y-9900484D02*
X15684348Y-9900484D01*
X15684348Y-9900484D02*
X15665301Y-9890960D01*
X15665301Y-9890960D02*
X15655777Y-9881436D01*
X15655777Y-9881436D02*
X15646253Y-9862389D01*
X15646253Y-9862389D02*
X15636729Y-9824293D01*
X15636729Y-9824293D02*
X15636729Y-9776674D01*
X15636729Y-9776674D02*
X15646253Y-9738579D01*
X15646253Y-9738579D02*
X15655777Y-9719531D01*
X15655777Y-9719531D02*
X15665301Y-9710008D01*
X15665301Y-9710008D02*
X15684348Y-9700484D01*
X15817682Y-9700484D02*
X15941491Y-9700484D01*
X15941491Y-9700484D02*
X15874825Y-9776674D01*
X15874825Y-9776674D02*
X15903396Y-9776674D01*
X15903396Y-9776674D02*
X15922444Y-9786198D01*
X15922444Y-9786198D02*
X15931967Y-9795722D01*
X15931967Y-9795722D02*
X15941491Y-9814770D01*
X15941491Y-9814770D02*
X15941491Y-9862389D01*
X15941491Y-9862389D02*
X15931967Y-9881436D01*
X15931967Y-9881436D02*
X15922444Y-9890960D01*
X15922444Y-9890960D02*
X15903396Y-9900484D01*
X15903396Y-9900484D02*
X15846253Y-9900484D01*
X15846253Y-9900484D02*
X15827206Y-9890960D01*
X15827206Y-9890960D02*
X15817682Y-9881436D01*
X16036729Y-9900484D02*
X16074825Y-9900484D01*
X16074825Y-9900484D02*
X16093872Y-9890960D01*
X16093872Y-9890960D02*
X16103396Y-9881436D01*
X16103396Y-9881436D02*
X16122444Y-9852865D01*
X16122444Y-9852865D02*
X16131967Y-9814770D01*
X16131967Y-9814770D02*
X16131967Y-9738579D01*
X16131967Y-9738579D02*
X16122444Y-9719531D01*
X16122444Y-9719531D02*
X16112920Y-9710008D01*
X16112920Y-9710008D02*
X16093872Y-9700484D01*
X16093872Y-9700484D02*
X16055777Y-9700484D01*
X16055777Y-9700484D02*
X16036729Y-9710008D01*
X16036729Y-9710008D02*
X16027206Y-9719531D01*
X16027206Y-9719531D02*
X16017682Y-9738579D01*
X16017682Y-9738579D02*
X16017682Y-9786198D01*
X16017682Y-9786198D02*
X16027206Y-9805246D01*
X16027206Y-9805246D02*
X16036729Y-9814770D01*
X16036729Y-9814770D02*
X16055777Y-9824293D01*
X16055777Y-9824293D02*
X16093872Y-9824293D01*
X16093872Y-9824293D02*
X16112920Y-9814770D01*
X16112920Y-9814770D02*
X16122444Y-9805246D01*
X16122444Y-9805246D02*
X16131967Y-9786198D01*
X16303396Y-9767150D02*
X16303396Y-9900484D01*
X16255777Y-9690960D02*
X16208158Y-9833817D01*
X16208158Y-9833817D02*
X16331967Y-9833817D01*
X16398634Y-9700484D02*
X16398634Y-9738579D01*
X16474825Y-9700484D02*
X16474825Y-9738579D01*
X16770063Y-9976674D02*
X16760539Y-9967150D01*
X16760539Y-9967150D02*
X16741491Y-9938579D01*
X16741491Y-9938579D02*
X16731968Y-9919531D01*
X16731968Y-9919531D02*
X16722444Y-9890960D01*
X16722444Y-9890960D02*
X16712920Y-9843341D01*
X16712920Y-9843341D02*
X16712920Y-9805246D01*
X16712920Y-9805246D02*
X16722444Y-9757627D01*
X16722444Y-9757627D02*
X16731968Y-9729055D01*
X16731968Y-9729055D02*
X16741491Y-9710008D01*
X16741491Y-9710008D02*
X16760539Y-9681436D01*
X16760539Y-9681436D02*
X16770063Y-9671912D01*
X16827206Y-9700484D02*
X16951015Y-9700484D01*
X16951015Y-9700484D02*
X16884349Y-9776674D01*
X16884349Y-9776674D02*
X16912920Y-9776674D01*
X16912920Y-9776674D02*
X16931968Y-9786198D01*
X16931968Y-9786198D02*
X16941491Y-9795722D01*
X16941491Y-9795722D02*
X16951015Y-9814770D01*
X16951015Y-9814770D02*
X16951015Y-9862389D01*
X16951015Y-9862389D02*
X16941491Y-9881436D01*
X16941491Y-9881436D02*
X16931968Y-9890960D01*
X16931968Y-9890960D02*
X16912920Y-9900484D01*
X16912920Y-9900484D02*
X16855777Y-9900484D01*
X16855777Y-9900484D02*
X16836730Y-9890960D01*
X16836730Y-9890960D02*
X16827206Y-9881436D01*
X17122444Y-9700484D02*
X17084349Y-9700484D01*
X17084349Y-9700484D02*
X17065301Y-9710008D01*
X17065301Y-9710008D02*
X17055777Y-9719531D01*
X17055777Y-9719531D02*
X17036730Y-9748103D01*
X17036730Y-9748103D02*
X17027206Y-9786198D01*
X17027206Y-9786198D02*
X17027206Y-9862389D01*
X17027206Y-9862389D02*
X17036730Y-9881436D01*
X17036730Y-9881436D02*
X17046253Y-9890960D01*
X17046253Y-9890960D02*
X17065301Y-9900484D01*
X17065301Y-9900484D02*
X17103396Y-9900484D01*
X17103396Y-9900484D02*
X17122444Y-9890960D01*
X17122444Y-9890960D02*
X17131968Y-9881436D01*
X17131968Y-9881436D02*
X17141491Y-9862389D01*
X17141491Y-9862389D02*
X17141491Y-9814770D01*
X17141491Y-9814770D02*
X17131968Y-9795722D01*
X17131968Y-9795722D02*
X17122444Y-9786198D01*
X17122444Y-9786198D02*
X17103396Y-9776674D01*
X17103396Y-9776674D02*
X17065301Y-9776674D01*
X17065301Y-9776674D02*
X17046253Y-9786198D01*
X17046253Y-9786198D02*
X17036730Y-9795722D01*
X17036730Y-9795722D02*
X17027206Y-9814770D01*
X17379587Y-9900484D02*
X17379587Y-9700484D01*
X17465301Y-9900484D02*
X17465301Y-9795722D01*
X17465301Y-9795722D02*
X17455777Y-9776674D01*
X17455777Y-9776674D02*
X17436730Y-9767150D01*
X17436730Y-9767150D02*
X17408158Y-9767150D01*
X17408158Y-9767150D02*
X17389111Y-9776674D01*
X17389111Y-9776674D02*
X17379587Y-9786198D01*
X17589111Y-9900484D02*
X17570063Y-9890960D01*
X17570063Y-9890960D02*
X17560539Y-9881436D01*
X17560539Y-9881436D02*
X17551015Y-9862389D01*
X17551015Y-9862389D02*
X17551015Y-9805246D01*
X17551015Y-9805246D02*
X17560539Y-9786198D01*
X17560539Y-9786198D02*
X17570063Y-9776674D01*
X17570063Y-9776674D02*
X17589111Y-9767150D01*
X17589111Y-9767150D02*
X17617682Y-9767150D01*
X17617682Y-9767150D02*
X17636730Y-9776674D01*
X17636730Y-9776674D02*
X17646253Y-9786198D01*
X17646253Y-9786198D02*
X17655777Y-9805246D01*
X17655777Y-9805246D02*
X17655777Y-9862389D01*
X17655777Y-9862389D02*
X17646253Y-9881436D01*
X17646253Y-9881436D02*
X17636730Y-9890960D01*
X17636730Y-9890960D02*
X17617682Y-9900484D01*
X17617682Y-9900484D02*
X17589111Y-9900484D01*
X17770063Y-9900484D02*
X17751015Y-9890960D01*
X17751015Y-9890960D02*
X17741492Y-9871912D01*
X17741492Y-9871912D02*
X17741492Y-9700484D01*
X17922444Y-9890960D02*
X17903396Y-9900484D01*
X17903396Y-9900484D02*
X17865301Y-9900484D01*
X17865301Y-9900484D02*
X17846253Y-9890960D01*
X17846253Y-9890960D02*
X17836730Y-9871912D01*
X17836730Y-9871912D02*
X17836730Y-9795722D01*
X17836730Y-9795722D02*
X17846253Y-9776674D01*
X17846253Y-9776674D02*
X17865301Y-9767150D01*
X17865301Y-9767150D02*
X17903396Y-9767150D01*
X17903396Y-9767150D02*
X17922444Y-9776674D01*
X17922444Y-9776674D02*
X17931968Y-9795722D01*
X17931968Y-9795722D02*
X17931968Y-9814770D01*
X17931968Y-9814770D02*
X17836730Y-9833817D01*
X18008158Y-9890960D02*
X18027206Y-9900484D01*
X18027206Y-9900484D02*
X18065301Y-9900484D01*
X18065301Y-9900484D02*
X18084349Y-9890960D01*
X18084349Y-9890960D02*
X18093873Y-9871912D01*
X18093873Y-9871912D02*
X18093873Y-9862389D01*
X18093873Y-9862389D02*
X18084349Y-9843341D01*
X18084349Y-9843341D02*
X18065301Y-9833817D01*
X18065301Y-9833817D02*
X18036730Y-9833817D01*
X18036730Y-9833817D02*
X18017682Y-9824293D01*
X18017682Y-9824293D02*
X18008158Y-9805246D01*
X18008158Y-9805246D02*
X18008158Y-9795722D01*
X18008158Y-9795722D02*
X18017682Y-9776674D01*
X18017682Y-9776674D02*
X18036730Y-9767150D01*
X18036730Y-9767150D02*
X18065301Y-9767150D01*
X18065301Y-9767150D02*
X18084349Y-9776674D01*
X18160539Y-9976674D02*
X18170063Y-9967150D01*
X18170063Y-9967150D02*
X18189111Y-9938579D01*
X18189111Y-9938579D02*
X18198634Y-9919531D01*
X18198634Y-9919531D02*
X18208158Y-9890960D01*
X18208158Y-9890960D02*
X18217682Y-9843341D01*
X18217682Y-9843341D02*
X18217682Y-9805246D01*
X18217682Y-9805246D02*
X18208158Y-9757627D01*
X18208158Y-9757627D02*
X18198634Y-9729055D01*
X18198634Y-9729055D02*
X18189111Y-9710008D01*
X18189111Y-9710008D02*
X18170063Y-9681436D01*
X18170063Y-9681436D02*
X18160539Y-9671912D01*
M02*
