G04 #@! TF.GenerationSoftware,KiCad,Pcbnew,9.0.5*
G04 #@! TF.CreationDate,2025-10-13T16:35:57+02:00*
G04 #@! TF.ProjectId,rec_play_switch_mount,7265635f-706c-4617-995f-737769746368,rev?*
G04 #@! TF.SameCoordinates,Original*
G04 #@! TF.FileFunction,Copper,L2,Inr*
G04 #@! TF.FilePolarity,Positive*
%FSLAX46Y46*%
G04 Gerber Fmt 4.6, Leading zero omitted, Abs format (unit mm)*
G04 Created by KiCad (PCBNEW 9.0.5) date 2025-10-13 16:35:57*
%MOMM*%
%LPD*%
G01*
G04 APERTURE LIST*
G04 #@! TA.AperFunction,ComponentPad*
%ADD10R,1.000000X1.000000*%
G04 #@! TD*
G04 #@! TA.AperFunction,ComponentPad*
%ADD11C,1.000000*%
G04 #@! TD*
G04 #@! TA.AperFunction,ComponentPad*
%ADD12C,1.700000*%
G04 #@! TD*
G04 #@! TA.AperFunction,ComponentPad*
%ADD13R,1.700000X1.700000*%
G04 #@! TD*
G04 #@! TA.AperFunction,Conductor*
%ADD14C,0.300000*%
G04 #@! TD*
G04 APERTURE END LIST*
D10*
X136255000Y-84900000D03*
D11*
X137525000Y-84900000D03*
X138795000Y-84900000D03*
X140065000Y-84900000D03*
X141335000Y-84900000D03*
X142605000Y-84900000D03*
X143875000Y-84900000D03*
X145145000Y-84900000D03*
X146415000Y-84900000D03*
X147685000Y-84900000D03*
X148955000Y-84900000D03*
X150225000Y-84900000D03*
X151495000Y-84900000D03*
X152765000Y-84900000D03*
X154035000Y-84900000D03*
X155305000Y-84900000D03*
X156575000Y-84900000D03*
X157845000Y-84900000D03*
X159115000Y-84900000D03*
X160385000Y-84900000D03*
X161655000Y-84900000D03*
X162925000Y-84900000D03*
X164195000Y-84900000D03*
X165465000Y-84900000D03*
D12*
X215800000Y-82400000D03*
X211800000Y-82400000D03*
X207800000Y-82400000D03*
X203800000Y-82400000D03*
X199800000Y-82400000D03*
X195800000Y-82400000D03*
X215800000Y-87415572D03*
X211800000Y-87400000D03*
X207800000Y-87400000D03*
X203800000Y-87400000D03*
X199800000Y-87400000D03*
D13*
X195800000Y-87400000D03*
D10*
X196469000Y-84900000D03*
D11*
X197739000Y-84900000D03*
X199009000Y-84900000D03*
X200279000Y-84900000D03*
X201549000Y-84900000D03*
X202819000Y-84900000D03*
X204089000Y-84900000D03*
X205359000Y-84900000D03*
X206629000Y-84900000D03*
X207899000Y-84900000D03*
X209169000Y-84900000D03*
X210439000Y-84900000D03*
D12*
X168600000Y-82400000D03*
X164600000Y-82400000D03*
X160600000Y-82400000D03*
X156600000Y-82400000D03*
X152600000Y-82400000D03*
X148600000Y-82400000D03*
X144600000Y-82400000D03*
X140600000Y-82400000D03*
X136600000Y-82400000D03*
X132600000Y-82400000D03*
X128600000Y-82400000D03*
X124600000Y-82400000D03*
X168600000Y-87427382D03*
X164600000Y-87427382D03*
X160600000Y-87427382D03*
X156600000Y-87427382D03*
X152600000Y-87427382D03*
X148600000Y-87427382D03*
X144600000Y-87427382D03*
X140600000Y-87427382D03*
X136600000Y-87400000D03*
X132600000Y-87400000D03*
X128600000Y-87400000D03*
D13*
X124600000Y-87400000D03*
D14*
X146415000Y-84900000D02*
X145564000Y-84049000D01*
X145564000Y-84049000D02*
X134249000Y-84049000D01*
X134249000Y-84049000D02*
X132600000Y-82400000D01*
X164195000Y-82805000D02*
X164600000Y-82400000D01*
X164195000Y-84900000D02*
X164195000Y-82805000D01*
X162925000Y-84900000D02*
X162025000Y-84000000D01*
X162025000Y-84000000D02*
X162025000Y-83825000D01*
X162025000Y-83825000D02*
X160600000Y-82400000D01*
X158249000Y-84049000D02*
X156600000Y-82400000D01*
X161655000Y-84900000D02*
X160804000Y-84049000D01*
X160804000Y-84049000D02*
X158249000Y-84049000D01*
X165465000Y-84900000D02*
X167965000Y-82400000D01*
X167965000Y-82400000D02*
X168600000Y-82400000D01*
X204118000Y-86199000D02*
X214583428Y-86199000D01*
X202819000Y-84900000D02*
X204118000Y-86199000D01*
X214583428Y-86199000D02*
X215800000Y-87415572D01*
M02*
