%TF.GenerationSoftware,KiCad,Pcbnew,9.0.5*%
%TF.CreationDate,2025-10-10T22:49:27+02:00*%
%TF.ProjectId,door_clutch,646f6f72-5f63-46c7-9574-63682e6b6963,rev?*%
%TF.SameCoordinates,Original*%
%TF.FileFunction,Drillmap*%
%TF.FilePolarity,Positive*%
%FSLAX45Y45*%
G04 Gerber Fmt 4.5, Leading zero omitted, Abs format (unit mm)*
G04 Created by KiCad (PCBNEW 9.0.5) date 2025-10-10 22:49:27*
%MOMM*%
%LPD*%
G01*
G04 APERTURE LIST*
%ADD10C,0.050000*%
%ADD11C,0.200000*%
G04 APERTURE END LIST*
D10*
X11210000Y-8410000D02*
X11210000Y-7710000D01*
X10210000Y-8410000D02*
X11210000Y-8410000D01*
X9310000Y-9010000D02*
X10210000Y-9010000D01*
X9310000Y-7710000D02*
X9310000Y-9010000D01*
X9310000Y-7710000D02*
X11210000Y-7710000D01*
X10210000Y-9010000D02*
X10210000Y-8410000D01*
D11*
X9568277Y-9323984D02*
X9568277Y-9123984D01*
X9568277Y-9123984D02*
X9615896Y-9123984D01*
X9615896Y-9123984D02*
X9644467Y-9133508D01*
X9644467Y-9133508D02*
X9663515Y-9152555D01*
X9663515Y-9152555D02*
X9673039Y-9171603D01*
X9673039Y-9171603D02*
X9682563Y-9209698D01*
X9682563Y-9209698D02*
X9682563Y-9238270D01*
X9682563Y-9238270D02*
X9673039Y-9276365D01*
X9673039Y-9276365D02*
X9663515Y-9295412D01*
X9663515Y-9295412D02*
X9644467Y-9314460D01*
X9644467Y-9314460D02*
X9615896Y-9323984D01*
X9615896Y-9323984D02*
X9568277Y-9323984D01*
X9768277Y-9323984D02*
X9768277Y-9190650D01*
X9768277Y-9228746D02*
X9777801Y-9209698D01*
X9777801Y-9209698D02*
X9787324Y-9200174D01*
X9787324Y-9200174D02*
X9806372Y-9190650D01*
X9806372Y-9190650D02*
X9825420Y-9190650D01*
X9892086Y-9323984D02*
X9892086Y-9190650D01*
X9892086Y-9123984D02*
X9882563Y-9133508D01*
X9882563Y-9133508D02*
X9892086Y-9143031D01*
X9892086Y-9143031D02*
X9901610Y-9133508D01*
X9901610Y-9133508D02*
X9892086Y-9123984D01*
X9892086Y-9123984D02*
X9892086Y-9143031D01*
X10015896Y-9323984D02*
X9996848Y-9314460D01*
X9996848Y-9314460D02*
X9987324Y-9295412D01*
X9987324Y-9295412D02*
X9987324Y-9123984D01*
X10120658Y-9323984D02*
X10101610Y-9314460D01*
X10101610Y-9314460D02*
X10092086Y-9295412D01*
X10092086Y-9295412D02*
X10092086Y-9123984D01*
X10349229Y-9323984D02*
X10349229Y-9123984D01*
X10349229Y-9123984D02*
X10415896Y-9266841D01*
X10415896Y-9266841D02*
X10482563Y-9123984D01*
X10482563Y-9123984D02*
X10482563Y-9323984D01*
X10663515Y-9323984D02*
X10663515Y-9219222D01*
X10663515Y-9219222D02*
X10653991Y-9200174D01*
X10653991Y-9200174D02*
X10634944Y-9190650D01*
X10634944Y-9190650D02*
X10596848Y-9190650D01*
X10596848Y-9190650D02*
X10577801Y-9200174D01*
X10663515Y-9314460D02*
X10644467Y-9323984D01*
X10644467Y-9323984D02*
X10596848Y-9323984D01*
X10596848Y-9323984D02*
X10577801Y-9314460D01*
X10577801Y-9314460D02*
X10568277Y-9295412D01*
X10568277Y-9295412D02*
X10568277Y-9276365D01*
X10568277Y-9276365D02*
X10577801Y-9257317D01*
X10577801Y-9257317D02*
X10596848Y-9247793D01*
X10596848Y-9247793D02*
X10644467Y-9247793D01*
X10644467Y-9247793D02*
X10663515Y-9238270D01*
X10758753Y-9190650D02*
X10758753Y-9390650D01*
X10758753Y-9200174D02*
X10777801Y-9190650D01*
X10777801Y-9190650D02*
X10815896Y-9190650D01*
X10815896Y-9190650D02*
X10834944Y-9200174D01*
X10834944Y-9200174D02*
X10844467Y-9209698D01*
X10844467Y-9209698D02*
X10853991Y-9228746D01*
X10853991Y-9228746D02*
X10853991Y-9285889D01*
X10853991Y-9285889D02*
X10844467Y-9304936D01*
X10844467Y-9304936D02*
X10834944Y-9314460D01*
X10834944Y-9314460D02*
X10815896Y-9323984D01*
X10815896Y-9323984D02*
X10777801Y-9323984D01*
X10777801Y-9323984D02*
X10758753Y-9314460D01*
X10939705Y-9304936D02*
X10949229Y-9314460D01*
X10949229Y-9314460D02*
X10939705Y-9323984D01*
X10939705Y-9323984D02*
X10930182Y-9314460D01*
X10930182Y-9314460D02*
X10939705Y-9304936D01*
X10939705Y-9304936D02*
X10939705Y-9323984D01*
X10939705Y-9200174D02*
X10949229Y-9209698D01*
X10949229Y-9209698D02*
X10939705Y-9219222D01*
X10939705Y-9219222D02*
X10930182Y-9209698D01*
X10930182Y-9209698D02*
X10939705Y-9200174D01*
X10939705Y-9200174D02*
X10939705Y-9219222D01*
M02*
