G04 #@! TF.GenerationSoftware,KiCad,Pcbnew,9.0.5*
G04 #@! TF.CreationDate,2025-10-26T18:04:17+01:00*
G04 #@! TF.ProjectId,rec_play_switch,7265635f-706c-4617-995f-737769746368,rev?*
G04 #@! TF.SameCoordinates,Original*
G04 #@! TF.FileFunction,Copper,L1,Top*
G04 #@! TF.FilePolarity,Positive*
%FSLAX46Y46*%
G04 Gerber Fmt 4.6, Leading zero omitted, Abs format (unit mm)*
G04 Created by KiCad (PCBNEW 9.0.5) date 2025-10-26 18:04:17*
%MOMM*%
%LPD*%
G01*
G04 APERTURE LIST*
G04 Aperture macros list*
%AMRoundRect*
0 Rectangle with rounded corners*
0 $1 Rounding radius*
0 $2 $3 $4 $5 $6 $7 $8 $9 X,Y pos of 4 corners*
0 Add a 4 corners polygon primitive as box body*
4,1,4,$2,$3,$4,$5,$6,$7,$8,$9,$2,$3,0*
0 Add four circle primitives for the rounded corners*
1,1,$1+$1,$2,$3*
1,1,$1+$1,$4,$5*
1,1,$1+$1,$6,$7*
1,1,$1+$1,$8,$9*
0 Add four rect primitives between the rounded corners*
20,1,$1+$1,$2,$3,$4,$5,0*
20,1,$1+$1,$4,$5,$6,$7,0*
20,1,$1+$1,$6,$7,$8,$9,0*
20,1,$1+$1,$8,$9,$2,$3,0*%
G04 Aperture macros list end*
G04 #@! TA.AperFunction,ComponentPad*
%ADD10R,1.700000X1.700000*%
G04 #@! TD*
G04 #@! TA.AperFunction,ComponentPad*
%ADD11C,1.700000*%
G04 #@! TD*
G04 #@! TA.AperFunction,ComponentPad*
%ADD12RoundRect,0.250000X0.750000X-0.600000X0.750000X0.600000X-0.750000X0.600000X-0.750000X-0.600000X0*%
G04 #@! TD*
G04 #@! TA.AperFunction,ComponentPad*
%ADD13O,2.000000X1.700000*%
G04 #@! TD*
G04 #@! TA.AperFunction,ComponentPad*
%ADD14RoundRect,0.250000X-0.550000X-0.550000X0.550000X-0.550000X0.550000X0.550000X-0.550000X0.550000X0*%
G04 #@! TD*
G04 #@! TA.AperFunction,ComponentPad*
%ADD15C,1.600000*%
G04 #@! TD*
G04 #@! TA.AperFunction,ComponentPad*
%ADD16RoundRect,0.250000X-0.550000X0.550000X-0.550000X-0.550000X0.550000X-0.550000X0.550000X0.550000X0*%
G04 #@! TD*
G04 #@! TA.AperFunction,ComponentPad*
%ADD17R,2.000000X1.905000*%
G04 #@! TD*
G04 #@! TA.AperFunction,ComponentPad*
%ADD18O,2.000000X1.905000*%
G04 #@! TD*
G04 #@! TA.AperFunction,ComponentPad*
%ADD19RoundRect,0.250000X0.550000X-0.550000X0.550000X0.550000X-0.550000X0.550000X-0.550000X-0.550000X0*%
G04 #@! TD*
G04 #@! TA.AperFunction,Conductor*
%ADD20C,0.300000*%
G04 #@! TD*
G04 APERTURE END LIST*
D10*
X220415672Y-76192672D03*
D11*
X217875672Y-76192672D03*
X215335672Y-76192672D03*
X212795672Y-76192672D03*
X212795672Y-81272672D03*
X215335672Y-81272672D03*
X217875672Y-81272672D03*
X220415672Y-81272672D03*
D12*
X71548000Y-79963000D03*
D13*
X71548000Y-77463000D03*
D12*
X116906172Y-79731172D03*
D13*
X116906172Y-77231172D03*
D14*
X80714000Y-76300000D03*
D15*
X80714000Y-78840000D03*
X80714000Y-81380000D03*
X88334000Y-81380000D03*
X88334000Y-78840000D03*
X88334000Y-76300000D03*
D16*
X78042000Y-74903000D03*
D15*
X78042000Y-82523000D03*
D11*
X256803172Y-76306172D03*
X252803172Y-76306172D03*
X248803172Y-76306172D03*
X244803172Y-76306172D03*
X240803172Y-76306172D03*
X236803172Y-76306172D03*
X256803172Y-81321744D03*
X252803172Y-81306172D03*
X248803172Y-81306172D03*
X244803172Y-81306172D03*
X240803172Y-81306172D03*
D10*
X236803172Y-81306172D03*
D15*
X102526545Y-75407326D03*
X92366545Y-75407326D03*
D17*
X108202000Y-81126000D03*
D18*
X108202000Y-78586000D03*
X108202000Y-76046000D03*
D14*
X122548863Y-79849827D03*
D15*
X125048863Y-79849827D03*
D11*
X209603172Y-76306172D03*
X205603172Y-76306172D03*
X201603172Y-76306172D03*
X197603172Y-76306172D03*
X193603172Y-76306172D03*
X189603172Y-76306172D03*
X185603172Y-76306172D03*
X181603172Y-76306172D03*
X177603172Y-76306172D03*
X173603172Y-76306172D03*
X169603172Y-76306172D03*
X165603172Y-76306172D03*
X209603172Y-81333554D03*
X205603172Y-81333554D03*
X201603172Y-81333554D03*
X197603172Y-81333554D03*
X193603172Y-81333554D03*
X189603172Y-81333554D03*
X185603172Y-81333554D03*
X181603172Y-81333554D03*
X177603172Y-81306172D03*
X173603172Y-81306172D03*
X169603172Y-81306172D03*
D10*
X165603172Y-81306172D03*
X131974672Y-81237672D03*
D11*
X134514672Y-81237672D03*
X137054672Y-81237672D03*
X139594672Y-81237672D03*
X139594672Y-76157672D03*
X137054672Y-76157672D03*
X134514672Y-76157672D03*
X131974672Y-76157672D03*
D15*
X128336172Y-76048172D03*
X128336172Y-81048172D03*
X92366545Y-78836326D03*
X102526545Y-78836326D03*
D10*
X161995672Y-76192672D03*
D11*
X159455672Y-76192672D03*
X156915672Y-76192672D03*
X154375672Y-76192672D03*
X154375672Y-81272672D03*
X156915672Y-81272672D03*
X159455672Y-81272672D03*
X161995672Y-81272672D03*
D15*
X102526545Y-82138326D03*
X92366545Y-82138326D03*
D10*
X226208672Y-81237672D03*
D11*
X228748672Y-81237672D03*
X231288672Y-81237672D03*
X233828672Y-81237672D03*
X233828672Y-76157672D03*
X231288672Y-76157672D03*
X228748672Y-76157672D03*
X226208672Y-76157672D03*
D10*
X150668172Y-76175172D03*
D11*
X148128172Y-76175172D03*
X145588172Y-76175172D03*
X143048172Y-76175172D03*
X143048172Y-81255172D03*
X145588172Y-81255172D03*
X148128172Y-81255172D03*
X150668172Y-81255172D03*
D19*
X111443000Y-82269000D03*
D15*
X111443000Y-74649000D03*
D10*
X267653000Y-76192672D03*
D11*
X265113000Y-76192672D03*
X262573000Y-76192672D03*
X260033000Y-76192672D03*
X260033000Y-81272672D03*
X262573000Y-81272672D03*
X265113000Y-81272672D03*
X267653000Y-81272672D03*
D20*
X240803172Y-76306172D02*
X242206344Y-74903000D01*
X242206344Y-74903000D02*
X261283328Y-74903000D01*
X261283328Y-74903000D02*
X262573000Y-76192672D01*
X244803172Y-76306172D02*
X246069172Y-77572172D01*
X246069172Y-77572172D02*
X263733500Y-77572172D01*
X263733500Y-77572172D02*
X265113000Y-76192672D01*
X156915672Y-77850672D02*
X156915672Y-76192672D01*
X191933511Y-77586172D02*
X190169513Y-79350172D01*
X190169513Y-79350172D02*
X158415172Y-79350172D01*
X193603172Y-76306172D02*
X192323172Y-77586172D01*
X158415172Y-79350172D02*
X156915672Y-77850672D01*
X192323172Y-77586172D02*
X191933511Y-77586172D01*
X158116672Y-76638672D02*
X158116672Y-75695201D01*
X187702172Y-78207172D02*
X159685172Y-78207172D01*
X158116672Y-75695201D02*
X157413143Y-74991672D01*
X157413143Y-74991672D02*
X155576672Y-74991672D01*
X189603172Y-76306172D02*
X187702172Y-78207172D01*
X155576672Y-74991672D02*
X154375672Y-76192672D01*
X159685172Y-78207172D02*
X158116672Y-76638672D01*
X139563201Y-74490672D02*
X138255672Y-75798201D01*
X138255672Y-80036672D02*
X137054672Y-81237672D01*
X167787672Y-74490672D02*
X139563201Y-74490672D01*
X169603172Y-76306172D02*
X167787672Y-74490672D01*
X138255672Y-75798201D02*
X138255672Y-80036672D01*
X207822172Y-78087172D02*
X192141033Y-78087172D01*
X160743172Y-79985172D02*
X159455672Y-81272672D01*
X192141033Y-78087172D02*
X190243034Y-79985172D01*
X209603172Y-76306172D02*
X207822172Y-78087172D01*
X190243034Y-79985172D02*
X160743172Y-79985172D01*
X236803172Y-81306172D02*
X233897172Y-81306172D01*
X233897172Y-81306172D02*
X233828672Y-81237672D01*
X240803172Y-81306172D02*
X239533672Y-80036672D01*
X239533672Y-80036672D02*
X232489672Y-80036672D01*
X232489672Y-80036672D02*
X231288672Y-81237672D01*
X244803172Y-81306172D02*
X242974172Y-79477172D01*
X242974172Y-79477172D02*
X230509172Y-79477172D01*
X230509172Y-79477172D02*
X228748672Y-81237672D01*
X246473172Y-78976172D02*
X236647172Y-78976172D01*
X236647172Y-78976172D02*
X233828672Y-76157672D01*
X248803172Y-81306172D02*
X246473172Y-78976172D01*
X197603172Y-81333554D02*
X199305172Y-79631554D01*
X199305172Y-79631554D02*
X214436790Y-79631554D01*
X214436790Y-79631554D02*
X217875672Y-76192672D01*
X202804172Y-80132554D02*
X211655554Y-80132554D01*
X211655554Y-80132554D02*
X212795672Y-81272672D01*
X201603172Y-81333554D02*
X202804172Y-80132554D01*
X189603172Y-81333554D02*
X192348554Y-78588172D01*
X210400172Y-78588172D02*
X212795672Y-76192672D01*
X192348554Y-78588172D02*
X210400172Y-78588172D01*
X212432172Y-79096172D02*
X215335672Y-76192672D01*
X193603172Y-81333554D02*
X195840554Y-79096172D01*
X195840554Y-79096172D02*
X212432172Y-79096172D01*
X71576000Y-79991000D02*
X101371871Y-79991000D01*
X101371871Y-79991000D02*
X102526545Y-78836326D01*
X71548000Y-79963000D02*
X71576000Y-79991000D01*
X79337000Y-77463000D02*
X80714000Y-78840000D01*
X71548000Y-77463000D02*
X79337000Y-77463000D01*
G04 #@! TA.AperFunction,Conductor*
G36*
X110868868Y-73273185D02*
G01*
X110914623Y-73325989D01*
X110924567Y-73395147D01*
X110895542Y-73458703D01*
X110858124Y-73487985D01*
X110761644Y-73537143D01*
X110717077Y-73569523D01*
X110717077Y-73569524D01*
X111396554Y-74249000D01*
X111390339Y-74249000D01*
X111288606Y-74276259D01*
X111197394Y-74328920D01*
X111122920Y-74403394D01*
X111070259Y-74494606D01*
X111043000Y-74596339D01*
X111043000Y-74602553D01*
X110363524Y-73923077D01*
X110363523Y-73923077D01*
X110331143Y-73967644D01*
X110238244Y-74149968D01*
X110175009Y-74344582D01*
X110143000Y-74546682D01*
X110143000Y-74751317D01*
X110175009Y-74953417D01*
X110238244Y-75148031D01*
X110331141Y-75330350D01*
X110331147Y-75330359D01*
X110363523Y-75374921D01*
X110363524Y-75374922D01*
X111043000Y-74695446D01*
X111043000Y-74701661D01*
X111070259Y-74803394D01*
X111122920Y-74894606D01*
X111197394Y-74969080D01*
X111288606Y-75021741D01*
X111390339Y-75049000D01*
X111396553Y-75049000D01*
X110717076Y-75728474D01*
X110761650Y-75760859D01*
X110943968Y-75853755D01*
X111138582Y-75916990D01*
X111340683Y-75949000D01*
X111545317Y-75949000D01*
X111747417Y-75916990D01*
X111942031Y-75853755D01*
X112124349Y-75760859D01*
X112168921Y-75728474D01*
X111489447Y-75049000D01*
X111495661Y-75049000D01*
X111597394Y-75021741D01*
X111688606Y-74969080D01*
X111763080Y-74894606D01*
X111815741Y-74803394D01*
X111843000Y-74701661D01*
X111843000Y-74695448D01*
X112522474Y-75374922D01*
X112522474Y-75374921D01*
X112554859Y-75330349D01*
X112647755Y-75148031D01*
X112703121Y-74977636D01*
X112703121Y-74977635D01*
X112710989Y-74953421D01*
X112710989Y-74953418D01*
X112743000Y-74751317D01*
X112743000Y-74546682D01*
X112710990Y-74344582D01*
X112647755Y-74149968D01*
X112554859Y-73967650D01*
X112522474Y-73923077D01*
X112522474Y-73923076D01*
X111843000Y-74602551D01*
X111843000Y-74596339D01*
X111815741Y-74494606D01*
X111763080Y-74403394D01*
X111688606Y-74328920D01*
X111597394Y-74276259D01*
X111495661Y-74249000D01*
X111489446Y-74249000D01*
X112168922Y-73569524D01*
X112168921Y-73569523D01*
X112124359Y-73537147D01*
X112124350Y-73537141D01*
X112027876Y-73487985D01*
X111977080Y-73440010D01*
X111960285Y-73372189D01*
X111982822Y-73306054D01*
X112037538Y-73262603D01*
X112084171Y-73253500D01*
X269306500Y-73253500D01*
X269373539Y-73273185D01*
X269419294Y-73325989D01*
X269430500Y-73377500D01*
X269430500Y-83795500D01*
X269410815Y-83862539D01*
X269358011Y-83908294D01*
X269306500Y-83919500D01*
X78682308Y-83919500D01*
X78615269Y-83899815D01*
X78569514Y-83847011D01*
X78559570Y-83777853D01*
X78588595Y-83714297D01*
X78626013Y-83685015D01*
X78723610Y-83635287D01*
X78814159Y-83569500D01*
X78889213Y-83514971D01*
X78889215Y-83514968D01*
X78889219Y-83514966D01*
X79033966Y-83370219D01*
X79033968Y-83370215D01*
X79033971Y-83370213D01*
X79120866Y-83250610D01*
X79154287Y-83204610D01*
X79247220Y-83022219D01*
X79310477Y-82827534D01*
X79342500Y-82625352D01*
X79342500Y-82420648D01*
X79313175Y-82235502D01*
X79310477Y-82218465D01*
X79277658Y-82117460D01*
X79247220Y-82023781D01*
X79247218Y-82023778D01*
X79247218Y-82023776D01*
X79197740Y-81926671D01*
X79154287Y-81841390D01*
X79142077Y-81824584D01*
X79033971Y-81675786D01*
X78889213Y-81531028D01*
X78723613Y-81410715D01*
X78723612Y-81410714D01*
X78723610Y-81410713D01*
X78666653Y-81381691D01*
X78541223Y-81317781D01*
X78346534Y-81254522D01*
X78163962Y-81225606D01*
X78144352Y-81222500D01*
X77939648Y-81222500D01*
X77920038Y-81225606D01*
X77737465Y-81254522D01*
X77542776Y-81317781D01*
X77360386Y-81410715D01*
X77194786Y-81531028D01*
X77050028Y-81675786D01*
X76929715Y-81841386D01*
X76836781Y-82023776D01*
X76773522Y-82218465D01*
X76741500Y-82420648D01*
X76741500Y-82625351D01*
X76773522Y-82827534D01*
X76836781Y-83022223D01*
X76929715Y-83204613D01*
X77050028Y-83370213D01*
X77194786Y-83514971D01*
X77360385Y-83635284D01*
X77360387Y-83635285D01*
X77360390Y-83635287D01*
X77457987Y-83685015D01*
X77508783Y-83732990D01*
X77525578Y-83800811D01*
X77503041Y-83866945D01*
X77448326Y-83910397D01*
X77401692Y-83919500D01*
X68621500Y-83919500D01*
X68554461Y-83899815D01*
X68508706Y-83847011D01*
X68497500Y-83795500D01*
X68497500Y-77356713D01*
X70047500Y-77356713D01*
X70047500Y-77569287D01*
X70051294Y-77593240D01*
X70076025Y-77749389D01*
X70080754Y-77779243D01*
X70132574Y-77938729D01*
X70146444Y-77981414D01*
X70242951Y-78170820D01*
X70367890Y-78342786D01*
X70506705Y-78481601D01*
X70540190Y-78542924D01*
X70535206Y-78612616D01*
X70493334Y-78668549D01*
X70484121Y-78674821D01*
X70329342Y-78770289D01*
X70205289Y-78894342D01*
X70113187Y-79043663D01*
X70113185Y-79043668D01*
X70100764Y-79081153D01*
X70058001Y-79210203D01*
X70058001Y-79210204D01*
X70058000Y-79210204D01*
X70047500Y-79312983D01*
X70047500Y-80613001D01*
X70047501Y-80613018D01*
X70058000Y-80715796D01*
X70058001Y-80715799D01*
X70113185Y-80882331D01*
X70113187Y-80882336D01*
X70125080Y-80901618D01*
X70205288Y-81031656D01*
X70329344Y-81155712D01*
X70478666Y-81247814D01*
X70645203Y-81302999D01*
X70747991Y-81313500D01*
X72348008Y-81313499D01*
X72450797Y-81302999D01*
X72617334Y-81247814D01*
X72766656Y-81155712D01*
X72890712Y-81031656D01*
X72982814Y-80882334D01*
X73034454Y-80726494D01*
X73074225Y-80669051D01*
X73138741Y-80642228D01*
X73152159Y-80641500D01*
X79428350Y-80641500D01*
X79495389Y-80661185D01*
X79541144Y-80713989D01*
X79551088Y-80783147D01*
X79538835Y-80821795D01*
X79508781Y-80880776D01*
X79445522Y-81075465D01*
X79413500Y-81277648D01*
X79413500Y-81482351D01*
X79445522Y-81684534D01*
X79508781Y-81879223D01*
X79558274Y-81976357D01*
X79601585Y-82061359D01*
X79601715Y-82061613D01*
X79722028Y-82227213D01*
X79866786Y-82371971D01*
X80011063Y-82476792D01*
X80032390Y-82492287D01*
X80148607Y-82551503D01*
X80214776Y-82585218D01*
X80214778Y-82585218D01*
X80214781Y-82585220D01*
X80260171Y-82599968D01*
X80409465Y-82648477D01*
X80461200Y-82656671D01*
X80611648Y-82680500D01*
X80611649Y-82680500D01*
X80816351Y-82680500D01*
X80816352Y-82680500D01*
X81018534Y-82648477D01*
X81213219Y-82585220D01*
X81395610Y-82492287D01*
X81494213Y-82420648D01*
X81561213Y-82371971D01*
X81561215Y-82371968D01*
X81561219Y-82371966D01*
X81705966Y-82227219D01*
X81705968Y-82227215D01*
X81705971Y-82227213D01*
X81772568Y-82135548D01*
X81826287Y-82061610D01*
X81919220Y-81879219D01*
X81982477Y-81684534D01*
X82014500Y-81482352D01*
X82014500Y-81277648D01*
X81994297Y-81150091D01*
X81982477Y-81075465D01*
X81943836Y-80956541D01*
X81919220Y-80880781D01*
X81919218Y-80880778D01*
X81919218Y-80880776D01*
X81889165Y-80821795D01*
X81876269Y-80753126D01*
X81902545Y-80688386D01*
X81959651Y-80648128D01*
X81999650Y-80641500D01*
X87048910Y-80641500D01*
X87115949Y-80661185D01*
X87161704Y-80713989D01*
X87171648Y-80783147D01*
X87159395Y-80821794D01*
X87129245Y-80880965D01*
X87066009Y-81075582D01*
X87034000Y-81277682D01*
X87034000Y-81482317D01*
X87066009Y-81684417D01*
X87129244Y-81879031D01*
X87222141Y-82061350D01*
X87222147Y-82061359D01*
X87254523Y-82105921D01*
X87254524Y-82105922D01*
X87934000Y-81426446D01*
X87934000Y-81432661D01*
X87961259Y-81534394D01*
X88013920Y-81625606D01*
X88088394Y-81700080D01*
X88179606Y-81752741D01*
X88281339Y-81780000D01*
X88287553Y-81780000D01*
X87608076Y-82459474D01*
X87652650Y-82491859D01*
X87834968Y-82584755D01*
X88029582Y-82647990D01*
X88231683Y-82680000D01*
X88436317Y-82680000D01*
X88638417Y-82647990D01*
X88833031Y-82584755D01*
X89015349Y-82491859D01*
X89059921Y-82459474D01*
X88380447Y-81780000D01*
X88386661Y-81780000D01*
X88488394Y-81752741D01*
X88579606Y-81700080D01*
X88654080Y-81625606D01*
X88706741Y-81534394D01*
X88734000Y-81432661D01*
X88734000Y-81426447D01*
X89413474Y-82105921D01*
X89445859Y-82061349D01*
X89538755Y-81879031D01*
X89601990Y-81684417D01*
X89634000Y-81482317D01*
X89634000Y-81277682D01*
X89601990Y-81075582D01*
X89538754Y-80880965D01*
X89508605Y-80821794D01*
X89495709Y-80753125D01*
X89521986Y-80688385D01*
X89579093Y-80648128D01*
X89619090Y-80641500D01*
X91981891Y-80641500D01*
X92048930Y-80661185D01*
X92094685Y-80713989D01*
X92104629Y-80783147D01*
X92075604Y-80846703D01*
X92020210Y-80883431D01*
X91867321Y-80933107D01*
X91684931Y-81026041D01*
X91519331Y-81146354D01*
X91374573Y-81291112D01*
X91254260Y-81456712D01*
X91161326Y-81639102D01*
X91098067Y-81833791D01*
X91070509Y-82007788D01*
X91066045Y-82035974D01*
X91066045Y-82240678D01*
X91068059Y-82253392D01*
X91098067Y-82442860D01*
X91161326Y-82637549D01*
X91254260Y-82819939D01*
X91374573Y-82985539D01*
X91519331Y-83130297D01*
X91674294Y-83242882D01*
X91684935Y-83250613D01*
X91801152Y-83309829D01*
X91867321Y-83343544D01*
X91867323Y-83343544D01*
X91867326Y-83343546D01*
X91949399Y-83370213D01*
X92062010Y-83406803D01*
X92163102Y-83422814D01*
X92264193Y-83438826D01*
X92264194Y-83438826D01*
X92468896Y-83438826D01*
X92468897Y-83438826D01*
X92671079Y-83406803D01*
X92865764Y-83343546D01*
X93048155Y-83250613D01*
X93141135Y-83183058D01*
X93213758Y-83130297D01*
X93213760Y-83130294D01*
X93213764Y-83130292D01*
X93358511Y-82985545D01*
X93358513Y-82985541D01*
X93358516Y-82985539D01*
X93443172Y-82869018D01*
X93478832Y-82819936D01*
X93571765Y-82637545D01*
X93635022Y-82442860D01*
X93667045Y-82240678D01*
X93667045Y-82035974D01*
X101226045Y-82035974D01*
X101226045Y-82240678D01*
X101228059Y-82253392D01*
X101258067Y-82442860D01*
X101321326Y-82637549D01*
X101414260Y-82819939D01*
X101534573Y-82985539D01*
X101679331Y-83130297D01*
X101834294Y-83242882D01*
X101844935Y-83250613D01*
X101961152Y-83309829D01*
X102027321Y-83343544D01*
X102027323Y-83343544D01*
X102027326Y-83343546D01*
X102109399Y-83370213D01*
X102222010Y-83406803D01*
X102323102Y-83422814D01*
X102424193Y-83438826D01*
X102424194Y-83438826D01*
X102628896Y-83438826D01*
X102628897Y-83438826D01*
X102831079Y-83406803D01*
X103025764Y-83343546D01*
X103208155Y-83250613D01*
X103301135Y-83183058D01*
X103373758Y-83130297D01*
X103373760Y-83130294D01*
X103373764Y-83130292D01*
X103518511Y-82985545D01*
X103518513Y-82985541D01*
X103518516Y-82985539D01*
X103603172Y-82869018D01*
X103638832Y-82819936D01*
X103731765Y-82637545D01*
X103795022Y-82442860D01*
X103827045Y-82240678D01*
X103827045Y-82035974D01*
X103815485Y-81962988D01*
X103795022Y-81833791D01*
X103745108Y-81680172D01*
X103731765Y-81639107D01*
X103731763Y-81639104D01*
X103731763Y-81639102D01*
X103678411Y-81534394D01*
X103638832Y-81456716D01*
X103597381Y-81399663D01*
X103518516Y-81291112D01*
X103373758Y-81146354D01*
X103208158Y-81026041D01*
X103208157Y-81026040D01*
X103208155Y-81026039D01*
X103145699Y-80994216D01*
X103025768Y-80933107D01*
X102831079Y-80869848D01*
X102653975Y-80841798D01*
X102628897Y-80837826D01*
X102424193Y-80837826D01*
X102399874Y-80841677D01*
X102222010Y-80869848D01*
X102027321Y-80933107D01*
X101844931Y-81026041D01*
X101679331Y-81146354D01*
X101534573Y-81291112D01*
X101414260Y-81456712D01*
X101321326Y-81639102D01*
X101258067Y-81833791D01*
X101230509Y-82007788D01*
X101226045Y-82035974D01*
X93667045Y-82035974D01*
X93655485Y-81962988D01*
X93635022Y-81833791D01*
X93585108Y-81680172D01*
X93571765Y-81639107D01*
X93571763Y-81639104D01*
X93571763Y-81639102D01*
X93518411Y-81534394D01*
X93478832Y-81456716D01*
X93437381Y-81399663D01*
X93358516Y-81291112D01*
X93213758Y-81146354D01*
X93048158Y-81026041D01*
X93048157Y-81026040D01*
X93048155Y-81026039D01*
X92985699Y-80994216D01*
X92865768Y-80933107D01*
X92712880Y-80883431D01*
X92655205Y-80843993D01*
X92628007Y-80779634D01*
X92639922Y-80710788D01*
X92687166Y-80659312D01*
X92751199Y-80641500D01*
X101435942Y-80641500D01*
X101547971Y-80619215D01*
X101561615Y-80616501D01*
X101679998Y-80567465D01*
X101696163Y-80556664D01*
X101700465Y-80553790D01*
X101736292Y-80529851D01*
X101786540Y-80496277D01*
X102139353Y-80143462D01*
X102200676Y-80109978D01*
X102246432Y-80108671D01*
X102424193Y-80136826D01*
X102424194Y-80136826D01*
X102628896Y-80136826D01*
X102628897Y-80136826D01*
X102831079Y-80104803D01*
X103025764Y-80041546D01*
X103208155Y-79948613D01*
X103336387Y-79855448D01*
X103373758Y-79828297D01*
X103373760Y-79828294D01*
X103373764Y-79828292D01*
X103518511Y-79683545D01*
X103518513Y-79683541D01*
X103518516Y-79683539D01*
X103618956Y-79545293D01*
X103638832Y-79517936D01*
X103731765Y-79335545D01*
X103795022Y-79140860D01*
X103827045Y-78938678D01*
X103827045Y-78733974D01*
X103808200Y-78614991D01*
X103795022Y-78531791D01*
X103736172Y-78350671D01*
X103731765Y-78337107D01*
X103731763Y-78337104D01*
X103731763Y-78337102D01*
X103682525Y-78240469D01*
X103638832Y-78154716D01*
X103608887Y-78113500D01*
X103518516Y-77989112D01*
X103373758Y-77844354D01*
X103208158Y-77724041D01*
X103208157Y-77724040D01*
X103208155Y-77724039D01*
X103122676Y-77680485D01*
X103025768Y-77631107D01*
X102831079Y-77567848D01*
X102656540Y-77540204D01*
X102628897Y-77535826D01*
X102424193Y-77535826D01*
X102409337Y-77538179D01*
X102222010Y-77567848D01*
X102027321Y-77631107D01*
X101844931Y-77724041D01*
X101679331Y-77844354D01*
X101534573Y-77989112D01*
X101414260Y-78154712D01*
X101321326Y-78337102D01*
X101258067Y-78531791D01*
X101226045Y-78733974D01*
X101226045Y-78938677D01*
X101254199Y-79116436D01*
X101253498Y-79121860D01*
X101255410Y-79126986D01*
X101249067Y-79156144D01*
X101245244Y-79185730D01*
X101241413Y-79191332D01*
X101240559Y-79195260D01*
X101219408Y-79223514D01*
X101138744Y-79304180D01*
X101077422Y-79337666D01*
X101051062Y-79340500D01*
X93740827Y-79340500D01*
X93673788Y-79320815D01*
X93628033Y-79268011D01*
X93618089Y-79198853D01*
X93622896Y-79178182D01*
X93635021Y-79140864D01*
X93635021Y-79140863D01*
X93635022Y-79140860D01*
X93667045Y-78938678D01*
X93667045Y-78733974D01*
X93648200Y-78614991D01*
X93635022Y-78531791D01*
X93576172Y-78350671D01*
X93571765Y-78337107D01*
X93571763Y-78337104D01*
X93571763Y-78337102D01*
X93522525Y-78240469D01*
X93478832Y-78154716D01*
X93448887Y-78113500D01*
X93358516Y-77989112D01*
X93213758Y-77844354D01*
X93048158Y-77724041D01*
X93048157Y-77724040D01*
X93048155Y-77724039D01*
X92962676Y-77680485D01*
X92865768Y-77631107D01*
X92671079Y-77567848D01*
X92496540Y-77540204D01*
X92468897Y-77535826D01*
X92264193Y-77535826D01*
X92249337Y-77538179D01*
X92062010Y-77567848D01*
X91867321Y-77631107D01*
X91684931Y-77724041D01*
X91519331Y-77844354D01*
X91374573Y-77989112D01*
X91254260Y-78154712D01*
X91161326Y-78337102D01*
X91098067Y-78531791D01*
X91071927Y-78696838D01*
X91066045Y-78733974D01*
X91066045Y-78938678D01*
X91079730Y-79025083D01*
X91098068Y-79140861D01*
X91098068Y-79140864D01*
X91110194Y-79178182D01*
X91112189Y-79248023D01*
X91076109Y-79307856D01*
X91013408Y-79338684D01*
X90992263Y-79340500D01*
X89709476Y-79340500D01*
X89642437Y-79320815D01*
X89596682Y-79268011D01*
X89586738Y-79198853D01*
X89591545Y-79178183D01*
X89602475Y-79144542D01*
X89602475Y-79144538D01*
X89602477Y-79144534D01*
X89634500Y-78942352D01*
X89634500Y-78737648D01*
X89625082Y-78678186D01*
X89602477Y-78535465D01*
X89555464Y-78390775D01*
X89539220Y-78340781D01*
X89539218Y-78340778D01*
X89539218Y-78340776D01*
X89488108Y-78240469D01*
X89446287Y-78158390D01*
X89411592Y-78110636D01*
X89325971Y-77992786D01*
X89181213Y-77848028D01*
X89015614Y-77727715D01*
X88982736Y-77710963D01*
X88922917Y-77680483D01*
X88872123Y-77632511D01*
X88855328Y-77564690D01*
X88877865Y-77498555D01*
X88922917Y-77459516D01*
X89015610Y-77412287D01*
X89086218Y-77360988D01*
X89181213Y-77291971D01*
X89181215Y-77291968D01*
X89181219Y-77291966D01*
X89325966Y-77147219D01*
X89325968Y-77147215D01*
X89325971Y-77147213D01*
X89390601Y-77058256D01*
X89446287Y-76981610D01*
X89539220Y-76799219D01*
X89602477Y-76604534D01*
X89634500Y-76402352D01*
X89634500Y-76197648D01*
X89617282Y-76088939D01*
X89602477Y-75995465D01*
X89565341Y-75881172D01*
X89539220Y-75800781D01*
X89539218Y-75800778D01*
X89539218Y-75800776D01*
X89490801Y-75705753D01*
X89446287Y-75618390D01*
X89404900Y-75561425D01*
X89325971Y-75452786D01*
X89181213Y-75308028D01*
X89177009Y-75304974D01*
X91066045Y-75304974D01*
X91066045Y-75509678D01*
X91068663Y-75526208D01*
X91098067Y-75711860D01*
X91161326Y-75906549D01*
X91225236Y-76031979D01*
X91252958Y-76086385D01*
X91254260Y-76088939D01*
X91374573Y-76254539D01*
X91519331Y-76399297D01*
X91628921Y-76478917D01*
X91684935Y-76519613D01*
X91796690Y-76576555D01*
X91867321Y-76612544D01*
X91867323Y-76612544D01*
X91867326Y-76612546D01*
X91927421Y-76632072D01*
X92062010Y-76675803D01*
X92111194Y-76683593D01*
X92264193Y-76707826D01*
X92264194Y-76707826D01*
X92468896Y-76707826D01*
X92468897Y-76707826D01*
X92671079Y-76675803D01*
X92865764Y-76612546D01*
X93048155Y-76519613D01*
X93167520Y-76432890D01*
X93213758Y-76399297D01*
X93213760Y-76399294D01*
X93213764Y-76399292D01*
X93358511Y-76254545D01*
X93358513Y-76254541D01*
X93358516Y-76254539D01*
X93428893Y-76157672D01*
X93478832Y-76088936D01*
X93571765Y-75906545D01*
X93635022Y-75711860D01*
X93667045Y-75509678D01*
X93667045Y-75304974D01*
X101226045Y-75304974D01*
X101226045Y-75509678D01*
X101228663Y-75526208D01*
X101258067Y-75711860D01*
X101321326Y-75906549D01*
X101385236Y-76031979D01*
X101412958Y-76086385D01*
X101414260Y-76088939D01*
X101534573Y-76254539D01*
X101679331Y-76399297D01*
X101788921Y-76478917D01*
X101844935Y-76519613D01*
X101956690Y-76576555D01*
X102027321Y-76612544D01*
X102027323Y-76612544D01*
X102027326Y-76612546D01*
X102087421Y-76632072D01*
X102222010Y-76675803D01*
X102271194Y-76683593D01*
X102424193Y-76707826D01*
X102424194Y-76707826D01*
X102628896Y-76707826D01*
X102628897Y-76707826D01*
X102831079Y-76675803D01*
X103025764Y-76612546D01*
X103208155Y-76519613D01*
X103327520Y-76432890D01*
X103373758Y-76399297D01*
X103373760Y-76399294D01*
X103373764Y-76399292D01*
X103518511Y-76254545D01*
X103518513Y-76254541D01*
X103518516Y-76254539D01*
X103588893Y-76157672D01*
X103638832Y-76088936D01*
X103718975Y-75931646D01*
X106701500Y-75931646D01*
X106701500Y-76160354D01*
X106708334Y-76203499D01*
X106737278Y-76386246D01*
X106737278Y-76386249D01*
X106807950Y-76603755D01*
X106878072Y-76741377D01*
X106911783Y-76807538D01*
X107046214Y-76992566D01*
X107207934Y-77154286D01*
X107246561Y-77182350D01*
X107292438Y-77215682D01*
X107335103Y-77271013D01*
X107341082Y-77340626D01*
X107308476Y-77402421D01*
X107292438Y-77416318D01*
X107207932Y-77477715D01*
X107046216Y-77639431D01*
X107046216Y-77639432D01*
X107046214Y-77639434D01*
X107033690Y-77656672D01*
X106911783Y-77824461D01*
X106807950Y-78028244D01*
X106737278Y-78245750D01*
X106737278Y-78245753D01*
X106701500Y-78471646D01*
X106701500Y-78700353D01*
X106737278Y-78926246D01*
X106737278Y-78926249D01*
X106807950Y-79143755D01*
X106861078Y-79248024D01*
X106911783Y-79347538D01*
X107044525Y-79530242D01*
X107068005Y-79596046D01*
X107052180Y-79664100D01*
X107002074Y-79712795D01*
X106987541Y-79719308D01*
X106959670Y-79729703D01*
X106959664Y-79729706D01*
X106844455Y-79815952D01*
X106844452Y-79815955D01*
X106758206Y-79931164D01*
X106758202Y-79931171D01*
X106707908Y-80066017D01*
X106702315Y-80118047D01*
X106701501Y-80125623D01*
X106701500Y-80125635D01*
X106701500Y-82126370D01*
X106701501Y-82126376D01*
X106707908Y-82185983D01*
X106758202Y-82320828D01*
X106758206Y-82320835D01*
X106844452Y-82436044D01*
X106844455Y-82436047D01*
X106959664Y-82522293D01*
X106959671Y-82522297D01*
X107094517Y-82572591D01*
X107094516Y-82572591D01*
X107101102Y-82573299D01*
X107154127Y-82579000D01*
X109249872Y-82578999D01*
X109309483Y-82572591D01*
X109444331Y-82522296D01*
X109559546Y-82436046D01*
X109645796Y-82320831D01*
X109696091Y-82185983D01*
X109702500Y-82126373D01*
X109702500Y-81668983D01*
X110142500Y-81668983D01*
X110142500Y-82869001D01*
X110142501Y-82869018D01*
X110153000Y-82971796D01*
X110153001Y-82971799D01*
X110205521Y-83130292D01*
X110208186Y-83138334D01*
X110300288Y-83287656D01*
X110424344Y-83411712D01*
X110573666Y-83503814D01*
X110740203Y-83558999D01*
X110842991Y-83569500D01*
X112043008Y-83569499D01*
X112145797Y-83558999D01*
X112312334Y-83503814D01*
X112461656Y-83411712D01*
X112585712Y-83287656D01*
X112677814Y-83138334D01*
X112732999Y-82971797D01*
X112743500Y-82869009D01*
X112743499Y-81668992D01*
X112743176Y-81665834D01*
X112732999Y-81566203D01*
X112732998Y-81566200D01*
X112726765Y-81547391D01*
X112677814Y-81399666D01*
X112585712Y-81250344D01*
X112461656Y-81126288D01*
X112312334Y-81034186D01*
X112145797Y-80979001D01*
X112145795Y-80979000D01*
X112043010Y-80968500D01*
X110842998Y-80968500D01*
X110842981Y-80968501D01*
X110740203Y-80979000D01*
X110740200Y-80979001D01*
X110573668Y-81034185D01*
X110573663Y-81034187D01*
X110424342Y-81126289D01*
X110300289Y-81250342D01*
X110208187Y-81399663D01*
X110208185Y-81399668D01*
X110194873Y-81439841D01*
X110153001Y-81566203D01*
X110153001Y-81566204D01*
X110153000Y-81566204D01*
X110142500Y-81668983D01*
X109702500Y-81668983D01*
X109702499Y-81118304D01*
X109702499Y-80125629D01*
X109702498Y-80125623D01*
X109702497Y-80125616D01*
X109696091Y-80066017D01*
X109692429Y-80056200D01*
X109645797Y-79931171D01*
X109645793Y-79931164D01*
X109559547Y-79815955D01*
X109559544Y-79815952D01*
X109444335Y-79729706D01*
X109444328Y-79729702D01*
X109416459Y-79719308D01*
X109360525Y-79677437D01*
X109336108Y-79611973D01*
X109350960Y-79543700D01*
X109359460Y-79530260D01*
X109492217Y-79347538D01*
X109596048Y-79143758D01*
X109603163Y-79121860D01*
X109616389Y-79081155D01*
X115405672Y-79081155D01*
X115405672Y-80381173D01*
X115405673Y-80381190D01*
X115416172Y-80483968D01*
X115416173Y-80483971D01*
X115471357Y-80650503D01*
X115471359Y-80650508D01*
X115500893Y-80698390D01*
X115563460Y-80799828D01*
X115687516Y-80923884D01*
X115836838Y-81015986D01*
X116003375Y-81071171D01*
X116106163Y-81081672D01*
X117706180Y-81081671D01*
X117808969Y-81071171D01*
X117975506Y-81015986D01*
X118124828Y-80923884D01*
X118248884Y-80799828D01*
X118340986Y-80650506D01*
X118396171Y-80483969D01*
X118406672Y-80381181D01*
X118406671Y-79729706D01*
X118406671Y-79249840D01*
X121248863Y-79249840D01*
X121248863Y-79599827D01*
X122233177Y-79599827D01*
X122228783Y-79604221D01*
X122176122Y-79695433D01*
X122148863Y-79797166D01*
X122148863Y-79902488D01*
X122176122Y-80004221D01*
X122228783Y-80095433D01*
X122233177Y-80099827D01*
X121248864Y-80099827D01*
X121248864Y-80449813D01*
X121259357Y-80552524D01*
X121314504Y-80718946D01*
X121314506Y-80718951D01*
X121406547Y-80868172D01*
X121530517Y-80992142D01*
X121679738Y-81084183D01*
X121679743Y-81084185D01*
X121846165Y-81139332D01*
X121846172Y-81139333D01*
X121948882Y-81149826D01*
X122298862Y-81149826D01*
X122298863Y-81149825D01*
X122298863Y-80165513D01*
X122303257Y-80169907D01*
X122394469Y-80222568D01*
X122496202Y-80249827D01*
X122601524Y-80249827D01*
X122703257Y-80222568D01*
X122794469Y-80169907D01*
X122798863Y-80165513D01*
X122798863Y-81149826D01*
X123148835Y-81149826D01*
X123148849Y-81149825D01*
X123251560Y-81139332D01*
X123417982Y-81084185D01*
X123417987Y-81084183D01*
X123567208Y-80992142D01*
X123691178Y-80868172D01*
X123783219Y-80718951D01*
X123783222Y-80718944D01*
X123797926Y-80674570D01*
X123837698Y-80617125D01*
X123902213Y-80590301D01*
X123970989Y-80602615D01*
X124015950Y-80640687D01*
X124029482Y-80659312D01*
X124056897Y-80697046D01*
X124201649Y-80841798D01*
X124344209Y-80945372D01*
X124367253Y-80962114D01*
X124465627Y-81012238D01*
X124549639Y-81055045D01*
X124549641Y-81055045D01*
X124549644Y-81055047D01*
X124639322Y-81084185D01*
X124744328Y-81118304D01*
X124794737Y-81126288D01*
X124946511Y-81150327D01*
X124946512Y-81150327D01*
X125151214Y-81150327D01*
X125151215Y-81150327D01*
X125353397Y-81118304D01*
X125548082Y-81055047D01*
X125730473Y-80962114D01*
X125752900Y-80945820D01*
X127035672Y-80945820D01*
X127035672Y-81150524D01*
X127036494Y-81155712D01*
X127067694Y-81352706D01*
X127130953Y-81547395D01*
X127223887Y-81729785D01*
X127344200Y-81895385D01*
X127488958Y-82040143D01*
X127630058Y-82142656D01*
X127654562Y-82160459D01*
X127768405Y-82218465D01*
X127836948Y-82253390D01*
X127836950Y-82253390D01*
X127836953Y-82253392D01*
X127881238Y-82267781D01*
X128031637Y-82316649D01*
X128115950Y-82330003D01*
X128233820Y-82348672D01*
X128233821Y-82348672D01*
X128438523Y-82348672D01*
X128438524Y-82348672D01*
X128640706Y-82316649D01*
X128835391Y-82253392D01*
X129017782Y-82160459D01*
X129153833Y-82061613D01*
X129183385Y-82040143D01*
X129183387Y-82040140D01*
X129183391Y-82040138D01*
X129328138Y-81895391D01*
X129328140Y-81895387D01*
X129328143Y-81895385D01*
X129403921Y-81791084D01*
X129448459Y-81729782D01*
X129541392Y-81547391D01*
X129604649Y-81352706D01*
X129636672Y-81150524D01*
X129636672Y-80945820D01*
X129620196Y-80841794D01*
X129604649Y-80743637D01*
X129571699Y-80642228D01*
X129541392Y-80548953D01*
X129541390Y-80548950D01*
X129541390Y-80548948D01*
X129461814Y-80392773D01*
X129455911Y-80381188D01*
X129448459Y-80366562D01*
X129448457Y-80366559D01*
X129448456Y-80366557D01*
X129429021Y-80339807D01*
X130624172Y-80339807D01*
X130624172Y-82135542D01*
X130624173Y-82135548D01*
X130630580Y-82195155D01*
X130680874Y-82330000D01*
X130680878Y-82330007D01*
X130767124Y-82445216D01*
X130767127Y-82445219D01*
X130882336Y-82531465D01*
X130882343Y-82531469D01*
X131017189Y-82581763D01*
X131017188Y-82581763D01*
X131024116Y-82582507D01*
X131076799Y-82588172D01*
X132872544Y-82588171D01*
X132932155Y-82581763D01*
X133067003Y-82531468D01*
X133182218Y-82445218D01*
X133268468Y-82330003D01*
X133317482Y-82198588D01*
X133359353Y-82142656D01*
X133424817Y-82118238D01*
X133493090Y-82133089D01*
X133521345Y-82154241D01*
X133634885Y-82267781D01*
X133806851Y-82392720D01*
X133806853Y-82392721D01*
X133806856Y-82392723D01*
X133996260Y-82489229D01*
X134198429Y-82554918D01*
X134408385Y-82588172D01*
X134408386Y-82588172D01*
X134620958Y-82588172D01*
X134620959Y-82588172D01*
X134830915Y-82554918D01*
X135033084Y-82489229D01*
X135222488Y-82392723D01*
X135278748Y-82351848D01*
X135394458Y-82267781D01*
X135394460Y-82267778D01*
X135394464Y-82267776D01*
X135544776Y-82117464D01*
X135544778Y-82117460D01*
X135544781Y-82117458D01*
X135669720Y-81945492D01*
X135669719Y-81945492D01*
X135669723Y-81945488D01*
X135674186Y-81936726D01*
X135722160Y-81885931D01*
X135789980Y-81869135D01*
X135856116Y-81891671D01*
X135895158Y-81936728D01*
X135899623Y-81945492D01*
X136024562Y-82117458D01*
X136174885Y-82267781D01*
X136346851Y-82392720D01*
X136346853Y-82392721D01*
X136346856Y-82392723D01*
X136536260Y-82489229D01*
X136738429Y-82554918D01*
X136948385Y-82588172D01*
X136948386Y-82588172D01*
X137160958Y-82588172D01*
X137160959Y-82588172D01*
X137370915Y-82554918D01*
X137573084Y-82489229D01*
X137762488Y-82392723D01*
X137818748Y-82351848D01*
X137934458Y-82267781D01*
X137934460Y-82267778D01*
X137934464Y-82267776D01*
X138084776Y-82117464D01*
X138084778Y-82117460D01*
X138084781Y-82117458D01*
X138209720Y-81945492D01*
X138209719Y-81945492D01*
X138209723Y-81945488D01*
X138214186Y-81936726D01*
X138262160Y-81885931D01*
X138329980Y-81869135D01*
X138396116Y-81891671D01*
X138435158Y-81936728D01*
X138439623Y-81945492D01*
X138564562Y-82117458D01*
X138714885Y-82267781D01*
X138886851Y-82392720D01*
X138886853Y-82392721D01*
X138886856Y-82392723D01*
X139076260Y-82489229D01*
X139278429Y-82554918D01*
X139488385Y-82588172D01*
X139488386Y-82588172D01*
X139700958Y-82588172D01*
X139700959Y-82588172D01*
X139910915Y-82554918D01*
X140113084Y-82489229D01*
X140302488Y-82392723D01*
X140358748Y-82351848D01*
X140474458Y-82267781D01*
X140474460Y-82267778D01*
X140474464Y-82267776D01*
X140624776Y-82117464D01*
X140624778Y-82117460D01*
X140624781Y-82117458D01*
X140749720Y-81945492D01*
X140749719Y-81945492D01*
X140749723Y-81945488D01*
X140846229Y-81756084D01*
X140911918Y-81553915D01*
X140945172Y-81343959D01*
X140945172Y-81148885D01*
X141697672Y-81148885D01*
X141697672Y-81361459D01*
X141703724Y-81399668D01*
X141730907Y-81571299D01*
X141730926Y-81571415D01*
X141766263Y-81680172D01*
X141796616Y-81773586D01*
X141893123Y-81962992D01*
X142018062Y-82134958D01*
X142168385Y-82285281D01*
X142340351Y-82410220D01*
X142340353Y-82410221D01*
X142340356Y-82410223D01*
X142529760Y-82506729D01*
X142731929Y-82572418D01*
X142941885Y-82605672D01*
X142941886Y-82605672D01*
X143154458Y-82605672D01*
X143154459Y-82605672D01*
X143364415Y-82572418D01*
X143566584Y-82506729D01*
X143755988Y-82410223D01*
X143836335Y-82351848D01*
X143927958Y-82285281D01*
X143927960Y-82285278D01*
X143927964Y-82285276D01*
X144078276Y-82134964D01*
X144078278Y-82134960D01*
X144078281Y-82134958D01*
X144203220Y-81962992D01*
X144203219Y-81962992D01*
X144203223Y-81962988D01*
X144207686Y-81954226D01*
X144255660Y-81903431D01*
X144323480Y-81886635D01*
X144389616Y-81909171D01*
X144428658Y-81954228D01*
X144433123Y-81962992D01*
X144558062Y-82134958D01*
X144708385Y-82285281D01*
X144880351Y-82410220D01*
X144880353Y-82410221D01*
X144880356Y-82410223D01*
X145069760Y-82506729D01*
X145271929Y-82572418D01*
X145481885Y-82605672D01*
X145481886Y-82605672D01*
X145694458Y-82605672D01*
X145694459Y-82605672D01*
X145904415Y-82572418D01*
X146106584Y-82506729D01*
X146295988Y-82410223D01*
X146376335Y-82351848D01*
X146467958Y-82285281D01*
X146467960Y-82285278D01*
X146467964Y-82285276D01*
X146618276Y-82134964D01*
X146618278Y-82134960D01*
X146618281Y-82134958D01*
X146743220Y-81962992D01*
X146743219Y-81962992D01*
X146743223Y-81962988D01*
X146747686Y-81954226D01*
X146795660Y-81903431D01*
X146863480Y-81886635D01*
X146929616Y-81909171D01*
X146968658Y-81954228D01*
X146973123Y-81962992D01*
X147098062Y-82134958D01*
X147248385Y-82285281D01*
X147420351Y-82410220D01*
X147420353Y-82410221D01*
X147420356Y-82410223D01*
X147609760Y-82506729D01*
X147811929Y-82572418D01*
X148021885Y-82605672D01*
X148021886Y-82605672D01*
X148234458Y-82605672D01*
X148234459Y-82605672D01*
X148444415Y-82572418D01*
X148646584Y-82506729D01*
X148835988Y-82410223D01*
X148916335Y-82351848D01*
X149007958Y-82285281D01*
X149007960Y-82285278D01*
X149007964Y-82285276D01*
X149158276Y-82134964D01*
X149158278Y-82134960D01*
X149158281Y-82134958D01*
X149230196Y-82035974D01*
X149283223Y-81962988D01*
X149287965Y-81953680D01*
X149335935Y-81902883D01*
X149403755Y-81886083D01*
X149469891Y-81908617D01*
X149508935Y-81953672D01*
X149513545Y-81962719D01*
X149552900Y-82016888D01*
X150246446Y-81323343D01*
X150272135Y-81419216D01*
X150328088Y-81516128D01*
X150407216Y-81595256D01*
X150504128Y-81651209D01*
X150600000Y-81676897D01*
X149906454Y-82370441D01*
X149906454Y-82370442D01*
X149960621Y-82409796D01*
X150149954Y-82506267D01*
X150352042Y-82571929D01*
X150561926Y-82605172D01*
X150774418Y-82605172D01*
X150984299Y-82571929D01*
X150984302Y-82571929D01*
X151186389Y-82506267D01*
X151375726Y-82409794D01*
X151429888Y-82370442D01*
X151429889Y-82370442D01*
X150736343Y-81676897D01*
X150832216Y-81651209D01*
X150929128Y-81595256D01*
X151008256Y-81516128D01*
X151064209Y-81419216D01*
X151089897Y-81323343D01*
X151783442Y-82016889D01*
X151783442Y-82016888D01*
X151822794Y-81962726D01*
X151919267Y-81773389D01*
X151984929Y-81571302D01*
X151984929Y-81571299D01*
X152018172Y-81361418D01*
X152018172Y-81148925D01*
X151984929Y-80939044D01*
X151984929Y-80939041D01*
X151919267Y-80736954D01*
X151822796Y-80547621D01*
X151783442Y-80493454D01*
X151783441Y-80493454D01*
X151089897Y-81186999D01*
X151064209Y-81091128D01*
X151008256Y-80994216D01*
X150929128Y-80915088D01*
X150832216Y-80859135D01*
X150736344Y-80833446D01*
X151429888Y-80139900D01*
X151375722Y-80100547D01*
X151186389Y-80004076D01*
X150984301Y-79938414D01*
X150774418Y-79905172D01*
X150561926Y-79905172D01*
X150352044Y-79938414D01*
X150352041Y-79938414D01*
X150149954Y-80004076D01*
X149960611Y-80100552D01*
X149906454Y-80139899D01*
X149906454Y-80139900D01*
X150600000Y-80833446D01*
X150504128Y-80859135D01*
X150407216Y-80915088D01*
X150328088Y-80994216D01*
X150272135Y-81091128D01*
X150246446Y-81187000D01*
X149552900Y-80493454D01*
X149552899Y-80493454D01*
X149513552Y-80547612D01*
X149513548Y-80547618D01*
X149508932Y-80556677D01*
X149460953Y-80607469D01*
X149393131Y-80624259D01*
X149326998Y-80601715D01*
X149287966Y-80556665D01*
X149283223Y-80547356D01*
X149283221Y-80547353D01*
X149283220Y-80547351D01*
X149158281Y-80375385D01*
X149007958Y-80225062D01*
X148835992Y-80100123D01*
X148646586Y-80003616D01*
X148646585Y-80003615D01*
X148646584Y-80003615D01*
X148444415Y-79937926D01*
X148444413Y-79937925D01*
X148444412Y-79937925D01*
X148283129Y-79912380D01*
X148234459Y-79904672D01*
X148021885Y-79904672D01*
X147973214Y-79912380D01*
X147811932Y-79937925D01*
X147609757Y-80003616D01*
X147420351Y-80100123D01*
X147248385Y-80225062D01*
X147098062Y-80375385D01*
X146973121Y-80547354D01*
X146968656Y-80556118D01*
X146920681Y-80606914D01*
X146852860Y-80623708D01*
X146786725Y-80601170D01*
X146747688Y-80556118D01*
X146743222Y-80547354D01*
X146618281Y-80375385D01*
X146467958Y-80225062D01*
X146295992Y-80100123D01*
X146106586Y-80003616D01*
X146106585Y-80003615D01*
X146106584Y-80003615D01*
X145904415Y-79937926D01*
X145904413Y-79937925D01*
X145904412Y-79937925D01*
X145743129Y-79912380D01*
X145694459Y-79904672D01*
X145481885Y-79904672D01*
X145433214Y-79912380D01*
X145271932Y-79937925D01*
X145069757Y-80003616D01*
X144880351Y-80100123D01*
X144708385Y-80225062D01*
X144558062Y-80375385D01*
X144433121Y-80547354D01*
X144428656Y-80556118D01*
X144380681Y-80606914D01*
X144312860Y-80623708D01*
X144246725Y-80601170D01*
X144207688Y-80556118D01*
X144203222Y-80547354D01*
X144078281Y-80375385D01*
X143927958Y-80225062D01*
X143755992Y-80100123D01*
X143566586Y-80003616D01*
X143566585Y-80003615D01*
X143566584Y-80003615D01*
X143364415Y-79937926D01*
X143364413Y-79937925D01*
X143364412Y-79937925D01*
X143203129Y-79912380D01*
X143154459Y-79904672D01*
X142941885Y-79904672D01*
X142893214Y-79912380D01*
X142731932Y-79937925D01*
X142529757Y-80003616D01*
X142340351Y-80100123D01*
X142168385Y-80225062D01*
X142018062Y-80375385D01*
X141893123Y-80547351D01*
X141796616Y-80736757D01*
X141730925Y-80938932D01*
X141706820Y-81091128D01*
X141697672Y-81148885D01*
X140945172Y-81148885D01*
X140945172Y-81131385D01*
X140911918Y-80921429D01*
X140846229Y-80719260D01*
X140749723Y-80529856D01*
X140749721Y-80529853D01*
X140749720Y-80529851D01*
X140624781Y-80357885D01*
X140474458Y-80207562D01*
X140302492Y-80082623D01*
X140113086Y-79986116D01*
X140113085Y-79986115D01*
X140113084Y-79986115D01*
X139910915Y-79920426D01*
X139910913Y-79920425D01*
X139910912Y-79920425D01*
X139749629Y-79894880D01*
X139700959Y-79887172D01*
X139488385Y-79887172D01*
X139439714Y-79894880D01*
X139278432Y-79920425D01*
X139278429Y-79920426D01*
X139076260Y-79986115D01*
X139076258Y-79986115D01*
X139071626Y-79987621D01*
X139071180Y-79986249D01*
X139008123Y-79993012D01*
X138945652Y-79961721D01*
X138910016Y-79901622D01*
X138906172Y-79870988D01*
X138906172Y-77524354D01*
X138925857Y-77457315D01*
X138978661Y-77411560D01*
X139047819Y-77401616D01*
X139071498Y-77408115D01*
X139071626Y-77407723D01*
X139076258Y-77409228D01*
X139076260Y-77409229D01*
X139278429Y-77474918D01*
X139488385Y-77508172D01*
X139488386Y-77508172D01*
X139700958Y-77508172D01*
X139700959Y-77508172D01*
X139910915Y-77474918D01*
X140113084Y-77409229D01*
X140302488Y-77312723D01*
X140331871Y-77291375D01*
X140474458Y-77187781D01*
X140474460Y-77187778D01*
X140474464Y-77187776D01*
X140624776Y-77037464D01*
X140624778Y-77037460D01*
X140624781Y-77037458D01*
X140749720Y-76865492D01*
X140749722Y-76865489D01*
X140749723Y-76865488D01*
X140846229Y-76676084D01*
X140911918Y-76473915D01*
X140945172Y-76263959D01*
X140945172Y-76051385D01*
X140911918Y-75841429D01*
X140846229Y-75639260D01*
X140749723Y-75449856D01*
X140668497Y-75338057D01*
X140645018Y-75272250D01*
X140660844Y-75204196D01*
X140710950Y-75155502D01*
X140768816Y-75141172D01*
X141886743Y-75141172D01*
X141953782Y-75160857D01*
X141999537Y-75213661D01*
X142009481Y-75282819D01*
X141987061Y-75338057D01*
X141893123Y-75467352D01*
X141796616Y-75656757D01*
X141730925Y-75858932D01*
X141697672Y-76068885D01*
X141697672Y-76281458D01*
X141728153Y-76473911D01*
X141730926Y-76491415D01*
X141796128Y-76692086D01*
X141796616Y-76693586D01*
X141893123Y-76882992D01*
X142018062Y-77054958D01*
X142168385Y-77205281D01*
X142340351Y-77330220D01*
X142340353Y-77330221D01*
X142340356Y-77330223D01*
X142529760Y-77426729D01*
X142731929Y-77492418D01*
X142941885Y-77525672D01*
X142941886Y-77525672D01*
X143154458Y-77525672D01*
X143154459Y-77525672D01*
X143364415Y-77492418D01*
X143566584Y-77426729D01*
X143755988Y-77330223D01*
X143809458Y-77291375D01*
X143927958Y-77205281D01*
X143927960Y-77205278D01*
X143927964Y-77205276D01*
X144078276Y-77054964D01*
X144078278Y-77054960D01*
X144078281Y-77054958D01*
X144190509Y-76900488D01*
X144203223Y-76882988D01*
X144207686Y-76874226D01*
X144255660Y-76823431D01*
X144323480Y-76806635D01*
X144389616Y-76829171D01*
X144428656Y-76874226D01*
X144432763Y-76882287D01*
X144433123Y-76882992D01*
X144558062Y-77054958D01*
X144708385Y-77205281D01*
X144880351Y-77330220D01*
X144880353Y-77330221D01*
X144880356Y-77330223D01*
X145069760Y-77426729D01*
X145271929Y-77492418D01*
X145481885Y-77525672D01*
X145481886Y-77525672D01*
X145694458Y-77525672D01*
X145694459Y-77525672D01*
X145904415Y-77492418D01*
X146106584Y-77426729D01*
X146295988Y-77330223D01*
X146349458Y-77291375D01*
X146467958Y-77205281D01*
X146467960Y-77205278D01*
X146467964Y-77205276D01*
X146618276Y-77054964D01*
X146618278Y-77054960D01*
X146618281Y-77054958D01*
X146730509Y-76900488D01*
X146743223Y-76882988D01*
X146747686Y-76874226D01*
X146795660Y-76823431D01*
X146863480Y-76806635D01*
X146929616Y-76829171D01*
X146968656Y-76874226D01*
X146972763Y-76882287D01*
X146973123Y-76882992D01*
X147098062Y-77054958D01*
X147248385Y-77205281D01*
X147420351Y-77330220D01*
X147420353Y-77330221D01*
X147420356Y-77330223D01*
X147609760Y-77426729D01*
X147811929Y-77492418D01*
X148021885Y-77525672D01*
X148021886Y-77525672D01*
X148234458Y-77525672D01*
X148234459Y-77525672D01*
X148444415Y-77492418D01*
X148646584Y-77426729D01*
X148835988Y-77330223D01*
X148914829Y-77272942D01*
X149007956Y-77205282D01*
X149007956Y-77205281D01*
X149007964Y-77205276D01*
X149121501Y-77091738D01*
X149182820Y-77058256D01*
X149252512Y-77063240D01*
X149308446Y-77105111D01*
X149325361Y-77136089D01*
X149374374Y-77267500D01*
X149374378Y-77267507D01*
X149460624Y-77382716D01*
X149460627Y-77382719D01*
X149575836Y-77468965D01*
X149575843Y-77468969D01*
X149710689Y-77519263D01*
X149710688Y-77519263D01*
X149717616Y-77520007D01*
X149770299Y-77525672D01*
X151566044Y-77525671D01*
X151625655Y-77519263D01*
X151760503Y-77468968D01*
X151875718Y-77382718D01*
X151961968Y-77267503D01*
X152012263Y-77132655D01*
X152018672Y-77073045D01*
X152018671Y-75277300D01*
X152018670Y-75277299D01*
X152018493Y-75273977D01*
X152019607Y-75273917D01*
X152031197Y-75209670D01*
X152078806Y-75158532D01*
X152142082Y-75141172D01*
X153226957Y-75141172D01*
X153293996Y-75160857D01*
X153339751Y-75213661D01*
X153349695Y-75282819D01*
X153327275Y-75338057D01*
X153220623Y-75484851D01*
X153124116Y-75674257D01*
X153058425Y-75876432D01*
X153025172Y-76086385D01*
X153025172Y-76298958D01*
X153056658Y-76497756D01*
X153058426Y-76508915D01*
X153123056Y-76707826D01*
X153124116Y-76711086D01*
X153220623Y-76900492D01*
X153345562Y-77072458D01*
X153495885Y-77222781D01*
X153667851Y-77347720D01*
X153667853Y-77347721D01*
X153667856Y-77347723D01*
X153857260Y-77444229D01*
X154059429Y-77509918D01*
X154269385Y-77543172D01*
X154269386Y-77543172D01*
X154481958Y-77543172D01*
X154481959Y-77543172D01*
X154691915Y-77509918D01*
X154894084Y-77444229D01*
X155083488Y-77347723D01*
X155131666Y-77312720D01*
X155255458Y-77222781D01*
X155255460Y-77222778D01*
X155255464Y-77222776D01*
X155405776Y-77072464D01*
X155405778Y-77072460D01*
X155405781Y-77072458D01*
X155516991Y-76919388D01*
X155530723Y-76900488D01*
X155535186Y-76891726D01*
X155583160Y-76840931D01*
X155650980Y-76824135D01*
X155717116Y-76846671D01*
X155756158Y-76891728D01*
X155760623Y-76900492D01*
X155885562Y-77072458D01*
X155885568Y-77072464D01*
X156035880Y-77222776D01*
X156207856Y-77347723D01*
X156207860Y-77347725D01*
X156211798Y-77350586D01*
X156210818Y-77351934D01*
X156252832Y-77398362D01*
X156265172Y-77452289D01*
X156265172Y-77914741D01*
X156278434Y-77981414D01*
X156279514Y-77986840D01*
X156279514Y-77986842D01*
X156290169Y-78040408D01*
X156290171Y-78040416D01*
X156339037Y-78158390D01*
X156339207Y-78158799D01*
X156399812Y-78249502D01*
X156410398Y-78265345D01*
X158000499Y-79855446D01*
X158098764Y-79921104D01*
X158098763Y-79921104D01*
X158098767Y-79921105D01*
X158107045Y-79926637D01*
X158225428Y-79975673D01*
X158225432Y-79975673D01*
X158225433Y-79975674D01*
X158351100Y-80000672D01*
X158351103Y-80000672D01*
X158527188Y-80000672D01*
X158594227Y-80020357D01*
X158639982Y-80073161D01*
X158649926Y-80142319D01*
X158620901Y-80205875D01*
X158600073Y-80224991D01*
X158575879Y-80242568D01*
X158425562Y-80392885D01*
X158300621Y-80564854D01*
X158296156Y-80573618D01*
X158248181Y-80624414D01*
X158180360Y-80641208D01*
X158114225Y-80618670D01*
X158075188Y-80573618D01*
X158070722Y-80564854D01*
X157945781Y-80392885D01*
X157795458Y-80242562D01*
X157623492Y-80117623D01*
X157434086Y-80021116D01*
X157434085Y-80021115D01*
X157434084Y-80021115D01*
X157231915Y-79955426D01*
X157231913Y-79955425D01*
X157231912Y-79955425D01*
X157070629Y-79929880D01*
X157021959Y-79922172D01*
X156809385Y-79922172D01*
X156760714Y-79929880D01*
X156599432Y-79955425D01*
X156537115Y-79975673D01*
X156413406Y-80015869D01*
X156397257Y-80021116D01*
X156207851Y-80117623D01*
X156035885Y-80242562D01*
X155885562Y-80392885D01*
X155760621Y-80564854D01*
X155756156Y-80573618D01*
X155708181Y-80624414D01*
X155640360Y-80641208D01*
X155574225Y-80618670D01*
X155535188Y-80573618D01*
X155530722Y-80564854D01*
X155405781Y-80392885D01*
X155255458Y-80242562D01*
X155083492Y-80117623D01*
X154894086Y-80021116D01*
X154894085Y-80021115D01*
X154894084Y-80021115D01*
X154691915Y-79955426D01*
X154691913Y-79955425D01*
X154691912Y-79955425D01*
X154530629Y-79929880D01*
X154481959Y-79922172D01*
X154269385Y-79922172D01*
X154220714Y-79929880D01*
X154059432Y-79955425D01*
X153997115Y-79975673D01*
X153873406Y-80015869D01*
X153857257Y-80021116D01*
X153667851Y-80117623D01*
X153495885Y-80242562D01*
X153345562Y-80392885D01*
X153220623Y-80564851D01*
X153124116Y-80754257D01*
X153058425Y-80956432D01*
X153025172Y-81166385D01*
X153025172Y-81378958D01*
X153058407Y-81588799D01*
X153058426Y-81588915D01*
X153112743Y-81756086D01*
X153124116Y-81791086D01*
X153220623Y-81980492D01*
X153345562Y-82152458D01*
X153495885Y-82302781D01*
X153667851Y-82427720D01*
X153667853Y-82427721D01*
X153667856Y-82427723D01*
X153857260Y-82524229D01*
X154059429Y-82589918D01*
X154269385Y-82623172D01*
X154269386Y-82623172D01*
X154481958Y-82623172D01*
X154481959Y-82623172D01*
X154691915Y-82589918D01*
X154894084Y-82524229D01*
X155083488Y-82427723D01*
X155160230Y-82371967D01*
X155255458Y-82302781D01*
X155255460Y-82302778D01*
X155255464Y-82302776D01*
X155405776Y-82152464D01*
X155405778Y-82152460D01*
X155405781Y-82152458D01*
X155530720Y-81980492D01*
X155530719Y-81980492D01*
X155530723Y-81980488D01*
X155535186Y-81971726D01*
X155583160Y-81920931D01*
X155650980Y-81904135D01*
X155717116Y-81926671D01*
X155756158Y-81971728D01*
X155760623Y-81980492D01*
X155885562Y-82152458D01*
X156035885Y-82302781D01*
X156207851Y-82427720D01*
X156207853Y-82427721D01*
X156207856Y-82427723D01*
X156397260Y-82524229D01*
X156599429Y-82589918D01*
X156809385Y-82623172D01*
X156809386Y-82623172D01*
X157021958Y-82623172D01*
X157021959Y-82623172D01*
X157231915Y-82589918D01*
X157434084Y-82524229D01*
X157623488Y-82427723D01*
X157700230Y-82371967D01*
X157795458Y-82302781D01*
X157795460Y-82302778D01*
X157795464Y-82302776D01*
X157945776Y-82152464D01*
X157945778Y-82152460D01*
X157945781Y-82152458D01*
X158070720Y-81980492D01*
X158070719Y-81980492D01*
X158070723Y-81980488D01*
X158075186Y-81971726D01*
X158123160Y-81920931D01*
X158190980Y-81904135D01*
X158257116Y-81926671D01*
X158296158Y-81971728D01*
X158300623Y-81980492D01*
X158425562Y-82152458D01*
X158575885Y-82302781D01*
X158747851Y-82427720D01*
X158747853Y-82427721D01*
X158747856Y-82427723D01*
X158937260Y-82524229D01*
X159139429Y-82589918D01*
X159349385Y-82623172D01*
X159349386Y-82623172D01*
X159561958Y-82623172D01*
X159561959Y-82623172D01*
X159771915Y-82589918D01*
X159974084Y-82524229D01*
X160163488Y-82427723D01*
X160240230Y-82371967D01*
X160335458Y-82302781D01*
X160335460Y-82302778D01*
X160335464Y-82302776D01*
X160485776Y-82152464D01*
X160485778Y-82152460D01*
X160485781Y-82152458D01*
X160571562Y-82034389D01*
X160610723Y-81980488D01*
X160615465Y-81971180D01*
X160663435Y-81920383D01*
X160731255Y-81903583D01*
X160797391Y-81926117D01*
X160836435Y-81971172D01*
X160841045Y-81980219D01*
X160880400Y-82034388D01*
X161573945Y-81340842D01*
X161599635Y-81436716D01*
X161655588Y-81533628D01*
X161734716Y-81612756D01*
X161831628Y-81668709D01*
X161927500Y-81694397D01*
X161233954Y-82387941D01*
X161233954Y-82387942D01*
X161288121Y-82427296D01*
X161477454Y-82523767D01*
X161679542Y-82589429D01*
X161889426Y-82622672D01*
X162101918Y-82622672D01*
X162311799Y-82589429D01*
X162311802Y-82589429D01*
X162513889Y-82523767D01*
X162703226Y-82427294D01*
X162757388Y-82387942D01*
X162757389Y-82387942D01*
X162063843Y-81694397D01*
X162159716Y-81668709D01*
X162256628Y-81612756D01*
X162335756Y-81533628D01*
X162391709Y-81436716D01*
X162417397Y-81340844D01*
X163110942Y-82034389D01*
X163110942Y-82034388D01*
X163150294Y-81980226D01*
X163246767Y-81790889D01*
X163312429Y-81588802D01*
X163312429Y-81588799D01*
X163345672Y-81378918D01*
X163345672Y-81166425D01*
X163312430Y-80956545D01*
X163260912Y-80797991D01*
X163258917Y-80728149D01*
X163294997Y-80668316D01*
X163357698Y-80637488D01*
X163378843Y-80635672D01*
X164128672Y-80635672D01*
X164195711Y-80655357D01*
X164241466Y-80708161D01*
X164252672Y-80759672D01*
X164252672Y-82204042D01*
X164252673Y-82204048D01*
X164259080Y-82263655D01*
X164309374Y-82398500D01*
X164309378Y-82398507D01*
X164395624Y-82513716D01*
X164395627Y-82513719D01*
X164510836Y-82599965D01*
X164510843Y-82599969D01*
X164645689Y-82650263D01*
X164645688Y-82650263D01*
X164652616Y-82651007D01*
X164705299Y-82656672D01*
X166501044Y-82656671D01*
X166560655Y-82650263D01*
X166695503Y-82599968D01*
X166810718Y-82513718D01*
X166896968Y-82398503D01*
X166947263Y-82263655D01*
X166953672Y-82204045D01*
X166953671Y-80759671D01*
X166973356Y-80692633D01*
X167026159Y-80646878D01*
X167077671Y-80635672D01*
X168230360Y-80635672D01*
X168297399Y-80655357D01*
X168343154Y-80708161D01*
X168353098Y-80777319D01*
X168348291Y-80797990D01*
X168285925Y-80989931D01*
X168252672Y-81199885D01*
X168252672Y-81412458D01*
X168280601Y-81588799D01*
X168285926Y-81622415D01*
X168304692Y-81680172D01*
X168351616Y-81824586D01*
X168448123Y-82013992D01*
X168573062Y-82185958D01*
X168723385Y-82336281D01*
X168895351Y-82461220D01*
X168895353Y-82461221D01*
X168895356Y-82461223D01*
X169084760Y-82557729D01*
X169286929Y-82623418D01*
X169496885Y-82656672D01*
X169496886Y-82656672D01*
X169709458Y-82656672D01*
X169709459Y-82656672D01*
X169919415Y-82623418D01*
X170121584Y-82557729D01*
X170310988Y-82461223D01*
X170381772Y-82409796D01*
X170482958Y-82336281D01*
X170482960Y-82336278D01*
X170482964Y-82336276D01*
X170633276Y-82185964D01*
X170633278Y-82185960D01*
X170633281Y-82185958D01*
X170758220Y-82013992D01*
X170758219Y-82013992D01*
X170758223Y-82013988D01*
X170854729Y-81824584D01*
X170920418Y-81622415D01*
X170953672Y-81412459D01*
X170953672Y-81199885D01*
X170920418Y-80989929D01*
X170859348Y-80801976D01*
X170858053Y-80797990D01*
X170856058Y-80728149D01*
X170892138Y-80668316D01*
X170954839Y-80637488D01*
X170975984Y-80635672D01*
X172230360Y-80635672D01*
X172297399Y-80655357D01*
X172343154Y-80708161D01*
X172353098Y-80777319D01*
X172348291Y-80797990D01*
X172285925Y-80989931D01*
X172252672Y-81199885D01*
X172252672Y-81412458D01*
X172280601Y-81588799D01*
X172285926Y-81622415D01*
X172304692Y-81680172D01*
X172351616Y-81824586D01*
X172448123Y-82013992D01*
X172573062Y-82185958D01*
X172723385Y-82336281D01*
X172895351Y-82461220D01*
X172895353Y-82461221D01*
X172895356Y-82461223D01*
X173084760Y-82557729D01*
X173286929Y-82623418D01*
X173496885Y-82656672D01*
X173496886Y-82656672D01*
X173709458Y-82656672D01*
X173709459Y-82656672D01*
X173919415Y-82623418D01*
X174121584Y-82557729D01*
X174310988Y-82461223D01*
X174381772Y-82409796D01*
X174482958Y-82336281D01*
X174482960Y-82336278D01*
X174482964Y-82336276D01*
X174633276Y-82185964D01*
X174633278Y-82185960D01*
X174633281Y-82185958D01*
X174758220Y-82013992D01*
X174758219Y-82013992D01*
X174758223Y-82013988D01*
X174854729Y-81824584D01*
X174920418Y-81622415D01*
X174953672Y-81412459D01*
X174953672Y-81199885D01*
X174920418Y-80989929D01*
X174859348Y-80801976D01*
X174858053Y-80797990D01*
X174856058Y-80728149D01*
X174892138Y-80668316D01*
X174954839Y-80637488D01*
X174975984Y-80635672D01*
X176230360Y-80635672D01*
X176297399Y-80655357D01*
X176343154Y-80708161D01*
X176353098Y-80777319D01*
X176348291Y-80797990D01*
X176285925Y-80989931D01*
X176252672Y-81199885D01*
X176252672Y-81412458D01*
X176280601Y-81588799D01*
X176285926Y-81622415D01*
X176304692Y-81680172D01*
X176351616Y-81824586D01*
X176448123Y-82013992D01*
X176573062Y-82185958D01*
X176723385Y-82336281D01*
X176895351Y-82461220D01*
X176895353Y-82461221D01*
X176895356Y-82461223D01*
X177084760Y-82557729D01*
X177286929Y-82623418D01*
X177496885Y-82656672D01*
X177496886Y-82656672D01*
X177709458Y-82656672D01*
X177709459Y-82656672D01*
X177919415Y-82623418D01*
X178121584Y-82557729D01*
X178310988Y-82461223D01*
X178381772Y-82409796D01*
X178482958Y-82336281D01*
X178482960Y-82336278D01*
X178482964Y-82336276D01*
X178633276Y-82185964D01*
X178633278Y-82185960D01*
X178633281Y-82185958D01*
X178758220Y-82013992D01*
X178758219Y-82013992D01*
X178758223Y-82013988D01*
X178854729Y-81824584D01*
X178920418Y-81622415D01*
X178953672Y-81412459D01*
X178953672Y-81199885D01*
X178920418Y-80989929D01*
X178859348Y-80801976D01*
X178858053Y-80797990D01*
X178856058Y-80728149D01*
X178892138Y-80668316D01*
X178954839Y-80637488D01*
X178975984Y-80635672D01*
X180240709Y-80635672D01*
X180307748Y-80655357D01*
X180353503Y-80708161D01*
X180363447Y-80777319D01*
X180352956Y-80810415D01*
X180353482Y-80810633D01*
X180351617Y-80815134D01*
X180285925Y-81017314D01*
X180252672Y-81227267D01*
X180252672Y-81439840D01*
X180284054Y-81637983D01*
X180285926Y-81649797D01*
X180348177Y-81841386D01*
X180351616Y-81851968D01*
X180448123Y-82041374D01*
X180573062Y-82213340D01*
X180723385Y-82363663D01*
X180895351Y-82488602D01*
X180895353Y-82488603D01*
X180895356Y-82488605D01*
X181084760Y-82585111D01*
X181286929Y-82650800D01*
X181496885Y-82684054D01*
X181496886Y-82684054D01*
X181709458Y-82684054D01*
X181709459Y-82684054D01*
X181919415Y-82650800D01*
X182121584Y-82585111D01*
X182310988Y-82488605D01*
X182348676Y-82461223D01*
X182482958Y-82363663D01*
X182482960Y-82363660D01*
X182482964Y-82363658D01*
X182633276Y-82213346D01*
X182633278Y-82213342D01*
X182633281Y-82213340D01*
X182758220Y-82041374D01*
X182758219Y-82041374D01*
X182758223Y-82041370D01*
X182854729Y-81851966D01*
X182920418Y-81649797D01*
X182953672Y-81439841D01*
X182953672Y-81227267D01*
X182920418Y-81017311D01*
X182854729Y-80815142D01*
X182854727Y-80815139D01*
X182854726Y-80815134D01*
X182852862Y-80810633D01*
X182854052Y-80810139D01*
X182842255Y-80747284D01*
X182868539Y-80682546D01*
X182925650Y-80642296D01*
X182965635Y-80635672D01*
X184240709Y-80635672D01*
X184307748Y-80655357D01*
X184353503Y-80708161D01*
X184363447Y-80777319D01*
X184352956Y-80810415D01*
X184353482Y-80810633D01*
X184351617Y-80815134D01*
X184285925Y-81017314D01*
X184252672Y-81227267D01*
X184252672Y-81439840D01*
X184284054Y-81637983D01*
X184285926Y-81649797D01*
X184348177Y-81841386D01*
X184351616Y-81851968D01*
X184448123Y-82041374D01*
X184573062Y-82213340D01*
X184723385Y-82363663D01*
X184895351Y-82488602D01*
X184895353Y-82488603D01*
X184895356Y-82488605D01*
X185084760Y-82585111D01*
X185286929Y-82650800D01*
X185496885Y-82684054D01*
X185496886Y-82684054D01*
X185709458Y-82684054D01*
X185709459Y-82684054D01*
X185919415Y-82650800D01*
X186121584Y-82585111D01*
X186310988Y-82488605D01*
X186348676Y-82461223D01*
X186482958Y-82363663D01*
X186482960Y-82363660D01*
X186482964Y-82363658D01*
X186633276Y-82213346D01*
X186633278Y-82213342D01*
X186633281Y-82213340D01*
X186758220Y-82041374D01*
X186758219Y-82041374D01*
X186758223Y-82041370D01*
X186854729Y-81851966D01*
X186920418Y-81649797D01*
X186953672Y-81439841D01*
X186953672Y-81227267D01*
X186920418Y-81017311D01*
X186854729Y-80815142D01*
X186854727Y-80815139D01*
X186854726Y-80815134D01*
X186852862Y-80810633D01*
X186854052Y-80810139D01*
X186842255Y-80747284D01*
X186868539Y-80682546D01*
X186925650Y-80642296D01*
X186965635Y-80635672D01*
X188240709Y-80635672D01*
X188307748Y-80655357D01*
X188353503Y-80708161D01*
X188363447Y-80777319D01*
X188352956Y-80810415D01*
X188353482Y-80810633D01*
X188351617Y-80815134D01*
X188285925Y-81017314D01*
X188252672Y-81227267D01*
X188252672Y-81439840D01*
X188284054Y-81637983D01*
X188285926Y-81649797D01*
X188348177Y-81841386D01*
X188351616Y-81851968D01*
X188448123Y-82041374D01*
X188573062Y-82213340D01*
X188723385Y-82363663D01*
X188895351Y-82488602D01*
X188895353Y-82488603D01*
X188895356Y-82488605D01*
X189084760Y-82585111D01*
X189286929Y-82650800D01*
X189496885Y-82684054D01*
X189496886Y-82684054D01*
X189709458Y-82684054D01*
X189709459Y-82684054D01*
X189919415Y-82650800D01*
X190121584Y-82585111D01*
X190310988Y-82488605D01*
X190348676Y-82461223D01*
X190482958Y-82363663D01*
X190482960Y-82363660D01*
X190482964Y-82363658D01*
X190633276Y-82213346D01*
X190633278Y-82213342D01*
X190633281Y-82213340D01*
X190758220Y-82041374D01*
X190758219Y-82041374D01*
X190758223Y-82041370D01*
X190854729Y-81851966D01*
X190920418Y-81649797D01*
X190953672Y-81439841D01*
X190953672Y-81227267D01*
X190941448Y-81150090D01*
X190919656Y-81012499D01*
X190921295Y-81012239D01*
X190924429Y-80949680D01*
X190953827Y-80902843D01*
X192581681Y-79274991D01*
X192643004Y-79241506D01*
X192669362Y-79238672D01*
X194478746Y-79238672D01*
X194545785Y-79258357D01*
X194591540Y-79311161D01*
X194601484Y-79380319D01*
X194572459Y-79443875D01*
X194566427Y-79450353D01*
X194033882Y-79982896D01*
X193972559Y-80016381D01*
X193924417Y-80015869D01*
X193924227Y-80017070D01*
X193819283Y-80000448D01*
X193709459Y-79983054D01*
X193496885Y-79983054D01*
X193459817Y-79988925D01*
X193286932Y-80016307D01*
X193084757Y-80081998D01*
X192895351Y-80178505D01*
X192723385Y-80303444D01*
X192573062Y-80453767D01*
X192448123Y-80625733D01*
X192351616Y-80815139D01*
X192351615Y-80815141D01*
X192351615Y-80815142D01*
X192330228Y-80880965D01*
X192285925Y-81017314D01*
X192252672Y-81227267D01*
X192252672Y-81439840D01*
X192284054Y-81637983D01*
X192285926Y-81649797D01*
X192348177Y-81841386D01*
X192351616Y-81851968D01*
X192448123Y-82041374D01*
X192573062Y-82213340D01*
X192723385Y-82363663D01*
X192895351Y-82488602D01*
X192895353Y-82488603D01*
X192895356Y-82488605D01*
X193084760Y-82585111D01*
X193286929Y-82650800D01*
X193496885Y-82684054D01*
X193496886Y-82684054D01*
X193709458Y-82684054D01*
X193709459Y-82684054D01*
X193919415Y-82650800D01*
X194121584Y-82585111D01*
X194310988Y-82488605D01*
X194348676Y-82461223D01*
X194482958Y-82363663D01*
X194482960Y-82363660D01*
X194482964Y-82363658D01*
X194633276Y-82213346D01*
X194633278Y-82213342D01*
X194633281Y-82213340D01*
X194758220Y-82041374D01*
X194758219Y-82041374D01*
X194758223Y-82041370D01*
X194854729Y-81851966D01*
X194920418Y-81649797D01*
X194953672Y-81439841D01*
X194953672Y-81227267D01*
X194941448Y-81150090D01*
X194919656Y-81012499D01*
X194921295Y-81012239D01*
X194924429Y-80949680D01*
X194953827Y-80902843D01*
X196073681Y-79782991D01*
X196135004Y-79749506D01*
X196161362Y-79746672D01*
X197413776Y-79746672D01*
X197480815Y-79766357D01*
X197526570Y-79819161D01*
X197536514Y-79888319D01*
X197507489Y-79951875D01*
X197448711Y-79989649D01*
X197433175Y-79993144D01*
X197410327Y-79996763D01*
X197286932Y-80016307D01*
X197084757Y-80081998D01*
X196895351Y-80178505D01*
X196723385Y-80303444D01*
X196573062Y-80453767D01*
X196448123Y-80625733D01*
X196351616Y-80815139D01*
X196351615Y-80815141D01*
X196351615Y-80815142D01*
X196330228Y-80880965D01*
X196285925Y-81017314D01*
X196252672Y-81227267D01*
X196252672Y-81439840D01*
X196284054Y-81637983D01*
X196285926Y-81649797D01*
X196348177Y-81841386D01*
X196351616Y-81851968D01*
X196448123Y-82041374D01*
X196573062Y-82213340D01*
X196723385Y-82363663D01*
X196895351Y-82488602D01*
X196895353Y-82488603D01*
X196895356Y-82488605D01*
X197084760Y-82585111D01*
X197286929Y-82650800D01*
X197496885Y-82684054D01*
X197496886Y-82684054D01*
X197709458Y-82684054D01*
X197709459Y-82684054D01*
X197919415Y-82650800D01*
X198121584Y-82585111D01*
X198310988Y-82488605D01*
X198348676Y-82461223D01*
X198482958Y-82363663D01*
X198482960Y-82363660D01*
X198482964Y-82363658D01*
X198633276Y-82213346D01*
X198633278Y-82213342D01*
X198633281Y-82213340D01*
X198758220Y-82041374D01*
X198758219Y-82041374D01*
X198758223Y-82041370D01*
X198854729Y-81851966D01*
X198920418Y-81649797D01*
X198953672Y-81439841D01*
X198953672Y-81227267D01*
X198941448Y-81150090D01*
X198919656Y-81012499D01*
X198921298Y-81012238D01*
X198924426Y-80949691D01*
X198953829Y-80902842D01*
X199238002Y-80618670D01*
X199538299Y-80318373D01*
X199599622Y-80284888D01*
X199625980Y-80282054D01*
X200454457Y-80282054D01*
X200521496Y-80301739D01*
X200567251Y-80354543D01*
X200577195Y-80423701D01*
X200554775Y-80478939D01*
X200448123Y-80625733D01*
X200351616Y-80815139D01*
X200351615Y-80815141D01*
X200351615Y-80815142D01*
X200330228Y-80880965D01*
X200285925Y-81017314D01*
X200252672Y-81227267D01*
X200252672Y-81439840D01*
X200284054Y-81637983D01*
X200285926Y-81649797D01*
X200348177Y-81841386D01*
X200351616Y-81851968D01*
X200448123Y-82041374D01*
X200573062Y-82213340D01*
X200723385Y-82363663D01*
X200895351Y-82488602D01*
X200895353Y-82488603D01*
X200895356Y-82488605D01*
X201084760Y-82585111D01*
X201286929Y-82650800D01*
X201496885Y-82684054D01*
X201496886Y-82684054D01*
X201709458Y-82684054D01*
X201709459Y-82684054D01*
X201919415Y-82650800D01*
X202121584Y-82585111D01*
X202310988Y-82488605D01*
X202348676Y-82461223D01*
X202482958Y-82363663D01*
X202482960Y-82363660D01*
X202482964Y-82363658D01*
X202633276Y-82213346D01*
X202633278Y-82213342D01*
X202633281Y-82213340D01*
X202758220Y-82041374D01*
X202758219Y-82041374D01*
X202758223Y-82041370D01*
X202854729Y-81851966D01*
X202920418Y-81649797D01*
X202953672Y-81439841D01*
X202953672Y-81227267D01*
X202941448Y-81150090D01*
X202919656Y-81012499D01*
X202921298Y-81012238D01*
X202921455Y-81009100D01*
X202917826Y-80999368D01*
X202923170Y-80974799D01*
X202924426Y-80949691D01*
X202930864Y-80939432D01*
X202932678Y-80931095D01*
X202953825Y-80902846D01*
X203037300Y-80819371D01*
X203098623Y-80785888D01*
X203124980Y-80783054D01*
X204191370Y-80783054D01*
X204258409Y-80802739D01*
X204304164Y-80855543D01*
X204314108Y-80924701D01*
X204309302Y-80945366D01*
X204294822Y-80989932D01*
X204285925Y-81017314D01*
X204252672Y-81227267D01*
X204252672Y-81439840D01*
X204284054Y-81637983D01*
X204285926Y-81649797D01*
X204348177Y-81841386D01*
X204351616Y-81851968D01*
X204448123Y-82041374D01*
X204573062Y-82213340D01*
X204723385Y-82363663D01*
X204895351Y-82488602D01*
X204895353Y-82488603D01*
X204895356Y-82488605D01*
X205084760Y-82585111D01*
X205286929Y-82650800D01*
X205496885Y-82684054D01*
X205496886Y-82684054D01*
X205709458Y-82684054D01*
X205709459Y-82684054D01*
X205919415Y-82650800D01*
X206121584Y-82585111D01*
X206310988Y-82488605D01*
X206348676Y-82461223D01*
X206482958Y-82363663D01*
X206482960Y-82363660D01*
X206482964Y-82363658D01*
X206633276Y-82213346D01*
X206633278Y-82213342D01*
X206633281Y-82213340D01*
X206758220Y-82041374D01*
X206758219Y-82041374D01*
X206758223Y-82041370D01*
X206854729Y-81851966D01*
X206920418Y-81649797D01*
X206953672Y-81439841D01*
X206953672Y-81227267D01*
X206920418Y-81017311D01*
X206897042Y-80945370D01*
X206895048Y-80875531D01*
X206931128Y-80815698D01*
X206993829Y-80784870D01*
X207014974Y-80783054D01*
X208191370Y-80783054D01*
X208258409Y-80802739D01*
X208304164Y-80855543D01*
X208314108Y-80924701D01*
X208309302Y-80945366D01*
X208294822Y-80989932D01*
X208285925Y-81017314D01*
X208252672Y-81227267D01*
X208252672Y-81439840D01*
X208284054Y-81637983D01*
X208285926Y-81649797D01*
X208348177Y-81841386D01*
X208351616Y-81851968D01*
X208448123Y-82041374D01*
X208573062Y-82213340D01*
X208723385Y-82363663D01*
X208895351Y-82488602D01*
X208895353Y-82488603D01*
X208895356Y-82488605D01*
X209084760Y-82585111D01*
X209286929Y-82650800D01*
X209496885Y-82684054D01*
X209496886Y-82684054D01*
X209709458Y-82684054D01*
X209709459Y-82684054D01*
X209919415Y-82650800D01*
X210121584Y-82585111D01*
X210310988Y-82488605D01*
X210348676Y-82461223D01*
X210482958Y-82363663D01*
X210482960Y-82363660D01*
X210482964Y-82363658D01*
X210633276Y-82213346D01*
X210633278Y-82213342D01*
X210633281Y-82213340D01*
X210758220Y-82041374D01*
X210758219Y-82041374D01*
X210758223Y-82041370D01*
X210854729Y-81851966D01*
X210920418Y-81649797D01*
X210953672Y-81439841D01*
X210953672Y-81227267D01*
X210920418Y-81017311D01*
X210897042Y-80945370D01*
X210895048Y-80875531D01*
X210931128Y-80815698D01*
X210993829Y-80784870D01*
X211014974Y-80783054D01*
X211334746Y-80783054D01*
X211364186Y-80791698D01*
X211394173Y-80798222D01*
X211399188Y-80801976D01*
X211401785Y-80802739D01*
X211422426Y-80819372D01*
X211445014Y-80841960D01*
X211478499Y-80903283D01*
X211477991Y-80951427D01*
X211479188Y-80951617D01*
X211445172Y-81166385D01*
X211445172Y-81378958D01*
X211478407Y-81588799D01*
X211478426Y-81588915D01*
X211532743Y-81756086D01*
X211544116Y-81791086D01*
X211640623Y-81980492D01*
X211765562Y-82152458D01*
X211915885Y-82302781D01*
X212087851Y-82427720D01*
X212087853Y-82427721D01*
X212087856Y-82427723D01*
X212277260Y-82524229D01*
X212479429Y-82589918D01*
X212689385Y-82623172D01*
X212689386Y-82623172D01*
X212901958Y-82623172D01*
X212901959Y-82623172D01*
X213111915Y-82589918D01*
X213314084Y-82524229D01*
X213503488Y-82427723D01*
X213580230Y-82371967D01*
X213675458Y-82302781D01*
X213675460Y-82302778D01*
X213675464Y-82302776D01*
X213825776Y-82152464D01*
X213825778Y-82152460D01*
X213825781Y-82152458D01*
X213950720Y-81980492D01*
X213950719Y-81980492D01*
X213950723Y-81980488D01*
X213955186Y-81971726D01*
X214003160Y-81920931D01*
X214070980Y-81904135D01*
X214137116Y-81926671D01*
X214176158Y-81971728D01*
X214180623Y-81980492D01*
X214305562Y-82152458D01*
X214455885Y-82302781D01*
X214627851Y-82427720D01*
X214627853Y-82427721D01*
X214627856Y-82427723D01*
X214817260Y-82524229D01*
X215019429Y-82589918D01*
X215229385Y-82623172D01*
X215229386Y-82623172D01*
X215441958Y-82623172D01*
X215441959Y-82623172D01*
X215651915Y-82589918D01*
X215854084Y-82524229D01*
X216043488Y-82427723D01*
X216120230Y-82371967D01*
X216215458Y-82302781D01*
X216215460Y-82302778D01*
X216215464Y-82302776D01*
X216365776Y-82152464D01*
X216365778Y-82152460D01*
X216365781Y-82152458D01*
X216490720Y-81980492D01*
X216490719Y-81980492D01*
X216490723Y-81980488D01*
X216495186Y-81971726D01*
X216543160Y-81920931D01*
X216610980Y-81904135D01*
X216677116Y-81926671D01*
X216716158Y-81971728D01*
X216720623Y-81980492D01*
X216845562Y-82152458D01*
X216995885Y-82302781D01*
X217167851Y-82427720D01*
X217167853Y-82427721D01*
X217167856Y-82427723D01*
X217357260Y-82524229D01*
X217559429Y-82589918D01*
X217769385Y-82623172D01*
X217769386Y-82623172D01*
X217981958Y-82623172D01*
X217981959Y-82623172D01*
X218191915Y-82589918D01*
X218394084Y-82524229D01*
X218583488Y-82427723D01*
X218660230Y-82371967D01*
X218755458Y-82302781D01*
X218755460Y-82302778D01*
X218755464Y-82302776D01*
X218905776Y-82152464D01*
X218905778Y-82152460D01*
X218905781Y-82152458D01*
X218991562Y-82034389D01*
X219030723Y-81980488D01*
X219035465Y-81971180D01*
X219083435Y-81920383D01*
X219151255Y-81903583D01*
X219217391Y-81926117D01*
X219256435Y-81971172D01*
X219261045Y-81980219D01*
X219300400Y-82034388D01*
X219993946Y-81340843D01*
X220019635Y-81436716D01*
X220075588Y-81533628D01*
X220154716Y-81612756D01*
X220251628Y-81668709D01*
X220347500Y-81694397D01*
X219653954Y-82387941D01*
X219653954Y-82387942D01*
X219708121Y-82427296D01*
X219897454Y-82523767D01*
X220099542Y-82589429D01*
X220309426Y-82622672D01*
X220521918Y-82622672D01*
X220731799Y-82589429D01*
X220731802Y-82589429D01*
X220933889Y-82523767D01*
X221123226Y-82427294D01*
X221177388Y-82387942D01*
X221177389Y-82387942D01*
X220483843Y-81694397D01*
X220579716Y-81668709D01*
X220676628Y-81612756D01*
X220755756Y-81533628D01*
X220811709Y-81436716D01*
X220837397Y-81340843D01*
X221530942Y-82034389D01*
X221530942Y-82034388D01*
X221570294Y-81980226D01*
X221666767Y-81790889D01*
X221732429Y-81588802D01*
X221732429Y-81588799D01*
X221765672Y-81378918D01*
X221765672Y-81166425D01*
X221732429Y-80956544D01*
X221732429Y-80956541D01*
X221666767Y-80754454D01*
X221570296Y-80565121D01*
X221530942Y-80510954D01*
X221530941Y-80510954D01*
X220837397Y-81204499D01*
X220811709Y-81108628D01*
X220755756Y-81011716D01*
X220676628Y-80932588D01*
X220579716Y-80876635D01*
X220483844Y-80850946D01*
X220994982Y-80339807D01*
X224858172Y-80339807D01*
X224858172Y-82135542D01*
X224858173Y-82135548D01*
X224864580Y-82195155D01*
X224914874Y-82330000D01*
X224914878Y-82330007D01*
X225001124Y-82445216D01*
X225001127Y-82445219D01*
X225116336Y-82531465D01*
X225116343Y-82531469D01*
X225251189Y-82581763D01*
X225251188Y-82581763D01*
X225258116Y-82582507D01*
X225310799Y-82588172D01*
X227106544Y-82588171D01*
X227166155Y-82581763D01*
X227301003Y-82531468D01*
X227416218Y-82445218D01*
X227502468Y-82330003D01*
X227551482Y-82198588D01*
X227593353Y-82142656D01*
X227658817Y-82118238D01*
X227727090Y-82133089D01*
X227755345Y-82154241D01*
X227868885Y-82267781D01*
X228040851Y-82392720D01*
X228040853Y-82392721D01*
X228040856Y-82392723D01*
X228230260Y-82489229D01*
X228432429Y-82554918D01*
X228642385Y-82588172D01*
X228642386Y-82588172D01*
X228854958Y-82588172D01*
X228854959Y-82588172D01*
X229064915Y-82554918D01*
X229267084Y-82489229D01*
X229456488Y-82392723D01*
X229512748Y-82351848D01*
X229628458Y-82267781D01*
X229628460Y-82267778D01*
X229628464Y-82267776D01*
X229778776Y-82117464D01*
X229778778Y-82117460D01*
X229778781Y-82117458D01*
X229903720Y-81945492D01*
X229903719Y-81945492D01*
X229903723Y-81945488D01*
X229908186Y-81936726D01*
X229956160Y-81885931D01*
X230023980Y-81869135D01*
X230090116Y-81891671D01*
X230129158Y-81936728D01*
X230133623Y-81945492D01*
X230258562Y-82117458D01*
X230408885Y-82267781D01*
X230580851Y-82392720D01*
X230580853Y-82392721D01*
X230580856Y-82392723D01*
X230770260Y-82489229D01*
X230972429Y-82554918D01*
X231182385Y-82588172D01*
X231182386Y-82588172D01*
X231394958Y-82588172D01*
X231394959Y-82588172D01*
X231604915Y-82554918D01*
X231807084Y-82489229D01*
X231996488Y-82392723D01*
X232052748Y-82351848D01*
X232168458Y-82267781D01*
X232168460Y-82267778D01*
X232168464Y-82267776D01*
X232318776Y-82117464D01*
X232318778Y-82117460D01*
X232318781Y-82117458D01*
X232443720Y-81945492D01*
X232443719Y-81945492D01*
X232443723Y-81945488D01*
X232448186Y-81936726D01*
X232496160Y-81885931D01*
X232563980Y-81869135D01*
X232630116Y-81891671D01*
X232669158Y-81936728D01*
X232673623Y-81945492D01*
X232798562Y-82117458D01*
X232948885Y-82267781D01*
X233120851Y-82392720D01*
X233120853Y-82392721D01*
X233120856Y-82392723D01*
X233310260Y-82489229D01*
X233512429Y-82554918D01*
X233722385Y-82588172D01*
X233722386Y-82588172D01*
X233934958Y-82588172D01*
X233934959Y-82588172D01*
X234144915Y-82554918D01*
X234347084Y-82489229D01*
X234536488Y-82392723D01*
X234592748Y-82351848D01*
X234708458Y-82267781D01*
X234708460Y-82267778D01*
X234708464Y-82267776D01*
X234858776Y-82117464D01*
X234938460Y-82007787D01*
X234993788Y-81965121D01*
X235038778Y-81956672D01*
X235328673Y-81956672D01*
X235395712Y-81976357D01*
X235441467Y-82029161D01*
X235452673Y-82080672D01*
X235452673Y-82204048D01*
X235459080Y-82263655D01*
X235509374Y-82398500D01*
X235509378Y-82398507D01*
X235595624Y-82513716D01*
X235595627Y-82513719D01*
X235710836Y-82599965D01*
X235710843Y-82599969D01*
X235845689Y-82650263D01*
X235845688Y-82650263D01*
X235852616Y-82651007D01*
X235905299Y-82656672D01*
X237701044Y-82656671D01*
X237760655Y-82650263D01*
X237895503Y-82599968D01*
X238010718Y-82513718D01*
X238096968Y-82398503D01*
X238147263Y-82263655D01*
X238153672Y-82204045D01*
X238153671Y-80811171D01*
X238173356Y-80744133D01*
X238226159Y-80698378D01*
X238277671Y-80687172D01*
X239212864Y-80687172D01*
X239242304Y-80695816D01*
X239272291Y-80702340D01*
X239277306Y-80706094D01*
X239279903Y-80706857D01*
X239300545Y-80723491D01*
X239452514Y-80875460D01*
X239485999Y-80936783D01*
X239485491Y-80984927D01*
X239486688Y-80985117D01*
X239452672Y-81199885D01*
X239452672Y-81412458D01*
X239480601Y-81588799D01*
X239485926Y-81622415D01*
X239504692Y-81680172D01*
X239551616Y-81824586D01*
X239648123Y-82013992D01*
X239773062Y-82185958D01*
X239923385Y-82336281D01*
X240095351Y-82461220D01*
X240095353Y-82461221D01*
X240095356Y-82461223D01*
X240284760Y-82557729D01*
X240486929Y-82623418D01*
X240696885Y-82656672D01*
X240696886Y-82656672D01*
X240909458Y-82656672D01*
X240909459Y-82656672D01*
X241119415Y-82623418D01*
X241321584Y-82557729D01*
X241510988Y-82461223D01*
X241581772Y-82409796D01*
X241682958Y-82336281D01*
X241682960Y-82336278D01*
X241682964Y-82336276D01*
X241833276Y-82185964D01*
X241833278Y-82185960D01*
X241833281Y-82185958D01*
X241958220Y-82013992D01*
X241958219Y-82013992D01*
X241958223Y-82013988D01*
X242054729Y-81824584D01*
X242120418Y-81622415D01*
X242153672Y-81412459D01*
X242153672Y-81199885D01*
X242120418Y-80989929D01*
X242054729Y-80787760D01*
X241958223Y-80598356D01*
X241958221Y-80598353D01*
X241958220Y-80598351D01*
X241833281Y-80426385D01*
X241746249Y-80339353D01*
X241712764Y-80278030D01*
X241717748Y-80208338D01*
X241759620Y-80152405D01*
X241825084Y-80127988D01*
X241833930Y-80127672D01*
X242653364Y-80127672D01*
X242720403Y-80147357D01*
X242741045Y-80163991D01*
X243452514Y-80875460D01*
X243485999Y-80936783D01*
X243485491Y-80984927D01*
X243486688Y-80985117D01*
X243452672Y-81199885D01*
X243452672Y-81412458D01*
X243480601Y-81588799D01*
X243485926Y-81622415D01*
X243504692Y-81680172D01*
X243551616Y-81824586D01*
X243648123Y-82013992D01*
X243773062Y-82185958D01*
X243923385Y-82336281D01*
X244095351Y-82461220D01*
X244095353Y-82461221D01*
X244095356Y-82461223D01*
X244284760Y-82557729D01*
X244486929Y-82623418D01*
X244696885Y-82656672D01*
X244696886Y-82656672D01*
X244909458Y-82656672D01*
X244909459Y-82656672D01*
X245119415Y-82623418D01*
X245321584Y-82557729D01*
X245510988Y-82461223D01*
X245581772Y-82409796D01*
X245682958Y-82336281D01*
X245682960Y-82336278D01*
X245682964Y-82336276D01*
X245833276Y-82185964D01*
X245833278Y-82185960D01*
X245833281Y-82185958D01*
X245958220Y-82013992D01*
X245958219Y-82013992D01*
X245958223Y-82013988D01*
X246054729Y-81824584D01*
X246120418Y-81622415D01*
X246153672Y-81412459D01*
X246153672Y-81199885D01*
X246120418Y-80989929D01*
X246054729Y-80787760D01*
X245958223Y-80598356D01*
X245958221Y-80598353D01*
X245958220Y-80598351D01*
X245833281Y-80426385D01*
X245682958Y-80276062D01*
X245510992Y-80151123D01*
X245321586Y-80054616D01*
X245321585Y-80054615D01*
X245321584Y-80054615D01*
X245119415Y-79988926D01*
X245119413Y-79988925D01*
X245119412Y-79988925D01*
X244958129Y-79963380D01*
X244909459Y-79955672D01*
X244696885Y-79955672D01*
X244598568Y-79971244D01*
X244482117Y-79989688D01*
X244481858Y-79988054D01*
X244419266Y-79984902D01*
X244372460Y-79955514D01*
X244255299Y-79838353D01*
X244221814Y-79777030D01*
X244226798Y-79707338D01*
X244268670Y-79651405D01*
X244334134Y-79626988D01*
X244342980Y-79626672D01*
X246152364Y-79626672D01*
X246219403Y-79646357D01*
X246240045Y-79662991D01*
X247452514Y-80875460D01*
X247485999Y-80936783D01*
X247485491Y-80984927D01*
X247486688Y-80985117D01*
X247452672Y-81199885D01*
X247452672Y-81412458D01*
X247480601Y-81588799D01*
X247485926Y-81622415D01*
X247504692Y-81680172D01*
X247551616Y-81824586D01*
X247648123Y-82013992D01*
X247773062Y-82185958D01*
X247923385Y-82336281D01*
X248095351Y-82461220D01*
X248095353Y-82461221D01*
X248095356Y-82461223D01*
X248284760Y-82557729D01*
X248486929Y-82623418D01*
X248696885Y-82656672D01*
X248696886Y-82656672D01*
X248909458Y-82656672D01*
X248909459Y-82656672D01*
X249119415Y-82623418D01*
X249321584Y-82557729D01*
X249510988Y-82461223D01*
X249581772Y-82409796D01*
X249682958Y-82336281D01*
X249682960Y-82336278D01*
X249682964Y-82336276D01*
X249833276Y-82185964D01*
X249833278Y-82185960D01*
X249833281Y-82185958D01*
X249958220Y-82013992D01*
X249958219Y-82013992D01*
X249958223Y-82013988D01*
X250054729Y-81824584D01*
X250120418Y-81622415D01*
X250153672Y-81412459D01*
X250153672Y-81199885D01*
X251452672Y-81199885D01*
X251452672Y-81412458D01*
X251480601Y-81588799D01*
X251485926Y-81622415D01*
X251504692Y-81680172D01*
X251551616Y-81824586D01*
X251648123Y-82013992D01*
X251773062Y-82185958D01*
X251923385Y-82336281D01*
X252095351Y-82461220D01*
X252095353Y-82461221D01*
X252095356Y-82461223D01*
X252284760Y-82557729D01*
X252486929Y-82623418D01*
X252696885Y-82656672D01*
X252696886Y-82656672D01*
X252909458Y-82656672D01*
X252909459Y-82656672D01*
X253119415Y-82623418D01*
X253321584Y-82557729D01*
X253510988Y-82461223D01*
X253581772Y-82409796D01*
X253682958Y-82336281D01*
X253682960Y-82336278D01*
X253682964Y-82336276D01*
X253833276Y-82185964D01*
X253833278Y-82185960D01*
X253833281Y-82185958D01*
X253958220Y-82013992D01*
X253958219Y-82013992D01*
X253958223Y-82013988D01*
X254054729Y-81824584D01*
X254120418Y-81622415D01*
X254153672Y-81412459D01*
X254153672Y-81215457D01*
X255452672Y-81215457D01*
X255452672Y-81428031D01*
X255454543Y-81439841D01*
X255483459Y-81622415D01*
X255485926Y-81637987D01*
X255549547Y-81833792D01*
X255551616Y-81840158D01*
X255648123Y-82029564D01*
X255773062Y-82201530D01*
X255923385Y-82351853D01*
X256095351Y-82476792D01*
X256095353Y-82476793D01*
X256095356Y-82476795D01*
X256284760Y-82573301D01*
X256486929Y-82638990D01*
X256696885Y-82672244D01*
X256696886Y-82672244D01*
X256909458Y-82672244D01*
X256909459Y-82672244D01*
X257119415Y-82638990D01*
X257321584Y-82573301D01*
X257510988Y-82476795D01*
X257567075Y-82436046D01*
X257682958Y-82351853D01*
X257682960Y-82351850D01*
X257682964Y-82351848D01*
X257833276Y-82201536D01*
X257833278Y-82201532D01*
X257833281Y-82201530D01*
X257953563Y-82035974D01*
X257958223Y-82029560D01*
X258054729Y-81840156D01*
X258120418Y-81637987D01*
X258153672Y-81428031D01*
X258153672Y-81215457D01*
X258145900Y-81166385D01*
X258682500Y-81166385D01*
X258682500Y-81378958D01*
X258715735Y-81588799D01*
X258715754Y-81588915D01*
X258770071Y-81756086D01*
X258781444Y-81791086D01*
X258877951Y-81980492D01*
X259002890Y-82152458D01*
X259153213Y-82302781D01*
X259325179Y-82427720D01*
X259325181Y-82427721D01*
X259325184Y-82427723D01*
X259514588Y-82524229D01*
X259716757Y-82589918D01*
X259926713Y-82623172D01*
X259926714Y-82623172D01*
X260139286Y-82623172D01*
X260139287Y-82623172D01*
X260349243Y-82589918D01*
X260551412Y-82524229D01*
X260740816Y-82427723D01*
X260817558Y-82371967D01*
X260912786Y-82302781D01*
X260912788Y-82302778D01*
X260912792Y-82302776D01*
X261063104Y-82152464D01*
X261063106Y-82152460D01*
X261063109Y-82152458D01*
X261188048Y-81980492D01*
X261188047Y-81980492D01*
X261188051Y-81980488D01*
X261192514Y-81971726D01*
X261240488Y-81920931D01*
X261308308Y-81904135D01*
X261374444Y-81926671D01*
X261413486Y-81971728D01*
X261417951Y-81980492D01*
X261542890Y-82152458D01*
X261693213Y-82302781D01*
X261865179Y-82427720D01*
X261865181Y-82427721D01*
X261865184Y-82427723D01*
X262054588Y-82524229D01*
X262256757Y-82589918D01*
X262466713Y-82623172D01*
X262466714Y-82623172D01*
X262679286Y-82623172D01*
X262679287Y-82623172D01*
X262889243Y-82589918D01*
X263091412Y-82524229D01*
X263280816Y-82427723D01*
X263357558Y-82371967D01*
X263452786Y-82302781D01*
X263452788Y-82302778D01*
X263452792Y-82302776D01*
X263603104Y-82152464D01*
X263603106Y-82152460D01*
X263603109Y-82152458D01*
X263728048Y-81980492D01*
X263728047Y-81980492D01*
X263728051Y-81980488D01*
X263732514Y-81971726D01*
X263780488Y-81920931D01*
X263848308Y-81904135D01*
X263914444Y-81926671D01*
X263953486Y-81971728D01*
X263957951Y-81980492D01*
X264082890Y-82152458D01*
X264233213Y-82302781D01*
X264405179Y-82427720D01*
X264405181Y-82427721D01*
X264405184Y-82427723D01*
X264594588Y-82524229D01*
X264796757Y-82589918D01*
X265006713Y-82623172D01*
X265006714Y-82623172D01*
X265219286Y-82623172D01*
X265219287Y-82623172D01*
X265429243Y-82589918D01*
X265631412Y-82524229D01*
X265820816Y-82427723D01*
X265897558Y-82371967D01*
X265992786Y-82302781D01*
X265992788Y-82302778D01*
X265992792Y-82302776D01*
X266143104Y-82152464D01*
X266143106Y-82152460D01*
X266143109Y-82152458D01*
X266228890Y-82034389D01*
X266268051Y-81980488D01*
X266272793Y-81971180D01*
X266320763Y-81920383D01*
X266388583Y-81903583D01*
X266454719Y-81926117D01*
X266493763Y-81971172D01*
X266498373Y-81980219D01*
X266537728Y-82034388D01*
X267231274Y-81340843D01*
X267256963Y-81436716D01*
X267312916Y-81533628D01*
X267392044Y-81612756D01*
X267488956Y-81668709D01*
X267584828Y-81694397D01*
X266891282Y-82387941D01*
X266891282Y-82387942D01*
X266945449Y-82427296D01*
X267134782Y-82523767D01*
X267336870Y-82589429D01*
X267546754Y-82622672D01*
X267759246Y-82622672D01*
X267969127Y-82589429D01*
X267969130Y-82589429D01*
X268171217Y-82523767D01*
X268360554Y-82427294D01*
X268414716Y-82387942D01*
X268414717Y-82387942D01*
X267721171Y-81694397D01*
X267817044Y-81668709D01*
X267913956Y-81612756D01*
X267993084Y-81533628D01*
X268049037Y-81436716D01*
X268074725Y-81340843D01*
X268768270Y-82034389D01*
X268768270Y-82034388D01*
X268807622Y-81980226D01*
X268904095Y-81790889D01*
X268969757Y-81588802D01*
X268969757Y-81588799D01*
X269003000Y-81378918D01*
X269003000Y-81166425D01*
X268969757Y-80956544D01*
X268969757Y-80956541D01*
X268904095Y-80754454D01*
X268807624Y-80565121D01*
X268768270Y-80510954D01*
X268768269Y-80510954D01*
X268074725Y-81204499D01*
X268049037Y-81108628D01*
X267993084Y-81011716D01*
X267913956Y-80932588D01*
X267817044Y-80876635D01*
X267721172Y-80850946D01*
X268414716Y-80157400D01*
X268360550Y-80118047D01*
X268171217Y-80021576D01*
X267969129Y-79955914D01*
X267759246Y-79922672D01*
X267546754Y-79922672D01*
X267336872Y-79955914D01*
X267336869Y-79955914D01*
X267134782Y-80021576D01*
X266945439Y-80118052D01*
X266891282Y-80157399D01*
X266891282Y-80157400D01*
X267584828Y-80850946D01*
X267488956Y-80876635D01*
X267392044Y-80932588D01*
X267312916Y-81011716D01*
X267256963Y-81108628D01*
X267231274Y-81204499D01*
X266537728Y-80510954D01*
X266537727Y-80510954D01*
X266498380Y-80565112D01*
X266498376Y-80565118D01*
X266493760Y-80574177D01*
X266445781Y-80624969D01*
X266377959Y-80641759D01*
X266311826Y-80619215D01*
X266272794Y-80574165D01*
X266268051Y-80564856D01*
X266268049Y-80564853D01*
X266268048Y-80564851D01*
X266143109Y-80392885D01*
X265992786Y-80242562D01*
X265820820Y-80117623D01*
X265631414Y-80021116D01*
X265631413Y-80021115D01*
X265631412Y-80021115D01*
X265429243Y-79955426D01*
X265429241Y-79955425D01*
X265429240Y-79955425D01*
X265267957Y-79929880D01*
X265219287Y-79922172D01*
X265006713Y-79922172D01*
X264958042Y-79929880D01*
X264796760Y-79955425D01*
X264734443Y-79975673D01*
X264610734Y-80015869D01*
X264594585Y-80021116D01*
X264405179Y-80117623D01*
X264233213Y-80242562D01*
X264082890Y-80392885D01*
X263957949Y-80564854D01*
X263953484Y-80573618D01*
X263905509Y-80624414D01*
X263837688Y-80641208D01*
X263771553Y-80618670D01*
X263732516Y-80573618D01*
X263728050Y-80564854D01*
X263603109Y-80392885D01*
X263452786Y-80242562D01*
X263280820Y-80117623D01*
X263091414Y-80021116D01*
X263091413Y-80021115D01*
X263091412Y-80021115D01*
X262889243Y-79955426D01*
X262889241Y-79955425D01*
X262889240Y-79955425D01*
X262727957Y-79929880D01*
X262679287Y-79922172D01*
X262466713Y-79922172D01*
X262418042Y-79929880D01*
X262256760Y-79955425D01*
X262194443Y-79975673D01*
X262070734Y-80015869D01*
X262054585Y-80021116D01*
X261865179Y-80117623D01*
X261693213Y-80242562D01*
X261542890Y-80392885D01*
X261417949Y-80564854D01*
X261413484Y-80573618D01*
X261365509Y-80624414D01*
X261297688Y-80641208D01*
X261231553Y-80618670D01*
X261192516Y-80573618D01*
X261188050Y-80564854D01*
X261063109Y-80392885D01*
X260912786Y-80242562D01*
X260740820Y-80117623D01*
X260551414Y-80021116D01*
X260551413Y-80021115D01*
X260551412Y-80021115D01*
X260349243Y-79955426D01*
X260349241Y-79955425D01*
X260349240Y-79955425D01*
X260187957Y-79929880D01*
X260139287Y-79922172D01*
X259926713Y-79922172D01*
X259878042Y-79929880D01*
X259716760Y-79955425D01*
X259654443Y-79975673D01*
X259530734Y-80015869D01*
X259514585Y-80021116D01*
X259325179Y-80117623D01*
X259153213Y-80242562D01*
X259002890Y-80392885D01*
X258877951Y-80564851D01*
X258781444Y-80754257D01*
X258715753Y-80956432D01*
X258682500Y-81166385D01*
X258145900Y-81166385D01*
X258120418Y-81005501D01*
X258054729Y-80803332D01*
X257958223Y-80613928D01*
X257958221Y-80613925D01*
X257958220Y-80613923D01*
X257833281Y-80441957D01*
X257682958Y-80291634D01*
X257510992Y-80166695D01*
X257321586Y-80070188D01*
X257321585Y-80070187D01*
X257321584Y-80070187D01*
X257119415Y-80004498D01*
X257119413Y-80004497D01*
X257119412Y-80004497D01*
X256958129Y-79978952D01*
X256909459Y-79971244D01*
X256696885Y-79971244D01*
X256648214Y-79978952D01*
X256486932Y-80004497D01*
X256438120Y-80020357D01*
X256332686Y-80054615D01*
X256284757Y-80070188D01*
X256095351Y-80166695D01*
X255923385Y-80291634D01*
X255773062Y-80441957D01*
X255648123Y-80613923D01*
X255551616Y-80803329D01*
X255485925Y-81005504D01*
X255462135Y-81155710D01*
X255452672Y-81215457D01*
X254153672Y-81215457D01*
X254153672Y-81199885D01*
X254120418Y-80989929D01*
X254054729Y-80787760D01*
X253958223Y-80598356D01*
X253958221Y-80598353D01*
X253958220Y-80598351D01*
X253833281Y-80426385D01*
X253682958Y-80276062D01*
X253510992Y-80151123D01*
X253321586Y-80054616D01*
X253321585Y-80054615D01*
X253321584Y-80054615D01*
X253119415Y-79988926D01*
X253119413Y-79988925D01*
X253119412Y-79988925D01*
X252958129Y-79963380D01*
X252909459Y-79955672D01*
X252696885Y-79955672D01*
X252648214Y-79963380D01*
X252486932Y-79988925D01*
X252284757Y-80054616D01*
X252095351Y-80151123D01*
X251923385Y-80276062D01*
X251773062Y-80426385D01*
X251648123Y-80598351D01*
X251551616Y-80787757D01*
X251551615Y-80787759D01*
X251551615Y-80787760D01*
X251534059Y-80841793D01*
X251485925Y-80989932D01*
X251452672Y-81199885D01*
X250153672Y-81199885D01*
X250120418Y-80989929D01*
X250054729Y-80787760D01*
X249958223Y-80598356D01*
X249958221Y-80598353D01*
X249958220Y-80598351D01*
X249833281Y-80426385D01*
X249682958Y-80276062D01*
X249510992Y-80151123D01*
X249321586Y-80054616D01*
X249321585Y-80054615D01*
X249321584Y-80054615D01*
X249119415Y-79988926D01*
X249119413Y-79988925D01*
X249119412Y-79988925D01*
X248958129Y-79963380D01*
X248909459Y-79955672D01*
X248696885Y-79955672D01*
X248598568Y-79971244D01*
X248482117Y-79989688D01*
X248481858Y-79988054D01*
X248419266Y-79984902D01*
X248372460Y-79955514D01*
X246887846Y-78470899D01*
X246887842Y-78470896D01*
X246887841Y-78470895D01*
X246856229Y-78449773D01*
X246811426Y-78396163D01*
X246802718Y-78326838D01*
X246832872Y-78263810D01*
X246892314Y-78227091D01*
X246925121Y-78222672D01*
X263797571Y-78222672D01*
X263882115Y-78205854D01*
X263923244Y-78197673D01*
X264041627Y-78148637D01*
X264059250Y-78136862D01*
X264148169Y-78077449D01*
X264682288Y-77543328D01*
X264743611Y-77509844D01*
X264791754Y-77510360D01*
X264791945Y-77509156D01*
X264872370Y-77521894D01*
X265006713Y-77543172D01*
X265006714Y-77543172D01*
X265219286Y-77543172D01*
X265219287Y-77543172D01*
X265429243Y-77509918D01*
X265631412Y-77444229D01*
X265820816Y-77347723D01*
X265897553Y-77291971D01*
X265992784Y-77222782D01*
X265992784Y-77222781D01*
X265992792Y-77222776D01*
X266106329Y-77109238D01*
X266167648Y-77075756D01*
X266237340Y-77080740D01*
X266293274Y-77122611D01*
X266310189Y-77153589D01*
X266359202Y-77285000D01*
X266359206Y-77285007D01*
X266445452Y-77400216D01*
X266445455Y-77400219D01*
X266560664Y-77486465D01*
X266560671Y-77486469D01*
X266695517Y-77536763D01*
X266695516Y-77536763D01*
X266697600Y-77536987D01*
X266755127Y-77543172D01*
X268550872Y-77543171D01*
X268610483Y-77536763D01*
X268745331Y-77486468D01*
X268860546Y-77400218D01*
X268946796Y-77285003D01*
X268997091Y-77150155D01*
X269003500Y-77090545D01*
X269003499Y-75294800D01*
X268997091Y-75235189D01*
X268995810Y-75231755D01*
X268946797Y-75100343D01*
X268946793Y-75100336D01*
X268860547Y-74985127D01*
X268860544Y-74985124D01*
X268745335Y-74898878D01*
X268745328Y-74898874D01*
X268610482Y-74848580D01*
X268610483Y-74848580D01*
X268550883Y-74842173D01*
X268550881Y-74842172D01*
X268550873Y-74842172D01*
X268550864Y-74842172D01*
X266755129Y-74842172D01*
X266755123Y-74842173D01*
X266695516Y-74848580D01*
X266560671Y-74898874D01*
X266560664Y-74898878D01*
X266445455Y-74985124D01*
X266445452Y-74985127D01*
X266359206Y-75100336D01*
X266359203Y-75100341D01*
X266310189Y-75231755D01*
X266268317Y-75287688D01*
X266202853Y-75312105D01*
X266134580Y-75297253D01*
X266106326Y-75276102D01*
X265992786Y-75162562D01*
X265820820Y-75037623D01*
X265631414Y-74941116D01*
X265631413Y-74941115D01*
X265631412Y-74941115D01*
X265429243Y-74875426D01*
X265429241Y-74875425D01*
X265429240Y-74875425D01*
X265267957Y-74849880D01*
X265219287Y-74842172D01*
X265006713Y-74842172D01*
X264958042Y-74849880D01*
X264796760Y-74875425D01*
X264594585Y-74941116D01*
X264405179Y-75037623D01*
X264233213Y-75162562D01*
X264082890Y-75312885D01*
X263957949Y-75484854D01*
X263953484Y-75493618D01*
X263905509Y-75544414D01*
X263837688Y-75561208D01*
X263771553Y-75538670D01*
X263732516Y-75493618D01*
X263728050Y-75484854D01*
X263603109Y-75312885D01*
X263452786Y-75162562D01*
X263280820Y-75037623D01*
X263091414Y-74941116D01*
X263091413Y-74941115D01*
X263091412Y-74941115D01*
X262889243Y-74875426D01*
X262889241Y-74875425D01*
X262889240Y-74875425D01*
X262727957Y-74849880D01*
X262679287Y-74842172D01*
X262466713Y-74842172D01*
X262356888Y-74859566D01*
X262251945Y-74876188D01*
X262251686Y-74874554D01*
X262189094Y-74871402D01*
X262142288Y-74842014D01*
X261698002Y-74397727D01*
X261698001Y-74397726D01*
X261697997Y-74397723D01*
X261591455Y-74326535D01*
X261534617Y-74302992D01*
X261473072Y-74277499D01*
X261473066Y-74277497D01*
X261347399Y-74252500D01*
X261347397Y-74252500D01*
X242142275Y-74252500D01*
X242142273Y-74252500D01*
X242016605Y-74277497D01*
X242016599Y-74277499D01*
X241898218Y-74326534D01*
X241791670Y-74397726D01*
X241233882Y-74955514D01*
X241172559Y-74988999D01*
X241124417Y-74988487D01*
X241124227Y-74989688D01*
X240994113Y-74969080D01*
X240909459Y-74955672D01*
X240696885Y-74955672D01*
X240648214Y-74963380D01*
X240486932Y-74988925D01*
X240284757Y-75054616D01*
X240095351Y-75151123D01*
X239923385Y-75276062D01*
X239773062Y-75426385D01*
X239648123Y-75598351D01*
X239551616Y-75787757D01*
X239485925Y-75989932D01*
X239452672Y-76199885D01*
X239452672Y-76412458D01*
X239484362Y-76612544D01*
X239485926Y-76622415D01*
X239551240Y-76823431D01*
X239551616Y-76824586D01*
X239648123Y-77013992D01*
X239773062Y-77185958D01*
X239923385Y-77336281D01*
X240095351Y-77461220D01*
X240095353Y-77461221D01*
X240095356Y-77461223D01*
X240284760Y-77557729D01*
X240486929Y-77623418D01*
X240696885Y-77656672D01*
X240696886Y-77656672D01*
X240909458Y-77656672D01*
X240909459Y-77656672D01*
X241119415Y-77623418D01*
X241321584Y-77557729D01*
X241510988Y-77461223D01*
X241545215Y-77436356D01*
X241682958Y-77336281D01*
X241682960Y-77336278D01*
X241682964Y-77336276D01*
X241833276Y-77185964D01*
X241833278Y-77185960D01*
X241833281Y-77185958D01*
X241958220Y-77013992D01*
X241958219Y-77013992D01*
X241958223Y-77013988D01*
X242054729Y-76824584D01*
X242120418Y-76622415D01*
X242153672Y-76412459D01*
X242153672Y-76199885D01*
X242143841Y-76137812D01*
X242119656Y-75985117D01*
X242121298Y-75984856D01*
X242124426Y-75922309D01*
X242153829Y-75875460D01*
X242295496Y-75733794D01*
X242439471Y-75589819D01*
X242500794Y-75556334D01*
X242527152Y-75553500D01*
X243468626Y-75553500D01*
X243535665Y-75573185D01*
X243581420Y-75625989D01*
X243591364Y-75695147D01*
X243579111Y-75733794D01*
X243551617Y-75787754D01*
X243485925Y-75989932D01*
X243452672Y-76199885D01*
X243452672Y-76412458D01*
X243484362Y-76612544D01*
X243485926Y-76622415D01*
X243551240Y-76823431D01*
X243551616Y-76824586D01*
X243648123Y-77013992D01*
X243773062Y-77185958D01*
X243923385Y-77336281D01*
X244095351Y-77461220D01*
X244095353Y-77461221D01*
X244095356Y-77461223D01*
X244284760Y-77557729D01*
X244486929Y-77623418D01*
X244696885Y-77656672D01*
X244696886Y-77656672D01*
X244909458Y-77656672D01*
X244909459Y-77656672D01*
X245047679Y-77634780D01*
X245124227Y-77622656D01*
X245124487Y-77624300D01*
X245187024Y-77627422D01*
X245233883Y-77656829D01*
X245654498Y-78077445D01*
X245654506Y-78077451D01*
X245686112Y-78098570D01*
X245730918Y-78152182D01*
X245739625Y-78221507D01*
X245709471Y-78284534D01*
X245650028Y-78321254D01*
X245617222Y-78325672D01*
X236967980Y-78325672D01*
X236900941Y-78305987D01*
X236880299Y-78289353D01*
X236432924Y-77841978D01*
X236399439Y-77780655D01*
X236404423Y-77710963D01*
X236446295Y-77655030D01*
X236511759Y-77630613D01*
X236540001Y-77631823D01*
X236696885Y-77656672D01*
X236696886Y-77656672D01*
X236909458Y-77656672D01*
X236909459Y-77656672D01*
X237119415Y-77623418D01*
X237321584Y-77557729D01*
X237510988Y-77461223D01*
X237545215Y-77436356D01*
X237682958Y-77336281D01*
X237682960Y-77336278D01*
X237682964Y-77336276D01*
X237833276Y-77185964D01*
X237833278Y-77185960D01*
X237833281Y-77185958D01*
X237958220Y-77013992D01*
X237958219Y-77013992D01*
X237958223Y-77013988D01*
X238054729Y-76824584D01*
X238120418Y-76622415D01*
X238153672Y-76412459D01*
X238153672Y-76199885D01*
X238120418Y-75989929D01*
X238054729Y-75787760D01*
X237958223Y-75598356D01*
X237958221Y-75598353D01*
X237958220Y-75598351D01*
X237833281Y-75426385D01*
X237682958Y-75276062D01*
X237510992Y-75151123D01*
X237321586Y-75054616D01*
X237321585Y-75054615D01*
X237321584Y-75054615D01*
X237119415Y-74988926D01*
X237119413Y-74988925D01*
X237119412Y-74988925D01*
X236958129Y-74963380D01*
X236909459Y-74955672D01*
X236696885Y-74955672D01*
X236648214Y-74963380D01*
X236486932Y-74988925D01*
X236284757Y-75054616D01*
X236095351Y-75151123D01*
X235923385Y-75276062D01*
X235773062Y-75426385D01*
X235648123Y-75598351D01*
X235551616Y-75787757D01*
X235485925Y-75989932D01*
X235452672Y-76199885D01*
X235452672Y-76412459D01*
X235452671Y-76412459D01*
X235477519Y-76569341D01*
X235473478Y-76600609D01*
X235471228Y-76632072D01*
X235469033Y-76635003D01*
X235468564Y-76638634D01*
X235448254Y-76662760D01*
X235429356Y-76688005D01*
X235425926Y-76689284D01*
X235423568Y-76692086D01*
X235393437Y-76701402D01*
X235363892Y-76712422D01*
X235360313Y-76711643D01*
X235356816Y-76712725D01*
X235326434Y-76704273D01*
X235295619Y-76697570D01*
X235291646Y-76694596D01*
X235289503Y-76694000D01*
X235267365Y-76676419D01*
X235179329Y-76588383D01*
X235145844Y-76527060D01*
X235146361Y-76478917D01*
X235145156Y-76478727D01*
X235172205Y-76307949D01*
X235179172Y-76263959D01*
X235179172Y-76051385D01*
X235145918Y-75841429D01*
X235080229Y-75639260D01*
X234983723Y-75449856D01*
X234983721Y-75449853D01*
X234983720Y-75449851D01*
X234858781Y-75277885D01*
X234708458Y-75127562D01*
X234536492Y-75002623D01*
X234347086Y-74906116D01*
X234347085Y-74906115D01*
X234347084Y-74906115D01*
X234144915Y-74840426D01*
X234144913Y-74840425D01*
X234144912Y-74840425D01*
X233983629Y-74814880D01*
X233934959Y-74807172D01*
X233722385Y-74807172D01*
X233673714Y-74814880D01*
X233512432Y-74840425D01*
X233310257Y-74906116D01*
X233120851Y-75002623D01*
X232948885Y-75127562D01*
X232798562Y-75277885D01*
X232673621Y-75449854D01*
X232669156Y-75458618D01*
X232621181Y-75509414D01*
X232553360Y-75526208D01*
X232487225Y-75503670D01*
X232448188Y-75458618D01*
X232443722Y-75449854D01*
X232318781Y-75277885D01*
X232168458Y-75127562D01*
X231996492Y-75002623D01*
X231807086Y-74906116D01*
X231807085Y-74906115D01*
X231807084Y-74906115D01*
X231604915Y-74840426D01*
X231604913Y-74840425D01*
X231604912Y-74840425D01*
X231443629Y-74814880D01*
X231394959Y-74807172D01*
X231182385Y-74807172D01*
X231133714Y-74814880D01*
X230972432Y-74840425D01*
X230770257Y-74906116D01*
X230580851Y-75002623D01*
X230408885Y-75127562D01*
X230258562Y-75277885D01*
X230133621Y-75449854D01*
X230129156Y-75458618D01*
X230081181Y-75509414D01*
X230013360Y-75526208D01*
X229947225Y-75503670D01*
X229908188Y-75458618D01*
X229903722Y-75449854D01*
X229778781Y-75277885D01*
X229628458Y-75127562D01*
X229456492Y-75002623D01*
X229267086Y-74906116D01*
X229267085Y-74906115D01*
X229267084Y-74906115D01*
X229064915Y-74840426D01*
X229064913Y-74840425D01*
X229064912Y-74840425D01*
X228903629Y-74814880D01*
X228854959Y-74807172D01*
X228642385Y-74807172D01*
X228593714Y-74814880D01*
X228432432Y-74840425D01*
X228230257Y-74906116D01*
X228040851Y-75002623D01*
X227868885Y-75127562D01*
X227718562Y-75277885D01*
X227593621Y-75449854D01*
X227588874Y-75459171D01*
X227540899Y-75509965D01*
X227473077Y-75526759D01*
X227406943Y-75504220D01*
X227367906Y-75459167D01*
X227363298Y-75450124D01*
X227323942Y-75395954D01*
X227323941Y-75395954D01*
X226630397Y-76089499D01*
X226604709Y-75993628D01*
X226548756Y-75896716D01*
X226469628Y-75817588D01*
X226372716Y-75761635D01*
X226276844Y-75735946D01*
X226970388Y-75042400D01*
X226916222Y-75003047D01*
X226726889Y-74906576D01*
X226524801Y-74840914D01*
X226314918Y-74807672D01*
X226102426Y-74807672D01*
X225892544Y-74840914D01*
X225892541Y-74840914D01*
X225690454Y-74906576D01*
X225501111Y-75003052D01*
X225446954Y-75042399D01*
X225446954Y-75042400D01*
X226140500Y-75735946D01*
X226044628Y-75761635D01*
X225947716Y-75817588D01*
X225868588Y-75896716D01*
X225812635Y-75993628D01*
X225786946Y-76089500D01*
X225093400Y-75395954D01*
X225093399Y-75395954D01*
X225054052Y-75450111D01*
X224957576Y-75639454D01*
X224891914Y-75841541D01*
X224891914Y-75841544D01*
X224858672Y-76051425D01*
X224858672Y-76263918D01*
X224891914Y-76473799D01*
X224891914Y-76473802D01*
X224957576Y-76675889D01*
X225054047Y-76865222D01*
X225093400Y-76919388D01*
X225786946Y-76225843D01*
X225812635Y-76321716D01*
X225868588Y-76418628D01*
X225947716Y-76497756D01*
X226044628Y-76553709D01*
X226140500Y-76579397D01*
X225446954Y-77272941D01*
X225446954Y-77272942D01*
X225501121Y-77312296D01*
X225690454Y-77408767D01*
X225892542Y-77474429D01*
X226102426Y-77507672D01*
X226314918Y-77507672D01*
X226524799Y-77474429D01*
X226524802Y-77474429D01*
X226726889Y-77408767D01*
X226916226Y-77312294D01*
X226970388Y-77272942D01*
X226970389Y-77272942D01*
X226276843Y-76579397D01*
X226372716Y-76553709D01*
X226469628Y-76497756D01*
X226548756Y-76418628D01*
X226604709Y-76321716D01*
X226630397Y-76225843D01*
X227323942Y-76919389D01*
X227323942Y-76919388D01*
X227363294Y-76865227D01*
X227367904Y-76856179D01*
X227415877Y-76805381D01*
X227483697Y-76788584D01*
X227549833Y-76811119D01*
X227588876Y-76856176D01*
X227593621Y-76865489D01*
X227718562Y-77037458D01*
X227868885Y-77187781D01*
X228040851Y-77312720D01*
X228040853Y-77312721D01*
X228040856Y-77312723D01*
X228230260Y-77409229D01*
X228432429Y-77474918D01*
X228642385Y-77508172D01*
X228642386Y-77508172D01*
X228854958Y-77508172D01*
X228854959Y-77508172D01*
X229064915Y-77474918D01*
X229267084Y-77409229D01*
X229456488Y-77312723D01*
X229485871Y-77291375D01*
X229628458Y-77187781D01*
X229628460Y-77187778D01*
X229628464Y-77187776D01*
X229778776Y-77037464D01*
X229778778Y-77037460D01*
X229778781Y-77037458D01*
X229903720Y-76865492D01*
X229903722Y-76865489D01*
X229903723Y-76865488D01*
X229908186Y-76856726D01*
X229956160Y-76805931D01*
X230023980Y-76789135D01*
X230090116Y-76811671D01*
X230129158Y-76856728D01*
X230133623Y-76865492D01*
X230258562Y-77037458D01*
X230408885Y-77187781D01*
X230580851Y-77312720D01*
X230580853Y-77312721D01*
X230580856Y-77312723D01*
X230770260Y-77409229D01*
X230972429Y-77474918D01*
X231182385Y-77508172D01*
X231182386Y-77508172D01*
X231394958Y-77508172D01*
X231394959Y-77508172D01*
X231604915Y-77474918D01*
X231807084Y-77409229D01*
X231996488Y-77312723D01*
X232025871Y-77291375D01*
X232168458Y-77187781D01*
X232168460Y-77187778D01*
X232168464Y-77187776D01*
X232318776Y-77037464D01*
X232318778Y-77037460D01*
X232318781Y-77037458D01*
X232443720Y-76865492D01*
X232443722Y-76865489D01*
X232443723Y-76865488D01*
X232448186Y-76856726D01*
X232496160Y-76805931D01*
X232563980Y-76789135D01*
X232630116Y-76811671D01*
X232669158Y-76856728D01*
X232673623Y-76865492D01*
X232798562Y-77037458D01*
X232948885Y-77187781D01*
X233120851Y-77312720D01*
X233120853Y-77312721D01*
X233120856Y-77312723D01*
X233310260Y-77409229D01*
X233512429Y-77474918D01*
X233722385Y-77508172D01*
X233722386Y-77508172D01*
X233934958Y-77508172D01*
X233934959Y-77508172D01*
X234049445Y-77490039D01*
X234149727Y-77474156D01*
X234149987Y-77475800D01*
X234212524Y-77478922D01*
X234259383Y-77508329D01*
X235366045Y-78614991D01*
X235399530Y-78676314D01*
X235394546Y-78746006D01*
X235352674Y-78801939D01*
X235287210Y-78826356D01*
X235278364Y-78826672D01*
X230445101Y-78826672D01*
X230319433Y-78851669D01*
X230319427Y-78851671D01*
X230201046Y-78900706D01*
X230094498Y-78971898D01*
X229179382Y-79887014D01*
X229118059Y-79920499D01*
X229069917Y-79919987D01*
X229069727Y-79921188D01*
X228946192Y-79901622D01*
X228854959Y-79887172D01*
X228642385Y-79887172D01*
X228593714Y-79894880D01*
X228432432Y-79920425D01*
X228230257Y-79986116D01*
X228040851Y-80082623D01*
X227868887Y-80207561D01*
X227755345Y-80321103D01*
X227694022Y-80354587D01*
X227624330Y-80349603D01*
X227568397Y-80307731D01*
X227551482Y-80276754D01*
X227502469Y-80145343D01*
X227502465Y-80145336D01*
X227416219Y-80030127D01*
X227416216Y-80030124D01*
X227301007Y-79943878D01*
X227301000Y-79943874D01*
X227166154Y-79893580D01*
X227166155Y-79893580D01*
X227106555Y-79887173D01*
X227106553Y-79887172D01*
X227106545Y-79887172D01*
X227106536Y-79887172D01*
X225310801Y-79887172D01*
X225310795Y-79887173D01*
X225251188Y-79893580D01*
X225116343Y-79943874D01*
X225116336Y-79943878D01*
X225001127Y-80030124D01*
X225001124Y-80030127D01*
X224914878Y-80145336D01*
X224914874Y-80145343D01*
X224864580Y-80280189D01*
X224858173Y-80339788D01*
X224858172Y-80339807D01*
X220994982Y-80339807D01*
X221085992Y-80248797D01*
X221177388Y-80157400D01*
X221123222Y-80118047D01*
X220933889Y-80021576D01*
X220731801Y-79955914D01*
X220521918Y-79922672D01*
X220309426Y-79922672D01*
X220099544Y-79955914D01*
X220099541Y-79955914D01*
X219897454Y-80021576D01*
X219708111Y-80118052D01*
X219653954Y-80157399D01*
X219653954Y-80157400D01*
X220347500Y-80850946D01*
X220251628Y-80876635D01*
X220154716Y-80932588D01*
X220075588Y-81011716D01*
X220019635Y-81108628D01*
X219993946Y-81204500D01*
X219300400Y-80510954D01*
X219300399Y-80510954D01*
X219261052Y-80565112D01*
X219261048Y-80565118D01*
X219256432Y-80574177D01*
X219208453Y-80624969D01*
X219140631Y-80641759D01*
X219074498Y-80619215D01*
X219035466Y-80574165D01*
X219030723Y-80564856D01*
X219030721Y-80564853D01*
X219030720Y-80564851D01*
X218905781Y-80392885D01*
X218755458Y-80242562D01*
X218583492Y-80117623D01*
X218394086Y-80021116D01*
X218394085Y-80021115D01*
X218394084Y-80021115D01*
X218191915Y-79955426D01*
X218191913Y-79955425D01*
X218191912Y-79955425D01*
X218030629Y-79929880D01*
X217981959Y-79922172D01*
X217769385Y-79922172D01*
X217720714Y-79929880D01*
X217559432Y-79955425D01*
X217497115Y-79975673D01*
X217373406Y-80015869D01*
X217357257Y-80021116D01*
X217167851Y-80117623D01*
X216995885Y-80242562D01*
X216845562Y-80392885D01*
X216720621Y-80564854D01*
X216716156Y-80573618D01*
X216668181Y-80624414D01*
X216600360Y-80641208D01*
X216534225Y-80618670D01*
X216495188Y-80573618D01*
X216490722Y-80564854D01*
X216365781Y-80392885D01*
X216215458Y-80242562D01*
X216043492Y-80117623D01*
X215854086Y-80021116D01*
X215854085Y-80021115D01*
X215854084Y-80021115D01*
X215651915Y-79955426D01*
X215651913Y-79955425D01*
X215651912Y-79955425D01*
X215490629Y-79929880D01*
X215441959Y-79922172D01*
X215365479Y-79922172D01*
X215298440Y-79902487D01*
X215252685Y-79849683D01*
X215242741Y-79780525D01*
X215271766Y-79716969D01*
X215277798Y-79710491D01*
X216361106Y-78627183D01*
X217444961Y-77543327D01*
X217506282Y-77509844D01*
X217554426Y-77510357D01*
X217554617Y-77509156D01*
X217635042Y-77521894D01*
X217769385Y-77543172D01*
X217769386Y-77543172D01*
X217981958Y-77543172D01*
X217981959Y-77543172D01*
X218191915Y-77509918D01*
X218394084Y-77444229D01*
X218583488Y-77347723D01*
X218660225Y-77291971D01*
X218755456Y-77222782D01*
X218755456Y-77222781D01*
X218755464Y-77222776D01*
X218869001Y-77109238D01*
X218930320Y-77075756D01*
X219000012Y-77080740D01*
X219055946Y-77122611D01*
X219072861Y-77153589D01*
X219121874Y-77285000D01*
X219121878Y-77285007D01*
X219208124Y-77400216D01*
X219208127Y-77400219D01*
X219323336Y-77486465D01*
X219323343Y-77486469D01*
X219458189Y-77536763D01*
X219458188Y-77536763D01*
X219460272Y-77536987D01*
X219517799Y-77543172D01*
X221313544Y-77543171D01*
X221373155Y-77536763D01*
X221508003Y-77486468D01*
X221623218Y-77400218D01*
X221709468Y-77285003D01*
X221759763Y-77150155D01*
X221766172Y-77090545D01*
X221766171Y-75294800D01*
X221759763Y-75235189D01*
X221758482Y-75231755D01*
X221721646Y-75132992D01*
X221721645Y-75132990D01*
X221709470Y-75100345D01*
X221709465Y-75100336D01*
X221623219Y-74985127D01*
X221623216Y-74985124D01*
X221508007Y-74898878D01*
X221508000Y-74898874D01*
X221373154Y-74848580D01*
X221373155Y-74848580D01*
X221313555Y-74842173D01*
X221313553Y-74842172D01*
X221313545Y-74842172D01*
X221313536Y-74842172D01*
X219517801Y-74842172D01*
X219517795Y-74842173D01*
X219458188Y-74848580D01*
X219323343Y-74898874D01*
X219323336Y-74898878D01*
X219208127Y-74985124D01*
X219208124Y-74985127D01*
X219121878Y-75100336D01*
X219121875Y-75100341D01*
X219072861Y-75231755D01*
X219030989Y-75287688D01*
X218965525Y-75312105D01*
X218897252Y-75297253D01*
X218868998Y-75276102D01*
X218755458Y-75162562D01*
X218583492Y-75037623D01*
X218394086Y-74941116D01*
X218394085Y-74941115D01*
X218394084Y-74941115D01*
X218191915Y-74875426D01*
X218191913Y-74875425D01*
X218191912Y-74875425D01*
X218030629Y-74849880D01*
X217981959Y-74842172D01*
X217769385Y-74842172D01*
X217720714Y-74849880D01*
X217559432Y-74875425D01*
X217357257Y-74941116D01*
X217167851Y-75037623D01*
X216995885Y-75162562D01*
X216845562Y-75312885D01*
X216720621Y-75484854D01*
X216716156Y-75493618D01*
X216668181Y-75544414D01*
X216600360Y-75561208D01*
X216534225Y-75538670D01*
X216495188Y-75493618D01*
X216490722Y-75484854D01*
X216365781Y-75312885D01*
X216215458Y-75162562D01*
X216043492Y-75037623D01*
X215854086Y-74941116D01*
X215854085Y-74941115D01*
X215854084Y-74941115D01*
X215651915Y-74875426D01*
X215651913Y-74875425D01*
X215651912Y-74875425D01*
X215490629Y-74849880D01*
X215441959Y-74842172D01*
X215229385Y-74842172D01*
X215180714Y-74849880D01*
X215019432Y-74875425D01*
X214817257Y-74941116D01*
X214627851Y-75037623D01*
X214455885Y-75162562D01*
X214305562Y-75312885D01*
X214180621Y-75484854D01*
X214176156Y-75493618D01*
X214128181Y-75544414D01*
X214060360Y-75561208D01*
X213994225Y-75538670D01*
X213955188Y-75493618D01*
X213950722Y-75484854D01*
X213825781Y-75312885D01*
X213675458Y-75162562D01*
X213503492Y-75037623D01*
X213314086Y-74941116D01*
X213314085Y-74941115D01*
X213314084Y-74941115D01*
X213111915Y-74875426D01*
X213111913Y-74875425D01*
X213111912Y-74875425D01*
X212950629Y-74849880D01*
X212901959Y-74842172D01*
X212689385Y-74842172D01*
X212640714Y-74849880D01*
X212479432Y-74875425D01*
X212277257Y-74941116D01*
X212087851Y-75037623D01*
X211915885Y-75162562D01*
X211765562Y-75312885D01*
X211640623Y-75484851D01*
X211544116Y-75674257D01*
X211478425Y-75876432D01*
X211447944Y-76068885D01*
X211445172Y-76086385D01*
X211445172Y-76298959D01*
X211461063Y-76399292D01*
X211479188Y-76513727D01*
X211477549Y-76513986D01*
X211474410Y-76576555D01*
X211445014Y-76623382D01*
X211004129Y-77064267D01*
X210942806Y-77097752D01*
X210873114Y-77092768D01*
X210817181Y-77050896D01*
X210792764Y-76985432D01*
X210805964Y-76920290D01*
X210806186Y-76919856D01*
X210854729Y-76824584D01*
X210920418Y-76622415D01*
X210953672Y-76412459D01*
X210953672Y-76199885D01*
X210920418Y-75989929D01*
X210854729Y-75787760D01*
X210758223Y-75598356D01*
X210758221Y-75598353D01*
X210758220Y-75598351D01*
X210633281Y-75426385D01*
X210482958Y-75276062D01*
X210310992Y-75151123D01*
X210121586Y-75054616D01*
X210121585Y-75054615D01*
X210121584Y-75054615D01*
X209919415Y-74988926D01*
X209919413Y-74988925D01*
X209919412Y-74988925D01*
X209758129Y-74963380D01*
X209709459Y-74955672D01*
X209496885Y-74955672D01*
X209448214Y-74963380D01*
X209286932Y-74988925D01*
X209084757Y-75054616D01*
X208895351Y-75151123D01*
X208723385Y-75276062D01*
X208573062Y-75426385D01*
X208448123Y-75598351D01*
X208351616Y-75787757D01*
X208285925Y-75989932D01*
X208259358Y-76157671D01*
X208252672Y-76199885D01*
X208252672Y-76412459D01*
X208266182Y-76497756D01*
X208286688Y-76627227D01*
X208285049Y-76627486D01*
X208281910Y-76690055D01*
X208252514Y-76736882D01*
X207589045Y-77400353D01*
X207527722Y-77433838D01*
X207501364Y-77436672D01*
X206681930Y-77436672D01*
X206614891Y-77416987D01*
X206569136Y-77364183D01*
X206559192Y-77295025D01*
X206588217Y-77231469D01*
X206594249Y-77224991D01*
X206603558Y-77215682D01*
X206633276Y-77185964D01*
X206633278Y-77185960D01*
X206633281Y-77185958D01*
X206758220Y-77013992D01*
X206758219Y-77013992D01*
X206758223Y-77013988D01*
X206854729Y-76824584D01*
X206920418Y-76622415D01*
X206953672Y-76412459D01*
X206953672Y-76199885D01*
X206920418Y-75989929D01*
X206854729Y-75787760D01*
X206758223Y-75598356D01*
X206758221Y-75598353D01*
X206758220Y-75598351D01*
X206633281Y-75426385D01*
X206482958Y-75276062D01*
X206310992Y-75151123D01*
X206121586Y-75054616D01*
X206121585Y-75054615D01*
X206121584Y-75054615D01*
X205919415Y-74988926D01*
X205919413Y-74988925D01*
X205919412Y-74988925D01*
X205758129Y-74963380D01*
X205709459Y-74955672D01*
X205496885Y-74955672D01*
X205448214Y-74963380D01*
X205286932Y-74988925D01*
X205084757Y-75054616D01*
X204895351Y-75151123D01*
X204723385Y-75276062D01*
X204573062Y-75426385D01*
X204448123Y-75598351D01*
X204351616Y-75787757D01*
X204285925Y-75989932D01*
X204252672Y-76199885D01*
X204252672Y-76412458D01*
X204284362Y-76612544D01*
X204285926Y-76622415D01*
X204351240Y-76823431D01*
X204351616Y-76824586D01*
X204448123Y-77013992D01*
X204573062Y-77185958D01*
X204612095Y-77224991D01*
X204645580Y-77286314D01*
X204640596Y-77356006D01*
X204598724Y-77411939D01*
X204533260Y-77436356D01*
X204524414Y-77436672D01*
X202681930Y-77436672D01*
X202614891Y-77416987D01*
X202569136Y-77364183D01*
X202559192Y-77295025D01*
X202588217Y-77231469D01*
X202594249Y-77224991D01*
X202603558Y-77215682D01*
X202633276Y-77185964D01*
X202633278Y-77185960D01*
X202633281Y-77185958D01*
X202758220Y-77013992D01*
X202758219Y-77013992D01*
X202758223Y-77013988D01*
X202854729Y-76824584D01*
X202920418Y-76622415D01*
X202953672Y-76412459D01*
X202953672Y-76199885D01*
X202920418Y-75989929D01*
X202854729Y-75787760D01*
X202758223Y-75598356D01*
X202758221Y-75598353D01*
X202758220Y-75598351D01*
X202633281Y-75426385D01*
X202482958Y-75276062D01*
X202310992Y-75151123D01*
X202121586Y-75054616D01*
X202121585Y-75054615D01*
X202121584Y-75054615D01*
X201919415Y-74988926D01*
X201919413Y-74988925D01*
X201919412Y-74988925D01*
X201758129Y-74963380D01*
X201709459Y-74955672D01*
X201496885Y-74955672D01*
X201448214Y-74963380D01*
X201286932Y-74988925D01*
X201084757Y-75054616D01*
X200895351Y-75151123D01*
X200723385Y-75276062D01*
X200573062Y-75426385D01*
X200448123Y-75598351D01*
X200351616Y-75787757D01*
X200285925Y-75989932D01*
X200252672Y-76199885D01*
X200252672Y-76412458D01*
X200284362Y-76612544D01*
X200285926Y-76622415D01*
X200351240Y-76823431D01*
X200351616Y-76824586D01*
X200448123Y-77013992D01*
X200573062Y-77185958D01*
X200612095Y-77224991D01*
X200645580Y-77286314D01*
X200640596Y-77356006D01*
X200598724Y-77411939D01*
X200533260Y-77436356D01*
X200524414Y-77436672D01*
X198681930Y-77436672D01*
X198614891Y-77416987D01*
X198569136Y-77364183D01*
X198559192Y-77295025D01*
X198588217Y-77231469D01*
X198594249Y-77224991D01*
X198603558Y-77215682D01*
X198633276Y-77185964D01*
X198633278Y-77185960D01*
X198633281Y-77185958D01*
X198758220Y-77013992D01*
X198758219Y-77013992D01*
X198758223Y-77013988D01*
X198854729Y-76824584D01*
X198920418Y-76622415D01*
X198953672Y-76412459D01*
X198953672Y-76199885D01*
X198920418Y-75989929D01*
X198854729Y-75787760D01*
X198758223Y-75598356D01*
X198758221Y-75598353D01*
X198758220Y-75598351D01*
X198633281Y-75426385D01*
X198482958Y-75276062D01*
X198310992Y-75151123D01*
X198121586Y-75054616D01*
X198121585Y-75054615D01*
X198121584Y-75054615D01*
X197919415Y-74988926D01*
X197919413Y-74988925D01*
X197919412Y-74988925D01*
X197758129Y-74963380D01*
X197709459Y-74955672D01*
X197496885Y-74955672D01*
X197448214Y-74963380D01*
X197286932Y-74988925D01*
X197084757Y-75054616D01*
X196895351Y-75151123D01*
X196723385Y-75276062D01*
X196573062Y-75426385D01*
X196448123Y-75598351D01*
X196351616Y-75787757D01*
X196285925Y-75989932D01*
X196252672Y-76199885D01*
X196252672Y-76412458D01*
X196284362Y-76612544D01*
X196285926Y-76622415D01*
X196351240Y-76823431D01*
X196351616Y-76824586D01*
X196448123Y-77013992D01*
X196573062Y-77185958D01*
X196612095Y-77224991D01*
X196645580Y-77286314D01*
X196640596Y-77356006D01*
X196598724Y-77411939D01*
X196533260Y-77436356D01*
X196524414Y-77436672D01*
X194681930Y-77436672D01*
X194614891Y-77416987D01*
X194569136Y-77364183D01*
X194559192Y-77295025D01*
X194588217Y-77231469D01*
X194594249Y-77224991D01*
X194603558Y-77215682D01*
X194633276Y-77185964D01*
X194633278Y-77185960D01*
X194633281Y-77185958D01*
X194758220Y-77013992D01*
X194758219Y-77013992D01*
X194758223Y-77013988D01*
X194854729Y-76824584D01*
X194920418Y-76622415D01*
X194953672Y-76412459D01*
X194953672Y-76199885D01*
X194920418Y-75989929D01*
X194854729Y-75787760D01*
X194758223Y-75598356D01*
X194758221Y-75598353D01*
X194758220Y-75598351D01*
X194633281Y-75426385D01*
X194482958Y-75276062D01*
X194310992Y-75151123D01*
X194121586Y-75054616D01*
X194121585Y-75054615D01*
X194121584Y-75054615D01*
X193919415Y-74988926D01*
X193919413Y-74988925D01*
X193919412Y-74988925D01*
X193758129Y-74963380D01*
X193709459Y-74955672D01*
X193496885Y-74955672D01*
X193448214Y-74963380D01*
X193286932Y-74988925D01*
X193084757Y-75054616D01*
X192895351Y-75151123D01*
X192723385Y-75276062D01*
X192573062Y-75426385D01*
X192448123Y-75598351D01*
X192351616Y-75787757D01*
X192285925Y-75989932D01*
X192259358Y-76157671D01*
X192252672Y-76199885D01*
X192252672Y-76412459D01*
X192266182Y-76497756D01*
X192286688Y-76627227D01*
X192285049Y-76627486D01*
X192284891Y-76630635D01*
X192288517Y-76640354D01*
X192283170Y-76664931D01*
X192281910Y-76690055D01*
X192275476Y-76700303D01*
X192273666Y-76708627D01*
X192252514Y-76736882D01*
X192090043Y-76899354D01*
X192028723Y-76932838D01*
X192002364Y-76935672D01*
X191869440Y-76935672D01*
X191743772Y-76960669D01*
X191743766Y-76960671D01*
X191625381Y-77009707D01*
X191518842Y-77080894D01*
X191518835Y-77080900D01*
X189936386Y-78663353D01*
X189875063Y-78696838D01*
X189848705Y-78699672D01*
X188428980Y-78699672D01*
X188361941Y-78679987D01*
X188316186Y-78627183D01*
X188306242Y-78558025D01*
X188335267Y-78494469D01*
X188341299Y-78487991D01*
X188544756Y-78284534D01*
X189172461Y-77656827D01*
X189233782Y-77623344D01*
X189281926Y-77623857D01*
X189282117Y-77622656D01*
X189358665Y-77634780D01*
X189496885Y-77656672D01*
X189496886Y-77656672D01*
X189709458Y-77656672D01*
X189709459Y-77656672D01*
X189919415Y-77623418D01*
X190121584Y-77557729D01*
X190310988Y-77461223D01*
X190345215Y-77436356D01*
X190482958Y-77336281D01*
X190482960Y-77336278D01*
X190482964Y-77336276D01*
X190633276Y-77185964D01*
X190633278Y-77185960D01*
X190633281Y-77185958D01*
X190758220Y-77013992D01*
X190758219Y-77013992D01*
X190758223Y-77013988D01*
X190854729Y-76824584D01*
X190920418Y-76622415D01*
X190953672Y-76412459D01*
X190953672Y-76199885D01*
X190920418Y-75989929D01*
X190854729Y-75787760D01*
X190758223Y-75598356D01*
X190758221Y-75598353D01*
X190758220Y-75598351D01*
X190633281Y-75426385D01*
X190482958Y-75276062D01*
X190310992Y-75151123D01*
X190121586Y-75054616D01*
X190121585Y-75054615D01*
X190121584Y-75054615D01*
X189919415Y-74988926D01*
X189919413Y-74988925D01*
X189919412Y-74988925D01*
X189758129Y-74963380D01*
X189709459Y-74955672D01*
X189496885Y-74955672D01*
X189448214Y-74963380D01*
X189286932Y-74988925D01*
X189084757Y-75054616D01*
X188895351Y-75151123D01*
X188723385Y-75276062D01*
X188573062Y-75426385D01*
X188448123Y-75598351D01*
X188351616Y-75787757D01*
X188285925Y-75989932D01*
X188259358Y-76157671D01*
X188252672Y-76199885D01*
X188252672Y-76412459D01*
X188266182Y-76497756D01*
X188286688Y-76627227D01*
X188285049Y-76627486D01*
X188281910Y-76690055D01*
X188252514Y-76736882D01*
X187469045Y-77520353D01*
X187407722Y-77553838D01*
X187381364Y-77556672D01*
X186561031Y-77556672D01*
X186493992Y-77536987D01*
X186448237Y-77484183D01*
X186438293Y-77415025D01*
X186467318Y-77351469D01*
X186480489Y-77338391D01*
X186482959Y-77336280D01*
X186482960Y-77336278D01*
X186482964Y-77336276D01*
X186633276Y-77185964D01*
X186633278Y-77185960D01*
X186633281Y-77185958D01*
X186758220Y-77013992D01*
X186758219Y-77013992D01*
X186758223Y-77013988D01*
X186854729Y-76824584D01*
X186920418Y-76622415D01*
X186953672Y-76412459D01*
X186953672Y-76199885D01*
X186920418Y-75989929D01*
X186854729Y-75787760D01*
X186758223Y-75598356D01*
X186758221Y-75598353D01*
X186758220Y-75598351D01*
X186633281Y-75426385D01*
X186482958Y-75276062D01*
X186310992Y-75151123D01*
X186121586Y-75054616D01*
X186121585Y-75054615D01*
X186121584Y-75054615D01*
X185919415Y-74988926D01*
X185919413Y-74988925D01*
X185919412Y-74988925D01*
X185758129Y-74963380D01*
X185709459Y-74955672D01*
X185496885Y-74955672D01*
X185448214Y-74963380D01*
X185286932Y-74988925D01*
X185084757Y-75054616D01*
X184895351Y-75151123D01*
X184723385Y-75276062D01*
X184573062Y-75426385D01*
X184448123Y-75598351D01*
X184351616Y-75787757D01*
X184285925Y-75989932D01*
X184252672Y-76199885D01*
X184252672Y-76412458D01*
X184284362Y-76612544D01*
X184285926Y-76622415D01*
X184351240Y-76823431D01*
X184351616Y-76824586D01*
X184448123Y-77013992D01*
X184573062Y-77185958D01*
X184723384Y-77336280D01*
X184725855Y-77338391D01*
X184726531Y-77339427D01*
X184726825Y-77339721D01*
X184726763Y-77339782D01*
X184764042Y-77396902D01*
X184764533Y-77466770D01*
X184727172Y-77525812D01*
X184663822Y-77555283D01*
X184645313Y-77556672D01*
X182561031Y-77556672D01*
X182493992Y-77536987D01*
X182448237Y-77484183D01*
X182438293Y-77415025D01*
X182467318Y-77351469D01*
X182480489Y-77338391D01*
X182482959Y-77336280D01*
X182482960Y-77336278D01*
X182482964Y-77336276D01*
X182633276Y-77185964D01*
X182633278Y-77185960D01*
X182633281Y-77185958D01*
X182758220Y-77013992D01*
X182758219Y-77013992D01*
X182758223Y-77013988D01*
X182854729Y-76824584D01*
X182920418Y-76622415D01*
X182953672Y-76412459D01*
X182953672Y-76199885D01*
X182920418Y-75989929D01*
X182854729Y-75787760D01*
X182758223Y-75598356D01*
X182758221Y-75598353D01*
X182758220Y-75598351D01*
X182633281Y-75426385D01*
X182482958Y-75276062D01*
X182310992Y-75151123D01*
X182121586Y-75054616D01*
X182121585Y-75054615D01*
X182121584Y-75054615D01*
X181919415Y-74988926D01*
X181919413Y-74988925D01*
X181919412Y-74988925D01*
X181758129Y-74963380D01*
X181709459Y-74955672D01*
X181496885Y-74955672D01*
X181448214Y-74963380D01*
X181286932Y-74988925D01*
X181084757Y-75054616D01*
X180895351Y-75151123D01*
X180723385Y-75276062D01*
X180573062Y-75426385D01*
X180448123Y-75598351D01*
X180351616Y-75787757D01*
X180285925Y-75989932D01*
X180252672Y-76199885D01*
X180252672Y-76412458D01*
X180284362Y-76612544D01*
X180285926Y-76622415D01*
X180351240Y-76823431D01*
X180351616Y-76824586D01*
X180448123Y-77013992D01*
X180573062Y-77185958D01*
X180723384Y-77336280D01*
X180725855Y-77338391D01*
X180726531Y-77339427D01*
X180726825Y-77339721D01*
X180726763Y-77339782D01*
X180764042Y-77396902D01*
X180764533Y-77466770D01*
X180727172Y-77525812D01*
X180663822Y-77555283D01*
X180645313Y-77556672D01*
X178561031Y-77556672D01*
X178493992Y-77536987D01*
X178448237Y-77484183D01*
X178438293Y-77415025D01*
X178467318Y-77351469D01*
X178480489Y-77338391D01*
X178482959Y-77336280D01*
X178482960Y-77336278D01*
X178482964Y-77336276D01*
X178633276Y-77185964D01*
X178633278Y-77185960D01*
X178633281Y-77185958D01*
X178758220Y-77013992D01*
X178758219Y-77013992D01*
X178758223Y-77013988D01*
X178854729Y-76824584D01*
X178920418Y-76622415D01*
X178953672Y-76412459D01*
X178953672Y-76199885D01*
X178920418Y-75989929D01*
X178854729Y-75787760D01*
X178758223Y-75598356D01*
X178758221Y-75598353D01*
X178758220Y-75598351D01*
X178633281Y-75426385D01*
X178482958Y-75276062D01*
X178310992Y-75151123D01*
X178121586Y-75054616D01*
X178121585Y-75054615D01*
X178121584Y-75054615D01*
X177919415Y-74988926D01*
X177919413Y-74988925D01*
X177919412Y-74988925D01*
X177758129Y-74963380D01*
X177709459Y-74955672D01*
X177496885Y-74955672D01*
X177448214Y-74963380D01*
X177286932Y-74988925D01*
X177084757Y-75054616D01*
X176895351Y-75151123D01*
X176723385Y-75276062D01*
X176573062Y-75426385D01*
X176448123Y-75598351D01*
X176351616Y-75787757D01*
X176285925Y-75989932D01*
X176252672Y-76199885D01*
X176252672Y-76412458D01*
X176284362Y-76612544D01*
X176285926Y-76622415D01*
X176351240Y-76823431D01*
X176351616Y-76824586D01*
X176448123Y-77013992D01*
X176573062Y-77185958D01*
X176723384Y-77336280D01*
X176725855Y-77338391D01*
X176726531Y-77339427D01*
X176726825Y-77339721D01*
X176726763Y-77339782D01*
X176764042Y-77396902D01*
X176764533Y-77466770D01*
X176727172Y-77525812D01*
X176663822Y-77555283D01*
X176645313Y-77556672D01*
X174561031Y-77556672D01*
X174493992Y-77536987D01*
X174448237Y-77484183D01*
X174438293Y-77415025D01*
X174467318Y-77351469D01*
X174480489Y-77338391D01*
X174482959Y-77336280D01*
X174482960Y-77336278D01*
X174482964Y-77336276D01*
X174633276Y-77185964D01*
X174633278Y-77185960D01*
X174633281Y-77185958D01*
X174758220Y-77013992D01*
X174758219Y-77013992D01*
X174758223Y-77013988D01*
X174854729Y-76824584D01*
X174920418Y-76622415D01*
X174953672Y-76412459D01*
X174953672Y-76199885D01*
X174920418Y-75989929D01*
X174854729Y-75787760D01*
X174758223Y-75598356D01*
X174758221Y-75598353D01*
X174758220Y-75598351D01*
X174633281Y-75426385D01*
X174482958Y-75276062D01*
X174310992Y-75151123D01*
X174121586Y-75054616D01*
X174121585Y-75054615D01*
X174121584Y-75054615D01*
X173919415Y-74988926D01*
X173919413Y-74988925D01*
X173919412Y-74988925D01*
X173758129Y-74963380D01*
X173709459Y-74955672D01*
X173496885Y-74955672D01*
X173448214Y-74963380D01*
X173286932Y-74988925D01*
X173084757Y-75054616D01*
X172895351Y-75151123D01*
X172723385Y-75276062D01*
X172573062Y-75426385D01*
X172448123Y-75598351D01*
X172351616Y-75787757D01*
X172285925Y-75989932D01*
X172252672Y-76199885D01*
X172252672Y-76412458D01*
X172284362Y-76612544D01*
X172285926Y-76622415D01*
X172351240Y-76823431D01*
X172351616Y-76824586D01*
X172448123Y-77013992D01*
X172573062Y-77185958D01*
X172723384Y-77336280D01*
X172725855Y-77338391D01*
X172726531Y-77339427D01*
X172726825Y-77339721D01*
X172726763Y-77339782D01*
X172764042Y-77396902D01*
X172764533Y-77466770D01*
X172727172Y-77525812D01*
X172663822Y-77555283D01*
X172645313Y-77556672D01*
X170561031Y-77556672D01*
X170493992Y-77536987D01*
X170448237Y-77484183D01*
X170438293Y-77415025D01*
X170467318Y-77351469D01*
X170480489Y-77338391D01*
X170482959Y-77336280D01*
X170482960Y-77336278D01*
X170482964Y-77336276D01*
X170633276Y-77185964D01*
X170633278Y-77185960D01*
X170633281Y-77185958D01*
X170758220Y-77013992D01*
X170758219Y-77013992D01*
X170758223Y-77013988D01*
X170854729Y-76824584D01*
X170920418Y-76622415D01*
X170953672Y-76412459D01*
X170953672Y-76199885D01*
X170920418Y-75989929D01*
X170854729Y-75787760D01*
X170758223Y-75598356D01*
X170758221Y-75598353D01*
X170758220Y-75598351D01*
X170633281Y-75426385D01*
X170482958Y-75276062D01*
X170310992Y-75151123D01*
X170121586Y-75054616D01*
X170121585Y-75054615D01*
X170121584Y-75054615D01*
X169919415Y-74988926D01*
X169919413Y-74988925D01*
X169919412Y-74988925D01*
X169758129Y-74963380D01*
X169709459Y-74955672D01*
X169496885Y-74955672D01*
X169412231Y-74969080D01*
X169282117Y-74989688D01*
X169281858Y-74988054D01*
X169219266Y-74984902D01*
X169172460Y-74955514D01*
X168202346Y-73985399D01*
X168202345Y-73985398D01*
X168202341Y-73985395D01*
X168095799Y-73914207D01*
X167977416Y-73865171D01*
X167977410Y-73865169D01*
X167851743Y-73840172D01*
X167851741Y-73840172D01*
X139499132Y-73840172D01*
X139499130Y-73840172D01*
X139373462Y-73865169D01*
X139373456Y-73865171D01*
X139255071Y-73914207D01*
X139148532Y-73985394D01*
X139148525Y-73985400D01*
X138050991Y-75082934D01*
X137989668Y-75116419D01*
X137919976Y-75111435D01*
X137890425Y-75095571D01*
X137762492Y-75002623D01*
X137573086Y-74906116D01*
X137573085Y-74906115D01*
X137573084Y-74906115D01*
X137370915Y-74840426D01*
X137370913Y-74840425D01*
X137370912Y-74840425D01*
X137209629Y-74814880D01*
X137160959Y-74807172D01*
X136948385Y-74807172D01*
X136899714Y-74814880D01*
X136738432Y-74840425D01*
X136536257Y-74906116D01*
X136346851Y-75002623D01*
X136174885Y-75127562D01*
X136024562Y-75277885D01*
X135899621Y-75449854D01*
X135895156Y-75458618D01*
X135847181Y-75509414D01*
X135779360Y-75526208D01*
X135713225Y-75503670D01*
X135674188Y-75458618D01*
X135669722Y-75449854D01*
X135544781Y-75277885D01*
X135394458Y-75127562D01*
X135222492Y-75002623D01*
X135033086Y-74906116D01*
X135033085Y-74906115D01*
X135033084Y-74906115D01*
X134830915Y-74840426D01*
X134830913Y-74840425D01*
X134830912Y-74840425D01*
X134669629Y-74814880D01*
X134620959Y-74807172D01*
X134408385Y-74807172D01*
X134359714Y-74814880D01*
X134198432Y-74840425D01*
X133996257Y-74906116D01*
X133806851Y-75002623D01*
X133634885Y-75127562D01*
X133484562Y-75277885D01*
X133359621Y-75449854D01*
X133354874Y-75459171D01*
X133306899Y-75509965D01*
X133239077Y-75526759D01*
X133172943Y-75504220D01*
X133133906Y-75459167D01*
X133129298Y-75450124D01*
X133089942Y-75395954D01*
X133089941Y-75395954D01*
X132396397Y-76089499D01*
X132370709Y-75993628D01*
X132314756Y-75896716D01*
X132235628Y-75817588D01*
X132138716Y-75761635D01*
X132042844Y-75735946D01*
X132736388Y-75042400D01*
X132682222Y-75003047D01*
X132492889Y-74906576D01*
X132290801Y-74840914D01*
X132080918Y-74807672D01*
X131868426Y-74807672D01*
X131658544Y-74840914D01*
X131658541Y-74840914D01*
X131456454Y-74906576D01*
X131267111Y-75003052D01*
X131212954Y-75042399D01*
X131212954Y-75042400D01*
X131906500Y-75735946D01*
X131810628Y-75761635D01*
X131713716Y-75817588D01*
X131634588Y-75896716D01*
X131578635Y-75993628D01*
X131552946Y-76089500D01*
X130859400Y-75395954D01*
X130859399Y-75395954D01*
X130820052Y-75450111D01*
X130723576Y-75639454D01*
X130657914Y-75841541D01*
X130657914Y-75841544D01*
X130624672Y-76051425D01*
X130624672Y-76263918D01*
X130657914Y-76473799D01*
X130657914Y-76473802D01*
X130723576Y-76675889D01*
X130820047Y-76865222D01*
X130859400Y-76919388D01*
X131552946Y-76225843D01*
X131578635Y-76321716D01*
X131634588Y-76418628D01*
X131713716Y-76497756D01*
X131810628Y-76553709D01*
X131906500Y-76579397D01*
X131212954Y-77272941D01*
X131212954Y-77272942D01*
X131267121Y-77312296D01*
X131456454Y-77408767D01*
X131658542Y-77474429D01*
X131868426Y-77507672D01*
X132080918Y-77507672D01*
X132290799Y-77474429D01*
X132290802Y-77474429D01*
X132492889Y-77408767D01*
X132682226Y-77312294D01*
X132736388Y-77272942D01*
X132736389Y-77272942D01*
X132042843Y-76579397D01*
X132138716Y-76553709D01*
X132235628Y-76497756D01*
X132314756Y-76418628D01*
X132370709Y-76321716D01*
X132396397Y-76225843D01*
X133089942Y-76919389D01*
X133089942Y-76919388D01*
X133129294Y-76865227D01*
X133133904Y-76856179D01*
X133181877Y-76805381D01*
X133249697Y-76788584D01*
X133315833Y-76811119D01*
X133354876Y-76856176D01*
X133359621Y-76865489D01*
X133484562Y-77037458D01*
X133634885Y-77187781D01*
X133806851Y-77312720D01*
X133806853Y-77312721D01*
X133806856Y-77312723D01*
X133996260Y-77409229D01*
X134198429Y-77474918D01*
X134408385Y-77508172D01*
X134408386Y-77508172D01*
X134620958Y-77508172D01*
X134620959Y-77508172D01*
X134830915Y-77474918D01*
X135033084Y-77409229D01*
X135222488Y-77312723D01*
X135251871Y-77291375D01*
X135394458Y-77187781D01*
X135394460Y-77187778D01*
X135394464Y-77187776D01*
X135544776Y-77037464D01*
X135544778Y-77037460D01*
X135544781Y-77037458D01*
X135669720Y-76865492D01*
X135669722Y-76865489D01*
X135669723Y-76865488D01*
X135674186Y-76856726D01*
X135722160Y-76805931D01*
X135789980Y-76789135D01*
X135856116Y-76811671D01*
X135895158Y-76856728D01*
X135899623Y-76865492D01*
X136024562Y-77037458D01*
X136174885Y-77187781D01*
X136346851Y-77312720D01*
X136346853Y-77312721D01*
X136346856Y-77312723D01*
X136536260Y-77409229D01*
X136738429Y-77474918D01*
X136948385Y-77508172D01*
X136948386Y-77508172D01*
X137160958Y-77508172D01*
X137160959Y-77508172D01*
X137370915Y-77474918D01*
X137442855Y-77451542D01*
X137512695Y-77449548D01*
X137572528Y-77485628D01*
X137603356Y-77548329D01*
X137605172Y-77569474D01*
X137605172Y-79715863D01*
X137596527Y-79745300D01*
X137590004Y-79775291D01*
X137586248Y-79780307D01*
X137585487Y-79782902D01*
X137568853Y-79803545D01*
X137485382Y-79887015D01*
X137424058Y-79920499D01*
X137375917Y-79919987D01*
X137375727Y-79921188D01*
X137252192Y-79901622D01*
X137160959Y-79887172D01*
X136948385Y-79887172D01*
X136899714Y-79894880D01*
X136738432Y-79920425D01*
X136536257Y-79986116D01*
X136346851Y-80082623D01*
X136174885Y-80207562D01*
X136024562Y-80357885D01*
X135899621Y-80529854D01*
X135895156Y-80538618D01*
X135847181Y-80589414D01*
X135779360Y-80606208D01*
X135713225Y-80583670D01*
X135674188Y-80538618D01*
X135669722Y-80529854D01*
X135544781Y-80357885D01*
X135394458Y-80207562D01*
X135222492Y-80082623D01*
X135033086Y-79986116D01*
X135033085Y-79986115D01*
X135033084Y-79986115D01*
X134830915Y-79920426D01*
X134830913Y-79920425D01*
X134830912Y-79920425D01*
X134669629Y-79894880D01*
X134620959Y-79887172D01*
X134408385Y-79887172D01*
X134359714Y-79894880D01*
X134198432Y-79920425D01*
X133996257Y-79986116D01*
X133806851Y-80082623D01*
X133634887Y-80207561D01*
X133521345Y-80321103D01*
X133460022Y-80354587D01*
X133390330Y-80349603D01*
X133334397Y-80307731D01*
X133317482Y-80276754D01*
X133268469Y-80145343D01*
X133268465Y-80145336D01*
X133182219Y-80030127D01*
X133182216Y-80030124D01*
X133067007Y-79943878D01*
X133067000Y-79943874D01*
X132932154Y-79893580D01*
X132932155Y-79893580D01*
X132872555Y-79887173D01*
X132872553Y-79887172D01*
X132872545Y-79887172D01*
X132872536Y-79887172D01*
X131076801Y-79887172D01*
X131076795Y-79887173D01*
X131017188Y-79893580D01*
X130882343Y-79943874D01*
X130882336Y-79943878D01*
X130767127Y-80030124D01*
X130767124Y-80030127D01*
X130680878Y-80145336D01*
X130680874Y-80145343D01*
X130630580Y-80280189D01*
X130624173Y-80339788D01*
X130624172Y-80339807D01*
X129429021Y-80339807D01*
X129328143Y-80200958D01*
X129183385Y-80056200D01*
X129017785Y-79935887D01*
X129017784Y-79935886D01*
X129017782Y-79935885D01*
X128924429Y-79888319D01*
X128835395Y-79842953D01*
X128640706Y-79779694D01*
X128450103Y-79749506D01*
X128438524Y-79747672D01*
X128233820Y-79747672D01*
X128222241Y-79749506D01*
X128031637Y-79779694D01*
X127836948Y-79842953D01*
X127654558Y-79935887D01*
X127488958Y-80056200D01*
X127344200Y-80200958D01*
X127223887Y-80366558D01*
X127130953Y-80548948D01*
X127067694Y-80743637D01*
X127039901Y-80919118D01*
X127035672Y-80945820D01*
X125752900Y-80945820D01*
X125896082Y-80841793D01*
X126040829Y-80697046D01*
X126040831Y-80697042D01*
X126040834Y-80697040D01*
X126097772Y-80618670D01*
X126161150Y-80531437D01*
X126254083Y-80349046D01*
X126317340Y-80154361D01*
X126349363Y-79952179D01*
X126349363Y-79747475D01*
X126337567Y-79673000D01*
X126317340Y-79545292D01*
X126284387Y-79443875D01*
X126254083Y-79350608D01*
X126254081Y-79350605D01*
X126254081Y-79350603D01*
X126211998Y-79268011D01*
X126161150Y-79168217D01*
X126143944Y-79144535D01*
X126040834Y-79002613D01*
X125896076Y-78857855D01*
X125730476Y-78737542D01*
X125730475Y-78737541D01*
X125730473Y-78737540D01*
X125671538Y-78707511D01*
X125548086Y-78644608D01*
X125353397Y-78581349D01*
X125178858Y-78553705D01*
X125151215Y-78549327D01*
X124946511Y-78549327D01*
X124922192Y-78553178D01*
X124744328Y-78581349D01*
X124549639Y-78644608D01*
X124367249Y-78737542D01*
X124201649Y-78857855D01*
X124056895Y-79002609D01*
X124015950Y-79058966D01*
X123960620Y-79101631D01*
X123891007Y-79107610D01*
X123829212Y-79075004D01*
X123797926Y-79025083D01*
X123783222Y-78980709D01*
X123783219Y-78980702D01*
X123691178Y-78831481D01*
X123567208Y-78707511D01*
X123417987Y-78615470D01*
X123417982Y-78615468D01*
X123251560Y-78560321D01*
X123251553Y-78560320D01*
X123148849Y-78549827D01*
X122798863Y-78549827D01*
X122798863Y-79534141D01*
X122794469Y-79529747D01*
X122703257Y-79477086D01*
X122601524Y-79449827D01*
X122496202Y-79449827D01*
X122394469Y-79477086D01*
X122303257Y-79529747D01*
X122298863Y-79534141D01*
X122298863Y-78549827D01*
X121948891Y-78549827D01*
X121948875Y-78549828D01*
X121846165Y-78560321D01*
X121679743Y-78615468D01*
X121679738Y-78615470D01*
X121530517Y-78707511D01*
X121406547Y-78831481D01*
X121314506Y-78980702D01*
X121314504Y-78980707D01*
X121259357Y-79147129D01*
X121259356Y-79147136D01*
X121248863Y-79249840D01*
X118406671Y-79249840D01*
X118406671Y-79246691D01*
X118406671Y-79081170D01*
X118406670Y-79081153D01*
X118396171Y-78978375D01*
X118396170Y-78978372D01*
X118370434Y-78900706D01*
X118340986Y-78811838D01*
X118248884Y-78662516D01*
X118124828Y-78538460D01*
X117975506Y-78446358D01*
X117975504Y-78446357D01*
X117969612Y-78442723D01*
X117922888Y-78390775D01*
X117911665Y-78321813D01*
X117939509Y-78257730D01*
X117947028Y-78249502D01*
X118085900Y-78110630D01*
X118210792Y-77938729D01*
X118307267Y-77749389D01*
X118372929Y-77547301D01*
X118372929Y-77547298D01*
X118383403Y-77481172D01*
X117339184Y-77481172D01*
X117372097Y-77424165D01*
X117406172Y-77296998D01*
X117406172Y-77165346D01*
X117372097Y-77038179D01*
X117339184Y-76981172D01*
X118383403Y-76981172D01*
X118372930Y-76915044D01*
X118372929Y-76915042D01*
X118307267Y-76712954D01*
X118210792Y-76523614D01*
X118085899Y-76351712D01*
X118085895Y-76351707D01*
X117935636Y-76201448D01*
X117935631Y-76201444D01*
X117763729Y-76076551D01*
X117714512Y-76051473D01*
X117574389Y-75980076D01*
X117469064Y-75945854D01*
X127036172Y-75945854D01*
X127036172Y-76150489D01*
X127068181Y-76352589D01*
X127131416Y-76547203D01*
X127224313Y-76729522D01*
X127224319Y-76729531D01*
X127256695Y-76774093D01*
X127256696Y-76774094D01*
X127936172Y-76094618D01*
X127936172Y-76100833D01*
X127963431Y-76202566D01*
X128016092Y-76293778D01*
X128090566Y-76368252D01*
X128181778Y-76420913D01*
X128283511Y-76448172D01*
X128289725Y-76448172D01*
X127610248Y-77127646D01*
X127654822Y-77160031D01*
X127837140Y-77252927D01*
X128031754Y-77316162D01*
X128233855Y-77348172D01*
X128438489Y-77348172D01*
X128640589Y-77316162D01*
X128835203Y-77252927D01*
X129017521Y-77160031D01*
X129062094Y-77127646D01*
X128382619Y-76448172D01*
X128388833Y-76448172D01*
X128490566Y-76420913D01*
X128581778Y-76368252D01*
X128656252Y-76293778D01*
X128708913Y-76202566D01*
X128736172Y-76100833D01*
X128736172Y-76094619D01*
X129415646Y-76774093D01*
X129448031Y-76729521D01*
X129540927Y-76547203D01*
X129604162Y-76352589D01*
X129636172Y-76150489D01*
X129636172Y-75945854D01*
X129604162Y-75743754D01*
X129540927Y-75549140D01*
X129448031Y-75366822D01*
X129415646Y-75322249D01*
X129415646Y-75322248D01*
X128736172Y-76001723D01*
X128736172Y-75995511D01*
X128708913Y-75893778D01*
X128656252Y-75802566D01*
X128581778Y-75728092D01*
X128490566Y-75675431D01*
X128388833Y-75648172D01*
X128382618Y-75648172D01*
X129028813Y-75001978D01*
X129062094Y-74968696D01*
X129062093Y-74968695D01*
X129017531Y-74936319D01*
X129017522Y-74936313D01*
X128835203Y-74843416D01*
X128640589Y-74780181D01*
X128438489Y-74748172D01*
X128233855Y-74748172D01*
X128031754Y-74780181D01*
X127837140Y-74843416D01*
X127654816Y-74936315D01*
X127610249Y-74968695D01*
X127610249Y-74968696D01*
X128289726Y-75648172D01*
X128283511Y-75648172D01*
X128181778Y-75675431D01*
X128090566Y-75728092D01*
X128016092Y-75802566D01*
X127963431Y-75893778D01*
X127936172Y-75995511D01*
X127936172Y-76001725D01*
X127256696Y-75322249D01*
X127256695Y-75322249D01*
X127224315Y-75366816D01*
X127131416Y-75549140D01*
X127068181Y-75743754D01*
X127036172Y-75945854D01*
X117469064Y-75945854D01*
X117372301Y-75914414D01*
X117162418Y-75881172D01*
X117156172Y-75881172D01*
X117156172Y-76798160D01*
X117099165Y-76765247D01*
X116971998Y-76731172D01*
X116840346Y-76731172D01*
X116713179Y-76765247D01*
X116656172Y-76798160D01*
X116656172Y-75881172D01*
X116649926Y-75881172D01*
X116440044Y-75914414D01*
X116440041Y-75914414D01*
X116237954Y-75980076D01*
X116048614Y-76076551D01*
X115876712Y-76201444D01*
X115876707Y-76201448D01*
X115726448Y-76351707D01*
X115726444Y-76351712D01*
X115601551Y-76523614D01*
X115505076Y-76712954D01*
X115439414Y-76915042D01*
X115439414Y-76915044D01*
X115428941Y-76981172D01*
X116473160Y-76981172D01*
X116440247Y-77038179D01*
X116406172Y-77165346D01*
X116406172Y-77296998D01*
X116440247Y-77424165D01*
X116473160Y-77481172D01*
X115428941Y-77481172D01*
X115439414Y-77547298D01*
X115439414Y-77547301D01*
X115505076Y-77749389D01*
X115601551Y-77938729D01*
X115726444Y-78110631D01*
X115726448Y-78110636D01*
X115865315Y-78249503D01*
X115898800Y-78310826D01*
X115893816Y-78380518D01*
X115851944Y-78436451D01*
X115842731Y-78442723D01*
X115687514Y-78538461D01*
X115563461Y-78662514D01*
X115471359Y-78811835D01*
X115471357Y-78811840D01*
X115456109Y-78857855D01*
X115416173Y-78978375D01*
X115416173Y-78978376D01*
X115416172Y-78978376D01*
X115405672Y-79081155D01*
X109616389Y-79081155D01*
X109629863Y-79039688D01*
X109666721Y-78926249D01*
X109666721Y-78926248D01*
X109666722Y-78926245D01*
X109702500Y-78700354D01*
X109702500Y-78471646D01*
X109666722Y-78245755D01*
X109666721Y-78245751D01*
X109666721Y-78245750D01*
X109596049Y-78028244D01*
X109512965Y-77865183D01*
X109492217Y-77824462D01*
X109357786Y-77639434D01*
X109196066Y-77477714D01*
X109111559Y-77416316D01*
X109068896Y-77360988D01*
X109062917Y-77291375D01*
X109095523Y-77229580D01*
X109111556Y-77215685D01*
X109196066Y-77154286D01*
X109357786Y-76992566D01*
X109492217Y-76807538D01*
X109596048Y-76603758D01*
X109601044Y-76588383D01*
X109666721Y-76386249D01*
X109666721Y-76386248D01*
X109666722Y-76386245D01*
X109702500Y-76160354D01*
X109702500Y-75931646D01*
X109666722Y-75705755D01*
X109666721Y-75705751D01*
X109596049Y-75488244D01*
X109581236Y-75459171D01*
X109492217Y-75284462D01*
X109357786Y-75099434D01*
X109196066Y-74937714D01*
X109011038Y-74803283D01*
X108909049Y-74751317D01*
X108807255Y-74699450D01*
X108685060Y-74659747D01*
X108589748Y-74628778D01*
X108384935Y-74596339D01*
X108363854Y-74593000D01*
X108040146Y-74593000D01*
X108019065Y-74596339D01*
X107814253Y-74628778D01*
X107814250Y-74628778D01*
X107596744Y-74699450D01*
X107392961Y-74803283D01*
X107299204Y-74871402D01*
X107207934Y-74937714D01*
X107207932Y-74937716D01*
X107207931Y-74937716D01*
X107046216Y-75099431D01*
X107046216Y-75099432D01*
X107046214Y-75099434D01*
X107000349Y-75162562D01*
X106911783Y-75284461D01*
X106807950Y-75488244D01*
X106737278Y-75705750D01*
X106737278Y-75705753D01*
X106707498Y-75893778D01*
X106701500Y-75931646D01*
X103718975Y-75931646D01*
X103731765Y-75906545D01*
X103795022Y-75711860D01*
X103827045Y-75509678D01*
X103827045Y-75304974D01*
X103822466Y-75276062D01*
X103795022Y-75102791D01*
X103764483Y-75008804D01*
X103731765Y-74908107D01*
X103731763Y-74908104D01*
X103731763Y-74908102D01*
X103697279Y-74840425D01*
X103638832Y-74725716D01*
X103619749Y-74699450D01*
X103518516Y-74560112D01*
X103373758Y-74415354D01*
X103208158Y-74295041D01*
X103208157Y-74295040D01*
X103208155Y-74295039D01*
X103117799Y-74249000D01*
X103025768Y-74202107D01*
X102831079Y-74138848D01*
X102656540Y-74111204D01*
X102628897Y-74106826D01*
X102424193Y-74106826D01*
X102399874Y-74110677D01*
X102222010Y-74138848D01*
X102027321Y-74202107D01*
X101844931Y-74295041D01*
X101679331Y-74415354D01*
X101534573Y-74560112D01*
X101414260Y-74725712D01*
X101321326Y-74908102D01*
X101258067Y-75102791D01*
X101230250Y-75278425D01*
X101226045Y-75304974D01*
X93667045Y-75304974D01*
X93662466Y-75276062D01*
X93635022Y-75102791D01*
X93604483Y-75008804D01*
X93571765Y-74908107D01*
X93571763Y-74908104D01*
X93571763Y-74908102D01*
X93537279Y-74840425D01*
X93478832Y-74725716D01*
X93459749Y-74699450D01*
X93358516Y-74560112D01*
X93213758Y-74415354D01*
X93048158Y-74295041D01*
X93048157Y-74295040D01*
X93048155Y-74295039D01*
X92957799Y-74249000D01*
X92865768Y-74202107D01*
X92671079Y-74138848D01*
X92496540Y-74111204D01*
X92468897Y-74106826D01*
X92264193Y-74106826D01*
X92239874Y-74110677D01*
X92062010Y-74138848D01*
X91867321Y-74202107D01*
X91684931Y-74295041D01*
X91519331Y-74415354D01*
X91374573Y-74560112D01*
X91254260Y-74725712D01*
X91161326Y-74908102D01*
X91098067Y-75102791D01*
X91070250Y-75278425D01*
X91066045Y-75304974D01*
X89177009Y-75304974D01*
X89015613Y-75187715D01*
X89015612Y-75187714D01*
X89015610Y-75187713D01*
X88955454Y-75157062D01*
X88833223Y-75094781D01*
X88638534Y-75031522D01*
X88458778Y-75003052D01*
X88436352Y-74999500D01*
X88231648Y-74999500D01*
X88209222Y-75003052D01*
X88029465Y-75031522D01*
X87834776Y-75094781D01*
X87652386Y-75187715D01*
X87486786Y-75308028D01*
X87342028Y-75452786D01*
X87221715Y-75618386D01*
X87128781Y-75800776D01*
X87065522Y-75995465D01*
X87033500Y-76197648D01*
X87033500Y-76402351D01*
X87065522Y-76604534D01*
X87128781Y-76799223D01*
X87221715Y-76981613D01*
X87342028Y-77147213D01*
X87486786Y-77291971D01*
X87641749Y-77404556D01*
X87652390Y-77412287D01*
X87740762Y-77457315D01*
X87745080Y-77459515D01*
X87795876Y-77507490D01*
X87812671Y-77575311D01*
X87790134Y-77641446D01*
X87745080Y-77680485D01*
X87652386Y-77727715D01*
X87486786Y-77848028D01*
X87342028Y-77992786D01*
X87221715Y-78158386D01*
X87128781Y-78340776D01*
X87065522Y-78535465D01*
X87042207Y-78682676D01*
X87033500Y-78737648D01*
X87033500Y-78942352D01*
X87036512Y-78961369D01*
X87065523Y-79144535D01*
X87065524Y-79144542D01*
X87076455Y-79178183D01*
X87078450Y-79248024D01*
X87042369Y-79307856D01*
X86979668Y-79338684D01*
X86958524Y-79340500D01*
X82089476Y-79340500D01*
X82022437Y-79320815D01*
X81976682Y-79268011D01*
X81966738Y-79198853D01*
X81971545Y-79178183D01*
X81982475Y-79144542D01*
X81982475Y-79144538D01*
X81982477Y-79144534D01*
X82014500Y-78942352D01*
X82014500Y-78737648D01*
X82005082Y-78678186D01*
X81982477Y-78535465D01*
X81935464Y-78390775D01*
X81919220Y-78340781D01*
X81919218Y-78340778D01*
X81919218Y-78340776D01*
X81868108Y-78240469D01*
X81826287Y-78158390D01*
X81791592Y-78110636D01*
X81705971Y-77992786D01*
X81561219Y-77848034D01*
X81552884Y-77841978D01*
X81467547Y-77779978D01*
X81424882Y-77724649D01*
X81418903Y-77655036D01*
X81451508Y-77593240D01*
X81501426Y-77561955D01*
X81583334Y-77534814D01*
X81732656Y-77442712D01*
X81856712Y-77318656D01*
X81948814Y-77169334D01*
X82003999Y-77002797D01*
X82014500Y-76900009D01*
X82014499Y-75699992D01*
X82013607Y-75691264D01*
X82003999Y-75597203D01*
X82003998Y-75597200D01*
X81996040Y-75573185D01*
X81948814Y-75430666D01*
X81856712Y-75281344D01*
X81732656Y-75157288D01*
X81583334Y-75065186D01*
X81416797Y-75010001D01*
X81416795Y-75010000D01*
X81314010Y-74999500D01*
X80113998Y-74999500D01*
X80113981Y-74999501D01*
X80011203Y-75010000D01*
X80011200Y-75010001D01*
X79844668Y-75065185D01*
X79844663Y-75065187D01*
X79695342Y-75157289D01*
X79571288Y-75281343D01*
X79566807Y-75287011D01*
X79565521Y-75285994D01*
X79520071Y-75326860D01*
X79451106Y-75338071D01*
X79387029Y-75310217D01*
X79348183Y-75252141D01*
X79342499Y-75215034D01*
X79342499Y-74302992D01*
X79331999Y-74200203D01*
X79276814Y-74033666D01*
X79184712Y-73884344D01*
X79060656Y-73760288D01*
X78911334Y-73668186D01*
X78744797Y-73613001D01*
X78744795Y-73613000D01*
X78642010Y-73602500D01*
X77441998Y-73602500D01*
X77441981Y-73602501D01*
X77339203Y-73613000D01*
X77339200Y-73613001D01*
X77172668Y-73668185D01*
X77172663Y-73668187D01*
X77023342Y-73760289D01*
X76899289Y-73884342D01*
X76807187Y-74033663D01*
X76807186Y-74033666D01*
X76752001Y-74200203D01*
X76752001Y-74200204D01*
X76752000Y-74200204D01*
X76741500Y-74302983D01*
X76741500Y-75503001D01*
X76741501Y-75503018D01*
X76752000Y-75605796D01*
X76752001Y-75605799D01*
X76803384Y-75760859D01*
X76807186Y-75772334D01*
X76899288Y-75921656D01*
X77023344Y-76045712D01*
X77172666Y-76137814D01*
X77339203Y-76192999D01*
X77441991Y-76203500D01*
X78642008Y-76203499D01*
X78744797Y-76192999D01*
X78911334Y-76137814D01*
X79060656Y-76045712D01*
X79184712Y-75921656D01*
X79184715Y-75921650D01*
X79189193Y-75915989D01*
X79190482Y-75917008D01*
X79235902Y-75876151D01*
X79304863Y-75864924D01*
X79368947Y-75892763D01*
X79407807Y-75950829D01*
X79413500Y-75987969D01*
X79413500Y-76688500D01*
X79393815Y-76755539D01*
X79341011Y-76801294D01*
X79289500Y-76812500D01*
X72957618Y-76812500D01*
X72890579Y-76792815D01*
X72856900Y-76758408D01*
X72855915Y-76759125D01*
X72728109Y-76583213D01*
X72577786Y-76432890D01*
X72405820Y-76307951D01*
X72216414Y-76211444D01*
X72216413Y-76211443D01*
X72216412Y-76211443D01*
X72014243Y-76145754D01*
X72014241Y-76145753D01*
X72014240Y-76145753D01*
X71852957Y-76120208D01*
X71804287Y-76112500D01*
X71291713Y-76112500D01*
X71243042Y-76120208D01*
X71081760Y-76145753D01*
X71081757Y-76145754D01*
X70906909Y-76202566D01*
X70879585Y-76211444D01*
X70690179Y-76307951D01*
X70518213Y-76432890D01*
X70367890Y-76583213D01*
X70242951Y-76755179D01*
X70146444Y-76944585D01*
X70080753Y-77146760D01*
X70052909Y-77322564D01*
X70047500Y-77356713D01*
X68497500Y-77356713D01*
X68497500Y-73377500D01*
X68517185Y-73310461D01*
X68569989Y-73264706D01*
X68621500Y-73253500D01*
X110801829Y-73253500D01*
X110868868Y-73273185D01*
G37*
G04 #@! TD.AperFunction*
M02*
