M48
; DRILL file {KiCad 9.0.5} date 2025-10-26T18:04:21+0100
; FORMAT={-:-/ absolute / metric / decimal}
; #@! TF.CreationDate,2025-10-26T18:04:21+01:00
; #@! TF.GenerationSoftware,Kicad,Pcbnew,9.0.5
; #@! TF.FileFunction,Plated,1,4,PTH
FMAT,2
METRIC
; #@! TA.AperFunction,Plated,PTH,ComponentDrill
T1C0.800
; #@! TA.AperFunction,Plated,PTH,ComponentDrill
T2C0.850
; #@! TA.AperFunction,Plated,PTH,ComponentDrill
T3C1.000
; #@! TA.AperFunction,Plated,PTH,ComponentDrill
T4C1.100
; #@! TA.AperFunction,Plated,PTH,ComponentDrill
T5C1.200
%
G90
G05
T1
X78.042Y-74.903
X78.042Y-82.523
X80.714Y-76.3
X80.714Y-78.84
X80.714Y-81.38
X88.334Y-76.3
X88.334Y-78.84
X88.334Y-81.38
X92.367Y-75.407
X92.367Y-78.836
X92.367Y-82.138
X102.527Y-75.407
X102.527Y-78.836
X102.527Y-82.138
X111.443Y-74.649
X111.443Y-82.269
X122.549Y-79.85
X125.049Y-79.85
X128.336Y-76.048
X128.336Y-81.048
T2
X131.975Y-76.158
X131.975Y-81.238
X134.515Y-76.158
X134.515Y-81.238
X137.055Y-76.158
X137.055Y-81.238
X139.595Y-76.158
X139.595Y-81.238
X143.048Y-76.175
X143.048Y-81.255
X145.588Y-76.175
X145.588Y-81.255
X148.128Y-76.175
X148.128Y-81.255
X150.668Y-76.175
X150.668Y-81.255
X154.376Y-76.193
X154.376Y-81.273
X156.916Y-76.193
X156.916Y-81.273
X159.456Y-76.193
X159.456Y-81.273
X161.996Y-76.193
X161.996Y-81.273
X212.796Y-76.193
X212.796Y-81.273
X215.336Y-76.193
X215.336Y-81.273
X217.876Y-76.193
X217.876Y-81.273
X220.416Y-76.193
X220.416Y-81.273
X226.209Y-76.158
X226.209Y-81.238
X228.749Y-76.158
X228.749Y-81.238
X231.289Y-76.158
X231.289Y-81.238
X233.829Y-76.158
X233.829Y-81.238
X260.033Y-76.193
X260.033Y-81.273
X262.573Y-76.193
X262.573Y-81.273
X265.113Y-76.193
X265.113Y-81.273
X267.653Y-76.193
X267.653Y-81.273
T3
X71.548Y-77.463
X71.548Y-79.963
X116.906Y-77.231
X116.906Y-79.731
T4
X108.202Y-76.046
X108.202Y-78.586
X108.202Y-81.126
T5
X165.603Y-76.306
X165.603Y-81.306
X169.603Y-76.306
X169.603Y-81.306
X173.603Y-76.306
X173.603Y-81.306
X177.603Y-76.306
X177.603Y-81.306
X181.603Y-76.306
X181.603Y-81.334
X185.603Y-76.306
X185.603Y-81.334
X189.603Y-76.306
X189.603Y-81.334
X193.603Y-76.306
X193.603Y-81.334
X197.603Y-76.306
X197.603Y-81.334
X201.603Y-76.306
X201.603Y-81.334
X205.603Y-76.306
X205.603Y-81.334
X209.603Y-76.306
X209.603Y-81.334
X236.803Y-76.306
X236.803Y-81.306
X240.803Y-76.306
X240.803Y-81.306
X244.803Y-76.306
X244.803Y-81.306
X248.803Y-76.306
X248.803Y-81.306
X252.803Y-76.306
X252.803Y-81.306
X256.803Y-76.306
X256.803Y-81.322
M30
