G04 #@! TF.GenerationSoftware,KiCad,Pcbnew,9.0.5*
G04 #@! TF.CreationDate,2025-10-26T11:27:19+01:00*
G04 #@! TF.ProjectId,rec_play_switch_module,7265635f-706c-4617-995f-737769746368,rev?*
G04 #@! TF.SameCoordinates,Original*
G04 #@! TF.FileFunction,Copper,L2,Bot*
G04 #@! TF.FilePolarity,Positive*
%FSLAX46Y46*%
G04 Gerber Fmt 4.6, Leading zero omitted, Abs format (unit mm)*
G04 Created by KiCad (PCBNEW 9.0.5) date 2025-10-26 11:27:19*
%MOMM*%
%LPD*%
G01*
G04 APERTURE LIST*
G04 Aperture macros list*
%AMRoundRect*
0 Rectangle with rounded corners*
0 $1 Rounding radius*
0 $2 $3 $4 $5 $6 $7 $8 $9 X,Y pos of 4 corners*
0 Add a 4 corners polygon primitive as box body*
4,1,4,$2,$3,$4,$5,$6,$7,$8,$9,$2,$3,0*
0 Add four circle primitives for the rounded corners*
1,1,$1+$1,$2,$3*
1,1,$1+$1,$4,$5*
1,1,$1+$1,$6,$7*
1,1,$1+$1,$8,$9*
0 Add four rect primitives between the rounded corners*
20,1,$1+$1,$2,$3,$4,$5,0*
20,1,$1+$1,$4,$5,$6,$7,0*
20,1,$1+$1,$6,$7,$8,$9,0*
20,1,$1+$1,$8,$9,$2,$3,0*%
G04 Aperture macros list end*
G04 #@! TA.AperFunction,ComponentPad*
%ADD10C,1.600000*%
G04 #@! TD*
G04 #@! TA.AperFunction,ComponentPad*
%ADD11R,1.000000X1.000000*%
G04 #@! TD*
G04 #@! TA.AperFunction,ComponentPad*
%ADD12C,1.000000*%
G04 #@! TD*
G04 #@! TA.AperFunction,ComponentPad*
%ADD13RoundRect,0.250000X-0.550000X0.550000X-0.550000X-0.550000X0.550000X-0.550000X0.550000X0.550000X0*%
G04 #@! TD*
G04 #@! TA.AperFunction,ComponentPad*
%ADD14RoundRect,0.250000X-0.600000X-0.750000X0.600000X-0.750000X0.600000X0.750000X-0.600000X0.750000X0*%
G04 #@! TD*
G04 #@! TA.AperFunction,ComponentPad*
%ADD15O,1.700000X2.000000*%
G04 #@! TD*
G04 #@! TA.AperFunction,ComponentPad*
%ADD16R,1.700000X1.700000*%
G04 #@! TD*
G04 #@! TA.AperFunction,ComponentPad*
%ADD17C,1.700000*%
G04 #@! TD*
G04 #@! TA.AperFunction,ComponentPad*
%ADD18RoundRect,0.250000X0.550000X-0.550000X0.550000X0.550000X-0.550000X0.550000X-0.550000X-0.550000X0*%
G04 #@! TD*
G04 #@! TA.AperFunction,ComponentPad*
%ADD19RoundRect,0.250000X-0.550000X-0.550000X0.550000X-0.550000X0.550000X0.550000X-0.550000X0.550000X0*%
G04 #@! TD*
G04 #@! TA.AperFunction,ComponentPad*
%ADD20R,1.500000X1.500000*%
G04 #@! TD*
G04 #@! TA.AperFunction,ComponentPad*
%ADD21C,1.500000*%
G04 #@! TD*
G04 #@! TA.AperFunction,Conductor*
%ADD22C,0.800000*%
G04 #@! TD*
G04 #@! TA.AperFunction,Conductor*
%ADD23C,0.300000*%
G04 #@! TD*
G04 APERTURE END LIST*
D10*
X167426000Y-67945000D03*
X172426000Y-67945000D03*
X141224000Y-59777000D03*
X141224000Y-54777000D03*
D11*
X195723000Y-90551000D03*
D12*
X196993000Y-90551000D03*
X198263000Y-90551000D03*
X199533000Y-90551000D03*
X200803000Y-90551000D03*
X202073000Y-90551000D03*
X203343000Y-90551000D03*
X204613000Y-90551000D03*
X205883000Y-90551000D03*
X207153000Y-90551000D03*
X208423000Y-90551000D03*
X209693000Y-90551000D03*
D13*
X211074000Y-68834000D03*
D10*
X208534000Y-68834000D03*
X205994000Y-68834000D03*
X203454000Y-68834000D03*
X200914000Y-68834000D03*
X198374000Y-68834000D03*
X195834000Y-68834000D03*
X193294000Y-68834000D03*
X190754000Y-68834000D03*
X190754000Y-76454000D03*
X193294000Y-76454000D03*
X195834000Y-76454000D03*
X198374000Y-76454000D03*
X200914000Y-76454000D03*
X203454000Y-76454000D03*
X205994000Y-76454000D03*
X208534000Y-76454000D03*
X211074000Y-76454000D03*
D14*
X184658000Y-47752000D03*
D15*
X187158000Y-47752000D03*
D16*
X161000000Y-80000000D03*
D17*
X161000000Y-82540000D03*
X161000000Y-85080000D03*
X161000000Y-87620000D03*
X166080000Y-87620000D03*
X166080000Y-85080000D03*
X166080000Y-82540000D03*
X166080000Y-80000000D03*
D14*
X174010000Y-47760400D03*
D15*
X176510000Y-47760400D03*
D10*
X144018000Y-55245000D03*
X154178000Y-55245000D03*
D16*
X152000000Y-80000000D03*
D17*
X152000000Y-82540000D03*
X152000000Y-85080000D03*
X152000000Y-87620000D03*
X157080000Y-87620000D03*
X157080000Y-85080000D03*
X157080000Y-82540000D03*
X157080000Y-80000000D03*
D10*
X177586000Y-54610000D03*
X182586000Y-54610000D03*
D18*
X157226000Y-65019000D03*
D10*
X159766000Y-65019000D03*
X162306000Y-65019000D03*
X164846000Y-65019000D03*
X167386000Y-65019000D03*
X169926000Y-65019000D03*
X172466000Y-65019000D03*
X175006000Y-65019000D03*
X177546000Y-65019000D03*
X180086000Y-65019000D03*
X182626000Y-65019000D03*
X185166000Y-65019000D03*
X187706000Y-65019000D03*
X190246000Y-65019000D03*
X190246000Y-57399000D03*
X187706000Y-57399000D03*
X185166000Y-57399000D03*
X182626000Y-57399000D03*
X180086000Y-57399000D03*
X177546000Y-57399000D03*
X175006000Y-57399000D03*
X172466000Y-57399000D03*
X169926000Y-57399000D03*
X167386000Y-57399000D03*
X164846000Y-57399000D03*
X162306000Y-57399000D03*
X159766000Y-57399000D03*
X157226000Y-57399000D03*
D16*
X134000000Y-80000000D03*
D17*
X134000000Y-82540000D03*
X134000000Y-85080000D03*
X134000000Y-87620000D03*
X139080000Y-87620000D03*
X139080000Y-85080000D03*
X139080000Y-82540000D03*
X139080000Y-80000000D03*
D11*
X135509000Y-90551000D03*
D12*
X136779000Y-90551000D03*
X138049000Y-90551000D03*
X139319000Y-90551000D03*
X140589000Y-90551000D03*
X141859000Y-90551000D03*
X143129000Y-90551000D03*
X144399000Y-90551000D03*
X145669000Y-90551000D03*
X146939000Y-90551000D03*
X148209000Y-90551000D03*
X149479000Y-90551000D03*
X150749000Y-90551000D03*
X152019000Y-90551000D03*
X153289000Y-90551000D03*
X154559000Y-90551000D03*
X155829000Y-90551000D03*
X157099000Y-90551000D03*
X158369000Y-90551000D03*
X159639000Y-90551000D03*
X160909000Y-90551000D03*
X162179000Y-90551000D03*
X163449000Y-90551000D03*
X164719000Y-90551000D03*
D10*
X203962000Y-58674000D03*
X193802000Y-58674000D03*
D16*
X143000000Y-80000000D03*
D17*
X143000000Y-82540000D03*
X143000000Y-85080000D03*
X143000000Y-87620000D03*
X148080000Y-87620000D03*
X148080000Y-85080000D03*
X148080000Y-82540000D03*
X148080000Y-80000000D03*
D16*
X205000000Y-80000000D03*
D17*
X205000000Y-82540000D03*
X205000000Y-85080000D03*
X205000000Y-87620000D03*
X210080000Y-87620000D03*
X210080000Y-85080000D03*
X210080000Y-82540000D03*
X210080000Y-80000000D03*
D10*
X193802000Y-44704000D03*
X193802000Y-54864000D03*
D18*
X197104000Y-55880000D03*
D10*
X199644000Y-55880000D03*
X202184000Y-55880000D03*
X202184000Y-48260000D03*
X199644000Y-48260000D03*
X197104000Y-48260000D03*
D19*
X195072000Y-62484000D03*
D10*
X202692000Y-62484000D03*
D16*
X146558000Y-62362000D03*
D17*
X149098000Y-62362000D03*
X151638000Y-62362000D03*
X151638000Y-59822000D03*
X149098000Y-59822000D03*
X146558000Y-59822000D03*
D10*
X181864000Y-75779000D03*
X181864000Y-70779000D03*
D20*
X207912500Y-57912000D03*
D21*
X207912500Y-60452000D03*
X207912500Y-62992000D03*
D10*
X174966000Y-54610000D03*
X169966000Y-54610000D03*
D18*
X186309000Y-74992113D03*
D10*
X186309000Y-72492113D03*
D16*
X196000000Y-80000000D03*
D17*
X196000000Y-82540000D03*
X196000000Y-85080000D03*
X196000000Y-87620000D03*
X201080000Y-87620000D03*
X201080000Y-85080000D03*
X201080000Y-82540000D03*
X201080000Y-80000000D03*
D22*
X186259000Y-46151000D02*
X184658000Y-47752000D01*
X203504000Y-46151000D02*
X186259000Y-46151000D01*
X190754000Y-76454000D02*
X187770887Y-76454000D01*
X203549000Y-78549000D02*
X205000000Y-80000000D01*
X213233000Y-63232500D02*
X207912500Y-57912000D01*
X161000000Y-78585000D02*
X161036000Y-78549000D01*
X187770887Y-76454000D02*
X186309000Y-74992113D01*
X196000000Y-80000000D02*
X196000000Y-78588000D01*
X152000000Y-80000000D02*
X152000000Y-78911000D01*
X212408000Y-78549000D02*
X213233000Y-77724000D01*
X207912500Y-57912000D02*
X207912500Y-50559500D01*
X190500000Y-78549000D02*
X195961000Y-78549000D01*
X190754000Y-78295000D02*
X190500000Y-78549000D01*
X195961000Y-78549000D02*
X203549000Y-78549000D01*
X143000000Y-80000000D02*
X143000000Y-78674000D01*
X161000000Y-80000000D02*
X161000000Y-78585000D01*
X181864000Y-75779000D02*
X185522113Y-75779000D01*
X161036000Y-78549000D02*
X190500000Y-78549000D01*
X196000000Y-78588000D02*
X195961000Y-78549000D01*
X207912500Y-50559500D02*
X203504000Y-46151000D01*
X190754000Y-76454000D02*
X190754000Y-78295000D01*
X203549000Y-78549000D02*
X212408000Y-78549000D01*
X142875000Y-78549000D02*
X151638000Y-78549000D01*
X143000000Y-78674000D02*
X142875000Y-78549000D01*
X135451000Y-78549000D02*
X142875000Y-78549000D01*
X151638000Y-78549000D02*
X161036000Y-78549000D01*
X134000000Y-80000000D02*
X135451000Y-78549000D01*
X185522113Y-75779000D02*
X186309000Y-74992113D01*
X152000000Y-78911000D02*
X151638000Y-78549000D01*
X213233000Y-77724000D02*
X213233000Y-63232500D01*
D23*
X194940000Y-54864000D02*
X199644000Y-50160000D01*
X199644000Y-50160000D02*
X199644000Y-48260000D01*
X171077000Y-56248000D02*
X192011000Y-56248000D01*
X193802000Y-54864000D02*
X194940000Y-54864000D01*
X193395000Y-54864000D02*
X193802000Y-54864000D01*
X192011000Y-56248000D02*
X193395000Y-54864000D01*
X169926000Y-57399000D02*
X171077000Y-56248000D01*
X187706000Y-65019000D02*
X189369000Y-66682000D01*
X189369000Y-66682000D02*
X201302000Y-66682000D01*
X201302000Y-66682000D02*
X203454000Y-68834000D01*
X192817240Y-67683000D02*
X192809240Y-67691000D01*
X196318760Y-67691000D02*
X196310760Y-67683000D01*
X193778760Y-67691000D02*
X193770760Y-67683000D01*
X196310760Y-67683000D02*
X195357240Y-67683000D01*
X195357240Y-67683000D02*
X195349240Y-67691000D01*
X198374000Y-68834000D02*
X198374000Y-68199000D01*
X195349240Y-67691000D02*
X193778760Y-67691000D01*
X191238760Y-67691000D02*
X191230760Y-67683000D01*
X198374000Y-68199000D02*
X197866000Y-67691000D01*
X185298000Y-67691000D02*
X182626000Y-65019000D01*
X191230760Y-67683000D02*
X190277240Y-67683000D01*
X192809240Y-67691000D02*
X191238760Y-67691000D01*
X197866000Y-67691000D02*
X196318760Y-67691000D01*
X190277240Y-67683000D02*
X190269240Y-67691000D01*
X190269240Y-67691000D02*
X185298000Y-67691000D01*
X193770760Y-67683000D02*
X192817240Y-67683000D01*
X187330000Y-67183000D02*
X199898000Y-67183000D01*
X200914000Y-68199000D02*
X200914000Y-68834000D01*
X199898000Y-67183000D02*
X200914000Y-68199000D01*
X185166000Y-65019000D02*
X187330000Y-67183000D01*
X202179000Y-65019000D02*
X205994000Y-68834000D01*
X190246000Y-65019000D02*
X202179000Y-65019000D01*
D22*
X172466000Y-67905000D02*
X172426000Y-67945000D01*
X174966000Y-57359000D02*
X175006000Y-57399000D01*
X177586000Y-57359000D02*
X177546000Y-57399000D01*
D23*
X151262000Y-57658000D02*
X149098000Y-59822000D01*
X183514000Y-59051000D02*
X156333000Y-59051000D01*
X156333000Y-59051000D02*
X154940000Y-57658000D01*
X154940000Y-57658000D02*
X151262000Y-57658000D01*
X185166000Y-57399000D02*
X183514000Y-59051000D01*
X156594000Y-58550000D02*
X154686000Y-56642000D01*
X147828000Y-57404000D02*
X147828000Y-61092000D01*
X148590000Y-56642000D02*
X147828000Y-57404000D01*
X180086000Y-57399000D02*
X179583000Y-57399000D01*
X178935000Y-58550000D02*
X156594000Y-58550000D01*
X154686000Y-56642000D02*
X148590000Y-56642000D01*
X180086000Y-57399000D02*
X178935000Y-58550000D01*
X147828000Y-61092000D02*
X149098000Y-62362000D01*
G04 #@! TA.AperFunction,Conductor*
G36*
X214067539Y-42638185D02*
G01*
X214113294Y-42690989D01*
X214124500Y-42742500D01*
X214124500Y-62551138D01*
X214118261Y-62572383D01*
X214116682Y-62594471D01*
X214108609Y-62605254D01*
X214104815Y-62618177D01*
X214088083Y-62632675D01*
X214074811Y-62650405D01*
X214062188Y-62655112D01*
X214052011Y-62663932D01*
X214030095Y-62667083D01*
X214009347Y-62674822D01*
X213996185Y-62671958D01*
X213982853Y-62673876D01*
X213962708Y-62664676D01*
X213941074Y-62659970D01*
X213923346Y-62646700D01*
X213919297Y-62644851D01*
X213912819Y-62638820D01*
X213860350Y-62586351D01*
X213807035Y-62533036D01*
X211533006Y-60259007D01*
X209199318Y-57925318D01*
X209165833Y-57863995D01*
X209162999Y-57837637D01*
X209162999Y-57114129D01*
X209162998Y-57114123D01*
X209162997Y-57114116D01*
X209156591Y-57054517D01*
X209146051Y-57026259D01*
X209106297Y-56919671D01*
X209106293Y-56919664D01*
X209020046Y-56804454D01*
X209020044Y-56804452D01*
X208904835Y-56718206D01*
X208904832Y-56718205D01*
X208904831Y-56718204D01*
X208893661Y-56714038D01*
X208837731Y-56672166D01*
X208813316Y-56606701D01*
X208813000Y-56597858D01*
X208813000Y-50470806D01*
X208812999Y-50470804D01*
X208778396Y-50296841D01*
X208778393Y-50296832D01*
X208710516Y-50132959D01*
X208710509Y-50132946D01*
X208611965Y-49985466D01*
X208553371Y-49926872D01*
X208486535Y-49860036D01*
X204078036Y-45451536D01*
X204078035Y-45451535D01*
X204078030Y-45451531D01*
X204023622Y-45415178D01*
X204023616Y-45415175D01*
X204018959Y-45412063D01*
X203930547Y-45352987D01*
X203848606Y-45319046D01*
X203766666Y-45285105D01*
X203766658Y-45285103D01*
X203592696Y-45250500D01*
X203592692Y-45250500D01*
X203592691Y-45250500D01*
X195162529Y-45250500D01*
X195095490Y-45230815D01*
X195049735Y-45178011D01*
X195039791Y-45108853D01*
X195044598Y-45088181D01*
X195070477Y-45008534D01*
X195102500Y-44806351D01*
X195102500Y-44601648D01*
X195070477Y-44399465D01*
X195007218Y-44204776D01*
X194973503Y-44138607D01*
X194914287Y-44022390D01*
X194906556Y-44011749D01*
X194793971Y-43856786D01*
X194649213Y-43712028D01*
X194483613Y-43591715D01*
X194483612Y-43591714D01*
X194483610Y-43591713D01*
X194426653Y-43562691D01*
X194301223Y-43498781D01*
X194106534Y-43435522D01*
X193931995Y-43407878D01*
X193904352Y-43403500D01*
X193699648Y-43403500D01*
X193675329Y-43407351D01*
X193497465Y-43435522D01*
X193302776Y-43498781D01*
X193120386Y-43591715D01*
X192954786Y-43712028D01*
X192810028Y-43856786D01*
X192689715Y-44022386D01*
X192596781Y-44204776D01*
X192533522Y-44399465D01*
X192501500Y-44601648D01*
X192501500Y-44806351D01*
X192533522Y-45008534D01*
X192559402Y-45088181D01*
X192561397Y-45158023D01*
X192525317Y-45217856D01*
X192462616Y-45248684D01*
X192441471Y-45250500D01*
X186170303Y-45250500D01*
X185996341Y-45285103D01*
X185996329Y-45285106D01*
X185914392Y-45319045D01*
X185914393Y-45319046D01*
X185832455Y-45352985D01*
X185744040Y-45412063D01*
X185744039Y-45412064D01*
X185684961Y-45451537D01*
X184921317Y-46215181D01*
X184859994Y-46248666D01*
X184833636Y-46251500D01*
X184007998Y-46251500D01*
X184007980Y-46251501D01*
X183905203Y-46262000D01*
X183905200Y-46262001D01*
X183738668Y-46317185D01*
X183738663Y-46317187D01*
X183589342Y-46409289D01*
X183465289Y-46533342D01*
X183373187Y-46682663D01*
X183373185Y-46682668D01*
X183357298Y-46730613D01*
X183318001Y-46849203D01*
X183318001Y-46849204D01*
X183318000Y-46849204D01*
X183307500Y-46951983D01*
X183307500Y-48552001D01*
X183307501Y-48552018D01*
X183318000Y-48654796D01*
X183318001Y-48654799D01*
X183363749Y-48792856D01*
X183373186Y-48821334D01*
X183465288Y-48970656D01*
X183589344Y-49094712D01*
X183738666Y-49186814D01*
X183905203Y-49241999D01*
X184007991Y-49252500D01*
X185308008Y-49252499D01*
X185313197Y-49251969D01*
X185328576Y-49250398D01*
X185410797Y-49241999D01*
X185577334Y-49186814D01*
X185726656Y-49094712D01*
X185850712Y-48970656D01*
X185942814Y-48821334D01*
X185942814Y-48821331D01*
X185946448Y-48815441D01*
X185998395Y-48768716D01*
X186067358Y-48757493D01*
X186131440Y-48785336D01*
X186139668Y-48792856D01*
X186278535Y-48931723D01*
X186278540Y-48931727D01*
X186450442Y-49056620D01*
X186639782Y-49153095D01*
X186841871Y-49218757D01*
X186908000Y-49229231D01*
X186908000Y-48185012D01*
X186965007Y-48217925D01*
X187092174Y-48252000D01*
X187223826Y-48252000D01*
X187350993Y-48217925D01*
X187408000Y-48185012D01*
X187408000Y-49229230D01*
X187474126Y-49218757D01*
X187474129Y-49218757D01*
X187676217Y-49153095D01*
X187865557Y-49056620D01*
X188037459Y-48931727D01*
X188037464Y-48931723D01*
X188187723Y-48781464D01*
X188187727Y-48781459D01*
X188312620Y-48609557D01*
X188409095Y-48420217D01*
X188474757Y-48218130D01*
X188474757Y-48218127D01*
X188508000Y-48008246D01*
X188508000Y-48002000D01*
X187591012Y-48002000D01*
X187623925Y-47944993D01*
X187658000Y-47817826D01*
X187658000Y-47686174D01*
X187623925Y-47559007D01*
X187591012Y-47502000D01*
X188508000Y-47502000D01*
X188508000Y-47495753D01*
X188474757Y-47285872D01*
X188474757Y-47285869D01*
X188451346Y-47213818D01*
X188449351Y-47143977D01*
X188485431Y-47084144D01*
X188548132Y-47053316D01*
X188569277Y-47051500D01*
X196174193Y-47051500D01*
X196241232Y-47071185D01*
X196286987Y-47123989D01*
X196296931Y-47193147D01*
X196267906Y-47256703D01*
X196260095Y-47264458D01*
X196260226Y-47264589D01*
X196112032Y-47412782D01*
X196112028Y-47412786D01*
X195991715Y-47578386D01*
X195898781Y-47760776D01*
X195835522Y-47955465D01*
X195803500Y-48157648D01*
X195803500Y-48362351D01*
X195835522Y-48564534D01*
X195898781Y-48759223D01*
X195962691Y-48884653D01*
X195991585Y-48941359D01*
X195991715Y-48941613D01*
X196112028Y-49107213D01*
X196256786Y-49251971D01*
X196377226Y-49339474D01*
X196422390Y-49372287D01*
X196502453Y-49413081D01*
X196604776Y-49465218D01*
X196604778Y-49465218D01*
X196604781Y-49465220D01*
X196709137Y-49499127D01*
X196799465Y-49528477D01*
X196900557Y-49544488D01*
X197001648Y-49560500D01*
X197001649Y-49560500D01*
X197206351Y-49560500D01*
X197206352Y-49560500D01*
X197408534Y-49528477D01*
X197603219Y-49465220D01*
X197785610Y-49372287D01*
X197878590Y-49304732D01*
X197951213Y-49251971D01*
X197951215Y-49251968D01*
X197951219Y-49251966D01*
X198095966Y-49107219D01*
X198095968Y-49107215D01*
X198095971Y-49107213D01*
X198216284Y-48941614D01*
X198216286Y-48941611D01*
X198216287Y-48941610D01*
X198263516Y-48848917D01*
X198311489Y-48798123D01*
X198379310Y-48781328D01*
X198445445Y-48803865D01*
X198484485Y-48848919D01*
X198531715Y-48941614D01*
X198652028Y-49107213D01*
X198796784Y-49251969D01*
X198865863Y-49302157D01*
X198942385Y-49357753D01*
X198985051Y-49413081D01*
X198993500Y-49458070D01*
X198993500Y-49839191D01*
X198973815Y-49906230D01*
X198957181Y-49926872D01*
X194918300Y-53965753D01*
X194856977Y-53999238D01*
X194787285Y-53994254D01*
X194742938Y-53965753D01*
X194649213Y-53872028D01*
X194483613Y-53751715D01*
X194483612Y-53751714D01*
X194483610Y-53751713D01*
X194426653Y-53722691D01*
X194301223Y-53658781D01*
X194106534Y-53595522D01*
X193931995Y-53567878D01*
X193904352Y-53563500D01*
X193699648Y-53563500D01*
X193675329Y-53567351D01*
X193497465Y-53595522D01*
X193302776Y-53658781D01*
X193120386Y-53751715D01*
X192954786Y-53872028D01*
X192810028Y-54016786D01*
X192689715Y-54182386D01*
X192596781Y-54364776D01*
X192533522Y-54559465D01*
X192501500Y-54761648D01*
X192501500Y-54786192D01*
X192481815Y-54853231D01*
X192465181Y-54873873D01*
X191777873Y-55561181D01*
X191716550Y-55594666D01*
X191690192Y-55597500D01*
X183718792Y-55597500D01*
X183651753Y-55577815D01*
X183605998Y-55525011D01*
X183596054Y-55455853D01*
X183618474Y-55400614D01*
X183697859Y-55291349D01*
X183790755Y-55109031D01*
X183853990Y-54914417D01*
X183886000Y-54712317D01*
X183886000Y-54507682D01*
X183853990Y-54305582D01*
X183790755Y-54110968D01*
X183697859Y-53928650D01*
X183665474Y-53884077D01*
X183665474Y-53884076D01*
X182986000Y-54563551D01*
X182986000Y-54557339D01*
X182958741Y-54455606D01*
X182906080Y-54364394D01*
X182831606Y-54289920D01*
X182740394Y-54237259D01*
X182638661Y-54210000D01*
X182632446Y-54210000D01*
X183311922Y-53530524D01*
X183311921Y-53530523D01*
X183267359Y-53498147D01*
X183267350Y-53498141D01*
X183085031Y-53405244D01*
X182890417Y-53342009D01*
X182688317Y-53310000D01*
X182483683Y-53310000D01*
X182281582Y-53342009D01*
X182086968Y-53405244D01*
X181904644Y-53498143D01*
X181860077Y-53530523D01*
X181860077Y-53530524D01*
X182539554Y-54210000D01*
X182533339Y-54210000D01*
X182431606Y-54237259D01*
X182340394Y-54289920D01*
X182265920Y-54364394D01*
X182213259Y-54455606D01*
X182186000Y-54557339D01*
X182186000Y-54563553D01*
X181506524Y-53884077D01*
X181506523Y-53884077D01*
X181474143Y-53928644D01*
X181381244Y-54110968D01*
X181318009Y-54305582D01*
X181286000Y-54507682D01*
X181286000Y-54712317D01*
X181318009Y-54914417D01*
X181381244Y-55109031D01*
X181474140Y-55291349D01*
X181553526Y-55400614D01*
X181577006Y-55466421D01*
X181561181Y-55534475D01*
X181511075Y-55583170D01*
X181453208Y-55597500D01*
X178719410Y-55597500D01*
X178652371Y-55577815D01*
X178606616Y-55525011D01*
X178596672Y-55455853D01*
X178619091Y-55400615D01*
X178641859Y-55369277D01*
X178698287Y-55291610D01*
X178791220Y-55109219D01*
X178854477Y-54914534D01*
X178886500Y-54712352D01*
X178886500Y-54507648D01*
X178869099Y-54397786D01*
X178854477Y-54305465D01*
X178814486Y-54182386D01*
X178791220Y-54110781D01*
X178791218Y-54110778D01*
X178791218Y-54110776D01*
X178743327Y-54016786D01*
X178698287Y-53928390D01*
X178666092Y-53884077D01*
X178577971Y-53762786D01*
X178433213Y-53618028D01*
X178267613Y-53497715D01*
X178267612Y-53497714D01*
X178267610Y-53497713D01*
X178210653Y-53468691D01*
X178085223Y-53404781D01*
X177890534Y-53341522D01*
X177715995Y-53313878D01*
X177688352Y-53309500D01*
X177483648Y-53309500D01*
X177459329Y-53313351D01*
X177281465Y-53341522D01*
X177086776Y-53404781D01*
X176904386Y-53497715D01*
X176738786Y-53618028D01*
X176594028Y-53762786D01*
X176473715Y-53928386D01*
X176386485Y-54099584D01*
X176338510Y-54150380D01*
X176270689Y-54167175D01*
X176204554Y-54144637D01*
X176165515Y-54099584D01*
X176144958Y-54059239D01*
X176078287Y-53928390D01*
X176046092Y-53884077D01*
X175957971Y-53762786D01*
X175813213Y-53618028D01*
X175647613Y-53497715D01*
X175647612Y-53497714D01*
X175647610Y-53497713D01*
X175590653Y-53468691D01*
X175465223Y-53404781D01*
X175270534Y-53341522D01*
X175095995Y-53313878D01*
X175068352Y-53309500D01*
X174863648Y-53309500D01*
X174839329Y-53313351D01*
X174661465Y-53341522D01*
X174466776Y-53404781D01*
X174284386Y-53497715D01*
X174118786Y-53618028D01*
X173974028Y-53762786D01*
X173853715Y-53928386D01*
X173760781Y-54110776D01*
X173697522Y-54305465D01*
X173671072Y-54472466D01*
X173665500Y-54507648D01*
X173665500Y-54712352D01*
X173668704Y-54732580D01*
X173697522Y-54914534D01*
X173760781Y-55109223D01*
X173853712Y-55291609D01*
X173932909Y-55400615D01*
X173956388Y-55466422D01*
X173940562Y-55534476D01*
X173890456Y-55583170D01*
X173832590Y-55597500D01*
X171098792Y-55597500D01*
X171031753Y-55577815D01*
X170985998Y-55525011D01*
X170976054Y-55455853D01*
X170998474Y-55400614D01*
X171077859Y-55291349D01*
X171170755Y-55109031D01*
X171233990Y-54914417D01*
X171266000Y-54712317D01*
X171266000Y-54507682D01*
X171233990Y-54305582D01*
X171170755Y-54110968D01*
X171077859Y-53928650D01*
X171045474Y-53884077D01*
X171045474Y-53884076D01*
X170366000Y-54563553D01*
X170366000Y-54557339D01*
X170338741Y-54455606D01*
X170286080Y-54364394D01*
X170211606Y-54289920D01*
X170120394Y-54237259D01*
X170018661Y-54210000D01*
X170012446Y-54210000D01*
X170691922Y-53530524D01*
X170691921Y-53530523D01*
X170647359Y-53498147D01*
X170647350Y-53498141D01*
X170465031Y-53405244D01*
X170270417Y-53342009D01*
X170068317Y-53310000D01*
X169863683Y-53310000D01*
X169661582Y-53342009D01*
X169466968Y-53405244D01*
X169284644Y-53498143D01*
X169240077Y-53530523D01*
X169240077Y-53530524D01*
X169919554Y-54210000D01*
X169913339Y-54210000D01*
X169811606Y-54237259D01*
X169720394Y-54289920D01*
X169645920Y-54364394D01*
X169593259Y-54455606D01*
X169566000Y-54557339D01*
X169566000Y-54563553D01*
X168886524Y-53884077D01*
X168886523Y-53884077D01*
X168854143Y-53928644D01*
X168761244Y-54110968D01*
X168698009Y-54305582D01*
X168666000Y-54507682D01*
X168666000Y-54712317D01*
X168698009Y-54914417D01*
X168761244Y-55109031D01*
X168854141Y-55291350D01*
X168854147Y-55291359D01*
X168886523Y-55335921D01*
X168886524Y-55335922D01*
X169566000Y-54656446D01*
X169566000Y-54662661D01*
X169593259Y-54764394D01*
X169645920Y-54855606D01*
X169720394Y-54930080D01*
X169811606Y-54982741D01*
X169913339Y-55010000D01*
X169919553Y-55010000D01*
X169240076Y-55689474D01*
X169284650Y-55721859D01*
X169466968Y-55814755D01*
X169661580Y-55877989D01*
X169665468Y-55878605D01*
X169728604Y-55908531D01*
X169765538Y-55967841D01*
X169764544Y-56037704D01*
X169725937Y-56095938D01*
X169665476Y-56123552D01*
X169621463Y-56130523D01*
X169426776Y-56193781D01*
X169244386Y-56286715D01*
X169078786Y-56407028D01*
X168934028Y-56551786D01*
X168813715Y-56717386D01*
X168766485Y-56810080D01*
X168718510Y-56860876D01*
X168650689Y-56877671D01*
X168584554Y-56855134D01*
X168545515Y-56810080D01*
X168516571Y-56753275D01*
X168498287Y-56717390D01*
X168420253Y-56609984D01*
X168377971Y-56551786D01*
X168233213Y-56407028D01*
X168067613Y-56286715D01*
X168067612Y-56286714D01*
X168067610Y-56286713D01*
X168010653Y-56257691D01*
X167885223Y-56193781D01*
X167690534Y-56130522D01*
X167510469Y-56102003D01*
X167488352Y-56098500D01*
X167283648Y-56098500D01*
X167261531Y-56102003D01*
X167081465Y-56130522D01*
X166886776Y-56193781D01*
X166704386Y-56286715D01*
X166538786Y-56407028D01*
X166394028Y-56551786D01*
X166273715Y-56717386D01*
X166226485Y-56810080D01*
X166178510Y-56860876D01*
X166110689Y-56877671D01*
X166044554Y-56855134D01*
X166005515Y-56810080D01*
X165976571Y-56753275D01*
X165958287Y-56717390D01*
X165880253Y-56609984D01*
X165837971Y-56551786D01*
X165693213Y-56407028D01*
X165527613Y-56286715D01*
X165527612Y-56286714D01*
X165527610Y-56286713D01*
X165470653Y-56257691D01*
X165345223Y-56193781D01*
X165150534Y-56130522D01*
X164970469Y-56102003D01*
X164948352Y-56098500D01*
X164743648Y-56098500D01*
X164721531Y-56102003D01*
X164541465Y-56130522D01*
X164346776Y-56193781D01*
X164164386Y-56286715D01*
X163998786Y-56407028D01*
X163854028Y-56551786D01*
X163733715Y-56717386D01*
X163686485Y-56810080D01*
X163638510Y-56860876D01*
X163570689Y-56877671D01*
X163504554Y-56855134D01*
X163465515Y-56810080D01*
X163436571Y-56753275D01*
X163418287Y-56717390D01*
X163340253Y-56609984D01*
X163297971Y-56551786D01*
X163153213Y-56407028D01*
X162987613Y-56286715D01*
X162987612Y-56286714D01*
X162987610Y-56286713D01*
X162930653Y-56257691D01*
X162805223Y-56193781D01*
X162610534Y-56130522D01*
X162430469Y-56102003D01*
X162408352Y-56098500D01*
X162203648Y-56098500D01*
X162181531Y-56102003D01*
X162001465Y-56130522D01*
X161806776Y-56193781D01*
X161624386Y-56286715D01*
X161458786Y-56407028D01*
X161314028Y-56551786D01*
X161193715Y-56717386D01*
X161146485Y-56810080D01*
X161098510Y-56860876D01*
X161030689Y-56877671D01*
X160964554Y-56855134D01*
X160925515Y-56810080D01*
X160896571Y-56753275D01*
X160878287Y-56717390D01*
X160800253Y-56609984D01*
X160757971Y-56551786D01*
X160613213Y-56407028D01*
X160447613Y-56286715D01*
X160447612Y-56286714D01*
X160447610Y-56286713D01*
X160390653Y-56257691D01*
X160265223Y-56193781D01*
X160070534Y-56130522D01*
X159890469Y-56102003D01*
X159868352Y-56098500D01*
X159663648Y-56098500D01*
X159641531Y-56102003D01*
X159461465Y-56130522D01*
X159266776Y-56193781D01*
X159084386Y-56286715D01*
X158918786Y-56407028D01*
X158774028Y-56551786D01*
X158653715Y-56717386D01*
X158606485Y-56810080D01*
X158558510Y-56860876D01*
X158490689Y-56877671D01*
X158424554Y-56855134D01*
X158385515Y-56810080D01*
X158356571Y-56753275D01*
X158338287Y-56717390D01*
X158260253Y-56609984D01*
X158217971Y-56551786D01*
X158073213Y-56407028D01*
X157907613Y-56286715D01*
X157907612Y-56286714D01*
X157907610Y-56286713D01*
X157850653Y-56257691D01*
X157725223Y-56193781D01*
X157530534Y-56130522D01*
X157350469Y-56102003D01*
X157328352Y-56098500D01*
X157123648Y-56098500D01*
X157101531Y-56102003D01*
X156921465Y-56130522D01*
X156726776Y-56193781D01*
X156544386Y-56286715D01*
X156378786Y-56407028D01*
X156234028Y-56551786D01*
X156113715Y-56717386D01*
X156045251Y-56851753D01*
X155997276Y-56902549D01*
X155929455Y-56919344D01*
X155863320Y-56896806D01*
X155847085Y-56883139D01*
X155196964Y-56233018D01*
X155163479Y-56171695D01*
X155168463Y-56102003D01*
X155184327Y-56072452D01*
X155290287Y-55926610D01*
X155383220Y-55744219D01*
X155446477Y-55549534D01*
X155478500Y-55347352D01*
X155478500Y-55142648D01*
X155463620Y-55048698D01*
X155446477Y-54940465D01*
X155396350Y-54786192D01*
X155383220Y-54745781D01*
X155383218Y-54745778D01*
X155383218Y-54745776D01*
X155290286Y-54563387D01*
X155169971Y-54397786D01*
X155025213Y-54253028D01*
X154859613Y-54132715D01*
X154859612Y-54132714D01*
X154859610Y-54132713D01*
X154786352Y-54095386D01*
X154677223Y-54039781D01*
X154482534Y-53976522D01*
X154307995Y-53948878D01*
X154280352Y-53944500D01*
X154075648Y-53944500D01*
X154051329Y-53948351D01*
X153873465Y-53976522D01*
X153678776Y-54039781D01*
X153496386Y-54132715D01*
X153330786Y-54253028D01*
X153186028Y-54397786D01*
X153065715Y-54563386D01*
X152972781Y-54745776D01*
X152909522Y-54940465D01*
X152877500Y-55142648D01*
X152877500Y-55347351D01*
X152909522Y-55549534D01*
X152972781Y-55744223D01*
X153006911Y-55811205D01*
X153019807Y-55879874D01*
X152993531Y-55944615D01*
X152936424Y-55984872D01*
X152896426Y-55991500D01*
X148525929Y-55991500D01*
X148400261Y-56016497D01*
X148400255Y-56016499D01*
X148299446Y-56058256D01*
X148299445Y-56058256D01*
X148281876Y-56065533D01*
X148175326Y-56136726D01*
X147322727Y-56989325D01*
X147322721Y-56989332D01*
X147279167Y-57054516D01*
X147279168Y-57054517D01*
X147251534Y-57095874D01*
X147202499Y-57214255D01*
X147202497Y-57214261D01*
X147177500Y-57339928D01*
X147177500Y-58432616D01*
X147157815Y-58499655D01*
X147105011Y-58545410D01*
X147035853Y-58555354D01*
X147015183Y-58550547D01*
X146874244Y-58504754D01*
X146874240Y-58504753D01*
X146699012Y-58477000D01*
X146664287Y-58471500D01*
X146451713Y-58471500D01*
X146416988Y-58477000D01*
X146241760Y-58504753D01*
X146039585Y-58570444D01*
X145850179Y-58666951D01*
X145678213Y-58791890D01*
X145527890Y-58942213D01*
X145402951Y-59114179D01*
X145306444Y-59303585D01*
X145240753Y-59505760D01*
X145215379Y-59665966D01*
X145207500Y-59715713D01*
X145207500Y-59928287D01*
X145216653Y-59986075D01*
X145240735Y-60138127D01*
X145240754Y-60138243D01*
X145296702Y-60310433D01*
X145306444Y-60340414D01*
X145402951Y-60529820D01*
X145527890Y-60701786D01*
X145641430Y-60815326D01*
X145674915Y-60876649D01*
X145669931Y-60946341D01*
X145628059Y-61002274D01*
X145597083Y-61019189D01*
X145465669Y-61068203D01*
X145465664Y-61068206D01*
X145350455Y-61154452D01*
X145350452Y-61154455D01*
X145264206Y-61269664D01*
X145264202Y-61269671D01*
X145213908Y-61404517D01*
X145207501Y-61464116D01*
X145207500Y-61464135D01*
X145207500Y-63259870D01*
X145207501Y-63259876D01*
X145213908Y-63319483D01*
X145264202Y-63454328D01*
X145264206Y-63454335D01*
X145350452Y-63569544D01*
X145350455Y-63569547D01*
X145465664Y-63655793D01*
X145465671Y-63655797D01*
X145600517Y-63706091D01*
X145600516Y-63706091D01*
X145607444Y-63706835D01*
X145660127Y-63712500D01*
X147455872Y-63712499D01*
X147515483Y-63706091D01*
X147650331Y-63655796D01*
X147765546Y-63569546D01*
X147851796Y-63454331D01*
X147900810Y-63322916D01*
X147942681Y-63266984D01*
X148008145Y-63242566D01*
X148076418Y-63257417D01*
X148104673Y-63278569D01*
X148218213Y-63392109D01*
X148390179Y-63517048D01*
X148390181Y-63517049D01*
X148390184Y-63517051D01*
X148579588Y-63613557D01*
X148781757Y-63679246D01*
X148991713Y-63712500D01*
X148991714Y-63712500D01*
X149204286Y-63712500D01*
X149204287Y-63712500D01*
X149414243Y-63679246D01*
X149616412Y-63613557D01*
X149805816Y-63517051D01*
X149867784Y-63472029D01*
X149977786Y-63392109D01*
X149977788Y-63392106D01*
X149977792Y-63392104D01*
X150128104Y-63241792D01*
X150128106Y-63241788D01*
X150128109Y-63241786D01*
X150253048Y-63069820D01*
X150253047Y-63069820D01*
X150253051Y-63069816D01*
X150257514Y-63061054D01*
X150305488Y-63010259D01*
X150373308Y-62993463D01*
X150439444Y-63015999D01*
X150478486Y-63061056D01*
X150482951Y-63069820D01*
X150607890Y-63241786D01*
X150758213Y-63392109D01*
X150930179Y-63517048D01*
X150930181Y-63517049D01*
X150930184Y-63517051D01*
X151119588Y-63613557D01*
X151321757Y-63679246D01*
X151531713Y-63712500D01*
X151531714Y-63712500D01*
X151744286Y-63712500D01*
X151744287Y-63712500D01*
X151954243Y-63679246D01*
X152156412Y-63613557D01*
X152345816Y-63517051D01*
X152407784Y-63472029D01*
X152517786Y-63392109D01*
X152517788Y-63392106D01*
X152517792Y-63392104D01*
X152668104Y-63241792D01*
X152668106Y-63241788D01*
X152668109Y-63241786D01*
X152793048Y-63069820D01*
X152793047Y-63069820D01*
X152793051Y-63069816D01*
X152889557Y-62880412D01*
X152955246Y-62678243D01*
X152988500Y-62468287D01*
X152988500Y-62255713D01*
X152955246Y-62045757D01*
X152902682Y-61883983D01*
X193771500Y-61883983D01*
X193771500Y-63084001D01*
X193771501Y-63084018D01*
X193782000Y-63186796D01*
X193782001Y-63186799D01*
X193825969Y-63319483D01*
X193837186Y-63353334D01*
X193929288Y-63502656D01*
X194053344Y-63626712D01*
X194202666Y-63718814D01*
X194369203Y-63773999D01*
X194471991Y-63784500D01*
X195672008Y-63784499D01*
X195774797Y-63773999D01*
X195941334Y-63718814D01*
X196090656Y-63626712D01*
X196214712Y-63502656D01*
X196306814Y-63353334D01*
X196361999Y-63186797D01*
X196372500Y-63084009D01*
X196372499Y-62381648D01*
X201391500Y-62381648D01*
X201391500Y-62586351D01*
X201423522Y-62788534D01*
X201486781Y-62983223D01*
X201579715Y-63165613D01*
X201700028Y-63331213D01*
X201844786Y-63475971D01*
X201973080Y-63569180D01*
X202010390Y-63596287D01*
X202077543Y-63630503D01*
X202192776Y-63689218D01*
X202192778Y-63689218D01*
X202192781Y-63689220D01*
X202297137Y-63723127D01*
X202387465Y-63752477D01*
X202488557Y-63768488D01*
X202589648Y-63784500D01*
X202589649Y-63784500D01*
X202794351Y-63784500D01*
X202794352Y-63784500D01*
X202996534Y-63752477D01*
X203191219Y-63689220D01*
X203373610Y-63596287D01*
X203502482Y-63502657D01*
X203539213Y-63475971D01*
X203539215Y-63475968D01*
X203539219Y-63475966D01*
X203683966Y-63331219D01*
X203683968Y-63331215D01*
X203683971Y-63331213D01*
X203788892Y-63186799D01*
X203804287Y-63165610D01*
X203897220Y-62983219D01*
X203960477Y-62788534D01*
X203992500Y-62586352D01*
X203992500Y-62381648D01*
X203960477Y-62179466D01*
X203897220Y-61984781D01*
X203897218Y-61984778D01*
X203897218Y-61984776D01*
X203845865Y-61883991D01*
X203804287Y-61802390D01*
X203782419Y-61772291D01*
X203683971Y-61636786D01*
X203539213Y-61492028D01*
X203373613Y-61371715D01*
X203373612Y-61371714D01*
X203373610Y-61371713D01*
X203295453Y-61331890D01*
X203191223Y-61278781D01*
X202996534Y-61215522D01*
X202821995Y-61187878D01*
X202794352Y-61183500D01*
X202589648Y-61183500D01*
X202565329Y-61187351D01*
X202387465Y-61215522D01*
X202192776Y-61278781D01*
X202010386Y-61371715D01*
X201844786Y-61492028D01*
X201700028Y-61636786D01*
X201579715Y-61802386D01*
X201486781Y-61984776D01*
X201423522Y-62179465D01*
X201391500Y-62381648D01*
X196372499Y-62381648D01*
X196372499Y-61883992D01*
X196361999Y-61781203D01*
X196306814Y-61614666D01*
X196214712Y-61465344D01*
X196090656Y-61341288D01*
X195974546Y-61269671D01*
X195941336Y-61249187D01*
X195941331Y-61249185D01*
X195939862Y-61248698D01*
X195774797Y-61194001D01*
X195774795Y-61194000D01*
X195672010Y-61183500D01*
X194471998Y-61183500D01*
X194471981Y-61183501D01*
X194369203Y-61194000D01*
X194369200Y-61194001D01*
X194202668Y-61249185D01*
X194202663Y-61249187D01*
X194053342Y-61341289D01*
X193929289Y-61465342D01*
X193837187Y-61614663D01*
X193837185Y-61614668D01*
X193809349Y-61698670D01*
X193782001Y-61781203D01*
X193782001Y-61781204D01*
X193782000Y-61781204D01*
X193771500Y-61883983D01*
X152902682Y-61883983D01*
X152889557Y-61843588D01*
X152793051Y-61654184D01*
X152793049Y-61654181D01*
X152793048Y-61654179D01*
X152668109Y-61482213D01*
X152517786Y-61331890D01*
X152345817Y-61206949D01*
X152336504Y-61202204D01*
X152285707Y-61154230D01*
X152268912Y-61086409D01*
X152291449Y-61020274D01*
X152336507Y-60981232D01*
X152345555Y-60976622D01*
X152399716Y-60937270D01*
X152399717Y-60937270D01*
X151767408Y-60304962D01*
X151830993Y-60287925D01*
X151945007Y-60222099D01*
X152038099Y-60129007D01*
X152103925Y-60014993D01*
X152120962Y-59951408D01*
X152753270Y-60583717D01*
X152753270Y-60583716D01*
X152792622Y-60529554D01*
X152889095Y-60340217D01*
X152898773Y-60310433D01*
X152954757Y-60138130D01*
X152954757Y-60138127D01*
X152988000Y-59928246D01*
X152988000Y-59715753D01*
X152954757Y-59505872D01*
X152954757Y-59505869D01*
X152889095Y-59303782D01*
X152792624Y-59114449D01*
X152753270Y-59060282D01*
X152753269Y-59060282D01*
X152120962Y-59692590D01*
X152103925Y-59629007D01*
X152038099Y-59514993D01*
X151945007Y-59421901D01*
X151830993Y-59356075D01*
X151767408Y-59339037D01*
X152399716Y-58706728D01*
X152345550Y-58667375D01*
X152156217Y-58570904D01*
X152093206Y-58550431D01*
X152035531Y-58510994D01*
X152008332Y-58446635D01*
X152020246Y-58377789D01*
X152067490Y-58326313D01*
X152131524Y-58308500D01*
X154619192Y-58308500D01*
X154686231Y-58328185D01*
X154706873Y-58344819D01*
X155918324Y-59556271D01*
X155918331Y-59556277D01*
X156024871Y-59627464D01*
X156024870Y-59627464D01*
X156059544Y-59641826D01*
X156143256Y-59676501D01*
X156143260Y-59676501D01*
X156143261Y-59676502D01*
X156268928Y-59701500D01*
X156268931Y-59701500D01*
X183578071Y-59701500D01*
X183671288Y-59682957D01*
X183703744Y-59676501D01*
X183822127Y-59627465D01*
X183928669Y-59556277D01*
X184778808Y-58706136D01*
X184840131Y-58672652D01*
X184885887Y-58671345D01*
X185063648Y-58699500D01*
X185063649Y-58699500D01*
X185268351Y-58699500D01*
X185268352Y-58699500D01*
X185470534Y-58667477D01*
X185665219Y-58604220D01*
X185847610Y-58511287D01*
X185955892Y-58432616D01*
X186013213Y-58390971D01*
X186013215Y-58390968D01*
X186013219Y-58390966D01*
X186157966Y-58246219D01*
X186157968Y-58246215D01*
X186157971Y-58246213D01*
X186278284Y-58080614D01*
X186278285Y-58080613D01*
X186278287Y-58080610D01*
X186325516Y-57987917D01*
X186373489Y-57937123D01*
X186441310Y-57920328D01*
X186507445Y-57942865D01*
X186546485Y-57987919D01*
X186593715Y-58080614D01*
X186714028Y-58246213D01*
X186858786Y-58390971D01*
X187008380Y-58499655D01*
X187024390Y-58511287D01*
X187140490Y-58570443D01*
X187206776Y-58604218D01*
X187206778Y-58604218D01*
X187206781Y-58604220D01*
X187311137Y-58638127D01*
X187401465Y-58667477D01*
X187502557Y-58683488D01*
X187603648Y-58699500D01*
X187603649Y-58699500D01*
X187808351Y-58699500D01*
X187808352Y-58699500D01*
X188010534Y-58667477D01*
X188205219Y-58604220D01*
X188387610Y-58511287D01*
X188495892Y-58432616D01*
X188553213Y-58390971D01*
X188553215Y-58390968D01*
X188553219Y-58390966D01*
X188697966Y-58246219D01*
X188697968Y-58246215D01*
X188697971Y-58246213D01*
X188818284Y-58080614D01*
X188818285Y-58080613D01*
X188818287Y-58080610D01*
X188865516Y-57987917D01*
X188913489Y-57937123D01*
X188981310Y-57920328D01*
X189047445Y-57942865D01*
X189086485Y-57987919D01*
X189133715Y-58080614D01*
X189254028Y-58246213D01*
X189398786Y-58390971D01*
X189548380Y-58499655D01*
X189564390Y-58511287D01*
X189680490Y-58570443D01*
X189746776Y-58604218D01*
X189746778Y-58604218D01*
X189746781Y-58604220D01*
X189851137Y-58638127D01*
X189941465Y-58667477D01*
X190042557Y-58683488D01*
X190143648Y-58699500D01*
X190143649Y-58699500D01*
X190348351Y-58699500D01*
X190348352Y-58699500D01*
X190550534Y-58667477D01*
X190745219Y-58604220D01*
X190809145Y-58571648D01*
X192501500Y-58571648D01*
X192501500Y-58776351D01*
X192533522Y-58978534D01*
X192596781Y-59173223D01*
X192689715Y-59355613D01*
X192810028Y-59521213D01*
X192954786Y-59665971D01*
X193107606Y-59776999D01*
X193120390Y-59786287D01*
X193236607Y-59845503D01*
X193302776Y-59879218D01*
X193302778Y-59879218D01*
X193302781Y-59879220D01*
X193329268Y-59887826D01*
X193497465Y-59942477D01*
X193598557Y-59958488D01*
X193699648Y-59974500D01*
X193699649Y-59974500D01*
X193904351Y-59974500D01*
X193904352Y-59974500D01*
X194106534Y-59942477D01*
X194301219Y-59879220D01*
X194483610Y-59786287D01*
X194580748Y-59715713D01*
X194649213Y-59665971D01*
X194649215Y-59665968D01*
X194649219Y-59665966D01*
X194793966Y-59521219D01*
X194793968Y-59521215D01*
X194793971Y-59521213D01*
X194849649Y-59444577D01*
X194914287Y-59355610D01*
X195007220Y-59173219D01*
X195070477Y-58978534D01*
X195102500Y-58776352D01*
X195102500Y-58571648D01*
X202661500Y-58571648D01*
X202661500Y-58776351D01*
X202693522Y-58978534D01*
X202756781Y-59173223D01*
X202849715Y-59355613D01*
X202970028Y-59521213D01*
X203114786Y-59665971D01*
X203267606Y-59776999D01*
X203280390Y-59786287D01*
X203396607Y-59845503D01*
X203462776Y-59879218D01*
X203462778Y-59879218D01*
X203462781Y-59879220D01*
X203489268Y-59887826D01*
X203657465Y-59942477D01*
X203758557Y-59958488D01*
X203859648Y-59974500D01*
X203859649Y-59974500D01*
X204064351Y-59974500D01*
X204064352Y-59974500D01*
X204266534Y-59942477D01*
X204461219Y-59879220D01*
X204643610Y-59786287D01*
X204740748Y-59715713D01*
X204809213Y-59665971D01*
X204809215Y-59665968D01*
X204809219Y-59665966D01*
X204953966Y-59521219D01*
X204953968Y-59521215D01*
X204953971Y-59521213D01*
X205009649Y-59444577D01*
X205074287Y-59355610D01*
X205167220Y-59173219D01*
X205230477Y-58978534D01*
X205262500Y-58776352D01*
X205262500Y-58571648D01*
X205240479Y-58432616D01*
X205230477Y-58369465D01*
X205194537Y-58258853D01*
X205167220Y-58174781D01*
X205167218Y-58174778D01*
X205167218Y-58174776D01*
X205119237Y-58080610D01*
X205074287Y-57992390D01*
X205066556Y-57981749D01*
X204953971Y-57826786D01*
X204809213Y-57682028D01*
X204643613Y-57561715D01*
X204643612Y-57561714D01*
X204643610Y-57561713D01*
X204586653Y-57532691D01*
X204461223Y-57468781D01*
X204266534Y-57405522D01*
X204091995Y-57377878D01*
X204064352Y-57373500D01*
X203859648Y-57373500D01*
X203835329Y-57377351D01*
X203657465Y-57405522D01*
X203462776Y-57468781D01*
X203280386Y-57561715D01*
X203114786Y-57682028D01*
X202970028Y-57826786D01*
X202849715Y-57992386D01*
X202756781Y-58174776D01*
X202693522Y-58369465D01*
X202661500Y-58571648D01*
X195102500Y-58571648D01*
X195080479Y-58432616D01*
X195070477Y-58369465D01*
X195034537Y-58258853D01*
X195007220Y-58174781D01*
X195007218Y-58174778D01*
X195007218Y-58174776D01*
X194959237Y-58080610D01*
X194914287Y-57992390D01*
X194906556Y-57981749D01*
X194793971Y-57826786D01*
X194649213Y-57682028D01*
X194483613Y-57561715D01*
X194483612Y-57561714D01*
X194483610Y-57561713D01*
X194426653Y-57532691D01*
X194301223Y-57468781D01*
X194106534Y-57405522D01*
X193931995Y-57377878D01*
X193904352Y-57373500D01*
X193699648Y-57373500D01*
X193675329Y-57377351D01*
X193497465Y-57405522D01*
X193302776Y-57468781D01*
X193120386Y-57561715D01*
X192954786Y-57682028D01*
X192810028Y-57826786D01*
X192689715Y-57992386D01*
X192596781Y-58174776D01*
X192533522Y-58369465D01*
X192501500Y-58571648D01*
X190809145Y-58571648D01*
X190927610Y-58511287D01*
X191093219Y-58390966D01*
X191237966Y-58246219D01*
X191237968Y-58246215D01*
X191237971Y-58246213D01*
X191290732Y-58173590D01*
X191358287Y-58080610D01*
X191451220Y-57898219D01*
X191514477Y-57703534D01*
X191546500Y-57501352D01*
X191546500Y-57296648D01*
X191514477Y-57094466D01*
X191514475Y-57094462D01*
X191514475Y-57094457D01*
X191503545Y-57060817D01*
X191501550Y-56990976D01*
X191537631Y-56931144D01*
X191600332Y-56900316D01*
X191621476Y-56898500D01*
X192075071Y-56898500D01*
X192159615Y-56881682D01*
X192200744Y-56873501D01*
X192319127Y-56824465D01*
X192349076Y-56804454D01*
X192425669Y-56753277D01*
X193111186Y-56067758D01*
X193172507Y-56034275D01*
X193242198Y-56039259D01*
X193255160Y-56044956D01*
X193302776Y-56069218D01*
X193302778Y-56069218D01*
X193302781Y-56069220D01*
X193373565Y-56092219D01*
X193497465Y-56132477D01*
X193553247Y-56141312D01*
X193699648Y-56164500D01*
X193699649Y-56164500D01*
X193904351Y-56164500D01*
X193904352Y-56164500D01*
X194106534Y-56132477D01*
X194301219Y-56069220D01*
X194483610Y-55976287D01*
X194576869Y-55908531D01*
X194649213Y-55855971D01*
X194649215Y-55855968D01*
X194649219Y-55855966D01*
X194793966Y-55711219D01*
X194899753Y-55565613D01*
X194955082Y-55522949D01*
X195000071Y-55514500D01*
X195004071Y-55514500D01*
X195088615Y-55497682D01*
X195129744Y-55489501D01*
X195248127Y-55440465D01*
X195250836Y-55438654D01*
X195251772Y-55438030D01*
X195286991Y-55414497D01*
X195354669Y-55369277D01*
X195597947Y-55125999D01*
X195659270Y-55092514D01*
X195728961Y-55097498D01*
X195784895Y-55139369D01*
X195809312Y-55204834D01*
X195808986Y-55226281D01*
X195803500Y-55279978D01*
X195803500Y-56480001D01*
X195803501Y-56480018D01*
X195814000Y-56582796D01*
X195814001Y-56582799D01*
X195858871Y-56718206D01*
X195869186Y-56749334D01*
X195961288Y-56898656D01*
X196085344Y-57022712D01*
X196234666Y-57114814D01*
X196401203Y-57169999D01*
X196503991Y-57180500D01*
X197704008Y-57180499D01*
X197806797Y-57169999D01*
X197973334Y-57114814D01*
X198122656Y-57022712D01*
X198246712Y-56898656D01*
X198338814Y-56749334D01*
X198365955Y-56667427D01*
X198405726Y-56609984D01*
X198470242Y-56583161D01*
X198539018Y-56595476D01*
X198583977Y-56633547D01*
X198642458Y-56714039D01*
X198652034Y-56727219D01*
X198796786Y-56871971D01*
X198951749Y-56984556D01*
X198962390Y-56992287D01*
X199078607Y-57051503D01*
X199144776Y-57085218D01*
X199144778Y-57085218D01*
X199144781Y-57085220D01*
X199233714Y-57114116D01*
X199339465Y-57148477D01*
X199370510Y-57153394D01*
X199541648Y-57180500D01*
X199541649Y-57180500D01*
X199746351Y-57180500D01*
X199746352Y-57180500D01*
X199948534Y-57148477D01*
X200143219Y-57085220D01*
X200325610Y-56992287D01*
X200449125Y-56902549D01*
X200491213Y-56871971D01*
X200491215Y-56871968D01*
X200491219Y-56871966D01*
X200635966Y-56727219D01*
X200635968Y-56727215D01*
X200635971Y-56727213D01*
X200756284Y-56561614D01*
X200756285Y-56561613D01*
X200756287Y-56561610D01*
X200803516Y-56468917D01*
X200851489Y-56418123D01*
X200919310Y-56401328D01*
X200985445Y-56423865D01*
X201024483Y-56468917D01*
X201030140Y-56480018D01*
X201071715Y-56561614D01*
X201192028Y-56727213D01*
X201336786Y-56871971D01*
X201491749Y-56984556D01*
X201502390Y-56992287D01*
X201618607Y-57051503D01*
X201684776Y-57085218D01*
X201684778Y-57085218D01*
X201684781Y-57085220D01*
X201773714Y-57114116D01*
X201879465Y-57148477D01*
X201910510Y-57153394D01*
X202081648Y-57180500D01*
X202081649Y-57180500D01*
X202286351Y-57180500D01*
X202286352Y-57180500D01*
X202488534Y-57148477D01*
X202683219Y-57085220D01*
X202865610Y-56992287D01*
X202989125Y-56902549D01*
X203031213Y-56871971D01*
X203031215Y-56871968D01*
X203031219Y-56871966D01*
X203175966Y-56727219D01*
X203175968Y-56727215D01*
X203175971Y-56727213D01*
X203244021Y-56633548D01*
X203296287Y-56561610D01*
X203389220Y-56379219D01*
X203452477Y-56184534D01*
X203484500Y-55982352D01*
X203484500Y-55777648D01*
X203460198Y-55624213D01*
X203452477Y-55575465D01*
X203413612Y-55455853D01*
X203389220Y-55380781D01*
X203389218Y-55380778D01*
X203389218Y-55380776D01*
X203343785Y-55291610D01*
X203296287Y-55198390D01*
X203275019Y-55169117D01*
X203175971Y-55032786D01*
X203031213Y-54888028D01*
X202865613Y-54767715D01*
X202865612Y-54767714D01*
X202865610Y-54767713D01*
X202786876Y-54727596D01*
X202683223Y-54674781D01*
X202488534Y-54611522D01*
X202313995Y-54583878D01*
X202286352Y-54579500D01*
X202081648Y-54579500D01*
X202057329Y-54583351D01*
X201879465Y-54611522D01*
X201684776Y-54674781D01*
X201502386Y-54767715D01*
X201336786Y-54888028D01*
X201192028Y-55032786D01*
X201071715Y-55198386D01*
X201024485Y-55291080D01*
X200976510Y-55341876D01*
X200908689Y-55358671D01*
X200842554Y-55336134D01*
X200803515Y-55291080D01*
X200770498Y-55226281D01*
X200756287Y-55198390D01*
X200735019Y-55169117D01*
X200635971Y-55032786D01*
X200491213Y-54888028D01*
X200325613Y-54767715D01*
X200325612Y-54767714D01*
X200325610Y-54767713D01*
X200246876Y-54727596D01*
X200143223Y-54674781D01*
X199948534Y-54611522D01*
X199773995Y-54583878D01*
X199746352Y-54579500D01*
X199541648Y-54579500D01*
X199517329Y-54583351D01*
X199339465Y-54611522D01*
X199144776Y-54674781D01*
X198962386Y-54767715D01*
X198796786Y-54888028D01*
X198652032Y-55032782D01*
X198652028Y-55032787D01*
X198583978Y-55126451D01*
X198528648Y-55169117D01*
X198459035Y-55175096D01*
X198397240Y-55142490D01*
X198365954Y-55092570D01*
X198338814Y-55010666D01*
X198246712Y-54861344D01*
X198122656Y-54737288D01*
X197973334Y-54645186D01*
X197806797Y-54590001D01*
X197806795Y-54590000D01*
X197704010Y-54579500D01*
X196503998Y-54579500D01*
X196503978Y-54579502D01*
X196450279Y-54584987D01*
X196381586Y-54572217D01*
X196330703Y-54524335D01*
X196313783Y-54456545D01*
X196336200Y-54390369D01*
X196349998Y-54373948D01*
X200149272Y-50574674D01*
X200149277Y-50574669D01*
X200220466Y-50468126D01*
X200269501Y-50349743D01*
X200294500Y-50224069D01*
X200294500Y-50095931D01*
X200294500Y-49458070D01*
X200314185Y-49391031D01*
X200345613Y-49357753D01*
X200490484Y-49252500D01*
X200491215Y-49251969D01*
X200491215Y-49251968D01*
X200491219Y-49251966D01*
X200635966Y-49107219D01*
X200635968Y-49107215D01*
X200635971Y-49107213D01*
X200756286Y-48941611D01*
X200756415Y-48941359D01*
X200803795Y-48848369D01*
X200851769Y-48797573D01*
X200919590Y-48780778D01*
X200985725Y-48803315D01*
X201024765Y-48848369D01*
X201072141Y-48941350D01*
X201072147Y-48941359D01*
X201104523Y-48985921D01*
X201104524Y-48985922D01*
X201784000Y-48306446D01*
X201784000Y-48312661D01*
X201811259Y-48414394D01*
X201863920Y-48505606D01*
X201938394Y-48580080D01*
X202029606Y-48632741D01*
X202131339Y-48660000D01*
X202137553Y-48660000D01*
X201458076Y-49339474D01*
X201502650Y-49371859D01*
X201684968Y-49464755D01*
X201879582Y-49527990D01*
X202081683Y-49560000D01*
X202286317Y-49560000D01*
X202488417Y-49527990D01*
X202683031Y-49464755D01*
X202865349Y-49371859D01*
X202909921Y-49339474D01*
X202230447Y-48660000D01*
X202236661Y-48660000D01*
X202338394Y-48632741D01*
X202429606Y-48580080D01*
X202504080Y-48505606D01*
X202556741Y-48414394D01*
X202584000Y-48312661D01*
X202584000Y-48306446D01*
X203263474Y-48985921D01*
X203295859Y-48941349D01*
X203388755Y-48759031D01*
X203451990Y-48564417D01*
X203484000Y-48362317D01*
X203484000Y-48157682D01*
X203451990Y-47955582D01*
X203388755Y-47760968D01*
X203295857Y-47578646D01*
X203259393Y-47528457D01*
X203235913Y-47462650D01*
X203251739Y-47394597D01*
X203301845Y-47345902D01*
X203370323Y-47332027D01*
X203435432Y-47357376D01*
X203447384Y-47367884D01*
X205136121Y-49056620D01*
X206975681Y-50896180D01*
X207009166Y-50957503D01*
X207012000Y-50983861D01*
X207012000Y-56597858D01*
X206992315Y-56664897D01*
X206939511Y-56710652D01*
X206931347Y-56714034D01*
X206920169Y-56718204D01*
X206920164Y-56718206D01*
X206804955Y-56804452D01*
X206804954Y-56804454D01*
X206718706Y-56919664D01*
X206718702Y-56919671D01*
X206668408Y-57054517D01*
X206663962Y-57095874D01*
X206662001Y-57114123D01*
X206662000Y-57114135D01*
X206662000Y-58709870D01*
X206662001Y-58709876D01*
X206668408Y-58769483D01*
X206718702Y-58904328D01*
X206718706Y-58904335D01*
X206804952Y-59019544D01*
X206804955Y-59019547D01*
X206920164Y-59105793D01*
X206920171Y-59105797D01*
X206942645Y-59114179D01*
X207055017Y-59156091D01*
X207114627Y-59162500D01*
X207179085Y-59162499D01*
X207246122Y-59182183D01*
X207291878Y-59234986D01*
X207301822Y-59304144D01*
X207272798Y-59367700D01*
X207251967Y-59386818D01*
X207222373Y-59408318D01*
X207222372Y-59408320D01*
X207783090Y-59969037D01*
X207719507Y-59986075D01*
X207605493Y-60051901D01*
X207512401Y-60144993D01*
X207446575Y-60259007D01*
X207429537Y-60322590D01*
X206868820Y-59761872D01*
X206868820Y-59761873D01*
X206843402Y-59796859D01*
X206843399Y-59796863D01*
X206754082Y-59972161D01*
X206693278Y-60159294D01*
X206662500Y-60353617D01*
X206662500Y-60550382D01*
X206693278Y-60744705D01*
X206754081Y-60931835D01*
X206843405Y-61107145D01*
X206868819Y-61142125D01*
X206868820Y-61142125D01*
X207429537Y-60581408D01*
X207446575Y-60644993D01*
X207512401Y-60759007D01*
X207605493Y-60852099D01*
X207719507Y-60917925D01*
X207783090Y-60934962D01*
X207222373Y-61495677D01*
X207222373Y-61495678D01*
X207257358Y-61521096D01*
X207434264Y-61611234D01*
X207485060Y-61659209D01*
X207501855Y-61727030D01*
X207479318Y-61793164D01*
X207434264Y-61832204D01*
X207257094Y-61922476D01*
X207171347Y-61984776D01*
X207097854Y-62038172D01*
X207097852Y-62038174D01*
X207097851Y-62038174D01*
X206958674Y-62177351D01*
X206958674Y-62177352D01*
X206958672Y-62177354D01*
X206957138Y-62179466D01*
X206842976Y-62336594D01*
X206753617Y-62511970D01*
X206692790Y-62699173D01*
X206662000Y-62893577D01*
X206662000Y-63090422D01*
X206692790Y-63284826D01*
X206753617Y-63472029D01*
X206832431Y-63626710D01*
X206842976Y-63647405D01*
X206958672Y-63806646D01*
X207097854Y-63945828D01*
X207257095Y-64061524D01*
X207339955Y-64103743D01*
X207432470Y-64150882D01*
X207432472Y-64150882D01*
X207432475Y-64150884D01*
X207532817Y-64183487D01*
X207619673Y-64211709D01*
X207814078Y-64242500D01*
X207814083Y-64242500D01*
X208010922Y-64242500D01*
X208205326Y-64211709D01*
X208392525Y-64150884D01*
X208394916Y-64149666D01*
X208398963Y-64147603D01*
X208567905Y-64061524D01*
X208727146Y-63945828D01*
X208866328Y-63806646D01*
X208982024Y-63647405D01*
X209071384Y-63472025D01*
X209132209Y-63284826D01*
X209147735Y-63186797D01*
X209163000Y-63090422D01*
X209163000Y-62893577D01*
X209132209Y-62699173D01*
X209078227Y-62533036D01*
X209071384Y-62511975D01*
X209071382Y-62511972D01*
X209071382Y-62511970D01*
X209024243Y-62419455D01*
X208982024Y-62336595D01*
X208866328Y-62177354D01*
X208727146Y-62038172D01*
X208567905Y-61922476D01*
X208392525Y-61833116D01*
X208392524Y-61833115D01*
X208390735Y-61832204D01*
X208339939Y-61784230D01*
X208323144Y-61716409D01*
X208345681Y-61650274D01*
X208390736Y-61611234D01*
X208567641Y-61521097D01*
X208602625Y-61495678D01*
X208602626Y-61495678D01*
X208041910Y-60934962D01*
X208105493Y-60917925D01*
X208219507Y-60852099D01*
X208312599Y-60759007D01*
X208378425Y-60644993D01*
X208395462Y-60581409D01*
X208956178Y-61142126D01*
X208956178Y-61142125D01*
X208981595Y-61107143D01*
X209070918Y-60931835D01*
X209131721Y-60744705D01*
X209140137Y-60691573D01*
X209170066Y-60628438D01*
X209229378Y-60591507D01*
X209299240Y-60592505D01*
X209350289Y-60623288D01*
X210131518Y-61404517D01*
X212296181Y-63569180D01*
X212329666Y-63630503D01*
X212332500Y-63656861D01*
X212332500Y-67631770D01*
X212312815Y-67698809D01*
X212260011Y-67744564D01*
X212190853Y-67754508D01*
X212127297Y-67725483D01*
X212120819Y-67719451D01*
X212092657Y-67691289D01*
X212092656Y-67691288D01*
X211943334Y-67599186D01*
X211776797Y-67544001D01*
X211776795Y-67544000D01*
X211674010Y-67533500D01*
X210473998Y-67533500D01*
X210473981Y-67533501D01*
X210371203Y-67544000D01*
X210371200Y-67544001D01*
X210204668Y-67599185D01*
X210204663Y-67599187D01*
X210055342Y-67691289D01*
X209931289Y-67815342D01*
X209839187Y-67964663D01*
X209839186Y-67964666D01*
X209812045Y-68046571D01*
X209772271Y-68104016D01*
X209707755Y-68130838D01*
X209638979Y-68118522D01*
X209594021Y-68080452D01*
X209525966Y-67986781D01*
X209381219Y-67842034D01*
X209381213Y-67842028D01*
X209215613Y-67721715D01*
X209215612Y-67721714D01*
X209215610Y-67721713D01*
X209155898Y-67691288D01*
X209033223Y-67628781D01*
X208838534Y-67565522D01*
X208663995Y-67537878D01*
X208636352Y-67533500D01*
X208431648Y-67533500D01*
X208407329Y-67537351D01*
X208229465Y-67565522D01*
X208034776Y-67628781D01*
X207852386Y-67721715D01*
X207686786Y-67842028D01*
X207542028Y-67986786D01*
X207421715Y-68152386D01*
X207374485Y-68245080D01*
X207326510Y-68295876D01*
X207258689Y-68312671D01*
X207192554Y-68290134D01*
X207153515Y-68245080D01*
X207128649Y-68196278D01*
X207106287Y-68152390D01*
X207071142Y-68104016D01*
X206985971Y-67986786D01*
X206841213Y-67842028D01*
X206675613Y-67721715D01*
X206675612Y-67721714D01*
X206675610Y-67721713D01*
X206615898Y-67691288D01*
X206493223Y-67628781D01*
X206298534Y-67565522D01*
X206123995Y-67537878D01*
X206096352Y-67533500D01*
X205891648Y-67533500D01*
X205713886Y-67561654D01*
X205644593Y-67552699D01*
X205606808Y-67526862D01*
X202593674Y-64513727D01*
X202593673Y-64513726D01*
X202570468Y-64498221D01*
X202487127Y-64442535D01*
X202430289Y-64418992D01*
X202368744Y-64393499D01*
X202368738Y-64393497D01*
X202243071Y-64368500D01*
X202243069Y-64368500D01*
X191444071Y-64368500D01*
X191377032Y-64348815D01*
X191343754Y-64317386D01*
X191237966Y-64171781D01*
X191093219Y-64027034D01*
X191093213Y-64027028D01*
X190927613Y-63906715D01*
X190927612Y-63906714D01*
X190927610Y-63906713D01*
X190867898Y-63876288D01*
X190745223Y-63813781D01*
X190550534Y-63750522D01*
X190375995Y-63722878D01*
X190348352Y-63718500D01*
X190143648Y-63718500D01*
X190119329Y-63722351D01*
X189941465Y-63750522D01*
X189746776Y-63813781D01*
X189564386Y-63906715D01*
X189398786Y-64027028D01*
X189254028Y-64171786D01*
X189133715Y-64337386D01*
X189086485Y-64430080D01*
X189038510Y-64480876D01*
X188970689Y-64497671D01*
X188904554Y-64475134D01*
X188865515Y-64430080D01*
X188834138Y-64368500D01*
X188818287Y-64337390D01*
X188786092Y-64293077D01*
X188697971Y-64171786D01*
X188553213Y-64027028D01*
X188387613Y-63906715D01*
X188387612Y-63906714D01*
X188387610Y-63906713D01*
X188327898Y-63876288D01*
X188205223Y-63813781D01*
X188010534Y-63750522D01*
X187835995Y-63722878D01*
X187808352Y-63718500D01*
X187603648Y-63718500D01*
X187579329Y-63722351D01*
X187401465Y-63750522D01*
X187206776Y-63813781D01*
X187024386Y-63906715D01*
X186858786Y-64027028D01*
X186714028Y-64171786D01*
X186593715Y-64337386D01*
X186546485Y-64430080D01*
X186498510Y-64480876D01*
X186430689Y-64497671D01*
X186364554Y-64475134D01*
X186325515Y-64430080D01*
X186294138Y-64368500D01*
X186278287Y-64337390D01*
X186246092Y-64293077D01*
X186157971Y-64171786D01*
X186013213Y-64027028D01*
X185847613Y-63906715D01*
X185847612Y-63906714D01*
X185847610Y-63906713D01*
X185787898Y-63876288D01*
X185665223Y-63813781D01*
X185470534Y-63750522D01*
X185295995Y-63722878D01*
X185268352Y-63718500D01*
X185063648Y-63718500D01*
X185039329Y-63722351D01*
X184861465Y-63750522D01*
X184666776Y-63813781D01*
X184484386Y-63906715D01*
X184318786Y-64027028D01*
X184174028Y-64171786D01*
X184053715Y-64337386D01*
X184006485Y-64430080D01*
X183958510Y-64480876D01*
X183890689Y-64497671D01*
X183824554Y-64475134D01*
X183785515Y-64430080D01*
X183754138Y-64368500D01*
X183738287Y-64337390D01*
X183706092Y-64293077D01*
X183617971Y-64171786D01*
X183473213Y-64027028D01*
X183307613Y-63906715D01*
X183307612Y-63906714D01*
X183307610Y-63906713D01*
X183247898Y-63876288D01*
X183125223Y-63813781D01*
X182930534Y-63750522D01*
X182755995Y-63722878D01*
X182728352Y-63718500D01*
X182523648Y-63718500D01*
X182499329Y-63722351D01*
X182321465Y-63750522D01*
X182126776Y-63813781D01*
X181944386Y-63906715D01*
X181778786Y-64027028D01*
X181634028Y-64171786D01*
X181513715Y-64337386D01*
X181466485Y-64430080D01*
X181418510Y-64480876D01*
X181350689Y-64497671D01*
X181284554Y-64475134D01*
X181245515Y-64430080D01*
X181214138Y-64368500D01*
X181198287Y-64337390D01*
X181166092Y-64293077D01*
X181077971Y-64171786D01*
X180933213Y-64027028D01*
X180767613Y-63906715D01*
X180767612Y-63906714D01*
X180767610Y-63906713D01*
X180707898Y-63876288D01*
X180585223Y-63813781D01*
X180390534Y-63750522D01*
X180215995Y-63722878D01*
X180188352Y-63718500D01*
X179983648Y-63718500D01*
X179959329Y-63722351D01*
X179781465Y-63750522D01*
X179586776Y-63813781D01*
X179404386Y-63906715D01*
X179238786Y-64027028D01*
X179094028Y-64171786D01*
X178973715Y-64337386D01*
X178926485Y-64430080D01*
X178878510Y-64480876D01*
X178810689Y-64497671D01*
X178744554Y-64475134D01*
X178705515Y-64430080D01*
X178674138Y-64368500D01*
X178658287Y-64337390D01*
X178626092Y-64293077D01*
X178537971Y-64171786D01*
X178393213Y-64027028D01*
X178227613Y-63906715D01*
X178227612Y-63906714D01*
X178227610Y-63906713D01*
X178167898Y-63876288D01*
X178045223Y-63813781D01*
X177850534Y-63750522D01*
X177675995Y-63722878D01*
X177648352Y-63718500D01*
X177443648Y-63718500D01*
X177419329Y-63722351D01*
X177241465Y-63750522D01*
X177046776Y-63813781D01*
X176864386Y-63906715D01*
X176698786Y-64027028D01*
X176554028Y-64171786D01*
X176433713Y-64337388D01*
X176386203Y-64430630D01*
X176338228Y-64481426D01*
X176270407Y-64498220D01*
X176204272Y-64475682D01*
X176165234Y-64430628D01*
X176117861Y-64337652D01*
X176085474Y-64293077D01*
X176085474Y-64293076D01*
X175406000Y-64972551D01*
X175406000Y-64966339D01*
X175378741Y-64864606D01*
X175326080Y-64773394D01*
X175251606Y-64698920D01*
X175160394Y-64646259D01*
X175058661Y-64619000D01*
X175052446Y-64619000D01*
X175731922Y-63939524D01*
X175731921Y-63939523D01*
X175687359Y-63907147D01*
X175687350Y-63907141D01*
X175505031Y-63814244D01*
X175310417Y-63751009D01*
X175108317Y-63719000D01*
X174903683Y-63719000D01*
X174701582Y-63751009D01*
X174506968Y-63814244D01*
X174324644Y-63907143D01*
X174280077Y-63939523D01*
X174280077Y-63939524D01*
X174959554Y-64619000D01*
X174953339Y-64619000D01*
X174851606Y-64646259D01*
X174760394Y-64698920D01*
X174685920Y-64773394D01*
X174633259Y-64864606D01*
X174606000Y-64966339D01*
X174606000Y-64972553D01*
X173926524Y-64293077D01*
X173926523Y-64293077D01*
X173894143Y-64337644D01*
X173846765Y-64430630D01*
X173798790Y-64481426D01*
X173730969Y-64498221D01*
X173664834Y-64475683D01*
X173625795Y-64430630D01*
X173578284Y-64337385D01*
X173457971Y-64171786D01*
X173313213Y-64027028D01*
X173147613Y-63906715D01*
X173147612Y-63906714D01*
X173147610Y-63906713D01*
X173087898Y-63876288D01*
X172965223Y-63813781D01*
X172770534Y-63750522D01*
X172595995Y-63722878D01*
X172568352Y-63718500D01*
X172363648Y-63718500D01*
X172339329Y-63722351D01*
X172161465Y-63750522D01*
X171966776Y-63813781D01*
X171784386Y-63906715D01*
X171618786Y-64027028D01*
X171474028Y-64171786D01*
X171353715Y-64337386D01*
X171306485Y-64430080D01*
X171258510Y-64480876D01*
X171190689Y-64497671D01*
X171124554Y-64475134D01*
X171085515Y-64430080D01*
X171054138Y-64368500D01*
X171038287Y-64337390D01*
X171006092Y-64293077D01*
X170917971Y-64171786D01*
X170773213Y-64027028D01*
X170607613Y-63906715D01*
X170607612Y-63906714D01*
X170607610Y-63906713D01*
X170547898Y-63876288D01*
X170425223Y-63813781D01*
X170230534Y-63750522D01*
X170055995Y-63722878D01*
X170028352Y-63718500D01*
X169823648Y-63718500D01*
X169799329Y-63722351D01*
X169621465Y-63750522D01*
X169426776Y-63813781D01*
X169244386Y-63906715D01*
X169078786Y-64027028D01*
X168934028Y-64171786D01*
X168813715Y-64337386D01*
X168766485Y-64430080D01*
X168718510Y-64480876D01*
X168650689Y-64497671D01*
X168584554Y-64475134D01*
X168545515Y-64430080D01*
X168514138Y-64368500D01*
X168498287Y-64337390D01*
X168466092Y-64293077D01*
X168377971Y-64171786D01*
X168233213Y-64027028D01*
X168067613Y-63906715D01*
X168067612Y-63906714D01*
X168067610Y-63906713D01*
X168007898Y-63876288D01*
X167885223Y-63813781D01*
X167690534Y-63750522D01*
X167515995Y-63722878D01*
X167488352Y-63718500D01*
X167283648Y-63718500D01*
X167259329Y-63722351D01*
X167081465Y-63750522D01*
X166886776Y-63813781D01*
X166704386Y-63906715D01*
X166538786Y-64027028D01*
X166394028Y-64171786D01*
X166273715Y-64337386D01*
X166226485Y-64430080D01*
X166178510Y-64480876D01*
X166110689Y-64497671D01*
X166044554Y-64475134D01*
X166005515Y-64430080D01*
X165974138Y-64368500D01*
X165958287Y-64337390D01*
X165926092Y-64293077D01*
X165837971Y-64171786D01*
X165693213Y-64027028D01*
X165527613Y-63906715D01*
X165527612Y-63906714D01*
X165527610Y-63906713D01*
X165467898Y-63876288D01*
X165345223Y-63813781D01*
X165150534Y-63750522D01*
X164975995Y-63722878D01*
X164948352Y-63718500D01*
X164743648Y-63718500D01*
X164719329Y-63722351D01*
X164541465Y-63750522D01*
X164346776Y-63813781D01*
X164164386Y-63906715D01*
X163998786Y-64027028D01*
X163854028Y-64171786D01*
X163733715Y-64337386D01*
X163686485Y-64430080D01*
X163638510Y-64480876D01*
X163570689Y-64497671D01*
X163504554Y-64475134D01*
X163465515Y-64430080D01*
X163434138Y-64368500D01*
X163418287Y-64337390D01*
X163386092Y-64293077D01*
X163297971Y-64171786D01*
X163153213Y-64027028D01*
X162987613Y-63906715D01*
X162987612Y-63906714D01*
X162987610Y-63906713D01*
X162927898Y-63876288D01*
X162805223Y-63813781D01*
X162610534Y-63750522D01*
X162435995Y-63722878D01*
X162408352Y-63718500D01*
X162203648Y-63718500D01*
X162179329Y-63722351D01*
X162001465Y-63750522D01*
X161806776Y-63813781D01*
X161624386Y-63906715D01*
X161458786Y-64027028D01*
X161314028Y-64171786D01*
X161193715Y-64337386D01*
X161146485Y-64430080D01*
X161098510Y-64480876D01*
X161030689Y-64497671D01*
X160964554Y-64475134D01*
X160925515Y-64430080D01*
X160894138Y-64368500D01*
X160878287Y-64337390D01*
X160846092Y-64293077D01*
X160757971Y-64171786D01*
X160613213Y-64027028D01*
X160447613Y-63906715D01*
X160447612Y-63906714D01*
X160447610Y-63906713D01*
X160387898Y-63876288D01*
X160265223Y-63813781D01*
X160070534Y-63750522D01*
X159895995Y-63722878D01*
X159868352Y-63718500D01*
X159663648Y-63718500D01*
X159639329Y-63722351D01*
X159461465Y-63750522D01*
X159266776Y-63813781D01*
X159084386Y-63906715D01*
X158918786Y-64027028D01*
X158774032Y-64171782D01*
X158774028Y-64171787D01*
X158705978Y-64265451D01*
X158650648Y-64308117D01*
X158581035Y-64314096D01*
X158519240Y-64281490D01*
X158487954Y-64231570D01*
X158468144Y-64171787D01*
X158460814Y-64149666D01*
X158368712Y-64000344D01*
X158244656Y-63876288D01*
X158095843Y-63784500D01*
X158095336Y-63784187D01*
X158095331Y-63784185D01*
X158093862Y-63783698D01*
X157928797Y-63729001D01*
X157928795Y-63729000D01*
X157826010Y-63718500D01*
X156625998Y-63718500D01*
X156625981Y-63718501D01*
X156523203Y-63729000D01*
X156523200Y-63729001D01*
X156356668Y-63784185D01*
X156356663Y-63784187D01*
X156207342Y-63876289D01*
X156083289Y-64000342D01*
X155991187Y-64149663D01*
X155991186Y-64149666D01*
X155936001Y-64316203D01*
X155936001Y-64316204D01*
X155936000Y-64316204D01*
X155925500Y-64418983D01*
X155925500Y-65619001D01*
X155925501Y-65619018D01*
X155936000Y-65721796D01*
X155936001Y-65721799D01*
X155952818Y-65772548D01*
X155991186Y-65888334D01*
X156083288Y-66037656D01*
X156207344Y-66161712D01*
X156356666Y-66253814D01*
X156523203Y-66308999D01*
X156625991Y-66319500D01*
X157826008Y-66319499D01*
X157928797Y-66308999D01*
X158095334Y-66253814D01*
X158244656Y-66161712D01*
X158368712Y-66037656D01*
X158460814Y-65888334D01*
X158487955Y-65806427D01*
X158527726Y-65748984D01*
X158592242Y-65722161D01*
X158661018Y-65734476D01*
X158705977Y-65772547D01*
X158751073Y-65834615D01*
X158774034Y-65866219D01*
X158918786Y-66010971D01*
X159048945Y-66105535D01*
X159084390Y-66131287D01*
X159173563Y-66176723D01*
X159266776Y-66224218D01*
X159266778Y-66224218D01*
X159266781Y-66224220D01*
X159357856Y-66253812D01*
X159461465Y-66287477D01*
X159562557Y-66303488D01*
X159663648Y-66319500D01*
X159663649Y-66319500D01*
X159868351Y-66319500D01*
X159868352Y-66319500D01*
X160070534Y-66287477D01*
X160265219Y-66224220D01*
X160447610Y-66131287D01*
X160550548Y-66056499D01*
X160613213Y-66010971D01*
X160613215Y-66010968D01*
X160613219Y-66010966D01*
X160757966Y-65866219D01*
X160757968Y-65866215D01*
X160757971Y-65866213D01*
X160878284Y-65700614D01*
X160878286Y-65700611D01*
X160878287Y-65700610D01*
X160925516Y-65607917D01*
X160973489Y-65557123D01*
X161041310Y-65540328D01*
X161107445Y-65562865D01*
X161146483Y-65607917D01*
X161152140Y-65619018D01*
X161193715Y-65700614D01*
X161314028Y-65866213D01*
X161458786Y-66010971D01*
X161588945Y-66105535D01*
X161624390Y-66131287D01*
X161713563Y-66176723D01*
X161806776Y-66224218D01*
X161806778Y-66224218D01*
X161806781Y-66224220D01*
X161897856Y-66253812D01*
X162001465Y-66287477D01*
X162102557Y-66303488D01*
X162203648Y-66319500D01*
X162203649Y-66319500D01*
X162408351Y-66319500D01*
X162408352Y-66319500D01*
X162610534Y-66287477D01*
X162805219Y-66224220D01*
X162987610Y-66131287D01*
X163090548Y-66056499D01*
X163153213Y-66010971D01*
X163153215Y-66010968D01*
X163153219Y-66010966D01*
X163297966Y-65866219D01*
X163297968Y-65866215D01*
X163297971Y-65866213D01*
X163418284Y-65700614D01*
X163418286Y-65700611D01*
X163418287Y-65700610D01*
X163465516Y-65607917D01*
X163513489Y-65557123D01*
X163581310Y-65540328D01*
X163647445Y-65562865D01*
X163686483Y-65607917D01*
X163692140Y-65619018D01*
X163733715Y-65700614D01*
X163854028Y-65866213D01*
X163998786Y-66010971D01*
X164128945Y-66105535D01*
X164164390Y-66131287D01*
X164253563Y-66176723D01*
X164346776Y-66224218D01*
X164346778Y-66224218D01*
X164346781Y-66224220D01*
X164437856Y-66253812D01*
X164541465Y-66287477D01*
X164642557Y-66303488D01*
X164743648Y-66319500D01*
X164743649Y-66319500D01*
X164948351Y-66319500D01*
X164948352Y-66319500D01*
X165150534Y-66287477D01*
X165345219Y-66224220D01*
X165527610Y-66131287D01*
X165630548Y-66056499D01*
X165693213Y-66010971D01*
X165693215Y-66010968D01*
X165693219Y-66010966D01*
X165837966Y-65866219D01*
X165837968Y-65866215D01*
X165837971Y-65866213D01*
X165958284Y-65700614D01*
X165958286Y-65700611D01*
X165958287Y-65700610D01*
X166005516Y-65607917D01*
X166053489Y-65557123D01*
X166121310Y-65540328D01*
X166187445Y-65562865D01*
X166226483Y-65607917D01*
X166232140Y-65619018D01*
X166273715Y-65700614D01*
X166394028Y-65866213D01*
X166538786Y-66010971D01*
X166668945Y-66105535D01*
X166704390Y-66131287D01*
X166793563Y-66176723D01*
X166886776Y-66224218D01*
X166886778Y-66224218D01*
X166886781Y-66224220D01*
X166977856Y-66253812D01*
X167081465Y-66287477D01*
X167182557Y-66303488D01*
X167283648Y-66319500D01*
X167283649Y-66319500D01*
X167488351Y-66319500D01*
X167488352Y-66319500D01*
X167690534Y-66287477D01*
X167885219Y-66224220D01*
X168067610Y-66131287D01*
X168170548Y-66056499D01*
X168233213Y-66010971D01*
X168233215Y-66010968D01*
X168233219Y-66010966D01*
X168377966Y-65866219D01*
X168377968Y-65866215D01*
X168377971Y-65866213D01*
X168498284Y-65700614D01*
X168498286Y-65700611D01*
X168498287Y-65700610D01*
X168545516Y-65607917D01*
X168593489Y-65557123D01*
X168661310Y-65540328D01*
X168727445Y-65562865D01*
X168766483Y-65607917D01*
X168772140Y-65619018D01*
X168813715Y-65700614D01*
X168934028Y-65866213D01*
X169078786Y-66010971D01*
X169208945Y-66105535D01*
X169244390Y-66131287D01*
X169333563Y-66176723D01*
X169426776Y-66224218D01*
X169426778Y-66224218D01*
X169426781Y-66224220D01*
X169517856Y-66253812D01*
X169621465Y-66287477D01*
X169722557Y-66303488D01*
X169823648Y-66319500D01*
X169823649Y-66319500D01*
X170028351Y-66319500D01*
X170028352Y-66319500D01*
X170230534Y-66287477D01*
X170425219Y-66224220D01*
X170607610Y-66131287D01*
X170710548Y-66056499D01*
X170773213Y-66010971D01*
X170773215Y-66010968D01*
X170773219Y-66010966D01*
X170917966Y-65866219D01*
X170917968Y-65866215D01*
X170917971Y-65866213D01*
X171038284Y-65700614D01*
X171038286Y-65700611D01*
X171038287Y-65700610D01*
X171085516Y-65607917D01*
X171133489Y-65557123D01*
X171201310Y-65540328D01*
X171267445Y-65562865D01*
X171306483Y-65607917D01*
X171312140Y-65619018D01*
X171353715Y-65700614D01*
X171474028Y-65866213D01*
X171618786Y-66010971D01*
X171748945Y-66105535D01*
X171784390Y-66131287D01*
X171873563Y-66176723D01*
X171966776Y-66224218D01*
X171966778Y-66224218D01*
X171966781Y-66224220D01*
X172057856Y-66253812D01*
X172161465Y-66287477D01*
X172262557Y-66303488D01*
X172363648Y-66319500D01*
X172363649Y-66319500D01*
X172568351Y-66319500D01*
X172568352Y-66319500D01*
X172770534Y-66287477D01*
X172965219Y-66224220D01*
X173147610Y-66131287D01*
X173250548Y-66056499D01*
X173313213Y-66010971D01*
X173313215Y-66010968D01*
X173313219Y-66010966D01*
X173457966Y-65866219D01*
X173457968Y-65866215D01*
X173457971Y-65866213D01*
X173562894Y-65721797D01*
X173578287Y-65700610D01*
X173625795Y-65607369D01*
X173673769Y-65556573D01*
X173741590Y-65539778D01*
X173807725Y-65562315D01*
X173846765Y-65607369D01*
X173894141Y-65700350D01*
X173894147Y-65700359D01*
X173926523Y-65744921D01*
X173926524Y-65744922D01*
X174606000Y-65065446D01*
X174606000Y-65071661D01*
X174633259Y-65173394D01*
X174685920Y-65264606D01*
X174760394Y-65339080D01*
X174851606Y-65391741D01*
X174953339Y-65419000D01*
X174959553Y-65419000D01*
X174280076Y-66098474D01*
X174324650Y-66130859D01*
X174506968Y-66223755D01*
X174701582Y-66286990D01*
X174903683Y-66319000D01*
X175108317Y-66319000D01*
X175310417Y-66286990D01*
X175505031Y-66223755D01*
X175687349Y-66130859D01*
X175731921Y-66098474D01*
X175052447Y-65419000D01*
X175058661Y-65419000D01*
X175160394Y-65391741D01*
X175251606Y-65339080D01*
X175326080Y-65264606D01*
X175378741Y-65173394D01*
X175406000Y-65071661D01*
X175406000Y-65065447D01*
X176085474Y-65744921D01*
X176117861Y-65700347D01*
X176117861Y-65700346D01*
X176165234Y-65607371D01*
X176213208Y-65556575D01*
X176281028Y-65539779D01*
X176347164Y-65562316D01*
X176386203Y-65607369D01*
X176433713Y-65700611D01*
X176554028Y-65866213D01*
X176698786Y-66010971D01*
X176828945Y-66105535D01*
X176864390Y-66131287D01*
X176953563Y-66176723D01*
X177046776Y-66224218D01*
X177046778Y-66224218D01*
X177046781Y-66224220D01*
X177137856Y-66253812D01*
X177241465Y-66287477D01*
X177342557Y-66303488D01*
X177443648Y-66319500D01*
X177443649Y-66319500D01*
X177648351Y-66319500D01*
X177648352Y-66319500D01*
X177850534Y-66287477D01*
X178045219Y-66224220D01*
X178227610Y-66131287D01*
X178330548Y-66056499D01*
X178393213Y-66010971D01*
X178393215Y-66010968D01*
X178393219Y-66010966D01*
X178537966Y-65866219D01*
X178537968Y-65866215D01*
X178537971Y-65866213D01*
X178658284Y-65700614D01*
X178658286Y-65700611D01*
X178658287Y-65700610D01*
X178705516Y-65607917D01*
X178753489Y-65557123D01*
X178821310Y-65540328D01*
X178887445Y-65562865D01*
X178926483Y-65607917D01*
X178932140Y-65619018D01*
X178973715Y-65700614D01*
X179094028Y-65866213D01*
X179238786Y-66010971D01*
X179368945Y-66105535D01*
X179404390Y-66131287D01*
X179493563Y-66176723D01*
X179586776Y-66224218D01*
X179586778Y-66224218D01*
X179586781Y-66224220D01*
X179677856Y-66253812D01*
X179781465Y-66287477D01*
X179882557Y-66303488D01*
X179983648Y-66319500D01*
X179983649Y-66319500D01*
X180188351Y-66319500D01*
X180188352Y-66319500D01*
X180390534Y-66287477D01*
X180585219Y-66224220D01*
X180767610Y-66131287D01*
X180870548Y-66056499D01*
X180933213Y-66010971D01*
X180933215Y-66010968D01*
X180933219Y-66010966D01*
X181077966Y-65866219D01*
X181077968Y-65866215D01*
X181077971Y-65866213D01*
X181198284Y-65700614D01*
X181198286Y-65700611D01*
X181198287Y-65700610D01*
X181245516Y-65607917D01*
X181293489Y-65557123D01*
X181361310Y-65540328D01*
X181427445Y-65562865D01*
X181466483Y-65607917D01*
X181472140Y-65619018D01*
X181513715Y-65700614D01*
X181634028Y-65866213D01*
X181778786Y-66010971D01*
X181908945Y-66105535D01*
X181944390Y-66131287D01*
X182033563Y-66176723D01*
X182126776Y-66224218D01*
X182126778Y-66224218D01*
X182126781Y-66224220D01*
X182217856Y-66253812D01*
X182321465Y-66287477D01*
X182422557Y-66303488D01*
X182523648Y-66319500D01*
X182523649Y-66319500D01*
X182728351Y-66319500D01*
X182728352Y-66319500D01*
X182906112Y-66291345D01*
X182975405Y-66300299D01*
X183013191Y-66326137D01*
X184883325Y-68196272D01*
X184883332Y-68196278D01*
X184986303Y-68265080D01*
X184989874Y-68267466D01*
X185059221Y-68296189D01*
X185108256Y-68316501D01*
X185108259Y-68316501D01*
X185108260Y-68316502D01*
X185233928Y-68341500D01*
X189376450Y-68341500D01*
X189443489Y-68361185D01*
X189489244Y-68413989D01*
X189499188Y-68483147D01*
X189494381Y-68503818D01*
X189486010Y-68529578D01*
X189486010Y-68529581D01*
X189454000Y-68731682D01*
X189454000Y-68936317D01*
X189486009Y-69138417D01*
X189549244Y-69333031D01*
X189642141Y-69515350D01*
X189642147Y-69515359D01*
X189674523Y-69559921D01*
X189674524Y-69559922D01*
X190354000Y-68880446D01*
X190354000Y-68886661D01*
X190381259Y-68988394D01*
X190433920Y-69079606D01*
X190508394Y-69154080D01*
X190599606Y-69206741D01*
X190701339Y-69234000D01*
X190707553Y-69234000D01*
X190028076Y-69913474D01*
X190072650Y-69945859D01*
X190254968Y-70038755D01*
X190449582Y-70101990D01*
X190651683Y-70134000D01*
X190856317Y-70134000D01*
X191058417Y-70101990D01*
X191253031Y-70038755D01*
X191435349Y-69945859D01*
X191479921Y-69913474D01*
X190800447Y-69234000D01*
X190806661Y-69234000D01*
X190908394Y-69206741D01*
X190999606Y-69154080D01*
X191074080Y-69079606D01*
X191126741Y-68988394D01*
X191154000Y-68886661D01*
X191154000Y-68880447D01*
X191833474Y-69559921D01*
X191865861Y-69515347D01*
X191865861Y-69515346D01*
X191913234Y-69422371D01*
X191961208Y-69371575D01*
X192029028Y-69354779D01*
X192095164Y-69377316D01*
X192134203Y-69422369D01*
X192181713Y-69515611D01*
X192302028Y-69681213D01*
X192446786Y-69825971D01*
X192576275Y-69920048D01*
X192612390Y-69946287D01*
X192728607Y-70005503D01*
X192794776Y-70039218D01*
X192794778Y-70039218D01*
X192794781Y-70039220D01*
X192885856Y-70068812D01*
X192989465Y-70102477D01*
X193090557Y-70118488D01*
X193191648Y-70134500D01*
X193191649Y-70134500D01*
X193396351Y-70134500D01*
X193396352Y-70134500D01*
X193598534Y-70102477D01*
X193793219Y-70039220D01*
X193975610Y-69946287D01*
X194104482Y-69852657D01*
X194141213Y-69825971D01*
X194141215Y-69825968D01*
X194141219Y-69825966D01*
X194285966Y-69681219D01*
X194285968Y-69681215D01*
X194285971Y-69681213D01*
X194406284Y-69515614D01*
X194406286Y-69515611D01*
X194406287Y-69515610D01*
X194453516Y-69422917D01*
X194501489Y-69372123D01*
X194569310Y-69355328D01*
X194635445Y-69377865D01*
X194674485Y-69422919D01*
X194721715Y-69515614D01*
X194842028Y-69681213D01*
X194986786Y-69825971D01*
X195116275Y-69920048D01*
X195152390Y-69946287D01*
X195268607Y-70005503D01*
X195334776Y-70039218D01*
X195334778Y-70039218D01*
X195334781Y-70039220D01*
X195425856Y-70068812D01*
X195529465Y-70102477D01*
X195630557Y-70118488D01*
X195731648Y-70134500D01*
X195731649Y-70134500D01*
X195936351Y-70134500D01*
X195936352Y-70134500D01*
X196138534Y-70102477D01*
X196333219Y-70039220D01*
X196515610Y-69946287D01*
X196644482Y-69852657D01*
X196681213Y-69825971D01*
X196681215Y-69825968D01*
X196681219Y-69825966D01*
X196825966Y-69681219D01*
X196825968Y-69681215D01*
X196825971Y-69681213D01*
X196946284Y-69515614D01*
X196946286Y-69515611D01*
X196946287Y-69515610D01*
X196993516Y-69422917D01*
X197041489Y-69372123D01*
X197109310Y-69355328D01*
X197175445Y-69377865D01*
X197214485Y-69422919D01*
X197261715Y-69515614D01*
X197382028Y-69681213D01*
X197526786Y-69825971D01*
X197656275Y-69920048D01*
X197692390Y-69946287D01*
X197808607Y-70005503D01*
X197874776Y-70039218D01*
X197874778Y-70039218D01*
X197874781Y-70039220D01*
X197965856Y-70068812D01*
X198069465Y-70102477D01*
X198170557Y-70118488D01*
X198271648Y-70134500D01*
X198271649Y-70134500D01*
X198476351Y-70134500D01*
X198476352Y-70134500D01*
X198678534Y-70102477D01*
X198873219Y-70039220D01*
X199055610Y-69946287D01*
X199184482Y-69852657D01*
X199221213Y-69825971D01*
X199221215Y-69825968D01*
X199221219Y-69825966D01*
X199365966Y-69681219D01*
X199365968Y-69681215D01*
X199365971Y-69681213D01*
X199486284Y-69515614D01*
X199486286Y-69515611D01*
X199486287Y-69515610D01*
X199533516Y-69422917D01*
X199581489Y-69372123D01*
X199649310Y-69355328D01*
X199715445Y-69377865D01*
X199754485Y-69422919D01*
X199801715Y-69515614D01*
X199922028Y-69681213D01*
X200066786Y-69825971D01*
X200196275Y-69920048D01*
X200232390Y-69946287D01*
X200348607Y-70005503D01*
X200414776Y-70039218D01*
X200414778Y-70039218D01*
X200414781Y-70039220D01*
X200505856Y-70068812D01*
X200609465Y-70102477D01*
X200710557Y-70118488D01*
X200811648Y-70134500D01*
X200811649Y-70134500D01*
X201016351Y-70134500D01*
X201016352Y-70134500D01*
X201218534Y-70102477D01*
X201413219Y-70039220D01*
X201595610Y-69946287D01*
X201724482Y-69852657D01*
X201761213Y-69825971D01*
X201761215Y-69825968D01*
X201761219Y-69825966D01*
X201905966Y-69681219D01*
X201905968Y-69681215D01*
X201905971Y-69681213D01*
X202026284Y-69515614D01*
X202026286Y-69515611D01*
X202026287Y-69515610D01*
X202073516Y-69422917D01*
X202121489Y-69372123D01*
X202189310Y-69355328D01*
X202255445Y-69377865D01*
X202294485Y-69422919D01*
X202341715Y-69515614D01*
X202462028Y-69681213D01*
X202606786Y-69825971D01*
X202736275Y-69920048D01*
X202772390Y-69946287D01*
X202888607Y-70005503D01*
X202954776Y-70039218D01*
X202954778Y-70039218D01*
X202954781Y-70039220D01*
X203045856Y-70068812D01*
X203149465Y-70102477D01*
X203250557Y-70118488D01*
X203351648Y-70134500D01*
X203351649Y-70134500D01*
X203556351Y-70134500D01*
X203556352Y-70134500D01*
X203758534Y-70102477D01*
X203953219Y-70039220D01*
X204135610Y-69946287D01*
X204264482Y-69852657D01*
X204301213Y-69825971D01*
X204301215Y-69825968D01*
X204301219Y-69825966D01*
X204445966Y-69681219D01*
X204445968Y-69681215D01*
X204445971Y-69681213D01*
X204566284Y-69515614D01*
X204566286Y-69515611D01*
X204566287Y-69515610D01*
X204613516Y-69422917D01*
X204661489Y-69372123D01*
X204729310Y-69355328D01*
X204795445Y-69377865D01*
X204834485Y-69422919D01*
X204881715Y-69515614D01*
X205002028Y-69681213D01*
X205146786Y-69825971D01*
X205276275Y-69920048D01*
X205312390Y-69946287D01*
X205428607Y-70005503D01*
X205494776Y-70039218D01*
X205494778Y-70039218D01*
X205494781Y-70039220D01*
X205585856Y-70068812D01*
X205689465Y-70102477D01*
X205790557Y-70118488D01*
X205891648Y-70134500D01*
X205891649Y-70134500D01*
X206096351Y-70134500D01*
X206096352Y-70134500D01*
X206298534Y-70102477D01*
X206493219Y-70039220D01*
X206675610Y-69946287D01*
X206804482Y-69852657D01*
X206841213Y-69825971D01*
X206841215Y-69825968D01*
X206841219Y-69825966D01*
X206985966Y-69681219D01*
X206985968Y-69681215D01*
X206985971Y-69681213D01*
X207106284Y-69515614D01*
X207106286Y-69515611D01*
X207106287Y-69515610D01*
X207153516Y-69422917D01*
X207201489Y-69372123D01*
X207269310Y-69355328D01*
X207335445Y-69377865D01*
X207374485Y-69422919D01*
X207421715Y-69515614D01*
X207542028Y-69681213D01*
X207686786Y-69825971D01*
X207816275Y-69920048D01*
X207852390Y-69946287D01*
X207968607Y-70005503D01*
X208034776Y-70039218D01*
X208034778Y-70039218D01*
X208034781Y-70039220D01*
X208125856Y-70068812D01*
X208229465Y-70102477D01*
X208330557Y-70118488D01*
X208431648Y-70134500D01*
X208431649Y-70134500D01*
X208636351Y-70134500D01*
X208636352Y-70134500D01*
X208838534Y-70102477D01*
X209033219Y-70039220D01*
X209215610Y-69946287D01*
X209344482Y-69852657D01*
X209381213Y-69825971D01*
X209381215Y-69825968D01*
X209381219Y-69825966D01*
X209525966Y-69681219D01*
X209594021Y-69587547D01*
X209649349Y-69544882D01*
X209718963Y-69538902D01*
X209780758Y-69571507D01*
X209812044Y-69621427D01*
X209839186Y-69703334D01*
X209931288Y-69852656D01*
X210055344Y-69976712D01*
X210204666Y-70068814D01*
X210371203Y-70123999D01*
X210473991Y-70134500D01*
X211674008Y-70134499D01*
X211776797Y-70123999D01*
X211943334Y-70068814D01*
X212092656Y-69976712D01*
X212120819Y-69948549D01*
X212182142Y-69915064D01*
X212251834Y-69920048D01*
X212307767Y-69961920D01*
X212332184Y-70027384D01*
X212332500Y-70036230D01*
X212332500Y-75592000D01*
X212312815Y-75659039D01*
X212260011Y-75704794D01*
X212190853Y-75714738D01*
X212127297Y-75685713D01*
X212108182Y-75664885D01*
X212065971Y-75606787D01*
X212065967Y-75606782D01*
X211921213Y-75462028D01*
X211755613Y-75341715D01*
X211755612Y-75341714D01*
X211755610Y-75341713D01*
X211698653Y-75312691D01*
X211573223Y-75248781D01*
X211378534Y-75185522D01*
X211203995Y-75157878D01*
X211176352Y-75153500D01*
X210971648Y-75153500D01*
X210947329Y-75157351D01*
X210769465Y-75185522D01*
X210574776Y-75248781D01*
X210392386Y-75341715D01*
X210226786Y-75462028D01*
X210082028Y-75606786D01*
X209961715Y-75772386D01*
X209914485Y-75865080D01*
X209866510Y-75915876D01*
X209798689Y-75932671D01*
X209732554Y-75910134D01*
X209693515Y-75865080D01*
X209692883Y-75863840D01*
X209646287Y-75772390D01*
X209604401Y-75714738D01*
X209525971Y-75606786D01*
X209381213Y-75462028D01*
X209215613Y-75341715D01*
X209215612Y-75341714D01*
X209215610Y-75341713D01*
X209158653Y-75312691D01*
X209033223Y-75248781D01*
X208838534Y-75185522D01*
X208663995Y-75157878D01*
X208636352Y-75153500D01*
X208431648Y-75153500D01*
X208407329Y-75157351D01*
X208229465Y-75185522D01*
X208034776Y-75248781D01*
X207852386Y-75341715D01*
X207686786Y-75462028D01*
X207542028Y-75606786D01*
X207421715Y-75772386D01*
X207374485Y-75865080D01*
X207326510Y-75915876D01*
X207258689Y-75932671D01*
X207192554Y-75910134D01*
X207153515Y-75865080D01*
X207152883Y-75863840D01*
X207106287Y-75772390D01*
X207064401Y-75714738D01*
X206985971Y-75606786D01*
X206841213Y-75462028D01*
X206675613Y-75341715D01*
X206675612Y-75341714D01*
X206675610Y-75341713D01*
X206618653Y-75312691D01*
X206493223Y-75248781D01*
X206298534Y-75185522D01*
X206123995Y-75157878D01*
X206096352Y-75153500D01*
X205891648Y-75153500D01*
X205867329Y-75157351D01*
X205689465Y-75185522D01*
X205494776Y-75248781D01*
X205312386Y-75341715D01*
X205146786Y-75462028D01*
X205002028Y-75606786D01*
X204881715Y-75772386D01*
X204834485Y-75865080D01*
X204786510Y-75915876D01*
X204718689Y-75932671D01*
X204652554Y-75910134D01*
X204613515Y-75865080D01*
X204612883Y-75863840D01*
X204566287Y-75772390D01*
X204524401Y-75714738D01*
X204445971Y-75606786D01*
X204301213Y-75462028D01*
X204135613Y-75341715D01*
X204135612Y-75341714D01*
X204135610Y-75341713D01*
X204078653Y-75312691D01*
X203953223Y-75248781D01*
X203758534Y-75185522D01*
X203583995Y-75157878D01*
X203556352Y-75153500D01*
X203351648Y-75153500D01*
X203327329Y-75157351D01*
X203149465Y-75185522D01*
X202954776Y-75248781D01*
X202772386Y-75341715D01*
X202606786Y-75462028D01*
X202462028Y-75606786D01*
X202341715Y-75772386D01*
X202294485Y-75865080D01*
X202246510Y-75915876D01*
X202178689Y-75932671D01*
X202112554Y-75910134D01*
X202073515Y-75865080D01*
X202072883Y-75863840D01*
X202026287Y-75772390D01*
X201984401Y-75714738D01*
X201905971Y-75606786D01*
X201761213Y-75462028D01*
X201595613Y-75341715D01*
X201595612Y-75341714D01*
X201595610Y-75341713D01*
X201538653Y-75312691D01*
X201413223Y-75248781D01*
X201218534Y-75185522D01*
X201043995Y-75157878D01*
X201016352Y-75153500D01*
X200811648Y-75153500D01*
X200787329Y-75157351D01*
X200609465Y-75185522D01*
X200414776Y-75248781D01*
X200232386Y-75341715D01*
X200066786Y-75462028D01*
X199922028Y-75606786D01*
X199801715Y-75772386D01*
X199754485Y-75865080D01*
X199706510Y-75915876D01*
X199638689Y-75932671D01*
X199572554Y-75910134D01*
X199533515Y-75865080D01*
X199532883Y-75863840D01*
X199486287Y-75772390D01*
X199444401Y-75714738D01*
X199365971Y-75606786D01*
X199221213Y-75462028D01*
X199055613Y-75341715D01*
X199055612Y-75341714D01*
X199055610Y-75341713D01*
X198998653Y-75312691D01*
X198873223Y-75248781D01*
X198678534Y-75185522D01*
X198503995Y-75157878D01*
X198476352Y-75153500D01*
X198271648Y-75153500D01*
X198247329Y-75157351D01*
X198069465Y-75185522D01*
X197874776Y-75248781D01*
X197692386Y-75341715D01*
X197526786Y-75462028D01*
X197382028Y-75606786D01*
X197261715Y-75772386D01*
X197214485Y-75865080D01*
X197166510Y-75915876D01*
X197098689Y-75932671D01*
X197032554Y-75910134D01*
X196993515Y-75865080D01*
X196992883Y-75863840D01*
X196946287Y-75772390D01*
X196904401Y-75714738D01*
X196825971Y-75606786D01*
X196681213Y-75462028D01*
X196515613Y-75341715D01*
X196515612Y-75341714D01*
X196515610Y-75341713D01*
X196458653Y-75312691D01*
X196333223Y-75248781D01*
X196138534Y-75185522D01*
X195963995Y-75157878D01*
X195936352Y-75153500D01*
X195731648Y-75153500D01*
X195707329Y-75157351D01*
X195529465Y-75185522D01*
X195334776Y-75248781D01*
X195152386Y-75341715D01*
X194986786Y-75462028D01*
X194842028Y-75606786D01*
X194721715Y-75772386D01*
X194674485Y-75865080D01*
X194626510Y-75915876D01*
X194558689Y-75932671D01*
X194492554Y-75910134D01*
X194453515Y-75865080D01*
X194452883Y-75863840D01*
X194406287Y-75772390D01*
X194364401Y-75714738D01*
X194285971Y-75606786D01*
X194141213Y-75462028D01*
X193975613Y-75341715D01*
X193975612Y-75341714D01*
X193975610Y-75341713D01*
X193918653Y-75312691D01*
X193793223Y-75248781D01*
X193598534Y-75185522D01*
X193423995Y-75157878D01*
X193396352Y-75153500D01*
X193191648Y-75153500D01*
X193167329Y-75157351D01*
X192989465Y-75185522D01*
X192794776Y-75248781D01*
X192612386Y-75341715D01*
X192446786Y-75462028D01*
X192302028Y-75606786D01*
X192181715Y-75772386D01*
X192134485Y-75865080D01*
X192086510Y-75915876D01*
X192018689Y-75932671D01*
X191952554Y-75910134D01*
X191913515Y-75865080D01*
X191912883Y-75863840D01*
X191866287Y-75772390D01*
X191824401Y-75714738D01*
X191745971Y-75606786D01*
X191601213Y-75462028D01*
X191435613Y-75341715D01*
X191435612Y-75341714D01*
X191435610Y-75341713D01*
X191378653Y-75312691D01*
X191253223Y-75248781D01*
X191058534Y-75185522D01*
X190883995Y-75157878D01*
X190856352Y-75153500D01*
X190651648Y-75153500D01*
X190627329Y-75157351D01*
X190449465Y-75185522D01*
X190254776Y-75248781D01*
X190072386Y-75341715D01*
X189906786Y-75462028D01*
X189906782Y-75462032D01*
X189851634Y-75517181D01*
X189790311Y-75550666D01*
X189763953Y-75553500D01*
X188195248Y-75553500D01*
X188128209Y-75533815D01*
X188107567Y-75517181D01*
X187645818Y-75055431D01*
X187612333Y-74994108D01*
X187609499Y-74967750D01*
X187609499Y-74392111D01*
X187609498Y-74392094D01*
X187598999Y-74289316D01*
X187598998Y-74289313D01*
X187543814Y-74122779D01*
X187451712Y-73973457D01*
X187327656Y-73849401D01*
X187178334Y-73757299D01*
X187116558Y-73736828D01*
X187059115Y-73697056D01*
X187032292Y-73632540D01*
X187031946Y-73609393D01*
X187034921Y-73571586D01*
X186355447Y-72892113D01*
X186361661Y-72892113D01*
X186463394Y-72864854D01*
X186554606Y-72812193D01*
X186629080Y-72737719D01*
X186681741Y-72646507D01*
X186709000Y-72544774D01*
X186709000Y-72538560D01*
X187388474Y-73218034D01*
X187420859Y-73173462D01*
X187513755Y-72991144D01*
X187576990Y-72796530D01*
X187609000Y-72594430D01*
X187609000Y-72389795D01*
X187576990Y-72187695D01*
X187513755Y-71993081D01*
X187420859Y-71810763D01*
X187388474Y-71766190D01*
X187388474Y-71766189D01*
X186709000Y-72445664D01*
X186709000Y-72439452D01*
X186681741Y-72337719D01*
X186629080Y-72246507D01*
X186554606Y-72172033D01*
X186463394Y-72119372D01*
X186361661Y-72092113D01*
X186355446Y-72092113D01*
X187034922Y-71412637D01*
X187034921Y-71412636D01*
X186990359Y-71380260D01*
X186990350Y-71380254D01*
X186808031Y-71287357D01*
X186613417Y-71224122D01*
X186411317Y-71192113D01*
X186206683Y-71192113D01*
X186004582Y-71224122D01*
X185809968Y-71287357D01*
X185627644Y-71380256D01*
X185583077Y-71412636D01*
X185583077Y-71412637D01*
X186262554Y-72092113D01*
X186256339Y-72092113D01*
X186154606Y-72119372D01*
X186063394Y-72172033D01*
X185988920Y-72246507D01*
X185936259Y-72337719D01*
X185909000Y-72439452D01*
X185909000Y-72445666D01*
X185229524Y-71766190D01*
X185229523Y-71766190D01*
X185197143Y-71810757D01*
X185104244Y-71993081D01*
X185041009Y-72187695D01*
X185009000Y-72389795D01*
X185009000Y-72594430D01*
X185041009Y-72796530D01*
X185104244Y-72991144D01*
X185197141Y-73173463D01*
X185197147Y-73173472D01*
X185229523Y-73218034D01*
X185229524Y-73218035D01*
X185909000Y-72538559D01*
X185909000Y-72544774D01*
X185936259Y-72646507D01*
X185988920Y-72737719D01*
X186063394Y-72812193D01*
X186154606Y-72864854D01*
X186256339Y-72892113D01*
X186262553Y-72892113D01*
X185583076Y-73571587D01*
X185586052Y-73609395D01*
X185571687Y-73677772D01*
X185522636Y-73727528D01*
X185501440Y-73736828D01*
X185439672Y-73757297D01*
X185439663Y-73757300D01*
X185290342Y-73849402D01*
X185166289Y-73973455D01*
X185074187Y-74122776D01*
X185074186Y-74122779D01*
X185019001Y-74289316D01*
X185019001Y-74289317D01*
X185019000Y-74289317D01*
X185008500Y-74392096D01*
X185008500Y-74754500D01*
X184988815Y-74821539D01*
X184936011Y-74867294D01*
X184884500Y-74878500D01*
X182854047Y-74878500D01*
X182787008Y-74858815D01*
X182766366Y-74842181D01*
X182711213Y-74787028D01*
X182545613Y-74666715D01*
X182545612Y-74666714D01*
X182545610Y-74666713D01*
X182488653Y-74637691D01*
X182363223Y-74573781D01*
X182168534Y-74510522D01*
X181993995Y-74482878D01*
X181966352Y-74478500D01*
X181761648Y-74478500D01*
X181737329Y-74482351D01*
X181559465Y-74510522D01*
X181364776Y-74573781D01*
X181182386Y-74666715D01*
X181016786Y-74787028D01*
X180872028Y-74931786D01*
X180751715Y-75097386D01*
X180658781Y-75279776D01*
X180595522Y-75474465D01*
X180563500Y-75676648D01*
X180563500Y-75881351D01*
X180595522Y-76083534D01*
X180658781Y-76278223D01*
X180751715Y-76460613D01*
X180872028Y-76626213D01*
X180893264Y-76647449D01*
X180926749Y-76708772D01*
X180921765Y-76778464D01*
X180879893Y-76834397D01*
X180814429Y-76858814D01*
X180806143Y-76859129D01*
X127948060Y-77098000D01*
X127880933Y-77078618D01*
X127834940Y-77026022D01*
X127823500Y-76974001D01*
X127823500Y-70676682D01*
X180564000Y-70676682D01*
X180564000Y-70881317D01*
X180596009Y-71083417D01*
X180659244Y-71278031D01*
X180752141Y-71460350D01*
X180752147Y-71460359D01*
X180784523Y-71504921D01*
X180784524Y-71504922D01*
X181464000Y-70825446D01*
X181464000Y-70831661D01*
X181491259Y-70933394D01*
X181543920Y-71024606D01*
X181618394Y-71099080D01*
X181709606Y-71151741D01*
X181811339Y-71179000D01*
X181817553Y-71179000D01*
X181138076Y-71858474D01*
X181182650Y-71890859D01*
X181364968Y-71983755D01*
X181559582Y-72046990D01*
X181761683Y-72079000D01*
X181966317Y-72079000D01*
X182168417Y-72046990D01*
X182363031Y-71983755D01*
X182545349Y-71890859D01*
X182589921Y-71858474D01*
X181910447Y-71179000D01*
X181916661Y-71179000D01*
X182018394Y-71151741D01*
X182109606Y-71099080D01*
X182184080Y-71024606D01*
X182236741Y-70933394D01*
X182264000Y-70831661D01*
X182264000Y-70825447D01*
X182943474Y-71504921D01*
X182975861Y-71460347D01*
X182975861Y-71460346D01*
X183004774Y-71403602D01*
X183004774Y-71403601D01*
X183068755Y-71278031D01*
X183131990Y-71083417D01*
X183164000Y-70881317D01*
X183164000Y-70676682D01*
X183131990Y-70474582D01*
X183068755Y-70279968D01*
X182975859Y-70097650D01*
X182943474Y-70053077D01*
X182943474Y-70053076D01*
X182264000Y-70732551D01*
X182264000Y-70726339D01*
X182236741Y-70624606D01*
X182184080Y-70533394D01*
X182109606Y-70458920D01*
X182018394Y-70406259D01*
X181916661Y-70379000D01*
X181910446Y-70379000D01*
X182510913Y-69778534D01*
X182589922Y-69699524D01*
X182589921Y-69699523D01*
X182545359Y-69667147D01*
X182545350Y-69667141D01*
X182363031Y-69574244D01*
X182168417Y-69511009D01*
X181966317Y-69479000D01*
X181761683Y-69479000D01*
X181559582Y-69511009D01*
X181364968Y-69574244D01*
X181182644Y-69667143D01*
X181138077Y-69699523D01*
X181138077Y-69699524D01*
X181817554Y-70379000D01*
X181811339Y-70379000D01*
X181709606Y-70406259D01*
X181618394Y-70458920D01*
X181543920Y-70533394D01*
X181491259Y-70624606D01*
X181464000Y-70726339D01*
X181464000Y-70732553D01*
X180784524Y-70053077D01*
X180784523Y-70053077D01*
X180752143Y-70097644D01*
X180659244Y-70279968D01*
X180596009Y-70474582D01*
X180564000Y-70676682D01*
X127823500Y-70676682D01*
X127823500Y-67842682D01*
X166126000Y-67842682D01*
X166126000Y-68047317D01*
X166158009Y-68249417D01*
X166221244Y-68444031D01*
X166314141Y-68626350D01*
X166314147Y-68626359D01*
X166346523Y-68670921D01*
X166346524Y-68670922D01*
X167026000Y-67991446D01*
X167026000Y-67997661D01*
X167053259Y-68099394D01*
X167105920Y-68190606D01*
X167180394Y-68265080D01*
X167271606Y-68317741D01*
X167373339Y-68345000D01*
X167379553Y-68345000D01*
X166700076Y-69024474D01*
X166744650Y-69056859D01*
X166926968Y-69149755D01*
X167121582Y-69212990D01*
X167323683Y-69245000D01*
X167528317Y-69245000D01*
X167730417Y-69212990D01*
X167925031Y-69149755D01*
X168107349Y-69056859D01*
X168151921Y-69024474D01*
X167472447Y-68345000D01*
X167478661Y-68345000D01*
X167580394Y-68317741D01*
X167671606Y-68265080D01*
X167746080Y-68190606D01*
X167798741Y-68099394D01*
X167826000Y-67997661D01*
X167826000Y-67991448D01*
X168505474Y-68670922D01*
X168505474Y-68670921D01*
X168537859Y-68626349D01*
X168630755Y-68444031D01*
X168693990Y-68249417D01*
X168726000Y-68047317D01*
X168726000Y-67842682D01*
X168725995Y-67842648D01*
X171125500Y-67842648D01*
X171125500Y-68047351D01*
X171157522Y-68249534D01*
X171220781Y-68444223D01*
X171284691Y-68569653D01*
X171313585Y-68626359D01*
X171313715Y-68626613D01*
X171434028Y-68792213D01*
X171578786Y-68936971D01*
X171699226Y-69024474D01*
X171744390Y-69057287D01*
X171860607Y-69116503D01*
X171926776Y-69150218D01*
X171926778Y-69150218D01*
X171926781Y-69150220D01*
X172031137Y-69184127D01*
X172121465Y-69213477D01*
X172211347Y-69227713D01*
X172323648Y-69245500D01*
X172323649Y-69245500D01*
X172528351Y-69245500D01*
X172528352Y-69245500D01*
X172730534Y-69213477D01*
X172925219Y-69150220D01*
X173107610Y-69057287D01*
X173202434Y-68988394D01*
X173273213Y-68936971D01*
X173273215Y-68936968D01*
X173273219Y-68936966D01*
X173417966Y-68792219D01*
X173417968Y-68792215D01*
X173417971Y-68792213D01*
X173499783Y-68679606D01*
X173538287Y-68626610D01*
X173631220Y-68444219D01*
X173694477Y-68249534D01*
X173726500Y-68047352D01*
X173726500Y-67842648D01*
X173707346Y-67721715D01*
X173694477Y-67640465D01*
X173651685Y-67508767D01*
X173631220Y-67445781D01*
X173631218Y-67445778D01*
X173631218Y-67445776D01*
X173538419Y-67263650D01*
X173538287Y-67263390D01*
X173506092Y-67219077D01*
X173417971Y-67097786D01*
X173273213Y-66953028D01*
X173107613Y-66832715D01*
X173107612Y-66832714D01*
X173107610Y-66832713D01*
X173050653Y-66803691D01*
X172925223Y-66739781D01*
X172730534Y-66676522D01*
X172555995Y-66648878D01*
X172528352Y-66644500D01*
X172323648Y-66644500D01*
X172299329Y-66648351D01*
X172121465Y-66676522D01*
X171926776Y-66739781D01*
X171744386Y-66832715D01*
X171578786Y-66953028D01*
X171434028Y-67097786D01*
X171313715Y-67263386D01*
X171220781Y-67445776D01*
X171157522Y-67640465D01*
X171125500Y-67842648D01*
X168725995Y-67842648D01*
X168693990Y-67640582D01*
X168630755Y-67445968D01*
X168537859Y-67263650D01*
X168505474Y-67219077D01*
X168505474Y-67219076D01*
X167826000Y-67898551D01*
X167826000Y-67892339D01*
X167798741Y-67790606D01*
X167746080Y-67699394D01*
X167671606Y-67624920D01*
X167580394Y-67572259D01*
X167478661Y-67545000D01*
X167472446Y-67545000D01*
X168151922Y-66865524D01*
X168151921Y-66865523D01*
X168107359Y-66833147D01*
X168107350Y-66833141D01*
X167925031Y-66740244D01*
X167730417Y-66677009D01*
X167528317Y-66645000D01*
X167323683Y-66645000D01*
X167121582Y-66677009D01*
X166926968Y-66740244D01*
X166744644Y-66833143D01*
X166700077Y-66865523D01*
X166700077Y-66865524D01*
X167379554Y-67545000D01*
X167373339Y-67545000D01*
X167271606Y-67572259D01*
X167180394Y-67624920D01*
X167105920Y-67699394D01*
X167053259Y-67790606D01*
X167026000Y-67892339D01*
X167026000Y-67898553D01*
X166346524Y-67219077D01*
X166346523Y-67219077D01*
X166314143Y-67263644D01*
X166221244Y-67445968D01*
X166158009Y-67640582D01*
X166126000Y-67842682D01*
X127823500Y-67842682D01*
X127823500Y-59674682D01*
X139924000Y-59674682D01*
X139924000Y-59879317D01*
X139956009Y-60081417D01*
X140019244Y-60276031D01*
X140112141Y-60458350D01*
X140112147Y-60458359D01*
X140144523Y-60502921D01*
X140144524Y-60502922D01*
X140824000Y-59823446D01*
X140824000Y-59829661D01*
X140851259Y-59931394D01*
X140903920Y-60022606D01*
X140978394Y-60097080D01*
X141069606Y-60149741D01*
X141171339Y-60177000D01*
X141177553Y-60177000D01*
X140498076Y-60856474D01*
X140542650Y-60888859D01*
X140724968Y-60981755D01*
X140919582Y-61044990D01*
X141121683Y-61077000D01*
X141326317Y-61077000D01*
X141528417Y-61044990D01*
X141723031Y-60981755D01*
X141905349Y-60888859D01*
X141949921Y-60856474D01*
X141270447Y-60177000D01*
X141276661Y-60177000D01*
X141378394Y-60149741D01*
X141469606Y-60097080D01*
X141544080Y-60022606D01*
X141596741Y-59931394D01*
X141624000Y-59829661D01*
X141624000Y-59823448D01*
X142303474Y-60502922D01*
X142303474Y-60502921D01*
X142335859Y-60458349D01*
X142428755Y-60276031D01*
X142491990Y-60081417D01*
X142524000Y-59879317D01*
X142524000Y-59674682D01*
X142491990Y-59472582D01*
X142428755Y-59277968D01*
X142335859Y-59095650D01*
X142303474Y-59051077D01*
X142303474Y-59051076D01*
X141624000Y-59730551D01*
X141624000Y-59724339D01*
X141596741Y-59622606D01*
X141544080Y-59531394D01*
X141469606Y-59456920D01*
X141378394Y-59404259D01*
X141276661Y-59377000D01*
X141270446Y-59377000D01*
X141949922Y-58697524D01*
X141949921Y-58697523D01*
X141905359Y-58665147D01*
X141905350Y-58665141D01*
X141723031Y-58572244D01*
X141528417Y-58509009D01*
X141326317Y-58477000D01*
X141121683Y-58477000D01*
X140919582Y-58509009D01*
X140724968Y-58572244D01*
X140542644Y-58665143D01*
X140498077Y-58697523D01*
X140498077Y-58697524D01*
X141177554Y-59377000D01*
X141171339Y-59377000D01*
X141069606Y-59404259D01*
X140978394Y-59456920D01*
X140903920Y-59531394D01*
X140851259Y-59622606D01*
X140824000Y-59724339D01*
X140824000Y-59730553D01*
X140144524Y-59051077D01*
X140144523Y-59051077D01*
X140112143Y-59095644D01*
X140019244Y-59277968D01*
X139956009Y-59472582D01*
X139924000Y-59674682D01*
X127823500Y-59674682D01*
X127823500Y-54674648D01*
X139923500Y-54674648D01*
X139923500Y-54879351D01*
X139955522Y-55081534D01*
X140018781Y-55276223D01*
X140072057Y-55380781D01*
X140111004Y-55457219D01*
X140111715Y-55458613D01*
X140232028Y-55624213D01*
X140376786Y-55768971D01*
X140527687Y-55878605D01*
X140542390Y-55889287D01*
X140650977Y-55944615D01*
X140724776Y-55982218D01*
X140724778Y-55982218D01*
X140724781Y-55982220D01*
X140829137Y-56016127D01*
X140919465Y-56045477D01*
X141000148Y-56058256D01*
X141121648Y-56077500D01*
X141121649Y-56077500D01*
X141326351Y-56077500D01*
X141326352Y-56077500D01*
X141528534Y-56045477D01*
X141723219Y-55982220D01*
X141905610Y-55889287D01*
X142013082Y-55811205D01*
X142071213Y-55768971D01*
X142071215Y-55768968D01*
X142071219Y-55768966D01*
X142215966Y-55624219D01*
X142215968Y-55624215D01*
X142215971Y-55624213D01*
X142273078Y-55545610D01*
X142336287Y-55458610D01*
X142429220Y-55276219D01*
X142475569Y-55133572D01*
X142515007Y-55075896D01*
X142579365Y-55048698D01*
X142648212Y-55060613D01*
X142699687Y-55107857D01*
X142717500Y-55171890D01*
X142717500Y-55347351D01*
X142749522Y-55549534D01*
X142812781Y-55744223D01*
X142876691Y-55869653D01*
X142896501Y-55908531D01*
X142905715Y-55926613D01*
X143026028Y-56092213D01*
X143170786Y-56236971D01*
X143325749Y-56349556D01*
X143336390Y-56357287D01*
X143434012Y-56407028D01*
X143518776Y-56450218D01*
X143518778Y-56450218D01*
X143518781Y-56450220D01*
X143610459Y-56480008D01*
X143713465Y-56513477D01*
X143814557Y-56529488D01*
X143915648Y-56545500D01*
X143915649Y-56545500D01*
X144120351Y-56545500D01*
X144120352Y-56545500D01*
X144322534Y-56513477D01*
X144517219Y-56450220D01*
X144699610Y-56357287D01*
X144814638Y-56273715D01*
X144865213Y-56236971D01*
X144865215Y-56236968D01*
X144865219Y-56236966D01*
X145009966Y-56092219D01*
X145009968Y-56092215D01*
X145009971Y-56092213D01*
X145083142Y-55991500D01*
X145130287Y-55926610D01*
X145223220Y-55744219D01*
X145286477Y-55549534D01*
X145318500Y-55347352D01*
X145318500Y-55142648D01*
X145303620Y-55048698D01*
X145286477Y-54940465D01*
X145236350Y-54786192D01*
X145223220Y-54745781D01*
X145223218Y-54745778D01*
X145223218Y-54745776D01*
X145180868Y-54662661D01*
X145130287Y-54563390D01*
X145089813Y-54507682D01*
X145009971Y-54397786D01*
X144865213Y-54253028D01*
X144699613Y-54132715D01*
X144699612Y-54132714D01*
X144699610Y-54132713D01*
X144626352Y-54095386D01*
X144517223Y-54039781D01*
X144322534Y-53976522D01*
X144147995Y-53948878D01*
X144120352Y-53944500D01*
X143915648Y-53944500D01*
X143891329Y-53948351D01*
X143713465Y-53976522D01*
X143518776Y-54039781D01*
X143336386Y-54132715D01*
X143170786Y-54253028D01*
X143026028Y-54397786D01*
X142905715Y-54563386D01*
X142812781Y-54745776D01*
X142766431Y-54888428D01*
X142726993Y-54946103D01*
X142662634Y-54973301D01*
X142593788Y-54961386D01*
X142542312Y-54914142D01*
X142524500Y-54850109D01*
X142524500Y-54674648D01*
X142492477Y-54472465D01*
X142429218Y-54277776D01*
X142372863Y-54167175D01*
X142336287Y-54095390D01*
X142295885Y-54039781D01*
X142215971Y-53929786D01*
X142071219Y-53785034D01*
X142025356Y-53751713D01*
X141924037Y-53678101D01*
X141924036Y-53678099D01*
X141905613Y-53664715D01*
X141905612Y-53664714D01*
X141905610Y-53664713D01*
X141848653Y-53635691D01*
X141723223Y-53571781D01*
X141528534Y-53508522D01*
X141353995Y-53480878D01*
X141326352Y-53476500D01*
X141121648Y-53476500D01*
X141097329Y-53480351D01*
X140919465Y-53508522D01*
X140724776Y-53571781D01*
X140542386Y-53664715D01*
X140376786Y-53785028D01*
X140232028Y-53929786D01*
X140111715Y-54095386D01*
X140018781Y-54277776D01*
X139955522Y-54472465D01*
X139923500Y-54674648D01*
X127823500Y-54674648D01*
X127823500Y-46960383D01*
X172659500Y-46960383D01*
X172659500Y-48560401D01*
X172659501Y-48560418D01*
X172670000Y-48663196D01*
X172670001Y-48663199D01*
X172722403Y-48821336D01*
X172725186Y-48829734D01*
X172817288Y-48979056D01*
X172941344Y-49103112D01*
X173090666Y-49195214D01*
X173257203Y-49250399D01*
X173359991Y-49260900D01*
X174660008Y-49260899D01*
X174762797Y-49250399D01*
X174929334Y-49195214D01*
X175078656Y-49103112D01*
X175202712Y-48979056D01*
X175294814Y-48829734D01*
X175294814Y-48829731D01*
X175298178Y-48824279D01*
X175350126Y-48777554D01*
X175419088Y-48766331D01*
X175483170Y-48794174D01*
X175491398Y-48801694D01*
X175630213Y-48940509D01*
X175802179Y-49065448D01*
X175802181Y-49065449D01*
X175802184Y-49065451D01*
X175991588Y-49161957D01*
X176193757Y-49227646D01*
X176403713Y-49260900D01*
X176403714Y-49260900D01*
X176616286Y-49260900D01*
X176616287Y-49260900D01*
X176826243Y-49227646D01*
X177028412Y-49161957D01*
X177217816Y-49065451D01*
X177239789Y-49049486D01*
X177389786Y-48940509D01*
X177389788Y-48940506D01*
X177389792Y-48940504D01*
X177540104Y-48790192D01*
X177540106Y-48790188D01*
X177540109Y-48790186D01*
X177665048Y-48618220D01*
X177665047Y-48618220D01*
X177665051Y-48618216D01*
X177761557Y-48428812D01*
X177827246Y-48226643D01*
X177860500Y-48016687D01*
X177860500Y-47504113D01*
X177827246Y-47294157D01*
X177761557Y-47091988D01*
X177665051Y-46902584D01*
X177665049Y-46902581D01*
X177665048Y-46902579D01*
X177540109Y-46730613D01*
X177389786Y-46580290D01*
X177217820Y-46455351D01*
X177028414Y-46358844D01*
X177028413Y-46358843D01*
X177028412Y-46358843D01*
X176826243Y-46293154D01*
X176826241Y-46293153D01*
X176826240Y-46293153D01*
X176664957Y-46267608D01*
X176616287Y-46259900D01*
X176403713Y-46259900D01*
X176355042Y-46267608D01*
X176193760Y-46293153D01*
X175991585Y-46358844D01*
X175802179Y-46455351D01*
X175630215Y-46580289D01*
X175491398Y-46719106D01*
X175430075Y-46752590D01*
X175360383Y-46747606D01*
X175304450Y-46705734D01*
X175298178Y-46696520D01*
X175202712Y-46541744D01*
X175078657Y-46417689D01*
X175078656Y-46417688D01*
X174929334Y-46325586D01*
X174762797Y-46270401D01*
X174762795Y-46270400D01*
X174660010Y-46259900D01*
X173359998Y-46259900D01*
X173359981Y-46259901D01*
X173257203Y-46270400D01*
X173257200Y-46270401D01*
X173090668Y-46325585D01*
X173090663Y-46325587D01*
X172941342Y-46417689D01*
X172817289Y-46541742D01*
X172725187Y-46691063D01*
X172725185Y-46691068D01*
X172720325Y-46705734D01*
X172670001Y-46857603D01*
X172670001Y-46857604D01*
X172670000Y-46857604D01*
X172659500Y-46960383D01*
X127823500Y-46960383D01*
X127823500Y-42742500D01*
X127843185Y-42675461D01*
X127895989Y-42629706D01*
X127947500Y-42618500D01*
X214000500Y-42618500D01*
X214067539Y-42638185D01*
G37*
G04 #@! TD.AperFunction*
G04 #@! TA.AperFunction,Conductor*
G36*
X151172075Y-60014993D02*
G01*
X151237901Y-60129007D01*
X151330993Y-60222099D01*
X151445007Y-60287925D01*
X151508590Y-60304962D01*
X150876282Y-60937269D01*
X150876282Y-60937270D01*
X150930452Y-60976626D01*
X150930451Y-60976626D01*
X150939495Y-60981234D01*
X150990292Y-61029208D01*
X151007087Y-61097029D01*
X150984550Y-61163164D01*
X150939499Y-61202202D01*
X150930182Y-61206949D01*
X150758213Y-61331890D01*
X150607890Y-61482213D01*
X150482949Y-61654182D01*
X150478484Y-61662946D01*
X150430509Y-61713742D01*
X150362688Y-61730536D01*
X150296553Y-61707998D01*
X150257516Y-61662946D01*
X150253050Y-61654182D01*
X150128109Y-61482213D01*
X149977786Y-61331890D01*
X149805820Y-61206951D01*
X149805115Y-61206591D01*
X149797054Y-61202485D01*
X149746259Y-61154512D01*
X149729463Y-61086692D01*
X149751999Y-61020556D01*
X149797054Y-60981515D01*
X149805816Y-60977051D01*
X149927203Y-60888859D01*
X149977786Y-60852109D01*
X149977788Y-60852106D01*
X149977792Y-60852104D01*
X150128104Y-60701792D01*
X150128106Y-60701788D01*
X150128109Y-60701786D01*
X150213890Y-60583717D01*
X150253051Y-60529816D01*
X150257793Y-60520508D01*
X150305763Y-60469711D01*
X150373583Y-60452911D01*
X150439719Y-60475445D01*
X150478763Y-60520500D01*
X150483373Y-60529547D01*
X150522728Y-60583716D01*
X151155037Y-59951408D01*
X151172075Y-60014993D01*
G37*
G04 #@! TD.AperFunction*
G04 #@! TA.AperFunction,Conductor*
G36*
X201401128Y-47071185D02*
G01*
X201446883Y-47123989D01*
X201456617Y-47179064D01*
X202137554Y-47860000D01*
X202131339Y-47860000D01*
X202029606Y-47887259D01*
X201938394Y-47939920D01*
X201863920Y-48014394D01*
X201811259Y-48105606D01*
X201784000Y-48207339D01*
X201784000Y-48213553D01*
X201104524Y-47534077D01*
X201104523Y-47534077D01*
X201072143Y-47578644D01*
X201024765Y-47671630D01*
X200976790Y-47722426D01*
X200908969Y-47739221D01*
X200842834Y-47716683D01*
X200803795Y-47671630D01*
X200803515Y-47671080D01*
X200756287Y-47578390D01*
X200756285Y-47578387D01*
X200756284Y-47578385D01*
X200635971Y-47412786D01*
X200487774Y-47264589D01*
X200489045Y-47263317D01*
X200455076Y-47211264D01*
X200454589Y-47141396D01*
X200491953Y-47082356D01*
X200555305Y-47052888D01*
X200573807Y-47051500D01*
X201334089Y-47051500D01*
X201401128Y-47071185D01*
G37*
G04 #@! TD.AperFunction*
M02*
