M48
; DRILL file {KiCad 9.0.5} date 2025-10-10T22:50:33+0200
; FORMAT={-:-/ absolute / metric / decimal}
; #@! TF.CreationDate,2025-10-10T22:50:33+02:00
; #@! TF.GenerationSoftware,Kicad,Pcbnew,9.0.5
; #@! TF.FileFunction,Plated,1,2,PTH
FMAT,2
METRIC
; #@! TA.AperFunction,Plated,PTH,ViaDrill
T1C0.300
; #@! TA.AperFunction,Plated,PTH,ComponentDrill
T2C0.650
; #@! TA.AperFunction,Plated,PTH,ComponentDrill
T3C0.800
; #@! TA.AperFunction,Plated,PTH,ComponentDrill
T4C1.000
%
G90
G05
T1
X133.35Y-84.836
X133.413Y-82.74
X143.256Y-82.423
X143.256Y-84.963
X153.289Y-82.423
X153.289Y-84.963
X162.941Y-82.423
X162.941Y-84.963
X197.485Y-82.804
X197.485Y-84.582
X208.28Y-82.296
X208.28Y-83.312
T2
X135.509Y-90.551
X136.779Y-90.551
X138.049Y-90.551
X139.319Y-90.551
X140.589Y-90.551
X141.859Y-90.551
X143.129Y-90.551
X144.399Y-90.551
X145.669Y-90.551
X146.939Y-90.551
X148.209Y-90.551
X149.479Y-90.551
X150.749Y-90.551
X152.019Y-90.551
X153.289Y-90.551
X154.559Y-90.551
X155.829Y-90.551
X157.099Y-90.551
X158.369Y-90.551
X159.639Y-90.551
X160.909Y-90.551
X162.179Y-90.551
X163.449Y-90.551
X164.719Y-90.551
X195.723Y-90.551
X196.993Y-90.551
X198.263Y-90.551
X199.533Y-90.551
X200.803Y-90.551
X202.073Y-90.551
X203.343Y-90.551
X204.613Y-90.551
X205.883Y-90.551
X207.153Y-90.551
X208.423Y-90.551
X209.693Y-90.551
T3
X129.769Y-73.279
X132.269Y-73.279
X135.636Y-70.641
X135.636Y-75.641
X138.938Y-68.199
X138.938Y-75.819
X141.224Y-54.777
X141.224Y-59.777
X141.478Y-68.199
X141.478Y-75.819
X144.018Y-55.245
X144.018Y-68.199
X144.018Y-75.819
X146.558Y-68.199
X146.558Y-75.819
X149.098Y-68.199
X149.098Y-75.819
X151.638Y-68.199
X151.638Y-75.819
X154.178Y-55.245
X154.178Y-68.199
X154.178Y-75.819
X156.718Y-68.199
X156.718Y-75.819
X157.226Y-57.399
X157.226Y-65.019
X159.258Y-68.199
X159.258Y-75.819
X159.766Y-57.399
X159.766Y-65.019
X162.306Y-57.399
X162.306Y-65.019
X164.846Y-57.399
X164.846Y-65.019
X167.386Y-57.399
X167.386Y-65.019
X167.426Y-67.945
X169.926Y-57.399
X169.926Y-65.019
X169.966Y-54.61
X172.426Y-67.945
X172.466Y-57.399
X172.466Y-65.019
X174.966Y-54.61
X175.006Y-57.399
X175.006Y-65.019
X177.546Y-57.399
X177.546Y-65.019
X177.586Y-54.61
X180.086Y-57.399
X180.086Y-65.019
X181.839Y-73.152
X182.586Y-54.61
X182.626Y-57.399
X182.626Y-65.019
X184.339Y-73.152
X185.166Y-57.399
X185.166Y-65.019
X187.579Y-70.641
X187.579Y-75.641
X187.706Y-57.399
X187.706Y-65.019
X190.246Y-57.399
X190.246Y-65.019
X190.754Y-68.199
X190.754Y-75.819
X193.294Y-68.199
X193.294Y-75.819
X193.802Y-44.704
X193.802Y-54.864
X193.802Y-58.674
X195.072Y-62.484
X195.834Y-68.199
X195.834Y-75.819
X197.104Y-48.26
X197.104Y-55.88
X198.374Y-68.199
X198.374Y-75.819
X199.644Y-48.26
X199.644Y-55.88
X200.914Y-68.199
X200.914Y-75.819
X202.184Y-48.26
X202.184Y-55.88
X202.692Y-62.484
X203.454Y-68.199
X203.454Y-75.819
X203.962Y-58.674
X205.994Y-68.199
X205.994Y-75.819
X208.534Y-68.199
X208.534Y-75.819
X211.074Y-68.199
X211.074Y-75.819
T4
X146.558Y-59.812
X146.558Y-62.352
X149.098Y-59.812
X149.098Y-62.352
X151.638Y-59.812
X151.638Y-62.352
X174.01Y-47.76
X176.51Y-47.76
X184.658Y-47.752
X187.158Y-47.752
X207.912Y-57.912
X207.912Y-60.452
X207.912Y-62.992
M30
