G04 #@! TF.GenerationSoftware,KiCad,Pcbnew,9.0.5*
G04 #@! TF.CreationDate,2025-10-10T22:50:30+02:00*
G04 #@! TF.ProjectId,rec_play_switch_module,7265635f-706c-4617-995f-737769746368,rev?*
G04 #@! TF.SameCoordinates,Original*
G04 #@! TF.FileFunction,Legend,Top*
G04 #@! TF.FilePolarity,Positive*
%FSLAX46Y46*%
G04 Gerber Fmt 4.6, Leading zero omitted, Abs format (unit mm)*
G04 Created by KiCad (PCBNEW 9.0.5) date 2025-10-10 22:50:30*
%MOMM*%
%LPD*%
G01*
G04 APERTURE LIST*
G04 Aperture macros list*
%AMRoundRect*
0 Rectangle with rounded corners*
0 $1 Rounding radius*
0 $2 $3 $4 $5 $6 $7 $8 $9 X,Y pos of 4 corners*
0 Add a 4 corners polygon primitive as box body*
4,1,4,$2,$3,$4,$5,$6,$7,$8,$9,$2,$3,0*
0 Add four circle primitives for the rounded corners*
1,1,$1+$1,$2,$3*
1,1,$1+$1,$4,$5*
1,1,$1+$1,$6,$7*
1,1,$1+$1,$8,$9*
0 Add four rect primitives between the rounded corners*
20,1,$1+$1,$2,$3,$4,$5,0*
20,1,$1+$1,$4,$5,$6,$7,0*
20,1,$1+$1,$6,$7,$8,$9,0*
20,1,$1+$1,$8,$9,$2,$3,0*%
G04 Aperture macros list end*
%ADD10C,0.150000*%
%ADD11C,0.120000*%
%ADD12C,1.600000*%
%ADD13R,1.000000X1.000000*%
%ADD14C,1.000000*%
%ADD15RoundRect,0.250000X-0.550000X0.550000X-0.550000X-0.550000X0.550000X-0.550000X0.550000X0.550000X0*%
%ADD16RoundRect,0.250000X-0.600000X-0.750000X0.600000X-0.750000X0.600000X0.750000X-0.600000X0.750000X0*%
%ADD17O,1.700000X2.000000*%
%ADD18R,1.800000X0.800000*%
%ADD19RoundRect,0.250000X0.550000X-0.550000X0.550000X0.550000X-0.550000X0.550000X-0.550000X-0.550000X0*%
%ADD20RoundRect,0.250000X0.550000X0.550000X-0.550000X0.550000X-0.550000X-0.550000X0.550000X-0.550000X0*%
%ADD21RoundRect,0.250000X-0.550000X-0.550000X0.550000X-0.550000X0.550000X0.550000X-0.550000X0.550000X0*%
%ADD22R,1.700000X1.700000*%
%ADD23C,1.700000*%
%ADD24R,1.500000X1.500000*%
%ADD25C,1.500000*%
G04 APERTURE END LIST*
D10*
X173517160Y-52543104D02*
X173993350Y-52543104D01*
X173421922Y-52828819D02*
X173755255Y-51828819D01*
X173755255Y-51828819D02*
X174088588Y-52828819D01*
X186763188Y-51876438D02*
X186667950Y-51828819D01*
X186667950Y-51828819D02*
X186525093Y-51828819D01*
X186525093Y-51828819D02*
X186382236Y-51876438D01*
X186382236Y-51876438D02*
X186286998Y-51971676D01*
X186286998Y-51971676D02*
X186239379Y-52066914D01*
X186239379Y-52066914D02*
X186191760Y-52257390D01*
X186191760Y-52257390D02*
X186191760Y-52400247D01*
X186191760Y-52400247D02*
X186239379Y-52590723D01*
X186239379Y-52590723D02*
X186286998Y-52685961D01*
X186286998Y-52685961D02*
X186382236Y-52781200D01*
X186382236Y-52781200D02*
X186525093Y-52828819D01*
X186525093Y-52828819D02*
X186620331Y-52828819D01*
X186620331Y-52828819D02*
X186763188Y-52781200D01*
X186763188Y-52781200D02*
X186810807Y-52733580D01*
X186810807Y-52733580D02*
X186810807Y-52400247D01*
X186810807Y-52400247D02*
X186620331Y-52400247D01*
X187239379Y-52828819D02*
X187239379Y-51828819D01*
X187239379Y-51828819D02*
X187810807Y-52828819D01*
X187810807Y-52828819D02*
X187810807Y-51828819D01*
X188286998Y-52828819D02*
X188286998Y-51828819D01*
X188286998Y-51828819D02*
X188525093Y-51828819D01*
X188525093Y-51828819D02*
X188667950Y-51876438D01*
X188667950Y-51876438D02*
X188763188Y-51971676D01*
X188763188Y-51971676D02*
X188810807Y-52066914D01*
X188810807Y-52066914D02*
X188858426Y-52257390D01*
X188858426Y-52257390D02*
X188858426Y-52400247D01*
X188858426Y-52400247D02*
X188810807Y-52590723D01*
X188810807Y-52590723D02*
X188763188Y-52685961D01*
X188763188Y-52685961D02*
X188667950Y-52781200D01*
X188667950Y-52781200D02*
X188525093Y-52828819D01*
X188525093Y-52828819D02*
X188286998Y-52828819D01*
X181743579Y-52473266D02*
X182505484Y-52473266D01*
X182124531Y-52854219D02*
X182124531Y-52092314D01*
X183505483Y-52854219D02*
X182934055Y-52854219D01*
X183219769Y-52854219D02*
X183219769Y-51854219D01*
X183219769Y-51854219D02*
X183124531Y-51997076D01*
X183124531Y-51997076D02*
X183029293Y-52092314D01*
X183029293Y-52092314D02*
X182934055Y-52139933D01*
X183886436Y-51949457D02*
X183934055Y-51901838D01*
X183934055Y-51901838D02*
X184029293Y-51854219D01*
X184029293Y-51854219D02*
X184267388Y-51854219D01*
X184267388Y-51854219D02*
X184362626Y-51901838D01*
X184362626Y-51901838D02*
X184410245Y-51949457D01*
X184410245Y-51949457D02*
X184457864Y-52044695D01*
X184457864Y-52044695D02*
X184457864Y-52139933D01*
X184457864Y-52139933D02*
X184410245Y-52282790D01*
X184410245Y-52282790D02*
X183838817Y-52854219D01*
X183838817Y-52854219D02*
X184457864Y-52854219D01*
X184743579Y-51854219D02*
X185076912Y-52854219D01*
X185076912Y-52854219D02*
X185410245Y-51854219D01*
X191258819Y-49574220D02*
X190258819Y-49574220D01*
X190258819Y-49574220D02*
X190258819Y-49193268D01*
X190258819Y-49193268D02*
X190306438Y-49098030D01*
X190306438Y-49098030D02*
X190354057Y-49050411D01*
X190354057Y-49050411D02*
X190449295Y-49002792D01*
X190449295Y-49002792D02*
X190592152Y-49002792D01*
X190592152Y-49002792D02*
X190687390Y-49050411D01*
X190687390Y-49050411D02*
X190735009Y-49098030D01*
X190735009Y-49098030D02*
X190782628Y-49193268D01*
X190782628Y-49193268D02*
X190782628Y-49574220D01*
X190258819Y-48669458D02*
X191258819Y-48431363D01*
X191258819Y-48431363D02*
X190544533Y-48240887D01*
X190544533Y-48240887D02*
X191258819Y-48050411D01*
X191258819Y-48050411D02*
X190258819Y-47812316D01*
X191258819Y-46859935D02*
X190782628Y-47193268D01*
X191258819Y-47431363D02*
X190258819Y-47431363D01*
X190258819Y-47431363D02*
X190258819Y-47050411D01*
X190258819Y-47050411D02*
X190306438Y-46955173D01*
X190306438Y-46955173D02*
X190354057Y-46907554D01*
X190354057Y-46907554D02*
X190449295Y-46859935D01*
X190449295Y-46859935D02*
X190592152Y-46859935D01*
X190592152Y-46859935D02*
X190687390Y-46907554D01*
X190687390Y-46907554D02*
X190735009Y-46955173D01*
X190735009Y-46955173D02*
X190782628Y-47050411D01*
X190782628Y-47050411D02*
X190782628Y-47431363D01*
X180590819Y-50933192D02*
X180114628Y-51266525D01*
X180590819Y-51504620D02*
X179590819Y-51504620D01*
X179590819Y-51504620D02*
X179590819Y-51123668D01*
X179590819Y-51123668D02*
X179638438Y-51028430D01*
X179638438Y-51028430D02*
X179686057Y-50980811D01*
X179686057Y-50980811D02*
X179781295Y-50933192D01*
X179781295Y-50933192D02*
X179924152Y-50933192D01*
X179924152Y-50933192D02*
X180019390Y-50980811D01*
X180019390Y-50980811D02*
X180067009Y-51028430D01*
X180067009Y-51028430D02*
X180114628Y-51123668D01*
X180114628Y-51123668D02*
X180114628Y-51504620D01*
X180067009Y-50504620D02*
X180067009Y-50171287D01*
X180590819Y-50028430D02*
X180590819Y-50504620D01*
X180590819Y-50504620D02*
X179590819Y-50504620D01*
X179590819Y-50504620D02*
X179590819Y-50028430D01*
X180495580Y-49028430D02*
X180543200Y-49076049D01*
X180543200Y-49076049D02*
X180590819Y-49218906D01*
X180590819Y-49218906D02*
X180590819Y-49314144D01*
X180590819Y-49314144D02*
X180543200Y-49457001D01*
X180543200Y-49457001D02*
X180447961Y-49552239D01*
X180447961Y-49552239D02*
X180352723Y-49599858D01*
X180352723Y-49599858D02*
X180162247Y-49647477D01*
X180162247Y-49647477D02*
X180019390Y-49647477D01*
X180019390Y-49647477D02*
X179828914Y-49599858D01*
X179828914Y-49599858D02*
X179733676Y-49552239D01*
X179733676Y-49552239D02*
X179638438Y-49457001D01*
X179638438Y-49457001D02*
X179590819Y-49314144D01*
X179590819Y-49314144D02*
X179590819Y-49218906D01*
X179590819Y-49218906D02*
X179638438Y-49076049D01*
X179638438Y-49076049D02*
X179686057Y-49028430D01*
X180495580Y-48599858D02*
X180543200Y-48552239D01*
X180543200Y-48552239D02*
X180590819Y-48599858D01*
X180590819Y-48599858D02*
X180543200Y-48647477D01*
X180543200Y-48647477D02*
X180495580Y-48599858D01*
X180495580Y-48599858D02*
X180590819Y-48599858D01*
X180590819Y-46885573D02*
X180590819Y-47361763D01*
X180590819Y-47361763D02*
X179590819Y-47361763D01*
X180067009Y-46552239D02*
X180067009Y-46218906D01*
X180590819Y-46076049D02*
X180590819Y-46552239D01*
X180590819Y-46552239D02*
X179590819Y-46552239D01*
X179590819Y-46552239D02*
X179590819Y-46076049D01*
X180590819Y-45647477D02*
X179590819Y-45647477D01*
X179590819Y-45647477D02*
X179590819Y-45409382D01*
X179590819Y-45409382D02*
X179638438Y-45266525D01*
X179638438Y-45266525D02*
X179733676Y-45171287D01*
X179733676Y-45171287D02*
X179828914Y-45123668D01*
X179828914Y-45123668D02*
X180019390Y-45076049D01*
X180019390Y-45076049D02*
X180162247Y-45076049D01*
X180162247Y-45076049D02*
X180352723Y-45123668D01*
X180352723Y-45123668D02*
X180447961Y-45171287D01*
X180447961Y-45171287D02*
X180543200Y-45266525D01*
X180543200Y-45266525D02*
X180590819Y-45409382D01*
X180590819Y-45409382D02*
X180590819Y-45647477D01*
X177057207Y-52733580D02*
X177009588Y-52781200D01*
X177009588Y-52781200D02*
X176866731Y-52828819D01*
X176866731Y-52828819D02*
X176771493Y-52828819D01*
X176771493Y-52828819D02*
X176628636Y-52781200D01*
X176628636Y-52781200D02*
X176533398Y-52685961D01*
X176533398Y-52685961D02*
X176485779Y-52590723D01*
X176485779Y-52590723D02*
X176438160Y-52400247D01*
X176438160Y-52400247D02*
X176438160Y-52257390D01*
X176438160Y-52257390D02*
X176485779Y-52066914D01*
X176485779Y-52066914D02*
X176533398Y-51971676D01*
X176533398Y-51971676D02*
X176628636Y-51876438D01*
X176628636Y-51876438D02*
X176771493Y-51828819D01*
X176771493Y-51828819D02*
X176866731Y-51828819D01*
X176866731Y-51828819D02*
X177009588Y-51876438D01*
X177009588Y-51876438D02*
X177057207Y-51924057D01*
X174530104Y-68078332D02*
X174568200Y-68116428D01*
X174568200Y-68116428D02*
X174606295Y-68230713D01*
X174606295Y-68230713D02*
X174606295Y-68306904D01*
X174606295Y-68306904D02*
X174568200Y-68421190D01*
X174568200Y-68421190D02*
X174492009Y-68497380D01*
X174492009Y-68497380D02*
X174415819Y-68535475D01*
X174415819Y-68535475D02*
X174263438Y-68573571D01*
X174263438Y-68573571D02*
X174149152Y-68573571D01*
X174149152Y-68573571D02*
X173996771Y-68535475D01*
X173996771Y-68535475D02*
X173920580Y-68497380D01*
X173920580Y-68497380D02*
X173844390Y-68421190D01*
X173844390Y-68421190D02*
X173806295Y-68306904D01*
X173806295Y-68306904D02*
X173806295Y-68230713D01*
X173806295Y-68230713D02*
X173844390Y-68116428D01*
X173844390Y-68116428D02*
X173882485Y-68078332D01*
X173806295Y-67392618D02*
X173806295Y-67544999D01*
X173806295Y-67544999D02*
X173844390Y-67621190D01*
X173844390Y-67621190D02*
X173882485Y-67659285D01*
X173882485Y-67659285D02*
X173996771Y-67735475D01*
X173996771Y-67735475D02*
X174149152Y-67773571D01*
X174149152Y-67773571D02*
X174453914Y-67773571D01*
X174453914Y-67773571D02*
X174530104Y-67735475D01*
X174530104Y-67735475D02*
X174568200Y-67697380D01*
X174568200Y-67697380D02*
X174606295Y-67621190D01*
X174606295Y-67621190D02*
X174606295Y-67468809D01*
X174606295Y-67468809D02*
X174568200Y-67392618D01*
X174568200Y-67392618D02*
X174530104Y-67354523D01*
X174530104Y-67354523D02*
X174453914Y-67316428D01*
X174453914Y-67316428D02*
X174263438Y-67316428D01*
X174263438Y-67316428D02*
X174187247Y-67354523D01*
X174187247Y-67354523D02*
X174149152Y-67392618D01*
X174149152Y-67392618D02*
X174111057Y-67468809D01*
X174111057Y-67468809D02*
X174111057Y-67621190D01*
X174111057Y-67621190D02*
X174149152Y-67697380D01*
X174149152Y-67697380D02*
X174187247Y-67735475D01*
X174187247Y-67735475D02*
X174263438Y-67773571D01*
X139010104Y-57410332D02*
X139048200Y-57448428D01*
X139048200Y-57448428D02*
X139086295Y-57562713D01*
X139086295Y-57562713D02*
X139086295Y-57638904D01*
X139086295Y-57638904D02*
X139048200Y-57753190D01*
X139048200Y-57753190D02*
X138972009Y-57829380D01*
X138972009Y-57829380D02*
X138895819Y-57867475D01*
X138895819Y-57867475D02*
X138743438Y-57905571D01*
X138743438Y-57905571D02*
X138629152Y-57905571D01*
X138629152Y-57905571D02*
X138476771Y-57867475D01*
X138476771Y-57867475D02*
X138400580Y-57829380D01*
X138400580Y-57829380D02*
X138324390Y-57753190D01*
X138324390Y-57753190D02*
X138286295Y-57638904D01*
X138286295Y-57638904D02*
X138286295Y-57562713D01*
X138286295Y-57562713D02*
X138324390Y-57448428D01*
X138324390Y-57448428D02*
X138362485Y-57410332D01*
X138629152Y-56953190D02*
X138591057Y-57029380D01*
X138591057Y-57029380D02*
X138552961Y-57067475D01*
X138552961Y-57067475D02*
X138476771Y-57105571D01*
X138476771Y-57105571D02*
X138438676Y-57105571D01*
X138438676Y-57105571D02*
X138362485Y-57067475D01*
X138362485Y-57067475D02*
X138324390Y-57029380D01*
X138324390Y-57029380D02*
X138286295Y-56953190D01*
X138286295Y-56953190D02*
X138286295Y-56800809D01*
X138286295Y-56800809D02*
X138324390Y-56724618D01*
X138324390Y-56724618D02*
X138362485Y-56686523D01*
X138362485Y-56686523D02*
X138438676Y-56648428D01*
X138438676Y-56648428D02*
X138476771Y-56648428D01*
X138476771Y-56648428D02*
X138552961Y-56686523D01*
X138552961Y-56686523D02*
X138591057Y-56724618D01*
X138591057Y-56724618D02*
X138629152Y-56800809D01*
X138629152Y-56800809D02*
X138629152Y-56953190D01*
X138629152Y-56953190D02*
X138667247Y-57029380D01*
X138667247Y-57029380D02*
X138705342Y-57067475D01*
X138705342Y-57067475D02*
X138781533Y-57105571D01*
X138781533Y-57105571D02*
X138933914Y-57105571D01*
X138933914Y-57105571D02*
X139010104Y-57067475D01*
X139010104Y-57067475D02*
X139048200Y-57029380D01*
X139048200Y-57029380D02*
X139086295Y-56953190D01*
X139086295Y-56953190D02*
X139086295Y-56800809D01*
X139086295Y-56800809D02*
X139048200Y-56724618D01*
X139048200Y-56724618D02*
X139010104Y-56686523D01*
X139010104Y-56686523D02*
X138933914Y-56648428D01*
X138933914Y-56648428D02*
X138781533Y-56648428D01*
X138781533Y-56648428D02*
X138705342Y-56686523D01*
X138705342Y-56686523D02*
X138667247Y-56724618D01*
X138667247Y-56724618D02*
X138629152Y-56800809D01*
X187445667Y-69236304D02*
X187407571Y-69274400D01*
X187407571Y-69274400D02*
X187293286Y-69312495D01*
X187293286Y-69312495D02*
X187217095Y-69312495D01*
X187217095Y-69312495D02*
X187102809Y-69274400D01*
X187102809Y-69274400D02*
X187026619Y-69198209D01*
X187026619Y-69198209D02*
X186988524Y-69122019D01*
X186988524Y-69122019D02*
X186950428Y-68969638D01*
X186950428Y-68969638D02*
X186950428Y-68855352D01*
X186950428Y-68855352D02*
X186988524Y-68702971D01*
X186988524Y-68702971D02*
X187026619Y-68626780D01*
X187026619Y-68626780D02*
X187102809Y-68550590D01*
X187102809Y-68550590D02*
X187217095Y-68512495D01*
X187217095Y-68512495D02*
X187293286Y-68512495D01*
X187293286Y-68512495D02*
X187407571Y-68550590D01*
X187407571Y-68550590D02*
X187445667Y-68588685D01*
X188207571Y-69312495D02*
X187750428Y-69312495D01*
X187979000Y-69312495D02*
X187979000Y-68512495D01*
X187979000Y-68512495D02*
X187902809Y-68626780D01*
X187902809Y-68626780D02*
X187826619Y-68702971D01*
X187826619Y-68702971D02*
X187750428Y-68741066D01*
X212966295Y-72618523D02*
X213613914Y-72618523D01*
X213613914Y-72618523D02*
X213690104Y-72580428D01*
X213690104Y-72580428D02*
X213728200Y-72542333D01*
X213728200Y-72542333D02*
X213766295Y-72466142D01*
X213766295Y-72466142D02*
X213766295Y-72313761D01*
X213766295Y-72313761D02*
X213728200Y-72237571D01*
X213728200Y-72237571D02*
X213690104Y-72199476D01*
X213690104Y-72199476D02*
X213613914Y-72161380D01*
X213613914Y-72161380D02*
X212966295Y-72161380D01*
X213042485Y-71818524D02*
X213004390Y-71780428D01*
X213004390Y-71780428D02*
X212966295Y-71704238D01*
X212966295Y-71704238D02*
X212966295Y-71513762D01*
X212966295Y-71513762D02*
X213004390Y-71437571D01*
X213004390Y-71437571D02*
X213042485Y-71399476D01*
X213042485Y-71399476D02*
X213118676Y-71361381D01*
X213118676Y-71361381D02*
X213194866Y-71361381D01*
X213194866Y-71361381D02*
X213309152Y-71399476D01*
X213309152Y-71399476D02*
X213766295Y-71856619D01*
X213766295Y-71856619D02*
X213766295Y-71361381D01*
X185641333Y-43764295D02*
X185641333Y-44335723D01*
X185641333Y-44335723D02*
X185603238Y-44450009D01*
X185603238Y-44450009D02*
X185527047Y-44526200D01*
X185527047Y-44526200D02*
X185412762Y-44564295D01*
X185412762Y-44564295D02*
X185336571Y-44564295D01*
X186365143Y-44030961D02*
X186365143Y-44564295D01*
X186174667Y-43726200D02*
X185984190Y-44297628D01*
X185984190Y-44297628D02*
X186479429Y-44297628D01*
X163366524Y-78055295D02*
X163366524Y-77255295D01*
X163823667Y-78055295D02*
X163480809Y-77598152D01*
X163823667Y-77255295D02*
X163366524Y-77712438D01*
X164090333Y-77255295D02*
X164585571Y-77255295D01*
X164585571Y-77255295D02*
X164318905Y-77560057D01*
X164318905Y-77560057D02*
X164433190Y-77560057D01*
X164433190Y-77560057D02*
X164509381Y-77598152D01*
X164509381Y-77598152D02*
X164547476Y-77636247D01*
X164547476Y-77636247D02*
X164585571Y-77712438D01*
X164585571Y-77712438D02*
X164585571Y-77902914D01*
X164585571Y-77902914D02*
X164547476Y-77979104D01*
X164547476Y-77979104D02*
X164509381Y-78017200D01*
X164509381Y-78017200D02*
X164433190Y-78055295D01*
X164433190Y-78055295D02*
X164204619Y-78055295D01*
X164204619Y-78055295D02*
X164128428Y-78017200D01*
X164128428Y-78017200D02*
X164090333Y-77979104D01*
X174993333Y-43772695D02*
X174993333Y-44344123D01*
X174993333Y-44344123D02*
X174955238Y-44458409D01*
X174955238Y-44458409D02*
X174879047Y-44534600D01*
X174879047Y-44534600D02*
X174764762Y-44572695D01*
X174764762Y-44572695D02*
X174688571Y-44572695D01*
X175412381Y-44572695D02*
X175564762Y-44572695D01*
X175564762Y-44572695D02*
X175640952Y-44534600D01*
X175640952Y-44534600D02*
X175679048Y-44496504D01*
X175679048Y-44496504D02*
X175755238Y-44382219D01*
X175755238Y-44382219D02*
X175793333Y-44229838D01*
X175793333Y-44229838D02*
X175793333Y-43925076D01*
X175793333Y-43925076D02*
X175755238Y-43848885D01*
X175755238Y-43848885D02*
X175717143Y-43810790D01*
X175717143Y-43810790D02*
X175640952Y-43772695D01*
X175640952Y-43772695D02*
X175488571Y-43772695D01*
X175488571Y-43772695D02*
X175412381Y-43810790D01*
X175412381Y-43810790D02*
X175374286Y-43848885D01*
X175374286Y-43848885D02*
X175336190Y-43925076D01*
X175336190Y-43925076D02*
X175336190Y-44115552D01*
X175336190Y-44115552D02*
X175374286Y-44191742D01*
X175374286Y-44191742D02*
X175412381Y-44229838D01*
X175412381Y-44229838D02*
X175488571Y-44267933D01*
X175488571Y-44267933D02*
X175640952Y-44267933D01*
X175640952Y-44267933D02*
X175717143Y-44229838D01*
X175717143Y-44229838D02*
X175755238Y-44191742D01*
X175755238Y-44191742D02*
X175793333Y-44115552D01*
X148964667Y-53237295D02*
X148698000Y-52856342D01*
X148507524Y-53237295D02*
X148507524Y-52437295D01*
X148507524Y-52437295D02*
X148812286Y-52437295D01*
X148812286Y-52437295D02*
X148888476Y-52475390D01*
X148888476Y-52475390D02*
X148926571Y-52513485D01*
X148926571Y-52513485D02*
X148964667Y-52589676D01*
X148964667Y-52589676D02*
X148964667Y-52703961D01*
X148964667Y-52703961D02*
X148926571Y-52780152D01*
X148926571Y-52780152D02*
X148888476Y-52818247D01*
X148888476Y-52818247D02*
X148812286Y-52856342D01*
X148812286Y-52856342D02*
X148507524Y-52856342D01*
X149269428Y-52513485D02*
X149307524Y-52475390D01*
X149307524Y-52475390D02*
X149383714Y-52437295D01*
X149383714Y-52437295D02*
X149574190Y-52437295D01*
X149574190Y-52437295D02*
X149650381Y-52475390D01*
X149650381Y-52475390D02*
X149688476Y-52513485D01*
X149688476Y-52513485D02*
X149726571Y-52589676D01*
X149726571Y-52589676D02*
X149726571Y-52665866D01*
X149726571Y-52665866D02*
X149688476Y-52780152D01*
X149688476Y-52780152D02*
X149231333Y-53237295D01*
X149231333Y-53237295D02*
X149726571Y-53237295D01*
X153384324Y-78055295D02*
X153384324Y-77255295D01*
X153841467Y-78055295D02*
X153498609Y-77598152D01*
X153841467Y-77255295D02*
X153384324Y-77712438D01*
X154527181Y-77521961D02*
X154527181Y-78055295D01*
X154336705Y-77217200D02*
X154146228Y-77788628D01*
X154146228Y-77788628D02*
X154641467Y-77788628D01*
X184690104Y-54717932D02*
X184728200Y-54756028D01*
X184728200Y-54756028D02*
X184766295Y-54870313D01*
X184766295Y-54870313D02*
X184766295Y-54946504D01*
X184766295Y-54946504D02*
X184728200Y-55060790D01*
X184728200Y-55060790D02*
X184652009Y-55136980D01*
X184652009Y-55136980D02*
X184575819Y-55175075D01*
X184575819Y-55175075D02*
X184423438Y-55213171D01*
X184423438Y-55213171D02*
X184309152Y-55213171D01*
X184309152Y-55213171D02*
X184156771Y-55175075D01*
X184156771Y-55175075D02*
X184080580Y-55136980D01*
X184080580Y-55136980D02*
X184004390Y-55060790D01*
X184004390Y-55060790D02*
X183966295Y-54946504D01*
X183966295Y-54946504D02*
X183966295Y-54870313D01*
X183966295Y-54870313D02*
X184004390Y-54756028D01*
X184004390Y-54756028D02*
X184042485Y-54717932D01*
X183966295Y-54451266D02*
X183966295Y-53917932D01*
X183966295Y-53917932D02*
X184766295Y-54260790D01*
X154756295Y-66014523D02*
X155403914Y-66014523D01*
X155403914Y-66014523D02*
X155480104Y-65976428D01*
X155480104Y-65976428D02*
X155518200Y-65938333D01*
X155518200Y-65938333D02*
X155556295Y-65862142D01*
X155556295Y-65862142D02*
X155556295Y-65709761D01*
X155556295Y-65709761D02*
X155518200Y-65633571D01*
X155518200Y-65633571D02*
X155480104Y-65595476D01*
X155480104Y-65595476D02*
X155403914Y-65557380D01*
X155403914Y-65557380D02*
X154756295Y-65557380D01*
X155022961Y-64833571D02*
X155556295Y-64833571D01*
X154718200Y-65024047D02*
X155289628Y-65214524D01*
X155289628Y-65214524D02*
X155289628Y-64719285D01*
X133572324Y-78055295D02*
X133572324Y-77255295D01*
X134029467Y-78055295D02*
X133686609Y-77598152D01*
X134029467Y-77255295D02*
X133572324Y-77712438D01*
X134715181Y-77255295D02*
X134562800Y-77255295D01*
X134562800Y-77255295D02*
X134486609Y-77293390D01*
X134486609Y-77293390D02*
X134448514Y-77331485D01*
X134448514Y-77331485D02*
X134372324Y-77445771D01*
X134372324Y-77445771D02*
X134334228Y-77598152D01*
X134334228Y-77598152D02*
X134334228Y-77902914D01*
X134334228Y-77902914D02*
X134372324Y-77979104D01*
X134372324Y-77979104D02*
X134410419Y-78017200D01*
X134410419Y-78017200D02*
X134486609Y-78055295D01*
X134486609Y-78055295D02*
X134638990Y-78055295D01*
X134638990Y-78055295D02*
X134715181Y-78017200D01*
X134715181Y-78017200D02*
X134753276Y-77979104D01*
X134753276Y-77979104D02*
X134791371Y-77902914D01*
X134791371Y-77902914D02*
X134791371Y-77712438D01*
X134791371Y-77712438D02*
X134753276Y-77636247D01*
X134753276Y-77636247D02*
X134715181Y-77598152D01*
X134715181Y-77598152D02*
X134638990Y-77560057D01*
X134638990Y-77560057D02*
X134486609Y-77560057D01*
X134486609Y-77560057D02*
X134410419Y-77598152D01*
X134410419Y-77598152D02*
X134372324Y-77636247D01*
X134372324Y-77636247D02*
X134334228Y-77712438D01*
X130803667Y-70263104D02*
X130765571Y-70301200D01*
X130765571Y-70301200D02*
X130651286Y-70339295D01*
X130651286Y-70339295D02*
X130575095Y-70339295D01*
X130575095Y-70339295D02*
X130460809Y-70301200D01*
X130460809Y-70301200D02*
X130384619Y-70225009D01*
X130384619Y-70225009D02*
X130346524Y-70148819D01*
X130346524Y-70148819D02*
X130308428Y-69996438D01*
X130308428Y-69996438D02*
X130308428Y-69882152D01*
X130308428Y-69882152D02*
X130346524Y-69729771D01*
X130346524Y-69729771D02*
X130384619Y-69653580D01*
X130384619Y-69653580D02*
X130460809Y-69577390D01*
X130460809Y-69577390D02*
X130575095Y-69539295D01*
X130575095Y-69539295D02*
X130651286Y-69539295D01*
X130651286Y-69539295D02*
X130765571Y-69577390D01*
X130765571Y-69577390D02*
X130803667Y-69615485D01*
X131489381Y-69805961D02*
X131489381Y-70339295D01*
X131298905Y-69501200D02*
X131108428Y-70072628D01*
X131108428Y-70072628D02*
X131603667Y-70072628D01*
X193160667Y-61195295D02*
X192894000Y-60814342D01*
X192703524Y-61195295D02*
X192703524Y-60395295D01*
X192703524Y-60395295D02*
X193008286Y-60395295D01*
X193008286Y-60395295D02*
X193084476Y-60433390D01*
X193084476Y-60433390D02*
X193122571Y-60471485D01*
X193122571Y-60471485D02*
X193160667Y-60547676D01*
X193160667Y-60547676D02*
X193160667Y-60661961D01*
X193160667Y-60661961D02*
X193122571Y-60738152D01*
X193122571Y-60738152D02*
X193084476Y-60776247D01*
X193084476Y-60776247D02*
X193008286Y-60814342D01*
X193008286Y-60814342D02*
X192703524Y-60814342D01*
X193884476Y-60395295D02*
X193503524Y-60395295D01*
X193503524Y-60395295D02*
X193465428Y-60776247D01*
X193465428Y-60776247D02*
X193503524Y-60738152D01*
X193503524Y-60738152D02*
X193579714Y-60700057D01*
X193579714Y-60700057D02*
X193770190Y-60700057D01*
X193770190Y-60700057D02*
X193846381Y-60738152D01*
X193846381Y-60738152D02*
X193884476Y-60776247D01*
X193884476Y-60776247D02*
X193922571Y-60852438D01*
X193922571Y-60852438D02*
X193922571Y-61042914D01*
X193922571Y-61042914D02*
X193884476Y-61119104D01*
X193884476Y-61119104D02*
X193846381Y-61157200D01*
X193846381Y-61157200D02*
X193770190Y-61195295D01*
X193770190Y-61195295D02*
X193579714Y-61195295D01*
X193579714Y-61195295D02*
X193503524Y-61157200D01*
X193503524Y-61157200D02*
X193465428Y-61119104D01*
X143478324Y-78055295D02*
X143478324Y-77255295D01*
X143935467Y-78055295D02*
X143592609Y-77598152D01*
X143935467Y-77255295D02*
X143478324Y-77712438D01*
X144659276Y-77255295D02*
X144278324Y-77255295D01*
X144278324Y-77255295D02*
X144240228Y-77636247D01*
X144240228Y-77636247D02*
X144278324Y-77598152D01*
X144278324Y-77598152D02*
X144354514Y-77560057D01*
X144354514Y-77560057D02*
X144544990Y-77560057D01*
X144544990Y-77560057D02*
X144621181Y-77598152D01*
X144621181Y-77598152D02*
X144659276Y-77636247D01*
X144659276Y-77636247D02*
X144697371Y-77712438D01*
X144697371Y-77712438D02*
X144697371Y-77902914D01*
X144697371Y-77902914D02*
X144659276Y-77979104D01*
X144659276Y-77979104D02*
X144621181Y-78017200D01*
X144621181Y-78017200D02*
X144544990Y-78055295D01*
X144544990Y-78055295D02*
X144354514Y-78055295D01*
X144354514Y-78055295D02*
X144278324Y-78017200D01*
X144278324Y-78017200D02*
X144240228Y-77979104D01*
X207105324Y-78055295D02*
X207105324Y-77255295D01*
X207562467Y-78055295D02*
X207219609Y-77598152D01*
X207562467Y-77255295D02*
X207105324Y-77712438D01*
X208324371Y-78055295D02*
X207867228Y-78055295D01*
X208095800Y-78055295D02*
X208095800Y-77255295D01*
X208095800Y-77255295D02*
X208019609Y-77369580D01*
X208019609Y-77369580D02*
X207943419Y-77445771D01*
X207943419Y-77445771D02*
X207867228Y-77483866D01*
X192005295Y-51314332D02*
X191624342Y-51580999D01*
X192005295Y-51771475D02*
X191205295Y-51771475D01*
X191205295Y-51771475D02*
X191205295Y-51466713D01*
X191205295Y-51466713D02*
X191243390Y-51390523D01*
X191243390Y-51390523D02*
X191281485Y-51352428D01*
X191281485Y-51352428D02*
X191357676Y-51314332D01*
X191357676Y-51314332D02*
X191471961Y-51314332D01*
X191471961Y-51314332D02*
X191548152Y-51352428D01*
X191548152Y-51352428D02*
X191586247Y-51390523D01*
X191586247Y-51390523D02*
X191624342Y-51466713D01*
X191624342Y-51466713D02*
X191624342Y-51771475D01*
X192005295Y-50552428D02*
X192005295Y-51009571D01*
X192005295Y-50780999D02*
X191205295Y-50780999D01*
X191205295Y-50780999D02*
X191319580Y-50857190D01*
X191319580Y-50857190D02*
X191395771Y-50933380D01*
X191395771Y-50933380D02*
X191433866Y-51009571D01*
X203905295Y-50779523D02*
X204552914Y-50779523D01*
X204552914Y-50779523D02*
X204629104Y-50741428D01*
X204629104Y-50741428D02*
X204667200Y-50703333D01*
X204667200Y-50703333D02*
X204705295Y-50627142D01*
X204705295Y-50627142D02*
X204705295Y-50474761D01*
X204705295Y-50474761D02*
X204667200Y-50398571D01*
X204667200Y-50398571D02*
X204629104Y-50360476D01*
X204629104Y-50360476D02*
X204552914Y-50322380D01*
X204552914Y-50322380D02*
X203905295Y-50322380D01*
X204705295Y-49522381D02*
X204705295Y-49979524D01*
X204705295Y-49750952D02*
X203905295Y-49750952D01*
X203905295Y-49750952D02*
X204019580Y-49827143D01*
X204019580Y-49827143D02*
X204095771Y-49903333D01*
X204095771Y-49903333D02*
X204133866Y-49979524D01*
X161150295Y-72618523D02*
X161797914Y-72618523D01*
X161797914Y-72618523D02*
X161874104Y-72580428D01*
X161874104Y-72580428D02*
X161912200Y-72542333D01*
X161912200Y-72542333D02*
X161950295Y-72466142D01*
X161950295Y-72466142D02*
X161950295Y-72313761D01*
X161950295Y-72313761D02*
X161912200Y-72237571D01*
X161912200Y-72237571D02*
X161874104Y-72199476D01*
X161874104Y-72199476D02*
X161797914Y-72161380D01*
X161797914Y-72161380D02*
X161150295Y-72161380D01*
X161150295Y-71856619D02*
X161150295Y-71361381D01*
X161150295Y-71361381D02*
X161455057Y-71628047D01*
X161455057Y-71628047D02*
X161455057Y-71513762D01*
X161455057Y-71513762D02*
X161493152Y-71437571D01*
X161493152Y-71437571D02*
X161531247Y-71399476D01*
X161531247Y-71399476D02*
X161607438Y-71361381D01*
X161607438Y-71361381D02*
X161797914Y-71361381D01*
X161797914Y-71361381D02*
X161874104Y-71399476D01*
X161874104Y-71399476D02*
X161912200Y-71437571D01*
X161912200Y-71437571D02*
X161950295Y-71513762D01*
X161950295Y-71513762D02*
X161950295Y-71742333D01*
X161950295Y-71742333D02*
X161912200Y-71818524D01*
X161912200Y-71818524D02*
X161874104Y-71856619D01*
X198291524Y-64751295D02*
X198291524Y-63951295D01*
X198291524Y-63951295D02*
X198482000Y-63951295D01*
X198482000Y-63951295D02*
X198596286Y-63989390D01*
X198596286Y-63989390D02*
X198672476Y-64065580D01*
X198672476Y-64065580D02*
X198710571Y-64141771D01*
X198710571Y-64141771D02*
X198748667Y-64294152D01*
X198748667Y-64294152D02*
X198748667Y-64408438D01*
X198748667Y-64408438D02*
X198710571Y-64560819D01*
X198710571Y-64560819D02*
X198672476Y-64637009D01*
X198672476Y-64637009D02*
X198596286Y-64713200D01*
X198596286Y-64713200D02*
X198482000Y-64751295D01*
X198482000Y-64751295D02*
X198291524Y-64751295D01*
X199510571Y-64751295D02*
X199053428Y-64751295D01*
X199282000Y-64751295D02*
X199282000Y-63951295D01*
X199282000Y-63951295D02*
X199205809Y-64065580D01*
X199205809Y-64065580D02*
X199129619Y-64141771D01*
X199129619Y-64141771D02*
X199053428Y-64179866D01*
X154488704Y-58407333D02*
X153917276Y-58407333D01*
X153917276Y-58407333D02*
X153802990Y-58369238D01*
X153802990Y-58369238D02*
X153726800Y-58293047D01*
X153726800Y-58293047D02*
X153688704Y-58178762D01*
X153688704Y-58178762D02*
X153688704Y-58102571D01*
X154488704Y-58712095D02*
X154488704Y-59207333D01*
X154488704Y-59207333D02*
X154183942Y-58940667D01*
X154183942Y-58940667D02*
X154183942Y-59054952D01*
X154183942Y-59054952D02*
X154145847Y-59131143D01*
X154145847Y-59131143D02*
X154107752Y-59169238D01*
X154107752Y-59169238D02*
X154031561Y-59207333D01*
X154031561Y-59207333D02*
X153841085Y-59207333D01*
X153841085Y-59207333D02*
X153764895Y-59169238D01*
X153764895Y-59169238D02*
X153726800Y-59131143D01*
X153726800Y-59131143D02*
X153688704Y-59054952D01*
X153688704Y-59054952D02*
X153688704Y-58826381D01*
X153688704Y-58826381D02*
X153726800Y-58750190D01*
X153726800Y-58750190D02*
X153764895Y-58712095D01*
X135502667Y-69247104D02*
X135464571Y-69285200D01*
X135464571Y-69285200D02*
X135350286Y-69323295D01*
X135350286Y-69323295D02*
X135274095Y-69323295D01*
X135274095Y-69323295D02*
X135159809Y-69285200D01*
X135159809Y-69285200D02*
X135083619Y-69209009D01*
X135083619Y-69209009D02*
X135045524Y-69132819D01*
X135045524Y-69132819D02*
X135007428Y-68980438D01*
X135007428Y-68980438D02*
X135007428Y-68866152D01*
X135007428Y-68866152D02*
X135045524Y-68713771D01*
X135045524Y-68713771D02*
X135083619Y-68637580D01*
X135083619Y-68637580D02*
X135159809Y-68561390D01*
X135159809Y-68561390D02*
X135274095Y-68523295D01*
X135274095Y-68523295D02*
X135350286Y-68523295D01*
X135350286Y-68523295D02*
X135464571Y-68561390D01*
X135464571Y-68561390D02*
X135502667Y-68599485D01*
X135807428Y-68599485D02*
X135845524Y-68561390D01*
X135845524Y-68561390D02*
X135921714Y-68523295D01*
X135921714Y-68523295D02*
X136112190Y-68523295D01*
X136112190Y-68523295D02*
X136188381Y-68561390D01*
X136188381Y-68561390D02*
X136226476Y-68599485D01*
X136226476Y-68599485D02*
X136264571Y-68675676D01*
X136264571Y-68675676D02*
X136264571Y-68751866D01*
X136264571Y-68751866D02*
X136226476Y-68866152D01*
X136226476Y-68866152D02*
X135769333Y-69323295D01*
X135769333Y-69323295D02*
X136264571Y-69323295D01*
X207402976Y-53124295D02*
X207402976Y-53771914D01*
X207402976Y-53771914D02*
X207441071Y-53848104D01*
X207441071Y-53848104D02*
X207479166Y-53886200D01*
X207479166Y-53886200D02*
X207555357Y-53924295D01*
X207555357Y-53924295D02*
X207707738Y-53924295D01*
X207707738Y-53924295D02*
X207783928Y-53886200D01*
X207783928Y-53886200D02*
X207822023Y-53848104D01*
X207822023Y-53848104D02*
X207860119Y-53771914D01*
X207860119Y-53771914D02*
X207860119Y-53124295D01*
X208622023Y-53124295D02*
X208241071Y-53124295D01*
X208241071Y-53124295D02*
X208202975Y-53505247D01*
X208202975Y-53505247D02*
X208241071Y-53467152D01*
X208241071Y-53467152D02*
X208317261Y-53429057D01*
X208317261Y-53429057D02*
X208507737Y-53429057D01*
X208507737Y-53429057D02*
X208583928Y-53467152D01*
X208583928Y-53467152D02*
X208622023Y-53505247D01*
X208622023Y-53505247D02*
X208660118Y-53581438D01*
X208660118Y-53581438D02*
X208660118Y-53771914D01*
X208660118Y-53771914D02*
X208622023Y-53848104D01*
X208622023Y-53848104D02*
X208583928Y-53886200D01*
X208583928Y-53886200D02*
X208507737Y-53924295D01*
X208507737Y-53924295D02*
X208317261Y-53924295D01*
X208317261Y-53924295D02*
X208241071Y-53886200D01*
X208241071Y-53886200D02*
X208202975Y-53848104D01*
X168561104Y-53981332D02*
X168599200Y-54019428D01*
X168599200Y-54019428D02*
X168637295Y-54133713D01*
X168637295Y-54133713D02*
X168637295Y-54209904D01*
X168637295Y-54209904D02*
X168599200Y-54324190D01*
X168599200Y-54324190D02*
X168523009Y-54400380D01*
X168523009Y-54400380D02*
X168446819Y-54438475D01*
X168446819Y-54438475D02*
X168294438Y-54476571D01*
X168294438Y-54476571D02*
X168180152Y-54476571D01*
X168180152Y-54476571D02*
X168027771Y-54438475D01*
X168027771Y-54438475D02*
X167951580Y-54400380D01*
X167951580Y-54400380D02*
X167875390Y-54324190D01*
X167875390Y-54324190D02*
X167837295Y-54209904D01*
X167837295Y-54209904D02*
X167837295Y-54133713D01*
X167837295Y-54133713D02*
X167875390Y-54019428D01*
X167875390Y-54019428D02*
X167913485Y-53981332D01*
X167837295Y-53257523D02*
X167837295Y-53638475D01*
X167837295Y-53638475D02*
X168218247Y-53676571D01*
X168218247Y-53676571D02*
X168180152Y-53638475D01*
X168180152Y-53638475D02*
X168142057Y-53562285D01*
X168142057Y-53562285D02*
X168142057Y-53371809D01*
X168142057Y-53371809D02*
X168180152Y-53295618D01*
X168180152Y-53295618D02*
X168218247Y-53257523D01*
X168218247Y-53257523D02*
X168294438Y-53219428D01*
X168294438Y-53219428D02*
X168484914Y-53219428D01*
X168484914Y-53219428D02*
X168561104Y-53257523D01*
X168561104Y-53257523D02*
X168599200Y-53295618D01*
X168599200Y-53295618D02*
X168637295Y-53371809D01*
X168637295Y-53371809D02*
X168637295Y-53562285D01*
X168637295Y-53562285D02*
X168599200Y-53638475D01*
X168599200Y-53638475D02*
X168561104Y-53676571D01*
X182873667Y-70009104D02*
X182835571Y-70047200D01*
X182835571Y-70047200D02*
X182721286Y-70085295D01*
X182721286Y-70085295D02*
X182645095Y-70085295D01*
X182645095Y-70085295D02*
X182530809Y-70047200D01*
X182530809Y-70047200D02*
X182454619Y-69971009D01*
X182454619Y-69971009D02*
X182416524Y-69894819D01*
X182416524Y-69894819D02*
X182378428Y-69742438D01*
X182378428Y-69742438D02*
X182378428Y-69628152D01*
X182378428Y-69628152D02*
X182416524Y-69475771D01*
X182416524Y-69475771D02*
X182454619Y-69399580D01*
X182454619Y-69399580D02*
X182530809Y-69323390D01*
X182530809Y-69323390D02*
X182645095Y-69285295D01*
X182645095Y-69285295D02*
X182721286Y-69285295D01*
X182721286Y-69285295D02*
X182835571Y-69323390D01*
X182835571Y-69323390D02*
X182873667Y-69361485D01*
X183140333Y-69285295D02*
X183635571Y-69285295D01*
X183635571Y-69285295D02*
X183368905Y-69590057D01*
X183368905Y-69590057D02*
X183483190Y-69590057D01*
X183483190Y-69590057D02*
X183559381Y-69628152D01*
X183559381Y-69628152D02*
X183597476Y-69666247D01*
X183597476Y-69666247D02*
X183635571Y-69742438D01*
X183635571Y-69742438D02*
X183635571Y-69932914D01*
X183635571Y-69932914D02*
X183597476Y-70009104D01*
X183597476Y-70009104D02*
X183559381Y-70047200D01*
X183559381Y-70047200D02*
X183483190Y-70085295D01*
X183483190Y-70085295D02*
X183254619Y-70085295D01*
X183254619Y-70085295D02*
X183178428Y-70047200D01*
X183178428Y-70047200D02*
X183140333Y-70009104D01*
X197199324Y-78055295D02*
X197199324Y-77255295D01*
X197656467Y-78055295D02*
X197313609Y-77598152D01*
X197656467Y-77255295D02*
X197199324Y-77712438D01*
X197961228Y-77331485D02*
X197999324Y-77293390D01*
X197999324Y-77293390D02*
X198075514Y-77255295D01*
X198075514Y-77255295D02*
X198265990Y-77255295D01*
X198265990Y-77255295D02*
X198342181Y-77293390D01*
X198342181Y-77293390D02*
X198380276Y-77331485D01*
X198380276Y-77331485D02*
X198418371Y-77407676D01*
X198418371Y-77407676D02*
X198418371Y-77483866D01*
X198418371Y-77483866D02*
X198380276Y-77598152D01*
X198380276Y-77598152D02*
X197923133Y-78055295D01*
X197923133Y-78055295D02*
X198418371Y-78055295D01*
D11*
X167306000Y-66575000D02*
X167306000Y-66912000D01*
X167306000Y-66575000D02*
X172546000Y-66575000D01*
X167306000Y-68978000D02*
X167306000Y-69315000D01*
X167306000Y-69315000D02*
X172546000Y-69315000D01*
X172546000Y-66575000D02*
X172546000Y-66912000D01*
X172546000Y-68978000D02*
X172546000Y-69315000D01*
X139854000Y-54657000D02*
X140191000Y-54657000D01*
X139854000Y-59897000D02*
X139854000Y-54657000D01*
X139854000Y-59897000D02*
X140191000Y-59897000D01*
X142257000Y-54657000D02*
X142594000Y-54657000D01*
X142257000Y-59897000D02*
X142594000Y-59897000D01*
X142594000Y-59897000D02*
X142594000Y-54657000D01*
X186209000Y-70521200D02*
X186546000Y-70521200D01*
X186209000Y-75761200D02*
X186209000Y-70521200D01*
X186209000Y-75761200D02*
X186546000Y-75761200D01*
X188612000Y-70521200D02*
X188949000Y-70521200D01*
X188612000Y-75761200D02*
X188949000Y-75761200D01*
X188949000Y-75761200D02*
X188949000Y-70521200D01*
X189424000Y-69359000D02*
X189424000Y-74659000D01*
X189424000Y-74659000D02*
X212404000Y-74659000D01*
X212404000Y-69359000D02*
X189424000Y-69359000D01*
X212404000Y-71009000D02*
X212404000Y-69359000D01*
X212404000Y-74659000D02*
X212404000Y-73009000D01*
X212404000Y-73009000D02*
G75*
G02*
X212404000Y-71009000I0J1000000D01*
G01*
X181808000Y-45002000D02*
X181808000Y-46252000D01*
X182098000Y-45292000D02*
X182098000Y-51262000D01*
X182098000Y-51262000D02*
X189718000Y-51262000D01*
X182108000Y-45302000D02*
X182108000Y-46052000D01*
X182108000Y-46052000D02*
X183908000Y-46052000D01*
X182108000Y-47552000D02*
X182858000Y-47552000D01*
X182858000Y-47552000D02*
X182858000Y-50502000D01*
X182858000Y-50502000D02*
X185908000Y-50502000D01*
X183058000Y-45002000D02*
X181808000Y-45002000D01*
X183908000Y-45302000D02*
X182108000Y-45302000D01*
X183908000Y-46052000D02*
X183908000Y-45302000D01*
X185408000Y-45302000D02*
X185408000Y-46052000D01*
X185408000Y-46052000D02*
X186408000Y-46052000D01*
X186408000Y-45302000D02*
X185408000Y-45302000D01*
X186408000Y-46052000D02*
X186408000Y-45302000D01*
X187908000Y-45302000D02*
X187908000Y-46052000D01*
X187908000Y-46052000D02*
X189708000Y-46052000D01*
X188958000Y-47552000D02*
X188958000Y-50502000D01*
X188958000Y-50502000D02*
X185908000Y-50502000D01*
X189708000Y-45302000D02*
X187908000Y-45302000D01*
X189708000Y-46052000D02*
X189708000Y-45302000D01*
X189708000Y-47552000D02*
X188958000Y-47552000D01*
X189718000Y-45292000D02*
X182098000Y-45292000D01*
X189718000Y-51262000D02*
X189718000Y-45292000D01*
X160607000Y-80603000D02*
X159607000Y-80593000D01*
X160607000Y-81743000D02*
X160607000Y-80593000D01*
X160607000Y-86893000D02*
X160607000Y-85693000D01*
X160617000Y-84293000D02*
X160607000Y-83093000D01*
X160617000Y-88793000D02*
X160617000Y-88293000D01*
X160657000Y-78603000D02*
X160657000Y-79103000D01*
X160657000Y-78603000D02*
X167317000Y-78593000D01*
X160657000Y-79103000D02*
X159607000Y-79093000D01*
X167307000Y-80593000D02*
X167307000Y-81743000D01*
X167307000Y-83093000D02*
X167317000Y-84293000D01*
X167307000Y-85693000D02*
X167307000Y-86843000D01*
X167317000Y-78593000D02*
X167317000Y-79093000D01*
X167317000Y-88293000D02*
X167317000Y-88793000D01*
X167317000Y-88793000D02*
X160617000Y-88793000D01*
X171160000Y-45010400D02*
X171160000Y-46260400D01*
X171450000Y-45300400D02*
X171450000Y-51270400D01*
X171450000Y-51270400D02*
X179070000Y-51270400D01*
X171460000Y-45310400D02*
X171460000Y-46060400D01*
X171460000Y-46060400D02*
X173260000Y-46060400D01*
X171460000Y-47560400D02*
X172210000Y-47560400D01*
X172210000Y-47560400D02*
X172210000Y-50510400D01*
X172210000Y-50510400D02*
X175260000Y-50510400D01*
X172410000Y-45010400D02*
X171160000Y-45010400D01*
X173260000Y-45310400D02*
X171460000Y-45310400D01*
X173260000Y-46060400D02*
X173260000Y-45310400D01*
X174760000Y-45310400D02*
X174760000Y-46060400D01*
X174760000Y-46060400D02*
X175760000Y-46060400D01*
X175760000Y-45310400D02*
X174760000Y-45310400D01*
X175760000Y-46060400D02*
X175760000Y-45310400D01*
X177260000Y-45310400D02*
X177260000Y-46060400D01*
X177260000Y-46060400D02*
X179060000Y-46060400D01*
X178310000Y-47560400D02*
X178310000Y-50510400D01*
X178310000Y-50510400D02*
X175260000Y-50510400D01*
X179060000Y-45310400D02*
X177260000Y-45310400D01*
X179060000Y-46060400D02*
X179060000Y-45310400D01*
X179060000Y-47560400D02*
X178310000Y-47560400D01*
X179070000Y-45300400D02*
X171450000Y-45300400D01*
X179070000Y-51270400D02*
X179070000Y-45300400D01*
X145058000Y-55245000D02*
X145828000Y-55245000D01*
X153138000Y-55245000D02*
X152368000Y-55245000D01*
X145828000Y-53875000D02*
X152368000Y-53875000D01*
X152368000Y-56615000D01*
X145828000Y-56615000D01*
X145828000Y-53875000D01*
X150624800Y-80603000D02*
X149624800Y-80593000D01*
X150624800Y-81743000D02*
X150624800Y-80593000D01*
X150624800Y-86893000D02*
X150624800Y-85693000D01*
X150634800Y-84293000D02*
X150624800Y-83093000D01*
X150634800Y-88793000D02*
X150634800Y-88293000D01*
X150674800Y-78603000D02*
X150674800Y-79103000D01*
X150674800Y-78603000D02*
X157334800Y-78593000D01*
X150674800Y-79103000D02*
X149624800Y-79093000D01*
X157324800Y-80593000D02*
X157324800Y-81743000D01*
X157324800Y-83093000D02*
X157334800Y-84293000D01*
X157324800Y-85693000D02*
X157324800Y-86843000D01*
X157334800Y-78593000D02*
X157334800Y-79093000D01*
X157334800Y-88293000D02*
X157334800Y-88793000D01*
X157334800Y-88793000D02*
X150634800Y-88793000D01*
X177466000Y-53240000D02*
X177466000Y-53577000D01*
X177466000Y-53240000D02*
X182706000Y-53240000D01*
X177466000Y-55643000D02*
X177466000Y-55980000D01*
X177466000Y-55980000D02*
X182706000Y-55980000D01*
X182706000Y-53240000D02*
X182706000Y-53577000D01*
X182706000Y-55643000D02*
X182706000Y-55980000D01*
X155896000Y-58559000D02*
X155896000Y-60209000D01*
X155896000Y-62209000D02*
X155896000Y-63859000D01*
X155896000Y-63859000D02*
X191576000Y-63859000D01*
X191576000Y-58559000D02*
X155896000Y-58559000D01*
X191576000Y-63859000D02*
X191576000Y-58559000D01*
X155896000Y-60209000D02*
G75*
G02*
X155896000Y-62209000I0J-1000000D01*
G01*
X130812800Y-80603000D02*
X129812800Y-80593000D01*
X130812800Y-81743000D02*
X130812800Y-80593000D01*
X130812800Y-86893000D02*
X130812800Y-85693000D01*
X130822800Y-84293000D02*
X130812800Y-83093000D01*
X130822800Y-88793000D02*
X130822800Y-88293000D01*
X130862800Y-78603000D02*
X130862800Y-79103000D01*
X130862800Y-78603000D02*
X137522800Y-78593000D01*
X130862800Y-79103000D02*
X129812800Y-79093000D01*
X137512800Y-80593000D02*
X137512800Y-81743000D01*
X137512800Y-83093000D02*
X137522800Y-84293000D01*
X137512800Y-85693000D02*
X137512800Y-86843000D01*
X137522800Y-78593000D02*
X137522800Y-79093000D01*
X137522800Y-88293000D02*
X137522800Y-88793000D01*
X137522800Y-88793000D02*
X130822800Y-88793000D01*
X128419112Y-73562000D02*
X128419112Y-72996000D01*
X128459112Y-73796000D02*
X128459112Y-72762000D01*
X128499112Y-73956000D02*
X128499112Y-72602000D01*
X128539112Y-74084000D02*
X128539112Y-72474000D01*
X128579112Y-74193000D02*
X128579112Y-72365000D01*
X128619112Y-74290000D02*
X128619112Y-72268000D01*
X128659112Y-74377000D02*
X128659112Y-72181000D01*
X128699112Y-74456000D02*
X128699112Y-72102000D01*
X128739112Y-72239000D02*
X128739112Y-72028000D01*
X128739112Y-74530000D02*
X128739112Y-74319000D01*
X128779112Y-72239000D02*
X128779112Y-71960000D01*
X128779112Y-74598000D02*
X128779112Y-74319000D01*
X128819112Y-72239000D02*
X128819112Y-71896000D01*
X128819112Y-74662000D02*
X128819112Y-74319000D01*
X128859112Y-72239000D02*
X128859112Y-71836000D01*
X128859112Y-74722000D02*
X128859112Y-74319000D01*
X128899112Y-72239000D02*
X128899112Y-71780000D01*
X128899112Y-74778000D02*
X128899112Y-74319000D01*
X128939112Y-72239000D02*
X128939112Y-71726000D01*
X128939112Y-74832000D02*
X128939112Y-74319000D01*
X128979112Y-72239000D02*
X128979112Y-71675000D01*
X128979112Y-74883000D02*
X128979112Y-74319000D01*
X129019112Y-72239000D02*
X129019112Y-71627000D01*
X129019112Y-74931000D02*
X129019112Y-74319000D01*
X129059112Y-72239000D02*
X129059112Y-71580000D01*
X129059112Y-74978000D02*
X129059112Y-74319000D01*
X129099112Y-72239000D02*
X129099112Y-71536000D01*
X129099112Y-75022000D02*
X129099112Y-74319000D01*
X129139112Y-72239000D02*
X129139112Y-71494000D01*
X129139112Y-75064000D02*
X129139112Y-74319000D01*
X129179112Y-72239000D02*
X129179112Y-71454000D01*
X129179112Y-75104000D02*
X129179112Y-74319000D01*
X129219112Y-72239000D02*
X129219112Y-71415000D01*
X129219112Y-75143000D02*
X129219112Y-74319000D01*
X129259112Y-72239000D02*
X129259112Y-71378000D01*
X129259112Y-75180000D02*
X129259112Y-74319000D01*
X129299112Y-72239000D02*
X129299112Y-71343000D01*
X129299112Y-75215000D02*
X129299112Y-74319000D01*
X129339112Y-72239000D02*
X129339112Y-71309000D01*
X129339112Y-75249000D02*
X129339112Y-74319000D01*
X129379112Y-72239000D02*
X129379112Y-71276000D01*
X129379112Y-75282000D02*
X129379112Y-74319000D01*
X129419112Y-72239000D02*
X129419112Y-71244000D01*
X129419112Y-75314000D02*
X129419112Y-74319000D01*
X129459112Y-72239000D02*
X129459112Y-71214000D01*
X129459112Y-75344000D02*
X129459112Y-74319000D01*
X129499112Y-72239000D02*
X129499112Y-71185000D01*
X129499112Y-75373000D02*
X129499112Y-74319000D01*
X129539112Y-72239000D02*
X129539112Y-71157000D01*
X129539112Y-75401000D02*
X129539112Y-74319000D01*
X129579112Y-72239000D02*
X129579112Y-71130000D01*
X129579112Y-75428000D02*
X129579112Y-74319000D01*
X129619112Y-72239000D02*
X129619112Y-71104000D01*
X129619112Y-75454000D02*
X129619112Y-74319000D01*
X129659112Y-72239000D02*
X129659112Y-71080000D01*
X129659112Y-75478000D02*
X129659112Y-74319000D01*
X129699112Y-72239000D02*
X129699112Y-71056000D01*
X129699112Y-75502000D02*
X129699112Y-74319000D01*
X129739112Y-72239000D02*
X129739112Y-71033000D01*
X129739112Y-75525000D02*
X129739112Y-74319000D01*
X129779112Y-72239000D02*
X129779112Y-71011000D01*
X129779112Y-75547000D02*
X129779112Y-74319000D01*
X129819112Y-72239000D02*
X129819112Y-70990000D01*
X129819112Y-75568000D02*
X129819112Y-74319000D01*
X129859112Y-72239000D02*
X129859112Y-70970000D01*
X129859112Y-75588000D02*
X129859112Y-74319000D01*
X129899112Y-72239000D02*
X129899112Y-70950000D01*
X129899112Y-75608000D02*
X129899112Y-74319000D01*
X129939112Y-72239000D02*
X129939112Y-70932000D01*
X129939112Y-75626000D02*
X129939112Y-74319000D01*
X129979112Y-72239000D02*
X129979112Y-70914000D01*
X129979112Y-75644000D02*
X129979112Y-74319000D01*
X130019112Y-72239000D02*
X130019112Y-70897000D01*
X130019112Y-75661000D02*
X130019112Y-74319000D01*
X130059112Y-72239000D02*
X130059112Y-70881000D01*
X130059112Y-75677000D02*
X130059112Y-74319000D01*
X130099112Y-72239000D02*
X130099112Y-70866000D01*
X130099112Y-75692000D02*
X130099112Y-74319000D01*
X130139112Y-72239000D02*
X130139112Y-70851000D01*
X130139112Y-75707000D02*
X130139112Y-74319000D01*
X130179112Y-72239000D02*
X130179112Y-70837000D01*
X130179112Y-75721000D02*
X130179112Y-74319000D01*
X130219112Y-72239000D02*
X130219112Y-70824000D01*
X130219112Y-75734000D02*
X130219112Y-74319000D01*
X130259112Y-72239000D02*
X130259112Y-70812000D01*
X130259112Y-75746000D02*
X130259112Y-74319000D01*
X130299112Y-72239000D02*
X130299112Y-70800000D01*
X130299112Y-75758000D02*
X130299112Y-74319000D01*
X130339112Y-72239000D02*
X130339112Y-70789000D01*
X130339112Y-75769000D02*
X130339112Y-74319000D01*
X130379112Y-72239000D02*
X130379112Y-70778000D01*
X130379112Y-75780000D02*
X130379112Y-74319000D01*
X130419112Y-72239000D02*
X130419112Y-70769000D01*
X130419112Y-75789000D02*
X130419112Y-74319000D01*
X130459112Y-72239000D02*
X130459112Y-70760000D01*
X130459112Y-75798000D02*
X130459112Y-74319000D01*
X130499112Y-72239000D02*
X130499112Y-70751000D01*
X130499112Y-75807000D02*
X130499112Y-74319000D01*
X130539112Y-72239000D02*
X130539112Y-70743000D01*
X130539112Y-75815000D02*
X130539112Y-74319000D01*
X130579112Y-72239000D02*
X130579112Y-70736000D01*
X130579112Y-75822000D02*
X130579112Y-74319000D01*
X130619112Y-72239000D02*
X130619112Y-70730000D01*
X130619112Y-75828000D02*
X130619112Y-74319000D01*
X130659112Y-72239000D02*
X130659112Y-70724000D01*
X130659112Y-75834000D02*
X130659112Y-74319000D01*
X130699112Y-72239000D02*
X130699112Y-70719000D01*
X130699112Y-75839000D02*
X130699112Y-74319000D01*
X130739112Y-72239000D02*
X130739112Y-70714000D01*
X130739112Y-75844000D02*
X130739112Y-74319000D01*
X130779112Y-72239000D02*
X130779112Y-70710000D01*
X130779112Y-75848000D02*
X130779112Y-74319000D01*
X130819112Y-75851000D02*
X130819112Y-70707000D01*
X130859112Y-75854000D02*
X130859112Y-70704000D01*
X130899112Y-75856000D02*
X130899112Y-70702000D01*
X130939112Y-75858000D02*
X130939112Y-70700000D01*
X130979112Y-75859000D02*
X130979112Y-70699000D01*
X131019112Y-75859000D02*
X131019112Y-70699000D01*
X133573887Y-75004000D02*
X133573887Y-74504000D01*
X133823887Y-74754000D02*
X133323887Y-74754000D01*
X133639112Y-73279000D02*
G75*
G02*
X128399112Y-73279000I-2620000J0D01*
G01*
X128399112Y-73279000D02*
G75*
G02*
X133639112Y-73279000I2620000J0D01*
G01*
X194842000Y-58674000D02*
X195612000Y-58674000D01*
X202922000Y-58674000D02*
X202152000Y-58674000D01*
X202152000Y-60044000D02*
X195612000Y-60044000D01*
X195612000Y-57304000D01*
X202152000Y-57304000D01*
X202152000Y-60044000D01*
X140718800Y-80603000D02*
X139718800Y-80593000D01*
X140718800Y-81743000D02*
X140718800Y-80593000D01*
X140718800Y-86893000D02*
X140718800Y-85693000D01*
X140728800Y-84293000D02*
X140718800Y-83093000D01*
X140728800Y-88793000D02*
X140728800Y-88293000D01*
X140768800Y-78603000D02*
X140768800Y-79103000D01*
X140768800Y-78603000D02*
X147428800Y-78593000D01*
X140768800Y-79103000D02*
X139718800Y-79093000D01*
X147418800Y-80593000D02*
X147418800Y-81743000D01*
X147418800Y-83093000D02*
X147428800Y-84293000D01*
X147418800Y-85693000D02*
X147418800Y-86843000D01*
X147428800Y-78593000D02*
X147428800Y-79093000D01*
X147428800Y-88293000D02*
X147428800Y-88793000D01*
X147428800Y-88793000D02*
X140728800Y-88793000D01*
X204345800Y-80603000D02*
X203345800Y-80593000D01*
X204345800Y-81743000D02*
X204345800Y-80593000D01*
X204345800Y-86893000D02*
X204345800Y-85693000D01*
X204355800Y-84293000D02*
X204345800Y-83093000D01*
X204355800Y-88793000D02*
X204355800Y-88293000D01*
X204395800Y-78603000D02*
X204395800Y-79103000D01*
X204395800Y-78603000D02*
X211055800Y-78593000D01*
X204395800Y-79103000D02*
X203345800Y-79093000D01*
X211045800Y-80593000D02*
X211045800Y-81743000D01*
X211045800Y-83093000D02*
X211055800Y-84293000D01*
X211045800Y-85693000D02*
X211045800Y-86843000D01*
X211055800Y-78593000D02*
X211055800Y-79093000D01*
X211055800Y-88293000D02*
X211055800Y-88793000D01*
X211055800Y-88793000D02*
X204355800Y-88793000D01*
X193802000Y-45744000D02*
X193802000Y-46514000D01*
X193802000Y-53824000D02*
X193802000Y-53054000D01*
X195172000Y-46514000D02*
X192432000Y-46514000D01*
X192432000Y-53054000D01*
X195172000Y-53054000D01*
X195172000Y-46514000D01*
X195774000Y-49420000D02*
X195774000Y-51070000D01*
X195774000Y-53070000D02*
X195774000Y-54720000D01*
X195774000Y-54720000D02*
X203514000Y-54720000D01*
X203514000Y-49420000D02*
X195774000Y-49420000D01*
X203514000Y-54720000D02*
X203514000Y-49420000D01*
X195774000Y-51070000D02*
G75*
G02*
X195774000Y-53070000I0J-1000000D01*
G01*
X137608000Y-69359000D02*
X137608000Y-74659000D01*
X137608000Y-74659000D02*
X160588000Y-74659000D01*
X160588000Y-69359000D02*
X137608000Y-69359000D01*
X160588000Y-71009000D02*
X160588000Y-69359000D01*
X160588000Y-74659000D02*
X160588000Y-73009000D01*
X160588000Y-73009000D02*
G75*
G02*
X160588000Y-71009000I0J1000000D01*
G01*
X196112000Y-62484000D02*
X196762000Y-62484000D01*
X197362000Y-61364000D02*
X197362000Y-63604000D01*
X197482000Y-61364000D02*
X197482000Y-63604000D01*
X197602000Y-61364000D02*
X197602000Y-63604000D01*
X201652000Y-62484000D02*
X201002000Y-62484000D01*
X196762000Y-61364000D02*
X201002000Y-61364000D01*
X201002000Y-63604000D01*
X196762000Y-63604000D01*
X196762000Y-61364000D01*
X145178000Y-58432000D02*
X145178000Y-63732000D01*
X150368000Y-58432000D02*
X145178000Y-58432000D01*
X150368000Y-58432000D02*
X150368000Y-61082000D01*
X150368000Y-61082000D02*
X153018000Y-61082000D01*
X151638000Y-58432000D02*
X153018000Y-58432000D01*
X153018000Y-58432000D02*
X153018000Y-59812000D01*
X153018000Y-61082000D02*
X153018000Y-63732000D01*
X153018000Y-63732000D02*
X145178000Y-63732000D01*
X134266000Y-70521200D02*
X134603000Y-70521200D01*
X134266000Y-75761200D02*
X134266000Y-70521200D01*
X134266000Y-75761200D02*
X134603000Y-75761200D01*
X136669000Y-70521200D02*
X137006000Y-70521200D01*
X136669000Y-75761200D02*
X137006000Y-75761200D01*
X137006000Y-75761200D02*
X137006000Y-70521200D01*
X205512500Y-54302000D02*
X208012500Y-54302000D01*
X205512500Y-56802000D02*
X205512500Y-54302000D01*
X205752500Y-54542000D02*
X205752500Y-66362000D01*
X205752500Y-54542000D02*
X213472500Y-54542000D01*
X205752500Y-66362000D02*
X213472500Y-66362000D01*
X213472500Y-54542000D02*
X213472500Y-66362000D01*
X169846000Y-53577000D02*
X169846000Y-53240000D01*
X169846000Y-55980000D02*
X169846000Y-55643000D01*
X175086000Y-53240000D02*
X169846000Y-53240000D01*
X175086000Y-53577000D02*
X175086000Y-53240000D01*
X175086000Y-55980000D02*
X169846000Y-55980000D01*
X175086000Y-55980000D02*
X175086000Y-55643000D01*
X180489113Y-73435000D02*
X180489113Y-72869000D01*
X180529113Y-73669000D02*
X180529113Y-72635000D01*
X180569113Y-73829000D02*
X180569113Y-72475000D01*
X180609113Y-73957000D02*
X180609113Y-72347000D01*
X180649113Y-74066000D02*
X180649113Y-72238000D01*
X180689113Y-74163000D02*
X180689113Y-72141000D01*
X180729113Y-74250000D02*
X180729113Y-72054000D01*
X180769113Y-74329000D02*
X180769113Y-71975000D01*
X180809113Y-72112000D02*
X180809113Y-71901000D01*
X180809113Y-74403000D02*
X180809113Y-74192000D01*
X180849113Y-72112000D02*
X180849113Y-71833000D01*
X180849113Y-74471000D02*
X180849113Y-74192000D01*
X180889113Y-72112000D02*
X180889113Y-71769000D01*
X180889113Y-74535000D02*
X180889113Y-74192000D01*
X180929113Y-72112000D02*
X180929113Y-71709000D01*
X180929113Y-74595000D02*
X180929113Y-74192000D01*
X180969113Y-72112000D02*
X180969113Y-71653000D01*
X180969113Y-74651000D02*
X180969113Y-74192000D01*
X181009113Y-72112000D02*
X181009113Y-71599000D01*
X181009113Y-74705000D02*
X181009113Y-74192000D01*
X181049113Y-72112000D02*
X181049113Y-71548000D01*
X181049113Y-74756000D02*
X181049113Y-74192000D01*
X181089113Y-72112000D02*
X181089113Y-71500000D01*
X181089113Y-74804000D02*
X181089113Y-74192000D01*
X181129113Y-72112000D02*
X181129113Y-71453000D01*
X181129113Y-74851000D02*
X181129113Y-74192000D01*
X181169113Y-72112000D02*
X181169113Y-71409000D01*
X181169113Y-74895000D02*
X181169113Y-74192000D01*
X181209113Y-72112000D02*
X181209113Y-71367000D01*
X181209113Y-74937000D02*
X181209113Y-74192000D01*
X181249113Y-72112000D02*
X181249113Y-71327000D01*
X181249113Y-74977000D02*
X181249113Y-74192000D01*
X181289113Y-72112000D02*
X181289113Y-71288000D01*
X181289113Y-75016000D02*
X181289113Y-74192000D01*
X181329113Y-72112000D02*
X181329113Y-71251000D01*
X181329113Y-75053000D02*
X181329113Y-74192000D01*
X181369113Y-72112000D02*
X181369113Y-71216000D01*
X181369113Y-75088000D02*
X181369113Y-74192000D01*
X181409113Y-72112000D02*
X181409113Y-71182000D01*
X181409113Y-75122000D02*
X181409113Y-74192000D01*
X181449113Y-72112000D02*
X181449113Y-71149000D01*
X181449113Y-75155000D02*
X181449113Y-74192000D01*
X181489113Y-72112000D02*
X181489113Y-71117000D01*
X181489113Y-75187000D02*
X181489113Y-74192000D01*
X181529113Y-72112000D02*
X181529113Y-71087000D01*
X181529113Y-75217000D02*
X181529113Y-74192000D01*
X181569113Y-72112000D02*
X181569113Y-71058000D01*
X181569113Y-75246000D02*
X181569113Y-74192000D01*
X181609113Y-72112000D02*
X181609113Y-71030000D01*
X181609113Y-75274000D02*
X181609113Y-74192000D01*
X181649113Y-72112000D02*
X181649113Y-71003000D01*
X181649113Y-75301000D02*
X181649113Y-74192000D01*
X181689113Y-72112000D02*
X181689113Y-70977000D01*
X181689113Y-75327000D02*
X181689113Y-74192000D01*
X181729113Y-72112000D02*
X181729113Y-70953000D01*
X181729113Y-75351000D02*
X181729113Y-74192000D01*
X181769113Y-72112000D02*
X181769113Y-70929000D01*
X181769113Y-75375000D02*
X181769113Y-74192000D01*
X181809113Y-72112000D02*
X181809113Y-70906000D01*
X181809113Y-75398000D02*
X181809113Y-74192000D01*
X181849113Y-72112000D02*
X181849113Y-70884000D01*
X181849113Y-75420000D02*
X181849113Y-74192000D01*
X181889113Y-72112000D02*
X181889113Y-70863000D01*
X181889113Y-75441000D02*
X181889113Y-74192000D01*
X181929113Y-72112000D02*
X181929113Y-70843000D01*
X181929113Y-75461000D02*
X181929113Y-74192000D01*
X181969113Y-72112000D02*
X181969113Y-70823000D01*
X181969113Y-75481000D02*
X181969113Y-74192000D01*
X182009113Y-72112000D02*
X182009113Y-70805000D01*
X182009113Y-75499000D02*
X182009113Y-74192000D01*
X182049113Y-72112000D02*
X182049113Y-70787000D01*
X182049113Y-75517000D02*
X182049113Y-74192000D01*
X182089113Y-72112000D02*
X182089113Y-70770000D01*
X182089113Y-75534000D02*
X182089113Y-74192000D01*
X182129113Y-72112000D02*
X182129113Y-70754000D01*
X182129113Y-75550000D02*
X182129113Y-74192000D01*
X182169113Y-72112000D02*
X182169113Y-70739000D01*
X182169113Y-75565000D02*
X182169113Y-74192000D01*
X182209113Y-72112000D02*
X182209113Y-70724000D01*
X182209113Y-75580000D02*
X182209113Y-74192000D01*
X182249113Y-72112000D02*
X182249113Y-70710000D01*
X182249113Y-75594000D02*
X182249113Y-74192000D01*
X182289113Y-72112000D02*
X182289113Y-70697000D01*
X182289113Y-75607000D02*
X182289113Y-74192000D01*
X182329113Y-72112000D02*
X182329113Y-70685000D01*
X182329113Y-75619000D02*
X182329113Y-74192000D01*
X182369113Y-72112000D02*
X182369113Y-70673000D01*
X182369113Y-75631000D02*
X182369113Y-74192000D01*
X182409113Y-72112000D02*
X182409113Y-70662000D01*
X182409113Y-75642000D02*
X182409113Y-74192000D01*
X182449113Y-72112000D02*
X182449113Y-70651000D01*
X182449113Y-75653000D02*
X182449113Y-74192000D01*
X182489113Y-72112000D02*
X182489113Y-70642000D01*
X182489113Y-75662000D02*
X182489113Y-74192000D01*
X182529113Y-72112000D02*
X182529113Y-70633000D01*
X182529113Y-75671000D02*
X182529113Y-74192000D01*
X182569113Y-72112000D02*
X182569113Y-70624000D01*
X182569113Y-75680000D02*
X182569113Y-74192000D01*
X182609113Y-72112000D02*
X182609113Y-70616000D01*
X182609113Y-75688000D02*
X182609113Y-74192000D01*
X182649113Y-72112000D02*
X182649113Y-70609000D01*
X182649113Y-75695000D02*
X182649113Y-74192000D01*
X182689113Y-72112000D02*
X182689113Y-70603000D01*
X182689113Y-75701000D02*
X182689113Y-74192000D01*
X182729113Y-72112000D02*
X182729113Y-70597000D01*
X182729113Y-75707000D02*
X182729113Y-74192000D01*
X182769113Y-72112000D02*
X182769113Y-70592000D01*
X182769113Y-75712000D02*
X182769113Y-74192000D01*
X182809113Y-72112000D02*
X182809113Y-70587000D01*
X182809113Y-75717000D02*
X182809113Y-74192000D01*
X182849113Y-72112000D02*
X182849113Y-70583000D01*
X182849113Y-75721000D02*
X182849113Y-74192000D01*
X182889113Y-75724000D02*
X182889113Y-70580000D01*
X182929113Y-75727000D02*
X182929113Y-70577000D01*
X182969113Y-75729000D02*
X182969113Y-70575000D01*
X183009113Y-75731000D02*
X183009113Y-70573000D01*
X183049113Y-75732000D02*
X183049113Y-70572000D01*
X183089113Y-75732000D02*
X183089113Y-70572000D01*
X185643888Y-74877000D02*
X185643888Y-74377000D01*
X185893888Y-74627000D02*
X185393888Y-74627000D01*
X185709113Y-73152000D02*
G75*
G02*
X180469113Y-73152000I-2620000J0D01*
G01*
X180469113Y-73152000D02*
G75*
G02*
X185709113Y-73152000I2620000J0D01*
G01*
X194439800Y-80603000D02*
X193439800Y-80593000D01*
X194439800Y-81743000D02*
X194439800Y-80593000D01*
X194439800Y-86893000D02*
X194439800Y-85693000D01*
X194449800Y-84293000D02*
X194439800Y-83093000D01*
X194449800Y-88793000D02*
X194449800Y-88293000D01*
X194489800Y-78603000D02*
X194489800Y-79103000D01*
X194489800Y-78603000D02*
X201149800Y-78593000D01*
X194489800Y-79103000D02*
X193439800Y-79093000D01*
X201139800Y-80593000D02*
X201139800Y-81743000D01*
X201139800Y-83093000D02*
X201149800Y-84293000D01*
X201139800Y-85693000D02*
X201139800Y-86843000D01*
X201149800Y-78593000D02*
X201149800Y-79093000D01*
X201149800Y-88293000D02*
X201149800Y-88793000D01*
X201149800Y-88793000D02*
X194449800Y-88793000D01*
%LPC*%
D12*
X167426000Y-67945000D03*
X172426000Y-67945000D03*
X141224000Y-59777000D03*
X141224000Y-54777000D03*
D13*
X195723000Y-90551000D03*
D14*
X196993000Y-90551000D03*
X198263000Y-90551000D03*
X199533000Y-90551000D03*
X200803000Y-90551000D03*
X202073000Y-90551000D03*
X203343000Y-90551000D03*
X204613000Y-90551000D03*
X205883000Y-90551000D03*
X207153000Y-90551000D03*
X208423000Y-90551000D03*
X209693000Y-90551000D03*
D12*
X187579000Y-75641200D03*
X187579000Y-70641200D03*
D15*
X211074000Y-68199000D03*
D12*
X208534000Y-68199000D03*
X205994000Y-68199000D03*
X203454000Y-68199000D03*
X200914000Y-68199000D03*
X198374000Y-68199000D03*
X195834000Y-68199000D03*
X193294000Y-68199000D03*
X190754000Y-68199000D03*
X190754000Y-75819000D03*
X193294000Y-75819000D03*
X195834000Y-75819000D03*
X198374000Y-75819000D03*
X200914000Y-75819000D03*
X203454000Y-75819000D03*
X205994000Y-75819000D03*
X208534000Y-75819000D03*
X211074000Y-75819000D03*
D16*
X184658000Y-47752000D03*
D17*
X187158000Y-47752000D03*
D18*
X160457000Y-79883000D03*
X160457000Y-82423000D03*
X160457000Y-84963000D03*
X160457000Y-87503000D03*
X167457000Y-87503000D03*
X167457000Y-84963000D03*
X167457000Y-82423000D03*
X167457000Y-79883000D03*
D16*
X174010000Y-47760400D03*
D17*
X176510000Y-47760400D03*
D12*
X144018000Y-55245000D03*
X154178000Y-55245000D03*
D18*
X150474800Y-79883000D03*
X150474800Y-82423000D03*
X150474800Y-84963000D03*
X150474800Y-87503000D03*
X157474800Y-87503000D03*
X157474800Y-84963000D03*
X157474800Y-82423000D03*
X157474800Y-79883000D03*
D12*
X177586000Y-54610000D03*
X182586000Y-54610000D03*
D19*
X157226000Y-65019000D03*
D12*
X159766000Y-65019000D03*
X162306000Y-65019000D03*
X164846000Y-65019000D03*
X167386000Y-65019000D03*
X169926000Y-65019000D03*
X172466000Y-65019000D03*
X175006000Y-65019000D03*
X177546000Y-65019000D03*
X180086000Y-65019000D03*
X182626000Y-65019000D03*
X185166000Y-65019000D03*
X187706000Y-65019000D03*
X190246000Y-65019000D03*
X190246000Y-57399000D03*
X187706000Y-57399000D03*
X185166000Y-57399000D03*
X182626000Y-57399000D03*
X180086000Y-57399000D03*
X177546000Y-57399000D03*
X175006000Y-57399000D03*
X172466000Y-57399000D03*
X169926000Y-57399000D03*
X167386000Y-57399000D03*
X164846000Y-57399000D03*
X162306000Y-57399000D03*
X159766000Y-57399000D03*
X157226000Y-57399000D03*
D18*
X130662800Y-79883000D03*
X130662800Y-82423000D03*
X130662800Y-84963000D03*
X130662800Y-87503000D03*
X137662800Y-87503000D03*
X137662800Y-84963000D03*
X137662800Y-82423000D03*
X137662800Y-79883000D03*
D13*
X135509000Y-90551000D03*
D14*
X136779000Y-90551000D03*
X138049000Y-90551000D03*
X139319000Y-90551000D03*
X140589000Y-90551000D03*
X141859000Y-90551000D03*
X143129000Y-90551000D03*
X144399000Y-90551000D03*
X145669000Y-90551000D03*
X146939000Y-90551000D03*
X148209000Y-90551000D03*
X149479000Y-90551000D03*
X150749000Y-90551000D03*
X152019000Y-90551000D03*
X153289000Y-90551000D03*
X154559000Y-90551000D03*
X155829000Y-90551000D03*
X157099000Y-90551000D03*
X158369000Y-90551000D03*
X159639000Y-90551000D03*
X160909000Y-90551000D03*
X162179000Y-90551000D03*
X163449000Y-90551000D03*
X164719000Y-90551000D03*
D20*
X132269112Y-73279000D03*
D12*
X129769112Y-73279000D03*
X203962000Y-58674000D03*
X193802000Y-58674000D03*
D18*
X140568800Y-79883000D03*
X140568800Y-82423000D03*
X140568800Y-84963000D03*
X140568800Y-87503000D03*
X147568800Y-87503000D03*
X147568800Y-84963000D03*
X147568800Y-82423000D03*
X147568800Y-79883000D03*
X204195800Y-79883000D03*
X204195800Y-82423000D03*
X204195800Y-84963000D03*
X204195800Y-87503000D03*
X211195800Y-87503000D03*
X211195800Y-84963000D03*
X211195800Y-82423000D03*
X211195800Y-79883000D03*
D12*
X193802000Y-44704000D03*
X193802000Y-54864000D03*
D19*
X197104000Y-55880000D03*
D12*
X199644000Y-55880000D03*
X202184000Y-55880000D03*
X202184000Y-48260000D03*
X199644000Y-48260000D03*
X197104000Y-48260000D03*
D15*
X159258000Y-68199000D03*
D12*
X156718000Y-68199000D03*
X154178000Y-68199000D03*
X151638000Y-68199000D03*
X149098000Y-68199000D03*
X146558000Y-68199000D03*
X144018000Y-68199000D03*
X141478000Y-68199000D03*
X138938000Y-68199000D03*
X138938000Y-75819000D03*
X141478000Y-75819000D03*
X144018000Y-75819000D03*
X146558000Y-75819000D03*
X149098000Y-75819000D03*
X151638000Y-75819000D03*
X154178000Y-75819000D03*
X156718000Y-75819000D03*
X159258000Y-75819000D03*
D21*
X195072000Y-62484000D03*
D12*
X202692000Y-62484000D03*
D22*
X151638000Y-59812000D03*
D23*
X149098000Y-59812000D03*
X146558000Y-59812000D03*
X146558000Y-62352000D03*
X149098000Y-62352000D03*
X151638000Y-62352000D03*
D12*
X135636000Y-75641200D03*
X135636000Y-70641200D03*
D24*
X207912500Y-57912000D03*
D25*
X207912500Y-60452000D03*
X207912500Y-62992000D03*
D12*
X174966000Y-54610000D03*
X169966000Y-54610000D03*
D20*
X184339113Y-73152000D03*
D12*
X181839113Y-73152000D03*
D18*
X194289800Y-79883000D03*
X194289800Y-82423000D03*
X194289800Y-84963000D03*
X194289800Y-87503000D03*
X201289800Y-87503000D03*
X201289800Y-84963000D03*
X201289800Y-82423000D03*
X201289800Y-79883000D03*
%LPD*%
M02*
