G04 #@! TF.GenerationSoftware,KiCad,Pcbnew,9.0.5*
G04 #@! TF.CreationDate,2025-10-10T22:50:30+02:00*
G04 #@! TF.ProjectId,rec_play_switch_module,7265635f-706c-4617-995f-737769746368,rev?*
G04 #@! TF.SameCoordinates,Original*
G04 #@! TF.FileFunction,Copper,L1,Top*
G04 #@! TF.FilePolarity,Positive*
%FSLAX46Y46*%
G04 Gerber Fmt 4.6, Leading zero omitted, Abs format (unit mm)*
G04 Created by KiCad (PCBNEW 9.0.5) date 2025-10-10 22:50:30*
%MOMM*%
%LPD*%
G01*
G04 APERTURE LIST*
G04 Aperture macros list*
%AMRoundRect*
0 Rectangle with rounded corners*
0 $1 Rounding radius*
0 $2 $3 $4 $5 $6 $7 $8 $9 X,Y pos of 4 corners*
0 Add a 4 corners polygon primitive as box body*
4,1,4,$2,$3,$4,$5,$6,$7,$8,$9,$2,$3,0*
0 Add four circle primitives for the rounded corners*
1,1,$1+$1,$2,$3*
1,1,$1+$1,$4,$5*
1,1,$1+$1,$6,$7*
1,1,$1+$1,$8,$9*
0 Add four rect primitives between the rounded corners*
20,1,$1+$1,$2,$3,$4,$5,0*
20,1,$1+$1,$4,$5,$6,$7,0*
20,1,$1+$1,$6,$7,$8,$9,0*
20,1,$1+$1,$8,$9,$2,$3,0*%
G04 Aperture macros list end*
G04 #@! TA.AperFunction,ComponentPad*
%ADD10C,1.600000*%
G04 #@! TD*
G04 #@! TA.AperFunction,ComponentPad*
%ADD11R,1.000000X1.000000*%
G04 #@! TD*
G04 #@! TA.AperFunction,ComponentPad*
%ADD12C,1.000000*%
G04 #@! TD*
G04 #@! TA.AperFunction,ComponentPad*
%ADD13RoundRect,0.250000X-0.550000X0.550000X-0.550000X-0.550000X0.550000X-0.550000X0.550000X0.550000X0*%
G04 #@! TD*
G04 #@! TA.AperFunction,ComponentPad*
%ADD14RoundRect,0.250000X-0.600000X-0.750000X0.600000X-0.750000X0.600000X0.750000X-0.600000X0.750000X0*%
G04 #@! TD*
G04 #@! TA.AperFunction,ComponentPad*
%ADD15O,1.700000X2.000000*%
G04 #@! TD*
G04 #@! TA.AperFunction,SMDPad,CuDef*
%ADD16R,1.800000X0.800000*%
G04 #@! TD*
G04 #@! TA.AperFunction,ComponentPad*
%ADD17RoundRect,0.250000X0.550000X-0.550000X0.550000X0.550000X-0.550000X0.550000X-0.550000X-0.550000X0*%
G04 #@! TD*
G04 #@! TA.AperFunction,ComponentPad*
%ADD18RoundRect,0.250000X0.550000X0.550000X-0.550000X0.550000X-0.550000X-0.550000X0.550000X-0.550000X0*%
G04 #@! TD*
G04 #@! TA.AperFunction,ComponentPad*
%ADD19RoundRect,0.250000X-0.550000X-0.550000X0.550000X-0.550000X0.550000X0.550000X-0.550000X0.550000X0*%
G04 #@! TD*
G04 #@! TA.AperFunction,ComponentPad*
%ADD20R,1.700000X1.700000*%
G04 #@! TD*
G04 #@! TA.AperFunction,ComponentPad*
%ADD21C,1.700000*%
G04 #@! TD*
G04 #@! TA.AperFunction,ComponentPad*
%ADD22R,1.500000X1.500000*%
G04 #@! TD*
G04 #@! TA.AperFunction,ComponentPad*
%ADD23C,1.500000*%
G04 #@! TD*
G04 #@! TA.AperFunction,ViaPad*
%ADD24C,0.600000*%
G04 #@! TD*
G04 #@! TA.AperFunction,Conductor*
%ADD25C,0.800000*%
G04 #@! TD*
G04 #@! TA.AperFunction,Conductor*
%ADD26C,0.300000*%
G04 #@! TD*
G04 APERTURE END LIST*
D10*
X167426000Y-67945000D03*
X172426000Y-67945000D03*
X141224000Y-59777000D03*
X141224000Y-54777000D03*
D11*
X195723000Y-90551000D03*
D12*
X196993000Y-90551000D03*
X198263000Y-90551000D03*
X199533000Y-90551000D03*
X200803000Y-90551000D03*
X202073000Y-90551000D03*
X203343000Y-90551000D03*
X204613000Y-90551000D03*
X205883000Y-90551000D03*
X207153000Y-90551000D03*
X208423000Y-90551000D03*
X209693000Y-90551000D03*
D10*
X187579000Y-75641200D03*
X187579000Y-70641200D03*
D13*
X211074000Y-68199000D03*
D10*
X208534000Y-68199000D03*
X205994000Y-68199000D03*
X203454000Y-68199000D03*
X200914000Y-68199000D03*
X198374000Y-68199000D03*
X195834000Y-68199000D03*
X193294000Y-68199000D03*
X190754000Y-68199000D03*
X190754000Y-75819000D03*
X193294000Y-75819000D03*
X195834000Y-75819000D03*
X198374000Y-75819000D03*
X200914000Y-75819000D03*
X203454000Y-75819000D03*
X205994000Y-75819000D03*
X208534000Y-75819000D03*
X211074000Y-75819000D03*
D14*
X184658000Y-47752000D03*
D15*
X187158000Y-47752000D03*
D16*
X160457000Y-79883000D03*
X160457000Y-82423000D03*
X160457000Y-84963000D03*
X160457000Y-87503000D03*
X167457000Y-87503000D03*
X167457000Y-84963000D03*
X167457000Y-82423000D03*
X167457000Y-79883000D03*
D14*
X174010000Y-47760400D03*
D15*
X176510000Y-47760400D03*
D10*
X144018000Y-55245000D03*
X154178000Y-55245000D03*
D16*
X150474800Y-79883000D03*
X150474800Y-82423000D03*
X150474800Y-84963000D03*
X150474800Y-87503000D03*
X157474800Y-87503000D03*
X157474800Y-84963000D03*
X157474800Y-82423000D03*
X157474800Y-79883000D03*
D10*
X177586000Y-54610000D03*
X182586000Y-54610000D03*
D17*
X157226000Y-65019000D03*
D10*
X159766000Y-65019000D03*
X162306000Y-65019000D03*
X164846000Y-65019000D03*
X167386000Y-65019000D03*
X169926000Y-65019000D03*
X172466000Y-65019000D03*
X175006000Y-65019000D03*
X177546000Y-65019000D03*
X180086000Y-65019000D03*
X182626000Y-65019000D03*
X185166000Y-65019000D03*
X187706000Y-65019000D03*
X190246000Y-65019000D03*
X190246000Y-57399000D03*
X187706000Y-57399000D03*
X185166000Y-57399000D03*
X182626000Y-57399000D03*
X180086000Y-57399000D03*
X177546000Y-57399000D03*
X175006000Y-57399000D03*
X172466000Y-57399000D03*
X169926000Y-57399000D03*
X167386000Y-57399000D03*
X164846000Y-57399000D03*
X162306000Y-57399000D03*
X159766000Y-57399000D03*
X157226000Y-57399000D03*
D16*
X130662800Y-79883000D03*
X130662800Y-82423000D03*
X130662800Y-84963000D03*
X130662800Y-87503000D03*
X137662800Y-87503000D03*
X137662800Y-84963000D03*
X137662800Y-82423000D03*
X137662800Y-79883000D03*
D11*
X135509000Y-90551000D03*
D12*
X136779000Y-90551000D03*
X138049000Y-90551000D03*
X139319000Y-90551000D03*
X140589000Y-90551000D03*
X141859000Y-90551000D03*
X143129000Y-90551000D03*
X144399000Y-90551000D03*
X145669000Y-90551000D03*
X146939000Y-90551000D03*
X148209000Y-90551000D03*
X149479000Y-90551000D03*
X150749000Y-90551000D03*
X152019000Y-90551000D03*
X153289000Y-90551000D03*
X154559000Y-90551000D03*
X155829000Y-90551000D03*
X157099000Y-90551000D03*
X158369000Y-90551000D03*
X159639000Y-90551000D03*
X160909000Y-90551000D03*
X162179000Y-90551000D03*
X163449000Y-90551000D03*
X164719000Y-90551000D03*
D18*
X132269112Y-73279000D03*
D10*
X129769112Y-73279000D03*
X203962000Y-58674000D03*
X193802000Y-58674000D03*
D16*
X140568800Y-79883000D03*
X140568800Y-82423000D03*
X140568800Y-84963000D03*
X140568800Y-87503000D03*
X147568800Y-87503000D03*
X147568800Y-84963000D03*
X147568800Y-82423000D03*
X147568800Y-79883000D03*
X204195800Y-79883000D03*
X204195800Y-82423000D03*
X204195800Y-84963000D03*
X204195800Y-87503000D03*
X211195800Y-87503000D03*
X211195800Y-84963000D03*
X211195800Y-82423000D03*
X211195800Y-79883000D03*
D10*
X193802000Y-44704000D03*
X193802000Y-54864000D03*
D17*
X197104000Y-55880000D03*
D10*
X199644000Y-55880000D03*
X202184000Y-55880000D03*
X202184000Y-48260000D03*
X199644000Y-48260000D03*
X197104000Y-48260000D03*
D13*
X159258000Y-68199000D03*
D10*
X156718000Y-68199000D03*
X154178000Y-68199000D03*
X151638000Y-68199000D03*
X149098000Y-68199000D03*
X146558000Y-68199000D03*
X144018000Y-68199000D03*
X141478000Y-68199000D03*
X138938000Y-68199000D03*
X138938000Y-75819000D03*
X141478000Y-75819000D03*
X144018000Y-75819000D03*
X146558000Y-75819000D03*
X149098000Y-75819000D03*
X151638000Y-75819000D03*
X154178000Y-75819000D03*
X156718000Y-75819000D03*
X159258000Y-75819000D03*
D19*
X195072000Y-62484000D03*
D10*
X202692000Y-62484000D03*
D20*
X151638000Y-59812000D03*
D21*
X149098000Y-59812000D03*
X146558000Y-59812000D03*
X146558000Y-62352000D03*
X149098000Y-62352000D03*
X151638000Y-62352000D03*
D10*
X135636000Y-75641200D03*
X135636000Y-70641200D03*
D22*
X207912500Y-57912000D03*
D23*
X207912500Y-60452000D03*
X207912500Y-62992000D03*
D10*
X174966000Y-54610000D03*
X169966000Y-54610000D03*
D18*
X184339113Y-73152000D03*
D10*
X181839113Y-73152000D03*
D16*
X194289800Y-79883000D03*
X194289800Y-82423000D03*
X194289800Y-84963000D03*
X194289800Y-87503000D03*
X201289800Y-87503000D03*
X201289800Y-84963000D03*
X201289800Y-82423000D03*
X201289800Y-79883000D03*
D24*
X208280000Y-82296000D03*
X208280000Y-83312000D03*
X197485000Y-84582000D03*
X197485000Y-82804000D03*
X143256000Y-82423000D03*
X143256000Y-84963000D03*
X153289000Y-84963000D03*
X153289000Y-82423000D03*
X133350000Y-84836000D03*
X133413500Y-82740500D03*
X162941000Y-82423000D03*
X162941000Y-84963000D03*
D25*
X186828313Y-75641200D02*
X184339113Y-73152000D01*
X190754000Y-80772000D02*
X190860800Y-80878800D01*
X140568800Y-79883000D02*
X141569800Y-80884000D01*
X132358888Y-73279000D02*
X132358888Y-75286112D01*
X132358888Y-75286112D02*
X130662800Y-76982200D01*
X203200000Y-80899000D02*
X194310000Y-80899000D01*
X194289800Y-79883000D02*
X194289800Y-80878800D01*
X194310000Y-80899000D02*
X159471000Y-80899000D01*
X135813800Y-75819000D02*
X135636000Y-75641200D01*
X190754000Y-75824000D02*
X190754000Y-80772000D01*
X187756800Y-75819000D02*
X187579000Y-75641200D01*
X159471000Y-80899000D02*
X159456000Y-80884000D01*
X141569800Y-80884000D02*
X151475800Y-80884000D01*
X194289800Y-80878800D02*
X194310000Y-80899000D01*
X190860800Y-80878800D02*
X194289800Y-80878800D01*
X160457000Y-79883000D02*
X159456000Y-80884000D01*
X134721088Y-75641200D02*
X132358888Y-73279000D01*
X130662800Y-76982200D02*
X130662800Y-79883000D01*
X135636000Y-75641200D02*
X134721088Y-75641200D01*
X190754000Y-75819000D02*
X187756800Y-75819000D01*
X187579000Y-75641200D02*
X186828313Y-75641200D01*
X130662800Y-79883000D02*
X131663800Y-80884000D01*
X151475800Y-80884000D02*
X150474800Y-79883000D01*
X131663800Y-80884000D02*
X141569800Y-80884000D01*
X138938000Y-75819000D02*
X135813800Y-75819000D01*
X203200000Y-80899000D02*
X204216000Y-79883000D01*
X159456000Y-80884000D02*
X151475800Y-80884000D01*
D26*
X199533000Y-90551000D02*
X199533000Y-89259800D01*
X199533000Y-89259800D02*
X201289800Y-87503000D01*
X202540800Y-90083200D02*
X202540800Y-83674000D01*
X202540800Y-83674000D02*
X201289800Y-82423000D01*
X202073000Y-90551000D02*
X202540800Y-90083200D01*
X212446800Y-88504306D02*
X212446800Y-83674000D01*
X210400106Y-90551000D02*
X212446800Y-88504306D01*
X209693000Y-90551000D02*
X210400106Y-90551000D01*
X212446800Y-83674000D02*
X211195800Y-82423000D01*
X210201000Y-87503000D02*
X211195800Y-87503000D01*
X207153000Y-90551000D02*
X210201000Y-87503000D01*
X161798000Y-82423000D02*
X160457000Y-82423000D01*
X160909000Y-90551000D02*
X164211000Y-87249000D01*
X164211000Y-84836000D02*
X161798000Y-82423000D01*
X164211000Y-87249000D02*
X164211000Y-84836000D01*
X150749000Y-87777200D02*
X150474800Y-87503000D01*
X150749000Y-90551000D02*
X150749000Y-87777200D01*
X158369000Y-89591000D02*
X160457000Y-87503000D01*
X158369000Y-90551000D02*
X158369000Y-89591000D01*
X154813000Y-85471000D02*
X151765000Y-82423000D01*
X153289000Y-90551000D02*
X154813000Y-89027000D01*
X151765000Y-82423000D02*
X150474800Y-82423000D01*
X154813000Y-89027000D02*
X154813000Y-85471000D01*
X195723000Y-88936200D02*
X194289800Y-87503000D01*
X195723000Y-90551000D02*
X195723000Y-88936200D01*
X198263000Y-84090000D02*
X197866000Y-83693000D01*
X195627673Y-82423000D02*
X194289800Y-82423000D01*
X196897673Y-83693000D02*
X195627673Y-82423000D01*
X198263000Y-90551000D02*
X198263000Y-84090000D01*
X197866000Y-83693000D02*
X196897673Y-83693000D01*
X203343000Y-88355800D02*
X204195800Y-87503000D01*
X203343000Y-90551000D02*
X203343000Y-88355800D01*
X205883000Y-84110200D02*
X204195800Y-82423000D01*
X205883000Y-90551000D02*
X205883000Y-84110200D01*
X139319000Y-90551000D02*
X139319000Y-89159200D01*
X139319000Y-89159200D02*
X137662800Y-87503000D01*
X141859000Y-90551000D02*
X139562000Y-88254000D01*
X139317800Y-88254000D02*
X139317800Y-84078000D01*
X139317800Y-84078000D02*
X137662800Y-82423000D01*
X139562000Y-88254000D02*
X139317800Y-88254000D01*
X149479000Y-90551000D02*
X148819800Y-89891800D01*
X148819800Y-83674000D02*
X147568800Y-82423000D01*
X148819800Y-89891800D02*
X148819800Y-83674000D01*
X146939000Y-88132800D02*
X147568800Y-87503000D01*
X146939000Y-90551000D02*
X146939000Y-88132800D01*
X165227000Y-87503000D02*
X167457000Y-87503000D01*
X162179000Y-90551000D02*
X165227000Y-87503000D01*
X154559000Y-90551000D02*
X157474800Y-87635200D01*
X157474800Y-87635200D02*
X157474800Y-87503000D01*
X157099000Y-90551000D02*
X157099000Y-89843894D01*
X158725800Y-83674000D02*
X157474800Y-82423000D01*
X158725800Y-88217094D02*
X158725800Y-83674000D01*
X157099000Y-89843894D02*
X158725800Y-88217094D01*
X164719000Y-90551000D02*
X167386000Y-90551000D01*
X167386000Y-90551000D02*
X168708000Y-89229000D01*
X168708000Y-83674000D02*
X167457000Y-82423000D01*
X168708000Y-89229000D02*
X168708000Y-83674000D01*
X141986000Y-82423000D02*
X140568800Y-82423000D01*
X145669000Y-90551000D02*
X145669000Y-86106000D01*
X145669000Y-86106000D02*
X141986000Y-82423000D01*
X135255000Y-90551000D02*
X132207000Y-87503000D01*
X132207000Y-87503000D02*
X130662800Y-87503000D01*
X135509000Y-90551000D02*
X135255000Y-90551000D01*
X140568800Y-87990800D02*
X140568800Y-87503000D01*
X143129000Y-90551000D02*
X140568800Y-87990800D01*
X137705280Y-88254000D02*
X136411800Y-88254000D01*
X136411800Y-88254000D02*
X136411800Y-86881800D01*
X131953000Y-82423000D02*
X130662800Y-82423000D01*
X138049000Y-90551000D02*
X138049000Y-88597720D01*
X138049000Y-88597720D02*
X137705280Y-88254000D01*
X136411800Y-86881800D02*
X131953000Y-82423000D01*
X204195800Y-84425000D02*
X204195800Y-84963000D01*
X208280000Y-82296000D02*
X207656000Y-81672000D01*
X207656000Y-81672000D02*
X202944800Y-81672000D01*
X202944800Y-83174000D02*
X204195800Y-84425000D01*
X202944800Y-81672000D02*
X202944800Y-83174000D01*
X209931000Y-84963000D02*
X211195800Y-84963000D01*
X208280000Y-83312000D02*
X209931000Y-84963000D01*
X197485000Y-84582000D02*
X196723000Y-84582000D01*
X196342000Y-84963000D02*
X194289800Y-84963000D01*
X196723000Y-84582000D02*
X196342000Y-84963000D01*
X201289800Y-84957800D02*
X201289800Y-84963000D01*
X199136000Y-82804000D02*
X201289800Y-84957800D01*
X197485000Y-82804000D02*
X199136000Y-82804000D01*
X143256000Y-82423000D02*
X145796000Y-84963000D01*
X145796000Y-84963000D02*
X147568800Y-84963000D01*
X140568800Y-84963000D02*
X143256000Y-84963000D01*
X150474800Y-84963000D02*
X153289000Y-84963000D01*
X153289000Y-82423000D02*
X155829000Y-84963000D01*
X155829000Y-84963000D02*
X157474800Y-84963000D01*
X130662800Y-84963000D02*
X133223000Y-84963000D01*
X133223000Y-84963000D02*
X133350000Y-84836000D01*
X133413500Y-82740500D02*
X135636000Y-84963000D01*
X135636000Y-84963000D02*
X137662800Y-84963000D01*
X195072000Y-58039000D02*
X195072000Y-62484000D01*
X197104000Y-56007000D02*
X195072000Y-58039000D01*
X197104000Y-55880000D02*
X197104000Y-56007000D01*
X202692000Y-62484000D02*
X202692000Y-59944000D01*
X202692000Y-59944000D02*
X203962000Y-58674000D01*
X182235160Y-47760400D02*
X187382960Y-52908200D01*
X176510000Y-47760400D02*
X182235160Y-47760400D01*
X198196200Y-52908200D02*
X199644000Y-54356000D01*
X199644000Y-54356000D02*
X199644000Y-55880000D01*
X195453000Y-52908200D02*
X198196200Y-52908200D01*
X187382960Y-52908200D02*
X195453000Y-52908200D01*
X211074000Y-79741000D02*
X211216000Y-79883000D01*
X211074000Y-75824000D02*
X211074000Y-79741000D01*
X202565000Y-78613000D02*
X201295000Y-79883000D01*
X205745000Y-78613000D02*
X202565000Y-78613000D01*
X208534000Y-75824000D02*
X205745000Y-78613000D01*
X159258000Y-75819000D02*
X163393000Y-75819000D01*
X163393000Y-75819000D02*
X167457000Y-79883000D01*
X157474800Y-79115800D02*
X157474800Y-79883000D01*
X154178000Y-75819000D02*
X157474800Y-79115800D01*
X144018000Y-75819000D02*
X142867000Y-76970000D01*
X142867000Y-76970000D02*
X140575800Y-76970000D01*
X140575800Y-76970000D02*
X137662800Y-79883000D01*
X206629000Y-66294000D02*
X208534000Y-68199000D01*
X187706000Y-65019000D02*
X188981000Y-66294000D01*
X188981000Y-66294000D02*
X206629000Y-66294000D01*
X150750000Y-66547000D02*
X149098000Y-68199000D01*
X164846000Y-65019000D02*
X163318000Y-66547000D01*
X163318000Y-66547000D02*
X150750000Y-66547000D01*
X191013000Y-65786000D02*
X208661000Y-65786000D01*
X208661000Y-65786000D02*
X211074000Y-68199000D01*
X190246000Y-65019000D02*
X191013000Y-65786000D01*
X204597000Y-66802000D02*
X205994000Y-68199000D01*
X186949000Y-66802000D02*
X204597000Y-66802000D01*
X185166000Y-65019000D02*
X186949000Y-66802000D01*
X152789000Y-67048000D02*
X165357000Y-67048000D01*
X165357000Y-67048000D02*
X167386000Y-65019000D01*
X151638000Y-68199000D02*
X152789000Y-67048000D01*
D25*
X191008000Y-63119000D02*
X172466000Y-63119000D01*
X172466000Y-67905000D02*
X172426000Y-67945000D01*
X154178000Y-61014081D02*
X152840081Y-62352000D01*
X203911000Y-64770000D02*
X192659000Y-64770000D01*
X206248000Y-62992000D02*
X205689000Y-62992000D01*
X175006000Y-57399000D02*
X177546000Y-57399000D01*
X154178000Y-55245000D02*
X154178000Y-61014081D01*
X175006000Y-57399000D02*
X175006000Y-58420000D01*
X152840081Y-62352000D02*
X151638000Y-62352000D01*
X177546000Y-57399000D02*
X177546000Y-54650000D01*
X177546000Y-54650000D02*
X177586000Y-54610000D01*
X172466000Y-61068162D02*
X172411919Y-61014081D01*
X172466000Y-63119000D02*
X172466000Y-61068162D01*
X193802000Y-48768000D02*
X196977000Y-51943000D01*
X172466000Y-63119000D02*
X172466000Y-63627000D01*
X175006000Y-58420000D02*
X172411919Y-61014081D01*
X207912500Y-62992000D02*
X206248000Y-62992000D01*
X175006000Y-54650000D02*
X174966000Y-54610000D01*
X200660000Y-51943000D02*
X206248000Y-57531000D01*
X206248000Y-57531000D02*
X206248000Y-62992000D01*
X172466000Y-65019000D02*
X172466000Y-67905000D01*
X154178000Y-61014081D02*
X172411919Y-61014081D01*
X172466000Y-65019000D02*
X172466000Y-63627000D01*
X193802000Y-44704000D02*
X193802000Y-48768000D01*
X205689000Y-62992000D02*
X203911000Y-64770000D01*
X192659000Y-64770000D02*
X191008000Y-63119000D01*
X196977000Y-51943000D02*
X200660000Y-51943000D01*
X175006000Y-57399000D02*
X175006000Y-54650000D01*
D26*
X165481000Y-84963000D02*
X167457000Y-84963000D01*
X162941000Y-82423000D02*
X165481000Y-84963000D01*
X162941000Y-84963000D02*
X160457000Y-84963000D01*
X149098000Y-78353800D02*
X147568800Y-79883000D01*
X149098000Y-75819000D02*
X149098000Y-78353800D01*
X174010000Y-47760400D02*
X175939780Y-49690180D01*
X175939780Y-49690180D02*
X183456420Y-49690180D01*
X192651000Y-56601600D02*
X192651000Y-57523000D01*
X187175440Y-53409200D02*
X189458600Y-53409200D01*
X183456420Y-49690180D02*
X187175440Y-53409200D01*
X192651000Y-57523000D02*
X193802000Y-58674000D01*
X189458600Y-53409200D02*
X192651000Y-56601600D01*
X144018000Y-55245000D02*
X141692000Y-55245000D01*
X157226000Y-65019000D02*
X148844000Y-65019000D01*
X144018000Y-57272000D02*
X146558000Y-59812000D01*
X147897000Y-61151000D02*
X147897000Y-64072000D01*
X144018000Y-55245000D02*
X144018000Y-57272000D01*
X147897000Y-61151000D02*
X146558000Y-59812000D01*
X141692000Y-55245000D02*
X141224000Y-54777000D01*
X147897000Y-64072000D02*
X148844000Y-65019000D01*
X151638000Y-59812000D02*
X151638000Y-54864000D01*
X182626000Y-57399000D02*
X178567000Y-53340000D01*
X178567000Y-53340000D02*
X153162000Y-53340000D01*
X151638000Y-54864000D02*
X153162000Y-53340000D01*
G04 #@! TA.AperFunction,Conductor*
G36*
X168696755Y-54010185D02*
G01*
X168742510Y-54062989D01*
X168752454Y-54132147D01*
X168747647Y-54152819D01*
X168698009Y-54305582D01*
X168666000Y-54507682D01*
X168666000Y-54712317D01*
X168698009Y-54914417D01*
X168761244Y-55109031D01*
X168854141Y-55291350D01*
X168854147Y-55291359D01*
X168886523Y-55335921D01*
X168886524Y-55335922D01*
X169566000Y-54656446D01*
X169566000Y-54662661D01*
X169593259Y-54764394D01*
X169645920Y-54855606D01*
X169720394Y-54930080D01*
X169811606Y-54982741D01*
X169913339Y-55010000D01*
X169919553Y-55010000D01*
X169240076Y-55689474D01*
X169284650Y-55721859D01*
X169466968Y-55814755D01*
X169661580Y-55877989D01*
X169665468Y-55878605D01*
X169728604Y-55908531D01*
X169765538Y-55967841D01*
X169764544Y-56037704D01*
X169725937Y-56095938D01*
X169665476Y-56123552D01*
X169621463Y-56130523D01*
X169426776Y-56193781D01*
X169244386Y-56286715D01*
X169078786Y-56407028D01*
X168934028Y-56551786D01*
X168813715Y-56717386D01*
X168766485Y-56810080D01*
X168718510Y-56860876D01*
X168650689Y-56877671D01*
X168584554Y-56855134D01*
X168545515Y-56810080D01*
X168542647Y-56804452D01*
X168498287Y-56717390D01*
X168466092Y-56673077D01*
X168377971Y-56551786D01*
X168233213Y-56407028D01*
X168067613Y-56286715D01*
X168067612Y-56286714D01*
X168067610Y-56286713D01*
X168010653Y-56257691D01*
X167885223Y-56193781D01*
X167690534Y-56130522D01*
X167515995Y-56102878D01*
X167488352Y-56098500D01*
X167283648Y-56098500D01*
X167259329Y-56102351D01*
X167081465Y-56130522D01*
X166886776Y-56193781D01*
X166704386Y-56286715D01*
X166538786Y-56407028D01*
X166394028Y-56551786D01*
X166273715Y-56717386D01*
X166226485Y-56810080D01*
X166178510Y-56860876D01*
X166110689Y-56877671D01*
X166044554Y-56855134D01*
X166005515Y-56810080D01*
X166002647Y-56804452D01*
X165958287Y-56717390D01*
X165926092Y-56673077D01*
X165837971Y-56551786D01*
X165693213Y-56407028D01*
X165527613Y-56286715D01*
X165527612Y-56286714D01*
X165527610Y-56286713D01*
X165470653Y-56257691D01*
X165345223Y-56193781D01*
X165150534Y-56130522D01*
X164975995Y-56102878D01*
X164948352Y-56098500D01*
X164743648Y-56098500D01*
X164719329Y-56102351D01*
X164541465Y-56130522D01*
X164346776Y-56193781D01*
X164164386Y-56286715D01*
X163998786Y-56407028D01*
X163854028Y-56551786D01*
X163733715Y-56717386D01*
X163686485Y-56810080D01*
X163638510Y-56860876D01*
X163570689Y-56877671D01*
X163504554Y-56855134D01*
X163465515Y-56810080D01*
X163462647Y-56804452D01*
X163418287Y-56717390D01*
X163386092Y-56673077D01*
X163297971Y-56551786D01*
X163153213Y-56407028D01*
X162987613Y-56286715D01*
X162987612Y-56286714D01*
X162987610Y-56286713D01*
X162930653Y-56257691D01*
X162805223Y-56193781D01*
X162610534Y-56130522D01*
X162435995Y-56102878D01*
X162408352Y-56098500D01*
X162203648Y-56098500D01*
X162179329Y-56102351D01*
X162001465Y-56130522D01*
X161806776Y-56193781D01*
X161624386Y-56286715D01*
X161458786Y-56407028D01*
X161314028Y-56551786D01*
X161193715Y-56717386D01*
X161146485Y-56810080D01*
X161098510Y-56860876D01*
X161030689Y-56877671D01*
X160964554Y-56855134D01*
X160925515Y-56810080D01*
X160922647Y-56804452D01*
X160878287Y-56717390D01*
X160846092Y-56673077D01*
X160757971Y-56551786D01*
X160613213Y-56407028D01*
X160447613Y-56286715D01*
X160447612Y-56286714D01*
X160447610Y-56286713D01*
X160390653Y-56257691D01*
X160265223Y-56193781D01*
X160070534Y-56130522D01*
X159895995Y-56102878D01*
X159868352Y-56098500D01*
X159663648Y-56098500D01*
X159639329Y-56102351D01*
X159461465Y-56130522D01*
X159266776Y-56193781D01*
X159084386Y-56286715D01*
X158918786Y-56407028D01*
X158774028Y-56551786D01*
X158653715Y-56717386D01*
X158606485Y-56810080D01*
X158558510Y-56860876D01*
X158490689Y-56877671D01*
X158424554Y-56855134D01*
X158385515Y-56810080D01*
X158382647Y-56804452D01*
X158338287Y-56717390D01*
X158306092Y-56673077D01*
X158217971Y-56551786D01*
X158073213Y-56407028D01*
X157907613Y-56286715D01*
X157907612Y-56286714D01*
X157907610Y-56286713D01*
X157850653Y-56257691D01*
X157725223Y-56193781D01*
X157530534Y-56130522D01*
X157355995Y-56102878D01*
X157328352Y-56098500D01*
X157123648Y-56098500D01*
X157099329Y-56102351D01*
X156921465Y-56130522D01*
X156726776Y-56193781D01*
X156544386Y-56286715D01*
X156378786Y-56407028D01*
X156234028Y-56551786D01*
X156113715Y-56717386D01*
X156020781Y-56899776D01*
X155957522Y-57094465D01*
X155925500Y-57296648D01*
X155925500Y-57501351D01*
X155957522Y-57703534D01*
X156020781Y-57898223D01*
X156084691Y-58023653D01*
X156113585Y-58080359D01*
X156113715Y-58080613D01*
X156234028Y-58246213D01*
X156378786Y-58390971D01*
X156499226Y-58478474D01*
X156544390Y-58511287D01*
X156640864Y-58560443D01*
X156726776Y-58604218D01*
X156726778Y-58604218D01*
X156726781Y-58604220D01*
X156831137Y-58638127D01*
X156921465Y-58667477D01*
X157017364Y-58682666D01*
X157123648Y-58699500D01*
X157123649Y-58699500D01*
X157328351Y-58699500D01*
X157328352Y-58699500D01*
X157530534Y-58667477D01*
X157725219Y-58604220D01*
X157907610Y-58511287D01*
X158003231Y-58441815D01*
X158073213Y-58390971D01*
X158073215Y-58390968D01*
X158073219Y-58390966D01*
X158217966Y-58246219D01*
X158217968Y-58246215D01*
X158217971Y-58246213D01*
X158338284Y-58080614D01*
X158338286Y-58080611D01*
X158338287Y-58080610D01*
X158385516Y-57987917D01*
X158433489Y-57937123D01*
X158501310Y-57920328D01*
X158567445Y-57942865D01*
X158606485Y-57987919D01*
X158653715Y-58080614D01*
X158774028Y-58246213D01*
X158918786Y-58390971D01*
X159039226Y-58478474D01*
X159084390Y-58511287D01*
X159180864Y-58560443D01*
X159266776Y-58604218D01*
X159266778Y-58604218D01*
X159266781Y-58604220D01*
X159371137Y-58638127D01*
X159461465Y-58667477D01*
X159557364Y-58682666D01*
X159663648Y-58699500D01*
X159663649Y-58699500D01*
X159868351Y-58699500D01*
X159868352Y-58699500D01*
X160070534Y-58667477D01*
X160265219Y-58604220D01*
X160447610Y-58511287D01*
X160543231Y-58441815D01*
X160613213Y-58390971D01*
X160613215Y-58390968D01*
X160613219Y-58390966D01*
X160757966Y-58246219D01*
X160757968Y-58246215D01*
X160757971Y-58246213D01*
X160878284Y-58080614D01*
X160878286Y-58080611D01*
X160878287Y-58080610D01*
X160925516Y-57987917D01*
X160973489Y-57937123D01*
X161041310Y-57920328D01*
X161107445Y-57942865D01*
X161146485Y-57987919D01*
X161193715Y-58080614D01*
X161314028Y-58246213D01*
X161458786Y-58390971D01*
X161579226Y-58478474D01*
X161624390Y-58511287D01*
X161720864Y-58560443D01*
X161806776Y-58604218D01*
X161806778Y-58604218D01*
X161806781Y-58604220D01*
X161911137Y-58638127D01*
X162001465Y-58667477D01*
X162097364Y-58682666D01*
X162203648Y-58699500D01*
X162203649Y-58699500D01*
X162408351Y-58699500D01*
X162408352Y-58699500D01*
X162610534Y-58667477D01*
X162805219Y-58604220D01*
X162987610Y-58511287D01*
X163083231Y-58441815D01*
X163153213Y-58390971D01*
X163153215Y-58390968D01*
X163153219Y-58390966D01*
X163297966Y-58246219D01*
X163297968Y-58246215D01*
X163297971Y-58246213D01*
X163418284Y-58080614D01*
X163418286Y-58080611D01*
X163418287Y-58080610D01*
X163465516Y-57987917D01*
X163513489Y-57937123D01*
X163581310Y-57920328D01*
X163647445Y-57942865D01*
X163686485Y-57987919D01*
X163733715Y-58080614D01*
X163854028Y-58246213D01*
X163998786Y-58390971D01*
X164119226Y-58478474D01*
X164164390Y-58511287D01*
X164260864Y-58560443D01*
X164346776Y-58604218D01*
X164346778Y-58604218D01*
X164346781Y-58604220D01*
X164451137Y-58638127D01*
X164541465Y-58667477D01*
X164637364Y-58682666D01*
X164743648Y-58699500D01*
X164743649Y-58699500D01*
X164948351Y-58699500D01*
X164948352Y-58699500D01*
X165150534Y-58667477D01*
X165345219Y-58604220D01*
X165527610Y-58511287D01*
X165623231Y-58441815D01*
X165693213Y-58390971D01*
X165693215Y-58390968D01*
X165693219Y-58390966D01*
X165837966Y-58246219D01*
X165837968Y-58246215D01*
X165837971Y-58246213D01*
X165958284Y-58080614D01*
X165958286Y-58080611D01*
X165958287Y-58080610D01*
X166005516Y-57987917D01*
X166053489Y-57937123D01*
X166121310Y-57920328D01*
X166187445Y-57942865D01*
X166226485Y-57987919D01*
X166273715Y-58080614D01*
X166394028Y-58246213D01*
X166538786Y-58390971D01*
X166659226Y-58478474D01*
X166704390Y-58511287D01*
X166800864Y-58560443D01*
X166886776Y-58604218D01*
X166886778Y-58604218D01*
X166886781Y-58604220D01*
X166991137Y-58638127D01*
X167081465Y-58667477D01*
X167177364Y-58682666D01*
X167283648Y-58699500D01*
X167283649Y-58699500D01*
X167488351Y-58699500D01*
X167488352Y-58699500D01*
X167690534Y-58667477D01*
X167885219Y-58604220D01*
X168067610Y-58511287D01*
X168163231Y-58441815D01*
X168233213Y-58390971D01*
X168233215Y-58390968D01*
X168233219Y-58390966D01*
X168377966Y-58246219D01*
X168377968Y-58246215D01*
X168377971Y-58246213D01*
X168498284Y-58080614D01*
X168498286Y-58080611D01*
X168498287Y-58080610D01*
X168545516Y-57987917D01*
X168593489Y-57937123D01*
X168661310Y-57920328D01*
X168727445Y-57942865D01*
X168766485Y-57987919D01*
X168813715Y-58080614D01*
X168934028Y-58246213D01*
X169078786Y-58390971D01*
X169199226Y-58478474D01*
X169244390Y-58511287D01*
X169340864Y-58560443D01*
X169426776Y-58604218D01*
X169426778Y-58604218D01*
X169426781Y-58604220D01*
X169531137Y-58638127D01*
X169621465Y-58667477D01*
X169717364Y-58682666D01*
X169823648Y-58699500D01*
X169823649Y-58699500D01*
X170028351Y-58699500D01*
X170028352Y-58699500D01*
X170230534Y-58667477D01*
X170425219Y-58604220D01*
X170607610Y-58511287D01*
X170703231Y-58441815D01*
X170773213Y-58390971D01*
X170773215Y-58390968D01*
X170773219Y-58390966D01*
X170917966Y-58246219D01*
X170917968Y-58246215D01*
X170917971Y-58246213D01*
X171038286Y-58080611D01*
X171038415Y-58080359D01*
X171085795Y-57987369D01*
X171133769Y-57936573D01*
X171201590Y-57919778D01*
X171267725Y-57942315D01*
X171306765Y-57987369D01*
X171354141Y-58080350D01*
X171354147Y-58080359D01*
X171386523Y-58124921D01*
X171386524Y-58124922D01*
X172066000Y-57445446D01*
X172066000Y-57451661D01*
X172093259Y-57553394D01*
X172145920Y-57644606D01*
X172220394Y-57719080D01*
X172311606Y-57771741D01*
X172413339Y-57799000D01*
X172419553Y-57799000D01*
X171740076Y-58478474D01*
X171784650Y-58510859D01*
X171966968Y-58603755D01*
X172161582Y-58666990D01*
X172363683Y-58699000D01*
X172568317Y-58699000D01*
X172770417Y-58666990D01*
X172965031Y-58603755D01*
X173147349Y-58510859D01*
X173191921Y-58478474D01*
X172512447Y-57799000D01*
X172518661Y-57799000D01*
X172620394Y-57771741D01*
X172711606Y-57719080D01*
X172786080Y-57644606D01*
X172838741Y-57553394D01*
X172866000Y-57451661D01*
X172866000Y-57445448D01*
X173545474Y-58124922D01*
X173545474Y-58124921D01*
X173577861Y-58080347D01*
X173577861Y-58080346D01*
X173625234Y-57987371D01*
X173632445Y-57979735D01*
X173636065Y-57969874D01*
X173656025Y-57954768D01*
X173673208Y-57936575D01*
X173683402Y-57934050D01*
X173691779Y-57927711D01*
X173716735Y-57925795D01*
X173741028Y-57919779D01*
X173750970Y-57923167D01*
X173761444Y-57922363D01*
X173783473Y-57934243D01*
X173807164Y-57942316D01*
X173815326Y-57951420D01*
X173822941Y-57955527D01*
X173840251Y-57979222D01*
X173844239Y-57983670D01*
X173845266Y-57985529D01*
X173893713Y-58080610D01*
X173910940Y-58104321D01*
X173914643Y-58111019D01*
X173920648Y-58137946D01*
X173929921Y-58163933D01*
X173928146Y-58171565D01*
X173929852Y-58179214D01*
X173920344Y-58205116D01*
X173914096Y-58231988D01*
X173907103Y-58241191D01*
X173905777Y-58244805D01*
X173902437Y-58247332D01*
X173893804Y-58258695D01*
X172075238Y-60077262D01*
X172013915Y-60110747D01*
X171987557Y-60113581D01*
X155202500Y-60113581D01*
X155135461Y-60093896D01*
X155089706Y-60041092D01*
X155078500Y-59989581D01*
X155078500Y-56235047D01*
X155098185Y-56168008D01*
X155114819Y-56147366D01*
X155138633Y-56123552D01*
X155169966Y-56092219D01*
X155169968Y-56092215D01*
X155169971Y-56092213D01*
X155249884Y-55982220D01*
X155290287Y-55926610D01*
X155383220Y-55744219D01*
X155446477Y-55549534D01*
X155478500Y-55347352D01*
X155478500Y-55142648D01*
X155474979Y-55120415D01*
X155446477Y-54940465D01*
X155400813Y-54799928D01*
X155383220Y-54745781D01*
X155383218Y-54745778D01*
X155383218Y-54745776D01*
X155346776Y-54674255D01*
X155290287Y-54563390D01*
X155260224Y-54522011D01*
X155169971Y-54397786D01*
X155025213Y-54253028D01*
X154972620Y-54214818D01*
X154929954Y-54159489D01*
X154923975Y-54089875D01*
X154956580Y-54028080D01*
X155017419Y-53993723D01*
X155045505Y-53990500D01*
X168629716Y-53990500D01*
X168696755Y-54010185D01*
G37*
G04 #@! TD.AperFunction*
G04 #@! TA.AperFunction,Conductor*
G36*
X173696229Y-54010185D02*
G01*
X173741984Y-54062989D01*
X173751928Y-54132147D01*
X173747121Y-54152818D01*
X173697523Y-54305461D01*
X173697523Y-54305464D01*
X173665500Y-54507648D01*
X173665500Y-54712351D01*
X173697522Y-54914534D01*
X173760781Y-55109223D01*
X173806213Y-55198386D01*
X173853585Y-55291359D01*
X173853715Y-55291613D01*
X173974028Y-55457213D01*
X174069181Y-55552366D01*
X174102666Y-55613689D01*
X174105500Y-55640047D01*
X174105500Y-56408953D01*
X174085815Y-56475992D01*
X174069181Y-56496634D01*
X174014032Y-56551782D01*
X174014028Y-56551786D01*
X173893713Y-56717388D01*
X173846203Y-56810630D01*
X173798228Y-56861426D01*
X173730407Y-56878220D01*
X173664272Y-56855682D01*
X173625234Y-56810628D01*
X173577861Y-56717652D01*
X173545474Y-56673077D01*
X173545474Y-56673076D01*
X172866000Y-57352551D01*
X172866000Y-57346339D01*
X172838741Y-57244606D01*
X172786080Y-57153394D01*
X172711606Y-57078920D01*
X172620394Y-57026259D01*
X172518661Y-56999000D01*
X172512446Y-56999000D01*
X173191922Y-56319524D01*
X173191921Y-56319523D01*
X173147359Y-56287147D01*
X173147350Y-56287141D01*
X172965031Y-56194244D01*
X172770417Y-56131009D01*
X172568317Y-56099000D01*
X172363683Y-56099000D01*
X172161582Y-56131009D01*
X171966968Y-56194244D01*
X171784644Y-56287143D01*
X171740077Y-56319523D01*
X171740077Y-56319524D01*
X172419554Y-56999000D01*
X172413339Y-56999000D01*
X172311606Y-57026259D01*
X172220394Y-57078920D01*
X172145920Y-57153394D01*
X172093259Y-57244606D01*
X172066000Y-57346339D01*
X172066000Y-57352553D01*
X171386524Y-56673077D01*
X171386523Y-56673077D01*
X171354143Y-56717644D01*
X171306765Y-56810630D01*
X171258790Y-56861426D01*
X171190969Y-56878221D01*
X171124834Y-56855683D01*
X171085795Y-56810630D01*
X171054563Y-56749334D01*
X171038287Y-56717390D01*
X171038285Y-56717387D01*
X171038284Y-56717385D01*
X170917971Y-56551786D01*
X170773213Y-56407028D01*
X170607613Y-56286715D01*
X170607612Y-56286714D01*
X170607610Y-56286713D01*
X170550653Y-56257691D01*
X170425223Y-56193781D01*
X170230534Y-56130522D01*
X170230528Y-56130521D01*
X170226513Y-56129885D01*
X170163381Y-56099950D01*
X170126456Y-56040635D01*
X170127460Y-55970772D01*
X170166076Y-55912543D01*
X170226527Y-55884940D01*
X170270422Y-55877988D01*
X170465031Y-55814755D01*
X170647349Y-55721859D01*
X170691921Y-55689474D01*
X170012447Y-55010000D01*
X170018661Y-55010000D01*
X170120394Y-54982741D01*
X170211606Y-54930080D01*
X170286080Y-54855606D01*
X170338741Y-54764394D01*
X170366000Y-54662661D01*
X170366000Y-54656447D01*
X171045474Y-55335921D01*
X171077859Y-55291349D01*
X171170755Y-55109031D01*
X171233990Y-54914417D01*
X171266000Y-54712317D01*
X171266000Y-54507682D01*
X171233990Y-54305582D01*
X171184353Y-54152819D01*
X171182358Y-54082978D01*
X171218438Y-54023145D01*
X171281138Y-53992316D01*
X171302284Y-53990500D01*
X173629190Y-53990500D01*
X173696229Y-54010185D01*
G37*
G04 #@! TD.AperFunction*
G04 #@! TA.AperFunction,Conductor*
G36*
X214067539Y-42638185D02*
G01*
X214113294Y-42690989D01*
X214124500Y-42742500D01*
X214124500Y-74551270D01*
X214104815Y-74618309D01*
X214052011Y-74664064D01*
X214000136Y-74675269D01*
X211710127Y-74668553D01*
X211654197Y-74655039D01*
X211573219Y-74613779D01*
X211378536Y-74550523D01*
X211228143Y-74526703D01*
X211176352Y-74518500D01*
X210971648Y-74518500D01*
X210919857Y-74526703D01*
X210769464Y-74550523D01*
X210769461Y-74550523D01*
X210574782Y-74613779D01*
X210574781Y-74613779D01*
X210501087Y-74651328D01*
X210444429Y-74664842D01*
X209155424Y-74661062D01*
X209099493Y-74647548D01*
X209033223Y-74613782D01*
X209033222Y-74613781D01*
X209033219Y-74613780D01*
X208945868Y-74585398D01*
X208838534Y-74550522D01*
X208663995Y-74522878D01*
X208636352Y-74518500D01*
X208431648Y-74518500D01*
X208379857Y-74526703D01*
X208229464Y-74550523D01*
X208229461Y-74550523D01*
X208034782Y-74613779D01*
X208034781Y-74613779D01*
X207975622Y-74643922D01*
X207918964Y-74657436D01*
X206600720Y-74653570D01*
X206544789Y-74640056D01*
X206493223Y-74613781D01*
X206298534Y-74550522D01*
X206123995Y-74522878D01*
X206096352Y-74518500D01*
X205891648Y-74518500D01*
X205839857Y-74526703D01*
X205689464Y-74550523D01*
X205689461Y-74550523D01*
X205494784Y-74613778D01*
X205450156Y-74636517D01*
X205393499Y-74650030D01*
X204046017Y-74646078D01*
X203990087Y-74632564D01*
X203953219Y-74613779D01*
X203758536Y-74550523D01*
X203608143Y-74526703D01*
X203556352Y-74518500D01*
X203351648Y-74518500D01*
X203299857Y-74526703D01*
X203149464Y-74550523D01*
X203149461Y-74550523D01*
X202954782Y-74613779D01*
X202954780Y-74613779D01*
X202924690Y-74629111D01*
X202868034Y-74642624D01*
X201491313Y-74638586D01*
X201435384Y-74625073D01*
X201413216Y-74613778D01*
X201218536Y-74550523D01*
X201068143Y-74526703D01*
X201016352Y-74518500D01*
X200811648Y-74518500D01*
X200759857Y-74526703D01*
X200609464Y-74550523D01*
X200609461Y-74550523D01*
X200414784Y-74613778D01*
X200399227Y-74621705D01*
X200342570Y-74635218D01*
X198936609Y-74631094D01*
X198880685Y-74617583D01*
X198873221Y-74613780D01*
X198873217Y-74613779D01*
X198678536Y-74550523D01*
X198528143Y-74526703D01*
X198476352Y-74518500D01*
X198271648Y-74518500D01*
X198219857Y-74526703D01*
X198069464Y-74550523D01*
X198069461Y-74550523D01*
X197874782Y-74613779D01*
X197874776Y-74613781D01*
X197873755Y-74614302D01*
X197873201Y-74614433D01*
X197870283Y-74615643D01*
X197870089Y-74615176D01*
X197817105Y-74627812D01*
X196381231Y-74623600D01*
X196337967Y-74614929D01*
X196337852Y-74615285D01*
X196334809Y-74614296D01*
X196334144Y-74614163D01*
X196333216Y-74613778D01*
X196138536Y-74550523D01*
X195988143Y-74526703D01*
X195936352Y-74518500D01*
X195731648Y-74518500D01*
X195679857Y-74526703D01*
X195529464Y-74550523D01*
X195529461Y-74550523D01*
X195333037Y-74614346D01*
X195294355Y-74620414D01*
X193819604Y-74616089D01*
X193781650Y-74610021D01*
X193598536Y-74550523D01*
X193448143Y-74526703D01*
X193396352Y-74518500D01*
X193191648Y-74518500D01*
X193151211Y-74524904D01*
X192989462Y-74550523D01*
X192815756Y-74606963D01*
X192777075Y-74613031D01*
X191256471Y-74608572D01*
X191218517Y-74602504D01*
X191058535Y-74550523D01*
X190922096Y-74528913D01*
X190856352Y-74518500D01*
X190651648Y-74518500D01*
X190611211Y-74524904D01*
X190449462Y-74550523D01*
X190298476Y-74599581D01*
X190259795Y-74605649D01*
X188398645Y-74600191D01*
X188331664Y-74580310D01*
X188326125Y-74576511D01*
X188260610Y-74528913D01*
X188260608Y-74528912D01*
X188078223Y-74435981D01*
X187883534Y-74372722D01*
X187707067Y-74344773D01*
X187681352Y-74340700D01*
X187476648Y-74340700D01*
X187450933Y-74344773D01*
X187274464Y-74372723D01*
X187274461Y-74372723D01*
X187079784Y-74435978D01*
X187038695Y-74456914D01*
X186970026Y-74469809D01*
X186905286Y-74443532D01*
X186894721Y-74434109D01*
X186293971Y-73833359D01*
X185675931Y-73215318D01*
X185642446Y-73153995D01*
X185639612Y-73127637D01*
X185639612Y-72551998D01*
X185639611Y-72551981D01*
X185629112Y-72449203D01*
X185629111Y-72449200D01*
X185616010Y-72409663D01*
X185573927Y-72282666D01*
X185481825Y-72133344D01*
X185357769Y-72009288D01*
X185208447Y-71917186D01*
X185041910Y-71862001D01*
X185041908Y-71862000D01*
X184939123Y-71851500D01*
X183739111Y-71851500D01*
X183739094Y-71851501D01*
X183636316Y-71862000D01*
X183636313Y-71862001D01*
X183469781Y-71917185D01*
X183469776Y-71917187D01*
X183320455Y-72009289D01*
X183196402Y-72133342D01*
X183104300Y-72282663D01*
X183104298Y-72282668D01*
X183083830Y-72344438D01*
X183044057Y-72401883D01*
X182979541Y-72428706D01*
X182956396Y-72429052D01*
X182918587Y-72426076D01*
X182239113Y-73105551D01*
X182239113Y-73099339D01*
X182211854Y-72997606D01*
X182159193Y-72906394D01*
X182084719Y-72831920D01*
X181993507Y-72779259D01*
X181891774Y-72752000D01*
X181885559Y-72752000D01*
X182565035Y-72072524D01*
X182565034Y-72072523D01*
X182520472Y-72040147D01*
X182520463Y-72040141D01*
X182338144Y-71947244D01*
X182143530Y-71884009D01*
X181941430Y-71852000D01*
X181736796Y-71852000D01*
X181534695Y-71884009D01*
X181340081Y-71947244D01*
X181157757Y-72040143D01*
X181113190Y-72072523D01*
X181113190Y-72072524D01*
X181792667Y-72752000D01*
X181786452Y-72752000D01*
X181684719Y-72779259D01*
X181593507Y-72831920D01*
X181519033Y-72906394D01*
X181466372Y-72997606D01*
X181439113Y-73099339D01*
X181439113Y-73105553D01*
X180759637Y-72426077D01*
X180759636Y-72426077D01*
X180727256Y-72470644D01*
X180634357Y-72652968D01*
X180571122Y-72847582D01*
X180539113Y-73049682D01*
X180539113Y-73254317D01*
X180571122Y-73456417D01*
X180634357Y-73651031D01*
X180727254Y-73833350D01*
X180727260Y-73833359D01*
X180759636Y-73877921D01*
X180759637Y-73877922D01*
X181439113Y-73198446D01*
X181439113Y-73204661D01*
X181466372Y-73306394D01*
X181519033Y-73397606D01*
X181593507Y-73472080D01*
X181684719Y-73524741D01*
X181786452Y-73552000D01*
X181792666Y-73552000D01*
X181113189Y-74231474D01*
X181157763Y-74263859D01*
X181316566Y-74344773D01*
X181367362Y-74392747D01*
X181384157Y-74460568D01*
X181361620Y-74526703D01*
X181306905Y-74570155D01*
X181259907Y-74579257D01*
X136186309Y-74447075D01*
X136139221Y-74437637D01*
X136135222Y-74435980D01*
X135940536Y-74372723D01*
X135764067Y-74344773D01*
X135738352Y-74340700D01*
X135533648Y-74340700D01*
X135507933Y-74344773D01*
X135331464Y-74372723D01*
X135331461Y-74372723D01*
X135132148Y-74437485D01*
X135131769Y-74436319D01*
X135127653Y-74438948D01*
X135092703Y-74443868D01*
X134847536Y-74443149D01*
X134780555Y-74423268D01*
X134760219Y-74406831D01*
X133605930Y-73252542D01*
X133572445Y-73191219D01*
X133569611Y-73164861D01*
X133569611Y-72678998D01*
X133569610Y-72678981D01*
X133559111Y-72576203D01*
X133559110Y-72576200D01*
X133551085Y-72551981D01*
X133503926Y-72409666D01*
X133411824Y-72260344D01*
X133287768Y-72136288D01*
X133187178Y-72074244D01*
X133138448Y-72044187D01*
X133138443Y-72044185D01*
X133126239Y-72040141D01*
X132971909Y-71989001D01*
X132971907Y-71989000D01*
X132869122Y-71978500D01*
X131669110Y-71978500D01*
X131669093Y-71978501D01*
X131566315Y-71989000D01*
X131566312Y-71989001D01*
X131399780Y-72044185D01*
X131399775Y-72044187D01*
X131250454Y-72136289D01*
X131126401Y-72260342D01*
X131034299Y-72409663D01*
X131034297Y-72409668D01*
X131013829Y-72471438D01*
X130974056Y-72528883D01*
X130909540Y-72555706D01*
X130886395Y-72556052D01*
X130848586Y-72553076D01*
X130169112Y-73232551D01*
X130169112Y-73226339D01*
X130141853Y-73124606D01*
X130089192Y-73033394D01*
X130014718Y-72958920D01*
X129923506Y-72906259D01*
X129821773Y-72879000D01*
X129815558Y-72879000D01*
X130495034Y-72199524D01*
X130495033Y-72199523D01*
X130450471Y-72167147D01*
X130450462Y-72167141D01*
X130268143Y-72074244D01*
X130073529Y-72011009D01*
X129871429Y-71979000D01*
X129666795Y-71979000D01*
X129464694Y-72011009D01*
X129270080Y-72074244D01*
X129087756Y-72167143D01*
X129043189Y-72199523D01*
X129043189Y-72199524D01*
X129722666Y-72879000D01*
X129716451Y-72879000D01*
X129614718Y-72906259D01*
X129523506Y-72958920D01*
X129449032Y-73033394D01*
X129396371Y-73124606D01*
X129369112Y-73226339D01*
X129369112Y-73232553D01*
X128689636Y-72553077D01*
X128689635Y-72553077D01*
X128657255Y-72597644D01*
X128564356Y-72779968D01*
X128501121Y-72974582D01*
X128469112Y-73176682D01*
X128469112Y-73381317D01*
X128501121Y-73583417D01*
X128564356Y-73778031D01*
X128657253Y-73960350D01*
X128657259Y-73960359D01*
X128689635Y-74004921D01*
X128689636Y-74004922D01*
X129369112Y-73325446D01*
X129369112Y-73331661D01*
X129396371Y-73433394D01*
X129449032Y-73524606D01*
X129523506Y-73599080D01*
X129614718Y-73651741D01*
X129716451Y-73679000D01*
X129722665Y-73679000D01*
X129010419Y-74391243D01*
X128949096Y-74424728D01*
X128918055Y-74422508D01*
X128918046Y-74425761D01*
X127947136Y-74422913D01*
X127880155Y-74403032D01*
X127834555Y-74350094D01*
X127823500Y-74298914D01*
X127823500Y-70538882D01*
X134336000Y-70538882D01*
X134336000Y-70743517D01*
X134368009Y-70945617D01*
X134431244Y-71140231D01*
X134524141Y-71322550D01*
X134524147Y-71322559D01*
X134556523Y-71367121D01*
X134556524Y-71367122D01*
X135236000Y-70687646D01*
X135236000Y-70693861D01*
X135263259Y-70795594D01*
X135315920Y-70886806D01*
X135390394Y-70961280D01*
X135481606Y-71013941D01*
X135583339Y-71041200D01*
X135589553Y-71041200D01*
X134910076Y-71720674D01*
X134954650Y-71753059D01*
X135136968Y-71845955D01*
X135331582Y-71909190D01*
X135533683Y-71941200D01*
X135738317Y-71941200D01*
X135940417Y-71909190D01*
X136135031Y-71845955D01*
X136317349Y-71753059D01*
X136361921Y-71720674D01*
X135682447Y-71041200D01*
X135688661Y-71041200D01*
X135790394Y-71013941D01*
X135881606Y-70961280D01*
X135956080Y-70886806D01*
X136008741Y-70795594D01*
X136036000Y-70693861D01*
X136036000Y-70687648D01*
X136715474Y-71367122D01*
X136715474Y-71367121D01*
X136747859Y-71322549D01*
X136840755Y-71140231D01*
X136903990Y-70945617D01*
X136936000Y-70743517D01*
X136936000Y-70538882D01*
X186279000Y-70538882D01*
X186279000Y-70743517D01*
X186311009Y-70945617D01*
X186374244Y-71140231D01*
X186467141Y-71322550D01*
X186467147Y-71322559D01*
X186499523Y-71367121D01*
X186499524Y-71367122D01*
X187179000Y-70687646D01*
X187179000Y-70693861D01*
X187206259Y-70795594D01*
X187258920Y-70886806D01*
X187333394Y-70961280D01*
X187424606Y-71013941D01*
X187526339Y-71041200D01*
X187532553Y-71041200D01*
X186853076Y-71720674D01*
X186897650Y-71753059D01*
X187079968Y-71845955D01*
X187274582Y-71909190D01*
X187476683Y-71941200D01*
X187681317Y-71941200D01*
X187883417Y-71909190D01*
X188078031Y-71845955D01*
X188260349Y-71753059D01*
X188304921Y-71720674D01*
X187625447Y-71041200D01*
X187631661Y-71041200D01*
X187733394Y-71013941D01*
X187824606Y-70961280D01*
X187899080Y-70886806D01*
X187951741Y-70795594D01*
X187979000Y-70693861D01*
X187979000Y-70687647D01*
X188658474Y-71367121D01*
X188690859Y-71322549D01*
X188783755Y-71140231D01*
X188846990Y-70945617D01*
X188879000Y-70743517D01*
X188879000Y-70538882D01*
X188846990Y-70336782D01*
X188783755Y-70142168D01*
X188690859Y-69959850D01*
X188658474Y-69915277D01*
X188658474Y-69915276D01*
X187979000Y-70594751D01*
X187979000Y-70588539D01*
X187951741Y-70486806D01*
X187899080Y-70395594D01*
X187824606Y-70321120D01*
X187733394Y-70268459D01*
X187631661Y-70241200D01*
X187625446Y-70241200D01*
X188304922Y-69561724D01*
X188304921Y-69561723D01*
X188260359Y-69529347D01*
X188260350Y-69529341D01*
X188078031Y-69436444D01*
X187883417Y-69373209D01*
X187760162Y-69353688D01*
X187681317Y-69341200D01*
X187476683Y-69341200D01*
X187274582Y-69373209D01*
X187079968Y-69436444D01*
X186897644Y-69529343D01*
X186853077Y-69561723D01*
X186853077Y-69561724D01*
X187532554Y-70241200D01*
X187526339Y-70241200D01*
X187424606Y-70268459D01*
X187333394Y-70321120D01*
X187258920Y-70395594D01*
X187206259Y-70486806D01*
X187179000Y-70588539D01*
X187179000Y-70594753D01*
X186499524Y-69915277D01*
X186499523Y-69915277D01*
X186467143Y-69959844D01*
X186374244Y-70142168D01*
X186311009Y-70336782D01*
X186279000Y-70538882D01*
X136936000Y-70538882D01*
X136903990Y-70336782D01*
X136840755Y-70142168D01*
X136747859Y-69959850D01*
X136715474Y-69915277D01*
X136715474Y-69915276D01*
X136036000Y-70594751D01*
X136036000Y-70588539D01*
X136008741Y-70486806D01*
X135956080Y-70395594D01*
X135881606Y-70321120D01*
X135790394Y-70268459D01*
X135688661Y-70241200D01*
X135682446Y-70241200D01*
X136361922Y-69561724D01*
X136361921Y-69561723D01*
X136317359Y-69529347D01*
X136317350Y-69529341D01*
X136135031Y-69436444D01*
X135940417Y-69373209D01*
X135817162Y-69353688D01*
X135738317Y-69341200D01*
X135533683Y-69341200D01*
X135331582Y-69373209D01*
X135136968Y-69436444D01*
X134954644Y-69529343D01*
X134910077Y-69561723D01*
X134910077Y-69561724D01*
X135589554Y-70241200D01*
X135583339Y-70241200D01*
X135481606Y-70268459D01*
X135390394Y-70321120D01*
X135315920Y-70395594D01*
X135263259Y-70486806D01*
X135236000Y-70588539D01*
X135236000Y-70594753D01*
X134556524Y-69915277D01*
X134556523Y-69915277D01*
X134524143Y-69959844D01*
X134431244Y-70142168D01*
X134368009Y-70336782D01*
X134336000Y-70538882D01*
X127823500Y-70538882D01*
X127823500Y-68096682D01*
X137638000Y-68096682D01*
X137638000Y-68301317D01*
X137670009Y-68503417D01*
X137733244Y-68698031D01*
X137826141Y-68880350D01*
X137826147Y-68880359D01*
X137858523Y-68924921D01*
X137858524Y-68924922D01*
X138538000Y-68245446D01*
X138538000Y-68251661D01*
X138565259Y-68353394D01*
X138617920Y-68444606D01*
X138692394Y-68519080D01*
X138783606Y-68571741D01*
X138885339Y-68599000D01*
X138891553Y-68599000D01*
X138212076Y-69278474D01*
X138256650Y-69310859D01*
X138438968Y-69403755D01*
X138633582Y-69466990D01*
X138835683Y-69499000D01*
X139040317Y-69499000D01*
X139242417Y-69466990D01*
X139437031Y-69403755D01*
X139619349Y-69310859D01*
X139663921Y-69278474D01*
X138984447Y-68599000D01*
X138990661Y-68599000D01*
X139092394Y-68571741D01*
X139183606Y-68519080D01*
X139258080Y-68444606D01*
X139310741Y-68353394D01*
X139338000Y-68251661D01*
X139338000Y-68245448D01*
X140017474Y-68924922D01*
X140017474Y-68924921D01*
X140049861Y-68880347D01*
X140049861Y-68880346D01*
X140097234Y-68787371D01*
X140145208Y-68736575D01*
X140213028Y-68719779D01*
X140279164Y-68742316D01*
X140318203Y-68787369D01*
X140365713Y-68880611D01*
X140486028Y-69046213D01*
X140630786Y-69190971D01*
X140751226Y-69278474D01*
X140796390Y-69311287D01*
X140879607Y-69353688D01*
X140978776Y-69404218D01*
X140978778Y-69404218D01*
X140978781Y-69404220D01*
X141069856Y-69433812D01*
X141173465Y-69467477D01*
X141274557Y-69483488D01*
X141375648Y-69499500D01*
X141375649Y-69499500D01*
X141580351Y-69499500D01*
X141580352Y-69499500D01*
X141782534Y-69467477D01*
X141977219Y-69404220D01*
X142159610Y-69311287D01*
X142288482Y-69217657D01*
X142325213Y-69190971D01*
X142325215Y-69190968D01*
X142325219Y-69190966D01*
X142469966Y-69046219D01*
X142469968Y-69046215D01*
X142469971Y-69046213D01*
X142590284Y-68880614D01*
X142590286Y-68880611D01*
X142590287Y-68880610D01*
X142637516Y-68787917D01*
X142685489Y-68737123D01*
X142753310Y-68720328D01*
X142819445Y-68742865D01*
X142858483Y-68787917D01*
X142864139Y-68799016D01*
X142905715Y-68880614D01*
X143026028Y-69046213D01*
X143170786Y-69190971D01*
X143291226Y-69278474D01*
X143336390Y-69311287D01*
X143419607Y-69353688D01*
X143518776Y-69404218D01*
X143518778Y-69404218D01*
X143518781Y-69404220D01*
X143609856Y-69433812D01*
X143713465Y-69467477D01*
X143814557Y-69483488D01*
X143915648Y-69499500D01*
X143915649Y-69499500D01*
X144120351Y-69499500D01*
X144120352Y-69499500D01*
X144322534Y-69467477D01*
X144517219Y-69404220D01*
X144699610Y-69311287D01*
X144828482Y-69217657D01*
X144865213Y-69190971D01*
X144865215Y-69190968D01*
X144865219Y-69190966D01*
X145009966Y-69046219D01*
X145009968Y-69046215D01*
X145009971Y-69046213D01*
X145130284Y-68880614D01*
X145130286Y-68880611D01*
X145130287Y-68880610D01*
X145177516Y-68787917D01*
X145225489Y-68737123D01*
X145293310Y-68720328D01*
X145359445Y-68742865D01*
X145398483Y-68787917D01*
X145404139Y-68799016D01*
X145445715Y-68880614D01*
X145566028Y-69046213D01*
X145710786Y-69190971D01*
X145831226Y-69278474D01*
X145876390Y-69311287D01*
X145959607Y-69353688D01*
X146058776Y-69404218D01*
X146058778Y-69404218D01*
X146058781Y-69404220D01*
X146149856Y-69433812D01*
X146253465Y-69467477D01*
X146354557Y-69483488D01*
X146455648Y-69499500D01*
X146455649Y-69499500D01*
X146660351Y-69499500D01*
X146660352Y-69499500D01*
X146862534Y-69467477D01*
X147057219Y-69404220D01*
X147239610Y-69311287D01*
X147368482Y-69217657D01*
X147405213Y-69190971D01*
X147405215Y-69190968D01*
X147405219Y-69190966D01*
X147549966Y-69046219D01*
X147549968Y-69046215D01*
X147549971Y-69046213D01*
X147670284Y-68880614D01*
X147670286Y-68880611D01*
X147670287Y-68880610D01*
X147717516Y-68787917D01*
X147765489Y-68737123D01*
X147833310Y-68720328D01*
X147899445Y-68742865D01*
X147938483Y-68787917D01*
X147944139Y-68799016D01*
X147985715Y-68880614D01*
X148106028Y-69046213D01*
X148250786Y-69190971D01*
X148371226Y-69278474D01*
X148416390Y-69311287D01*
X148499607Y-69353688D01*
X148598776Y-69404218D01*
X148598778Y-69404218D01*
X148598781Y-69404220D01*
X148689856Y-69433812D01*
X148793465Y-69467477D01*
X148894557Y-69483488D01*
X148995648Y-69499500D01*
X148995649Y-69499500D01*
X149200351Y-69499500D01*
X149200352Y-69499500D01*
X149402534Y-69467477D01*
X149597219Y-69404220D01*
X149779610Y-69311287D01*
X149908482Y-69217657D01*
X149945213Y-69190971D01*
X149945215Y-69190968D01*
X149945219Y-69190966D01*
X150089966Y-69046219D01*
X150089968Y-69046215D01*
X150089971Y-69046213D01*
X150210284Y-68880614D01*
X150210286Y-68880611D01*
X150210287Y-68880610D01*
X150257516Y-68787917D01*
X150305489Y-68737123D01*
X150373310Y-68720328D01*
X150439445Y-68742865D01*
X150478483Y-68787917D01*
X150484139Y-68799016D01*
X150525715Y-68880614D01*
X150646028Y-69046213D01*
X150790786Y-69190971D01*
X150911226Y-69278474D01*
X150956390Y-69311287D01*
X151039607Y-69353688D01*
X151138776Y-69404218D01*
X151138778Y-69404218D01*
X151138781Y-69404220D01*
X151229856Y-69433812D01*
X151333465Y-69467477D01*
X151434557Y-69483488D01*
X151535648Y-69499500D01*
X151535649Y-69499500D01*
X151740351Y-69499500D01*
X151740352Y-69499500D01*
X151942534Y-69467477D01*
X152137219Y-69404220D01*
X152319610Y-69311287D01*
X152448482Y-69217657D01*
X152485213Y-69190971D01*
X152485215Y-69190968D01*
X152485219Y-69190966D01*
X152629966Y-69046219D01*
X152629968Y-69046215D01*
X152629971Y-69046213D01*
X152750284Y-68880614D01*
X152750286Y-68880611D01*
X152750287Y-68880610D01*
X152797516Y-68787917D01*
X152845489Y-68737123D01*
X152913310Y-68720328D01*
X152979445Y-68742865D01*
X153018483Y-68787917D01*
X153024139Y-68799016D01*
X153065715Y-68880614D01*
X153186028Y-69046213D01*
X153330786Y-69190971D01*
X153451226Y-69278474D01*
X153496390Y-69311287D01*
X153579607Y-69353688D01*
X153678776Y-69404218D01*
X153678778Y-69404218D01*
X153678781Y-69404220D01*
X153769856Y-69433812D01*
X153873465Y-69467477D01*
X153974557Y-69483488D01*
X154075648Y-69499500D01*
X154075649Y-69499500D01*
X154280351Y-69499500D01*
X154280352Y-69499500D01*
X154482534Y-69467477D01*
X154677219Y-69404220D01*
X154859610Y-69311287D01*
X154988482Y-69217657D01*
X155025213Y-69190971D01*
X155025215Y-69190968D01*
X155025219Y-69190966D01*
X155169966Y-69046219D01*
X155169968Y-69046215D01*
X155169971Y-69046213D01*
X155290284Y-68880614D01*
X155290286Y-68880611D01*
X155290287Y-68880610D01*
X155337516Y-68787917D01*
X155385489Y-68737123D01*
X155453310Y-68720328D01*
X155519445Y-68742865D01*
X155558483Y-68787917D01*
X155564139Y-68799016D01*
X155605715Y-68880614D01*
X155726028Y-69046213D01*
X155870786Y-69190971D01*
X155991226Y-69278474D01*
X156036390Y-69311287D01*
X156119607Y-69353688D01*
X156218776Y-69404218D01*
X156218778Y-69404218D01*
X156218781Y-69404220D01*
X156309856Y-69433812D01*
X156413465Y-69467477D01*
X156514557Y-69483488D01*
X156615648Y-69499500D01*
X156615649Y-69499500D01*
X156820351Y-69499500D01*
X156820352Y-69499500D01*
X157022534Y-69467477D01*
X157217219Y-69404220D01*
X157399610Y-69311287D01*
X157528482Y-69217657D01*
X157565213Y-69190971D01*
X157565215Y-69190968D01*
X157565219Y-69190966D01*
X157709966Y-69046219D01*
X157778021Y-68952547D01*
X157833349Y-68909882D01*
X157902963Y-68903902D01*
X157964758Y-68936507D01*
X157996044Y-68986427D01*
X158023186Y-69068334D01*
X158115288Y-69217656D01*
X158239344Y-69341712D01*
X158388666Y-69433814D01*
X158555203Y-69488999D01*
X158657991Y-69499500D01*
X159858008Y-69499499D01*
X159960797Y-69488999D01*
X160127334Y-69433814D01*
X160276656Y-69341712D01*
X160400712Y-69217656D01*
X160492814Y-69068334D01*
X160547999Y-68901797D01*
X160558500Y-68799009D01*
X160558499Y-67822499D01*
X160578183Y-67755461D01*
X160630987Y-67709706D01*
X160682499Y-67698500D01*
X165421071Y-67698500D01*
X165505615Y-67681682D01*
X165546744Y-67673501D01*
X165665127Y-67624465D01*
X165771669Y-67553277D01*
X166023209Y-67301737D01*
X166084532Y-67268252D01*
X166154223Y-67273236D01*
X166210157Y-67315107D01*
X166234574Y-67380572D01*
X166222305Y-67441130D01*
X166223110Y-67441464D01*
X166221402Y-67445588D01*
X166221378Y-67445707D01*
X166221245Y-67445966D01*
X166158009Y-67640582D01*
X166126000Y-67842682D01*
X166126000Y-68047317D01*
X166158009Y-68249417D01*
X166221244Y-68444031D01*
X166314141Y-68626350D01*
X166314147Y-68626359D01*
X166346523Y-68670921D01*
X166346524Y-68670922D01*
X167026000Y-67991446D01*
X167026000Y-67997661D01*
X167053259Y-68099394D01*
X167105920Y-68190606D01*
X167180394Y-68265080D01*
X167271606Y-68317741D01*
X167373339Y-68345000D01*
X167379553Y-68345000D01*
X166700076Y-69024474D01*
X166744650Y-69056859D01*
X166926968Y-69149755D01*
X167121582Y-69212990D01*
X167323683Y-69245000D01*
X167528317Y-69245000D01*
X167730417Y-69212990D01*
X167925031Y-69149755D01*
X168107349Y-69056859D01*
X168151921Y-69024474D01*
X167472447Y-68345000D01*
X167478661Y-68345000D01*
X167580394Y-68317741D01*
X167671606Y-68265080D01*
X167746080Y-68190606D01*
X167798741Y-68099394D01*
X167826000Y-67997661D01*
X167826000Y-67991448D01*
X168505474Y-68670922D01*
X168505474Y-68670921D01*
X168537859Y-68626349D01*
X168630755Y-68444031D01*
X168693990Y-68249417D01*
X168726000Y-68047317D01*
X168726000Y-67842682D01*
X168693990Y-67640582D01*
X168630755Y-67445968D01*
X168537859Y-67263650D01*
X168505474Y-67219077D01*
X168505474Y-67219076D01*
X167826000Y-67898551D01*
X167826000Y-67892339D01*
X167798741Y-67790606D01*
X167746080Y-67699394D01*
X167671606Y-67624920D01*
X167580394Y-67572259D01*
X167478661Y-67545000D01*
X167472446Y-67545000D01*
X168151922Y-66865524D01*
X168151921Y-66865523D01*
X168107359Y-66833147D01*
X168107350Y-66833141D01*
X167925031Y-66740244D01*
X167730417Y-66677009D01*
X167528317Y-66645000D01*
X167323683Y-66645000D01*
X167121582Y-66677009D01*
X166926964Y-66740246D01*
X166926704Y-66740379D01*
X166926593Y-66740399D01*
X166922464Y-66742110D01*
X166922104Y-66741242D01*
X166858034Y-66753271D01*
X166793295Y-66726991D01*
X166753042Y-66669882D01*
X166750054Y-66600076D01*
X166782735Y-66542210D01*
X166888445Y-66436500D01*
X166998809Y-66326135D01*
X167060130Y-66292652D01*
X167105886Y-66291345D01*
X167202719Y-66306681D01*
X167283648Y-66319500D01*
X167283649Y-66319500D01*
X167488351Y-66319500D01*
X167488352Y-66319500D01*
X167690534Y-66287477D01*
X167885219Y-66224220D01*
X168067610Y-66131287D01*
X168160590Y-66063732D01*
X168233213Y-66010971D01*
X168233215Y-66010968D01*
X168233219Y-66010966D01*
X168377966Y-65866219D01*
X168377968Y-65866215D01*
X168377971Y-65866213D01*
X168498284Y-65700614D01*
X168498286Y-65700611D01*
X168498287Y-65700610D01*
X168545516Y-65607917D01*
X168593489Y-65557123D01*
X168661310Y-65540328D01*
X168727445Y-65562865D01*
X168766483Y-65607917D01*
X168785124Y-65644501D01*
X168813715Y-65700614D01*
X168934028Y-65866213D01*
X169078786Y-66010971D01*
X169199226Y-66098474D01*
X169244390Y-66131287D01*
X169360607Y-66190503D01*
X169426776Y-66224218D01*
X169426778Y-66224218D01*
X169426781Y-66224220D01*
X169531137Y-66258127D01*
X169621465Y-66287477D01*
X169722557Y-66303488D01*
X169823648Y-66319500D01*
X169823649Y-66319500D01*
X170028351Y-66319500D01*
X170028352Y-66319500D01*
X170230534Y-66287477D01*
X170425219Y-66224220D01*
X170607610Y-66131287D01*
X170700590Y-66063732D01*
X170773213Y-66010971D01*
X170773215Y-66010968D01*
X170773219Y-66010966D01*
X170917966Y-65866219D01*
X170917968Y-65866215D01*
X170917971Y-65866213D01*
X171038284Y-65700614D01*
X171038286Y-65700611D01*
X171038287Y-65700610D01*
X171085516Y-65607917D01*
X171133489Y-65557123D01*
X171201310Y-65540328D01*
X171267445Y-65562865D01*
X171306483Y-65607917D01*
X171325124Y-65644501D01*
X171353715Y-65700614D01*
X171474028Y-65866213D01*
X171529181Y-65921366D01*
X171562666Y-65982689D01*
X171565500Y-66009047D01*
X171565500Y-66914953D01*
X171545815Y-66981992D01*
X171529181Y-67002634D01*
X171434032Y-67097782D01*
X171434028Y-67097786D01*
X171313715Y-67263386D01*
X171220781Y-67445776D01*
X171157522Y-67640465D01*
X171125500Y-67842648D01*
X171125500Y-68047351D01*
X171157522Y-68249534D01*
X171220781Y-68444223D01*
X171275979Y-68552553D01*
X171313585Y-68626359D01*
X171313715Y-68626613D01*
X171434028Y-68792213D01*
X171578786Y-68936971D01*
X171699226Y-69024474D01*
X171744390Y-69057287D01*
X171860607Y-69116503D01*
X171926776Y-69150218D01*
X171926778Y-69150218D01*
X171926781Y-69150220D01*
X172031137Y-69184127D01*
X172121465Y-69213477D01*
X172222557Y-69229488D01*
X172323648Y-69245500D01*
X172323649Y-69245500D01*
X172528351Y-69245500D01*
X172528352Y-69245500D01*
X172730534Y-69213477D01*
X172925219Y-69150220D01*
X173107610Y-69057287D01*
X173251771Y-68952549D01*
X173273213Y-68936971D01*
X173273215Y-68936968D01*
X173273219Y-68936966D01*
X173417966Y-68792219D01*
X173417968Y-68792215D01*
X173417971Y-68792213D01*
X173486397Y-68698031D01*
X173538287Y-68626610D01*
X173631220Y-68444219D01*
X173694477Y-68249534D01*
X173726500Y-68047352D01*
X173726500Y-67842648D01*
X173703872Y-67699781D01*
X173694477Y-67640465D01*
X173654487Y-67517390D01*
X173631220Y-67445781D01*
X173631218Y-67445778D01*
X173631218Y-67445776D01*
X173583327Y-67351786D01*
X173538287Y-67263390D01*
X173506092Y-67219077D01*
X173417971Y-67097786D01*
X173402819Y-67082634D01*
X173369334Y-67021311D01*
X173366500Y-66994953D01*
X173366500Y-66009047D01*
X173386185Y-65942008D01*
X173402819Y-65921366D01*
X173427685Y-65896500D01*
X173457966Y-65866219D01*
X173457968Y-65866215D01*
X173457971Y-65866213D01*
X173578286Y-65700611D01*
X173578415Y-65700359D01*
X173625795Y-65607369D01*
X173673769Y-65556573D01*
X173741590Y-65539778D01*
X173807725Y-65562315D01*
X173846765Y-65607369D01*
X173894141Y-65700350D01*
X173894147Y-65700359D01*
X173926523Y-65744921D01*
X173926524Y-65744922D01*
X174606000Y-65065446D01*
X174606000Y-65071661D01*
X174633259Y-65173394D01*
X174685920Y-65264606D01*
X174760394Y-65339080D01*
X174851606Y-65391741D01*
X174953339Y-65419000D01*
X174959553Y-65419000D01*
X174280076Y-66098474D01*
X174324650Y-66130859D01*
X174506968Y-66223755D01*
X174701582Y-66286990D01*
X174903683Y-66319000D01*
X175108317Y-66319000D01*
X175310417Y-66286990D01*
X175505031Y-66223755D01*
X175687349Y-66130859D01*
X175731921Y-66098474D01*
X175052447Y-65419000D01*
X175058661Y-65419000D01*
X175160394Y-65391741D01*
X175251606Y-65339080D01*
X175326080Y-65264606D01*
X175378741Y-65173394D01*
X175406000Y-65071661D01*
X175406000Y-65065447D01*
X176085474Y-65744921D01*
X176117861Y-65700347D01*
X176117861Y-65700346D01*
X176165234Y-65607371D01*
X176213208Y-65556575D01*
X176281028Y-65539779D01*
X176347164Y-65562316D01*
X176386203Y-65607369D01*
X176433713Y-65700611D01*
X176554028Y-65866213D01*
X176698786Y-66010971D01*
X176819226Y-66098474D01*
X176864390Y-66131287D01*
X176980607Y-66190503D01*
X177046776Y-66224218D01*
X177046778Y-66224218D01*
X177046781Y-66224220D01*
X177151137Y-66258127D01*
X177241465Y-66287477D01*
X177342557Y-66303488D01*
X177443648Y-66319500D01*
X177443649Y-66319500D01*
X177648351Y-66319500D01*
X177648352Y-66319500D01*
X177850534Y-66287477D01*
X178045219Y-66224220D01*
X178227610Y-66131287D01*
X178320590Y-66063732D01*
X178393213Y-66010971D01*
X178393215Y-66010968D01*
X178393219Y-66010966D01*
X178537966Y-65866219D01*
X178537968Y-65866215D01*
X178537971Y-65866213D01*
X178658284Y-65700614D01*
X178658286Y-65700611D01*
X178658287Y-65700610D01*
X178705516Y-65607917D01*
X178753489Y-65557123D01*
X178821310Y-65540328D01*
X178887445Y-65562865D01*
X178926483Y-65607917D01*
X178945124Y-65644501D01*
X178973715Y-65700614D01*
X179094028Y-65866213D01*
X179238786Y-66010971D01*
X179359226Y-66098474D01*
X179404390Y-66131287D01*
X179520607Y-66190503D01*
X179586776Y-66224218D01*
X179586778Y-66224218D01*
X179586781Y-66224220D01*
X179691137Y-66258127D01*
X179781465Y-66287477D01*
X179882557Y-66303488D01*
X179983648Y-66319500D01*
X179983649Y-66319500D01*
X180188351Y-66319500D01*
X180188352Y-66319500D01*
X180390534Y-66287477D01*
X180585219Y-66224220D01*
X180767610Y-66131287D01*
X180860590Y-66063732D01*
X180933213Y-66010971D01*
X180933215Y-66010968D01*
X180933219Y-66010966D01*
X181077966Y-65866219D01*
X181077968Y-65866215D01*
X181077971Y-65866213D01*
X181198284Y-65700614D01*
X181198286Y-65700611D01*
X181198287Y-65700610D01*
X181245516Y-65607917D01*
X181293489Y-65557123D01*
X181361310Y-65540328D01*
X181427445Y-65562865D01*
X181466483Y-65607917D01*
X181485124Y-65644501D01*
X181513715Y-65700614D01*
X181634028Y-65866213D01*
X181778786Y-66010971D01*
X181899226Y-66098474D01*
X181944390Y-66131287D01*
X182060607Y-66190503D01*
X182126776Y-66224218D01*
X182126778Y-66224218D01*
X182126781Y-66224220D01*
X182231137Y-66258127D01*
X182321465Y-66287477D01*
X182422557Y-66303488D01*
X182523648Y-66319500D01*
X182523649Y-66319500D01*
X182728351Y-66319500D01*
X182728352Y-66319500D01*
X182930534Y-66287477D01*
X183125219Y-66224220D01*
X183307610Y-66131287D01*
X183400590Y-66063732D01*
X183473213Y-66010971D01*
X183473215Y-66010968D01*
X183473219Y-66010966D01*
X183617966Y-65866219D01*
X183617968Y-65866215D01*
X183617971Y-65866213D01*
X183738284Y-65700614D01*
X183738286Y-65700611D01*
X183738287Y-65700610D01*
X183785516Y-65607917D01*
X183833489Y-65557123D01*
X183901310Y-65540328D01*
X183967445Y-65562865D01*
X184006483Y-65607917D01*
X184025124Y-65644501D01*
X184053715Y-65700614D01*
X184174028Y-65866213D01*
X184318786Y-66010971D01*
X184439226Y-66098474D01*
X184484390Y-66131287D01*
X184600607Y-66190503D01*
X184666776Y-66224218D01*
X184666778Y-66224218D01*
X184666781Y-66224220D01*
X184771137Y-66258127D01*
X184861465Y-66287477D01*
X184962557Y-66303488D01*
X185063648Y-66319500D01*
X185063649Y-66319500D01*
X185268351Y-66319500D01*
X185268352Y-66319500D01*
X185446112Y-66291345D01*
X185515405Y-66300299D01*
X185553191Y-66326137D01*
X186534325Y-67307272D01*
X186534332Y-67307278D01*
X186629647Y-67370965D01*
X186629649Y-67370966D01*
X186640865Y-67378460D01*
X186640875Y-67378466D01*
X186667692Y-67389574D01*
X186759256Y-67427501D01*
X186759260Y-67427501D01*
X186759261Y-67427502D01*
X186884928Y-67452500D01*
X186884931Y-67452500D01*
X187013069Y-67452500D01*
X189472987Y-67452500D01*
X189540026Y-67472185D01*
X189585781Y-67524989D01*
X189595725Y-67594147D01*
X189583472Y-67632795D01*
X189549244Y-67699968D01*
X189486009Y-67894582D01*
X189454000Y-68096682D01*
X189454000Y-68301317D01*
X189486009Y-68503417D01*
X189549244Y-68698031D01*
X189642141Y-68880350D01*
X189642147Y-68880359D01*
X189674523Y-68924921D01*
X189674524Y-68924922D01*
X190354000Y-68245446D01*
X190354000Y-68251661D01*
X190381259Y-68353394D01*
X190433920Y-68444606D01*
X190508394Y-68519080D01*
X190599606Y-68571741D01*
X190701339Y-68599000D01*
X190707553Y-68599000D01*
X190028076Y-69278474D01*
X190072650Y-69310859D01*
X190254968Y-69403755D01*
X190449582Y-69466990D01*
X190651683Y-69499000D01*
X190856317Y-69499000D01*
X191058417Y-69466990D01*
X191253031Y-69403755D01*
X191435349Y-69310859D01*
X191479921Y-69278474D01*
X190800447Y-68599000D01*
X190806661Y-68599000D01*
X190908394Y-68571741D01*
X190999606Y-68519080D01*
X191074080Y-68444606D01*
X191126741Y-68353394D01*
X191154000Y-68251661D01*
X191154000Y-68245447D01*
X191833474Y-68924921D01*
X191865861Y-68880347D01*
X191865861Y-68880346D01*
X191913234Y-68787371D01*
X191961208Y-68736575D01*
X192029028Y-68719779D01*
X192095164Y-68742316D01*
X192134203Y-68787369D01*
X192181713Y-68880611D01*
X192302028Y-69046213D01*
X192446786Y-69190971D01*
X192567226Y-69278474D01*
X192612390Y-69311287D01*
X192695607Y-69353688D01*
X192794776Y-69404218D01*
X192794778Y-69404218D01*
X192794781Y-69404220D01*
X192885856Y-69433812D01*
X192989465Y-69467477D01*
X193090557Y-69483488D01*
X193191648Y-69499500D01*
X193191649Y-69499500D01*
X193396351Y-69499500D01*
X193396352Y-69499500D01*
X193598534Y-69467477D01*
X193793219Y-69404220D01*
X193975610Y-69311287D01*
X194104482Y-69217657D01*
X194141213Y-69190971D01*
X194141215Y-69190968D01*
X194141219Y-69190966D01*
X194285966Y-69046219D01*
X194285968Y-69046215D01*
X194285971Y-69046213D01*
X194406284Y-68880614D01*
X194406286Y-68880611D01*
X194406287Y-68880610D01*
X194453516Y-68787917D01*
X194501489Y-68737123D01*
X194569310Y-68720328D01*
X194635445Y-68742865D01*
X194674483Y-68787917D01*
X194680139Y-68799016D01*
X194721715Y-68880614D01*
X194842028Y-69046213D01*
X194986786Y-69190971D01*
X195107226Y-69278474D01*
X195152390Y-69311287D01*
X195235607Y-69353688D01*
X195334776Y-69404218D01*
X195334778Y-69404218D01*
X195334781Y-69404220D01*
X195425856Y-69433812D01*
X195529465Y-69467477D01*
X195630557Y-69483488D01*
X195731648Y-69499500D01*
X195731649Y-69499500D01*
X195936351Y-69499500D01*
X195936352Y-69499500D01*
X196138534Y-69467477D01*
X196333219Y-69404220D01*
X196515610Y-69311287D01*
X196644482Y-69217657D01*
X196681213Y-69190971D01*
X196681215Y-69190968D01*
X196681219Y-69190966D01*
X196825966Y-69046219D01*
X196825968Y-69046215D01*
X196825971Y-69046213D01*
X196946284Y-68880614D01*
X196946286Y-68880611D01*
X196946287Y-68880610D01*
X196993516Y-68787917D01*
X197041489Y-68737123D01*
X197109310Y-68720328D01*
X197175445Y-68742865D01*
X197214483Y-68787917D01*
X197220139Y-68799016D01*
X197261715Y-68880614D01*
X197382028Y-69046213D01*
X197526786Y-69190971D01*
X197647226Y-69278474D01*
X197692390Y-69311287D01*
X197775607Y-69353688D01*
X197874776Y-69404218D01*
X197874778Y-69404218D01*
X197874781Y-69404220D01*
X197965856Y-69433812D01*
X198069465Y-69467477D01*
X198170557Y-69483488D01*
X198271648Y-69499500D01*
X198271649Y-69499500D01*
X198476351Y-69499500D01*
X198476352Y-69499500D01*
X198678534Y-69467477D01*
X198873219Y-69404220D01*
X199055610Y-69311287D01*
X199184482Y-69217657D01*
X199221213Y-69190971D01*
X199221215Y-69190968D01*
X199221219Y-69190966D01*
X199365966Y-69046219D01*
X199365968Y-69046215D01*
X199365971Y-69046213D01*
X199486284Y-68880614D01*
X199486286Y-68880611D01*
X199486287Y-68880610D01*
X199533516Y-68787917D01*
X199581489Y-68737123D01*
X199649310Y-68720328D01*
X199715445Y-68742865D01*
X199754483Y-68787917D01*
X199760139Y-68799016D01*
X199801715Y-68880614D01*
X199922028Y-69046213D01*
X200066786Y-69190971D01*
X200187226Y-69278474D01*
X200232390Y-69311287D01*
X200315607Y-69353688D01*
X200414776Y-69404218D01*
X200414778Y-69404218D01*
X200414781Y-69404220D01*
X200505856Y-69433812D01*
X200609465Y-69467477D01*
X200710557Y-69483488D01*
X200811648Y-69499500D01*
X200811649Y-69499500D01*
X201016351Y-69499500D01*
X201016352Y-69499500D01*
X201218534Y-69467477D01*
X201413219Y-69404220D01*
X201595610Y-69311287D01*
X201724482Y-69217657D01*
X201761213Y-69190971D01*
X201761215Y-69190968D01*
X201761219Y-69190966D01*
X201905966Y-69046219D01*
X201905968Y-69046215D01*
X201905971Y-69046213D01*
X202026284Y-68880614D01*
X202026286Y-68880611D01*
X202026287Y-68880610D01*
X202073516Y-68787917D01*
X202121489Y-68737123D01*
X202189310Y-68720328D01*
X202255445Y-68742865D01*
X202294483Y-68787917D01*
X202300139Y-68799016D01*
X202341715Y-68880614D01*
X202462028Y-69046213D01*
X202606786Y-69190971D01*
X202727226Y-69278474D01*
X202772390Y-69311287D01*
X202855607Y-69353688D01*
X202954776Y-69404218D01*
X202954778Y-69404218D01*
X202954781Y-69404220D01*
X203045856Y-69433812D01*
X203149465Y-69467477D01*
X203250557Y-69483488D01*
X203351648Y-69499500D01*
X203351649Y-69499500D01*
X203556351Y-69499500D01*
X203556352Y-69499500D01*
X203758534Y-69467477D01*
X203953219Y-69404220D01*
X204135610Y-69311287D01*
X204264482Y-69217657D01*
X204301213Y-69190971D01*
X204301215Y-69190968D01*
X204301219Y-69190966D01*
X204445966Y-69046219D01*
X204445968Y-69046215D01*
X204445971Y-69046213D01*
X204566284Y-68880614D01*
X204566286Y-68880611D01*
X204566287Y-68880610D01*
X204613516Y-68787917D01*
X204661489Y-68737123D01*
X204729310Y-68720328D01*
X204795445Y-68742865D01*
X204834483Y-68787917D01*
X204840139Y-68799016D01*
X204881715Y-68880614D01*
X205002028Y-69046213D01*
X205146786Y-69190971D01*
X205267226Y-69278474D01*
X205312390Y-69311287D01*
X205395607Y-69353688D01*
X205494776Y-69404218D01*
X205494778Y-69404218D01*
X205494781Y-69404220D01*
X205585856Y-69433812D01*
X205689465Y-69467477D01*
X205790557Y-69483488D01*
X205891648Y-69499500D01*
X205891649Y-69499500D01*
X206096351Y-69499500D01*
X206096352Y-69499500D01*
X206298534Y-69467477D01*
X206493219Y-69404220D01*
X206675610Y-69311287D01*
X206804482Y-69217657D01*
X206841213Y-69190971D01*
X206841215Y-69190968D01*
X206841219Y-69190966D01*
X206985966Y-69046219D01*
X206985968Y-69046215D01*
X206985971Y-69046213D01*
X207106284Y-68880614D01*
X207106286Y-68880611D01*
X207106287Y-68880610D01*
X207153516Y-68787917D01*
X207201489Y-68737123D01*
X207269310Y-68720328D01*
X207335445Y-68742865D01*
X207374483Y-68787917D01*
X207380139Y-68799016D01*
X207421715Y-68880614D01*
X207542028Y-69046213D01*
X207686786Y-69190971D01*
X207807226Y-69278474D01*
X207852390Y-69311287D01*
X207935607Y-69353688D01*
X208034776Y-69404218D01*
X208034778Y-69404218D01*
X208034781Y-69404220D01*
X208125856Y-69433812D01*
X208229465Y-69467477D01*
X208330557Y-69483488D01*
X208431648Y-69499500D01*
X208431649Y-69499500D01*
X208636351Y-69499500D01*
X208636352Y-69499500D01*
X208838534Y-69467477D01*
X209033219Y-69404220D01*
X209215610Y-69311287D01*
X209344482Y-69217657D01*
X209381213Y-69190971D01*
X209381215Y-69190968D01*
X209381219Y-69190966D01*
X209525966Y-69046219D01*
X209594021Y-68952547D01*
X209649349Y-68909882D01*
X209718963Y-68903902D01*
X209780758Y-68936507D01*
X209812044Y-68986427D01*
X209839186Y-69068334D01*
X209931288Y-69217656D01*
X210055344Y-69341712D01*
X210204666Y-69433814D01*
X210371203Y-69488999D01*
X210473991Y-69499500D01*
X211674008Y-69499499D01*
X211776797Y-69488999D01*
X211943334Y-69433814D01*
X212092656Y-69341712D01*
X212216712Y-69217656D01*
X212308814Y-69068334D01*
X212363999Y-68901797D01*
X212374500Y-68799009D01*
X212374499Y-67598992D01*
X212363999Y-67496203D01*
X212308814Y-67329666D01*
X212216712Y-67180344D01*
X212092656Y-67056288D01*
X211943334Y-66964186D01*
X211776797Y-66909001D01*
X211776795Y-66909000D01*
X211674016Y-66898500D01*
X211674009Y-66898500D01*
X210744808Y-66898500D01*
X210677769Y-66878815D01*
X210657127Y-66862181D01*
X209075674Y-65280727D01*
X209075673Y-65280726D01*
X209075669Y-65280723D01*
X208969127Y-65209535D01*
X208850744Y-65160499D01*
X208850738Y-65160497D01*
X208725071Y-65135500D01*
X208725069Y-65135500D01*
X205118362Y-65135500D01*
X205051323Y-65115815D01*
X205005568Y-65063011D01*
X204995624Y-64993853D01*
X205024649Y-64930297D01*
X205030681Y-64923819D01*
X206025680Y-63928819D01*
X206087003Y-63895334D01*
X206113361Y-63892500D01*
X206159309Y-63892500D01*
X206336691Y-63892500D01*
X206993164Y-63892500D01*
X207060203Y-63912185D01*
X207080845Y-63928819D01*
X207097854Y-63945828D01*
X207257095Y-64061524D01*
X207324743Y-64095992D01*
X207432470Y-64150882D01*
X207432472Y-64150882D01*
X207432475Y-64150884D01*
X207532817Y-64183487D01*
X207619673Y-64211709D01*
X207814078Y-64242500D01*
X207814083Y-64242500D01*
X208010922Y-64242500D01*
X208205326Y-64211709D01*
X208392525Y-64150884D01*
X208394916Y-64149666D01*
X208421601Y-64136069D01*
X208567905Y-64061524D01*
X208727146Y-63945828D01*
X208866328Y-63806646D01*
X208982024Y-63647405D01*
X209071384Y-63472025D01*
X209132209Y-63284826D01*
X209147735Y-63186797D01*
X209163000Y-63090422D01*
X209163000Y-62893577D01*
X209132209Y-62699173D01*
X209071382Y-62511970D01*
X209023413Y-62417826D01*
X208982024Y-62336595D01*
X208866328Y-62177354D01*
X208727146Y-62038172D01*
X208567905Y-61922476D01*
X208392525Y-61833116D01*
X208392524Y-61833115D01*
X208390735Y-61832204D01*
X208339939Y-61784230D01*
X208323144Y-61716409D01*
X208345681Y-61650274D01*
X208390736Y-61611234D01*
X208567641Y-61521097D01*
X208602625Y-61495678D01*
X208602626Y-61495678D01*
X208041909Y-60934962D01*
X208105493Y-60917925D01*
X208219507Y-60852099D01*
X208312599Y-60759007D01*
X208378425Y-60644993D01*
X208395462Y-60581410D01*
X208956178Y-61142126D01*
X208956178Y-61142125D01*
X208981595Y-61107143D01*
X209070918Y-60931835D01*
X209131721Y-60744705D01*
X209162500Y-60550382D01*
X209162500Y-60353617D01*
X209131721Y-60159294D01*
X209070918Y-59972164D01*
X208981596Y-59796858D01*
X208956178Y-59761873D01*
X208956177Y-59761873D01*
X208395462Y-60322589D01*
X208378425Y-60259007D01*
X208312599Y-60144993D01*
X208219507Y-60051901D01*
X208105493Y-59986075D01*
X208041908Y-59969037D01*
X208602625Y-59408320D01*
X208602625Y-59408319D01*
X208573030Y-59386818D01*
X208530364Y-59331489D01*
X208524383Y-59261876D01*
X208556988Y-59200080D01*
X208617826Y-59165722D01*
X208645914Y-59162499D01*
X208710371Y-59162499D01*
X208710372Y-59162499D01*
X208769983Y-59156091D01*
X208904831Y-59105796D01*
X209020046Y-59019546D01*
X209106296Y-58904331D01*
X209156591Y-58769483D01*
X209163000Y-58709873D01*
X209162999Y-57114128D01*
X209156591Y-57054517D01*
X209150756Y-57038873D01*
X209106297Y-56919671D01*
X209106293Y-56919664D01*
X209020047Y-56804455D01*
X209020044Y-56804452D01*
X208904835Y-56718206D01*
X208904828Y-56718202D01*
X208769982Y-56667908D01*
X208769983Y-56667908D01*
X208710383Y-56661501D01*
X208710381Y-56661500D01*
X208710373Y-56661500D01*
X208710364Y-56661500D01*
X207114629Y-56661500D01*
X207114623Y-56661501D01*
X207055016Y-56667908D01*
X206920171Y-56718202D01*
X206920165Y-56718205D01*
X206885247Y-56744345D01*
X206819783Y-56768761D01*
X206751510Y-56753908D01*
X206723257Y-56732758D01*
X204013644Y-54023145D01*
X201234036Y-51243536D01*
X201234035Y-51243535D01*
X201234030Y-51243531D01*
X201179622Y-51207178D01*
X201179616Y-51207175D01*
X201174959Y-51204063D01*
X201086547Y-51144987D01*
X201004606Y-51111046D01*
X200922666Y-51077105D01*
X200922658Y-51077103D01*
X200748696Y-51042500D01*
X200748692Y-51042500D01*
X200748691Y-51042500D01*
X197401362Y-51042500D01*
X197334323Y-51022815D01*
X197313681Y-51006181D01*
X194738819Y-48431319D01*
X194724115Y-48404391D01*
X194707523Y-48378573D01*
X194706631Y-48372372D01*
X194705334Y-48369996D01*
X194702500Y-48343638D01*
X194702500Y-48157648D01*
X195803500Y-48157648D01*
X195803500Y-48362351D01*
X195835522Y-48564534D01*
X195898781Y-48759223D01*
X195948445Y-48856692D01*
X195991585Y-48941359D01*
X195991715Y-48941613D01*
X196112028Y-49107213D01*
X196256786Y-49251971D01*
X196411749Y-49364556D01*
X196422390Y-49372287D01*
X196538607Y-49431503D01*
X196604776Y-49465218D01*
X196604778Y-49465218D01*
X196604781Y-49465220D01*
X196709137Y-49499127D01*
X196799465Y-49528477D01*
X196900557Y-49544488D01*
X197001648Y-49560500D01*
X197001649Y-49560500D01*
X197206351Y-49560500D01*
X197206352Y-49560500D01*
X197408534Y-49528477D01*
X197603219Y-49465220D01*
X197785610Y-49372287D01*
X197878590Y-49304732D01*
X197951213Y-49251971D01*
X197951215Y-49251968D01*
X197951219Y-49251966D01*
X198095966Y-49107219D01*
X198095968Y-49107215D01*
X198095971Y-49107213D01*
X198216284Y-48941614D01*
X198216286Y-48941611D01*
X198216287Y-48941610D01*
X198263516Y-48848917D01*
X198311489Y-48798123D01*
X198379310Y-48781328D01*
X198445445Y-48803865D01*
X198484483Y-48848917D01*
X198526675Y-48931723D01*
X198531715Y-48941614D01*
X198652028Y-49107213D01*
X198796786Y-49251971D01*
X198951749Y-49364556D01*
X198962390Y-49372287D01*
X199078607Y-49431503D01*
X199144776Y-49465218D01*
X199144778Y-49465218D01*
X199144781Y-49465220D01*
X199249137Y-49499127D01*
X199339465Y-49528477D01*
X199440557Y-49544488D01*
X199541648Y-49560500D01*
X199541649Y-49560500D01*
X199746351Y-49560500D01*
X199746352Y-49560500D01*
X199948534Y-49528477D01*
X200143219Y-49465220D01*
X200325610Y-49372287D01*
X200418590Y-49304732D01*
X200491213Y-49251971D01*
X200491215Y-49251968D01*
X200491219Y-49251966D01*
X200635966Y-49107219D01*
X200635968Y-49107215D01*
X200635971Y-49107213D01*
X200756286Y-48941611D01*
X200756415Y-48941359D01*
X200803795Y-48848369D01*
X200851769Y-48797573D01*
X200919590Y-48780778D01*
X200985725Y-48803315D01*
X201024765Y-48848369D01*
X201072141Y-48941350D01*
X201072147Y-48941359D01*
X201104523Y-48985921D01*
X201104524Y-48985922D01*
X201784000Y-48306446D01*
X201784000Y-48312661D01*
X201811259Y-48414394D01*
X201863920Y-48505606D01*
X201938394Y-48580080D01*
X202029606Y-48632741D01*
X202131339Y-48660000D01*
X202137553Y-48660000D01*
X201458076Y-49339474D01*
X201502650Y-49371859D01*
X201684968Y-49464755D01*
X201879582Y-49527990D01*
X202081683Y-49560000D01*
X202286317Y-49560000D01*
X202488417Y-49527990D01*
X202683031Y-49464755D01*
X202865349Y-49371859D01*
X202909921Y-49339474D01*
X202230447Y-48660000D01*
X202236661Y-48660000D01*
X202338394Y-48632741D01*
X202429606Y-48580080D01*
X202504080Y-48505606D01*
X202556741Y-48414394D01*
X202584000Y-48312661D01*
X202584000Y-48306447D01*
X203263474Y-48985921D01*
X203295859Y-48941349D01*
X203388755Y-48759031D01*
X203451990Y-48564417D01*
X203484000Y-48362317D01*
X203484000Y-48157682D01*
X203451990Y-47955582D01*
X203388755Y-47760968D01*
X203295859Y-47578650D01*
X203263474Y-47534077D01*
X203263474Y-47534076D01*
X202584000Y-48213551D01*
X202584000Y-48207339D01*
X202556741Y-48105606D01*
X202504080Y-48014394D01*
X202429606Y-47939920D01*
X202338394Y-47887259D01*
X202236661Y-47860000D01*
X202230446Y-47860000D01*
X202909922Y-47180524D01*
X202909921Y-47180523D01*
X202865359Y-47148147D01*
X202865350Y-47148141D01*
X202683031Y-47055244D01*
X202488417Y-46992009D01*
X202286317Y-46960000D01*
X202081683Y-46960000D01*
X201879582Y-46992009D01*
X201684968Y-47055244D01*
X201502644Y-47148143D01*
X201458077Y-47180523D01*
X201458077Y-47180524D01*
X202137554Y-47860000D01*
X202131339Y-47860000D01*
X202029606Y-47887259D01*
X201938394Y-47939920D01*
X201863920Y-48014394D01*
X201811259Y-48105606D01*
X201784000Y-48207339D01*
X201784000Y-48213553D01*
X201104524Y-47534077D01*
X201104523Y-47534077D01*
X201072143Y-47578644D01*
X201024765Y-47671630D01*
X200976790Y-47722426D01*
X200908969Y-47739221D01*
X200842834Y-47716683D01*
X200803795Y-47671630D01*
X200756284Y-47578385D01*
X200635971Y-47412786D01*
X200491213Y-47268028D01*
X200325613Y-47147715D01*
X200325612Y-47147714D01*
X200325610Y-47147713D01*
X200251398Y-47109900D01*
X200143223Y-47054781D01*
X199948534Y-46991522D01*
X199773995Y-46963878D01*
X199746352Y-46959500D01*
X199541648Y-46959500D01*
X199517329Y-46963351D01*
X199339465Y-46991522D01*
X199144776Y-47054781D01*
X198962386Y-47147715D01*
X198796786Y-47268028D01*
X198652028Y-47412786D01*
X198531715Y-47578386D01*
X198484485Y-47671080D01*
X198436510Y-47721876D01*
X198368689Y-47738671D01*
X198302554Y-47716134D01*
X198263515Y-47671080D01*
X198216419Y-47578650D01*
X198216287Y-47578390D01*
X198184092Y-47534077D01*
X198095971Y-47412786D01*
X197951213Y-47268028D01*
X197785613Y-47147715D01*
X197785612Y-47147714D01*
X197785610Y-47147713D01*
X197711398Y-47109900D01*
X197603223Y-47054781D01*
X197408534Y-46991522D01*
X197233995Y-46963878D01*
X197206352Y-46959500D01*
X197001648Y-46959500D01*
X196977329Y-46963351D01*
X196799465Y-46991522D01*
X196604776Y-47054781D01*
X196422386Y-47147715D01*
X196256786Y-47268028D01*
X196112028Y-47412786D01*
X195991715Y-47578386D01*
X195898781Y-47760776D01*
X195835522Y-47955465D01*
X195803500Y-48157648D01*
X194702500Y-48157648D01*
X194702500Y-45694047D01*
X194722185Y-45627008D01*
X194738819Y-45606366D01*
X194793966Y-45551219D01*
X194793968Y-45551215D01*
X194793971Y-45551213D01*
X194846732Y-45478590D01*
X194914287Y-45385610D01*
X195007220Y-45203219D01*
X195070477Y-45008534D01*
X195102500Y-44806352D01*
X195102500Y-44601648D01*
X195070477Y-44399466D01*
X195007220Y-44204781D01*
X195007218Y-44204778D01*
X195007218Y-44204776D01*
X194973503Y-44138607D01*
X194914287Y-44022390D01*
X194906556Y-44011749D01*
X194793971Y-43856786D01*
X194649213Y-43712028D01*
X194483613Y-43591715D01*
X194483612Y-43591714D01*
X194483610Y-43591713D01*
X194426653Y-43562691D01*
X194301223Y-43498781D01*
X194106534Y-43435522D01*
X193931995Y-43407878D01*
X193904352Y-43403500D01*
X193699648Y-43403500D01*
X193675329Y-43407351D01*
X193497465Y-43435522D01*
X193302776Y-43498781D01*
X193120386Y-43591715D01*
X192954786Y-43712028D01*
X192810028Y-43856786D01*
X192689715Y-44022386D01*
X192596781Y-44204776D01*
X192533522Y-44399465D01*
X192501500Y-44601648D01*
X192501500Y-44806351D01*
X192533522Y-45008534D01*
X192596781Y-45203223D01*
X192689715Y-45385613D01*
X192810028Y-45551213D01*
X192865181Y-45606366D01*
X192898666Y-45667689D01*
X192901500Y-45694047D01*
X192901500Y-48856696D01*
X192936103Y-49030659D01*
X192936104Y-49030663D01*
X192936105Y-49030666D01*
X192947432Y-49058012D01*
X192947433Y-49058014D01*
X193003984Y-49194542D01*
X193003985Y-49194544D01*
X193048319Y-49260895D01*
X193048320Y-49260896D01*
X193048323Y-49260900D01*
X193072590Y-49297218D01*
X193102537Y-49342038D01*
X193102538Y-49342039D01*
X195806519Y-52046019D01*
X195840004Y-52107342D01*
X195835020Y-52177034D01*
X195793148Y-52232967D01*
X195727684Y-52257384D01*
X195718838Y-52257700D01*
X187703768Y-52257700D01*
X187636729Y-52238015D01*
X187616087Y-52221381D01*
X184858886Y-49464180D01*
X184825401Y-49402857D01*
X184830385Y-49333165D01*
X184872257Y-49277232D01*
X184937721Y-49252815D01*
X184946567Y-49252499D01*
X185308002Y-49252499D01*
X185308008Y-49252499D01*
X185410797Y-49241999D01*
X185577334Y-49186814D01*
X185726656Y-49094712D01*
X185850712Y-48970656D01*
X185942814Y-48821334D01*
X185942814Y-48821331D01*
X185946448Y-48815441D01*
X185998395Y-48768716D01*
X186067358Y-48757493D01*
X186131440Y-48785336D01*
X186139668Y-48792856D01*
X186278535Y-48931723D01*
X186278540Y-48931727D01*
X186450442Y-49056620D01*
X186639782Y-49153095D01*
X186841871Y-49218757D01*
X186908000Y-49229231D01*
X186908000Y-48185012D01*
X186965007Y-48217925D01*
X187092174Y-48252000D01*
X187223826Y-48252000D01*
X187350993Y-48217925D01*
X187408000Y-48185012D01*
X187408000Y-49229230D01*
X187474126Y-49218757D01*
X187474129Y-49218757D01*
X187676217Y-49153095D01*
X187865557Y-49056620D01*
X188037459Y-48931727D01*
X188037464Y-48931723D01*
X188187723Y-48781464D01*
X188187727Y-48781459D01*
X188312620Y-48609557D01*
X188409095Y-48420217D01*
X188474757Y-48218130D01*
X188474757Y-48218127D01*
X188508000Y-48008246D01*
X188508000Y-48002000D01*
X187591012Y-48002000D01*
X187623925Y-47944993D01*
X187658000Y-47817826D01*
X187658000Y-47686174D01*
X187623925Y-47559007D01*
X187591012Y-47502000D01*
X188508000Y-47502000D01*
X188508000Y-47495753D01*
X188474757Y-47285872D01*
X188474757Y-47285869D01*
X188409095Y-47083782D01*
X188312620Y-46894442D01*
X188187727Y-46722540D01*
X188187723Y-46722535D01*
X188037464Y-46572276D01*
X188037459Y-46572272D01*
X187865557Y-46447379D01*
X187676215Y-46350903D01*
X187474124Y-46285241D01*
X187408000Y-46274768D01*
X187408000Y-47318988D01*
X187350993Y-47286075D01*
X187223826Y-47252000D01*
X187092174Y-47252000D01*
X186965007Y-47286075D01*
X186908000Y-47318988D01*
X186908000Y-46274768D01*
X186907999Y-46274768D01*
X186841875Y-46285241D01*
X186639784Y-46350903D01*
X186450442Y-46447379D01*
X186278541Y-46572271D01*
X186139668Y-46711144D01*
X186078345Y-46744628D01*
X186008653Y-46739644D01*
X185952720Y-46697772D01*
X185946448Y-46688558D01*
X185850712Y-46533344D01*
X185726657Y-46409289D01*
X185726656Y-46409288D01*
X185631998Y-46350903D01*
X185577336Y-46317187D01*
X185577331Y-46317185D01*
X185575862Y-46316698D01*
X185410797Y-46262001D01*
X185410795Y-46262000D01*
X185308010Y-46251500D01*
X184007998Y-46251500D01*
X184007981Y-46251501D01*
X183905203Y-46262000D01*
X183905200Y-46262001D01*
X183738668Y-46317185D01*
X183738663Y-46317187D01*
X183589342Y-46409289D01*
X183465289Y-46533342D01*
X183373187Y-46682663D01*
X183373185Y-46682668D01*
X183357298Y-46730613D01*
X183318001Y-46849203D01*
X183318001Y-46849204D01*
X183318000Y-46849204D01*
X183307500Y-46951983D01*
X183307500Y-47613431D01*
X183287815Y-47680470D01*
X183235011Y-47726225D01*
X183165853Y-47736169D01*
X183102297Y-47707144D01*
X183095819Y-47701112D01*
X182649833Y-47255126D01*
X182645155Y-47252000D01*
X182543287Y-47183935D01*
X182535052Y-47180524D01*
X182424904Y-47134899D01*
X182424898Y-47134897D01*
X182299231Y-47109900D01*
X182299229Y-47109900D01*
X177846671Y-47109900D01*
X177779632Y-47090215D01*
X177736186Y-47042195D01*
X177710615Y-46992009D01*
X177665051Y-46902584D01*
X177665049Y-46902581D01*
X177665048Y-46902579D01*
X177540109Y-46730613D01*
X177389786Y-46580290D01*
X177217820Y-46455351D01*
X177028414Y-46358844D01*
X177028413Y-46358843D01*
X177028412Y-46358843D01*
X176826243Y-46293154D01*
X176826241Y-46293153D01*
X176826240Y-46293153D01*
X176664957Y-46267608D01*
X176616287Y-46259900D01*
X176403713Y-46259900D01*
X176355042Y-46267608D01*
X176193760Y-46293153D01*
X175991585Y-46358844D01*
X175802179Y-46455351D01*
X175630215Y-46580289D01*
X175491398Y-46719106D01*
X175430075Y-46752590D01*
X175360383Y-46747606D01*
X175304450Y-46705734D01*
X175298178Y-46696520D01*
X175202712Y-46541744D01*
X175078657Y-46417689D01*
X175078656Y-46417688D01*
X174929334Y-46325586D01*
X174762797Y-46270401D01*
X174762795Y-46270400D01*
X174660010Y-46259900D01*
X173359998Y-46259900D01*
X173359981Y-46259901D01*
X173257203Y-46270400D01*
X173257200Y-46270401D01*
X173090668Y-46325585D01*
X173090663Y-46325587D01*
X172941342Y-46417689D01*
X172817289Y-46541742D01*
X172725187Y-46691063D01*
X172725185Y-46691068D01*
X172712083Y-46730608D01*
X172670001Y-46857603D01*
X172670001Y-46857604D01*
X172670000Y-46857604D01*
X172659501Y-46960382D01*
X172659500Y-46960396D01*
X172659500Y-48560401D01*
X172659501Y-48560418D01*
X172670000Y-48663196D01*
X172670001Y-48663199D01*
X172724611Y-48827999D01*
X172725186Y-48829734D01*
X172817288Y-48979056D01*
X172941344Y-49103112D01*
X173090666Y-49195214D01*
X173257203Y-49250399D01*
X173359991Y-49260900D01*
X174539191Y-49260899D01*
X174606230Y-49280584D01*
X174626872Y-49297218D01*
X175525105Y-50195452D01*
X175525106Y-50195453D01*
X175525109Y-50195455D01*
X175525111Y-50195457D01*
X175631653Y-50266645D01*
X175750036Y-50315681D01*
X175750040Y-50315681D01*
X175750041Y-50315682D01*
X175875708Y-50340680D01*
X175875711Y-50340680D01*
X183135612Y-50340680D01*
X183202651Y-50360365D01*
X183223293Y-50376999D01*
X186760765Y-53914472D01*
X186760772Y-53914478D01*
X186853629Y-53976522D01*
X186867314Y-53985666D01*
X186936661Y-54014389D01*
X186985696Y-54034701D01*
X186985699Y-54034701D01*
X186985700Y-54034702D01*
X187111368Y-54059700D01*
X187111371Y-54059700D01*
X187111372Y-54059700D01*
X187239509Y-54059700D01*
X189137792Y-54059700D01*
X189204831Y-54079385D01*
X189225473Y-54096019D01*
X191964181Y-56834727D01*
X191997666Y-56896050D01*
X192000500Y-56922408D01*
X192000500Y-57587070D01*
X192004040Y-57604866D01*
X192015339Y-57661666D01*
X192023667Y-57703534D01*
X192025499Y-57712744D01*
X192061227Y-57799000D01*
X192074535Y-57831127D01*
X192145723Y-57937669D01*
X192145726Y-57937673D01*
X192494862Y-58286809D01*
X192528347Y-58348132D01*
X192529654Y-58393888D01*
X192501500Y-58571648D01*
X192501500Y-58776351D01*
X192533522Y-58978534D01*
X192596781Y-59173223D01*
X192641953Y-59261876D01*
X192687032Y-59350349D01*
X192689715Y-59355613D01*
X192810028Y-59521213D01*
X192954786Y-59665971D01*
X193107606Y-59776999D01*
X193120390Y-59786287D01*
X193236607Y-59845503D01*
X193302776Y-59879218D01*
X193302778Y-59879218D01*
X193302781Y-59879220D01*
X193407137Y-59913127D01*
X193497465Y-59942477D01*
X193598557Y-59958488D01*
X193699648Y-59974500D01*
X193699649Y-59974500D01*
X193904351Y-59974500D01*
X193904352Y-59974500D01*
X194106534Y-59942477D01*
X194259184Y-59892877D01*
X194329022Y-59890883D01*
X194388855Y-59926963D01*
X194419684Y-59989663D01*
X194421500Y-60010809D01*
X194421500Y-61087130D01*
X194401815Y-61154169D01*
X194349011Y-61199924D01*
X194336505Y-61204836D01*
X194202666Y-61249186D01*
X194202663Y-61249187D01*
X194053342Y-61341289D01*
X193929289Y-61465342D01*
X193837187Y-61614663D01*
X193837185Y-61614668D01*
X193824501Y-61652946D01*
X193782001Y-61781203D01*
X193782001Y-61781204D01*
X193782000Y-61781204D01*
X193771500Y-61883983D01*
X193771500Y-63084001D01*
X193771501Y-63084018D01*
X193782000Y-63186796D01*
X193782001Y-63186799D01*
X193815808Y-63288819D01*
X193837186Y-63353334D01*
X193929288Y-63502656D01*
X194053344Y-63626712D01*
X194074826Y-63639962D01*
X194121549Y-63691909D01*
X194132772Y-63760871D01*
X194104928Y-63824954D01*
X194046860Y-63863810D01*
X194009728Y-63869500D01*
X193083361Y-63869500D01*
X193016322Y-63849815D01*
X192995680Y-63833181D01*
X191582039Y-62419538D01*
X191582038Y-62419537D01*
X191525332Y-62381648D01*
X191484280Y-62354218D01*
X191434547Y-62320987D01*
X191352606Y-62287046D01*
X191347930Y-62285109D01*
X191347928Y-62285108D01*
X191270666Y-62253105D01*
X191270658Y-62253103D01*
X191096696Y-62218500D01*
X191096692Y-62218500D01*
X191096691Y-62218500D01*
X173490500Y-62218500D01*
X173423461Y-62198815D01*
X173377706Y-62146011D01*
X173366500Y-62094500D01*
X173366500Y-61384361D01*
X173386185Y-61317322D01*
X173402819Y-61296680D01*
X174549758Y-60149741D01*
X175705464Y-58994035D01*
X175708689Y-58989207D01*
X175713424Y-58982124D01*
X175804011Y-58846550D01*
X175804011Y-58846549D01*
X175804013Y-58846547D01*
X175830792Y-58781896D01*
X175871895Y-58682666D01*
X175906500Y-58508691D01*
X175906500Y-58423500D01*
X175926185Y-58356461D01*
X175978989Y-58310706D01*
X176030500Y-58299500D01*
X176555953Y-58299500D01*
X176622992Y-58319185D01*
X176643634Y-58335819D01*
X176698786Y-58390971D01*
X176819226Y-58478474D01*
X176864390Y-58511287D01*
X176960864Y-58560443D01*
X177046776Y-58604218D01*
X177046778Y-58604218D01*
X177046781Y-58604220D01*
X177151137Y-58638127D01*
X177241465Y-58667477D01*
X177337364Y-58682666D01*
X177443648Y-58699500D01*
X177443649Y-58699500D01*
X177648351Y-58699500D01*
X177648352Y-58699500D01*
X177850534Y-58667477D01*
X178045219Y-58604220D01*
X178227610Y-58511287D01*
X178323231Y-58441815D01*
X178393213Y-58390971D01*
X178393215Y-58390968D01*
X178393219Y-58390966D01*
X178537966Y-58246219D01*
X178537968Y-58246215D01*
X178537971Y-58246213D01*
X178658284Y-58080614D01*
X178658286Y-58080611D01*
X178658287Y-58080610D01*
X178705516Y-57987917D01*
X178753489Y-57937123D01*
X178821310Y-57920328D01*
X178887445Y-57942865D01*
X178926485Y-57987919D01*
X178973715Y-58080614D01*
X179094028Y-58246213D01*
X179238786Y-58390971D01*
X179359226Y-58478474D01*
X179404390Y-58511287D01*
X179500864Y-58560443D01*
X179586776Y-58604218D01*
X179586778Y-58604218D01*
X179586781Y-58604220D01*
X179691137Y-58638127D01*
X179781465Y-58667477D01*
X179877364Y-58682666D01*
X179983648Y-58699500D01*
X179983649Y-58699500D01*
X180188351Y-58699500D01*
X180188352Y-58699500D01*
X180390534Y-58667477D01*
X180585219Y-58604220D01*
X180767610Y-58511287D01*
X180863231Y-58441815D01*
X180933213Y-58390971D01*
X180933215Y-58390968D01*
X180933219Y-58390966D01*
X181077966Y-58246219D01*
X181077968Y-58246215D01*
X181077971Y-58246213D01*
X181198284Y-58080614D01*
X181198286Y-58080611D01*
X181198287Y-58080610D01*
X181245516Y-57987917D01*
X181293489Y-57937123D01*
X181361310Y-57920328D01*
X181427445Y-57942865D01*
X181466485Y-57987919D01*
X181513715Y-58080614D01*
X181634028Y-58246213D01*
X181778786Y-58390971D01*
X181899226Y-58478474D01*
X181944390Y-58511287D01*
X182040864Y-58560443D01*
X182126776Y-58604218D01*
X182126778Y-58604218D01*
X182126781Y-58604220D01*
X182231137Y-58638127D01*
X182321465Y-58667477D01*
X182417364Y-58682666D01*
X182523648Y-58699500D01*
X182523649Y-58699500D01*
X182728351Y-58699500D01*
X182728352Y-58699500D01*
X182930534Y-58667477D01*
X183125219Y-58604220D01*
X183307610Y-58511287D01*
X183403231Y-58441815D01*
X183473213Y-58390971D01*
X183473215Y-58390968D01*
X183473219Y-58390966D01*
X183617966Y-58246219D01*
X183617968Y-58246215D01*
X183617971Y-58246213D01*
X183738284Y-58080614D01*
X183738286Y-58080611D01*
X183738287Y-58080610D01*
X183785516Y-57987917D01*
X183833489Y-57937123D01*
X183901310Y-57920328D01*
X183967445Y-57942865D01*
X184006485Y-57987919D01*
X184053715Y-58080614D01*
X184174028Y-58246213D01*
X184318786Y-58390971D01*
X184439226Y-58478474D01*
X184484390Y-58511287D01*
X184580864Y-58560443D01*
X184666776Y-58604218D01*
X184666778Y-58604218D01*
X184666781Y-58604220D01*
X184771137Y-58638127D01*
X184861465Y-58667477D01*
X184957364Y-58682666D01*
X185063648Y-58699500D01*
X185063649Y-58699500D01*
X185268351Y-58699500D01*
X185268352Y-58699500D01*
X185470534Y-58667477D01*
X185665219Y-58604220D01*
X185847610Y-58511287D01*
X185943231Y-58441815D01*
X186013213Y-58390971D01*
X186013215Y-58390968D01*
X186013219Y-58390966D01*
X186157966Y-58246219D01*
X186157968Y-58246215D01*
X186157971Y-58246213D01*
X186278284Y-58080614D01*
X186278286Y-58080611D01*
X186278287Y-58080610D01*
X186325516Y-57987917D01*
X186373489Y-57937123D01*
X186441310Y-57920328D01*
X186507445Y-57942865D01*
X186546485Y-57987919D01*
X186593715Y-58080614D01*
X186714028Y-58246213D01*
X186858786Y-58390971D01*
X186979226Y-58478474D01*
X187024390Y-58511287D01*
X187120864Y-58560443D01*
X187206776Y-58604218D01*
X187206778Y-58604218D01*
X187206781Y-58604220D01*
X187311137Y-58638127D01*
X187401465Y-58667477D01*
X187497364Y-58682666D01*
X187603648Y-58699500D01*
X187603649Y-58699500D01*
X187808351Y-58699500D01*
X187808352Y-58699500D01*
X188010534Y-58667477D01*
X188205219Y-58604220D01*
X188387610Y-58511287D01*
X188483231Y-58441815D01*
X188553213Y-58390971D01*
X188553215Y-58390968D01*
X188553219Y-58390966D01*
X188697966Y-58246219D01*
X188697968Y-58246215D01*
X188697971Y-58246213D01*
X188818284Y-58080614D01*
X188818286Y-58080611D01*
X188818287Y-58080610D01*
X188865516Y-57987917D01*
X188913489Y-57937123D01*
X188981310Y-57920328D01*
X189047445Y-57942865D01*
X189086485Y-57987919D01*
X189133715Y-58080614D01*
X189254028Y-58246213D01*
X189398786Y-58390971D01*
X189519226Y-58478474D01*
X189564390Y-58511287D01*
X189660864Y-58560443D01*
X189746776Y-58604218D01*
X189746778Y-58604218D01*
X189746781Y-58604220D01*
X189851137Y-58638127D01*
X189941465Y-58667477D01*
X190037364Y-58682666D01*
X190143648Y-58699500D01*
X190143649Y-58699500D01*
X190348351Y-58699500D01*
X190348352Y-58699500D01*
X190550534Y-58667477D01*
X190745219Y-58604220D01*
X190927610Y-58511287D01*
X191023231Y-58441815D01*
X191093213Y-58390971D01*
X191093215Y-58390968D01*
X191093219Y-58390966D01*
X191237966Y-58246219D01*
X191237968Y-58246215D01*
X191237971Y-58246213D01*
X191316630Y-58137946D01*
X191358287Y-58080610D01*
X191451220Y-57898219D01*
X191514477Y-57703534D01*
X191546500Y-57501352D01*
X191546500Y-57296648D01*
X191545427Y-57289873D01*
X191514477Y-57094465D01*
X191458572Y-56922408D01*
X191451220Y-56899781D01*
X191451218Y-56899778D01*
X191451218Y-56899776D01*
X191402647Y-56804452D01*
X191358287Y-56717390D01*
X191326092Y-56673077D01*
X191237971Y-56551786D01*
X191093213Y-56407028D01*
X190927613Y-56286715D01*
X190927612Y-56286714D01*
X190927610Y-56286713D01*
X190870653Y-56257691D01*
X190745223Y-56193781D01*
X190550534Y-56130522D01*
X190375995Y-56102878D01*
X190348352Y-56098500D01*
X190143648Y-56098500D01*
X190119329Y-56102351D01*
X189941465Y-56130522D01*
X189746776Y-56193781D01*
X189564386Y-56286715D01*
X189398786Y-56407028D01*
X189254028Y-56551786D01*
X189133715Y-56717386D01*
X189086485Y-56810080D01*
X189038510Y-56860876D01*
X188970689Y-56877671D01*
X188904554Y-56855134D01*
X188865515Y-56810080D01*
X188862647Y-56804452D01*
X188818287Y-56717390D01*
X188786092Y-56673077D01*
X188697971Y-56551786D01*
X188553213Y-56407028D01*
X188387613Y-56286715D01*
X188387612Y-56286714D01*
X188387610Y-56286713D01*
X188330653Y-56257691D01*
X188205223Y-56193781D01*
X188010534Y-56130522D01*
X187835995Y-56102878D01*
X187808352Y-56098500D01*
X187603648Y-56098500D01*
X187579329Y-56102351D01*
X187401465Y-56130522D01*
X187206776Y-56193781D01*
X187024386Y-56286715D01*
X186858786Y-56407028D01*
X186714028Y-56551786D01*
X186593715Y-56717386D01*
X186546485Y-56810080D01*
X186498510Y-56860876D01*
X186430689Y-56877671D01*
X186364554Y-56855134D01*
X186325515Y-56810080D01*
X186322647Y-56804452D01*
X186278287Y-56717390D01*
X186246092Y-56673077D01*
X186157971Y-56551786D01*
X186013213Y-56407028D01*
X185847613Y-56286715D01*
X185847612Y-56286714D01*
X185847610Y-56286713D01*
X185790653Y-56257691D01*
X185665223Y-56193781D01*
X185470534Y-56130522D01*
X185295995Y-56102878D01*
X185268352Y-56098500D01*
X185063648Y-56098500D01*
X185039329Y-56102351D01*
X184861465Y-56130522D01*
X184666776Y-56193781D01*
X184484386Y-56286715D01*
X184318786Y-56407028D01*
X184174028Y-56551786D01*
X184053715Y-56717386D01*
X184006485Y-56810080D01*
X183958510Y-56860876D01*
X183890689Y-56877671D01*
X183824554Y-56855134D01*
X183785515Y-56810080D01*
X183782647Y-56804452D01*
X183738287Y-56717390D01*
X183706092Y-56673077D01*
X183617971Y-56551786D01*
X183473213Y-56407028D01*
X183307613Y-56286715D01*
X183307612Y-56286714D01*
X183307610Y-56286713D01*
X183250653Y-56257691D01*
X183125223Y-56193781D01*
X182930535Y-56130523D01*
X182886524Y-56123552D01*
X182823389Y-56093622D01*
X182786459Y-56034310D01*
X182787457Y-55964448D01*
X182826068Y-55906215D01*
X182886533Y-55878604D01*
X182890424Y-55877987D01*
X183085031Y-55814755D01*
X183267349Y-55721859D01*
X183311921Y-55689474D01*
X182632446Y-55010000D01*
X182638661Y-55010000D01*
X182740394Y-54982741D01*
X182831606Y-54930080D01*
X182906080Y-54855606D01*
X182958741Y-54764394D01*
X182986000Y-54662661D01*
X182986000Y-54656447D01*
X183665474Y-55335921D01*
X183697859Y-55291349D01*
X183790755Y-55109031D01*
X183853990Y-54914417D01*
X183886000Y-54712317D01*
X183886000Y-54507682D01*
X183853990Y-54305582D01*
X183790755Y-54110968D01*
X183697859Y-53928650D01*
X183665474Y-53884077D01*
X183665474Y-53884076D01*
X182986000Y-54563551D01*
X182986000Y-54557339D01*
X182958741Y-54455606D01*
X182906080Y-54364394D01*
X182831606Y-54289920D01*
X182740394Y-54237259D01*
X182638661Y-54210000D01*
X182632446Y-54210000D01*
X183311922Y-53530524D01*
X183311921Y-53530523D01*
X183267359Y-53498147D01*
X183267350Y-53498141D01*
X183085031Y-53405244D01*
X182890417Y-53342009D01*
X182688317Y-53310000D01*
X182483683Y-53310000D01*
X182281582Y-53342009D01*
X182086968Y-53405244D01*
X181904644Y-53498143D01*
X181860077Y-53530523D01*
X181860077Y-53530524D01*
X182539554Y-54210000D01*
X182533339Y-54210000D01*
X182431606Y-54237259D01*
X182340394Y-54289920D01*
X182265920Y-54364394D01*
X182213259Y-54455606D01*
X182186000Y-54557339D01*
X182186000Y-54563553D01*
X181506524Y-53884077D01*
X181506523Y-53884077D01*
X181474143Y-53928644D01*
X181381244Y-54110968D01*
X181318009Y-54305582D01*
X181286000Y-54507682D01*
X181286000Y-54712318D01*
X181306607Y-54842429D01*
X181297652Y-54911722D01*
X181252656Y-54965174D01*
X181185904Y-54985813D01*
X181118591Y-54967088D01*
X181096453Y-54949507D01*
X179812411Y-53665464D01*
X178981673Y-52834726D01*
X178981669Y-52834723D01*
X178875127Y-52763535D01*
X178756744Y-52714499D01*
X178756738Y-52714497D01*
X178631071Y-52689500D01*
X178631069Y-52689500D01*
X153097931Y-52689500D01*
X153097929Y-52689500D01*
X152972261Y-52714497D01*
X152972255Y-52714499D01*
X152853870Y-52763535D01*
X152747331Y-52834722D01*
X152747324Y-52834728D01*
X151132725Y-54449328D01*
X151132724Y-54449329D01*
X151084631Y-54521308D01*
X151084629Y-54521310D01*
X151061539Y-54555864D01*
X151061533Y-54555875D01*
X151012499Y-54674255D01*
X151012497Y-54674261D01*
X150987500Y-54799928D01*
X150987500Y-58337500D01*
X150967815Y-58404539D01*
X150915011Y-58450294D01*
X150863501Y-58461500D01*
X150740130Y-58461500D01*
X150740123Y-58461501D01*
X150680516Y-58467908D01*
X150545671Y-58518202D01*
X150545664Y-58518206D01*
X150430455Y-58604452D01*
X150430452Y-58604455D01*
X150344206Y-58719664D01*
X150344203Y-58719669D01*
X150295189Y-58851083D01*
X150253317Y-58907016D01*
X150187853Y-58931433D01*
X150119580Y-58916581D01*
X150091326Y-58895430D01*
X149977786Y-58781890D01*
X149805820Y-58656951D01*
X149616414Y-58560444D01*
X149616413Y-58560443D01*
X149616412Y-58560443D01*
X149414243Y-58494754D01*
X149414241Y-58494753D01*
X149414240Y-58494753D01*
X149252957Y-58469208D01*
X149204287Y-58461500D01*
X148991713Y-58461500D01*
X148943042Y-58469208D01*
X148781760Y-58494753D01*
X148579585Y-58560444D01*
X148390179Y-58656951D01*
X148218213Y-58781890D01*
X148067890Y-58932213D01*
X147942949Y-59104182D01*
X147938484Y-59112946D01*
X147890509Y-59163742D01*
X147822688Y-59180536D01*
X147756553Y-59157998D01*
X147717516Y-59112946D01*
X147713050Y-59104182D01*
X147588109Y-58932213D01*
X147437786Y-58781890D01*
X147265820Y-58656951D01*
X147076414Y-58560444D01*
X147076413Y-58560443D01*
X147076412Y-58560443D01*
X146874243Y-58494754D01*
X146874241Y-58494753D01*
X146874240Y-58494753D01*
X146712957Y-58469208D01*
X146664287Y-58461500D01*
X146451713Y-58461500D01*
X146353851Y-58477000D01*
X146236945Y-58495516D01*
X146236686Y-58493882D01*
X146174094Y-58490730D01*
X146127288Y-58461342D01*
X144704819Y-57038873D01*
X144671334Y-56977550D01*
X144668500Y-56951192D01*
X144668500Y-56443070D01*
X144688185Y-56376031D01*
X144719613Y-56342753D01*
X144865219Y-56236966D01*
X145009966Y-56092219D01*
X145009968Y-56092215D01*
X145009971Y-56092213D01*
X145089884Y-55982220D01*
X145130287Y-55926610D01*
X145223220Y-55744219D01*
X145286477Y-55549534D01*
X145318500Y-55347352D01*
X145318500Y-55142648D01*
X145314979Y-55120415D01*
X145286477Y-54940465D01*
X145240813Y-54799928D01*
X145223220Y-54745781D01*
X145223218Y-54745778D01*
X145223218Y-54745776D01*
X145186776Y-54674255D01*
X145130287Y-54563390D01*
X145100224Y-54522011D01*
X145009971Y-54397786D01*
X144865213Y-54253028D01*
X144699613Y-54132715D01*
X144699612Y-54132714D01*
X144699610Y-54132713D01*
X144602000Y-54082978D01*
X144517223Y-54039781D01*
X144322534Y-53976522D01*
X144147995Y-53948878D01*
X144120352Y-53944500D01*
X143915648Y-53944500D01*
X143891329Y-53948351D01*
X143713465Y-53976522D01*
X143518776Y-54039781D01*
X143336386Y-54132715D01*
X143170786Y-54253028D01*
X143026034Y-54397780D01*
X143026030Y-54397786D01*
X142920246Y-54543386D01*
X142915914Y-54546726D01*
X142913642Y-54551703D01*
X142888545Y-54567831D01*
X142864918Y-54586051D01*
X142858244Y-54587304D01*
X142854864Y-54589477D01*
X142819929Y-54594500D01*
X142617711Y-54594500D01*
X142550672Y-54574815D01*
X142504917Y-54522011D01*
X142495238Y-54489897D01*
X142492478Y-54472470D01*
X142492477Y-54472468D01*
X142492477Y-54472466D01*
X142429220Y-54277781D01*
X142336287Y-54095390D01*
X142324659Y-54079385D01*
X142215971Y-53929786D01*
X142071213Y-53785028D01*
X141905613Y-53664715D01*
X141905612Y-53664714D01*
X141905610Y-53664713D01*
X141834385Y-53628422D01*
X141723223Y-53571781D01*
X141528534Y-53508522D01*
X141353995Y-53480878D01*
X141326352Y-53476500D01*
X141121648Y-53476500D01*
X141097329Y-53480351D01*
X140919465Y-53508522D01*
X140724776Y-53571781D01*
X140542386Y-53664715D01*
X140376786Y-53785028D01*
X140232028Y-53929786D01*
X140111715Y-54095386D01*
X140018781Y-54277776D01*
X139955522Y-54472465D01*
X139923500Y-54674648D01*
X139923500Y-54879351D01*
X139955522Y-55081534D01*
X140018781Y-55276223D01*
X140078312Y-55393057D01*
X140111004Y-55457219D01*
X140111715Y-55458613D01*
X140232028Y-55624213D01*
X140376786Y-55768971D01*
X140527686Y-55878604D01*
X140542390Y-55889287D01*
X140654902Y-55946615D01*
X140724776Y-55982218D01*
X140724778Y-55982218D01*
X140724781Y-55982220D01*
X140829137Y-56016127D01*
X140919465Y-56045477D01*
X141020557Y-56061488D01*
X141121648Y-56077500D01*
X141121649Y-56077500D01*
X141326351Y-56077500D01*
X141326352Y-56077500D01*
X141528534Y-56045477D01*
X141723219Y-55982220D01*
X141866891Y-55909014D01*
X141923186Y-55895500D01*
X142819929Y-55895500D01*
X142886968Y-55915185D01*
X142920245Y-55946613D01*
X142992074Y-56045477D01*
X143026034Y-56092219D01*
X143170784Y-56236969D01*
X143220500Y-56273089D01*
X143316385Y-56342753D01*
X143359051Y-56398081D01*
X143367500Y-56443070D01*
X143367500Y-57336071D01*
X143383462Y-57416312D01*
X143387793Y-57438086D01*
X143391563Y-57457039D01*
X143392499Y-57461745D01*
X143433908Y-57561715D01*
X143441535Y-57580127D01*
X143470206Y-57623037D01*
X143512726Y-57686673D01*
X143512727Y-57686674D01*
X145207342Y-59381288D01*
X145240827Y-59442611D01*
X145240319Y-59490755D01*
X145241516Y-59490945D01*
X145207500Y-59705713D01*
X145207500Y-59918286D01*
X145238431Y-60113581D01*
X145240754Y-60128243D01*
X145297075Y-60301581D01*
X145306444Y-60330414D01*
X145402951Y-60519820D01*
X145527890Y-60691786D01*
X145678213Y-60842109D01*
X145850179Y-60967048D01*
X145850181Y-60967049D01*
X145850184Y-60967051D01*
X145859493Y-60971794D01*
X145910290Y-61019766D01*
X145927087Y-61087587D01*
X145904552Y-61153722D01*
X145859505Y-61192760D01*
X145850446Y-61197376D01*
X145850440Y-61197380D01*
X145796282Y-61236727D01*
X145796282Y-61236728D01*
X146428591Y-61869037D01*
X146365007Y-61886075D01*
X146250993Y-61951901D01*
X146157901Y-62044993D01*
X146092075Y-62159007D01*
X146075037Y-62222591D01*
X145442728Y-61590282D01*
X145442727Y-61590282D01*
X145403380Y-61644439D01*
X145306904Y-61833782D01*
X145241242Y-62035869D01*
X145241242Y-62035872D01*
X145208000Y-62245753D01*
X145208000Y-62458246D01*
X145241242Y-62668127D01*
X145241242Y-62668130D01*
X145306904Y-62870217D01*
X145403375Y-63059550D01*
X145442728Y-63113716D01*
X146075037Y-62481408D01*
X146092075Y-62544993D01*
X146157901Y-62659007D01*
X146250993Y-62752099D01*
X146365007Y-62817925D01*
X146428589Y-62834962D01*
X145796282Y-63467269D01*
X145796282Y-63467270D01*
X145850449Y-63506624D01*
X146039782Y-63603095D01*
X146241870Y-63668757D01*
X146451754Y-63702000D01*
X146664246Y-63702000D01*
X146874127Y-63668757D01*
X146874130Y-63668757D01*
X147080854Y-63601588D01*
X147081284Y-63602912D01*
X147144501Y-63596107D01*
X147206984Y-63627374D01*
X147242644Y-63687459D01*
X147246500Y-63718140D01*
X147246500Y-64136070D01*
X147253604Y-64171781D01*
X147263392Y-64220987D01*
X147271499Y-64261744D01*
X147320535Y-64380127D01*
X147388219Y-64481425D01*
X147391726Y-64486673D01*
X148429327Y-65524274D01*
X148429330Y-65524276D01*
X148494788Y-65568013D01*
X148535873Y-65595465D01*
X148654256Y-65644501D01*
X148654260Y-65644501D01*
X148654261Y-65644502D01*
X148779928Y-65669500D01*
X148779931Y-65669500D01*
X150568146Y-65669500D01*
X150635185Y-65689185D01*
X150680940Y-65741989D01*
X150690884Y-65811147D01*
X150661859Y-65874703D01*
X150603081Y-65912477D01*
X150592338Y-65915117D01*
X150560261Y-65921497D01*
X150560255Y-65921499D01*
X150441874Y-65970534D01*
X150335326Y-66041726D01*
X149485190Y-66891862D01*
X149423867Y-66925347D01*
X149378111Y-66926654D01*
X149232611Y-66903609D01*
X149200352Y-66898500D01*
X148995648Y-66898500D01*
X148971329Y-66902351D01*
X148793465Y-66930522D01*
X148598776Y-66993781D01*
X148416386Y-67086715D01*
X148250786Y-67207028D01*
X148106028Y-67351786D01*
X147985715Y-67517386D01*
X147938485Y-67610080D01*
X147890510Y-67660876D01*
X147822689Y-67677671D01*
X147756554Y-67655134D01*
X147717515Y-67610080D01*
X147688570Y-67553273D01*
X147670287Y-67517390D01*
X147638092Y-67473077D01*
X147549971Y-67351786D01*
X147405213Y-67207028D01*
X147239613Y-67086715D01*
X147239612Y-67086714D01*
X147239610Y-67086713D01*
X147160325Y-67046315D01*
X147057223Y-66993781D01*
X146862534Y-66930522D01*
X146687995Y-66902878D01*
X146660352Y-66898500D01*
X146455648Y-66898500D01*
X146431329Y-66902351D01*
X146253465Y-66930522D01*
X146058776Y-66993781D01*
X145876386Y-67086715D01*
X145710786Y-67207028D01*
X145566028Y-67351786D01*
X145445715Y-67517386D01*
X145398485Y-67610080D01*
X145350510Y-67660876D01*
X145282689Y-67677671D01*
X145216554Y-67655134D01*
X145177515Y-67610080D01*
X145148570Y-67553273D01*
X145130287Y-67517390D01*
X145098092Y-67473077D01*
X145009971Y-67351786D01*
X144865213Y-67207028D01*
X144699613Y-67086715D01*
X144699612Y-67086714D01*
X144699610Y-67086713D01*
X144620325Y-67046315D01*
X144517223Y-66993781D01*
X144322534Y-66930522D01*
X144147995Y-66902878D01*
X144120352Y-66898500D01*
X143915648Y-66898500D01*
X143891329Y-66902351D01*
X143713465Y-66930522D01*
X143518776Y-66993781D01*
X143336386Y-67086715D01*
X143170786Y-67207028D01*
X143026028Y-67351786D01*
X142905715Y-67517386D01*
X142858485Y-67610080D01*
X142810510Y-67660876D01*
X142742689Y-67677671D01*
X142676554Y-67655134D01*
X142637515Y-67610080D01*
X142608570Y-67553273D01*
X142590287Y-67517390D01*
X142558092Y-67473077D01*
X142469971Y-67351786D01*
X142325213Y-67207028D01*
X142159613Y-67086715D01*
X142159612Y-67086714D01*
X142159610Y-67086713D01*
X142080325Y-67046315D01*
X141977223Y-66993781D01*
X141782534Y-66930522D01*
X141607995Y-66902878D01*
X141580352Y-66898500D01*
X141375648Y-66898500D01*
X141351329Y-66902351D01*
X141173465Y-66930522D01*
X140978776Y-66993781D01*
X140796386Y-67086715D01*
X140630786Y-67207028D01*
X140486028Y-67351786D01*
X140365713Y-67517388D01*
X140318203Y-67610630D01*
X140270228Y-67661426D01*
X140202407Y-67678220D01*
X140136272Y-67655682D01*
X140097234Y-67610628D01*
X140049861Y-67517652D01*
X140017474Y-67473077D01*
X140017474Y-67473076D01*
X139338000Y-68152551D01*
X139338000Y-68146339D01*
X139310741Y-68044606D01*
X139258080Y-67953394D01*
X139183606Y-67878920D01*
X139092394Y-67826259D01*
X138990661Y-67799000D01*
X138984446Y-67799000D01*
X139663922Y-67119524D01*
X139663921Y-67119523D01*
X139619359Y-67087147D01*
X139619350Y-67087141D01*
X139437031Y-66994244D01*
X139242417Y-66931009D01*
X139040317Y-66899000D01*
X138835683Y-66899000D01*
X138633582Y-66931009D01*
X138438968Y-66994244D01*
X138256644Y-67087143D01*
X138212077Y-67119523D01*
X138212077Y-67119524D01*
X138891554Y-67799000D01*
X138885339Y-67799000D01*
X138783606Y-67826259D01*
X138692394Y-67878920D01*
X138617920Y-67953394D01*
X138565259Y-68044606D01*
X138538000Y-68146339D01*
X138538000Y-68152553D01*
X137858524Y-67473077D01*
X137858523Y-67473077D01*
X137826143Y-67517644D01*
X137733244Y-67699968D01*
X137670009Y-67894582D01*
X137638000Y-68096682D01*
X127823500Y-68096682D01*
X127823500Y-59674682D01*
X139924000Y-59674682D01*
X139924000Y-59879317D01*
X139956009Y-60081417D01*
X140019244Y-60276031D01*
X140112141Y-60458350D01*
X140112147Y-60458359D01*
X140144523Y-60502921D01*
X140144524Y-60502922D01*
X140824000Y-59823446D01*
X140824000Y-59829661D01*
X140851259Y-59931394D01*
X140903920Y-60022606D01*
X140978394Y-60097080D01*
X141069606Y-60149741D01*
X141171339Y-60177000D01*
X141177553Y-60177000D01*
X140498076Y-60856474D01*
X140542650Y-60888859D01*
X140724968Y-60981755D01*
X140919582Y-61044990D01*
X141121683Y-61077000D01*
X141326317Y-61077000D01*
X141528417Y-61044990D01*
X141723031Y-60981755D01*
X141905349Y-60888859D01*
X141949921Y-60856474D01*
X141270447Y-60177000D01*
X141276661Y-60177000D01*
X141378394Y-60149741D01*
X141469606Y-60097080D01*
X141544080Y-60022606D01*
X141596741Y-59931394D01*
X141624000Y-59829661D01*
X141624000Y-59823448D01*
X142303474Y-60502922D01*
X142303474Y-60502921D01*
X142335859Y-60458349D01*
X142428755Y-60276031D01*
X142491990Y-60081417D01*
X142524000Y-59879317D01*
X142524000Y-59674682D01*
X142491990Y-59472582D01*
X142428755Y-59277968D01*
X142335859Y-59095650D01*
X142303474Y-59051077D01*
X142303474Y-59051076D01*
X141624000Y-59730551D01*
X141624000Y-59724339D01*
X141596741Y-59622606D01*
X141544080Y-59531394D01*
X141469606Y-59456920D01*
X141378394Y-59404259D01*
X141276661Y-59377000D01*
X141270446Y-59377000D01*
X141949922Y-58697524D01*
X141949921Y-58697523D01*
X141905359Y-58665147D01*
X141905350Y-58665141D01*
X141723031Y-58572244D01*
X141528417Y-58509009D01*
X141326317Y-58477000D01*
X141121683Y-58477000D01*
X140919582Y-58509009D01*
X140724968Y-58572244D01*
X140542644Y-58665143D01*
X140498077Y-58697523D01*
X140498077Y-58697524D01*
X141177554Y-59377000D01*
X141171339Y-59377000D01*
X141069606Y-59404259D01*
X140978394Y-59456920D01*
X140903920Y-59531394D01*
X140851259Y-59622606D01*
X140824000Y-59724339D01*
X140824000Y-59730553D01*
X140144524Y-59051077D01*
X140144523Y-59051077D01*
X140112143Y-59095644D01*
X140019244Y-59277968D01*
X139956009Y-59472582D01*
X139924000Y-59674682D01*
X127823500Y-59674682D01*
X127823500Y-42742500D01*
X127843185Y-42675461D01*
X127895989Y-42629706D01*
X127947500Y-42618500D01*
X214000500Y-42618500D01*
X214067539Y-42638185D01*
G37*
G04 #@! TD.AperFunction*
G04 #@! TA.AperFunction,Conductor*
G36*
X182918586Y-73877921D02*
G01*
X182956393Y-73874946D01*
X183024771Y-73889310D01*
X183074528Y-73938361D01*
X183083827Y-73959556D01*
X183102634Y-74016310D01*
X183104299Y-74021333D01*
X183104300Y-74021336D01*
X183139182Y-74077888D01*
X183196401Y-74170656D01*
X183320457Y-74294712D01*
X183419595Y-74355860D01*
X183466320Y-74407807D01*
X183477543Y-74476770D01*
X183449700Y-74540852D01*
X183391631Y-74579709D01*
X183354135Y-74585398D01*
X182410965Y-74582632D01*
X182343984Y-74562751D01*
X182298384Y-74509813D01*
X182288643Y-74440626D01*
X182317855Y-74377156D01*
X182355035Y-74348148D01*
X182520459Y-74263861D01*
X182520460Y-74263861D01*
X182565034Y-74231474D01*
X181885560Y-73552000D01*
X181891774Y-73552000D01*
X181993507Y-73524741D01*
X182084719Y-73472080D01*
X182159193Y-73397606D01*
X182211854Y-73306394D01*
X182239113Y-73204661D01*
X182239113Y-73198448D01*
X182918586Y-73877921D01*
G37*
G04 #@! TD.AperFunction*
G04 #@! TA.AperFunction,Conductor*
G36*
X130848585Y-74004921D02*
G01*
X130886392Y-74001946D01*
X130954770Y-74016310D01*
X131004527Y-74065361D01*
X131007097Y-74070242D01*
X131011045Y-74078162D01*
X131034298Y-74148334D01*
X131095457Y-74247489D01*
X131097958Y-74252506D01*
X131103159Y-74281610D01*
X131110962Y-74310125D01*
X131109238Y-74315617D01*
X131110251Y-74321285D01*
X131098891Y-74348581D01*
X131090039Y-74376788D01*
X131085619Y-74380476D01*
X131083407Y-74385793D01*
X131059091Y-74402616D01*
X131036397Y-74421557D01*
X131029726Y-74422933D01*
X131025949Y-74425547D01*
X131015299Y-74425909D01*
X130986619Y-74431827D01*
X130618306Y-74430747D01*
X130551325Y-74410866D01*
X130530989Y-74394429D01*
X129815559Y-73679000D01*
X129821773Y-73679000D01*
X129923506Y-73651741D01*
X130014718Y-73599080D01*
X130089192Y-73524606D01*
X130141853Y-73433394D01*
X130169112Y-73331661D01*
X130169112Y-73325448D01*
X130848585Y-74004921D01*
G37*
G04 #@! TD.AperFunction*
M02*
