M48
; DRILL file {KiCad 9.0.5} date 2025-10-26T11:27:22+0100
; FORMAT={-:-/ absolute / metric / decimal}
; #@! TF.CreationDate,2025-10-26T11:27:22+01:00
; #@! TF.GenerationSoftware,Kicad,Pcbnew,9.0.5
; #@! TF.FileFunction,Plated,1,2,PTH
FMAT,2
METRIC
; #@! TA.AperFunction,Plated,PTH,ComponentDrill
T1C0.650
; #@! TA.AperFunction,Plated,PTH,ComponentDrill
T2C0.800
; #@! TA.AperFunction,Plated,PTH,ComponentDrill
T3C0.850
; #@! TA.AperFunction,Plated,PTH,ComponentDrill
T4C1.000
%
G90
G05
T1
X135.509Y-90.551
X136.779Y-90.551
X138.049Y-90.551
X139.319Y-90.551
X140.589Y-90.551
X141.859Y-90.551
X143.129Y-90.551
X144.399Y-90.551
X145.669Y-90.551
X146.939Y-90.551
X148.209Y-90.551
X149.479Y-90.551
X150.749Y-90.551
X152.019Y-90.551
X153.289Y-90.551
X154.559Y-90.551
X155.829Y-90.551
X157.099Y-90.551
X158.369Y-90.551
X159.639Y-90.551
X160.909Y-90.551
X162.179Y-90.551
X163.449Y-90.551
X164.719Y-90.551
X195.723Y-90.551
X196.993Y-90.551
X198.263Y-90.551
X199.533Y-90.551
X200.803Y-90.551
X202.073Y-90.551
X203.343Y-90.551
X204.613Y-90.551
X205.883Y-90.551
X207.153Y-90.551
X208.423Y-90.551
X209.693Y-90.551
T2
X141.224Y-54.777
X141.224Y-59.777
X144.018Y-55.245
X154.178Y-55.245
X157.226Y-57.399
X157.226Y-65.019
X159.766Y-57.399
X159.766Y-65.019
X162.306Y-57.399
X162.306Y-65.019
X164.846Y-57.399
X164.846Y-65.019
X167.386Y-57.399
X167.386Y-65.019
X167.426Y-67.945
X169.926Y-57.399
X169.926Y-65.019
X169.966Y-54.61
X172.426Y-67.945
X172.466Y-57.399
X172.466Y-65.019
X174.966Y-54.61
X175.006Y-57.399
X175.006Y-65.019
X177.546Y-57.399
X177.546Y-65.019
X177.586Y-54.61
X180.086Y-57.399
X180.086Y-65.019
X181.864Y-70.779
X181.864Y-75.779
X182.586Y-54.61
X182.626Y-57.399
X182.626Y-65.019
X185.166Y-57.399
X185.166Y-65.019
X186.309Y-72.492
X186.309Y-74.992
X187.706Y-57.399
X187.706Y-65.019
X190.246Y-57.399
X190.246Y-65.019
X190.754Y-68.834
X190.754Y-76.454
X193.294Y-68.834
X193.294Y-76.454
X193.802Y-44.704
X193.802Y-54.864
X193.802Y-58.674
X195.072Y-62.484
X195.834Y-68.834
X195.834Y-76.454
X197.104Y-48.26
X197.104Y-55.88
X198.374Y-68.834
X198.374Y-76.454
X199.644Y-48.26
X199.644Y-55.88
X200.914Y-68.834
X200.914Y-76.454
X202.184Y-48.26
X202.184Y-55.88
X202.692Y-62.484
X203.454Y-68.834
X203.454Y-76.454
X203.962Y-58.674
X205.994Y-68.834
X205.994Y-76.454
X208.534Y-68.834
X208.534Y-76.454
X211.074Y-68.834
X211.074Y-76.454
T3
X134.0Y-80.0
X134.0Y-82.54
X134.0Y-85.08
X134.0Y-87.62
X139.08Y-80.0
X139.08Y-82.54
X139.08Y-85.08
X139.08Y-87.62
X143.0Y-80.0
X143.0Y-82.54
X143.0Y-85.08
X143.0Y-87.62
X148.08Y-80.0
X148.08Y-82.54
X148.08Y-85.08
X148.08Y-87.62
X152.0Y-80.0
X152.0Y-82.54
X152.0Y-85.08
X152.0Y-87.62
X157.08Y-80.0
X157.08Y-82.54
X157.08Y-85.08
X157.08Y-87.62
X161.0Y-80.0
X161.0Y-82.54
X161.0Y-85.08
X161.0Y-87.62
X166.08Y-80.0
X166.08Y-82.54
X166.08Y-85.08
X166.08Y-87.62
X196.0Y-80.0
X196.0Y-82.54
X196.0Y-85.08
X196.0Y-87.62
X201.08Y-80.0
X201.08Y-82.54
X201.08Y-85.08
X201.08Y-87.62
X205.0Y-80.0
X205.0Y-82.54
X205.0Y-85.08
X205.0Y-87.62
X210.08Y-80.0
X210.08Y-82.54
X210.08Y-85.08
X210.08Y-87.62
T4
X146.558Y-59.822
X146.558Y-62.362
X149.098Y-59.822
X149.098Y-62.362
X151.638Y-59.822
X151.638Y-62.362
X174.01Y-47.76
X176.51Y-47.76
X184.658Y-47.752
X187.158Y-47.752
X207.912Y-57.912
X207.912Y-60.452
X207.912Y-62.992
M30
