G04 #@! TF.GenerationSoftware,KiCad,Pcbnew,9.0.5*
G04 #@! TF.CreationDate,2025-10-23T09:34:06+02:00*
G04 #@! TF.ProjectId,rec_play_switch_module,7265635f-706c-4617-995f-737769746368,rev?*
G04 #@! TF.SameCoordinates,Original*
G04 #@! TF.FileFunction,Soldermask,Bot*
G04 #@! TF.FilePolarity,Negative*
%FSLAX46Y46*%
G04 Gerber Fmt 4.6, Leading zero omitted, Abs format (unit mm)*
G04 Created by KiCad (PCBNEW 9.0.5) date 2025-10-23 09:34:06*
%MOMM*%
%LPD*%
G01*
G04 APERTURE LIST*
G04 Aperture macros list*
%AMRoundRect*
0 Rectangle with rounded corners*
0 $1 Rounding radius*
0 $2 $3 $4 $5 $6 $7 $8 $9 X,Y pos of 4 corners*
0 Add a 4 corners polygon primitive as box body*
4,1,4,$2,$3,$4,$5,$6,$7,$8,$9,$2,$3,0*
0 Add four circle primitives for the rounded corners*
1,1,$1+$1,$2,$3*
1,1,$1+$1,$4,$5*
1,1,$1+$1,$6,$7*
1,1,$1+$1,$8,$9*
0 Add four rect primitives between the rounded corners*
20,1,$1+$1,$2,$3,$4,$5,0*
20,1,$1+$1,$4,$5,$6,$7,0*
20,1,$1+$1,$6,$7,$8,$9,0*
20,1,$1+$1,$8,$9,$2,$3,0*%
G04 Aperture macros list end*
%ADD10C,1.600000*%
%ADD11RoundRect,0.250000X-0.600000X-0.750000X0.600000X-0.750000X0.600000X0.750000X-0.600000X0.750000X0*%
%ADD12O,1.700000X2.000000*%
%ADD13RoundRect,0.250000X0.550000X-0.550000X0.550000X0.550000X-0.550000X0.550000X-0.550000X-0.550000X0*%
%ADD14RoundRect,0.250000X-0.550000X-0.550000X0.550000X-0.550000X0.550000X0.550000X-0.550000X0.550000X0*%
%ADD15R,1.700000X1.700000*%
%ADD16C,1.700000*%
%ADD17R,1.500000X1.500000*%
%ADD18C,1.500000*%
%ADD19R,1.000000X1.000000*%
%ADD20C,1.000000*%
%ADD21RoundRect,0.250000X-0.550000X0.550000X-0.550000X-0.550000X0.550000X-0.550000X0.550000X0.550000X0*%
G04 APERTURE END LIST*
D10*
X167426000Y-67945000D03*
X172426000Y-67945000D03*
X141224000Y-59777000D03*
X141224000Y-54777000D03*
D11*
X184658000Y-47752000D03*
D12*
X187158000Y-47752000D03*
D11*
X174010000Y-47760400D03*
D12*
X176510000Y-47760400D03*
D10*
X144018000Y-55245000D03*
X154178000Y-55245000D03*
X177586000Y-54610000D03*
X182586000Y-54610000D03*
X203962000Y-58674000D03*
X193802000Y-58674000D03*
X193802000Y-44704000D03*
X193802000Y-54864000D03*
D13*
X197104000Y-55880000D03*
D10*
X199644000Y-55880000D03*
X202184000Y-55880000D03*
X202184000Y-48260000D03*
X199644000Y-48260000D03*
X197104000Y-48260000D03*
D14*
X195072000Y-62484000D03*
D10*
X202692000Y-62484000D03*
D15*
X151638000Y-59812000D03*
D16*
X149098000Y-59812000D03*
X146558000Y-59812000D03*
X146558000Y-62352000D03*
X149098000Y-62352000D03*
X151638000Y-62352000D03*
D10*
X174966000Y-54610000D03*
X169966000Y-54610000D03*
D13*
X157226000Y-65019000D03*
D10*
X159766000Y-65019000D03*
X162306000Y-65019000D03*
X164846000Y-65019000D03*
X167386000Y-65019000D03*
X169926000Y-65019000D03*
X172466000Y-65019000D03*
X175006000Y-65019000D03*
X177546000Y-65019000D03*
X180086000Y-65019000D03*
X182626000Y-65019000D03*
X185166000Y-65019000D03*
X187706000Y-65019000D03*
X190246000Y-65019000D03*
X190246000Y-57399000D03*
X187706000Y-57399000D03*
X185166000Y-57399000D03*
X182626000Y-57399000D03*
X180086000Y-57399000D03*
X177546000Y-57399000D03*
X175006000Y-57399000D03*
X172466000Y-57399000D03*
X169926000Y-57399000D03*
X167386000Y-57399000D03*
X164846000Y-57399000D03*
X162306000Y-57399000D03*
X159766000Y-57399000D03*
X157226000Y-57399000D03*
D17*
X207912500Y-57912000D03*
D18*
X207912500Y-60452000D03*
X207912500Y-62992000D03*
D15*
X143000000Y-80000000D03*
D16*
X143000000Y-82540000D03*
X143000000Y-85080000D03*
X143000000Y-87620000D03*
X148080000Y-87620000D03*
X148080000Y-85080000D03*
X148080000Y-82540000D03*
X148080000Y-80000000D03*
D15*
X134000000Y-80000000D03*
D16*
X134000000Y-82540000D03*
X134000000Y-85080000D03*
X134000000Y-87620000D03*
X139080000Y-87620000D03*
X139080000Y-85080000D03*
X139080000Y-82540000D03*
X139080000Y-80000000D03*
D15*
X152000000Y-80000000D03*
D16*
X152000000Y-82540000D03*
X152000000Y-85080000D03*
X152000000Y-87620000D03*
X157080000Y-87620000D03*
X157080000Y-85080000D03*
X157080000Y-82540000D03*
X157080000Y-80000000D03*
D15*
X161000000Y-80000000D03*
D16*
X161000000Y-82540000D03*
X161000000Y-85080000D03*
X161000000Y-87620000D03*
X166080000Y-87620000D03*
X166080000Y-85080000D03*
X166080000Y-82540000D03*
X166080000Y-80000000D03*
X210080000Y-80000000D03*
X210080000Y-82540000D03*
X210080000Y-85080000D03*
X210080000Y-87620000D03*
X205000000Y-87620000D03*
X205000000Y-85080000D03*
X205000000Y-82540000D03*
D15*
X205000000Y-80000000D03*
X196000000Y-80000000D03*
D16*
X196000000Y-82540000D03*
X196000000Y-85080000D03*
X196000000Y-87620000D03*
X201080000Y-87620000D03*
X201080000Y-85080000D03*
X201080000Y-82540000D03*
X201080000Y-80000000D03*
D19*
X195723000Y-90551000D03*
D20*
X196993000Y-90551000D03*
X198263000Y-90551000D03*
X199533000Y-90551000D03*
X200803000Y-90551000D03*
X202073000Y-90551000D03*
X203343000Y-90551000D03*
X204613000Y-90551000D03*
X205883000Y-90551000D03*
X207153000Y-90551000D03*
X208423000Y-90551000D03*
X209693000Y-90551000D03*
D19*
X135509000Y-90551000D03*
D20*
X136779000Y-90551000D03*
X138049000Y-90551000D03*
X139319000Y-90551000D03*
X140589000Y-90551000D03*
X141859000Y-90551000D03*
X143129000Y-90551000D03*
X144399000Y-90551000D03*
X145669000Y-90551000D03*
X146939000Y-90551000D03*
X148209000Y-90551000D03*
X149479000Y-90551000D03*
X150749000Y-90551000D03*
X152019000Y-90551000D03*
X153289000Y-90551000D03*
X154559000Y-90551000D03*
X155829000Y-90551000D03*
X157099000Y-90551000D03*
X158369000Y-90551000D03*
X159639000Y-90551000D03*
X160909000Y-90551000D03*
X162179000Y-90551000D03*
X163449000Y-90551000D03*
X164719000Y-90551000D03*
D13*
X186309000Y-74992113D03*
D10*
X186309000Y-72492113D03*
X181864000Y-75779000D03*
X181864000Y-70779000D03*
D21*
X211074000Y-68834000D03*
D10*
X208534000Y-68834000D03*
X205994000Y-68834000D03*
X203454000Y-68834000D03*
X200914000Y-68834000D03*
X198374000Y-68834000D03*
X195834000Y-68834000D03*
X193294000Y-68834000D03*
X190754000Y-68834000D03*
X190754000Y-76454000D03*
X193294000Y-76454000D03*
X195834000Y-76454000D03*
X198374000Y-76454000D03*
X200914000Y-76454000D03*
X203454000Y-76454000D03*
X205994000Y-76454000D03*
X208534000Y-76454000D03*
X211074000Y-76454000D03*
M02*
