%TF.GenerationSoftware,KiCad,Pcbnew,9.0.5*%
%TF.CreationDate,2025-10-23T09:34:10+02:00*%
%TF.ProjectId,rec_play_switch_module,7265635f-706c-4617-995f-737769746368,rev?*%
%TF.SameCoordinates,Original*%
%TF.FileFunction,Drillmap*%
%TF.FilePolarity,Positive*%
%FSLAX45Y45*%
G04 Gerber Fmt 4.5, Leading zero omitted, Abs format (unit mm)*
G04 Created by KiCad (PCBNEW 9.0.5) date 2025-10-23 09:34:10*
%MOMM*%
%LPD*%
G01*
G04 APERTURE LIST*
%ADD10C,0.050000*%
%ADD11C,0.200000*%
G04 APERTURE END LIST*
D10*
X12769600Y-4249100D02*
X21425200Y-4249100D01*
X21425200Y-9283700D01*
X12769600Y-9283700D01*
X12769600Y-4249100D01*
D11*
X13027877Y-9597684D02*
X13027877Y-9397684D01*
X13027877Y-9397684D02*
X13075496Y-9397684D01*
X13075496Y-9397684D02*
X13104067Y-9407208D01*
X13104067Y-9407208D02*
X13123115Y-9426255D01*
X13123115Y-9426255D02*
X13132639Y-9445303D01*
X13132639Y-9445303D02*
X13142162Y-9483398D01*
X13142162Y-9483398D02*
X13142162Y-9511970D01*
X13142162Y-9511970D02*
X13132639Y-9550065D01*
X13132639Y-9550065D02*
X13123115Y-9569112D01*
X13123115Y-9569112D02*
X13104067Y-9588160D01*
X13104067Y-9588160D02*
X13075496Y-9597684D01*
X13075496Y-9597684D02*
X13027877Y-9597684D01*
X13227877Y-9597684D02*
X13227877Y-9464350D01*
X13227877Y-9502446D02*
X13237401Y-9483398D01*
X13237401Y-9483398D02*
X13246924Y-9473874D01*
X13246924Y-9473874D02*
X13265972Y-9464350D01*
X13265972Y-9464350D02*
X13285020Y-9464350D01*
X13351686Y-9597684D02*
X13351686Y-9464350D01*
X13351686Y-9397684D02*
X13342162Y-9407208D01*
X13342162Y-9407208D02*
X13351686Y-9416731D01*
X13351686Y-9416731D02*
X13361210Y-9407208D01*
X13361210Y-9407208D02*
X13351686Y-9397684D01*
X13351686Y-9397684D02*
X13351686Y-9416731D01*
X13475496Y-9597684D02*
X13456448Y-9588160D01*
X13456448Y-9588160D02*
X13446924Y-9569112D01*
X13446924Y-9569112D02*
X13446924Y-9397684D01*
X13580258Y-9597684D02*
X13561210Y-9588160D01*
X13561210Y-9588160D02*
X13551686Y-9569112D01*
X13551686Y-9569112D02*
X13551686Y-9397684D01*
X13808829Y-9597684D02*
X13808829Y-9397684D01*
X13808829Y-9397684D02*
X13875496Y-9540541D01*
X13875496Y-9540541D02*
X13942162Y-9397684D01*
X13942162Y-9397684D02*
X13942162Y-9597684D01*
X14123115Y-9597684D02*
X14123115Y-9492922D01*
X14123115Y-9492922D02*
X14113591Y-9473874D01*
X14113591Y-9473874D02*
X14094543Y-9464350D01*
X14094543Y-9464350D02*
X14056448Y-9464350D01*
X14056448Y-9464350D02*
X14037401Y-9473874D01*
X14123115Y-9588160D02*
X14104067Y-9597684D01*
X14104067Y-9597684D02*
X14056448Y-9597684D01*
X14056448Y-9597684D02*
X14037401Y-9588160D01*
X14037401Y-9588160D02*
X14027877Y-9569112D01*
X14027877Y-9569112D02*
X14027877Y-9550065D01*
X14027877Y-9550065D02*
X14037401Y-9531017D01*
X14037401Y-9531017D02*
X14056448Y-9521493D01*
X14056448Y-9521493D02*
X14104067Y-9521493D01*
X14104067Y-9521493D02*
X14123115Y-9511970D01*
X14218353Y-9464350D02*
X14218353Y-9664350D01*
X14218353Y-9473874D02*
X14237401Y-9464350D01*
X14237401Y-9464350D02*
X14275496Y-9464350D01*
X14275496Y-9464350D02*
X14294543Y-9473874D01*
X14294543Y-9473874D02*
X14304067Y-9483398D01*
X14304067Y-9483398D02*
X14313591Y-9502446D01*
X14313591Y-9502446D02*
X14313591Y-9559589D01*
X14313591Y-9559589D02*
X14304067Y-9578636D01*
X14304067Y-9578636D02*
X14294543Y-9588160D01*
X14294543Y-9588160D02*
X14275496Y-9597684D01*
X14275496Y-9597684D02*
X14237401Y-9597684D01*
X14237401Y-9597684D02*
X14218353Y-9588160D01*
X14399305Y-9578636D02*
X14408829Y-9588160D01*
X14408829Y-9588160D02*
X14399305Y-9597684D01*
X14399305Y-9597684D02*
X14389782Y-9588160D01*
X14389782Y-9588160D02*
X14399305Y-9578636D01*
X14399305Y-9578636D02*
X14399305Y-9597684D01*
X14399305Y-9473874D02*
X14408829Y-9483398D01*
X14408829Y-9483398D02*
X14399305Y-9492922D01*
X14399305Y-9492922D02*
X14389782Y-9483398D01*
X14389782Y-9483398D02*
X14399305Y-9473874D01*
X14399305Y-9473874D02*
X14399305Y-9492922D01*
M02*
