%TF.GenerationSoftware,KiCad,Pcbnew,9.0.5*%
%TF.CreationDate,2025-10-10T22:50:33+02:00*%
%TF.ProjectId,rec_play_switch_module,7265635f-706c-4617-995f-737769746368,rev?*%
%TF.SameCoordinates,Original*%
%TF.FileFunction,Drillmap*%
%TF.FilePolarity,Positive*%
%FSLAX45Y45*%
G04 Gerber Fmt 4.5, Leading zero omitted, Abs format (unit mm)*
G04 Created by KiCad (PCBNEW 9.0.5) date 2025-10-10 22:50:33*
%MOMM*%
%LPD*%
G01*
G04 APERTURE LIST*
%ADD10C,0.050000*%
%ADD11C,0.200000*%
%ADD12C,0.100000*%
G04 APERTURE END LIST*
D10*
X12769600Y-4249100D02*
X21425200Y-4249100D01*
X21425200Y-9283700D01*
X12769600Y-9283700D01*
X12769600Y-4249100D01*
D11*
D12*
X13320000Y-8468600D02*
X13350000Y-8498600D01*
X13350000Y-8468600D02*
X13320000Y-8498600D01*
X13326350Y-8259050D02*
X13356350Y-8289050D01*
X13356350Y-8259050D02*
X13326350Y-8289050D01*
X14310600Y-8227300D02*
X14340600Y-8257300D01*
X14340600Y-8227300D02*
X14310600Y-8257300D01*
X14310600Y-8481300D02*
X14340600Y-8511300D01*
X14340600Y-8481300D02*
X14310600Y-8511300D01*
X15313900Y-8227300D02*
X15343900Y-8257300D01*
X15343900Y-8227300D02*
X15313900Y-8257300D01*
X15313900Y-8481300D02*
X15343900Y-8511300D01*
X15343900Y-8481300D02*
X15313900Y-8511300D01*
X16279100Y-8227300D02*
X16309100Y-8257300D01*
X16309100Y-8227300D02*
X16279100Y-8257300D01*
X16279100Y-8481300D02*
X16309100Y-8511300D01*
X16309100Y-8481300D02*
X16279100Y-8511300D01*
X19733500Y-8265400D02*
X19763500Y-8295400D01*
X19763500Y-8265400D02*
X19733500Y-8295400D01*
X19733500Y-8443200D02*
X19763500Y-8473200D01*
X19763500Y-8443200D02*
X19733500Y-8473200D01*
X20813000Y-8214600D02*
X20843000Y-8244600D01*
X20843000Y-8214600D02*
X20813000Y-8244600D01*
X20813000Y-8316200D02*
X20843000Y-8346200D01*
X20843000Y-8316200D02*
X20813000Y-8346200D01*
X13583400Y-9055100D02*
G75*
G02*
X13518400Y-9055100I-32500J0D01*
G01*
X13518400Y-9055100D02*
G75*
G02*
X13583400Y-9055100I32500J0D01*
G01*
X13710400Y-9055100D02*
G75*
G02*
X13645400Y-9055100I-32500J0D01*
G01*
X13645400Y-9055100D02*
G75*
G02*
X13710400Y-9055100I32500J0D01*
G01*
X13837400Y-9055100D02*
G75*
G02*
X13772400Y-9055100I-32500J0D01*
G01*
X13772400Y-9055100D02*
G75*
G02*
X13837400Y-9055100I32500J0D01*
G01*
X13964400Y-9055100D02*
G75*
G02*
X13899400Y-9055100I-32500J0D01*
G01*
X13899400Y-9055100D02*
G75*
G02*
X13964400Y-9055100I32500J0D01*
G01*
X14091400Y-9055100D02*
G75*
G02*
X14026400Y-9055100I-32500J0D01*
G01*
X14026400Y-9055100D02*
G75*
G02*
X14091400Y-9055100I32500J0D01*
G01*
X14218400Y-9055100D02*
G75*
G02*
X14153400Y-9055100I-32500J0D01*
G01*
X14153400Y-9055100D02*
G75*
G02*
X14218400Y-9055100I32500J0D01*
G01*
X14345400Y-9055100D02*
G75*
G02*
X14280400Y-9055100I-32500J0D01*
G01*
X14280400Y-9055100D02*
G75*
G02*
X14345400Y-9055100I32500J0D01*
G01*
X14472400Y-9055100D02*
G75*
G02*
X14407400Y-9055100I-32500J0D01*
G01*
X14407400Y-9055100D02*
G75*
G02*
X14472400Y-9055100I32500J0D01*
G01*
X14599400Y-9055100D02*
G75*
G02*
X14534400Y-9055100I-32500J0D01*
G01*
X14534400Y-9055100D02*
G75*
G02*
X14599400Y-9055100I32500J0D01*
G01*
X14726400Y-9055100D02*
G75*
G02*
X14661400Y-9055100I-32500J0D01*
G01*
X14661400Y-9055100D02*
G75*
G02*
X14726400Y-9055100I32500J0D01*
G01*
X14853400Y-9055100D02*
G75*
G02*
X14788400Y-9055100I-32500J0D01*
G01*
X14788400Y-9055100D02*
G75*
G02*
X14853400Y-9055100I32500J0D01*
G01*
X14980400Y-9055100D02*
G75*
G02*
X14915400Y-9055100I-32500J0D01*
G01*
X14915400Y-9055100D02*
G75*
G02*
X14980400Y-9055100I32500J0D01*
G01*
X15107400Y-9055100D02*
G75*
G02*
X15042400Y-9055100I-32500J0D01*
G01*
X15042400Y-9055100D02*
G75*
G02*
X15107400Y-9055100I32500J0D01*
G01*
X15234400Y-9055100D02*
G75*
G02*
X15169400Y-9055100I-32500J0D01*
G01*
X15169400Y-9055100D02*
G75*
G02*
X15234400Y-9055100I32500J0D01*
G01*
X15361400Y-9055100D02*
G75*
G02*
X15296400Y-9055100I-32500J0D01*
G01*
X15296400Y-9055100D02*
G75*
G02*
X15361400Y-9055100I32500J0D01*
G01*
X15488400Y-9055100D02*
G75*
G02*
X15423400Y-9055100I-32500J0D01*
G01*
X15423400Y-9055100D02*
G75*
G02*
X15488400Y-9055100I32500J0D01*
G01*
X15615400Y-9055100D02*
G75*
G02*
X15550400Y-9055100I-32500J0D01*
G01*
X15550400Y-9055100D02*
G75*
G02*
X15615400Y-9055100I32500J0D01*
G01*
X15742400Y-9055100D02*
G75*
G02*
X15677400Y-9055100I-32500J0D01*
G01*
X15677400Y-9055100D02*
G75*
G02*
X15742400Y-9055100I32500J0D01*
G01*
X15869400Y-9055100D02*
G75*
G02*
X15804400Y-9055100I-32500J0D01*
G01*
X15804400Y-9055100D02*
G75*
G02*
X15869400Y-9055100I32500J0D01*
G01*
X15996400Y-9055100D02*
G75*
G02*
X15931400Y-9055100I-32500J0D01*
G01*
X15931400Y-9055100D02*
G75*
G02*
X15996400Y-9055100I32500J0D01*
G01*
X16123400Y-9055100D02*
G75*
G02*
X16058400Y-9055100I-32500J0D01*
G01*
X16058400Y-9055100D02*
G75*
G02*
X16123400Y-9055100I32500J0D01*
G01*
X16250400Y-9055100D02*
G75*
G02*
X16185400Y-9055100I-32500J0D01*
G01*
X16185400Y-9055100D02*
G75*
G02*
X16250400Y-9055100I32500J0D01*
G01*
X16377400Y-9055100D02*
G75*
G02*
X16312400Y-9055100I-32500J0D01*
G01*
X16312400Y-9055100D02*
G75*
G02*
X16377400Y-9055100I32500J0D01*
G01*
X16504400Y-9055100D02*
G75*
G02*
X16439400Y-9055100I-32500J0D01*
G01*
X16439400Y-9055100D02*
G75*
G02*
X16504400Y-9055100I32500J0D01*
G01*
X19604800Y-9055100D02*
G75*
G02*
X19539800Y-9055100I-32500J0D01*
G01*
X19539800Y-9055100D02*
G75*
G02*
X19604800Y-9055100I32500J0D01*
G01*
X19731800Y-9055100D02*
G75*
G02*
X19666800Y-9055100I-32500J0D01*
G01*
X19666800Y-9055100D02*
G75*
G02*
X19731800Y-9055100I32500J0D01*
G01*
X19858800Y-9055100D02*
G75*
G02*
X19793800Y-9055100I-32500J0D01*
G01*
X19793800Y-9055100D02*
G75*
G02*
X19858800Y-9055100I32500J0D01*
G01*
X19985800Y-9055100D02*
G75*
G02*
X19920800Y-9055100I-32500J0D01*
G01*
X19920800Y-9055100D02*
G75*
G02*
X19985800Y-9055100I32500J0D01*
G01*
X20112800Y-9055100D02*
G75*
G02*
X20047800Y-9055100I-32500J0D01*
G01*
X20047800Y-9055100D02*
G75*
G02*
X20112800Y-9055100I32500J0D01*
G01*
X20239800Y-9055100D02*
G75*
G02*
X20174800Y-9055100I-32500J0D01*
G01*
X20174800Y-9055100D02*
G75*
G02*
X20239800Y-9055100I32500J0D01*
G01*
X20366800Y-9055100D02*
G75*
G02*
X20301800Y-9055100I-32500J0D01*
G01*
X20301800Y-9055100D02*
G75*
G02*
X20366800Y-9055100I32500J0D01*
G01*
X20493800Y-9055100D02*
G75*
G02*
X20428800Y-9055100I-32500J0D01*
G01*
X20428800Y-9055100D02*
G75*
G02*
X20493800Y-9055100I32500J0D01*
G01*
X20620800Y-9055100D02*
G75*
G02*
X20555800Y-9055100I-32500J0D01*
G01*
X20555800Y-9055100D02*
G75*
G02*
X20620800Y-9055100I32500J0D01*
G01*
X20747800Y-9055100D02*
G75*
G02*
X20682800Y-9055100I-32500J0D01*
G01*
X20682800Y-9055100D02*
G75*
G02*
X20747800Y-9055100I32500J0D01*
G01*
X20874800Y-9055100D02*
G75*
G02*
X20809800Y-9055100I-32500J0D01*
G01*
X20809800Y-9055100D02*
G75*
G02*
X20874800Y-9055100I32500J0D01*
G01*
X21001800Y-9055100D02*
G75*
G02*
X20936800Y-9055100I-32500J0D01*
G01*
X20936800Y-9055100D02*
G75*
G02*
X21001800Y-9055100I32500J0D01*
G01*
X12976911Y-7287900D02*
X12976911Y-7367900D01*
X12936911Y-7327900D02*
X13016911Y-7327900D01*
X13226911Y-7287900D02*
X13226911Y-7367900D01*
X13186911Y-7327900D02*
X13266911Y-7327900D01*
X13563600Y-7024120D02*
X13563600Y-7104120D01*
X13523600Y-7064120D02*
X13603600Y-7064120D01*
X13563600Y-7524120D02*
X13563600Y-7604120D01*
X13523600Y-7564120D02*
X13603600Y-7564120D01*
X13893800Y-6779900D02*
X13893800Y-6859900D01*
X13853800Y-6819900D02*
X13933800Y-6819900D01*
X13893800Y-7541900D02*
X13893800Y-7621900D01*
X13853800Y-7581900D02*
X13933800Y-7581900D01*
X14122400Y-5437700D02*
X14122400Y-5517700D01*
X14082400Y-5477700D02*
X14162400Y-5477700D01*
X14122400Y-5937700D02*
X14122400Y-6017700D01*
X14082400Y-5977700D02*
X14162400Y-5977700D01*
X14147800Y-6779900D02*
X14147800Y-6859900D01*
X14107800Y-6819900D02*
X14187800Y-6819900D01*
X14147800Y-7541900D02*
X14147800Y-7621900D01*
X14107800Y-7581900D02*
X14187800Y-7581900D01*
X14401800Y-5484500D02*
X14401800Y-5564500D01*
X14361800Y-5524500D02*
X14441800Y-5524500D01*
X14401800Y-6779900D02*
X14401800Y-6859900D01*
X14361800Y-6819900D02*
X14441800Y-6819900D01*
X14401800Y-7541900D02*
X14401800Y-7621900D01*
X14361800Y-7581900D02*
X14441800Y-7581900D01*
X14655800Y-6779900D02*
X14655800Y-6859900D01*
X14615800Y-6819900D02*
X14695800Y-6819900D01*
X14655800Y-7541900D02*
X14655800Y-7621900D01*
X14615800Y-7581900D02*
X14695800Y-7581900D01*
X14909800Y-6779900D02*
X14909800Y-6859900D01*
X14869800Y-6819900D02*
X14949800Y-6819900D01*
X14909800Y-7541900D02*
X14909800Y-7621900D01*
X14869800Y-7581900D02*
X14949800Y-7581900D01*
X15163800Y-6779900D02*
X15163800Y-6859900D01*
X15123800Y-6819900D02*
X15203800Y-6819900D01*
X15163800Y-7541900D02*
X15163800Y-7621900D01*
X15123800Y-7581900D02*
X15203800Y-7581900D01*
X15417800Y-5484500D02*
X15417800Y-5564500D01*
X15377800Y-5524500D02*
X15457800Y-5524500D01*
X15417800Y-6779900D02*
X15417800Y-6859900D01*
X15377800Y-6819900D02*
X15457800Y-6819900D01*
X15417800Y-7541900D02*
X15417800Y-7621900D01*
X15377800Y-7581900D02*
X15457800Y-7581900D01*
X15671800Y-6779900D02*
X15671800Y-6859900D01*
X15631800Y-6819900D02*
X15711800Y-6819900D01*
X15671800Y-7541900D02*
X15671800Y-7621900D01*
X15631800Y-7581900D02*
X15711800Y-7581900D01*
X15722600Y-5699900D02*
X15722600Y-5779900D01*
X15682600Y-5739900D02*
X15762600Y-5739900D01*
X15722600Y-6461900D02*
X15722600Y-6541900D01*
X15682600Y-6501900D02*
X15762600Y-6501900D01*
X15925800Y-6779900D02*
X15925800Y-6859900D01*
X15885800Y-6819900D02*
X15965800Y-6819900D01*
X15925800Y-7541900D02*
X15925800Y-7621900D01*
X15885800Y-7581900D02*
X15965800Y-7581900D01*
X15976600Y-5699900D02*
X15976600Y-5779900D01*
X15936600Y-5739900D02*
X16016600Y-5739900D01*
X15976600Y-6461900D02*
X15976600Y-6541900D01*
X15936600Y-6501900D02*
X16016600Y-6501900D01*
X16230600Y-5699900D02*
X16230600Y-5779900D01*
X16190600Y-5739900D02*
X16270600Y-5739900D01*
X16230600Y-6461900D02*
X16230600Y-6541900D01*
X16190600Y-6501900D02*
X16270600Y-6501900D01*
X16484600Y-5699900D02*
X16484600Y-5779900D01*
X16444600Y-5739900D02*
X16524600Y-5739900D01*
X16484600Y-6461900D02*
X16484600Y-6541900D01*
X16444600Y-6501900D02*
X16524600Y-6501900D01*
X16738600Y-5699900D02*
X16738600Y-5779900D01*
X16698600Y-5739900D02*
X16778600Y-5739900D01*
X16738600Y-6461900D02*
X16738600Y-6541900D01*
X16698600Y-6501900D02*
X16778600Y-6501900D01*
X16742600Y-6754500D02*
X16742600Y-6834500D01*
X16702600Y-6794500D02*
X16782600Y-6794500D01*
X16992600Y-5699900D02*
X16992600Y-5779900D01*
X16952600Y-5739900D02*
X17032600Y-5739900D01*
X16992600Y-6461900D02*
X16992600Y-6541900D01*
X16952600Y-6501900D02*
X17032600Y-6501900D01*
X16996600Y-5421000D02*
X16996600Y-5501000D01*
X16956600Y-5461000D02*
X17036600Y-5461000D01*
X17242600Y-6754500D02*
X17242600Y-6834500D01*
X17202600Y-6794500D02*
X17282600Y-6794500D01*
X17246600Y-5699900D02*
X17246600Y-5779900D01*
X17206600Y-5739900D02*
X17286600Y-5739900D01*
X17246600Y-6461900D02*
X17246600Y-6541900D01*
X17206600Y-6501900D02*
X17286600Y-6501900D01*
X17496600Y-5421000D02*
X17496600Y-5501000D01*
X17456600Y-5461000D02*
X17536600Y-5461000D01*
X17500600Y-5699900D02*
X17500600Y-5779900D01*
X17460600Y-5739900D02*
X17540600Y-5739900D01*
X17500600Y-6461900D02*
X17500600Y-6541900D01*
X17460600Y-6501900D02*
X17540600Y-6501900D01*
X17754600Y-5699900D02*
X17754600Y-5779900D01*
X17714600Y-5739900D02*
X17794600Y-5739900D01*
X17754600Y-6461900D02*
X17754600Y-6541900D01*
X17714600Y-6501900D02*
X17794600Y-6501900D01*
X17758600Y-5421000D02*
X17758600Y-5501000D01*
X17718600Y-5461000D02*
X17798600Y-5461000D01*
X18008600Y-5699900D02*
X18008600Y-5779900D01*
X17968600Y-5739900D02*
X18048600Y-5739900D01*
X18008600Y-6461900D02*
X18008600Y-6541900D01*
X17968600Y-6501900D02*
X18048600Y-6501900D01*
X18183911Y-7275200D02*
X18183911Y-7355200D01*
X18143911Y-7315200D02*
X18223911Y-7315200D01*
X18258600Y-5421000D02*
X18258600Y-5501000D01*
X18218600Y-5461000D02*
X18298600Y-5461000D01*
X18262600Y-5699900D02*
X18262600Y-5779900D01*
X18222600Y-5739900D02*
X18302600Y-5739900D01*
X18262600Y-6461900D02*
X18262600Y-6541900D01*
X18222600Y-6501900D02*
X18302600Y-6501900D01*
X18433911Y-7275200D02*
X18433911Y-7355200D01*
X18393911Y-7315200D02*
X18473911Y-7315200D01*
X18516600Y-5699900D02*
X18516600Y-5779900D01*
X18476600Y-5739900D02*
X18556600Y-5739900D01*
X18516600Y-6461900D02*
X18516600Y-6541900D01*
X18476600Y-6501900D02*
X18556600Y-6501900D01*
X18757900Y-7024120D02*
X18757900Y-7104120D01*
X18717900Y-7064120D02*
X18797900Y-7064120D01*
X18757900Y-7524120D02*
X18757900Y-7604120D01*
X18717900Y-7564120D02*
X18797900Y-7564120D01*
X18770600Y-5699900D02*
X18770600Y-5779900D01*
X18730600Y-5739900D02*
X18810600Y-5739900D01*
X18770600Y-6461900D02*
X18770600Y-6541900D01*
X18730600Y-6501900D02*
X18810600Y-6501900D01*
X19024600Y-5699900D02*
X19024600Y-5779900D01*
X18984600Y-5739900D02*
X19064600Y-5739900D01*
X19024600Y-6461900D02*
X19024600Y-6541900D01*
X18984600Y-6501900D02*
X19064600Y-6501900D01*
X19075400Y-6779900D02*
X19075400Y-6859900D01*
X19035400Y-6819900D02*
X19115400Y-6819900D01*
X19075400Y-7541900D02*
X19075400Y-7621900D01*
X19035400Y-7581900D02*
X19115400Y-7581900D01*
X19329400Y-6779900D02*
X19329400Y-6859900D01*
X19289400Y-6819900D02*
X19369400Y-6819900D01*
X19329400Y-7541900D02*
X19329400Y-7621900D01*
X19289400Y-7581900D02*
X19369400Y-7581900D01*
X19380200Y-4430400D02*
X19380200Y-4510400D01*
X19340200Y-4470400D02*
X19420200Y-4470400D01*
X19380200Y-5446400D02*
X19380200Y-5526400D01*
X19340200Y-5486400D02*
X19420200Y-5486400D01*
X19380200Y-5827400D02*
X19380200Y-5907400D01*
X19340200Y-5867400D02*
X19420200Y-5867400D01*
X19507200Y-6208400D02*
X19507200Y-6288400D01*
X19467200Y-6248400D02*
X19547200Y-6248400D01*
X19583400Y-6779900D02*
X19583400Y-6859900D01*
X19543400Y-6819900D02*
X19623400Y-6819900D01*
X19583400Y-7541900D02*
X19583400Y-7621900D01*
X19543400Y-7581900D02*
X19623400Y-7581900D01*
X19710400Y-4786000D02*
X19710400Y-4866000D01*
X19670400Y-4826000D02*
X19750400Y-4826000D01*
X19710400Y-5548000D02*
X19710400Y-5628000D01*
X19670400Y-5588000D02*
X19750400Y-5588000D01*
X19837400Y-6779900D02*
X19837400Y-6859900D01*
X19797400Y-6819900D02*
X19877400Y-6819900D01*
X19837400Y-7541900D02*
X19837400Y-7621900D01*
X19797400Y-7581900D02*
X19877400Y-7581900D01*
X19964400Y-4786000D02*
X19964400Y-4866000D01*
X19924400Y-4826000D02*
X20004400Y-4826000D01*
X19964400Y-5548000D02*
X19964400Y-5628000D01*
X19924400Y-5588000D02*
X20004400Y-5588000D01*
X20091400Y-6779900D02*
X20091400Y-6859900D01*
X20051400Y-6819900D02*
X20131400Y-6819900D01*
X20091400Y-7541900D02*
X20091400Y-7621900D01*
X20051400Y-7581900D02*
X20131400Y-7581900D01*
X20218400Y-4786000D02*
X20218400Y-4866000D01*
X20178400Y-4826000D02*
X20258400Y-4826000D01*
X20218400Y-5548000D02*
X20218400Y-5628000D01*
X20178400Y-5588000D02*
X20258400Y-5588000D01*
X20269200Y-6208400D02*
X20269200Y-6288400D01*
X20229200Y-6248400D02*
X20309200Y-6248400D01*
X20345400Y-6779900D02*
X20345400Y-6859900D01*
X20305400Y-6819900D02*
X20385400Y-6819900D01*
X20345400Y-7541900D02*
X20345400Y-7621900D01*
X20305400Y-7581900D02*
X20385400Y-7581900D01*
X20396200Y-5827400D02*
X20396200Y-5907400D01*
X20356200Y-5867400D02*
X20436200Y-5867400D01*
X20599400Y-6779900D02*
X20599400Y-6859900D01*
X20559400Y-6819900D02*
X20639400Y-6819900D01*
X20599400Y-7541900D02*
X20599400Y-7621900D01*
X20559400Y-7581900D02*
X20639400Y-7581900D01*
X20853400Y-6779900D02*
X20853400Y-6859900D01*
X20813400Y-6819900D02*
X20893400Y-6819900D01*
X20853400Y-7541900D02*
X20853400Y-7621900D01*
X20813400Y-7581900D02*
X20893400Y-7581900D01*
X21107400Y-6779900D02*
X21107400Y-6859900D01*
X21067400Y-6819900D02*
X21147400Y-6819900D01*
X21107400Y-7541900D02*
X21107400Y-7621900D01*
X21067400Y-7581900D02*
X21147400Y-7581900D01*
X14691156Y-6016556D02*
X14691156Y-5945844D01*
X14620444Y-5945844D01*
X14620444Y-6016556D01*
X14691156Y-6016556D01*
X14691156Y-6270556D02*
X14691156Y-6199844D01*
X14620444Y-6199844D01*
X14620444Y-6270556D01*
X14691156Y-6270556D01*
X14945156Y-6016556D02*
X14945156Y-5945844D01*
X14874444Y-5945844D01*
X14874444Y-6016556D01*
X14945156Y-6016556D01*
X14945156Y-6270556D02*
X14945156Y-6199844D01*
X14874444Y-6199844D01*
X14874444Y-6270556D01*
X14945156Y-6270556D01*
X15199156Y-6016556D02*
X15199156Y-5945844D01*
X15128444Y-5945844D01*
X15128444Y-6016556D01*
X15199156Y-6016556D01*
X15199156Y-6270556D02*
X15199156Y-6199844D01*
X15128444Y-6199844D01*
X15128444Y-6270556D01*
X15199156Y-6270556D01*
X17436356Y-4811396D02*
X17436356Y-4740684D01*
X17365644Y-4740684D01*
X17365644Y-4811396D01*
X17436356Y-4811396D01*
X17686356Y-4811396D02*
X17686356Y-4740684D01*
X17615644Y-4740684D01*
X17615644Y-4811396D01*
X17686356Y-4811396D01*
X18501156Y-4810556D02*
X18501156Y-4739844D01*
X18430444Y-4739844D01*
X18430444Y-4810556D01*
X18501156Y-4810556D01*
X18751156Y-4810556D02*
X18751156Y-4739844D01*
X18680444Y-4739844D01*
X18680444Y-4810556D01*
X18751156Y-4810556D01*
X20826606Y-5826556D02*
X20826606Y-5755844D01*
X20755894Y-5755844D01*
X20755894Y-5826556D01*
X20826606Y-5826556D01*
X20826606Y-6080556D02*
X20826606Y-6009844D01*
X20755894Y-6009844D01*
X20755894Y-6080556D01*
X20826606Y-6080556D01*
X20826606Y-6334556D02*
X20826606Y-6263844D01*
X20755894Y-6263844D01*
X20755894Y-6334556D01*
X20826606Y-6334556D01*
D11*
X13027877Y-9597684D02*
X13027877Y-9397684D01*
X13027877Y-9397684D02*
X13075496Y-9397684D01*
X13075496Y-9397684D02*
X13104067Y-9407208D01*
X13104067Y-9407208D02*
X13123115Y-9426255D01*
X13123115Y-9426255D02*
X13132639Y-9445303D01*
X13132639Y-9445303D02*
X13142162Y-9483398D01*
X13142162Y-9483398D02*
X13142162Y-9511970D01*
X13142162Y-9511970D02*
X13132639Y-9550065D01*
X13132639Y-9550065D02*
X13123115Y-9569112D01*
X13123115Y-9569112D02*
X13104067Y-9588160D01*
X13104067Y-9588160D02*
X13075496Y-9597684D01*
X13075496Y-9597684D02*
X13027877Y-9597684D01*
X13227877Y-9597684D02*
X13227877Y-9464350D01*
X13227877Y-9502446D02*
X13237401Y-9483398D01*
X13237401Y-9483398D02*
X13246924Y-9473874D01*
X13246924Y-9473874D02*
X13265972Y-9464350D01*
X13265972Y-9464350D02*
X13285020Y-9464350D01*
X13351686Y-9597684D02*
X13351686Y-9464350D01*
X13351686Y-9397684D02*
X13342162Y-9407208D01*
X13342162Y-9407208D02*
X13351686Y-9416731D01*
X13351686Y-9416731D02*
X13361210Y-9407208D01*
X13361210Y-9407208D02*
X13351686Y-9397684D01*
X13351686Y-9397684D02*
X13351686Y-9416731D01*
X13475496Y-9597684D02*
X13456448Y-9588160D01*
X13456448Y-9588160D02*
X13446924Y-9569112D01*
X13446924Y-9569112D02*
X13446924Y-9397684D01*
X13580258Y-9597684D02*
X13561210Y-9588160D01*
X13561210Y-9588160D02*
X13551686Y-9569112D01*
X13551686Y-9569112D02*
X13551686Y-9397684D01*
X13808829Y-9597684D02*
X13808829Y-9397684D01*
X13808829Y-9397684D02*
X13875496Y-9540541D01*
X13875496Y-9540541D02*
X13942162Y-9397684D01*
X13942162Y-9397684D02*
X13942162Y-9597684D01*
X14123115Y-9597684D02*
X14123115Y-9492922D01*
X14123115Y-9492922D02*
X14113591Y-9473874D01*
X14113591Y-9473874D02*
X14094543Y-9464350D01*
X14094543Y-9464350D02*
X14056448Y-9464350D01*
X14056448Y-9464350D02*
X14037401Y-9473874D01*
X14123115Y-9588160D02*
X14104067Y-9597684D01*
X14104067Y-9597684D02*
X14056448Y-9597684D01*
X14056448Y-9597684D02*
X14037401Y-9588160D01*
X14037401Y-9588160D02*
X14027877Y-9569112D01*
X14027877Y-9569112D02*
X14027877Y-9550065D01*
X14027877Y-9550065D02*
X14037401Y-9531017D01*
X14037401Y-9531017D02*
X14056448Y-9521493D01*
X14056448Y-9521493D02*
X14104067Y-9521493D01*
X14104067Y-9521493D02*
X14123115Y-9511970D01*
X14218353Y-9464350D02*
X14218353Y-9664350D01*
X14218353Y-9473874D02*
X14237401Y-9464350D01*
X14237401Y-9464350D02*
X14275496Y-9464350D01*
X14275496Y-9464350D02*
X14294543Y-9473874D01*
X14294543Y-9473874D02*
X14304067Y-9483398D01*
X14304067Y-9483398D02*
X14313591Y-9502446D01*
X14313591Y-9502446D02*
X14313591Y-9559589D01*
X14313591Y-9559589D02*
X14304067Y-9578636D01*
X14304067Y-9578636D02*
X14294543Y-9588160D01*
X14294543Y-9588160D02*
X14275496Y-9597684D01*
X14275496Y-9597684D02*
X14237401Y-9597684D01*
X14237401Y-9597684D02*
X14218353Y-9588160D01*
X14399305Y-9578636D02*
X14408829Y-9588160D01*
X14408829Y-9588160D02*
X14399305Y-9597684D01*
X14399305Y-9597684D02*
X14389782Y-9588160D01*
X14389782Y-9588160D02*
X14399305Y-9578636D01*
X14399305Y-9578636D02*
X14399305Y-9597684D01*
X14399305Y-9473874D02*
X14408829Y-9483398D01*
X14408829Y-9483398D02*
X14399305Y-9492922D01*
X14399305Y-9492922D02*
X14389782Y-9483398D01*
X14389782Y-9483398D02*
X14399305Y-9473874D01*
X14399305Y-9473874D02*
X14399305Y-9492922D01*
D12*
X12737100Y-9911200D02*
X12767100Y-9941200D01*
X12767100Y-9911200D02*
X12737100Y-9941200D01*
D11*
X13065972Y-9817684D02*
X13085020Y-9817684D01*
X13085020Y-9817684D02*
X13104067Y-9827208D01*
X13104067Y-9827208D02*
X13113591Y-9836731D01*
X13113591Y-9836731D02*
X13123115Y-9855779D01*
X13123115Y-9855779D02*
X13132639Y-9893874D01*
X13132639Y-9893874D02*
X13132639Y-9941493D01*
X13132639Y-9941493D02*
X13123115Y-9979589D01*
X13123115Y-9979589D02*
X13113591Y-9998636D01*
X13113591Y-9998636D02*
X13104067Y-10008160D01*
X13104067Y-10008160D02*
X13085020Y-10017684D01*
X13085020Y-10017684D02*
X13065972Y-10017684D01*
X13065972Y-10017684D02*
X13046924Y-10008160D01*
X13046924Y-10008160D02*
X13037401Y-9998636D01*
X13037401Y-9998636D02*
X13027877Y-9979589D01*
X13027877Y-9979589D02*
X13018353Y-9941493D01*
X13018353Y-9941493D02*
X13018353Y-9893874D01*
X13018353Y-9893874D02*
X13027877Y-9855779D01*
X13027877Y-9855779D02*
X13037401Y-9836731D01*
X13037401Y-9836731D02*
X13046924Y-9827208D01*
X13046924Y-9827208D02*
X13065972Y-9817684D01*
X13218353Y-9998636D02*
X13227877Y-10008160D01*
X13227877Y-10008160D02*
X13218353Y-10017684D01*
X13218353Y-10017684D02*
X13208829Y-10008160D01*
X13208829Y-10008160D02*
X13218353Y-9998636D01*
X13218353Y-9998636D02*
X13218353Y-10017684D01*
X13294543Y-9817684D02*
X13418353Y-9817684D01*
X13418353Y-9817684D02*
X13351686Y-9893874D01*
X13351686Y-9893874D02*
X13380258Y-9893874D01*
X13380258Y-9893874D02*
X13399305Y-9903398D01*
X13399305Y-9903398D02*
X13408829Y-9912922D01*
X13408829Y-9912922D02*
X13418353Y-9931970D01*
X13418353Y-9931970D02*
X13418353Y-9979589D01*
X13418353Y-9979589D02*
X13408829Y-9998636D01*
X13408829Y-9998636D02*
X13399305Y-10008160D01*
X13399305Y-10008160D02*
X13380258Y-10017684D01*
X13380258Y-10017684D02*
X13323115Y-10017684D01*
X13323115Y-10017684D02*
X13304067Y-10008160D01*
X13304067Y-10008160D02*
X13294543Y-9998636D01*
X13542162Y-9817684D02*
X13561210Y-9817684D01*
X13561210Y-9817684D02*
X13580258Y-9827208D01*
X13580258Y-9827208D02*
X13589782Y-9836731D01*
X13589782Y-9836731D02*
X13599305Y-9855779D01*
X13599305Y-9855779D02*
X13608829Y-9893874D01*
X13608829Y-9893874D02*
X13608829Y-9941493D01*
X13608829Y-9941493D02*
X13599305Y-9979589D01*
X13599305Y-9979589D02*
X13589782Y-9998636D01*
X13589782Y-9998636D02*
X13580258Y-10008160D01*
X13580258Y-10008160D02*
X13561210Y-10017684D01*
X13561210Y-10017684D02*
X13542162Y-10017684D01*
X13542162Y-10017684D02*
X13523115Y-10008160D01*
X13523115Y-10008160D02*
X13513591Y-9998636D01*
X13513591Y-9998636D02*
X13504067Y-9979589D01*
X13504067Y-9979589D02*
X13494543Y-9941493D01*
X13494543Y-9941493D02*
X13494543Y-9893874D01*
X13494543Y-9893874D02*
X13504067Y-9855779D01*
X13504067Y-9855779D02*
X13513591Y-9836731D01*
X13513591Y-9836731D02*
X13523115Y-9827208D01*
X13523115Y-9827208D02*
X13542162Y-9817684D01*
X13732639Y-9817684D02*
X13751686Y-9817684D01*
X13751686Y-9817684D02*
X13770734Y-9827208D01*
X13770734Y-9827208D02*
X13780258Y-9836731D01*
X13780258Y-9836731D02*
X13789782Y-9855779D01*
X13789782Y-9855779D02*
X13799305Y-9893874D01*
X13799305Y-9893874D02*
X13799305Y-9941493D01*
X13799305Y-9941493D02*
X13789782Y-9979589D01*
X13789782Y-9979589D02*
X13780258Y-9998636D01*
X13780258Y-9998636D02*
X13770734Y-10008160D01*
X13770734Y-10008160D02*
X13751686Y-10017684D01*
X13751686Y-10017684D02*
X13732639Y-10017684D01*
X13732639Y-10017684D02*
X13713591Y-10008160D01*
X13713591Y-10008160D02*
X13704067Y-9998636D01*
X13704067Y-9998636D02*
X13694543Y-9979589D01*
X13694543Y-9979589D02*
X13685020Y-9941493D01*
X13685020Y-9941493D02*
X13685020Y-9893874D01*
X13685020Y-9893874D02*
X13694543Y-9855779D01*
X13694543Y-9855779D02*
X13704067Y-9836731D01*
X13704067Y-9836731D02*
X13713591Y-9827208D01*
X13713591Y-9827208D02*
X13732639Y-9817684D01*
X13885020Y-10017684D02*
X13885020Y-9884350D01*
X13885020Y-9903398D02*
X13894543Y-9893874D01*
X13894543Y-9893874D02*
X13913591Y-9884350D01*
X13913591Y-9884350D02*
X13942163Y-9884350D01*
X13942163Y-9884350D02*
X13961210Y-9893874D01*
X13961210Y-9893874D02*
X13970734Y-9912922D01*
X13970734Y-9912922D02*
X13970734Y-10017684D01*
X13970734Y-9912922D02*
X13980258Y-9893874D01*
X13980258Y-9893874D02*
X13999305Y-9884350D01*
X13999305Y-9884350D02*
X14027877Y-9884350D01*
X14027877Y-9884350D02*
X14046924Y-9893874D01*
X14046924Y-9893874D02*
X14056448Y-9912922D01*
X14056448Y-9912922D02*
X14056448Y-10017684D01*
X14151686Y-10017684D02*
X14151686Y-9884350D01*
X14151686Y-9903398D02*
X14161210Y-9893874D01*
X14161210Y-9893874D02*
X14180258Y-9884350D01*
X14180258Y-9884350D02*
X14208829Y-9884350D01*
X14208829Y-9884350D02*
X14227877Y-9893874D01*
X14227877Y-9893874D02*
X14237401Y-9912922D01*
X14237401Y-9912922D02*
X14237401Y-10017684D01*
X14237401Y-9912922D02*
X14246924Y-9893874D01*
X14246924Y-9893874D02*
X14265972Y-9884350D01*
X14265972Y-9884350D02*
X14294543Y-9884350D01*
X14294543Y-9884350D02*
X14313591Y-9893874D01*
X14313591Y-9893874D02*
X14323115Y-9912922D01*
X14323115Y-9912922D02*
X14323115Y-10017684D01*
X14713591Y-9808160D02*
X14542163Y-10065303D01*
X14970734Y-9817684D02*
X14989782Y-9817684D01*
X14989782Y-9817684D02*
X15008829Y-9827208D01*
X15008829Y-9827208D02*
X15018353Y-9836731D01*
X15018353Y-9836731D02*
X15027877Y-9855779D01*
X15027877Y-9855779D02*
X15037401Y-9893874D01*
X15037401Y-9893874D02*
X15037401Y-9941493D01*
X15037401Y-9941493D02*
X15027877Y-9979589D01*
X15027877Y-9979589D02*
X15018353Y-9998636D01*
X15018353Y-9998636D02*
X15008829Y-10008160D01*
X15008829Y-10008160D02*
X14989782Y-10017684D01*
X14989782Y-10017684D02*
X14970734Y-10017684D01*
X14970734Y-10017684D02*
X14951686Y-10008160D01*
X14951686Y-10008160D02*
X14942163Y-9998636D01*
X14942163Y-9998636D02*
X14932639Y-9979589D01*
X14932639Y-9979589D02*
X14923115Y-9941493D01*
X14923115Y-9941493D02*
X14923115Y-9893874D01*
X14923115Y-9893874D02*
X14932639Y-9855779D01*
X14932639Y-9855779D02*
X14942163Y-9836731D01*
X14942163Y-9836731D02*
X14951686Y-9827208D01*
X14951686Y-9827208D02*
X14970734Y-9817684D01*
X15123115Y-9998636D02*
X15132639Y-10008160D01*
X15132639Y-10008160D02*
X15123115Y-10017684D01*
X15123115Y-10017684D02*
X15113591Y-10008160D01*
X15113591Y-10008160D02*
X15123115Y-9998636D01*
X15123115Y-9998636D02*
X15123115Y-10017684D01*
X15256448Y-9817684D02*
X15275496Y-9817684D01*
X15275496Y-9817684D02*
X15294544Y-9827208D01*
X15294544Y-9827208D02*
X15304067Y-9836731D01*
X15304067Y-9836731D02*
X15313591Y-9855779D01*
X15313591Y-9855779D02*
X15323115Y-9893874D01*
X15323115Y-9893874D02*
X15323115Y-9941493D01*
X15323115Y-9941493D02*
X15313591Y-9979589D01*
X15313591Y-9979589D02*
X15304067Y-9998636D01*
X15304067Y-9998636D02*
X15294544Y-10008160D01*
X15294544Y-10008160D02*
X15275496Y-10017684D01*
X15275496Y-10017684D02*
X15256448Y-10017684D01*
X15256448Y-10017684D02*
X15237401Y-10008160D01*
X15237401Y-10008160D02*
X15227877Y-9998636D01*
X15227877Y-9998636D02*
X15218353Y-9979589D01*
X15218353Y-9979589D02*
X15208829Y-9941493D01*
X15208829Y-9941493D02*
X15208829Y-9893874D01*
X15208829Y-9893874D02*
X15218353Y-9855779D01*
X15218353Y-9855779D02*
X15227877Y-9836731D01*
X15227877Y-9836731D02*
X15237401Y-9827208D01*
X15237401Y-9827208D02*
X15256448Y-9817684D01*
X15513591Y-10017684D02*
X15399306Y-10017684D01*
X15456448Y-10017684D02*
X15456448Y-9817684D01*
X15456448Y-9817684D02*
X15437401Y-9846255D01*
X15437401Y-9846255D02*
X15418353Y-9865303D01*
X15418353Y-9865303D02*
X15399306Y-9874827D01*
X15704067Y-10017684D02*
X15589782Y-10017684D01*
X15646925Y-10017684D02*
X15646925Y-9817684D01*
X15646925Y-9817684D02*
X15627877Y-9846255D01*
X15627877Y-9846255D02*
X15608829Y-9865303D01*
X15608829Y-9865303D02*
X15589782Y-9874827D01*
X15818353Y-9903398D02*
X15799306Y-9893874D01*
X15799306Y-9893874D02*
X15789782Y-9884350D01*
X15789782Y-9884350D02*
X15780258Y-9865303D01*
X15780258Y-9865303D02*
X15780258Y-9855779D01*
X15780258Y-9855779D02*
X15789782Y-9836731D01*
X15789782Y-9836731D02*
X15799306Y-9827208D01*
X15799306Y-9827208D02*
X15818353Y-9817684D01*
X15818353Y-9817684D02*
X15856448Y-9817684D01*
X15856448Y-9817684D02*
X15875496Y-9827208D01*
X15875496Y-9827208D02*
X15885020Y-9836731D01*
X15885020Y-9836731D02*
X15894544Y-9855779D01*
X15894544Y-9855779D02*
X15894544Y-9865303D01*
X15894544Y-9865303D02*
X15885020Y-9884350D01*
X15885020Y-9884350D02*
X15875496Y-9893874D01*
X15875496Y-9893874D02*
X15856448Y-9903398D01*
X15856448Y-9903398D02*
X15818353Y-9903398D01*
X15818353Y-9903398D02*
X15799306Y-9912922D01*
X15799306Y-9912922D02*
X15789782Y-9922446D01*
X15789782Y-9922446D02*
X15780258Y-9941493D01*
X15780258Y-9941493D02*
X15780258Y-9979589D01*
X15780258Y-9979589D02*
X15789782Y-9998636D01*
X15789782Y-9998636D02*
X15799306Y-10008160D01*
X15799306Y-10008160D02*
X15818353Y-10017684D01*
X15818353Y-10017684D02*
X15856448Y-10017684D01*
X15856448Y-10017684D02*
X15875496Y-10008160D01*
X15875496Y-10008160D02*
X15885020Y-9998636D01*
X15885020Y-9998636D02*
X15894544Y-9979589D01*
X15894544Y-9979589D02*
X15894544Y-9941493D01*
X15894544Y-9941493D02*
X15885020Y-9922446D01*
X15885020Y-9922446D02*
X15875496Y-9912922D01*
X15875496Y-9912922D02*
X15856448Y-9903398D01*
X15970734Y-9817684D02*
X15970734Y-9855779D01*
X16046925Y-9817684D02*
X16046925Y-9855779D01*
X16342163Y-10093874D02*
X16332639Y-10084350D01*
X16332639Y-10084350D02*
X16313591Y-10055779D01*
X16313591Y-10055779D02*
X16304068Y-10036731D01*
X16304068Y-10036731D02*
X16294544Y-10008160D01*
X16294544Y-10008160D02*
X16285020Y-9960541D01*
X16285020Y-9960541D02*
X16285020Y-9922446D01*
X16285020Y-9922446D02*
X16294544Y-9874827D01*
X16294544Y-9874827D02*
X16304068Y-9846255D01*
X16304068Y-9846255D02*
X16313591Y-9827208D01*
X16313591Y-9827208D02*
X16332639Y-9798636D01*
X16332639Y-9798636D02*
X16342163Y-9789112D01*
X16523115Y-10017684D02*
X16408829Y-10017684D01*
X16465972Y-10017684D02*
X16465972Y-9817684D01*
X16465972Y-9817684D02*
X16446925Y-9846255D01*
X16446925Y-9846255D02*
X16427877Y-9865303D01*
X16427877Y-9865303D02*
X16408829Y-9874827D01*
X16599306Y-9836731D02*
X16608829Y-9827208D01*
X16608829Y-9827208D02*
X16627877Y-9817684D01*
X16627877Y-9817684D02*
X16675496Y-9817684D01*
X16675496Y-9817684D02*
X16694544Y-9827208D01*
X16694544Y-9827208D02*
X16704068Y-9836731D01*
X16704068Y-9836731D02*
X16713591Y-9855779D01*
X16713591Y-9855779D02*
X16713591Y-9874827D01*
X16713591Y-9874827D02*
X16704068Y-9903398D01*
X16704068Y-9903398D02*
X16589782Y-10017684D01*
X16589782Y-10017684D02*
X16713591Y-10017684D01*
X16951687Y-10017684D02*
X16951687Y-9817684D01*
X17037401Y-10017684D02*
X17037401Y-9912922D01*
X17037401Y-9912922D02*
X17027877Y-9893874D01*
X17027877Y-9893874D02*
X17008830Y-9884350D01*
X17008830Y-9884350D02*
X16980258Y-9884350D01*
X16980258Y-9884350D02*
X16961211Y-9893874D01*
X16961211Y-9893874D02*
X16951687Y-9903398D01*
X17161211Y-10017684D02*
X17142163Y-10008160D01*
X17142163Y-10008160D02*
X17132639Y-9998636D01*
X17132639Y-9998636D02*
X17123115Y-9979589D01*
X17123115Y-9979589D02*
X17123115Y-9922446D01*
X17123115Y-9922446D02*
X17132639Y-9903398D01*
X17132639Y-9903398D02*
X17142163Y-9893874D01*
X17142163Y-9893874D02*
X17161211Y-9884350D01*
X17161211Y-9884350D02*
X17189782Y-9884350D01*
X17189782Y-9884350D02*
X17208830Y-9893874D01*
X17208830Y-9893874D02*
X17218353Y-9903398D01*
X17218353Y-9903398D02*
X17227877Y-9922446D01*
X17227877Y-9922446D02*
X17227877Y-9979589D01*
X17227877Y-9979589D02*
X17218353Y-9998636D01*
X17218353Y-9998636D02*
X17208830Y-10008160D01*
X17208830Y-10008160D02*
X17189782Y-10017684D01*
X17189782Y-10017684D02*
X17161211Y-10017684D01*
X17342163Y-10017684D02*
X17323115Y-10008160D01*
X17323115Y-10008160D02*
X17313592Y-9989112D01*
X17313592Y-9989112D02*
X17313592Y-9817684D01*
X17494544Y-10008160D02*
X17475496Y-10017684D01*
X17475496Y-10017684D02*
X17437401Y-10017684D01*
X17437401Y-10017684D02*
X17418353Y-10008160D01*
X17418353Y-10008160D02*
X17408830Y-9989112D01*
X17408830Y-9989112D02*
X17408830Y-9912922D01*
X17408830Y-9912922D02*
X17418353Y-9893874D01*
X17418353Y-9893874D02*
X17437401Y-9884350D01*
X17437401Y-9884350D02*
X17475496Y-9884350D01*
X17475496Y-9884350D02*
X17494544Y-9893874D01*
X17494544Y-9893874D02*
X17504068Y-9912922D01*
X17504068Y-9912922D02*
X17504068Y-9931970D01*
X17504068Y-9931970D02*
X17408830Y-9951017D01*
X17580258Y-10008160D02*
X17599306Y-10017684D01*
X17599306Y-10017684D02*
X17637401Y-10017684D01*
X17637401Y-10017684D02*
X17656449Y-10008160D01*
X17656449Y-10008160D02*
X17665973Y-9989112D01*
X17665973Y-9989112D02*
X17665973Y-9979589D01*
X17665973Y-9979589D02*
X17656449Y-9960541D01*
X17656449Y-9960541D02*
X17637401Y-9951017D01*
X17637401Y-9951017D02*
X17608830Y-9951017D01*
X17608830Y-9951017D02*
X17589782Y-9941493D01*
X17589782Y-9941493D02*
X17580258Y-9922446D01*
X17580258Y-9922446D02*
X17580258Y-9912922D01*
X17580258Y-9912922D02*
X17589782Y-9893874D01*
X17589782Y-9893874D02*
X17608830Y-9884350D01*
X17608830Y-9884350D02*
X17637401Y-9884350D01*
X17637401Y-9884350D02*
X17656449Y-9893874D01*
X17732639Y-10093874D02*
X17742163Y-10084350D01*
X17742163Y-10084350D02*
X17761211Y-10055779D01*
X17761211Y-10055779D02*
X17770734Y-10036731D01*
X17770734Y-10036731D02*
X17780258Y-10008160D01*
X17780258Y-10008160D02*
X17789782Y-9960541D01*
X17789782Y-9960541D02*
X17789782Y-9922446D01*
X17789782Y-9922446D02*
X17780258Y-9874827D01*
X17780258Y-9874827D02*
X17770734Y-9846255D01*
X17770734Y-9846255D02*
X17761211Y-9827208D01*
X17761211Y-9827208D02*
X17742163Y-9798636D01*
X17742163Y-9798636D02*
X17732639Y-9789112D01*
D12*
X12767100Y-10190200D02*
G75*
G02*
X12702100Y-10190200I-32500J0D01*
G01*
X12702100Y-10190200D02*
G75*
G02*
X12767100Y-10190200I32500J0D01*
G01*
D11*
X13065972Y-10081684D02*
X13085020Y-10081684D01*
X13085020Y-10081684D02*
X13104067Y-10091208D01*
X13104067Y-10091208D02*
X13113591Y-10100731D01*
X13113591Y-10100731D02*
X13123115Y-10119779D01*
X13123115Y-10119779D02*
X13132639Y-10157874D01*
X13132639Y-10157874D02*
X13132639Y-10205493D01*
X13132639Y-10205493D02*
X13123115Y-10243589D01*
X13123115Y-10243589D02*
X13113591Y-10262636D01*
X13113591Y-10262636D02*
X13104067Y-10272160D01*
X13104067Y-10272160D02*
X13085020Y-10281684D01*
X13085020Y-10281684D02*
X13065972Y-10281684D01*
X13065972Y-10281684D02*
X13046924Y-10272160D01*
X13046924Y-10272160D02*
X13037401Y-10262636D01*
X13037401Y-10262636D02*
X13027877Y-10243589D01*
X13027877Y-10243589D02*
X13018353Y-10205493D01*
X13018353Y-10205493D02*
X13018353Y-10157874D01*
X13018353Y-10157874D02*
X13027877Y-10119779D01*
X13027877Y-10119779D02*
X13037401Y-10100731D01*
X13037401Y-10100731D02*
X13046924Y-10091208D01*
X13046924Y-10091208D02*
X13065972Y-10081684D01*
X13218353Y-10262636D02*
X13227877Y-10272160D01*
X13227877Y-10272160D02*
X13218353Y-10281684D01*
X13218353Y-10281684D02*
X13208829Y-10272160D01*
X13208829Y-10272160D02*
X13218353Y-10262636D01*
X13218353Y-10262636D02*
X13218353Y-10281684D01*
X13399305Y-10081684D02*
X13361210Y-10081684D01*
X13361210Y-10081684D02*
X13342162Y-10091208D01*
X13342162Y-10091208D02*
X13332639Y-10100731D01*
X13332639Y-10100731D02*
X13313591Y-10129303D01*
X13313591Y-10129303D02*
X13304067Y-10167398D01*
X13304067Y-10167398D02*
X13304067Y-10243589D01*
X13304067Y-10243589D02*
X13313591Y-10262636D01*
X13313591Y-10262636D02*
X13323115Y-10272160D01*
X13323115Y-10272160D02*
X13342162Y-10281684D01*
X13342162Y-10281684D02*
X13380258Y-10281684D01*
X13380258Y-10281684D02*
X13399305Y-10272160D01*
X13399305Y-10272160D02*
X13408829Y-10262636D01*
X13408829Y-10262636D02*
X13418353Y-10243589D01*
X13418353Y-10243589D02*
X13418353Y-10195970D01*
X13418353Y-10195970D02*
X13408829Y-10176922D01*
X13408829Y-10176922D02*
X13399305Y-10167398D01*
X13399305Y-10167398D02*
X13380258Y-10157874D01*
X13380258Y-10157874D02*
X13342162Y-10157874D01*
X13342162Y-10157874D02*
X13323115Y-10167398D01*
X13323115Y-10167398D02*
X13313591Y-10176922D01*
X13313591Y-10176922D02*
X13304067Y-10195970D01*
X13599305Y-10081684D02*
X13504067Y-10081684D01*
X13504067Y-10081684D02*
X13494543Y-10176922D01*
X13494543Y-10176922D02*
X13504067Y-10167398D01*
X13504067Y-10167398D02*
X13523115Y-10157874D01*
X13523115Y-10157874D02*
X13570734Y-10157874D01*
X13570734Y-10157874D02*
X13589782Y-10167398D01*
X13589782Y-10167398D02*
X13599305Y-10176922D01*
X13599305Y-10176922D02*
X13608829Y-10195970D01*
X13608829Y-10195970D02*
X13608829Y-10243589D01*
X13608829Y-10243589D02*
X13599305Y-10262636D01*
X13599305Y-10262636D02*
X13589782Y-10272160D01*
X13589782Y-10272160D02*
X13570734Y-10281684D01*
X13570734Y-10281684D02*
X13523115Y-10281684D01*
X13523115Y-10281684D02*
X13504067Y-10272160D01*
X13504067Y-10272160D02*
X13494543Y-10262636D01*
X13732639Y-10081684D02*
X13751686Y-10081684D01*
X13751686Y-10081684D02*
X13770734Y-10091208D01*
X13770734Y-10091208D02*
X13780258Y-10100731D01*
X13780258Y-10100731D02*
X13789782Y-10119779D01*
X13789782Y-10119779D02*
X13799305Y-10157874D01*
X13799305Y-10157874D02*
X13799305Y-10205493D01*
X13799305Y-10205493D02*
X13789782Y-10243589D01*
X13789782Y-10243589D02*
X13780258Y-10262636D01*
X13780258Y-10262636D02*
X13770734Y-10272160D01*
X13770734Y-10272160D02*
X13751686Y-10281684D01*
X13751686Y-10281684D02*
X13732639Y-10281684D01*
X13732639Y-10281684D02*
X13713591Y-10272160D01*
X13713591Y-10272160D02*
X13704067Y-10262636D01*
X13704067Y-10262636D02*
X13694543Y-10243589D01*
X13694543Y-10243589D02*
X13685020Y-10205493D01*
X13685020Y-10205493D02*
X13685020Y-10157874D01*
X13685020Y-10157874D02*
X13694543Y-10119779D01*
X13694543Y-10119779D02*
X13704067Y-10100731D01*
X13704067Y-10100731D02*
X13713591Y-10091208D01*
X13713591Y-10091208D02*
X13732639Y-10081684D01*
X13885020Y-10281684D02*
X13885020Y-10148350D01*
X13885020Y-10167398D02*
X13894543Y-10157874D01*
X13894543Y-10157874D02*
X13913591Y-10148350D01*
X13913591Y-10148350D02*
X13942163Y-10148350D01*
X13942163Y-10148350D02*
X13961210Y-10157874D01*
X13961210Y-10157874D02*
X13970734Y-10176922D01*
X13970734Y-10176922D02*
X13970734Y-10281684D01*
X13970734Y-10176922D02*
X13980258Y-10157874D01*
X13980258Y-10157874D02*
X13999305Y-10148350D01*
X13999305Y-10148350D02*
X14027877Y-10148350D01*
X14027877Y-10148350D02*
X14046924Y-10157874D01*
X14046924Y-10157874D02*
X14056448Y-10176922D01*
X14056448Y-10176922D02*
X14056448Y-10281684D01*
X14151686Y-10281684D02*
X14151686Y-10148350D01*
X14151686Y-10167398D02*
X14161210Y-10157874D01*
X14161210Y-10157874D02*
X14180258Y-10148350D01*
X14180258Y-10148350D02*
X14208829Y-10148350D01*
X14208829Y-10148350D02*
X14227877Y-10157874D01*
X14227877Y-10157874D02*
X14237401Y-10176922D01*
X14237401Y-10176922D02*
X14237401Y-10281684D01*
X14237401Y-10176922D02*
X14246924Y-10157874D01*
X14246924Y-10157874D02*
X14265972Y-10148350D01*
X14265972Y-10148350D02*
X14294543Y-10148350D01*
X14294543Y-10148350D02*
X14313591Y-10157874D01*
X14313591Y-10157874D02*
X14323115Y-10176922D01*
X14323115Y-10176922D02*
X14323115Y-10281684D01*
X14713591Y-10072160D02*
X14542163Y-10329303D01*
X14970734Y-10081684D02*
X14989782Y-10081684D01*
X14989782Y-10081684D02*
X15008829Y-10091208D01*
X15008829Y-10091208D02*
X15018353Y-10100731D01*
X15018353Y-10100731D02*
X15027877Y-10119779D01*
X15027877Y-10119779D02*
X15037401Y-10157874D01*
X15037401Y-10157874D02*
X15037401Y-10205493D01*
X15037401Y-10205493D02*
X15027877Y-10243589D01*
X15027877Y-10243589D02*
X15018353Y-10262636D01*
X15018353Y-10262636D02*
X15008829Y-10272160D01*
X15008829Y-10272160D02*
X14989782Y-10281684D01*
X14989782Y-10281684D02*
X14970734Y-10281684D01*
X14970734Y-10281684D02*
X14951686Y-10272160D01*
X14951686Y-10272160D02*
X14942163Y-10262636D01*
X14942163Y-10262636D02*
X14932639Y-10243589D01*
X14932639Y-10243589D02*
X14923115Y-10205493D01*
X14923115Y-10205493D02*
X14923115Y-10157874D01*
X14923115Y-10157874D02*
X14932639Y-10119779D01*
X14932639Y-10119779D02*
X14942163Y-10100731D01*
X14942163Y-10100731D02*
X14951686Y-10091208D01*
X14951686Y-10091208D02*
X14970734Y-10081684D01*
X15123115Y-10262636D02*
X15132639Y-10272160D01*
X15132639Y-10272160D02*
X15123115Y-10281684D01*
X15123115Y-10281684D02*
X15113591Y-10272160D01*
X15113591Y-10272160D02*
X15123115Y-10262636D01*
X15123115Y-10262636D02*
X15123115Y-10281684D01*
X15256448Y-10081684D02*
X15275496Y-10081684D01*
X15275496Y-10081684D02*
X15294544Y-10091208D01*
X15294544Y-10091208D02*
X15304067Y-10100731D01*
X15304067Y-10100731D02*
X15313591Y-10119779D01*
X15313591Y-10119779D02*
X15323115Y-10157874D01*
X15323115Y-10157874D02*
X15323115Y-10205493D01*
X15323115Y-10205493D02*
X15313591Y-10243589D01*
X15313591Y-10243589D02*
X15304067Y-10262636D01*
X15304067Y-10262636D02*
X15294544Y-10272160D01*
X15294544Y-10272160D02*
X15275496Y-10281684D01*
X15275496Y-10281684D02*
X15256448Y-10281684D01*
X15256448Y-10281684D02*
X15237401Y-10272160D01*
X15237401Y-10272160D02*
X15227877Y-10262636D01*
X15227877Y-10262636D02*
X15218353Y-10243589D01*
X15218353Y-10243589D02*
X15208829Y-10205493D01*
X15208829Y-10205493D02*
X15208829Y-10157874D01*
X15208829Y-10157874D02*
X15218353Y-10119779D01*
X15218353Y-10119779D02*
X15227877Y-10100731D01*
X15227877Y-10100731D02*
X15237401Y-10091208D01*
X15237401Y-10091208D02*
X15256448Y-10081684D01*
X15399306Y-10100731D02*
X15408829Y-10091208D01*
X15408829Y-10091208D02*
X15427877Y-10081684D01*
X15427877Y-10081684D02*
X15475496Y-10081684D01*
X15475496Y-10081684D02*
X15494544Y-10091208D01*
X15494544Y-10091208D02*
X15504067Y-10100731D01*
X15504067Y-10100731D02*
X15513591Y-10119779D01*
X15513591Y-10119779D02*
X15513591Y-10138827D01*
X15513591Y-10138827D02*
X15504067Y-10167398D01*
X15504067Y-10167398D02*
X15389782Y-10281684D01*
X15389782Y-10281684D02*
X15513591Y-10281684D01*
X15694544Y-10081684D02*
X15599306Y-10081684D01*
X15599306Y-10081684D02*
X15589782Y-10176922D01*
X15589782Y-10176922D02*
X15599306Y-10167398D01*
X15599306Y-10167398D02*
X15618353Y-10157874D01*
X15618353Y-10157874D02*
X15665972Y-10157874D01*
X15665972Y-10157874D02*
X15685020Y-10167398D01*
X15685020Y-10167398D02*
X15694544Y-10176922D01*
X15694544Y-10176922D02*
X15704067Y-10195970D01*
X15704067Y-10195970D02*
X15704067Y-10243589D01*
X15704067Y-10243589D02*
X15694544Y-10262636D01*
X15694544Y-10262636D02*
X15685020Y-10272160D01*
X15685020Y-10272160D02*
X15665972Y-10281684D01*
X15665972Y-10281684D02*
X15618353Y-10281684D01*
X15618353Y-10281684D02*
X15599306Y-10272160D01*
X15599306Y-10272160D02*
X15589782Y-10262636D01*
X15875496Y-10081684D02*
X15837401Y-10081684D01*
X15837401Y-10081684D02*
X15818353Y-10091208D01*
X15818353Y-10091208D02*
X15808829Y-10100731D01*
X15808829Y-10100731D02*
X15789782Y-10129303D01*
X15789782Y-10129303D02*
X15780258Y-10167398D01*
X15780258Y-10167398D02*
X15780258Y-10243589D01*
X15780258Y-10243589D02*
X15789782Y-10262636D01*
X15789782Y-10262636D02*
X15799306Y-10272160D01*
X15799306Y-10272160D02*
X15818353Y-10281684D01*
X15818353Y-10281684D02*
X15856448Y-10281684D01*
X15856448Y-10281684D02*
X15875496Y-10272160D01*
X15875496Y-10272160D02*
X15885020Y-10262636D01*
X15885020Y-10262636D02*
X15894544Y-10243589D01*
X15894544Y-10243589D02*
X15894544Y-10195970D01*
X15894544Y-10195970D02*
X15885020Y-10176922D01*
X15885020Y-10176922D02*
X15875496Y-10167398D01*
X15875496Y-10167398D02*
X15856448Y-10157874D01*
X15856448Y-10157874D02*
X15818353Y-10157874D01*
X15818353Y-10157874D02*
X15799306Y-10167398D01*
X15799306Y-10167398D02*
X15789782Y-10176922D01*
X15789782Y-10176922D02*
X15780258Y-10195970D01*
X15970734Y-10081684D02*
X15970734Y-10119779D01*
X16046925Y-10081684D02*
X16046925Y-10119779D01*
X16342163Y-10357874D02*
X16332639Y-10348350D01*
X16332639Y-10348350D02*
X16313591Y-10319779D01*
X16313591Y-10319779D02*
X16304068Y-10300731D01*
X16304068Y-10300731D02*
X16294544Y-10272160D01*
X16294544Y-10272160D02*
X16285020Y-10224541D01*
X16285020Y-10224541D02*
X16285020Y-10186446D01*
X16285020Y-10186446D02*
X16294544Y-10138827D01*
X16294544Y-10138827D02*
X16304068Y-10110255D01*
X16304068Y-10110255D02*
X16313591Y-10091208D01*
X16313591Y-10091208D02*
X16332639Y-10062636D01*
X16332639Y-10062636D02*
X16342163Y-10053112D01*
X16399306Y-10081684D02*
X16523115Y-10081684D01*
X16523115Y-10081684D02*
X16456448Y-10157874D01*
X16456448Y-10157874D02*
X16485020Y-10157874D01*
X16485020Y-10157874D02*
X16504068Y-10167398D01*
X16504068Y-10167398D02*
X16513591Y-10176922D01*
X16513591Y-10176922D02*
X16523115Y-10195970D01*
X16523115Y-10195970D02*
X16523115Y-10243589D01*
X16523115Y-10243589D02*
X16513591Y-10262636D01*
X16513591Y-10262636D02*
X16504068Y-10272160D01*
X16504068Y-10272160D02*
X16485020Y-10281684D01*
X16485020Y-10281684D02*
X16427877Y-10281684D01*
X16427877Y-10281684D02*
X16408829Y-10272160D01*
X16408829Y-10272160D02*
X16399306Y-10262636D01*
X16694544Y-10081684D02*
X16656448Y-10081684D01*
X16656448Y-10081684D02*
X16637401Y-10091208D01*
X16637401Y-10091208D02*
X16627877Y-10100731D01*
X16627877Y-10100731D02*
X16608829Y-10129303D01*
X16608829Y-10129303D02*
X16599306Y-10167398D01*
X16599306Y-10167398D02*
X16599306Y-10243589D01*
X16599306Y-10243589D02*
X16608829Y-10262636D01*
X16608829Y-10262636D02*
X16618353Y-10272160D01*
X16618353Y-10272160D02*
X16637401Y-10281684D01*
X16637401Y-10281684D02*
X16675496Y-10281684D01*
X16675496Y-10281684D02*
X16694544Y-10272160D01*
X16694544Y-10272160D02*
X16704068Y-10262636D01*
X16704068Y-10262636D02*
X16713591Y-10243589D01*
X16713591Y-10243589D02*
X16713591Y-10195970D01*
X16713591Y-10195970D02*
X16704068Y-10176922D01*
X16704068Y-10176922D02*
X16694544Y-10167398D01*
X16694544Y-10167398D02*
X16675496Y-10157874D01*
X16675496Y-10157874D02*
X16637401Y-10157874D01*
X16637401Y-10157874D02*
X16618353Y-10167398D01*
X16618353Y-10167398D02*
X16608829Y-10176922D01*
X16608829Y-10176922D02*
X16599306Y-10195970D01*
X16951687Y-10281684D02*
X16951687Y-10081684D01*
X17037401Y-10281684D02*
X17037401Y-10176922D01*
X17037401Y-10176922D02*
X17027877Y-10157874D01*
X17027877Y-10157874D02*
X17008830Y-10148350D01*
X17008830Y-10148350D02*
X16980258Y-10148350D01*
X16980258Y-10148350D02*
X16961211Y-10157874D01*
X16961211Y-10157874D02*
X16951687Y-10167398D01*
X17161211Y-10281684D02*
X17142163Y-10272160D01*
X17142163Y-10272160D02*
X17132639Y-10262636D01*
X17132639Y-10262636D02*
X17123115Y-10243589D01*
X17123115Y-10243589D02*
X17123115Y-10186446D01*
X17123115Y-10186446D02*
X17132639Y-10167398D01*
X17132639Y-10167398D02*
X17142163Y-10157874D01*
X17142163Y-10157874D02*
X17161211Y-10148350D01*
X17161211Y-10148350D02*
X17189782Y-10148350D01*
X17189782Y-10148350D02*
X17208830Y-10157874D01*
X17208830Y-10157874D02*
X17218353Y-10167398D01*
X17218353Y-10167398D02*
X17227877Y-10186446D01*
X17227877Y-10186446D02*
X17227877Y-10243589D01*
X17227877Y-10243589D02*
X17218353Y-10262636D01*
X17218353Y-10262636D02*
X17208830Y-10272160D01*
X17208830Y-10272160D02*
X17189782Y-10281684D01*
X17189782Y-10281684D02*
X17161211Y-10281684D01*
X17342163Y-10281684D02*
X17323115Y-10272160D01*
X17323115Y-10272160D02*
X17313592Y-10253112D01*
X17313592Y-10253112D02*
X17313592Y-10081684D01*
X17494544Y-10272160D02*
X17475496Y-10281684D01*
X17475496Y-10281684D02*
X17437401Y-10281684D01*
X17437401Y-10281684D02*
X17418353Y-10272160D01*
X17418353Y-10272160D02*
X17408830Y-10253112D01*
X17408830Y-10253112D02*
X17408830Y-10176922D01*
X17408830Y-10176922D02*
X17418353Y-10157874D01*
X17418353Y-10157874D02*
X17437401Y-10148350D01*
X17437401Y-10148350D02*
X17475496Y-10148350D01*
X17475496Y-10148350D02*
X17494544Y-10157874D01*
X17494544Y-10157874D02*
X17504068Y-10176922D01*
X17504068Y-10176922D02*
X17504068Y-10195970D01*
X17504068Y-10195970D02*
X17408830Y-10215017D01*
X17580258Y-10272160D02*
X17599306Y-10281684D01*
X17599306Y-10281684D02*
X17637401Y-10281684D01*
X17637401Y-10281684D02*
X17656449Y-10272160D01*
X17656449Y-10272160D02*
X17665973Y-10253112D01*
X17665973Y-10253112D02*
X17665973Y-10243589D01*
X17665973Y-10243589D02*
X17656449Y-10224541D01*
X17656449Y-10224541D02*
X17637401Y-10215017D01*
X17637401Y-10215017D02*
X17608830Y-10215017D01*
X17608830Y-10215017D02*
X17589782Y-10205493D01*
X17589782Y-10205493D02*
X17580258Y-10186446D01*
X17580258Y-10186446D02*
X17580258Y-10176922D01*
X17580258Y-10176922D02*
X17589782Y-10157874D01*
X17589782Y-10157874D02*
X17608830Y-10148350D01*
X17608830Y-10148350D02*
X17637401Y-10148350D01*
X17637401Y-10148350D02*
X17656449Y-10157874D01*
X17732639Y-10357874D02*
X17742163Y-10348350D01*
X17742163Y-10348350D02*
X17761211Y-10319779D01*
X17761211Y-10319779D02*
X17770734Y-10300731D01*
X17770734Y-10300731D02*
X17780258Y-10272160D01*
X17780258Y-10272160D02*
X17789782Y-10224541D01*
X17789782Y-10224541D02*
X17789782Y-10186446D01*
X17789782Y-10186446D02*
X17780258Y-10138827D01*
X17780258Y-10138827D02*
X17770734Y-10110255D01*
X17770734Y-10110255D02*
X17761211Y-10091208D01*
X17761211Y-10091208D02*
X17742163Y-10062636D01*
X17742163Y-10062636D02*
X17732639Y-10053112D01*
D12*
X12727100Y-10414200D02*
X12727100Y-10494200D01*
X12687100Y-10454200D02*
X12767100Y-10454200D01*
D11*
X13065972Y-10345684D02*
X13085020Y-10345684D01*
X13085020Y-10345684D02*
X13104067Y-10355208D01*
X13104067Y-10355208D02*
X13113591Y-10364731D01*
X13113591Y-10364731D02*
X13123115Y-10383779D01*
X13123115Y-10383779D02*
X13132639Y-10421874D01*
X13132639Y-10421874D02*
X13132639Y-10469493D01*
X13132639Y-10469493D02*
X13123115Y-10507589D01*
X13123115Y-10507589D02*
X13113591Y-10526636D01*
X13113591Y-10526636D02*
X13104067Y-10536160D01*
X13104067Y-10536160D02*
X13085020Y-10545684D01*
X13085020Y-10545684D02*
X13065972Y-10545684D01*
X13065972Y-10545684D02*
X13046924Y-10536160D01*
X13046924Y-10536160D02*
X13037401Y-10526636D01*
X13037401Y-10526636D02*
X13027877Y-10507589D01*
X13027877Y-10507589D02*
X13018353Y-10469493D01*
X13018353Y-10469493D02*
X13018353Y-10421874D01*
X13018353Y-10421874D02*
X13027877Y-10383779D01*
X13027877Y-10383779D02*
X13037401Y-10364731D01*
X13037401Y-10364731D02*
X13046924Y-10355208D01*
X13046924Y-10355208D02*
X13065972Y-10345684D01*
X13218353Y-10526636D02*
X13227877Y-10536160D01*
X13227877Y-10536160D02*
X13218353Y-10545684D01*
X13218353Y-10545684D02*
X13208829Y-10536160D01*
X13208829Y-10536160D02*
X13218353Y-10526636D01*
X13218353Y-10526636D02*
X13218353Y-10545684D01*
X13342162Y-10431398D02*
X13323115Y-10421874D01*
X13323115Y-10421874D02*
X13313591Y-10412350D01*
X13313591Y-10412350D02*
X13304067Y-10393303D01*
X13304067Y-10393303D02*
X13304067Y-10383779D01*
X13304067Y-10383779D02*
X13313591Y-10364731D01*
X13313591Y-10364731D02*
X13323115Y-10355208D01*
X13323115Y-10355208D02*
X13342162Y-10345684D01*
X13342162Y-10345684D02*
X13380258Y-10345684D01*
X13380258Y-10345684D02*
X13399305Y-10355208D01*
X13399305Y-10355208D02*
X13408829Y-10364731D01*
X13408829Y-10364731D02*
X13418353Y-10383779D01*
X13418353Y-10383779D02*
X13418353Y-10393303D01*
X13418353Y-10393303D02*
X13408829Y-10412350D01*
X13408829Y-10412350D02*
X13399305Y-10421874D01*
X13399305Y-10421874D02*
X13380258Y-10431398D01*
X13380258Y-10431398D02*
X13342162Y-10431398D01*
X13342162Y-10431398D02*
X13323115Y-10440922D01*
X13323115Y-10440922D02*
X13313591Y-10450446D01*
X13313591Y-10450446D02*
X13304067Y-10469493D01*
X13304067Y-10469493D02*
X13304067Y-10507589D01*
X13304067Y-10507589D02*
X13313591Y-10526636D01*
X13313591Y-10526636D02*
X13323115Y-10536160D01*
X13323115Y-10536160D02*
X13342162Y-10545684D01*
X13342162Y-10545684D02*
X13380258Y-10545684D01*
X13380258Y-10545684D02*
X13399305Y-10536160D01*
X13399305Y-10536160D02*
X13408829Y-10526636D01*
X13408829Y-10526636D02*
X13418353Y-10507589D01*
X13418353Y-10507589D02*
X13418353Y-10469493D01*
X13418353Y-10469493D02*
X13408829Y-10450446D01*
X13408829Y-10450446D02*
X13399305Y-10440922D01*
X13399305Y-10440922D02*
X13380258Y-10431398D01*
X13542162Y-10345684D02*
X13561210Y-10345684D01*
X13561210Y-10345684D02*
X13580258Y-10355208D01*
X13580258Y-10355208D02*
X13589782Y-10364731D01*
X13589782Y-10364731D02*
X13599305Y-10383779D01*
X13599305Y-10383779D02*
X13608829Y-10421874D01*
X13608829Y-10421874D02*
X13608829Y-10469493D01*
X13608829Y-10469493D02*
X13599305Y-10507589D01*
X13599305Y-10507589D02*
X13589782Y-10526636D01*
X13589782Y-10526636D02*
X13580258Y-10536160D01*
X13580258Y-10536160D02*
X13561210Y-10545684D01*
X13561210Y-10545684D02*
X13542162Y-10545684D01*
X13542162Y-10545684D02*
X13523115Y-10536160D01*
X13523115Y-10536160D02*
X13513591Y-10526636D01*
X13513591Y-10526636D02*
X13504067Y-10507589D01*
X13504067Y-10507589D02*
X13494543Y-10469493D01*
X13494543Y-10469493D02*
X13494543Y-10421874D01*
X13494543Y-10421874D02*
X13504067Y-10383779D01*
X13504067Y-10383779D02*
X13513591Y-10364731D01*
X13513591Y-10364731D02*
X13523115Y-10355208D01*
X13523115Y-10355208D02*
X13542162Y-10345684D01*
X13732639Y-10345684D02*
X13751686Y-10345684D01*
X13751686Y-10345684D02*
X13770734Y-10355208D01*
X13770734Y-10355208D02*
X13780258Y-10364731D01*
X13780258Y-10364731D02*
X13789782Y-10383779D01*
X13789782Y-10383779D02*
X13799305Y-10421874D01*
X13799305Y-10421874D02*
X13799305Y-10469493D01*
X13799305Y-10469493D02*
X13789782Y-10507589D01*
X13789782Y-10507589D02*
X13780258Y-10526636D01*
X13780258Y-10526636D02*
X13770734Y-10536160D01*
X13770734Y-10536160D02*
X13751686Y-10545684D01*
X13751686Y-10545684D02*
X13732639Y-10545684D01*
X13732639Y-10545684D02*
X13713591Y-10536160D01*
X13713591Y-10536160D02*
X13704067Y-10526636D01*
X13704067Y-10526636D02*
X13694543Y-10507589D01*
X13694543Y-10507589D02*
X13685020Y-10469493D01*
X13685020Y-10469493D02*
X13685020Y-10421874D01*
X13685020Y-10421874D02*
X13694543Y-10383779D01*
X13694543Y-10383779D02*
X13704067Y-10364731D01*
X13704067Y-10364731D02*
X13713591Y-10355208D01*
X13713591Y-10355208D02*
X13732639Y-10345684D01*
X13885020Y-10545684D02*
X13885020Y-10412350D01*
X13885020Y-10431398D02*
X13894543Y-10421874D01*
X13894543Y-10421874D02*
X13913591Y-10412350D01*
X13913591Y-10412350D02*
X13942163Y-10412350D01*
X13942163Y-10412350D02*
X13961210Y-10421874D01*
X13961210Y-10421874D02*
X13970734Y-10440922D01*
X13970734Y-10440922D02*
X13970734Y-10545684D01*
X13970734Y-10440922D02*
X13980258Y-10421874D01*
X13980258Y-10421874D02*
X13999305Y-10412350D01*
X13999305Y-10412350D02*
X14027877Y-10412350D01*
X14027877Y-10412350D02*
X14046924Y-10421874D01*
X14046924Y-10421874D02*
X14056448Y-10440922D01*
X14056448Y-10440922D02*
X14056448Y-10545684D01*
X14151686Y-10545684D02*
X14151686Y-10412350D01*
X14151686Y-10431398D02*
X14161210Y-10421874D01*
X14161210Y-10421874D02*
X14180258Y-10412350D01*
X14180258Y-10412350D02*
X14208829Y-10412350D01*
X14208829Y-10412350D02*
X14227877Y-10421874D01*
X14227877Y-10421874D02*
X14237401Y-10440922D01*
X14237401Y-10440922D02*
X14237401Y-10545684D01*
X14237401Y-10440922D02*
X14246924Y-10421874D01*
X14246924Y-10421874D02*
X14265972Y-10412350D01*
X14265972Y-10412350D02*
X14294543Y-10412350D01*
X14294543Y-10412350D02*
X14313591Y-10421874D01*
X14313591Y-10421874D02*
X14323115Y-10440922D01*
X14323115Y-10440922D02*
X14323115Y-10545684D01*
X14713591Y-10336160D02*
X14542163Y-10593303D01*
X14970734Y-10345684D02*
X14989782Y-10345684D01*
X14989782Y-10345684D02*
X15008829Y-10355208D01*
X15008829Y-10355208D02*
X15018353Y-10364731D01*
X15018353Y-10364731D02*
X15027877Y-10383779D01*
X15027877Y-10383779D02*
X15037401Y-10421874D01*
X15037401Y-10421874D02*
X15037401Y-10469493D01*
X15037401Y-10469493D02*
X15027877Y-10507589D01*
X15027877Y-10507589D02*
X15018353Y-10526636D01*
X15018353Y-10526636D02*
X15008829Y-10536160D01*
X15008829Y-10536160D02*
X14989782Y-10545684D01*
X14989782Y-10545684D02*
X14970734Y-10545684D01*
X14970734Y-10545684D02*
X14951686Y-10536160D01*
X14951686Y-10536160D02*
X14942163Y-10526636D01*
X14942163Y-10526636D02*
X14932639Y-10507589D01*
X14932639Y-10507589D02*
X14923115Y-10469493D01*
X14923115Y-10469493D02*
X14923115Y-10421874D01*
X14923115Y-10421874D02*
X14932639Y-10383779D01*
X14932639Y-10383779D02*
X14942163Y-10364731D01*
X14942163Y-10364731D02*
X14951686Y-10355208D01*
X14951686Y-10355208D02*
X14970734Y-10345684D01*
X15123115Y-10526636D02*
X15132639Y-10536160D01*
X15132639Y-10536160D02*
X15123115Y-10545684D01*
X15123115Y-10545684D02*
X15113591Y-10536160D01*
X15113591Y-10536160D02*
X15123115Y-10526636D01*
X15123115Y-10526636D02*
X15123115Y-10545684D01*
X15256448Y-10345684D02*
X15275496Y-10345684D01*
X15275496Y-10345684D02*
X15294544Y-10355208D01*
X15294544Y-10355208D02*
X15304067Y-10364731D01*
X15304067Y-10364731D02*
X15313591Y-10383779D01*
X15313591Y-10383779D02*
X15323115Y-10421874D01*
X15323115Y-10421874D02*
X15323115Y-10469493D01*
X15323115Y-10469493D02*
X15313591Y-10507589D01*
X15313591Y-10507589D02*
X15304067Y-10526636D01*
X15304067Y-10526636D02*
X15294544Y-10536160D01*
X15294544Y-10536160D02*
X15275496Y-10545684D01*
X15275496Y-10545684D02*
X15256448Y-10545684D01*
X15256448Y-10545684D02*
X15237401Y-10536160D01*
X15237401Y-10536160D02*
X15227877Y-10526636D01*
X15227877Y-10526636D02*
X15218353Y-10507589D01*
X15218353Y-10507589D02*
X15208829Y-10469493D01*
X15208829Y-10469493D02*
X15208829Y-10421874D01*
X15208829Y-10421874D02*
X15218353Y-10383779D01*
X15218353Y-10383779D02*
X15227877Y-10364731D01*
X15227877Y-10364731D02*
X15237401Y-10355208D01*
X15237401Y-10355208D02*
X15256448Y-10345684D01*
X15389782Y-10345684D02*
X15513591Y-10345684D01*
X15513591Y-10345684D02*
X15446925Y-10421874D01*
X15446925Y-10421874D02*
X15475496Y-10421874D01*
X15475496Y-10421874D02*
X15494544Y-10431398D01*
X15494544Y-10431398D02*
X15504067Y-10440922D01*
X15504067Y-10440922D02*
X15513591Y-10459970D01*
X15513591Y-10459970D02*
X15513591Y-10507589D01*
X15513591Y-10507589D02*
X15504067Y-10526636D01*
X15504067Y-10526636D02*
X15494544Y-10536160D01*
X15494544Y-10536160D02*
X15475496Y-10545684D01*
X15475496Y-10545684D02*
X15418353Y-10545684D01*
X15418353Y-10545684D02*
X15399306Y-10536160D01*
X15399306Y-10536160D02*
X15389782Y-10526636D01*
X15704067Y-10545684D02*
X15589782Y-10545684D01*
X15646925Y-10545684D02*
X15646925Y-10345684D01*
X15646925Y-10345684D02*
X15627877Y-10374255D01*
X15627877Y-10374255D02*
X15608829Y-10393303D01*
X15608829Y-10393303D02*
X15589782Y-10402827D01*
X15885020Y-10345684D02*
X15789782Y-10345684D01*
X15789782Y-10345684D02*
X15780258Y-10440922D01*
X15780258Y-10440922D02*
X15789782Y-10431398D01*
X15789782Y-10431398D02*
X15808829Y-10421874D01*
X15808829Y-10421874D02*
X15856448Y-10421874D01*
X15856448Y-10421874D02*
X15875496Y-10431398D01*
X15875496Y-10431398D02*
X15885020Y-10440922D01*
X15885020Y-10440922D02*
X15894544Y-10459970D01*
X15894544Y-10459970D02*
X15894544Y-10507589D01*
X15894544Y-10507589D02*
X15885020Y-10526636D01*
X15885020Y-10526636D02*
X15875496Y-10536160D01*
X15875496Y-10536160D02*
X15856448Y-10545684D01*
X15856448Y-10545684D02*
X15808829Y-10545684D01*
X15808829Y-10545684D02*
X15789782Y-10536160D01*
X15789782Y-10536160D02*
X15780258Y-10526636D01*
X15970734Y-10345684D02*
X15970734Y-10383779D01*
X16046925Y-10345684D02*
X16046925Y-10383779D01*
X16342163Y-10621874D02*
X16332639Y-10612350D01*
X16332639Y-10612350D02*
X16313591Y-10583779D01*
X16313591Y-10583779D02*
X16304068Y-10564731D01*
X16304068Y-10564731D02*
X16294544Y-10536160D01*
X16294544Y-10536160D02*
X16285020Y-10488541D01*
X16285020Y-10488541D02*
X16285020Y-10450446D01*
X16285020Y-10450446D02*
X16294544Y-10402827D01*
X16294544Y-10402827D02*
X16304068Y-10374255D01*
X16304068Y-10374255D02*
X16313591Y-10355208D01*
X16313591Y-10355208D02*
X16332639Y-10326636D01*
X16332639Y-10326636D02*
X16342163Y-10317112D01*
X16427877Y-10545684D02*
X16465972Y-10545684D01*
X16465972Y-10545684D02*
X16485020Y-10536160D01*
X16485020Y-10536160D02*
X16494544Y-10526636D01*
X16494544Y-10526636D02*
X16513591Y-10498065D01*
X16513591Y-10498065D02*
X16523115Y-10459970D01*
X16523115Y-10459970D02*
X16523115Y-10383779D01*
X16523115Y-10383779D02*
X16513591Y-10364731D01*
X16513591Y-10364731D02*
X16504068Y-10355208D01*
X16504068Y-10355208D02*
X16485020Y-10345684D01*
X16485020Y-10345684D02*
X16446925Y-10345684D01*
X16446925Y-10345684D02*
X16427877Y-10355208D01*
X16427877Y-10355208D02*
X16418353Y-10364731D01*
X16418353Y-10364731D02*
X16408829Y-10383779D01*
X16408829Y-10383779D02*
X16408829Y-10431398D01*
X16408829Y-10431398D02*
X16418353Y-10450446D01*
X16418353Y-10450446D02*
X16427877Y-10459970D01*
X16427877Y-10459970D02*
X16446925Y-10469493D01*
X16446925Y-10469493D02*
X16485020Y-10469493D01*
X16485020Y-10469493D02*
X16504068Y-10459970D01*
X16504068Y-10459970D02*
X16513591Y-10450446D01*
X16513591Y-10450446D02*
X16523115Y-10431398D01*
X16694544Y-10412350D02*
X16694544Y-10545684D01*
X16646925Y-10336160D02*
X16599306Y-10479017D01*
X16599306Y-10479017D02*
X16723115Y-10479017D01*
X16951687Y-10545684D02*
X16951687Y-10345684D01*
X17037401Y-10545684D02*
X17037401Y-10440922D01*
X17037401Y-10440922D02*
X17027877Y-10421874D01*
X17027877Y-10421874D02*
X17008830Y-10412350D01*
X17008830Y-10412350D02*
X16980258Y-10412350D01*
X16980258Y-10412350D02*
X16961211Y-10421874D01*
X16961211Y-10421874D02*
X16951687Y-10431398D01*
X17161211Y-10545684D02*
X17142163Y-10536160D01*
X17142163Y-10536160D02*
X17132639Y-10526636D01*
X17132639Y-10526636D02*
X17123115Y-10507589D01*
X17123115Y-10507589D02*
X17123115Y-10450446D01*
X17123115Y-10450446D02*
X17132639Y-10431398D01*
X17132639Y-10431398D02*
X17142163Y-10421874D01*
X17142163Y-10421874D02*
X17161211Y-10412350D01*
X17161211Y-10412350D02*
X17189782Y-10412350D01*
X17189782Y-10412350D02*
X17208830Y-10421874D01*
X17208830Y-10421874D02*
X17218353Y-10431398D01*
X17218353Y-10431398D02*
X17227877Y-10450446D01*
X17227877Y-10450446D02*
X17227877Y-10507589D01*
X17227877Y-10507589D02*
X17218353Y-10526636D01*
X17218353Y-10526636D02*
X17208830Y-10536160D01*
X17208830Y-10536160D02*
X17189782Y-10545684D01*
X17189782Y-10545684D02*
X17161211Y-10545684D01*
X17342163Y-10545684D02*
X17323115Y-10536160D01*
X17323115Y-10536160D02*
X17313592Y-10517112D01*
X17313592Y-10517112D02*
X17313592Y-10345684D01*
X17494544Y-10536160D02*
X17475496Y-10545684D01*
X17475496Y-10545684D02*
X17437401Y-10545684D01*
X17437401Y-10545684D02*
X17418353Y-10536160D01*
X17418353Y-10536160D02*
X17408830Y-10517112D01*
X17408830Y-10517112D02*
X17408830Y-10440922D01*
X17408830Y-10440922D02*
X17418353Y-10421874D01*
X17418353Y-10421874D02*
X17437401Y-10412350D01*
X17437401Y-10412350D02*
X17475496Y-10412350D01*
X17475496Y-10412350D02*
X17494544Y-10421874D01*
X17494544Y-10421874D02*
X17504068Y-10440922D01*
X17504068Y-10440922D02*
X17504068Y-10459970D01*
X17504068Y-10459970D02*
X17408830Y-10479017D01*
X17580258Y-10536160D02*
X17599306Y-10545684D01*
X17599306Y-10545684D02*
X17637401Y-10545684D01*
X17637401Y-10545684D02*
X17656449Y-10536160D01*
X17656449Y-10536160D02*
X17665973Y-10517112D01*
X17665973Y-10517112D02*
X17665973Y-10507589D01*
X17665973Y-10507589D02*
X17656449Y-10488541D01*
X17656449Y-10488541D02*
X17637401Y-10479017D01*
X17637401Y-10479017D02*
X17608830Y-10479017D01*
X17608830Y-10479017D02*
X17589782Y-10469493D01*
X17589782Y-10469493D02*
X17580258Y-10450446D01*
X17580258Y-10450446D02*
X17580258Y-10440922D01*
X17580258Y-10440922D02*
X17589782Y-10421874D01*
X17589782Y-10421874D02*
X17608830Y-10412350D01*
X17608830Y-10412350D02*
X17637401Y-10412350D01*
X17637401Y-10412350D02*
X17656449Y-10421874D01*
X17732639Y-10621874D02*
X17742163Y-10612350D01*
X17742163Y-10612350D02*
X17761211Y-10583779D01*
X17761211Y-10583779D02*
X17770734Y-10564731D01*
X17770734Y-10564731D02*
X17780258Y-10536160D01*
X17780258Y-10536160D02*
X17789782Y-10488541D01*
X17789782Y-10488541D02*
X17789782Y-10450446D01*
X17789782Y-10450446D02*
X17780258Y-10402827D01*
X17780258Y-10402827D02*
X17770734Y-10374255D01*
X17770734Y-10374255D02*
X17761211Y-10355208D01*
X17761211Y-10355208D02*
X17742163Y-10326636D01*
X17742163Y-10326636D02*
X17732639Y-10317112D01*
D12*
X12752456Y-10753556D02*
X12752456Y-10682844D01*
X12681744Y-10682844D01*
X12681744Y-10753556D01*
X12752456Y-10753556D01*
D11*
X13132639Y-10809684D02*
X13018353Y-10809684D01*
X13075496Y-10809684D02*
X13075496Y-10609684D01*
X13075496Y-10609684D02*
X13056448Y-10638255D01*
X13056448Y-10638255D02*
X13037401Y-10657303D01*
X13037401Y-10657303D02*
X13018353Y-10666827D01*
X13218353Y-10790636D02*
X13227877Y-10800160D01*
X13227877Y-10800160D02*
X13218353Y-10809684D01*
X13218353Y-10809684D02*
X13208829Y-10800160D01*
X13208829Y-10800160D02*
X13218353Y-10790636D01*
X13218353Y-10790636D02*
X13218353Y-10809684D01*
X13351686Y-10609684D02*
X13370734Y-10609684D01*
X13370734Y-10609684D02*
X13389782Y-10619208D01*
X13389782Y-10619208D02*
X13399305Y-10628731D01*
X13399305Y-10628731D02*
X13408829Y-10647779D01*
X13408829Y-10647779D02*
X13418353Y-10685874D01*
X13418353Y-10685874D02*
X13418353Y-10733493D01*
X13418353Y-10733493D02*
X13408829Y-10771589D01*
X13408829Y-10771589D02*
X13399305Y-10790636D01*
X13399305Y-10790636D02*
X13389782Y-10800160D01*
X13389782Y-10800160D02*
X13370734Y-10809684D01*
X13370734Y-10809684D02*
X13351686Y-10809684D01*
X13351686Y-10809684D02*
X13332639Y-10800160D01*
X13332639Y-10800160D02*
X13323115Y-10790636D01*
X13323115Y-10790636D02*
X13313591Y-10771589D01*
X13313591Y-10771589D02*
X13304067Y-10733493D01*
X13304067Y-10733493D02*
X13304067Y-10685874D01*
X13304067Y-10685874D02*
X13313591Y-10647779D01*
X13313591Y-10647779D02*
X13323115Y-10628731D01*
X13323115Y-10628731D02*
X13332639Y-10619208D01*
X13332639Y-10619208D02*
X13351686Y-10609684D01*
X13542162Y-10609684D02*
X13561210Y-10609684D01*
X13561210Y-10609684D02*
X13580258Y-10619208D01*
X13580258Y-10619208D02*
X13589782Y-10628731D01*
X13589782Y-10628731D02*
X13599305Y-10647779D01*
X13599305Y-10647779D02*
X13608829Y-10685874D01*
X13608829Y-10685874D02*
X13608829Y-10733493D01*
X13608829Y-10733493D02*
X13599305Y-10771589D01*
X13599305Y-10771589D02*
X13589782Y-10790636D01*
X13589782Y-10790636D02*
X13580258Y-10800160D01*
X13580258Y-10800160D02*
X13561210Y-10809684D01*
X13561210Y-10809684D02*
X13542162Y-10809684D01*
X13542162Y-10809684D02*
X13523115Y-10800160D01*
X13523115Y-10800160D02*
X13513591Y-10790636D01*
X13513591Y-10790636D02*
X13504067Y-10771589D01*
X13504067Y-10771589D02*
X13494543Y-10733493D01*
X13494543Y-10733493D02*
X13494543Y-10685874D01*
X13494543Y-10685874D02*
X13504067Y-10647779D01*
X13504067Y-10647779D02*
X13513591Y-10628731D01*
X13513591Y-10628731D02*
X13523115Y-10619208D01*
X13523115Y-10619208D02*
X13542162Y-10609684D01*
X13732639Y-10609684D02*
X13751686Y-10609684D01*
X13751686Y-10609684D02*
X13770734Y-10619208D01*
X13770734Y-10619208D02*
X13780258Y-10628731D01*
X13780258Y-10628731D02*
X13789782Y-10647779D01*
X13789782Y-10647779D02*
X13799305Y-10685874D01*
X13799305Y-10685874D02*
X13799305Y-10733493D01*
X13799305Y-10733493D02*
X13789782Y-10771589D01*
X13789782Y-10771589D02*
X13780258Y-10790636D01*
X13780258Y-10790636D02*
X13770734Y-10800160D01*
X13770734Y-10800160D02*
X13751686Y-10809684D01*
X13751686Y-10809684D02*
X13732639Y-10809684D01*
X13732639Y-10809684D02*
X13713591Y-10800160D01*
X13713591Y-10800160D02*
X13704067Y-10790636D01*
X13704067Y-10790636D02*
X13694543Y-10771589D01*
X13694543Y-10771589D02*
X13685020Y-10733493D01*
X13685020Y-10733493D02*
X13685020Y-10685874D01*
X13685020Y-10685874D02*
X13694543Y-10647779D01*
X13694543Y-10647779D02*
X13704067Y-10628731D01*
X13704067Y-10628731D02*
X13713591Y-10619208D01*
X13713591Y-10619208D02*
X13732639Y-10609684D01*
X13885020Y-10809684D02*
X13885020Y-10676350D01*
X13885020Y-10695398D02*
X13894543Y-10685874D01*
X13894543Y-10685874D02*
X13913591Y-10676350D01*
X13913591Y-10676350D02*
X13942163Y-10676350D01*
X13942163Y-10676350D02*
X13961210Y-10685874D01*
X13961210Y-10685874D02*
X13970734Y-10704922D01*
X13970734Y-10704922D02*
X13970734Y-10809684D01*
X13970734Y-10704922D02*
X13980258Y-10685874D01*
X13980258Y-10685874D02*
X13999305Y-10676350D01*
X13999305Y-10676350D02*
X14027877Y-10676350D01*
X14027877Y-10676350D02*
X14046924Y-10685874D01*
X14046924Y-10685874D02*
X14056448Y-10704922D01*
X14056448Y-10704922D02*
X14056448Y-10809684D01*
X14151686Y-10809684D02*
X14151686Y-10676350D01*
X14151686Y-10695398D02*
X14161210Y-10685874D01*
X14161210Y-10685874D02*
X14180258Y-10676350D01*
X14180258Y-10676350D02*
X14208829Y-10676350D01*
X14208829Y-10676350D02*
X14227877Y-10685874D01*
X14227877Y-10685874D02*
X14237401Y-10704922D01*
X14237401Y-10704922D02*
X14237401Y-10809684D01*
X14237401Y-10704922D02*
X14246924Y-10685874D01*
X14246924Y-10685874D02*
X14265972Y-10676350D01*
X14265972Y-10676350D02*
X14294543Y-10676350D01*
X14294543Y-10676350D02*
X14313591Y-10685874D01*
X14313591Y-10685874D02*
X14323115Y-10704922D01*
X14323115Y-10704922D02*
X14323115Y-10809684D01*
X14713591Y-10600160D02*
X14542163Y-10857303D01*
X14970734Y-10609684D02*
X14989782Y-10609684D01*
X14989782Y-10609684D02*
X15008829Y-10619208D01*
X15008829Y-10619208D02*
X15018353Y-10628731D01*
X15018353Y-10628731D02*
X15027877Y-10647779D01*
X15027877Y-10647779D02*
X15037401Y-10685874D01*
X15037401Y-10685874D02*
X15037401Y-10733493D01*
X15037401Y-10733493D02*
X15027877Y-10771589D01*
X15027877Y-10771589D02*
X15018353Y-10790636D01*
X15018353Y-10790636D02*
X15008829Y-10800160D01*
X15008829Y-10800160D02*
X14989782Y-10809684D01*
X14989782Y-10809684D02*
X14970734Y-10809684D01*
X14970734Y-10809684D02*
X14951686Y-10800160D01*
X14951686Y-10800160D02*
X14942163Y-10790636D01*
X14942163Y-10790636D02*
X14932639Y-10771589D01*
X14932639Y-10771589D02*
X14923115Y-10733493D01*
X14923115Y-10733493D02*
X14923115Y-10685874D01*
X14923115Y-10685874D02*
X14932639Y-10647779D01*
X14932639Y-10647779D02*
X14942163Y-10628731D01*
X14942163Y-10628731D02*
X14951686Y-10619208D01*
X14951686Y-10619208D02*
X14970734Y-10609684D01*
X15123115Y-10790636D02*
X15132639Y-10800160D01*
X15132639Y-10800160D02*
X15123115Y-10809684D01*
X15123115Y-10809684D02*
X15113591Y-10800160D01*
X15113591Y-10800160D02*
X15123115Y-10790636D01*
X15123115Y-10790636D02*
X15123115Y-10809684D01*
X15256448Y-10609684D02*
X15275496Y-10609684D01*
X15275496Y-10609684D02*
X15294544Y-10619208D01*
X15294544Y-10619208D02*
X15304067Y-10628731D01*
X15304067Y-10628731D02*
X15313591Y-10647779D01*
X15313591Y-10647779D02*
X15323115Y-10685874D01*
X15323115Y-10685874D02*
X15323115Y-10733493D01*
X15323115Y-10733493D02*
X15313591Y-10771589D01*
X15313591Y-10771589D02*
X15304067Y-10790636D01*
X15304067Y-10790636D02*
X15294544Y-10800160D01*
X15294544Y-10800160D02*
X15275496Y-10809684D01*
X15275496Y-10809684D02*
X15256448Y-10809684D01*
X15256448Y-10809684D02*
X15237401Y-10800160D01*
X15237401Y-10800160D02*
X15227877Y-10790636D01*
X15227877Y-10790636D02*
X15218353Y-10771589D01*
X15218353Y-10771589D02*
X15208829Y-10733493D01*
X15208829Y-10733493D02*
X15208829Y-10685874D01*
X15208829Y-10685874D02*
X15218353Y-10647779D01*
X15218353Y-10647779D02*
X15227877Y-10628731D01*
X15227877Y-10628731D02*
X15237401Y-10619208D01*
X15237401Y-10619208D02*
X15256448Y-10609684D01*
X15389782Y-10609684D02*
X15513591Y-10609684D01*
X15513591Y-10609684D02*
X15446925Y-10685874D01*
X15446925Y-10685874D02*
X15475496Y-10685874D01*
X15475496Y-10685874D02*
X15494544Y-10695398D01*
X15494544Y-10695398D02*
X15504067Y-10704922D01*
X15504067Y-10704922D02*
X15513591Y-10723970D01*
X15513591Y-10723970D02*
X15513591Y-10771589D01*
X15513591Y-10771589D02*
X15504067Y-10790636D01*
X15504067Y-10790636D02*
X15494544Y-10800160D01*
X15494544Y-10800160D02*
X15475496Y-10809684D01*
X15475496Y-10809684D02*
X15418353Y-10809684D01*
X15418353Y-10809684D02*
X15399306Y-10800160D01*
X15399306Y-10800160D02*
X15389782Y-10790636D01*
X15608829Y-10809684D02*
X15646925Y-10809684D01*
X15646925Y-10809684D02*
X15665972Y-10800160D01*
X15665972Y-10800160D02*
X15675496Y-10790636D01*
X15675496Y-10790636D02*
X15694544Y-10762065D01*
X15694544Y-10762065D02*
X15704067Y-10723970D01*
X15704067Y-10723970D02*
X15704067Y-10647779D01*
X15704067Y-10647779D02*
X15694544Y-10628731D01*
X15694544Y-10628731D02*
X15685020Y-10619208D01*
X15685020Y-10619208D02*
X15665972Y-10609684D01*
X15665972Y-10609684D02*
X15627877Y-10609684D01*
X15627877Y-10609684D02*
X15608829Y-10619208D01*
X15608829Y-10619208D02*
X15599306Y-10628731D01*
X15599306Y-10628731D02*
X15589782Y-10647779D01*
X15589782Y-10647779D02*
X15589782Y-10695398D01*
X15589782Y-10695398D02*
X15599306Y-10714446D01*
X15599306Y-10714446D02*
X15608829Y-10723970D01*
X15608829Y-10723970D02*
X15627877Y-10733493D01*
X15627877Y-10733493D02*
X15665972Y-10733493D01*
X15665972Y-10733493D02*
X15685020Y-10723970D01*
X15685020Y-10723970D02*
X15694544Y-10714446D01*
X15694544Y-10714446D02*
X15704067Y-10695398D01*
X15875496Y-10676350D02*
X15875496Y-10809684D01*
X15827877Y-10600160D02*
X15780258Y-10743017D01*
X15780258Y-10743017D02*
X15904067Y-10743017D01*
X15970734Y-10609684D02*
X15970734Y-10647779D01*
X16046925Y-10609684D02*
X16046925Y-10647779D01*
X16342163Y-10885874D02*
X16332639Y-10876350D01*
X16332639Y-10876350D02*
X16313591Y-10847779D01*
X16313591Y-10847779D02*
X16304068Y-10828731D01*
X16304068Y-10828731D02*
X16294544Y-10800160D01*
X16294544Y-10800160D02*
X16285020Y-10752541D01*
X16285020Y-10752541D02*
X16285020Y-10714446D01*
X16285020Y-10714446D02*
X16294544Y-10666827D01*
X16294544Y-10666827D02*
X16304068Y-10638255D01*
X16304068Y-10638255D02*
X16313591Y-10619208D01*
X16313591Y-10619208D02*
X16332639Y-10590636D01*
X16332639Y-10590636D02*
X16342163Y-10581112D01*
X16523115Y-10809684D02*
X16408829Y-10809684D01*
X16465972Y-10809684D02*
X16465972Y-10609684D01*
X16465972Y-10609684D02*
X16446925Y-10638255D01*
X16446925Y-10638255D02*
X16427877Y-10657303D01*
X16427877Y-10657303D02*
X16408829Y-10666827D01*
X16589782Y-10609684D02*
X16713591Y-10609684D01*
X16713591Y-10609684D02*
X16646925Y-10685874D01*
X16646925Y-10685874D02*
X16675496Y-10685874D01*
X16675496Y-10685874D02*
X16694544Y-10695398D01*
X16694544Y-10695398D02*
X16704068Y-10704922D01*
X16704068Y-10704922D02*
X16713591Y-10723970D01*
X16713591Y-10723970D02*
X16713591Y-10771589D01*
X16713591Y-10771589D02*
X16704068Y-10790636D01*
X16704068Y-10790636D02*
X16694544Y-10800160D01*
X16694544Y-10800160D02*
X16675496Y-10809684D01*
X16675496Y-10809684D02*
X16618353Y-10809684D01*
X16618353Y-10809684D02*
X16599306Y-10800160D01*
X16599306Y-10800160D02*
X16589782Y-10790636D01*
X16951687Y-10809684D02*
X16951687Y-10609684D01*
X17037401Y-10809684D02*
X17037401Y-10704922D01*
X17037401Y-10704922D02*
X17027877Y-10685874D01*
X17027877Y-10685874D02*
X17008830Y-10676350D01*
X17008830Y-10676350D02*
X16980258Y-10676350D01*
X16980258Y-10676350D02*
X16961211Y-10685874D01*
X16961211Y-10685874D02*
X16951687Y-10695398D01*
X17161211Y-10809684D02*
X17142163Y-10800160D01*
X17142163Y-10800160D02*
X17132639Y-10790636D01*
X17132639Y-10790636D02*
X17123115Y-10771589D01*
X17123115Y-10771589D02*
X17123115Y-10714446D01*
X17123115Y-10714446D02*
X17132639Y-10695398D01*
X17132639Y-10695398D02*
X17142163Y-10685874D01*
X17142163Y-10685874D02*
X17161211Y-10676350D01*
X17161211Y-10676350D02*
X17189782Y-10676350D01*
X17189782Y-10676350D02*
X17208830Y-10685874D01*
X17208830Y-10685874D02*
X17218353Y-10695398D01*
X17218353Y-10695398D02*
X17227877Y-10714446D01*
X17227877Y-10714446D02*
X17227877Y-10771589D01*
X17227877Y-10771589D02*
X17218353Y-10790636D01*
X17218353Y-10790636D02*
X17208830Y-10800160D01*
X17208830Y-10800160D02*
X17189782Y-10809684D01*
X17189782Y-10809684D02*
X17161211Y-10809684D01*
X17342163Y-10809684D02*
X17323115Y-10800160D01*
X17323115Y-10800160D02*
X17313592Y-10781112D01*
X17313592Y-10781112D02*
X17313592Y-10609684D01*
X17494544Y-10800160D02*
X17475496Y-10809684D01*
X17475496Y-10809684D02*
X17437401Y-10809684D01*
X17437401Y-10809684D02*
X17418353Y-10800160D01*
X17418353Y-10800160D02*
X17408830Y-10781112D01*
X17408830Y-10781112D02*
X17408830Y-10704922D01*
X17408830Y-10704922D02*
X17418353Y-10685874D01*
X17418353Y-10685874D02*
X17437401Y-10676350D01*
X17437401Y-10676350D02*
X17475496Y-10676350D01*
X17475496Y-10676350D02*
X17494544Y-10685874D01*
X17494544Y-10685874D02*
X17504068Y-10704922D01*
X17504068Y-10704922D02*
X17504068Y-10723970D01*
X17504068Y-10723970D02*
X17408830Y-10743017D01*
X17580258Y-10800160D02*
X17599306Y-10809684D01*
X17599306Y-10809684D02*
X17637401Y-10809684D01*
X17637401Y-10809684D02*
X17656449Y-10800160D01*
X17656449Y-10800160D02*
X17665973Y-10781112D01*
X17665973Y-10781112D02*
X17665973Y-10771589D01*
X17665973Y-10771589D02*
X17656449Y-10752541D01*
X17656449Y-10752541D02*
X17637401Y-10743017D01*
X17637401Y-10743017D02*
X17608830Y-10743017D01*
X17608830Y-10743017D02*
X17589782Y-10733493D01*
X17589782Y-10733493D02*
X17580258Y-10714446D01*
X17580258Y-10714446D02*
X17580258Y-10704922D01*
X17580258Y-10704922D02*
X17589782Y-10685874D01*
X17589782Y-10685874D02*
X17608830Y-10676350D01*
X17608830Y-10676350D02*
X17637401Y-10676350D01*
X17637401Y-10676350D02*
X17656449Y-10685874D01*
X17732639Y-10885874D02*
X17742163Y-10876350D01*
X17742163Y-10876350D02*
X17761211Y-10847779D01*
X17761211Y-10847779D02*
X17770734Y-10828731D01*
X17770734Y-10828731D02*
X17780258Y-10800160D01*
X17780258Y-10800160D02*
X17789782Y-10752541D01*
X17789782Y-10752541D02*
X17789782Y-10714446D01*
X17789782Y-10714446D02*
X17780258Y-10666827D01*
X17780258Y-10666827D02*
X17770734Y-10638255D01*
X17770734Y-10638255D02*
X17761211Y-10619208D01*
X17761211Y-10619208D02*
X17742163Y-10590636D01*
X17742163Y-10590636D02*
X17732639Y-10581112D01*
M02*
